<svg width="290" height="418" viewBox="0 0 290 418" fill="none" xmlns="http://www.w3.org/2000/svg">
<mask id="path-1-inside-1_505_1273" fill="white">
<path fill-rule="evenodd" clip-rule="evenodd" d="M178.754 25.313H110.823V90.9814L9.65199 263.343C3.78252 273.343 10.9932 285.936 22.5881 285.936H266.989C278.584 285.936 285.795 273.343 279.926 263.343L178.754 90.9804V25.313Z"/>
</mask>
<path fill-rule="evenodd" clip-rule="evenodd" d="M178.754 25.313H110.823V90.9814L9.65199 263.343C3.78252 273.343 10.9932 285.936 22.5881 285.936H266.989C278.584 285.936 285.795 273.343 279.926 263.343L178.754 90.9804V25.313Z" fill="white"/>
<path d="M110.823 25.313V24.313H109.823V25.313H110.823ZM178.754 25.313H179.754V24.313H178.754V25.313ZM110.823 90.9814L111.685 91.4876L111.823 91.2532V90.9814H110.823ZM9.65199 263.343L10.5144 263.849L10.5144 263.849L9.65199 263.343ZM279.926 263.343L279.063 263.849L279.063 263.849L279.926 263.343ZM178.754 90.9804H177.754V91.2522L177.892 91.4866L178.754 90.9804ZM110.823 26.313H178.754V24.313H110.823V26.313ZM111.823 90.9814V25.313H109.823V90.9814H111.823ZM10.5144 263.849L111.685 91.4876L109.961 90.4752L8.78958 262.837L10.5144 263.849ZM22.5881 284.936C11.7662 284.936 5.03623 273.182 10.5144 263.849L8.78958 262.837C2.52882 273.503 10.2202 286.936 22.5881 286.936V284.936ZM266.989 284.936H22.5881V286.936H266.989V284.936ZM279.063 263.849C284.541 273.182 277.811 284.936 266.989 284.936V286.936C279.357 286.936 287.049 273.503 280.788 262.837L279.063 263.849ZM177.892 91.4866L279.063 263.849L280.788 262.837L179.616 90.4742L177.892 91.4866ZM177.754 25.313V90.9804H179.754V25.313H177.754Z" fill="black" mask="url(#path-1-inside-1_505_1273)"/>
<rect x="97.8896" y="1.43652" width="93.7981" height="26.0852" rx="13.0426" fill="white" stroke="black"/>
<path fill-rule="evenodd" clip-rule="evenodd" d="M78.3838 181.633C78.9108 181.328 92.2127 173.667 101.916 171.523C111.118 169.489 118.056 171.304 125.468 173.242C130.664 174.601 136.092 176.021 142.696 176.218C151.704 176.487 159.705 173.705 167.261 171.079C178.573 167.147 188.888 163.561 200.094 171.076C205.57 174.749 212.805 181.605 212.805 181.605L212.707 181.633H212.762L251.62 247.834C258.097 258.868 250.14 272.765 237.345 272.765H53.3218C40.5267 272.765 32.5697 258.868 39.0467 247.834L77.9047 181.633H78.3838Z" fill="url(#paint0_linear_505_1273)"/>
<path d="M101.916 171.523L101.808 171.035L101.808 171.035L101.916 171.523ZM78.3838 181.633V182.133H78.518L78.6342 182.065L78.3838 181.633ZM125.468 173.242L125.594 172.758L125.594 172.758L125.468 173.242ZM142.696 176.218L142.711 175.718L142.696 176.218ZM167.261 171.079L167.425 171.551L167.425 171.551L167.261 171.079ZM200.094 171.076L199.816 171.492L199.816 171.492L200.094 171.076ZM212.805 181.605L212.941 182.086L213.788 181.847L213.149 181.242L212.805 181.605ZM212.707 181.633L212.571 181.151L212.707 182.133V181.633ZM212.762 181.633L213.193 181.379L213.049 181.133H212.762V181.633ZM251.62 247.834L251.189 248.087L251.189 248.087L251.62 247.834ZM39.0467 247.834L39.4779 248.087L39.4779 248.087L39.0467 247.834ZM77.9047 181.633V181.133H77.6184L77.4735 181.379L77.9047 181.633ZM101.808 171.035C96.8972 172.12 91.1029 174.592 86.4915 176.817C81.8718 179.046 78.4028 181.044 78.1334 181.2L78.6342 182.065C78.8918 181.916 82.3372 179.932 86.926 177.718C91.5232 175.5 97.2314 173.07 102.024 172.011L101.808 171.035ZM125.594 172.758C118.182 170.82 111.139 168.973 101.808 171.035L102.024 172.011C111.097 170.006 117.93 171.788 125.341 173.726L125.594 172.758ZM142.711 175.718C136.17 175.523 130.792 174.118 125.594 172.758L125.341 173.726C130.535 175.084 136.014 176.518 142.681 176.717L142.711 175.718ZM167.097 170.607C159.53 173.237 151.614 175.984 142.711 175.718L142.681 176.717C151.795 176.989 159.88 174.174 167.425 171.551L167.097 170.607ZM200.373 170.661C188.934 162.99 178.378 166.685 167.097 170.607L167.425 171.551C178.768 167.608 188.842 164.132 199.816 171.492L200.373 170.661ZM212.805 181.605C213.149 181.242 213.149 181.242 213.149 181.242C213.149 181.242 213.149 181.242 213.149 181.241C213.149 181.241 213.148 181.241 213.148 181.24C213.147 181.24 213.146 181.238 213.144 181.237C213.14 181.233 213.135 181.228 213.128 181.221C213.114 181.208 213.093 181.188 213.065 181.163C213.011 181.111 212.93 181.035 212.825 180.937C212.615 180.742 212.31 180.459 211.927 180.108C211.161 179.405 210.082 178.431 208.832 177.341C206.335 175.165 203.138 172.516 200.373 170.661L199.816 171.492C202.526 173.31 205.685 175.925 208.175 178.095C209.418 179.178 210.49 180.147 211.251 180.845C211.632 181.194 211.935 181.475 212.143 181.669C212.246 181.765 212.326 181.84 212.38 181.891C212.407 181.916 212.428 181.936 212.441 181.949C212.448 181.955 212.453 181.96 212.457 181.963C212.458 181.965 212.459 181.966 212.46 181.967C212.461 181.967 212.461 181.967 212.461 181.967C212.461 181.968 212.461 181.968 212.461 181.968C212.461 181.968 212.461 181.968 212.805 181.605ZM212.843 182.114L212.941 182.086L212.67 181.124L212.571 181.151L212.843 182.114ZM212.762 181.133H212.707V182.133H212.762V181.133ZM252.051 247.581L213.193 181.379L212.331 181.886L251.189 248.087L252.051 247.581ZM237.345 273.265C250.527 273.265 258.724 258.949 252.051 247.581L251.189 248.087C257.47 258.788 249.754 272.265 237.345 272.265V273.265ZM53.3218 273.265H237.345V272.265H53.3218V273.265ZM38.6155 247.581C31.9428 258.949 40.1402 273.265 53.3218 273.265V272.265C40.9132 272.265 33.1965 258.788 39.4779 248.087L38.6155 247.581ZM77.4735 181.379L38.6155 247.581L39.4779 248.087L78.3359 181.886L77.4735 181.379ZM78.3838 181.133H77.9047V182.133H78.3838V181.133Z" fill="black"/>
<rect x="25" y="321.707" width="18.799" height="18.799" rx="0.5" transform="rotate(45 25 321.707)" fill="#ED712E" stroke="black"/>
<path fill-rule="evenodd" clip-rule="evenodd" d="M28.8285 330.407C28.8285 327.719 27.0317 326.64 24.8305 326.64C22.6294 326.64 20.8326 327.719 20.8326 330.407C20.8326 331.923 21.3941 333.049 22.27 333.738C22.4273 333.853 22.5171 334.013 22.5396 334.197L22.5845 334.771C22.6294 335.139 22.854 335.415 23.1909 335.506C24.269 335.805 25.3921 335.805 26.4702 335.506C26.8071 335.415 27.0541 335.116 27.0766 334.771L27.1215 334.197C27.144 334.013 27.2563 333.853 27.3911 333.738C28.267 333.049 28.8285 331.923 28.8285 330.407ZM28.8959 338.539C28.6938 338.631 28.4467 338.654 28.2221 338.562L26.3354 337.872L27.9301 337.275C28.1547 337.183 28.4018 337.183 28.6039 337.275C28.8061 337.367 29.1205 337.436 29.435 337.367C30.1088 337.183 30.266 336.862 30.1762 336.471C30.1312 336.242 29.974 336.058 29.7045 335.989C29.727 335.851 29.682 335.69 29.6146 335.529C29.435 335.185 29.0756 335.001 28.6488 335.231C28.4692 335.323 28.3119 335.552 28.2221 335.759C28.1098 335.989 27.9076 336.15 27.683 336.242L24.8305 337.298L21.978 336.219C21.731 336.127 21.5513 335.966 21.439 335.736C21.3492 335.529 21.2144 335.3 21.0122 335.208C20.563 334.978 20.2261 335.162 20.0464 335.506C19.9791 335.644 19.9341 335.805 19.9566 335.966C19.6871 336.035 19.5298 336.219 19.4849 336.448C19.3951 336.839 19.5523 337.183 20.2261 337.344C20.5406 337.413 20.8326 337.344 21.0572 337.252C21.2818 337.183 21.5064 337.183 21.731 337.252L23.3257 337.85L21.439 338.539C21.2144 338.608 20.9898 338.608 20.7652 338.516C20.563 338.447 20.271 338.355 20.0464 338.401C19.5523 338.516 19.3951 338.86 19.4849 339.251C19.5298 339.412 19.5972 339.572 19.7095 339.664C19.5523 339.894 19.5298 340.124 19.6421 340.353C19.8218 340.698 20.1363 340.882 20.7652 340.56C21.0572 340.399 21.2593 340.124 21.3716 339.917C21.4839 339.733 21.6636 339.572 21.8657 339.503L24.8305 338.424L27.7953 339.526C27.9975 339.595 28.1772 339.733 28.2895 339.94C28.4018 340.17 28.6039 340.445 28.8959 340.583C29.5248 340.882 29.8393 340.721 30.0189 340.376C30.1312 340.17 30.1088 339.917 29.9516 339.687C30.0639 339.595 30.1312 339.435 30.1762 339.274C30.2435 338.883 30.0863 338.539 29.6146 338.424C29.39 338.355 29.1205 338.447 28.8959 338.539ZM25.0807 334.092H24.5694C24.4044 334.092 24.289 333.881 24.3714 333.692L24.6848 332.764C24.7343 332.595 24.9323 332.595 24.9818 332.764L25.2952 333.692C25.3611 333.881 25.2457 334.092 25.0807 334.092ZM23.2701 332.139C24.1895 332.07 24.4124 331.584 24.3288 331.053C24.2452 330.521 23.7995 330.152 22.9915 330.221C22.1835 330.314 21.8492 330.776 21.9328 331.307C22.0164 331.839 22.3507 332.231 23.2701 332.139ZM27.2444 331.312C27.1776 331.843 26.9104 332.213 26.1754 332.144C25.4183 332.074 25.2624 331.589 25.3292 331.058C25.396 330.526 25.7523 330.133 26.3981 330.226C27.0662 330.318 27.3112 330.78 27.2444 331.312Z" fill="black"/>
<path opacity="0.8" d="M53.82 338.695V330.67H56.025C57.99 330.67 59.61 332.02 59.61 334.705C59.61 337.375 57.96 338.695 55.995 338.695H53.82ZM56.04 340C58.74 340 61.125 338.185 61.125 334.705C61.125 331.21 58.77 329.365 56.07 329.365H52.35V340H56.04ZM70.2109 340V338.635H65.2159V335.38H69.7459V334H65.2159V330.73H70.2109V329.365H63.7459V340H70.2109ZM79.8417 331.78C79.6017 330.625 78.6417 329.14 76.2417 329.14C74.2767 329.14 72.7317 330.64 72.7317 332.305C72.7317 333.895 73.8117 334.885 75.3267 335.215L76.8417 335.545C77.9067 335.77 78.4317 336.43 78.4317 337.195C78.4317 338.125 77.7117 338.89 76.2417 338.89C74.6367 338.89 73.7967 337.795 73.6917 336.61L72.2817 337.06C72.4767 338.575 73.6917 340.225 76.2567 340.225C78.5217 340.225 79.9317 338.725 79.9317 337.075C79.9317 335.59 78.9417 334.48 77.1717 334.09L75.5817 333.745C74.6817 333.55 74.2167 332.965 74.2167 332.2C74.2167 331.21 75.0717 330.43 76.2717 330.43C77.7567 330.43 78.4017 331.48 78.5217 332.245L79.8417 331.78ZM87.0851 340.225C89.5301 340.225 91.2101 338.8 91.7801 336.805L90.4751 336.325C90.0401 337.78 88.9001 338.875 87.0851 338.875C85.1501 338.875 83.3051 337.45 83.3051 334.675C83.3051 331.9 85.1501 330.49 87.0851 330.49C88.8251 330.49 89.9951 331.39 90.4001 332.995L91.7651 332.515C91.2251 330.46 89.5151 329.14 87.0851 329.14C84.4451 329.14 81.8051 331.12 81.8051 334.675C81.8051 338.23 84.3401 340.225 87.0851 340.225ZM99.8351 340H101.545L99.0101 335.545C100.615 335.245 101.59 334.06 101.59 332.53C101.59 330.775 100.345 329.365 98.3351 329.365H94.3301V340H95.8151V335.65H97.4051L99.8351 340ZM95.8151 334.33V330.685H98.0651C99.2651 330.685 100.075 331.405 100.075 332.53C100.075 333.625 99.2651 334.33 98.0651 334.33H95.8151ZM105.717 340V329.365H104.217V340H105.717ZM110.491 334.33V330.685H112.621C113.896 330.685 114.676 331.405 114.676 332.53C114.676 333.625 113.896 334.33 112.621 334.33H110.491ZM112.891 335.65C114.856 335.65 116.176 334.315 116.176 332.515C116.176 330.73 114.856 329.365 112.891 329.365H109.021V340H110.491V335.65H112.891ZM125.951 330.73V329.365H117.371V330.73H120.926V340H122.396V330.73H125.951ZM129.548 340V329.365H128.048V340H129.548ZM133.678 334.675C133.678 331.9 135.538 330.49 137.518 330.49C139.498 330.49 141.358 331.9 141.358 334.675C141.358 337.45 139.498 338.875 137.518 338.875C135.538 338.875 133.678 337.45 133.678 334.675ZM132.178 334.675C132.178 338.23 134.848 340.225 137.518 340.225C140.188 340.225 142.858 338.23 142.858 334.675C142.858 331.12 140.188 329.14 137.518 329.14C134.848 329.14 132.178 331.12 132.178 334.675ZM154.224 340V329.365H152.754V337.525L147.444 329.365H145.479V340H146.949V331.33L152.694 340H154.224ZM161.659 339.04C161.659 339.625 162.109 340.075 162.694 340.075C163.279 340.075 163.744 339.625 163.744 339.04C163.744 338.455 163.279 337.99 162.694 337.99C162.109 337.99 161.659 338.455 161.659 339.04ZM161.644 333.76C161.644 334.345 162.094 334.795 162.679 334.795C163.264 334.795 163.729 334.345 163.729 333.76C163.729 333.175 163.264 332.71 162.679 332.71C162.094 332.71 161.644 333.175 161.644 333.76ZM59.55 359L58.545 356.33H54.045L53.055 359H51.15L55.29 348.365H57.375L61.515 359H59.55ZM56.295 350.315L54.675 354.665H57.915L56.295 350.315ZM69.9654 358.19C69.2254 358.88 68.2754 359.225 67.1154 359.225C65.9554 359.225 65.0054 358.88 64.2654 358.19C63.5254 357.5 63.1554 356.535 63.1554 355.295V348.365H64.9404V355.19C64.9404 355.93 65.1304 356.505 65.5104 356.915C65.9004 357.315 66.4354 357.515 67.1154 357.515C67.8054 357.515 68.3404 357.315 68.7204 356.915C69.1004 356.515 69.2904 355.94 69.2904 355.19V348.365H71.0904V355.295C71.0904 356.535 70.7154 357.5 69.9654 358.19ZM81.7789 350.06H78.3139V359H76.5139V350.06H73.0639V348.365H81.7789V350.06ZM85.7684 350.855C85.0684 351.525 84.7184 352.465 84.7184 353.675C84.7184 354.885 85.0684 355.83 85.7684 356.51C86.4684 357.18 87.3034 357.515 88.2734 357.515C89.2434 357.515 90.0784 357.18 90.7784 356.51C91.4884 355.83 91.8434 354.885 91.8434 353.675C91.8434 352.465 91.4884 351.525 90.7784 350.855C90.0784 350.175 89.2434 349.835 88.2734 349.835C87.3034 349.835 86.4684 350.175 85.7684 350.855ZM83.6384 356.645C83.1284 355.785 82.8734 354.795 82.8734 353.675C82.8734 352.555 83.1284 351.57 83.6384 350.72C84.1584 349.86 84.8234 349.215 85.6334 348.785C86.4434 348.355 87.3234 348.14 88.2734 348.14C89.2234 348.14 90.1034 348.355 90.9134 348.785C91.7234 349.215 92.3884 349.86 92.9084 350.72C93.4284 351.57 93.6884 352.555 93.6884 353.675C93.6884 354.795 93.4284 355.785 92.9084 356.645C92.3884 357.505 91.7234 358.15 90.9134 358.58C90.1034 359.01 89.2234 359.225 88.2734 359.225C87.3234 359.225 86.4434 359.01 85.6334 358.58C84.8234 358.15 84.1584 357.505 83.6384 356.645ZM105.114 359H103.239L97.9887 350.945V359H96.1887V348.365H98.4837L103.314 355.91V348.365H105.114V359ZM110.508 350.855C109.808 351.525 109.458 352.465 109.458 353.675C109.458 354.885 109.808 355.83 110.508 356.51C111.208 357.18 112.043 357.515 113.013 357.515C113.983 357.515 114.818 357.18 115.518 356.51C116.228 355.83 116.583 354.885 116.583 353.675C116.583 352.465 116.228 351.525 115.518 350.855C114.818 350.175 113.983 349.835 113.013 349.835C112.043 349.835 111.208 350.175 110.508 350.855ZM108.378 356.645C107.868 355.785 107.613 354.795 107.613 353.675C107.613 352.555 107.868 351.57 108.378 350.72C108.898 349.86 109.563 349.215 110.373 348.785C111.183 348.355 112.063 348.14 113.013 348.14C113.963 348.14 114.843 348.355 115.653 348.785C116.463 349.215 117.128 349.86 117.648 350.72C118.168 351.57 118.428 352.555 118.428 353.675C118.428 354.795 118.168 355.785 117.648 356.645C117.128 357.505 116.463 358.15 115.653 358.58C114.843 359.01 113.963 359.225 113.013 359.225C112.063 359.225 111.183 359.01 110.373 358.58C109.563 358.15 108.898 357.505 108.378 356.645ZM132.629 359H130.844V351.17L127.529 359H125.969L122.684 351.2V359H120.929V348.365H123.329L126.779 356.48L130.184 348.365H132.629V359ZM137.612 359H135.782V348.365H137.612V359ZM147.332 359H140.762V348.365H147.332V350.045H142.562V352.865H146.882V354.5H142.562V357.32H147.332V359ZM162.048 350.06H158.583V359H156.783V350.06H153.333V348.365H162.048V350.06ZM166.037 350.855C165.337 351.525 164.987 352.465 164.987 353.675C164.987 354.885 165.337 355.83 166.037 356.51C166.737 357.18 167.572 357.515 168.542 357.515C169.512 357.515 170.347 357.18 171.047 356.51C171.757 355.83 172.112 354.885 172.112 353.675C172.112 352.465 171.757 351.525 171.047 350.855C170.347 350.175 169.512 349.835 168.542 349.835C167.572 349.835 166.737 350.175 166.037 350.855ZM163.907 356.645C163.397 355.785 163.142 354.795 163.142 353.675C163.142 352.555 163.397 351.57 163.907 350.72C164.427 349.86 165.092 349.215 165.902 348.785C166.712 348.355 167.592 348.14 168.542 348.14C169.492 348.14 170.372 348.355 171.182 348.785C171.992 349.215 172.657 349.86 173.177 350.72C173.697 351.57 173.957 352.555 173.957 353.675C173.957 354.795 173.697 355.785 173.177 356.645C172.657 357.505 171.992 358.15 171.182 358.58C170.372 359.01 169.492 359.225 168.542 359.225C167.592 359.225 166.712 359.01 165.902 358.58C165.092 358.15 164.427 357.505 163.907 356.645ZM183.756 350.06H180.291V359H178.491V350.06H175.041V348.365H183.756V350.06ZM192.125 359L191.12 356.33H186.62L185.63 359H183.725L187.865 348.365H189.95L194.09 359H192.125ZM188.87 350.315L187.25 354.665H190.49L188.87 350.315ZM202.789 359H196.114V348.365H197.914V357.29H202.789V359ZM211.605 359H205.035V348.365H211.605V350.045H206.835V352.865H211.155V354.5H206.835V357.32H211.605V359ZM227.611 359H225.736L220.486 350.945V359H218.686V348.365H220.981L225.811 355.91V348.365H227.611V359ZM231.506 350.72C231.306 350.92 231.206 351.18 231.206 351.5C231.206 351.82 231.306 352.085 231.506 352.295C231.716 352.505 231.971 352.61 232.271 352.61C232.571 352.61 232.821 352.505 233.021 352.295C233.221 352.085 233.321 351.82 233.321 351.5C233.321 351.18 233.221 350.92 233.021 350.72C232.821 350.51 232.571 350.405 232.271 350.405C231.971 350.405 231.716 350.51 231.506 350.72ZM230.531 353.21C230.051 352.74 229.811 352.17 229.811 351.5C229.811 350.83 230.051 350.26 230.531 349.79C231.021 349.32 231.601 349.085 232.271 349.085C232.941 349.085 233.516 349.32 233.996 349.79C234.486 350.26 234.731 350.83 234.731 351.5C234.731 352.17 234.486 352.74 233.996 353.21C233.516 353.67 232.936 353.9 232.256 353.9C231.586 353.9 231.011 353.67 230.531 353.21ZM235.747 356.87V354.92L239.887 349.28H242.197V355.28H243.832V356.87H242.197V359H240.427V356.87H235.747ZM240.427 355.28V351.095L237.367 355.28H240.427ZM56.753 378V376.988H53.068V370.201H51.99V378H56.753ZM58.6746 374.095C58.6746 372.06 60.0386 371.026 61.4906 371.026C62.9426 371.026 64.3066 372.06 64.3066 374.095C64.3066 376.13 62.9426 377.175 61.4906 377.175C60.0386 377.175 58.6746 376.13 58.6746 374.095ZM57.5746 374.095C57.5746 376.702 59.5326 378.165 61.4906 378.165C63.4486 378.165 65.4066 376.702 65.4066 374.095C65.4066 371.488 63.4486 370.036 61.4906 370.036C59.5326 370.036 57.5746 371.488 57.5746 374.095ZM72.4617 371.202V370.201H66.1697V371.202H68.7767V378H69.8547V371.202H72.4617ZM77.0355 377.296C77.0355 377.725 77.3655 378.055 77.7945 378.055C78.2235 378.055 78.5645 377.725 78.5645 377.296C78.5645 376.867 78.2235 376.526 77.7945 376.526C77.3655 376.526 77.0355 376.867 77.0355 377.296ZM77.0245 373.424C77.0245 373.853 77.3545 374.183 77.7835 374.183C78.2125 374.183 78.5535 373.853 78.5535 373.424C78.5535 372.995 78.2125 372.654 77.7835 372.654C77.3545 372.654 77.0245 372.995 77.0245 373.424ZM85.2754 378H83.9334V370.201H85.2754V378ZM88.9053 373.787H90.2803C90.6983 373.787 91.0246 373.681 91.2593 373.468C91.5013 373.248 91.6223 372.955 91.6223 372.588C91.6223 372.214 91.5013 371.917 91.2593 371.697C91.0246 371.477 90.6983 371.367 90.2803 371.367H88.9053V373.787ZM90.4783 374.953H88.9053V378H87.5853V370.201H90.4783C91.219 370.201 91.8166 370.425 92.2713 370.872C92.7333 371.319 92.9643 371.888 92.9643 372.577C92.9643 373.274 92.7333 373.846 92.2713 374.293C91.8166 374.733 91.219 374.953 90.4783 374.953ZM100.935 378H99.604V374.667H95.941V378H94.621V370.201H95.941V373.424H99.604V370.201H100.935V378ZM105.909 375.349H102.807V374.216H105.909V375.349ZM112.729 371.059L112.355 372.137C112.003 371.946 111.596 371.851 111.134 371.851C110.459 371.851 109.898 372.06 109.451 372.478C109.011 372.889 108.761 373.439 108.703 374.128C109.069 373.563 109.674 373.281 110.518 373.281C111.236 373.281 111.819 373.501 112.267 373.941C112.714 374.381 112.938 374.964 112.938 375.69C112.938 376.416 112.677 377.01 112.157 377.472C111.636 377.934 110.994 378.165 110.232 378.165C109.352 378.165 108.655 377.85 108.142 377.219C107.636 376.588 107.383 375.8 107.383 374.854C107.383 373.585 107.738 372.577 108.45 371.829C109.161 371.081 110.081 370.707 111.211 370.707C111.856 370.707 112.362 370.824 112.729 371.059ZM108.846 375.712C108.846 376.108 108.981 376.431 109.253 376.68C109.531 376.922 109.858 377.043 110.232 377.043C110.62 377.043 110.947 376.922 111.211 376.68C111.482 376.438 111.618 376.115 111.618 375.712C111.618 375.309 111.482 374.986 111.211 374.744C110.947 374.502 110.62 374.381 110.232 374.381C109.843 374.381 109.513 374.502 109.242 374.744C108.978 374.986 108.846 375.309 108.846 375.712ZM113.928 375.646V375.14L115.215 374.876V375.602C115.215 376.042 115.325 376.372 115.545 376.592C115.765 376.812 116.055 376.922 116.414 376.922C116.766 376.922 117.045 376.812 117.25 376.592C117.455 376.365 117.558 376.053 117.558 375.657V370.201H118.878V375.624C118.878 376.335 118.651 376.937 118.196 377.428C117.741 377.919 117.151 378.165 116.425 378.165C115.662 378.165 115.054 377.938 114.599 377.483C114.152 377.021 113.928 376.409 113.928 375.646ZM56.027 397H57.281L55.422 393.733C56.599 393.513 57.314 392.644 57.314 391.522C57.314 390.235 56.401 389.201 54.927 389.201H51.99V397H53.079V393.81H54.245L56.027 397ZM53.079 392.842V390.169H54.729C55.609 390.169 56.203 390.697 56.203 391.522C56.203 392.325 55.609 392.842 54.729 392.842H53.079ZM63.9815 397V395.999H60.3185V393.612H63.6405V392.6H60.3185V390.202H63.9815V389.201H59.2405V397H63.9815ZM63.3655 387.342H61.9355L60.8245 388.651H61.8585L63.3655 387.342ZM72.7724 397V393.183H69.0434V394.151H71.7494C71.7054 394.954 71.0784 396.186 69.3404 396.186C67.9434 396.186 66.6234 395.163 66.6234 393.095C66.6234 391.027 67.9874 390.026 69.3844 390.026C70.5944 390.026 71.5074 390.686 71.8594 391.808L72.8384 391.39C72.3874 389.982 71.0784 389.036 69.3844 389.036C67.4594 389.036 65.5234 390.455 65.5234 393.095C65.5234 395.735 67.3494 397.165 69.3074 397.165C70.6164 397.165 71.4634 396.516 71.8044 395.9L71.9034 397H72.7724ZM75.9696 397V389.201H74.8696V397H75.9696ZM78.9976 393.095C78.9976 391.06 80.3616 390.026 81.8136 390.026C83.2656 390.026 84.6296 391.06 84.6296 393.095C84.6296 395.13 83.2656 396.175 81.8136 396.175C80.3616 396.175 78.9976 395.13 78.9976 393.095ZM77.8976 393.095C77.8976 395.702 79.8556 397.165 81.8136 397.165C83.7716 397.165 85.7296 395.702 85.7296 393.095C85.7296 390.488 83.7716 389.036 81.8136 389.036C79.8556 389.036 77.8976 390.488 77.8976 393.095ZM94.0649 397V389.201H92.9869V395.185L89.0929 389.201H87.6519V397H88.7299V390.642L92.9429 397H94.0649ZM99.5176 396.296C99.5176 396.725 99.8476 397.055 100.277 397.055C100.706 397.055 101.047 396.725 101.047 396.296C101.047 395.867 100.706 395.526 100.277 395.526C99.8476 395.526 99.5176 395.867 99.5176 396.296ZM99.5066 392.424C99.5066 392.853 99.8366 393.183 100.266 393.183C100.695 393.183 101.036 392.853 101.036 392.424C101.036 391.995 100.695 391.654 100.266 391.654C99.8366 391.654 99.5066 391.995 99.5066 392.424ZM107.285 393.436C107.285 394.36 107.453 395.038 107.791 395.471C108.055 395.823 108.421 395.999 108.891 395.999C109.345 395.999 109.712 395.823 109.991 395.471C110.321 395.046 110.486 394.367 110.486 393.436C110.486 392.505 110.321 391.826 109.991 391.401C109.712 391.049 109.345 390.873 108.891 390.873C108.421 390.873 108.055 391.049 107.791 391.401C107.453 391.819 107.285 392.497 107.285 393.436ZM106.614 395.999C106.188 395.361 105.976 394.507 105.976 393.436C105.976 392.365 106.188 391.511 106.614 390.873C107.134 390.096 107.893 389.707 108.891 389.707C109.881 389.707 110.636 390.096 111.157 390.873C111.582 391.511 111.795 392.365 111.795 393.436C111.795 394.507 111.582 395.361 111.157 395.999C110.636 396.776 109.881 397.165 108.891 397.165C107.893 397.165 107.134 396.776 106.614 395.999ZM114.503 393.436C114.503 394.36 114.671 395.038 115.009 395.471C115.273 395.823 115.639 395.999 116.109 395.999C116.563 395.999 116.93 395.823 117.209 395.471C117.539 395.046 117.704 394.367 117.704 393.436C117.704 392.505 117.539 391.826 117.209 391.401C116.93 391.049 116.563 390.873 116.109 390.873C115.639 390.873 115.273 391.049 115.009 391.401C114.671 391.819 114.503 392.497 114.503 393.436ZM113.832 395.999C113.406 395.361 113.194 394.507 113.194 393.436C113.194 392.365 113.406 391.511 113.832 390.873C114.352 390.096 115.111 389.707 116.109 389.707C117.099 389.707 117.854 390.096 118.375 390.873C118.8 391.511 119.013 392.365 119.013 393.436C119.013 394.507 118.8 395.361 118.375 395.999C117.854 396.776 117.099 397.165 116.109 397.165C115.111 397.165 114.352 396.776 113.832 395.999ZM125.769 390.059L125.395 391.137C125.043 390.946 124.636 390.851 124.174 390.851C123.499 390.851 122.938 391.06 122.491 391.478C122.051 391.889 121.802 392.439 121.743 393.128C122.11 392.563 122.715 392.281 123.558 392.281C124.277 392.281 124.86 392.501 125.307 392.941C125.754 393.381 125.978 393.964 125.978 394.69C125.978 395.416 125.718 396.01 125.197 396.472C124.676 396.934 124.035 397.165 123.272 397.165C122.392 397.165 121.695 396.85 121.182 396.219C120.676 395.588 120.423 394.8 120.423 393.854C120.423 392.585 120.779 391.577 121.49 390.829C122.201 390.081 123.122 389.707 124.251 389.707C124.896 389.707 125.402 389.824 125.769 390.059ZM121.886 394.712C121.886 395.108 122.022 395.431 122.293 395.68C122.572 395.922 122.898 396.043 123.272 396.043C123.661 396.043 123.987 395.922 124.251 395.68C124.522 395.438 124.658 395.115 124.658 394.712C124.658 394.309 124.522 393.986 124.251 393.744C123.987 393.502 123.661 393.381 123.272 393.381C122.883 393.381 122.553 393.502 122.282 393.744C122.018 393.986 121.886 394.309 121.886 394.712ZM127.101 395.031L128.344 394.712C128.373 395.101 128.52 395.42 128.784 395.669C129.048 395.918 129.381 396.043 129.785 396.043C130.166 396.043 130.485 395.926 130.742 395.691C131.006 395.449 131.138 395.134 131.138 394.745C131.138 394.327 131.006 394.004 130.742 393.777C130.478 393.542 130.151 393.425 129.763 393.425C129.264 393.425 128.868 393.59 128.575 393.92L127.332 393.469L128.212 389.872H132.117V391.027H129.103L128.663 392.831C128.978 392.501 129.433 392.336 130.027 392.336C130.753 392.336 131.339 392.549 131.787 392.974C132.241 393.399 132.469 393.979 132.469 394.712C132.469 395.401 132.223 395.984 131.732 396.461C131.24 396.938 130.591 397.176 129.785 397.176C129.037 397.176 128.413 396.967 127.915 396.549C127.416 396.124 127.145 395.618 127.101 395.031ZM135.502 397H134.182V389.201H139.033V390.444H135.502V392.633H138.67V393.854H135.502V397ZM144.683 397L143.044 393.92H142.076V397H140.745V389.201H143.737C144.471 389.201 145.061 389.428 145.508 389.883C145.956 390.33 146.179 390.891 146.179 391.566C146.179 392.123 146.022 392.6 145.706 392.996C145.391 393.392 144.962 393.656 144.419 393.788L146.179 397H144.683ZM142.076 392.754H143.495C143.899 392.754 144.221 392.648 144.463 392.435C144.713 392.215 144.837 391.925 144.837 391.566C144.837 391.199 144.713 390.91 144.463 390.697C144.221 390.477 143.899 390.367 143.495 390.367H142.076V392.754ZM152.472 389.872V391.027C152.296 391.174 152.124 391.328 151.955 391.489C151.794 391.65 151.57 391.918 151.284 392.292C150.998 392.659 150.749 393.047 150.536 393.458C150.323 393.861 150.118 394.382 149.92 395.02C149.729 395.651 149.605 396.311 149.546 397H148.182C148.241 396.259 148.376 395.548 148.589 394.866C148.802 394.177 149.04 393.612 149.304 393.172C149.568 392.725 149.825 392.332 150.074 391.995C150.331 391.658 150.547 391.412 150.723 391.258L150.976 391.027H147.148V389.872H152.472ZM153.192 395.031L154.435 394.712C154.464 395.101 154.611 395.42 154.875 395.669C155.139 395.918 155.472 396.043 155.876 396.043C156.257 396.043 156.576 395.926 156.833 395.691C157.097 395.449 157.229 395.134 157.229 394.745C157.229 394.327 157.097 394.004 156.833 393.777C156.569 393.542 156.242 393.425 155.854 393.425C155.355 393.425 154.959 393.59 154.666 393.92L153.423 393.469L154.303 389.872H158.208V391.027H155.194L154.754 392.831C155.069 392.501 155.524 392.336 156.118 392.336C156.844 392.336 157.43 392.549 157.878 392.974C158.332 393.399 158.56 393.979 158.56 394.712C158.56 395.401 158.314 395.984 157.823 396.461C157.331 396.938 156.682 397.176 155.876 397.176C155.128 397.176 154.504 396.967 154.006 396.549C153.507 396.124 153.236 395.618 153.192 395.031Z" fill="black"/>
<line opacity="0.8" x1="51" y1="364.75" x2="273" y2="364.75" stroke="black" stroke-width="0.5" stroke-dasharray="0.6 0.6"/>
<line opacity="0.8" x1="83" y1="380.75" x2="128" y2="380.75" stroke="black" stroke-width="0.5" stroke-dasharray="0.6 0.6"/>
<line opacity="0.8" x1="107" y1="398.75" x2="161" y2="398.75" stroke="black" stroke-width="0.5" stroke-dasharray="0.6 0.6"/>
<rect x="0.5" y="310.5" width="289" height="107" stroke="black"/>
<defs>
<linearGradient id="paint0_linear_505_1273" x1="2.96319" y1="134.854" x2="131.226" y2="324.217" gradientUnits="userSpaceOnUse">
<stop stop-color="#A1FFCE"/>
<stop offset="1" stop-color="#FAFFD1"/>
</linearGradient>
</defs>
</svg>
