<svg width="290" height="418" viewBox="0 0 290 418" fill="none" xmlns="http://www.w3.org/2000/svg">
<path d="M111.677 12.1943H179.05V251.75C179.05 270.354 163.968 285.437 145.364 285.437C126.759 285.437 111.677 270.354 111.677 251.75V12.1943Z" fill="white" stroke="black"/>
<rect x="97.5" y="1.43652" width="94.4159" height="26.2617" rx="13.1308" fill="white" stroke="black"/>
<path fill-rule="evenodd" clip-rule="evenodd" d="M124.257 94.9785C128.948 89.1465 132.011 89.559 137.502 90.2984C138.166 90.3877 138.864 90.4818 139.606 90.5703C145.219 91.2399 147.419 89.8577 149.496 88.5522C151.131 87.5251 152.689 86.5455 155.776 86.6503C161.722 86.8522 166.823 93.0906 168.234 94.9785H168.712V246.834C168.712 259.296 158.61 269.398 146.149 269.398C133.687 269.398 123.585 259.296 123.585 246.834V94.9785H124.257Z" fill="url(#paint0_linear_562_956)"/>
<path d="M124.257 94.9785V95.4785H124.496L124.647 95.2919L124.257 94.9785ZM137.502 90.2984L137.435 90.7939L137.435 90.7939L137.502 90.2984ZM139.606 90.5703L139.665 90.0738L139.665 90.0738L139.606 90.5703ZM149.496 88.5522L149.762 88.9756L149.762 88.9756L149.496 88.5522ZM155.776 86.6503L155.759 87.15L155.759 87.15L155.776 86.6503ZM168.234 94.9785L167.834 95.2778L167.984 95.4785H168.234V94.9785ZM168.712 94.9785H169.212V94.4785H168.712V94.9785ZM123.585 94.9785V94.4785H123.085V94.9785H123.585ZM124.647 95.2919C126.957 92.4197 128.812 91.1537 130.706 90.6579C132.63 90.1543 134.663 90.4207 137.435 90.7939L137.569 89.8029C134.85 89.4367 132.605 89.1271 130.453 89.6905C128.27 90.2616 126.248 91.7053 123.867 94.6651L124.647 95.2919ZM137.435 90.7939C138.098 90.8832 138.801 90.9778 139.547 91.0668L139.665 90.0738C138.928 89.9859 138.233 89.8923 137.569 89.8029L137.435 90.7939ZM139.547 91.0668C142.402 91.4074 144.424 91.2301 146.012 90.7832C147.6 90.3366 148.724 89.6282 149.762 88.9756L149.23 88.1289C148.191 88.7816 147.176 89.4171 145.742 89.8206C144.308 90.2238 142.423 90.4028 139.665 90.0738L139.547 91.0668ZM149.762 88.9756C150.584 88.4592 151.34 87.9856 152.264 87.6461C153.179 87.3097 154.276 87.0997 155.759 87.15L155.793 86.1506C154.19 86.0962 152.963 86.3235 151.919 86.7075C150.883 87.0883 150.043 87.6181 149.23 88.1289L149.762 88.9756ZM155.759 87.15C158.569 87.2454 161.225 88.7739 163.386 90.567C165.539 92.3526 167.14 94.3498 167.834 95.2778L168.635 94.6792C167.917 93.7193 166.262 91.6534 164.025 89.7973C161.796 87.9487 158.929 86.257 155.793 86.1506L155.759 87.15ZM168.234 95.4785H168.712V94.4785H168.234V95.4785ZM168.212 94.9785V246.834H169.212V94.9785H168.212ZM168.212 246.834C168.212 259.02 158.334 268.898 146.149 268.898V269.898C158.886 269.898 169.212 259.572 169.212 246.834H168.212ZM146.149 268.898C133.963 268.898 124.085 259.02 124.085 246.834H123.085C123.085 259.572 133.411 269.898 146.149 269.898V268.898ZM124.085 246.834V94.9785H123.085V246.834H124.085ZM123.585 95.4785H124.257V94.4785H123.585V95.4785Z" fill="black"/>
<rect x="35.8047" y="326.405" width="32.9985" height="32.9985" rx="0.5" transform="rotate(45 35.8047 326.405)" fill="#ED712E" stroke="black"/>
<path fill-rule="evenodd" clip-rule="evenodd" d="M42.3788 341.851C42.3788 337.236 39.2933 335.382 35.5136 335.382C31.7338 335.382 28.6483 337.236 28.6483 341.851C28.6483 344.454 29.6125 346.387 31.1167 347.571C31.3867 347.768 31.541 348.044 31.5795 348.359L31.6567 349.346C31.7338 349.977 32.1195 350.45 32.698 350.608C34.5493 351.121 36.4778 351.121 38.3291 350.608C38.9076 350.45 39.3319 349.937 39.3705 349.346L39.4476 348.359C39.4862 348.044 39.679 347.768 39.9104 347.571C41.4146 346.387 42.3788 344.454 42.3788 341.851ZM42.4946 355.815C42.1474 355.972 41.7232 356.012 41.3375 355.854L38.0977 354.671L40.8361 353.645C41.2218 353.487 41.646 353.487 41.9932 353.645C42.3403 353.803 42.8802 353.921 43.4202 353.803C44.5773 353.487 44.8473 352.935 44.693 352.265C44.6158 351.87 44.3459 351.555 43.883 351.436C43.9216 351.199 43.8445 350.923 43.7288 350.647C43.4202 350.056 42.8031 349.74 42.0703 350.134C41.7617 350.292 41.4918 350.687 41.3375 351.042C41.1446 351.436 40.7975 351.712 40.4118 351.87L35.5136 353.685L30.6153 351.831C30.1911 351.673 29.8825 351.397 29.6897 351.002C29.5354 350.647 29.304 350.253 28.9568 350.095C28.1855 349.701 27.6069 350.016 27.2984 350.608C27.1827 350.844 27.1055 351.121 27.1441 351.397C26.6813 351.515 26.4113 351.831 26.3342 352.225C26.1799 352.896 26.4499 353.487 27.6069 353.763C28.1469 353.882 28.6483 353.763 29.034 353.606C29.4197 353.487 29.8054 353.487 30.1911 353.606L32.9295 354.631L29.6897 355.815C29.304 355.933 28.9183 355.933 28.5326 355.775C28.1855 355.657 27.6841 355.499 27.2984 355.578C26.4499 355.775 26.1799 356.367 26.3342 357.037C26.4113 357.314 26.527 357.59 26.7199 357.747C26.4499 358.142 26.4113 358.536 26.6041 358.931C26.9127 359.523 27.4527 359.838 28.5326 359.286C29.034 359.01 29.3811 358.536 29.574 358.181C29.7668 357.866 30.0753 357.59 30.4225 357.471L35.5136 355.617L40.6047 357.511C40.9518 357.629 41.2603 357.866 41.4532 358.221C41.646 358.615 41.9932 359.089 42.4946 359.325C43.5745 359.838 44.1145 359.562 44.423 358.97C44.6158 358.615 44.5773 358.181 44.3073 357.787C44.5001 357.629 44.6158 357.353 44.693 357.077C44.8087 356.406 44.5387 355.815 43.7288 355.617C43.3431 355.499 42.8802 355.657 42.4946 355.815ZM35.9418 348.179H35.0637C34.7804 348.179 34.5822 347.817 34.7238 347.491L35.262 345.898C35.3469 345.609 35.6868 345.609 35.7718 345.898L36.31 347.491C36.4233 347.817 36.225 348.179 35.9418 348.179ZM32.833 344.826C34.4118 344.707 34.7946 343.873 34.651 342.961C34.5075 342.048 33.742 341.413 32.3546 341.532C30.9672 341.691 30.3931 342.485 30.5366 343.397C30.6802 344.31 31.2543 344.984 32.833 344.826ZM39.6565 343.405C39.5418 344.318 39.0829 344.953 37.8209 344.834C36.5207 344.715 36.253 343.882 36.3677 342.969C36.4825 342.056 37.0943 341.382 38.2034 341.54C39.3506 341.699 39.7713 342.493 39.6565 343.405Z" fill="black"/>
<path opacity="0.8" d="M78.85 346V335.365H77.35V346H78.85ZM90.8991 346V335.365H89.4291V343.525L84.1191 335.365H82.1541V346H83.6241V337.33L89.3691 346H90.8991ZM95.6645 346V341.53H100.195V340.15H95.6645V336.73H100.66V335.365H94.1945V346H95.6645ZM103.808 340.675C103.808 337.9 105.668 336.49 107.648 336.49C109.628 336.49 111.488 337.9 111.488 340.675C111.488 343.45 109.628 344.875 107.648 344.875C105.668 344.875 103.808 343.45 103.808 340.675ZM102.308 340.675C102.308 344.23 104.978 346.225 107.648 346.225C110.318 346.225 112.988 344.23 112.988 340.675C112.988 337.12 110.318 335.14 107.648 335.14C104.978 335.14 102.308 337.12 102.308 340.675ZM122.316 337.78C122.076 336.625 121.116 335.14 118.716 335.14C116.751 335.14 115.206 336.64 115.206 338.305C115.206 339.895 116.286 340.885 117.801 341.215L119.316 341.545C120.381 341.77 120.906 342.43 120.906 343.195C120.906 344.125 120.186 344.89 118.716 344.89C117.111 344.89 116.271 343.795 116.166 342.61L114.756 343.06C114.951 344.575 116.166 346.225 118.731 346.225C120.996 346.225 122.406 344.725 122.406 343.075C122.406 341.59 121.416 340.48 119.646 340.09L118.056 339.745C117.156 339.55 116.691 338.965 116.691 338.2C116.691 337.21 117.546 336.43 118.746 336.43C120.231 336.43 120.876 337.48 120.996 338.245L122.316 337.78ZM129.168 345.04C129.168 345.625 129.618 346.075 130.203 346.075C130.788 346.075 131.253 345.625 131.253 345.04C131.253 344.455 130.788 343.99 130.203 343.99C129.618 343.99 129.168 344.455 129.168 345.04ZM129.153 339.76C129.153 340.345 129.603 340.795 130.188 340.795C130.773 340.795 131.238 340.345 131.238 339.76C131.238 339.175 130.773 338.71 130.188 338.71C129.603 338.71 129.153 339.175 129.153 339.76ZM82.645 367H84.685L82.285 362.62C83.77 362.26 84.685 361.105 84.685 359.59C84.685 357.79 83.41 356.365 81.355 356.365H77.275V367H79.09V362.8H80.41L82.645 367ZM79.09 361.21V357.955H81.025C82.135 357.955 82.855 358.6 82.855 359.59C82.855 360.565 82.135 361.21 81.025 361.21H79.09ZM93.0411 353.755H90.8061L89.2761 355.615H90.9111L93.0411 353.755ZM93.7761 367V365.32H89.0061V362.5H93.3261V360.865H89.0061V358.045H93.7761V356.365H87.2061V367H93.7761ZM105.928 367V361.615H100.723V363.19H104.233C104.143 364.105 103.333 365.575 101.188 365.575C99.3576 365.575 97.6776 364.27 97.6776 361.675C97.6776 359.035 99.4776 357.805 101.203 357.805C102.898 357.805 103.948 358.825 104.308 360.025L106.003 359.38C105.433 357.625 103.783 356.14 101.203 356.14C98.4426 356.14 95.8476 358.18 95.8476 361.675C95.8476 365.185 98.3076 367.225 101.083 367.225C102.778 367.225 103.873 366.43 104.338 365.65L104.473 367H105.928ZM112.549 367.225C114.784 367.225 116.524 365.86 116.524 363.295V356.365H114.724V363.19C114.724 364.69 113.914 365.515 112.549 365.515C111.199 365.515 110.374 364.69 110.374 363.19V356.365H108.589V363.295C108.589 365.86 110.329 367.225 112.549 367.225ZM126.223 367V365.29H121.348V356.365H119.548V367H126.223ZM135.038 367V365.32H130.268V362.5H134.588V360.865H130.268V358.045H135.038V356.365H128.468V367H135.038ZM143.169 367H145.209L142.809 362.62C144.294 362.26 145.209 361.105 145.209 359.59C145.209 357.79 143.934 356.365 141.879 356.365H137.799V367H139.614V362.8H140.934L143.169 367ZM139.614 361.21V357.955H141.549C142.659 357.955 143.379 358.6 143.379 359.59C143.379 360.565 142.659 361.21 141.549 361.21H139.614ZM160.661 367V356.365H158.846V360.76H153.851V356.365H152.051V367H153.851V362.455H158.846V367H160.661ZM167.653 367.225C169.888 367.225 171.628 365.86 171.628 363.295V356.365H169.828V363.19C169.828 364.69 169.018 365.515 167.653 365.515C166.303 365.515 165.478 364.69 165.478 363.19V356.365H163.693V363.295C163.693 365.86 165.433 367.225 167.653 367.225ZM186.352 367V356.365H183.907L180.502 364.48L177.052 356.365H174.652V367H176.407V359.2L179.692 367H181.252L184.567 359.17V367H186.352ZM191.335 367V356.365H189.505V367H191.335ZM196.285 365.35V358.015H198.19C200.035 358.015 201.55 359.215 201.55 361.705C201.55 364.165 200.02 365.35 198.175 365.35H196.285ZM198.235 367C201.115 367 203.425 365.11 203.425 361.705C203.425 358.285 201.145 356.365 198.25 356.365H194.485V367H198.235ZM207.74 367V356.365H205.91V367H207.74ZM218.525 358.06V356.365H209.81V358.06H213.26V367H215.06V358.06H218.525ZM226.436 353.755H224.201L222.671 355.615H224.306L226.436 353.755ZM227.171 367V365.32H222.401V362.5H226.721V360.865H222.401V358.045H227.171V356.365H220.601V367H227.171Z" fill="black"/>
<line opacity="0.8" x1="76" y1="372.75" x2="260" y2="372.75" stroke="black" stroke-width="0.5" stroke-dasharray="0.6 0.6"/>
<rect x="0.5" y="310.5" width="289" height="107" stroke="black"/>
<g opacity="0.6">
<path opacity="0.8" d="M23.753 401V399.988H20.068V393.201H18.99V401H23.753ZM25.6746 397.095C25.6746 395.06 27.0386 394.026 28.4906 394.026C29.9426 394.026 31.3066 395.06 31.3066 397.095C31.3066 399.13 29.9426 400.175 28.4906 400.175C27.0386 400.175 25.6746 399.13 25.6746 397.095ZM24.5746 397.095C24.5746 399.702 26.5326 401.165 28.4906 401.165C30.4486 401.165 32.4066 399.702 32.4066 397.095C32.4066 394.488 30.4486 393.036 28.4906 393.036C26.5326 393.036 24.5746 394.488 24.5746 397.095ZM39.4617 394.202V393.201H33.1697V394.202H35.7767V401H36.8547V394.202H39.4617ZM44.0355 400.296C44.0355 400.725 44.3655 401.055 44.7945 401.055C45.2235 401.055 45.5645 400.725 45.5645 400.296C45.5645 399.867 45.2235 399.526 44.7945 399.526C44.3655 399.526 44.0355 399.867 44.0355 400.296ZM44.0245 396.424C44.0245 396.853 44.3545 397.183 44.7835 397.183C45.2125 397.183 45.5535 396.853 45.5535 396.424C45.5535 395.995 45.2125 395.654 44.7835 395.654C44.3545 395.654 44.0245 395.995 44.0245 396.424ZM52.2754 401V393.201H50.9334V401H52.2754ZM55.9053 396.787V394.367H57.2803C58.1163 394.367 58.6223 394.84 58.6223 395.588C58.6223 396.325 58.1163 396.787 57.2803 396.787H55.9053ZM57.4783 397.953C58.9743 397.953 59.9643 396.952 59.9643 395.577C59.9643 394.213 58.9743 393.201 57.4783 393.201H54.5853V401H55.9053V397.953H57.4783ZM67.935 401V393.201H66.604V396.424H62.941V393.201H61.621V401H62.941V397.667H66.604V401H67.935ZM72.9086 398.349V397.216H69.8066V398.349H72.9086ZM79.7286 394.059C79.4206 393.861 78.8706 393.707 78.2106 393.707C75.9996 393.707 74.3826 395.269 74.3826 397.854C74.3826 399.68 75.4166 401.165 77.2316 401.165C78.7276 401.165 79.9376 400.175 79.9376 398.69C79.9376 397.227 78.9366 396.281 77.5176 396.281C76.7586 396.281 76.0766 396.556 75.7026 397.128C75.8236 395.742 76.7916 394.851 78.1336 394.851C78.7166 394.851 79.0906 394.994 79.3546 395.137L79.7286 394.059ZM75.8456 398.712C75.8456 397.876 76.4836 397.381 77.2316 397.381C77.9796 397.381 78.6176 397.876 78.6176 398.712C78.6176 399.537 77.9796 400.043 77.2316 400.043C76.5056 400.043 75.8456 399.526 75.8456 398.712ZM80.9282 398.646C80.9282 400.164 81.8962 401.165 83.4252 401.165C84.9102 401.165 85.8782 400.01 85.8782 398.624V393.201H84.5582V398.657C84.5582 399.449 84.1182 399.922 83.4142 399.922C82.7322 399.922 82.2152 399.515 82.2152 398.602V397.876L80.9282 398.14V398.646Z" fill="black"/>
<line opacity="0.8" x1="50" y1="404.75" x2="88" y2="404.75" stroke="black" stroke-width="0.5" stroke-dasharray="0.6 0.6"/>
<path opacity="0.8" d="M167.027 401H168.281L166.422 397.733C167.599 397.513 168.314 396.644 168.314 395.522C168.314 394.235 167.401 393.201 165.927 393.201H162.99V401H164.079V397.81H165.245L167.027 401ZM164.079 396.842V394.169H165.729C166.609 394.169 167.203 394.697 167.203 395.522C167.203 396.325 166.609 396.842 165.729 396.842H164.079ZM174.982 401V399.999H171.319V397.612H174.641V396.6H171.319V394.202H174.982V393.201H170.241V401H174.982ZM174.366 391.342H172.936L171.825 392.651H172.859L174.366 391.342ZM183.772 401V397.183H180.043V398.151H182.749C182.705 398.954 182.078 400.186 180.34 400.186C178.943 400.186 177.623 399.163 177.623 397.095C177.623 395.027 178.987 394.026 180.384 394.026C181.594 394.026 182.507 394.686 182.859 395.808L183.838 395.39C183.387 393.982 182.078 393.036 180.384 393.036C178.459 393.036 176.523 394.455 176.523 397.095C176.523 399.735 178.349 401.165 180.307 401.165C181.616 401.165 182.463 400.516 182.804 399.9L182.903 401H183.772ZM186.97 401V393.201H185.87V401H186.97ZM189.998 397.095C189.998 395.06 191.362 394.026 192.814 394.026C194.266 394.026 195.63 395.06 195.63 397.095C195.63 399.13 194.266 400.175 192.814 400.175C191.362 400.175 189.998 399.13 189.998 397.095ZM188.898 397.095C188.898 399.702 190.856 401.165 192.814 401.165C194.772 401.165 196.73 399.702 196.73 397.095C196.73 394.488 194.772 393.036 192.814 393.036C190.856 393.036 188.898 394.488 188.898 397.095ZM205.065 401V393.201H203.987V399.185L200.093 393.201H198.652V401H199.73V394.642L203.943 401H205.065ZM210.518 400.296C210.518 400.725 210.848 401.055 211.277 401.055C211.706 401.055 212.047 400.725 212.047 400.296C212.047 399.867 211.706 399.526 211.277 399.526C210.848 399.526 210.518 399.867 210.518 400.296ZM210.507 396.424C210.507 396.853 210.837 397.183 211.266 397.183C211.695 397.183 212.036 396.853 212.036 396.424C212.036 395.995 211.695 395.654 211.266 395.654C210.837 395.654 210.507 395.995 210.507 396.424ZM218.285 397.436C218.285 396.534 218.439 395.841 218.791 395.401C219.033 395.082 219.374 394.873 219.891 394.873C220.408 394.873 220.738 395.082 220.991 395.401C221.332 395.841 221.486 396.534 221.486 397.436C221.486 398.338 221.332 399.031 220.991 399.471C220.738 399.79 220.408 399.999 219.891 399.999C219.374 399.999 219.033 399.79 218.791 399.471C218.45 399.031 218.285 398.338 218.285 397.436ZM216.976 397.436C216.976 398.382 217.13 399.273 217.614 399.999C218.076 400.692 218.824 401.165 219.891 401.165C220.958 401.165 221.695 400.692 222.157 399.999C222.641 399.273 222.795 398.382 222.795 397.436C222.795 396.49 222.641 395.599 222.157 394.873C221.695 394.18 220.958 393.707 219.891 393.707C218.824 393.707 218.076 394.18 217.614 394.873C217.13 395.599 216.976 396.49 216.976 397.436ZM225.503 397.436C225.503 396.534 225.657 395.841 226.009 395.401C226.251 395.082 226.592 394.873 227.109 394.873C227.626 394.873 227.956 395.082 228.209 395.401C228.55 395.841 228.704 396.534 228.704 397.436C228.704 398.338 228.55 399.031 228.209 399.471C227.956 399.79 227.626 399.999 227.109 399.999C226.592 399.999 226.251 399.79 226.009 399.471C225.668 399.031 225.503 398.338 225.503 397.436ZM224.194 397.436C224.194 398.382 224.348 399.273 224.832 399.999C225.294 400.692 226.042 401.165 227.109 401.165C228.176 401.165 228.913 400.692 229.375 399.999C229.859 399.273 230.013 398.382 230.013 397.436C230.013 396.49 229.859 395.599 229.375 394.873C228.913 394.18 228.176 393.707 227.109 393.707C226.042 393.707 225.294 394.18 224.832 394.873C224.348 395.599 224.194 396.49 224.194 397.436ZM232.666 396.545C232.655 396.424 232.633 396.292 232.633 396.182C232.633 395.445 233.04 394.862 233.876 394.862C234.679 394.862 235.075 395.39 235.075 395.973C235.075 396.49 234.8 396.919 234.162 397.315L232.985 398.052C231.742 398.822 231.313 399.779 231.291 401H236.45V399.834H232.919C233.018 399.482 233.304 399.229 233.645 399.02L235.031 398.162C235.889 397.634 236.406 396.875 236.406 395.951C236.406 394.73 235.471 393.707 233.898 393.707C232.281 393.707 231.357 394.818 231.357 396.05C231.357 396.193 231.379 396.358 231.39 396.457L232.666 396.545ZM239.707 397.766C239.817 397.711 240.037 397.645 240.378 397.645C240.983 397.645 241.643 397.997 241.643 398.822C241.643 399.471 241.159 400.032 240.29 400.032C239.498 400.032 238.904 399.471 238.871 398.646L237.584 398.91C237.672 400.098 238.651 401.165 240.301 401.165C241.995 401.165 242.974 400.054 242.974 398.833C242.974 397.458 241.907 396.688 240.84 396.666L242.776 394.972V393.872H237.826V395.027H241.071L239.102 396.787L239.707 397.766ZM246.051 401V397.854H249.219V396.633H246.051V394.444H249.582V393.201H244.731V401H246.051ZM255.232 401H256.728L254.968 397.788C256.057 397.524 256.728 396.677 256.728 395.566C256.728 394.246 255.793 393.201 254.286 393.201H251.294V401H252.625V397.92H253.593L255.232 401ZM252.625 396.754V394.367H254.044C254.858 394.367 255.386 394.84 255.386 395.566C255.386 396.281 254.858 396.754 254.044 396.754H252.625ZM260.051 397.766C260.161 397.711 260.381 397.645 260.722 397.645C261.327 397.645 261.987 397.997 261.987 398.822C261.987 399.471 261.503 400.032 260.634 400.032C259.842 400.032 259.248 399.471 259.215 398.646L257.928 398.91C258.016 400.098 258.995 401.165 260.645 401.165C262.339 401.165 263.318 400.054 263.318 398.833C263.318 397.458 262.251 396.688 261.184 396.666L263.12 394.972V393.872H258.17V395.027H261.415L259.446 396.787L260.051 397.766ZM266.55 397.766C266.66 397.711 266.88 397.645 267.221 397.645C267.826 397.645 268.486 397.997 268.486 398.822C268.486 399.471 268.002 400.032 267.133 400.032C266.341 400.032 265.747 399.471 265.714 398.646L264.427 398.91C264.515 400.098 265.494 401.165 267.144 401.165C268.838 401.165 269.817 400.054 269.817 398.833C269.817 397.458 268.75 396.688 267.683 396.666L269.619 394.972V393.872H264.669V395.027H267.914L265.945 396.787L266.55 397.766Z" fill="black"/>
<line opacity="0.8" x1="218" y1="404.75" x2="272" y2="404.75" stroke="black" stroke-width="0.5" stroke-dasharray="0.6 0.6"/>
</g>
<defs>
<linearGradient id="paint0_linear_562_956" x1="147.854" y1="90" x2="196.534" y2="107.3" gradientUnits="userSpaceOnUse">
<stop stop-color="#FC4A1A"/>
<stop offset="1" stop-color="#F7B733"/>
</linearGradient>
</defs>
</svg>
