<svg width="290" height="418" viewBox="0 0 290 418" fill="none" xmlns="http://www.w3.org/2000/svg">
<mask id="path-1-inside-1_562_957" fill="white">
<path fill-rule="evenodd" clip-rule="evenodd" d="M178.965 25.313H111.034V90.9814L9.86293 263.343C3.99346 273.343 11.2041 285.936 22.7991 285.936H267.2C278.795 285.936 286.006 273.343 280.137 263.343L178.965 90.9804V25.313Z"/>
</mask>
<path fill-rule="evenodd" clip-rule="evenodd" d="M178.965 25.313H111.034V90.9814L9.86293 263.343C3.99346 273.343 11.2041 285.936 22.7991 285.936H267.2C278.795 285.936 286.006 273.343 280.137 263.343L178.965 90.9804V25.313Z" fill="white"/>
<path d="M111.034 25.313V24.313H110.034V25.313H111.034ZM178.965 25.313H179.965V24.313H178.965V25.313ZM111.034 90.9814L111.896 91.4876L112.034 91.2532V90.9814H111.034ZM9.86293 263.343L10.7253 263.849L10.7253 263.849L9.86293 263.343ZM280.137 263.343L279.274 263.849L279.274 263.849L280.137 263.343ZM178.965 90.9804H177.965V91.2522L178.102 91.4866L178.965 90.9804ZM111.034 26.313H178.965V24.313H111.034V26.313ZM112.034 90.9814V25.313H110.034V90.9814H112.034ZM10.7253 263.849L111.896 91.4876L110.172 90.4752L9.00052 262.837L10.7253 263.849ZM22.7991 284.936C11.9771 284.936 5.24717 273.182 10.7253 263.849L9.00052 262.837C2.73976 273.503 10.4311 286.936 22.7991 286.936V284.936ZM267.2 284.936H22.7991V286.936H267.2V284.936ZM279.274 263.849C284.752 273.182 278.022 284.936 267.2 284.936V286.936C279.568 286.936 287.26 273.503 280.999 262.837L279.274 263.849ZM178.102 91.4866L279.274 263.849L280.999 262.837L179.827 90.4742L178.102 91.4866ZM177.965 25.313V90.9804H179.965V25.313H177.965Z" fill="black" mask="url(#path-1-inside-1_562_957)"/>
<rect x="98.1006" y="1.43652" width="93.7981" height="26.0852" rx="13.0426" fill="white" stroke="black"/>
<path fill-rule="evenodd" clip-rule="evenodd" d="M78.5947 181.633C79.1217 181.328 92.4237 173.667 102.127 171.523C111.329 169.489 118.267 171.304 125.678 173.242C130.874 174.601 136.303 176.021 142.907 176.218C151.915 176.487 159.916 173.705 167.472 171.079C178.784 167.147 189.099 163.561 200.305 171.076C205.781 174.749 213.016 181.605 213.016 181.605L212.918 181.633H212.973L251.831 247.834C258.308 258.868 250.351 272.765 237.556 272.765H53.5327C40.7377 272.765 32.7806 258.868 39.2576 247.834L78.1156 181.633H78.5947Z" fill="url(#paint0_linear_562_957)"/>
<path d="M102.127 171.523L102.019 171.035L102.019 171.035L102.127 171.523ZM78.5947 181.633V182.133H78.7289L78.8451 182.065L78.5947 181.633ZM125.678 173.242L125.805 172.758L125.805 172.758L125.678 173.242ZM142.907 176.218L142.922 175.718L142.907 176.218ZM167.472 171.079L167.636 171.551L167.636 171.551L167.472 171.079ZM200.305 171.076L200.027 171.492L200.027 171.492L200.305 171.076ZM213.016 181.605L213.152 182.086L213.999 181.847L213.36 181.242L213.016 181.605ZM212.918 181.633L212.782 181.151L212.918 182.133V181.633ZM212.973 181.633L213.404 181.379L213.259 181.133H212.973V181.633ZM251.831 247.834L251.4 248.087L251.4 248.087L251.831 247.834ZM39.2576 247.834L39.6888 248.087L39.6888 248.087L39.2576 247.834ZM78.1156 181.633V181.133H77.8293L77.6844 181.379L78.1156 181.633ZM102.019 171.035C97.1082 172.12 91.3138 174.592 86.7024 176.817C82.0828 179.046 78.6137 181.044 78.3444 181.2L78.8451 182.065C79.1027 181.916 82.5481 179.932 87.137 177.718C91.7341 175.5 97.4423 173.07 102.235 172.011L102.019 171.035ZM125.805 172.758C118.393 170.82 111.35 168.973 102.019 171.035L102.235 172.011C111.308 170.006 118.141 171.788 125.552 173.726L125.805 172.758ZM142.922 175.718C136.381 175.523 131.003 174.118 125.805 172.758L125.552 173.726C130.746 175.084 136.225 176.518 142.892 176.717L142.922 175.718ZM167.308 170.607C159.741 173.237 151.825 175.984 142.922 175.718L142.892 176.717C152.006 176.989 160.091 174.174 167.636 171.551L167.308 170.607ZM200.584 170.661C189.145 162.99 178.589 166.685 167.308 170.607L167.636 171.551C178.979 167.608 189.053 164.132 200.027 171.492L200.584 170.661ZM213.016 181.605C213.36 181.242 213.36 181.242 213.36 181.242C213.36 181.242 213.36 181.242 213.36 181.241C213.36 181.241 213.359 181.241 213.359 181.24C213.358 181.24 213.356 181.238 213.355 181.237C213.351 181.233 213.346 181.228 213.339 181.221C213.325 181.208 213.304 181.188 213.276 181.163C213.222 181.111 213.141 181.035 213.036 180.937C212.826 180.742 212.521 180.459 212.138 180.108C211.372 179.405 210.293 178.431 209.043 177.341C206.546 175.165 203.349 172.516 200.584 170.661L200.027 171.492C202.737 173.31 205.896 175.925 208.386 178.095C209.628 179.178 210.701 180.147 211.462 180.845C211.843 181.194 212.146 181.475 212.354 181.669C212.457 181.765 212.537 181.84 212.591 181.891C212.618 181.916 212.638 181.936 212.652 181.949C212.659 181.955 212.664 181.96 212.667 181.963C212.669 181.965 212.67 181.966 212.671 181.967C212.672 181.967 212.672 181.967 212.672 181.967C212.672 181.968 212.672 181.968 212.672 181.968C212.672 181.968 212.672 181.968 213.016 181.605ZM213.053 182.114L213.152 182.086L212.88 181.124L212.782 181.151L213.053 182.114ZM212.973 181.133H212.918V182.133H212.973V181.133ZM252.262 247.581L213.404 181.379L212.542 181.886L251.4 248.087L252.262 247.581ZM237.556 273.265C250.738 273.265 258.935 258.949 252.262 247.581L251.4 248.087C257.681 258.788 249.965 272.265 237.556 272.265V273.265ZM53.5327 273.265H237.556V272.265H53.5327V273.265ZM38.8264 247.581C32.1538 258.949 40.3512 273.265 53.5327 273.265V272.265C41.1242 272.265 33.4075 258.788 39.6888 248.087L38.8264 247.581ZM77.6844 181.379L38.8264 247.581L39.6888 248.087L78.5468 181.886L77.6844 181.379ZM78.5947 181.133H78.1156V182.133H78.5947V181.133Z" fill="black"/>
<rect x="35.8047" y="326.405" width="32.9985" height="32.9985" rx="0.5" transform="rotate(45 35.8047 326.405)" fill="#ED712E" stroke="black"/>
<path d="M46.3113 362.801C46.4098 362.637 48.6022 360.446 48.717 360.381C48.7315 360.207 49.0069 359.975 47.8247 359.228C47.7099 359.146 47.5622 359.097 47.5129 358.932C48.8258 357.981 49.9581 356.865 50.7293 355.437C51.2381 354.502 51.5827 353.534 51.6483 352.467C51.6647 352.171 51.5991 352.057 51.2873 352.188C50.9099 352.336 50.516 352.434 50.1222 352.565C49.5806 352.729 49.0391 352.894 48.4811 353.058C48.4811 352.844 48.596 352.729 48.6617 352.598C48.8422 352.221 49.0391 351.843 49.236 351.466C49.3017 351.335 49.3509 351.187 49.1211 351.187C48.6945 351.187 48.2678 351.154 47.8576 351.187C46.3642 351.318 45.0678 351.942 43.8699 352.844C43.6565 353.008 43.4268 353.074 43.1642 353.074C40.194 353.074 37.2237 353.074 34.2535 353.074C33.6135 353.074 33.6956 353.172 33.6627 352.483C33.6299 351.876 33.794 351.433 34.2207 350.99C34.8607 350.35 35.4679 349.644 36.0258 348.939C36.5509 348.282 37.2237 347.97 38.0278 347.921C38.2412 347.905 38.3725 347.839 38.4873 347.659C39.3735 346.264 40.276 344.885 41.1622 343.507C41.2442 343.376 41.3427 343.277 41.1786 343.129C40.9817 342.965 40.8996 343.097 40.7848 343.228C40.2104 343.835 39.6196 344.409 39.0945 345.049C38.3396 345.968 37.3878 346.346 36.2227 346.28C35.7304 346.247 35.3202 346.428 34.9427 346.74C34.6145 347.019 34.2863 347.298 33.8597 347.659C34.0402 347.281 34.155 347.002 34.2863 346.74C34.6638 345.936 34.8771 345.099 34.6802 344.196C34.5817 343.704 34.6638 343.294 34.8935 342.867C35.6484 341.488 36.5673 340.225 37.552 339.01C37.9294 338.551 37.8637 338.092 37.8309 337.517C36.6494 338.896 35.5171 340.192 34.352 341.554C34.2699 341.259 34.2207 341.013 34.2371 340.766C34.3027 340.307 34.1879 339.88 34.1222 339.437C34.073 339.142 34.155 338.797 33.9417 338.535C33.8925 338.239 33.8597 337.944 33.8104 337.648C33.7612 337.222 33.4166 337.435 33.2032 337.386C32.9407 337.337 32.9735 337.534 32.9735 337.714C32.9899 338.223 33.0391 338.715 33.0391 339.224C33.072 340.947 33.3181 342.654 33.3017 344.36C33.3017 344.508 33.3181 344.656 33.2197 344.787C32.6453 345.607 32.0709 346.428 31.4966 347.265C31.3653 347.134 31.3489 346.986 31.3161 346.871C30.873 345.296 30.4792 343.72 29.9868 342.161C29.6915 341.226 29.5602 340.29 29.6586 339.306C29.7243 338.617 29.8227 337.927 29.9212 337.238C29.9048 337.156 30.0033 337.025 29.8392 336.976C29.6094 336.91 29.0679 337.189 28.9858 337.435C28.8217 337.96 28.6576 338.485 28.4771 339.027C28.2802 338.896 28.2145 338.715 28.0997 338.567C27.6074 337.813 27.1315 337.058 26.6228 336.303C26.5407 336.188 26.5079 335.876 26.2617 336.089C26.0648 336.237 25.7038 336.319 25.9499 336.729C26.393 337.484 26.7704 338.272 27.2135 339.01C27.6894 339.782 27.9684 340.619 28.0669 341.505C28.1161 341.981 28.1325 342.457 28.1653 342.998C26.6556 342.079 25.2443 341.209 23.8002 340.34C23.6853 340.996 23.7346 341.472 24.3253 341.899C25.474 342.719 26.5571 343.655 27.673 344.524C28.5099 345.181 28.6412 346.133 28.9038 347.134C28.7397 347.068 28.674 347.035 28.592 347.002C27.6894 346.592 26.7869 346.165 25.8843 345.739C25.7038 345.657 25.5069 345.607 25.3264 345.689C24.3746 346.1 23.6033 346.789 22.7828 347.429C22.6679 347.511 22.7007 347.609 22.7499 347.724C22.8156 347.823 22.8812 347.905 23.0125 347.856C23.1766 347.806 23.3243 347.774 23.4884 347.724C24.112 347.527 24.6699 347.577 25.2607 347.905C26.5079 348.61 27.7879 349.3 29.0679 349.972C29.2976 350.087 29.3633 350.235 29.3633 350.481C29.3468 351.17 29.314 351.876 29.3468 352.565C29.3633 352.959 29.2648 353.09 28.8217 353.09C26.672 353.058 24.5223 353.074 22.3561 353.074C22.2084 353.074 21.9951 352.976 21.9787 353.287C21.9623 353.599 22.1264 353.599 22.3561 353.599C24.5387 353.599 26.7212 353.599 28.9038 353.583C29.232 353.583 29.314 353.665 29.2976 353.993C29.2484 355.421 29.232 356.848 29.232 358.292C29.232 358.555 29.1335 358.686 28.9202 358.801C28.0012 359.326 27.0822 359.851 26.1633 360.393C26.0156 360.475 25.7366 360.491 25.8187 360.803C25.9171 361.115 26.1469 360.984 26.3274 360.967C27.4269 360.869 28.5263 360.77 29.6258 360.672C29.8556 360.656 30.0361 360.688 30.2166 360.852C30.594 361.197 30.9879 361.509 31.3653 361.837C31.5294 361.985 31.6115 361.985 31.7427 361.788C32.0053 361.361 32.3171 360.967 32.5961 360.541C32.7109 360.36 32.8586 360.262 33.0884 360.229C33.6627 360.163 34.2535 360.048 34.8279 359.983C35.7468 359.868 36.6494 359.671 37.5848 359.622C37.6832 359.572 37.8473 359.638 37.8802 359.523C37.913 359.392 37.7817 359.31 37.6668 359.244C37.5684 359.179 37.4699 359.146 37.3714 359.097C36.3212 358.571 35.2709 358.046 34.2207 357.521C33.9253 357.373 33.794 357.193 33.794 356.848C33.8104 355.995 33.794 355.125 33.794 354.272C33.794 353.698 33.8268 353.681 34.4012 353.681C37.0268 353.681 39.6689 353.681 42.2945 353.681C42.393 353.681 42.5078 353.648 42.6391 353.747C42.114 354.256 41.6381 354.797 41.1786 355.339C39.9642 356.75 39.1273 358.44 37.7817 359.737C37.7325 359.786 37.6832 359.835 37.634 359.868C36.4196 360.656 35.1561 361.312 33.6791 361.345C33.4658 361.345 33.3345 361.394 33.2853 361.657C33.2525 361.903 33.4166 361.952 33.5643 362.018C33.7284 362.1 33.9253 362.132 34.0566 362.297C32.0709 363.133 30.1017 363.97 28.1161 364.807C28.0012 364.857 28.6435 365.933 28.5451 365.917C29.1259 366.877 35.7913 366.276 39.0289 366.301C41.9663 366.317 39.2672 366.28 42.2046 366.263C43.6302 364.714 43.3259 365.018 46.3113 362.801ZM43.2463 360.459C42.5242 360.688 41.8022 360.951 41.0801 361.181C40.6699 361.312 40.3745 361.558 40.1448 361.919C39.8001 362.477 39.4227 363.002 39.0617 363.56C38.9632 363.708 38.8976 363.823 38.6843 363.724C37.3222 363.117 35.9602 362.51 34.4832 361.853C35.9602 361.509 37.1909 360.902 38.3068 360.048C39.0781 359.458 39.5868 358.637 40.1119 357.849C41.195 356.258 42.3766 354.748 43.8863 353.534C45.0514 352.598 46.3314 351.892 47.8411 351.745C47.874 351.745 47.9232 351.728 47.956 351.728C48.1201 351.728 48.3335 351.646 48.4155 351.761C48.5304 351.909 48.3335 352.057 48.2678 352.188C47.9396 352.762 47.595 353.337 47.234 353.96C47.8576 353.862 48.3991 353.632 48.9406 353.484C49.5478 353.32 50.1386 353.123 50.7293 352.926C50.9755 352.844 51.0904 352.811 51.0247 353.172C50.6965 354.682 49.9252 355.962 48.875 357.045C47.2996 358.686 45.396 359.786 43.2463 360.459Z" fill="black"/>
<path d="M49.3028 355.24C49.3028 354.944 48.991 354.698 48.6464 354.715C48.3182 354.731 48.0556 354.994 48.072 355.289C48.0884 355.568 48.3838 355.814 48.712 355.798C49.0238 355.781 49.3028 355.519 49.3028 355.24Z" fill="black"/>
<path opacity="0.8" d="M78.85 346V335.365H77.35V346H78.85ZM90.8991 346V335.365H89.4291V343.525L84.1191 335.365H82.1541V346H83.6241V337.33L89.3691 346H90.8991ZM95.6645 346V341.53H100.195V340.15H95.6645V336.73H100.66V335.365H94.1945V346H95.6645ZM103.808 340.675C103.808 337.9 105.668 336.49 107.648 336.49C109.628 336.49 111.488 337.9 111.488 340.675C111.488 343.45 109.628 344.875 107.648 344.875C105.668 344.875 103.808 343.45 103.808 340.675ZM102.308 340.675C102.308 344.23 104.978 346.225 107.648 346.225C110.318 346.225 112.988 344.23 112.988 340.675C112.988 337.12 110.318 335.14 107.648 335.14C104.978 335.14 102.308 337.12 102.308 340.675ZM122.316 337.78C122.076 336.625 121.116 335.14 118.716 335.14C116.751 335.14 115.206 336.64 115.206 338.305C115.206 339.895 116.286 340.885 117.801 341.215L119.316 341.545C120.381 341.77 120.906 342.43 120.906 343.195C120.906 344.125 120.186 344.89 118.716 344.89C117.111 344.89 116.271 343.795 116.166 342.61L114.756 343.06C114.951 344.575 116.166 346.225 118.731 346.225C120.996 346.225 122.406 344.725 122.406 343.075C122.406 341.59 121.416 340.48 119.646 340.09L118.056 339.745C117.156 339.55 116.691 338.965 116.691 338.2C116.691 337.21 117.546 336.43 118.746 336.43C120.231 336.43 120.876 337.48 120.996 338.245L122.316 337.78ZM129.168 345.04C129.168 345.625 129.618 346.075 130.203 346.075C130.788 346.075 131.253 345.625 131.253 345.04C131.253 344.455 130.788 343.99 130.203 343.99C129.618 343.99 129.168 344.455 129.168 345.04ZM129.153 339.76C129.153 340.345 129.603 340.795 130.188 340.795C130.773 340.795 131.238 340.345 131.238 339.76C131.238 339.175 130.773 338.71 130.188 338.71C129.603 338.71 129.153 339.175 129.153 339.76ZM78.475 361.675C78.475 359.11 80.245 357.835 82.03 357.835C83.83 357.835 85.6 359.11 85.6 361.675C85.6 364.24 83.83 365.515 82.03 365.515C80.245 365.515 78.475 364.24 78.475 361.675ZM76.63 361.675C76.63 365.17 79.24 367.225 82.03 367.225C84.82 367.225 87.445 365.17 87.445 361.675C87.445 358.195 84.82 356.14 82.03 356.14C79.24 356.14 76.63 358.195 76.63 361.675ZM91.7453 361.255V357.955H93.6203C94.7603 357.955 95.4503 358.6 95.4503 359.62C95.4503 360.625 94.7603 361.255 93.6203 361.255H91.7453ZM93.8903 362.845C95.9303 362.845 97.2803 361.48 97.2803 359.605C97.2803 357.745 95.9303 356.365 93.8903 356.365H89.9453V367H91.7453V362.845H93.8903ZM107.204 358.06V356.365H98.4888V358.06H101.939V367H103.739V358.06H107.204ZM111.11 367V356.365H109.28V367H111.11ZM125.96 367V356.365H123.515L120.11 364.48L116.66 356.365H114.26V367H116.015V359.2L119.3 367H120.86L124.175 359.17V367H125.96ZM130.943 367V356.365H129.113V367H130.943ZM141.083 358.855C140.843 357.67 139.868 356.14 137.363 356.14C135.383 356.14 133.748 357.61 133.748 359.395C133.748 360.985 134.828 362.05 136.448 362.38L137.948 362.695C138.863 362.89 139.373 363.445 139.373 364.135C139.373 364.96 138.713 365.605 137.438 365.605C135.908 365.605 135.113 364.585 135.008 363.475L133.328 363.955C133.493 365.485 134.738 367.225 137.438 367.225C139.868 367.225 141.203 365.65 141.203 364C141.203 362.5 140.198 361.315 138.323 360.94L136.793 360.625C135.968 360.445 135.548 359.935 135.548 359.26C135.548 358.45 136.298 357.73 137.378 357.73C138.803 357.73 139.358 358.705 139.463 359.365L141.083 358.855ZM150.242 367V365.32H145.472V362.5H149.792V360.865H145.472V358.045H150.242V356.365H143.672V367H150.242ZM158.373 367H160.413L158.013 362.62C159.498 362.26 160.413 361.105 160.413 359.59C160.413 357.79 159.138 356.365 157.083 356.365H153.003V367H154.818V362.8H156.138L158.373 367ZM154.818 361.21V357.955H156.753C157.863 357.955 158.583 358.6 158.583 359.59C158.583 360.565 157.863 361.21 156.753 361.21H154.818ZM173.929 367V365.29H169.054V356.365H167.254V367H173.929ZM174.444 357.265C174.444 357.88 174.864 358.3 175.464 358.3C175.614 358.3 175.749 358.24 175.779 358.225C175.749 358.9 175.194 359.485 174.579 359.605V360.43C175.494 360.34 176.799 359.59 176.799 357.64C176.799 356.815 176.274 356.245 175.554 356.245C174.909 356.245 174.444 356.725 174.444 357.265ZM181.051 367V356.365H179.221V367H181.051ZM189.571 367H191.611L189.211 362.62C190.696 362.26 191.611 361.105 191.611 359.59C191.611 357.79 190.336 356.365 188.281 356.365H184.201V367H186.016V362.8H187.336L189.571 367ZM186.016 361.21V357.955H187.951C189.061 357.955 189.781 358.6 189.781 359.59C189.781 360.565 189.061 361.21 187.951 361.21H186.016ZM199.502 367H201.542L199.142 362.62C200.627 362.26 201.542 361.105 201.542 359.59C201.542 357.79 200.267 356.365 198.212 356.365H194.132V367H195.947V362.8H197.267L199.502 367ZM195.947 361.21V357.955H197.882C198.992 357.955 199.712 358.6 199.712 359.59C199.712 360.565 198.992 361.21 197.882 361.21H195.947ZM205.893 367V356.365H204.063V367H205.893ZM218.478 367V361.615H213.273V363.19H216.783C216.693 364.105 215.883 365.575 213.738 365.575C211.908 365.575 210.228 364.27 210.228 361.675C210.228 359.035 212.028 357.805 213.753 357.805C215.448 357.805 216.498 358.825 216.858 360.025L218.553 359.38C217.983 357.625 216.333 356.14 213.753 356.14C210.993 356.14 208.398 358.18 208.398 361.675C208.398 365.185 210.858 367.225 213.633 367.225C215.328 367.225 216.423 366.43 216.888 365.65L217.023 367H218.478ZM228.534 367H230.499L226.359 356.365H224.274L220.134 367H222.039L223.029 364.33H227.529L228.534 367ZM225.279 358.315L226.899 362.665H223.659L225.279 358.315ZM239.177 358.06V356.365H230.462V358.06H233.912V367H235.712V358.06H239.177ZM243.083 367V356.365H241.253V367H243.083ZM247.433 361.675C247.433 359.11 249.203 357.835 250.988 357.835C252.788 357.835 254.558 359.11 254.558 361.675C254.558 364.24 252.788 365.515 250.988 365.515C249.203 365.515 247.433 364.24 247.433 361.675ZM245.588 361.675C245.588 365.17 248.198 367.225 250.988 367.225C253.778 367.225 256.403 365.17 256.403 361.675C256.403 358.195 253.778 356.14 250.988 356.14C248.198 356.14 245.588 358.195 245.588 361.675ZM267.828 367V356.365H266.028V363.91L261.198 356.365H258.903V367H260.703V358.945L265.953 367H267.828Z" fill="black"/>
<line opacity="0.8" x1="76" y1="372.75" x2="269" y2="372.75" stroke="black" stroke-width="0.5" stroke-dasharray="0.6 0.6"/>
<rect x="0.5" y="310.5" width="289" height="107" stroke="black"/>
<g opacity="0.6">
<path opacity="0.8" d="M23.753 401V399.988H20.068V393.201H18.99V401H23.753ZM25.6746 397.095C25.6746 395.06 27.0386 394.026 28.4906 394.026C29.9426 394.026 31.3066 395.06 31.3066 397.095C31.3066 399.13 29.9426 400.175 28.4906 400.175C27.0386 400.175 25.6746 399.13 25.6746 397.095ZM24.5746 397.095C24.5746 399.702 26.5326 401.165 28.4906 401.165C30.4486 401.165 32.4066 399.702 32.4066 397.095C32.4066 394.488 30.4486 393.036 28.4906 393.036C26.5326 393.036 24.5746 394.488 24.5746 397.095ZM39.4617 394.202V393.201H33.1697V394.202H35.7767V401H36.8547V394.202H39.4617ZM44.0355 400.296C44.0355 400.725 44.3655 401.055 44.7945 401.055C45.2235 401.055 45.5645 400.725 45.5645 400.296C45.5645 399.867 45.2235 399.526 44.7945 399.526C44.3655 399.526 44.0355 399.867 44.0355 400.296ZM44.0245 396.424C44.0245 396.853 44.3545 397.183 44.7835 397.183C45.2125 397.183 45.5535 396.853 45.5535 396.424C45.5535 395.995 45.2125 395.654 44.7835 395.654C44.3545 395.654 44.0245 395.995 44.0245 396.424ZM52.2754 401V393.201H50.9334V401H52.2754ZM55.9053 396.787V394.367H57.2803C58.1163 394.367 58.6223 394.84 58.6223 395.588C58.6223 396.325 58.1163 396.787 57.2803 396.787H55.9053ZM57.4783 397.953C58.9743 397.953 59.9643 396.952 59.9643 395.577C59.9643 394.213 58.9743 393.201 57.4783 393.201H54.5853V401H55.9053V397.953H57.4783ZM67.935 401V393.201H66.604V396.424H62.941V393.201H61.621V401H62.941V397.667H66.604V401H67.935ZM72.9086 398.349V397.216H69.8066V398.349H72.9086ZM79.7286 394.059C79.4206 393.861 78.8706 393.707 78.2106 393.707C75.9996 393.707 74.3826 395.269 74.3826 397.854C74.3826 399.68 75.4166 401.165 77.2316 401.165C78.7276 401.165 79.9376 400.175 79.9376 398.69C79.9376 397.227 78.9366 396.281 77.5176 396.281C76.7586 396.281 76.0766 396.556 75.7026 397.128C75.8236 395.742 76.7916 394.851 78.1336 394.851C78.7166 394.851 79.0906 394.994 79.3546 395.137L79.7286 394.059ZM75.8456 398.712C75.8456 397.876 76.4836 397.381 77.2316 397.381C77.9796 397.381 78.6176 397.876 78.6176 398.712C78.6176 399.537 77.9796 400.043 77.2316 400.043C76.5056 400.043 75.8456 399.526 75.8456 398.712ZM80.9282 398.646C80.9282 400.164 81.8962 401.165 83.4252 401.165C84.9102 401.165 85.8782 400.01 85.8782 398.624V393.201H84.5582V398.657C84.5582 399.449 84.1182 399.922 83.4142 399.922C82.7322 399.922 82.2152 399.515 82.2152 398.602V397.876L80.9282 398.14V398.646Z" fill="black"/>
<line opacity="0.8" x1="50" y1="404.75" x2="88" y2="404.75" stroke="black" stroke-width="0.5" stroke-dasharray="0.6 0.6"/>
<path opacity="0.8" d="M167.027 401H168.281L166.422 397.733C167.599 397.513 168.314 396.644 168.314 395.522C168.314 394.235 167.401 393.201 165.927 393.201H162.99V401H164.079V397.81H165.245L167.027 401ZM164.079 396.842V394.169H165.729C166.609 394.169 167.203 394.697 167.203 395.522C167.203 396.325 166.609 396.842 165.729 396.842H164.079ZM174.982 401V399.999H171.319V397.612H174.641V396.6H171.319V394.202H174.982V393.201H170.241V401H174.982ZM174.366 391.342H172.936L171.825 392.651H172.859L174.366 391.342ZM183.772 401V397.183H180.043V398.151H182.749C182.705 398.954 182.078 400.186 180.34 400.186C178.943 400.186 177.623 399.163 177.623 397.095C177.623 395.027 178.987 394.026 180.384 394.026C181.594 394.026 182.507 394.686 182.859 395.808L183.838 395.39C183.387 393.982 182.078 393.036 180.384 393.036C178.459 393.036 176.523 394.455 176.523 397.095C176.523 399.735 178.349 401.165 180.307 401.165C181.616 401.165 182.463 400.516 182.804 399.9L182.903 401H183.772ZM186.97 401V393.201H185.87V401H186.97ZM189.998 397.095C189.998 395.06 191.362 394.026 192.814 394.026C194.266 394.026 195.63 395.06 195.63 397.095C195.63 399.13 194.266 400.175 192.814 400.175C191.362 400.175 189.998 399.13 189.998 397.095ZM188.898 397.095C188.898 399.702 190.856 401.165 192.814 401.165C194.772 401.165 196.73 399.702 196.73 397.095C196.73 394.488 194.772 393.036 192.814 393.036C190.856 393.036 188.898 394.488 188.898 397.095ZM205.065 401V393.201H203.987V399.185L200.093 393.201H198.652V401H199.73V394.642L203.943 401H205.065ZM210.518 400.296C210.518 400.725 210.848 401.055 211.277 401.055C211.706 401.055 212.047 400.725 212.047 400.296C212.047 399.867 211.706 399.526 211.277 399.526C210.848 399.526 210.518 399.867 210.518 400.296ZM210.507 396.424C210.507 396.853 210.837 397.183 211.266 397.183C211.695 397.183 212.036 396.853 212.036 396.424C212.036 395.995 211.695 395.654 211.266 395.654C210.837 395.654 210.507 395.995 210.507 396.424ZM218.285 397.436C218.285 396.534 218.439 395.841 218.791 395.401C219.033 395.082 219.374 394.873 219.891 394.873C220.408 394.873 220.738 395.082 220.991 395.401C221.332 395.841 221.486 396.534 221.486 397.436C221.486 398.338 221.332 399.031 220.991 399.471C220.738 399.79 220.408 399.999 219.891 399.999C219.374 399.999 219.033 399.79 218.791 399.471C218.45 399.031 218.285 398.338 218.285 397.436ZM216.976 397.436C216.976 398.382 217.13 399.273 217.614 399.999C218.076 400.692 218.824 401.165 219.891 401.165C220.958 401.165 221.695 400.692 222.157 399.999C222.641 399.273 222.795 398.382 222.795 397.436C222.795 396.49 222.641 395.599 222.157 394.873C221.695 394.18 220.958 393.707 219.891 393.707C218.824 393.707 218.076 394.18 217.614 394.873C217.13 395.599 216.976 396.49 216.976 397.436ZM225.503 397.436C225.503 396.534 225.657 395.841 226.009 395.401C226.251 395.082 226.592 394.873 227.109 394.873C227.626 394.873 227.956 395.082 228.209 395.401C228.55 395.841 228.704 396.534 228.704 397.436C228.704 398.338 228.55 399.031 228.209 399.471C227.956 399.79 227.626 399.999 227.109 399.999C226.592 399.999 226.251 399.79 226.009 399.471C225.668 399.031 225.503 398.338 225.503 397.436ZM224.194 397.436C224.194 398.382 224.348 399.273 224.832 399.999C225.294 400.692 226.042 401.165 227.109 401.165C228.176 401.165 228.913 400.692 229.375 399.999C229.859 399.273 230.013 398.382 230.013 397.436C230.013 396.49 229.859 395.599 229.375 394.873C228.913 394.18 228.176 393.707 227.109 393.707C226.042 393.707 225.294 394.18 224.832 394.873C224.348 395.599 224.194 396.49 224.194 397.436ZM232.666 396.545C232.655 396.424 232.633 396.292 232.633 396.182C232.633 395.445 233.04 394.862 233.876 394.862C234.679 394.862 235.075 395.39 235.075 395.973C235.075 396.49 234.8 396.919 234.162 397.315L232.985 398.052C231.742 398.822 231.313 399.779 231.291 401H236.45V399.834H232.919C233.018 399.482 233.304 399.229 233.645 399.02L235.031 398.162C235.889 397.634 236.406 396.875 236.406 395.951C236.406 394.73 235.471 393.707 233.898 393.707C232.281 393.707 231.357 394.818 231.357 396.05C231.357 396.193 231.379 396.358 231.39 396.457L232.666 396.545ZM239.707 397.766C239.817 397.711 240.037 397.645 240.378 397.645C240.983 397.645 241.643 397.997 241.643 398.822C241.643 399.471 241.159 400.032 240.29 400.032C239.498 400.032 238.904 399.471 238.871 398.646L237.584 398.91C237.672 400.098 238.651 401.165 240.301 401.165C241.995 401.165 242.974 400.054 242.974 398.833C242.974 397.458 241.907 396.688 240.84 396.666L242.776 394.972V393.872H237.826V395.027H241.071L239.102 396.787L239.707 397.766ZM246.051 401V397.854H249.219V396.633H246.051V394.444H249.582V393.201H244.731V401H246.051ZM255.232 401H256.728L254.968 397.788C256.057 397.524 256.728 396.677 256.728 395.566C256.728 394.246 255.793 393.201 254.286 393.201H251.294V401H252.625V397.92H253.593L255.232 401ZM252.625 396.754V394.367H254.044C254.858 394.367 255.386 394.84 255.386 395.566C255.386 396.281 254.858 396.754 254.044 396.754H252.625ZM260.051 397.766C260.161 397.711 260.381 397.645 260.722 397.645C261.327 397.645 261.987 397.997 261.987 398.822C261.987 399.471 261.503 400.032 260.634 400.032C259.842 400.032 259.248 399.471 259.215 398.646L257.928 398.91C258.016 400.098 258.995 401.165 260.645 401.165C262.339 401.165 263.318 400.054 263.318 398.833C263.318 397.458 262.251 396.688 261.184 396.666L263.12 394.972V393.872H258.17V395.027H261.415L259.446 396.787L260.051 397.766ZM266.55 397.766C266.66 397.711 266.88 397.645 267.221 397.645C267.826 397.645 268.486 397.997 268.486 398.822C268.486 399.471 268.002 400.032 267.133 400.032C266.341 400.032 265.747 399.471 265.714 398.646L264.427 398.91C264.515 400.098 265.494 401.165 267.144 401.165C268.838 401.165 269.817 400.054 269.817 398.833C269.817 397.458 268.75 396.688 267.683 396.666L269.619 394.972V393.872H264.669V395.027H267.914L265.945 396.787L266.55 397.766Z" fill="black"/>
<line opacity="0.8" x1="218" y1="404.75" x2="272" y2="404.75" stroke="black" stroke-width="0.5" stroke-dasharray="0.6 0.6"/>
</g>
<defs>
<linearGradient id="paint0_linear_562_957" x1="3.17413" y1="134.854" x2="131.437" y2="324.217" gradientUnits="userSpaceOnUse">
<stop stop-color="#A1FFCE"/>
<stop offset="1" stop-color="#FAFFD1"/>
</linearGradient>
</defs>
</svg>
