<svg id="FIXE" xmlns="http://www.w3.org/2000/svg" viewBox="0 0 756 1050"><defs><style>.cls-1{fill:#fff;}.cls-2{fill:none;}.cls-2,.cls-3,.cls-4,.cls-6{stroke:#fff;stroke-linecap:round;stroke-width:0.5px;}.cls-2,.cls-3{stroke-linejoin:round;}.cls-3,.cls-4,.cls-5,.cls-6{fill:#1d1d1b;}.cls-4{stroke-linejoin:bevel;}.cls-6{stroke-miterlimit:10;}</style></defs><path class="cls-1" d="M764.15,879.15c-20.18-.37-40.4.11-60.58.4q-48.81.72-97.62,1.64-52.4.91-104.8,1.67c-27.84.37-55.69.73-83.54.55-15-.1-29.92-.8-44.9-1-23.47-.31-46.94-.28-70.41-.23q-46.62.09-93.24.46-47.64.33-95.28.8-39,.38-78.07.81-20.13.21-40.27.46l-1.8,0a.38.38,0,0,0,0,.75l28.06-.33q35.38-.39,70.75-.75,46.44-.46,92.87-.83,47.84-.37,95.67-.58c26-.09,52-.15,78,0,15,.1,30,.64,45,1,24.6.51,49.23.18,73.84-.09,34.08-.36,68.15-.92,102.23-1.5s68.11-1.21,102.16-1.76c24.09-.38,48.18-.84,72.27-.81,3.24,0,6.47,0,9.71.08a.38.38,0,0,0,0-.75Z"/><path class="cls-1" d="M71.37,954.13a49.25,49.25,0,0,1,4,5.15c.27.4.92,0,.65-.38a52.2,52.2,0,0,0-4.08-5.3c-.32-.36-.85.17-.53.53Z"/><path class="cls-1" d="M30.77,996.76a3.08,3.08,0,0,1,2,1.17,7.79,7.79,0,0,0,2.08,1.76c.43.21.81-.43.38-.64-1.64-.79-2.47-3-4.49-3a.38.38,0,0,0,0,.75Z"/><path class="cls-1" d="M3.92,967.59A9.13,9.13,0,0,0,7,970.75a.38.38,0,0,0,.38-.65,8.27,8.27,0,0,1-2.84-2.89.38.38,0,0,0-.65.38Z"/><path class="cls-1" d="M54.78,979.42A26.32,26.32,0,0,1,60.42,977c1.61-.41,3.43-.33,4.75-1.49.36-.32-.17-.85-.53-.53a4.68,4.68,0,0,1-2.36.92,23,23,0,0,0-2.6.53,29.35,29.35,0,0,0-5.28,2.36c-.43.22,0,.87.38.64Z"/><path class="cls-1" d="M7.49,997.58a15.56,15.56,0,0,1,7-4.29.37.37,0,0,0-.2-.72A16.39,16.39,0,0,0,7,997.05c-.33.35.2.88.53.53Z"/><path class="cls-1" d="M68.59,995.48,78.9,993c.46-.11.27-.83-.2-.72l-10.31,2.48c-.47.11-.27.84.2.72Z"/><path class="cls-1" d="M107.08,981.42l7.06,11.41c.26.41.9,0,.65-.38l-7.07-11.4c-.25-.41-.9,0-.64.37Z"/><path class="cls-1" d="M102.67,956.75a55.05,55.05,0,0,1,5.47,5.22c.33.36.85-.17.53-.53a55.05,55.05,0,0,0-5.47-5.22c-.36-.31-.9.22-.53.53Z"/><path class="cls-1" d="M89.31,971.62c-2-.14-4.3-.15-5.93,1.2a4.31,4.31,0,0,0-.89,5.2,5.28,5.28,0,0,0,5.18,2.74,6.53,6.53,0,0,0,3-.91,4.24,4.24,0,0,0,1.91-2.73,4.38,4.38,0,0,0-.7-3.63,3.68,3.68,0,0,0-3.09-1.43c-.48,0-.48.78,0,.75a3.16,3.16,0,0,1,3.12,3.83,3.63,3.63,0,0,1-1.56,2.53,5.58,5.58,0,0,1-2.6.83,4.61,4.61,0,0,1-4.45-2.09,3.61,3.61,0,0,1,.54-4.48c1.45-1.28,3.69-1.19,5.49-1.06.48,0,.48-.72,0-.75Z"/><path class="cls-1" d="M135.59,979h10.87a.38.38,0,0,0,0-.75H135.59a.38.38,0,0,0,0,.75Z"/><path class="cls-1" d="M144.94,963c2.61-.46,5.21-1,7.78-1.7a.37.37,0,0,0-.2-.72c-2.57.66-5.17,1.23-7.78,1.7-.47.09-.27.81.2.72Z"/><path class="cls-1" d="M150.46,991.71c-1.27-.24-2.53-.46-3.81-.63a3.9,3.9,0,0,0-1.63,0,4.12,4.12,0,0,0-1.24.78c-1.57,1.2-3.08,3.17-1.86,5.16,2,3.25,7.67,3.73,10.18.89a3.27,3.27,0,0,0,.78-3,3.92,3.92,0,0,0-2.33-2.18c-.44-.21-.82.44-.38.65a3.64,3.64,0,0,1,1.91,1.51,2.44,2.44,0,0,1-.51,2.53,5.6,5.6,0,0,1-4.36,1.63,6.18,6.18,0,0,1-4.22-1.82,2.4,2.4,0,0,1-.64-2.47,4.65,4.65,0,0,1,1.61-2.06,4.94,4.94,0,0,1,1.26-.86,4,4,0,0,1,1.68.09q1.68.24,3.36.57c.47.09.67-.63.2-.73Z"/><path class="cls-1" d="M176.31,984.77a34.71,34.71,0,0,1,7.78,4.93c.37.31.9-.22.53-.53a35.56,35.56,0,0,0-7.93-5c-.43-.2-.81.44-.38.65Z"/><path class="cls-1" d="M190.42,964.84a4.94,4.94,0,0,1,3,.6.38.38,0,0,0,.38-.65,5.57,5.57,0,0,0-3.39-.7.38.38,0,1,0,0,.75Z"/><path class="cls-1" d="M200.85,1005.54c2.77-2.56,6.47-3.71,9.53-5.85.39-.27,0-.92-.38-.64-3.12,2.17-6.86,3.35-9.68,6-.35.33.18.86.53.53Z"/><path class="cls-1" d="M218.54,970.37a12.33,12.33,0,0,0-3.76-1,4.91,4.91,0,0,0-3.05,1.46,3.94,3.94,0,0,0-1.08,2.92,9.73,9.73,0,0,0,.19,3.36c.63,2.27,2.72,3.41,4.95,3.64a4.51,4.51,0,0,0,3.44-1,5.44,5.44,0,0,0,2-2.78c.72-2.81-1.46-5.14-3.4-6.82-.37-.31-.9.22-.54.53,1.51,1.3,3.17,2.86,3.31,5a4.43,4.43,0,0,1-3.81,4.37c-1.92.13-4.2-.7-5-2.57a6.43,6.43,0,0,1-.42-2.71,6.06,6.06,0,0,1,.46-2.87,4.2,4.2,0,0,1,1.26-1.11,3,3,0,0,1,1.72-.65,11.77,11.77,0,0,1,3.57.93c.46.15.65-.58.19-.72Z"/><path class="cls-1" d="M233.13,991.51a2.62,2.62,0,0,0,1.83-.59c.66-.38,1.31-.76,1.95-1.16,1.29-.79,2.55-1.63,3.78-2.5.39-.27,0-.92-.38-.65-1.12.79-2.26,1.56-3.43,2.28-.58.37-1.17.72-1.76,1.07l-.83.48c-.28.16-.62.42-1,.35s-.67.62-.2.72Z"/><path class="cls-1" d="M241.06,972.54l1.72,1.91a.38.38,0,0,0,.53,0,.39.39,0,0,0,0-.53L241.59,972a.37.37,0,0,0-.53,0,.38.38,0,0,0,0,.53Z"/><path class="cls-1" d="M242.64,1001c1.67,1.95,3.3,3.94,4.86,6a.4.4,0,0,0,.52.13.38.38,0,0,0,.13-.51c-1.6-2.09-3.26-4.14-5-6.13-.32-.37-.84.16-.53.53Z"/><path class="cls-1" d="M258.85,964.4a5.61,5.61,0,0,1,3,2,.37.37,0,0,0,.64-.38,6.42,6.42,0,0,0-3.49-2.34.38.38,0,0,0-.2.73Z"/><path class="cls-1" d="M286.26,978.87a6.35,6.35,0,0,0,1.84,2.41,15,15,0,0,1,2,2.7c.25.41.9,0,.65-.38a16,16,0,0,0-2-2.66c-.63-.69-1.56-1.33-1.83-2.27a.37.37,0,0,0-.72.2Z"/><path class="cls-1" d="M312,970.05a12.94,12.94,0,0,0,1.4-1.27.37.37,0,0,0-.53-.53,11.89,11.89,0,0,1-1.4,1.26.39.39,0,0,0,0,.54.46.46,0,0,0,.27.11.5.5,0,0,0,.26-.11Z"/><path class="cls-1" d="M301.81,1001.12a.38.38,0,0,0,0-.75.38.38,0,0,0,0,.75Z"/><path class="cls-1" d="M274.93,990.16a8,8,0,0,0-6.18-2.62,6.19,6.19,0,0,0-3.4,1,5.12,5.12,0,0,0-1.69,3.31c-.44,2.35-.25,5.63,2.3,6.72A8.31,8.31,0,0,0,270,999a9.53,9.53,0,0,0,3.83-1.19,4.41,4.41,0,0,0,2.29-3.09,4,4,0,0,0-.26-2,20.15,20.15,0,0,0-1.2-1.85c-.23-.42-.88,0-.65.38s.63.84.91,1.29a3.11,3.11,0,0,1,.49,1.68,3.37,3.37,0,0,1-1.58,2.74,9.32,9.32,0,0,1-6.82,1.26c-2.63-.52-3-3.41-2.7-5.65a5.32,5.32,0,0,1,1.27-3.16,4.88,4.88,0,0,1,2.91-1,7.24,7.24,0,0,1,5.9,2.38c.32.36.85-.17.53-.53Z"/><path class="cls-1" d="M325.92,990.27c-1.85-1.47-5.52-2.59-7.33-.46a7.82,7.82,0,0,0-1.06,8.05c1.28,2.6,4.42,3.72,7.11,4.08,1.27.17,2.91.43,3.92-.54a5.39,5.39,0,0,0,1.38-3.6c.18-2.55-.05-7.08-3.54-7.15a.38.38,0,0,0,0,.75c2.74.06,2.85,3.7,2.82,5.67a6.09,6.09,0,0,1-.75,3.25,1.88,1.88,0,0,1-1.5,1,10.72,10.72,0,0,1-1.88-.06c-2.2-.24-4.87-1-6.31-2.81-1.6-2-1.4-4.82-.32-7a3.84,3.84,0,0,1,1.18-1.57,3.59,3.59,0,0,1,2-.43,6.35,6.35,0,0,1,3.74,1.37c.38.29.91-.24.53-.53Z"/><path class="cls-1" d="M341.35,976.79c1.3-1.13,2.64-2.23,4-3.3a.38.38,0,0,0,0-.53.4.4,0,0,0-.53,0c-1.36,1.07-2.7,2.17-4,3.3-.37.32.16.85.53.53Z"/><path class="cls-1" d="M350.65,994.69a48.7,48.7,0,0,0,6.46,2.1c.46.12.66-.61.19-.72a52.2,52.2,0,0,1-6.45-2.1c-.45-.18-.64.54-.2.72Z"/><path class="cls-1" d="M376.07,986.74a.38.38,0,0,0,0-.75.38.38,0,0,0,0,.75Z"/><path class="cls-1" d="M377.42,966.58a43.64,43.64,0,0,1,5.79,4.24c.36.32.89-.21.53-.53a45.32,45.32,0,0,0-5.94-4.36c-.41-.25-.79.4-.38.65Z"/><path class="cls-1" d="M379.31,1004.4q4.28-2.31,8.69-4.28c.45-.19.06-.84-.37-.65q-4.42,2-8.69,4.28c-.43.23-.05.88.37.65Z"/><path class="cls-1" d="M410.29,972.52a25.74,25.74,0,0,1,7-3.25.37.37,0,0,0-.2-.72,26.59,26.59,0,0,0-7.22,3.32c-.4.27,0,.92.38.65Z"/><path class="cls-1" d="M397.75,978.71a5.23,5.23,0,0,0-5.84,2.36,4.79,4.79,0,0,0-.67,3.08,4.63,4.63,0,0,0,1.91,2.66,7.79,7.79,0,0,0,7.22,1.33,6.35,6.35,0,0,0,4-5.18,3.92,3.92,0,0,0-1.26-3.13c-1.08-.93-2.75-1.08-4.09-1.41-.47-.12-.67.61-.2.72a24.59,24.59,0,0,1,3,.78,2.88,2.88,0,0,1,1.76,2.16c.41,2-1.05,4-2.68,5a7,7,0,0,1-8.42-2,3,3,0,0,1-.25-2.85,4.45,4.45,0,0,1,5.35-2.76.38.38,0,0,0,.2-.73Z"/><path class="cls-1" d="M423.08,994.65a53.86,53.86,0,0,0,7.57,4.91c.42.22.8-.43.37-.65a53.55,53.55,0,0,1-7.41-4.79c-.38-.29-.91.23-.53.53Z"/><path class="cls-1" d="M437.83,978.58a.38.38,0,0,0,0-.75.38.38,0,0,0,0,.75Z"/><path class="cls-1" d="M448.16,994.7l6.42.12a.38.38,0,0,0,0-.75l-6.42-.12a.38.38,0,0,0,0,.75Z"/><path class="cls-1" d="M457.51,974.23a49.28,49.28,0,0,1,4.84-5.85.38.38,0,0,0-.53-.53,50.8,50.8,0,0,0-5,6c-.27.4.38.77.65.38Z"/><path class="cls-1" d="M485.13,969.66q4,0,8,.32c.48,0,.47-.71,0-.75q-4-.33-8-.32a.38.38,0,0,0,0,.75Z"/><path class="cls-1" d="M478.77,1001.22c-2.6-.47-5.22-.84-7.84-1.13-.48-.05-.48.7,0,.75,2.56.28,5.1.65,7.64,1.11.47.08.67-.64.2-.73Z"/><path class="cls-1" d="M486.56,982.46a.38.38,0,0,0,0-.75.38.38,0,0,0,0,.75Z"/><path class="cls-1" d="M501.18,961.64a.38.38,0,0,0,0-.75.38.38,0,0,0,0,.75Z"/><path class="cls-1" d="M526.72,985.86a.38.38,0,0,0,0-.75.38.38,0,0,0,0,.75Z"/><path class="cls-1" d="M508.51,990.93a16.86,16.86,0,0,0-4.8-.6,7.37,7.37,0,0,0-4,1.07,4.64,4.64,0,0,0-2,3.19,6.6,6.6,0,0,0,.34,4.1,6.69,6.69,0,0,0,3.08,2.47,10.49,10.49,0,0,0,4.13,1.14c2.44.13,5.84-1,6.41-3.69a7.08,7.08,0,0,0-3.73-7.37c-.43-.2-.82.45-.38.65a6.38,6.38,0,0,1,3.44,5.38,3.34,3.34,0,0,1-1.54,3.18,6.67,6.67,0,0,1-3.54,1.11,8.83,8.83,0,0,1-3.55-.67,8.93,8.93,0,0,1-3.11-1.85c-1-1-1-2.36-.89-3.68a4.17,4.17,0,0,1,1.54-3.17,6.47,6.47,0,0,1,4-1.11,16.44,16.44,0,0,1,4.48.57.37.37,0,0,0,.2-.72Z"/><path class="cls-1" d="M515.63,960.58a22.25,22.25,0,0,1,12.67,4c.4.28.78-.37.38-.65a23,23,0,0,0-13-4.06.38.38,0,0,0,0,.75Z"/><path class="cls-1" d="M546.74,982.61a14.05,14.05,0,0,0,1.15,5.94c.19.45.84.06.65-.38a13.23,13.23,0,0,1-1-5.56.38.38,0,0,0-.75,0Z"/><path class="cls-1" d="M565.17,972.88a41.58,41.58,0,0,1,5,.71c.47.09.68-.63.2-.73a45.29,45.29,0,0,0-5.17-.73c-.48,0-.48.71,0,.75Z"/><path class="cls-1" d="M542.45,1005.39h10.42a.38.38,0,0,0,0-.75H542.45a.38.38,0,0,0,0,.75Z"/><path class="cls-1" d="M551.63,965.4a62.31,62.31,0,0,1,5.16-4.86c.37-.31-.16-.84-.53-.53a62.31,62.31,0,0,0-5.16,4.86c-.33.35.2.88.53.53Z"/><path class="cls-1" d="M581.48,959.13a29.53,29.53,0,0,0,4.89-3.8c.35-.34-.18-.87-.53-.53a28.65,28.65,0,0,1-4.74,3.68c-.41.25,0,.9.38.65Z"/><path class="cls-1" d="M572.51,993.73a30.47,30.47,0,0,0,4.49,7c.32.37.84-.17.53-.53a29.63,29.63,0,0,1-4.37-6.85c-.2-.43-.85-.05-.65.38Z"/><path class="cls-1" d="M596.94,996.64l6.21,3.56a.38.38,0,0,0,.38-.65L597.32,996a.37.37,0,0,0-.38.64Z"/><path class="cls-1" d="M601.8,971c-1.47.18-3-.24-4.43.14a4,4,0,0,0-2.54,2.19,8.38,8.38,0,0,0-.07,7c1.25,2.48,4.45,2.89,7,2.55a5.18,5.18,0,0,0,4.63-4.61,8,8,0,0,0-3.33-7.47c-.4-.28-.77.37-.38.64a7.25,7.25,0,0,1,3,5.79,4.57,4.57,0,0,1-3.34,4.77,9.14,9.14,0,0,1-3.61.08,4.19,4.19,0,0,1-3.07-1.71,7.42,7.42,0,0,1-.42-6,3.55,3.55,0,0,1,2.35-2.48c1.37-.37,2.83,0,4.23-.12.47-.06.48-.81,0-.75Z"/><path class="cls-1" d="M763.52,1021.19c-99.66-7.27-199.69-6.53-299.55-5.45q-76.1.82-152.2,1.62c-50.61.52-101.27,1.38-151.85-.69-56.3-2.31-112.87-9-169.09-1.85-.47.06-.47.81,0,.75,50.15-6.4,100.66-1.73,150.88,1,50.47,2.72,101,2.27,151.52,1.75,100.61-1,201.26-3.07,301.88-2.37,56.18.38,112.37,1.92,168.41,6,.48,0,.48-.72,0-.75Z"/><path class="cls-1" d="M764.15,930.36c-39.52-2.86-78.93.17-118.2,4.78-47.76,5.62-95.38,12.07-143.38,15.52-68.67,4.94-137.55,4.5-206.34,2.72-60.6-1.57-121.13-4.71-181.68-7.7-22.14-1.1-44.3-2.18-66.47-2.72-15.85-.39-31.8-.66-47.63.54q-4.17.32-8.33.84c-.48.06-.48.81,0,.75,14.08-1.8,28.41-1.78,42.59-1.62,20.69.22,41.37,1.13,62,2.1,58.16,2.72,116.29,6,174.48,7.83,69.87,2.23,139.94,3.42,209.76-.59,50.22-2.89,100.06-8.95,150-15.1,39.32-4.85,78.81-9,118.48-7.43,4.91.19,9.82.48,14.72.83.48,0,.48-.71,0-.75Z"/><path class="cls-1" d="M676.67,949.67a50.75,50.75,0,0,1,4,5.15c.26.4.91,0,.64-.38a50.8,50.8,0,0,0-4.08-5.3c-.32-.36-.85.17-.53.53Z"/><path class="cls-1" d="M681.11,994.21a3,3,0,0,1,2,1.17,7.79,7.79,0,0,0,2.08,1.76c.43.21.81-.44.38-.65-1.64-.79-2.47-3-4.49-3a.38.38,0,0,0,0,.75Z"/><path class="cls-1" d="M667.17,968.06a9,9,0,0,0,3.11,3.16c.41.25.79-.4.38-.65a8.3,8.3,0,0,1-2.85-2.89.37.37,0,0,0-.64.38Z"/><path class="cls-1" d="M705.11,976.87a26.62,26.62,0,0,1,5.65-2.43c1.61-.41,3.43-.33,4.75-1.49.36-.32-.17-.85-.53-.53a4.68,4.68,0,0,1-2.36.92,20.65,20.65,0,0,0-2.6.53,30,30,0,0,0-5.28,2.35c-.43.23,0,.88.37.65Z"/><path class="cls-1" d="M657.83,995a15.49,15.49,0,0,1,6.95-4.28.37.37,0,0,0-.2-.72,16.22,16.22,0,0,0-7.28,4.47c-.33.36.2.89.53.53Z"/><path class="cls-1" d="M718.93,992.93l10.3-2.48c.47-.11.27-.84-.2-.72l-10.3,2.48c-.47.11-.27.83.2.72Z"/><path class="cls-1" d="M745.89,994.26l7.06,11.4c.26.41.91,0,.65-.37l-7.06-11.41c-.26-.41-.91,0-.65.38Z"/><path class="cls-1" d="M753,954.19a57.49,57.49,0,0,1,5.47,5.23c.32.36.85-.17.53-.53a56.33,56.33,0,0,0-5.47-5.23c-.37-.3-.9.22-.53.53Z"/><path class="cls-1" d="M739.65,962.68c-2-.14-4.31-.15-5.93,1.2a4.31,4.31,0,0,0-.89,5.2,5.28,5.28,0,0,0,5.18,2.74,6.52,6.52,0,0,0,3-.9,4.51,4.51,0,0,0,1.21-6.36,3.66,3.66,0,0,0-3.09-1.44c-.48,0-.48.79,0,.75a3.16,3.16,0,0,1,3.12,3.83,3.61,3.61,0,0,1-1.56,2.53,5.7,5.7,0,0,1-2.6.84,4.62,4.62,0,0,1-4.45-2.1,3.61,3.61,0,0,1,.54-4.48c1.45-1.28,3.69-1.18,5.49-1.06.48,0,.48-.72,0-.75Z"/><path class="cls-1" d="M708,952.4h10.88a.38.38,0,0,0,0-.75H708a.38.38,0,0,0,0,.75Z"/><path class="cls-1" d="M622.49,956.27c2.61-.46,5.21-1,7.78-1.7a.37.37,0,0,0-.2-.72c-2.57.66-5.17,1.23-7.78,1.7-.47.09-.27.81.2.72Z"/><path class="cls-1" d="M36.14,959c-1.26-.25-2.53-.46-3.8-.64a3.94,3.94,0,0,0-1.64,0,4.28,4.28,0,0,0-1.23.78c-1.58,1.2-3.08,3.18-1.86,5.17,2,3.25,7.66,3.73,10.17.88a3.27,3.27,0,0,0,.79-3A3.88,3.88,0,0,0,36.24,960c-.44-.21-.82.43-.38.64a3.64,3.64,0,0,1,1.91,1.51,2.44,2.44,0,0,1-.52,2.53,5.56,5.56,0,0,1-4.35,1.63,6.18,6.18,0,0,1-4.22-1.82A2.4,2.4,0,0,1,28,962,4.64,4.64,0,0,1,29.65,960a4.61,4.61,0,0,1,1.25-.85,4,4,0,0,1,1.69.08c1.12.16,2.24.35,3.35.57.48.09.68-.63.2-.72Z"/><path class="cls-1" d="M639.12,978a5,5,0,0,1,3,.61.38.38,0,0,0,.38-.65,5.65,5.65,0,0,0-3.39-.71.39.39,0,0,0-.37.38c0,.18.17.4.37.37Z"/><path class="cls-1" d="M653.67,955.22l1.72,1.91a.37.37,0,0,0,.53,0,.39.39,0,0,0,0-.53l-1.72-1.91a.39.39,0,0,0-.53,0,.38.38,0,0,0,0,.53Z"/><path class="cls-1" d="M627.46,994.61a5.63,5.63,0,0,1,3,2c.25.42.9,0,.65-.37a6.49,6.49,0,0,0-3.49-2.34.39.39,0,0,0-.47.27.4.4,0,0,0,.27.46Z"/><path class="cls-1" d="M762.91,1033.7c-99.91,7.28-200.15,6.5-300.25,5.39q-75.68-.83-151.35-1.6c-50-.52-100.11-1.32-150.12.79-55.79,2.35-111.84,8.9-167.55,1.79-.48-.06-.47.69,0,.75,49.64,6.33,99.64,1.82,149.36-.9,49.95-2.73,100-2.38,150-1.87,100.28,1,200.6,3.07,300.89,2.42,56.4-.36,112.81-1.92,169.06-6,.48,0,.49-.79,0-.75Z"/><path class="cls-1" d="M23.16,1013.85c.18,9.14-3,18.1-1.85,27.25.06.48.81.48.75,0-1.17-9.15,2-18.11,1.85-27.25a.38.38,0,0,0-.75,0Z"/><path class="cls-1" d="M13.56,1013.79a207,207,0,0,1-.58,27c0,.48.71.48.75,0a207,207,0,0,0,.58-27c0-.48-.77-.48-.75,0Z"/><path class="cls-1" d="M5.71,1015.22Q4.54,1027.6,4.44,1040a.38.38,0,0,0,.75,0q.1-12.43,1.27-24.81c0-.48-.7-.48-.75,0Z"/><path class="cls-1" d="M48.79,1012.79c.18,10.05-3,19.93-1.85,30,.05.47.8.48.75,0-1.17-10.06,2-19.94,1.85-30a.38.38,0,0,0-.75,0Z"/><path class="cls-1" d="M39.19,1012.79a252.32,252.32,0,0,1-.58,29.87c0,.48.71.48.75,0a252.32,252.32,0,0,0,.58-29.87c0-.48-.77-.49-.75,0Z"/><path class="cls-1" d="M57.34,1013.52q-1.16,14.07-1.27,28.2a.38.38,0,0,0,.75,0q.1-14.12,1.27-28.2c0-.48-.71-.48-.75,0Z"/><path class="cls-1" d="M31.34,1013.89q-.75,13.58-.9,27.17a.38.38,0,0,0,.75,0q.15-13.59.9-27.17c0-.48-.72-.48-.75,0Z"/><path class="cls-1" d="M98.79,1014.45c-.17,8.93,3,17.67,1.86,26.61-.06.48.69.48.75,0,1.17-8.94-2-17.68-1.86-26.61a.38.38,0,0,0-.75,0Z"/><path class="cls-1" d="M108.4,1014.39a193,193,0,0,0,.58,26.23c0,.48.79.48.75,0a193,193,0,0,1-.58-26.23c0-.48-.73-.48-.75,0Z"/><path class="cls-1" d="M116.25,1014.75q1.16,13.11,1.27,26.29a.38.38,0,0,0,.75,0q-.1-13.17-1.27-26.29c0-.48-.8-.48-.75,0Z"/><path class="cls-1" d="M124.78,1015.38q.77,12.6.9,25.24a.38.38,0,0,0,.75,0q-.14-12.63-.9-25.24c0-.48-.78-.49-.75,0Z"/><path class="cls-1" d="M73.16,1012.85c-.18,10,3,19.94,1.86,30-.06.48.69.48.75,0,1.17-10.07-2-20-1.86-30a.38.38,0,0,0-.75,0Z"/><path class="cls-1" d="M82.77,1013.52a230.69,230.69,0,0,0,.58,28.68c0,.48.79.48.75,0a230.69,230.69,0,0,1-.58-28.68c0-.48-.73-.48-.75,0Z"/><path class="cls-1" d="M64.61,1012.57q1.17,15.12,1.27,30.29a.38.38,0,0,0,.75,0q-.09-15.16-1.27-30.29c0-.48-.78-.48-.75,0Z"/><path class="cls-1" d="M90.62,1013.52q.75,14.31.89,28.64a.38.38,0,0,0,.75,0q-.14-14.34-.89-28.64c0-.48-.78-.48-.75,0Z"/><path class="cls-1" d="M159.33,1018.25c.17,6.73-3,13.18-1.84,19.93.08.47.8.27.72-.2-1.17-6.66,2-13.08,1.87-19.73a.38.38,0,0,0-.75,0Z"/><path class="cls-1" d="M149.72,1018.2a120.07,120.07,0,0,1-.58,20.68c0,.48.7.48.75,0a120.07,120.07,0,0,0,.58-20.68c0-.48-.78-.49-.75,0Z"/><path class="cls-1" d="M142.51,1016.75q-1.17,11.37-1.27,22.81a.38.38,0,0,0,.75,0q.1-11.43,1.27-22.81c.05-.48-.7-.48-.75,0Z"/><path class="cls-1" d="M134.23,1015.83q-.75,11.94-.89,23.91a.38.38,0,0,0,.75,0q.14-12,.89-23.91c0-.48-.72-.48-.75,0Z"/><path class="cls-1" d="M185,1017.93c.17,6.7-3,13.12-1.84,19.86.08.47.8.27.72-.2-1.17-6.64,2-13,1.87-19.66,0-.49-.77-.49-.75,0Z"/><path class="cls-1" d="M175.35,1017.93a116.69,116.69,0,0,1-.58,20.3c-.05.48.7.48.75,0a116.69,116.69,0,0,0,.58-20.3c0-.48-.78-.49-.75,0Z"/><path class="cls-1" d="M193.51,1017.93a183.75,183.75,0,0,0-1.27,19.76.38.38,0,0,0,.75,0,183.75,183.75,0,0,1,1.27-19.76c.05-.48-.7-.48-.75,0Z"/><path class="cls-1" d="M167.51,1018.29q-.76,10-.9,19.94a.38.38,0,0,0,.75,0q.13-10,.9-19.94c0-.48-.72-.48-.75,0Z"/><path class="cls-1" d="M235,1018.24c-.1,6.22,1.84,12.33,1.14,18.56-.06.48.69.47.75,0,.7-6.23-1.24-12.34-1.14-18.56a.38.38,0,0,0-.75,0Z"/><path class="cls-1" d="M244.56,1018.8a98.74,98.74,0,0,0,.58,18.59c.06.47.81.48.75,0a98.74,98.74,0,0,1-.58-18.59c0-.48-.72-.48-.75,0Z"/><path class="cls-1" d="M252.41,1018.8a146,146,0,0,1,1.27,17.6.38.38,0,0,0,.75,0,146,146,0,0,0-1.27-17.6c-.06-.47-.81-.48-.75,0Z"/><path class="cls-1" d="M261,1019.19q.75,9.07.89,18.2a.38.38,0,0,0,.75,0q-.13-9.12-.89-18.2c0-.48-.79-.48-.75,0Z"/><path class="cls-1" d="M209.33,1018.09c-.18,6.33,3,12.43,1.87,18.77-.09.48.63.68.72.2,1.18-6.43-2-12.56-1.84-19a.38.38,0,0,0-.75,0Z"/><path class="cls-1" d="M218.94,1018.24a99.25,99.25,0,0,0,.57,18.72c.06.48.81.48.75,0a99.25,99.25,0,0,1-.57-18.72c0-.48-.72-.48-.75,0Z"/><path class="cls-1" d="M200.78,1018.24a180.4,180.4,0,0,1,1.27,19.44.38.38,0,0,0,.75,0,180.4,180.4,0,0,0-1.27-19.44c-.06-.47-.81-.48-.75,0Z"/><path class="cls-1" d="M226.78,1018.24q.75,9.51.9,19.06a.38.38,0,0,0,.75,0q-.15-9.54-.9-19.06c0-.48-.79-.48-.75,0Z"/><path class="cls-1" d="M269.66,1018.8a90,90,0,0,0,.57,17.82c.06.47.82.48.75,0a90,90,0,0,1-.57-17.82c0-.48-.72-.48-.75,0Z"/><path class="cls-1" d="M277.5,1018.8a152.63,152.63,0,0,1,1.27,18,.38.38,0,0,0,.75,0,152.63,152.63,0,0,0-1.27-18c-.06-.47-.81-.48-.75,0Z"/><path class="cls-1" d="M286,1018.8q.75,9.39.9,18.81a.38.38,0,0,0,.75,0q-.15-9.42-.9-18.81c0-.48-.79-.48-.75,0Z"/><path class="cls-1" d="M320.59,1018.8c.17,6.36-3,12.42-1.85,18.8.09.48.81.28.73-.2-1.17-6.28,2-12.33,1.87-18.6,0-.48-.77-.49-.75,0Z"/><path class="cls-1" d="M311,1018.8a102.88,102.88,0,0,1-.58,19.06c-.06.48.69.47.75,0a102.88,102.88,0,0,0,.58-19.06c0-.48-.78-.48-.75,0Z"/><path class="cls-1" d="M303.77,1018.8a169.6,169.6,0,0,0-1.27,19,.38.38,0,0,0,.75,0,169.6,169.6,0,0,1,1.27-19c.06-.48-.69-.48-.75,0Z"/><path class="cls-1" d="M295.49,1018.8q-.75,9.06-.9,18.16a.38.38,0,0,0,.75,0q.15-9.09.9-18.16c0-.48-.71-.48-.75,0Z"/><path class="cls-1" d="M346.22,1018.8c.07,6.25-1.25,12.45-.77,18.7,0,.48.79.49.75,0-.48-6.25.84-12.45.77-18.7a.38.38,0,0,0-.75,0Z"/><path class="cls-1" d="M336.61,1018.8a103.76,103.76,0,0,1-.58,19.06c-.06.48.69.47.75,0a103.76,103.76,0,0,0,.58-19.06c0-.48-.78-.48-.75,0Z"/><path class="cls-1" d="M354.76,1018.8a186.36,186.36,0,0,0-1.27,19.76.38.38,0,0,0,.75,0,186.36,186.36,0,0,1,1.27-19.76c.06-.48-.69-.48-.75,0Z"/><path class="cls-1" d="M328.76,1018.8q-.75,9.39-.89,18.81a.38.38,0,0,0,.75,0q.13-9.42.89-18.81c0-.48-.71-.48-.75,0Z"/><path class="cls-1" d="M396.23,1017.43c-.1,7,1.84,13.81,1.13,20.76-.05.48.7.48.75,0,.71-7-1.23-13.81-1.13-20.76a.38.38,0,0,0-.75,0Z"/><path class="cls-1" d="M405.84,1017.43a122.49,122.49,0,0,0,.58,20.8c.05.47.8.48.75,0a122.49,122.49,0,0,1-.58-20.8c0-.48-.72-.48-.75,0Z"/><path class="cls-1" d="M413.69,1016.75q1.15,10.83,1.27,21.73a.38.38,0,0,0,.75,0q-.1-10.89-1.27-21.73c-.06-.48-.81-.48-.75,0Z"/><path class="cls-1" d="M422.22,1016.75q.76,10.45.9,20.94a.38.38,0,0,0,.75,0q-.14-10.49-.9-20.94c0-.48-.78-.48-.75,0Z"/><path class="cls-1" d="M370.6,1017.43c-.17,7.07,3,13.93,1.87,21-.08.48.65.68.73.2,1.17-7.17-2-14.06-1.85-21.21,0-.48-.73-.48-.75,0Z"/><path class="cls-1" d="M380.21,1017.43a124.23,124.23,0,0,0,.58,21c0,.48.8.48.75,0a124.23,124.23,0,0,1-.58-21c0-.48-.72-.48-.75,0Z"/><path class="cls-1" d="M362,1018.8a177.88,177.88,0,0,1,1.27,19.44.38.38,0,0,0,.75,0,177.88,177.88,0,0,0-1.27-19.44c0-.48-.8-.48-.75,0Z"/><path class="cls-1" d="M388.06,1017.43q.75,10.65.89,21.32a.38.38,0,0,0,.75,0q-.13-10.66-.89-21.32c0-.48-.79-.48-.75,0Z"/><path class="cls-1" d="M429.7,1016.61q.75,10.94.89,21.9a.38.38,0,0,0,.75,0q-.13-11-.89-21.9c0-.47-.79-.48-.75,0Z"/><path class="cls-1" d="M464.24,1016.61c.18,7.37-3,14.48-1.84,21.87.08.48.8.27.72-.2-1.16-7.3,2-14.38,1.87-21.67a.38.38,0,0,0-.75,0Z"/><path class="cls-1" d="M454.63,1016.61a139.36,139.36,0,0,1-.57,22.19c-.05.48.7.47.75,0a139.36,139.36,0,0,0,.57-22.19c0-.48-.77-.48-.75,0Z"/><path class="cls-1" d="M447.43,1016.61q-1.17,11-1.28,22.1a.38.38,0,0,0,.75,0q.11-11.09,1.28-22.1c.05-.47-.7-.47-.75,0Z"/><path class="cls-1" d="M439.15,1016.61q-.76,10.56-.9,21.14a.38.38,0,0,0,.75,0q.13-10.57.9-21.14c0-.48-.72-.48-.75,0Z"/><path class="cls-1" d="M489.88,1016.61c.07,7.27-1.25,14.5-.77,21.77,0,.48.78.48.75,0-.48-7.27.84-14.5.77-21.77a.38.38,0,0,0-.75,0Z"/><path class="cls-1" d="M480.26,1016.61a139.36,139.36,0,0,1-.57,22.19c-.05.48.7.47.75,0a139.36,139.36,0,0,0,.57-22.19c0-.48-.77-.48-.75,0Z"/><path class="cls-1" d="M498.42,1016.61q-1.17,11.48-1.27,23a.38.38,0,0,0,.75,0q.11-11.52,1.27-23c.05-.48-.7-.47-.75,0Z"/><path class="cls-1" d="M472.42,1016.61q-.75,10.94-.9,21.9a.38.38,0,0,0,.75,0q.15-11,.9-21.9c0-.48-.72-.48-.75,0Z"/><path class="cls-1" d="M539.89,1016.13c-.11,7.72,1.83,15.36,1.13,23.08,0,.48.71.48.75,0,.7-7.72-1.24-15.36-1.13-23.08a.38.38,0,0,0-.75,0Z"/><path class="cls-1" d="M549.5,1016.13a151.26,151.26,0,0,0,.57,23.12c0,.48.8.48.75,0a151.26,151.26,0,0,1-.57-23.12c0-.48-.73-.48-.75,0Z"/><path class="cls-1" d="M557.34,1016.13q1.17,11.72,1.27,23.49a.38.38,0,0,0,.75,0q-.11-11.76-1.27-23.49c0-.47-.8-.48-.75,0Z"/><path class="cls-1" d="M565.88,1016.13q.76,11.31.9,22.64a.38.38,0,0,0,.75,0q-.15-11.34-.9-22.64c0-.48-.78-.48-.75,0Z"/><path class="cls-1" d="M514.26,1016.13c-.17,7.85,3,15.51,1.87,23.37-.07.47.65.68.72.2,1.18-8-2-15.64-1.84-23.57a.38.38,0,0,0-.75,0Z"/><path class="cls-1" d="M523.87,1016.13a153.49,153.49,0,0,0,.57,23.29c0,.48.8.48.75,0a153.49,153.49,0,0,1-.57-23.29c0-.48-.73-.48-.75,0Z"/><path class="cls-1" d="M505.69,1016.61q1.17,11.28,1.27,22.63a.38.38,0,0,0,.75,0q-.1-11.34-1.27-22.63c-.05-.47-.8-.48-.75,0Z"/><path class="cls-1" d="M531.71,1016.13q.76,11.83.9,23.71a.38.38,0,0,0,.75,0q-.14-11.86-.9-23.71c0-.48-.78-.48-.75,0Z"/><path class="cls-1" d="M592.76,1016.32c.18,7.37-3,14.48-1.84,21.87.08.47.8.27.72-.2-1.16-7.3,2.05-14.38,1.87-21.67a.38.38,0,0,0-.75,0Z"/><path class="cls-1" d="M583.16,1016.32a140.4,140.4,0,0,1-.58,22.18c-.05.48.7.48.75,0a140.4,140.4,0,0,0,.58-22.18c0-.48-.78-.48-.75,0Z"/><path class="cls-1" d="M576,1016.32q-1.17,11-1.27,22.09a.38.38,0,0,0,.75,0q.09-11.07,1.27-22.09c0-.48-.7-.47-.75,0Z"/><path class="cls-1" d="M618.4,1016.32c.07,7.27-1.25,14.5-.77,21.77,0,.48.78.48.75,0-.48-7.27.84-14.5.77-21.77a.38.38,0,0,0-.75,0Z"/><path class="cls-1" d="M608.78,1016.32a139.21,139.21,0,0,1-.57,22.18c-.05.48.7.48.75,0a139.21,139.21,0,0,0,.57-22.18c0-.48-.77-.48-.75,0Z"/><path class="cls-1" d="M626.94,1016.32q-1.16,11.46-1.27,23a.38.38,0,0,0,.75,0q.11-11.52,1.27-23c0-.48-.7-.47-.75,0Z"/><path class="cls-1" d="M600.94,1016.32q-.75,10.94-.9,21.89a.38.38,0,0,0,.75,0q.15-10.95.9-21.89c0-.48-.72-.48-.75,0Z"/><path class="cls-1" d="M668.41,1017.12c-.11,6.87,1.84,13.65,1.13,20.53,0,.48.7.48.75,0,.71-6.88-1.24-13.66-1.13-20.53a.38.38,0,0,0-.75,0Z"/><path class="cls-1" d="M677.63,1018.94a103.87,103.87,0,0,0,.57,19.15c.06.47.81.48.75,0a103.87,103.87,0,0,1-.57-19.15c0-.48-.72-.48-.75,0Z"/><path class="cls-1" d="M685.86,1017.74a173.33,173.33,0,0,1,1.27,19.18.38.38,0,0,0,.75,0,173.33,173.33,0,0,0-1.27-19.18c-.05-.47-.81-.48-.75,0Z"/><path class="cls-1" d="M694.4,1019.17q.76,9.23.9,18.48a.38.38,0,0,0,.75,0q-.15-9.26-.9-18.48c0-.47-.79-.48-.75,0Z"/><path class="cls-1" d="M642.78,1017.12c-.17,7.46,3,14.73,1.87,22.2-.07.48.65.68.72.2,1.18-7.56-2-14.86-1.84-22.4a.38.38,0,0,0-.75,0Z"/><path class="cls-1" d="M652.39,1017.12a136.22,136.22,0,0,0,.58,22c0,.48.8.48.75,0a136.22,136.22,0,0,1-.58-22c0-.48-.72-.48-.75,0Z"/><path class="cls-1" d="M634.21,1016.32q1.17,11.28,1.27,22.63a.38.38,0,0,0,.75,0q-.11-11.34-1.27-22.63c-.05-.47-.8-.48-.75,0Z"/><path class="cls-1" d="M660.23,1017.12q.76,10.75.9,21.55a.38.38,0,0,0,.75,0q-.14-10.79-.9-21.55c0-.48-.78-.48-.75,0Z"/><path class="cls-1" d="M702.34,1018.45c-.1,6.06,1.84,12,1.14,18.08-.06.48.69.48.75,0,.7-6.07-1.24-12-1.14-18.08a.38.38,0,0,0-.75,0Z"/><path class="cls-1" d="M711.56,1019.67a85.28,85.28,0,0,0,.59,17.35c.07.48.79.28.72-.2a84.75,84.75,0,0,1-.56-17.15c0-.48-.71-.48-.75,0Z"/><path class="cls-1" d="M719.81,1019.77a124.16,124.16,0,0,1,1.26,16.11.38.38,0,0,0,.75,0,125.49,125.49,0,0,0-1.28-16.31c-.07-.47-.8-.27-.73.2Z"/><path class="cls-1" d="M728.34,1019.88q.75,8,.89,16a.38.38,0,0,0,.75,0q-.13-8-.89-16c-.05-.47-.8-.48-.75,0Z"/><path class="cls-1" d="M737.37,1021.4c-.1,4.7,1.86,9.28,1.15,14-.07.48.65.68.72.2.72-4.79-1.22-9.4-1.12-14.18a.38.38,0,0,0-.75,0Z"/><path class="cls-1" d="M746.57,1021.22a52.06,52.06,0,0,0,.59,13.54c.08.47.8.27.72-.2a51,51,0,0,1-.56-13.34c0-.48-.71-.47-.75,0Z"/><path class="cls-1" d="M116.52,754c-30.39,1.2-60.8.27-91.2.61-8.52.09-17,.29-25.56.67-.48,0-.48.77,0,.75,30.28-1.34,60.59-.42,90.89-.69,8.62-.07,17.25-.25,25.87-.59.48,0,.48-.77,0-.75Z"/><path class="cls-1" d="M407,755.36c-31.5-.69-63-.24-94.51-.76q-13.21-.21-26.42-.7c-.48,0-.48.73,0,.75,31.49,1.21,63,.88,94.51,1.1q13.22.09,26.42.36a.38.38,0,0,0,0-.75Z"/><path class="cls-1" d="M756.72,754c-28,.67-56.09.82-84.14,1q-12,.09-23.9.22a.38.38,0,0,0,0,.75c28.05-.31,56.09-.38,84.13-.8q12-.18,23.91-.46c.48,0,.48-.77,0-.75Z"/><path class="cls-2" d="M650.64,807.06c-5.47-102.85.92-210.89,2.89-313.87.69-36.26-.36-72.53-1.41-108.79-1.77-61.51-1.47-67.83-3.24-129.34H410.49c8.76,130.75-3.1,477.15-4.87,551.66,7.59.9,15.43-.29,23.06.09Z"/><path class="cls-2" d="M438.8,354.33c-3.39-2.76-4.49-5.6-4-9.95,28.6-1,57.57-.16,86.19-.55,0,4.52-1.76,7.67-5.47,10.26-.21,0-2.91.2-3.12.2Z"/><path class="cls-2" d="M438.66,344.24V277h78.59v66.83"/><line class="cls-2" x1="447.18" y1="277" x2="447.18" y2="343.83"/><line class="cls-2" x1="476.91" y1="277" x2="476.91" y2="343.83"/><line class="cls-2" x1="509.35" y1="277" x2="509.35" y2="343.83"/><line class="cls-2" x1="438.66" y1="293.79" x2="517.25" y2="293.79"/><line class="cls-2" x1="438.66" y1="319.77" x2="517.67" y2="319.77"/><path class="cls-2" d="M438.8,459c-3.39-2.76-4.49-5.6-4-9.95,28.6-1,57.57-.16,86.19-.55,0,4.52-1.76,7.67-5.47,10.26-.21,0-2.91.21-3.12.21Z"/><path class="cls-2" d="M438.66,448.93V381.68h78.59v66.83"/><line class="cls-2" x1="447.18" y1="381.69" x2="447.18" y2="448.52"/><line class="cls-2" x1="476.91" y1="381.69" x2="476.91" y2="448.52"/><line class="cls-2" x1="509.35" y1="381.69" x2="509.35" y2="448.52"/><line class="cls-2" x1="438.66" y1="398.48" x2="517.25" y2="398.48"/><line class="cls-2" x1="438.66" y1="424.46" x2="517.67" y2="424.46"/><path class="cls-2" d="M438.8,668.4c-3.39-2.76-4.49-5.6-4-9.95,28.6-1,57.57-.16,86.19-.55,0,4.52-1.76,7.67-5.47,10.26-.21,0-2.91.21-3.12.21Z"/><path class="cls-2" d="M438.66,658.31V591.06c1.21,0,0,0,1.21,0h77.38V657.9"/><line class="cls-2" x1="447.18" y1="591.07" x2="447.18" y2="657.9"/><line class="cls-2" x1="476.91" y1="591.07" x2="476.91" y2="657.9"/><line class="cls-2" x1="509.35" y1="591.07" x2="509.35" y2="657.9"/><line class="cls-2" x1="438.66" y1="607.86" x2="517.25" y2="607.86"/><line class="cls-2" x1="438.66" y1="633.84" x2="517.67" y2="633.84"/><path class="cls-2" d="M544.14,354.33c-3.39-2.76-4.49-5.6-4-9.95,28.6-1,57.57-.16,86.19-.55,0,4.52-1.76,7.67-5.47,10.26-.21,0-2.91.2-3.12.2Z"/><path class="cls-2" d="M544,344.24V277h78.59v66.83"/><line class="cls-2" x1="552.52" y1="277" x2="552.52" y2="343.83"/><line class="cls-2" x1="582.25" y1="277" x2="582.25" y2="343.83"/><line class="cls-2" x1="614.69" y1="277" x2="614.69" y2="343.83"/><line class="cls-2" x1="544" y1="293.79" x2="622.59" y2="293.79"/><line class="cls-2" x1="544" y1="319.77" x2="623.01" y2="319.77"/><path class="cls-2" d="M544.14,459c-3.39-2.76-4.49-5.6-4-9.95,28.6-1,57.57-.16,86.19-.55,0,4.52-1.76,7.67-5.47,10.26-.21,0-2.91.21-3.12.21Z"/><path class="cls-2" d="M544,448.93V381.68h78.59v66.83"/><line class="cls-2" x1="552.52" y1="381.69" x2="552.52" y2="448.52"/><line class="cls-2" x1="582.25" y1="381.69" x2="582.25" y2="448.52"/><line class="cls-2" x1="614.69" y1="381.69" x2="614.69" y2="448.52"/><line class="cls-2" x1="544" y1="398.48" x2="622.59" y2="398.48"/><line class="cls-2" x1="544" y1="424.46" x2="622.59" y2="424.46"/><path class="cls-2" d="M544.14,563.71c-3.39-2.76-4.49-5.6-4-10,28.6-1,57.57-.16,86.19-.55,0,4.52-1.76,7.67-5.47,10.26-.21,0-2.91.21-3.12.21Z"/><path class="cls-2" d="M544,553.62V486.37h78.59v66.83"/><line class="cls-2" x1="552.52" y1="486.38" x2="552.52" y2="553.21"/><line class="cls-2" x1="582.25" y1="486.38" x2="582.25" y2="553.21"/><line class="cls-2" x1="614.69" y1="486.38" x2="614.69" y2="553.21"/><line class="cls-2" x1="544" y1="503.17" x2="622.59" y2="503.17"/><line class="cls-2" x1="544" y1="529.15" x2="623.01" y2="529.15"/><path class="cls-2" d="M544.14,668.4c-3.39-2.76-4.49-5.6-4-9.95,28.6-1,57.57-.16,86.19-.55,0,4.52-1.76,7.67-5.47,10.26-.21,0-2.91.21-3.12.21Z"/><path class="cls-2" d="M544,658.31V591.06c1.21,0,0,0,1.21,0h77.38V657.9"/><line class="cls-2" x1="552.52" y1="591.07" x2="552.52" y2="657.9"/><line class="cls-2" x1="582.25" y1="591.07" x2="582.25" y2="657.9"/><line class="cls-2" x1="614.69" y1="591.07" x2="614.69" y2="657.9"/><line class="cls-2" x1="544" y1="607.86" x2="622.59" y2="607.86"/><line class="cls-2" x1="544" y1="633.84" x2="623.01" y2="633.84"/><path class="cls-2" d="M409.61,685.47c40-6.36,80.78.79,121.29,1.37,9.57.14,19.14-.09,28.71-.32l88.21-2.11"/><path class="cls-2" d="M409.23,701q118.88,4.92,237.86-2"/><path class="cls-2" d="M440.82,702.54a156.41,156.41,0,0,1,.93-18.1"/><path class="cls-2" d="M479.88,702.92a89.51,89.51,0,0,1,.57-18.51"/><path class="cls-2" d="M521,702.54V687.12"/><path class="cls-2" d="M561.1,702.54a123.25,123.25,0,0,1,1-15.83"/><path class="cls-2" d="M601.18,700.23a56.26,56.26,0,0,1,1.69-14.62"/><path class="cls-2" d="M632.83,699.07A57.83,57.83,0,0,1,634,684.82"/><path class="cls-2" d="M626.37,730.07H429.93v-5.45c.11-1.45.17-2.63.28-4.08H626.37Z"/><path class="cls-2" d="M442.07,730.54c.07,1,.15,2,.22,3.06V806"/><line class="cls-2" x1="614.1" y1="730.33" x2="614.1" y2="806.67"/><line class="cls-2" x1="531.98" y1="753.16" x2="531.98" y2="806.93"/><line class="cls-2" x1="563.44" y1="754.71" x2="563.44" y2="806.67"/><line class="cls-2" x1="501.13" y1="755.72" x2="501.13" y2="807.46"/><path class="cls-2" d="M563.44,730.07l9.53,17.3-83.27-.12c4.14-5.48,8.81-11.49,12.66-17.18"/><path class="cls-2" d="M497.76,750.44a5.27,5.27,0,0,1-.79,3.7,3.94,3.94,0,0,1-3.27,1.74,4.18,4.18,0,0,1-2.65-1.19,5.19,5.19,0,0,1-1.55-4.15v-3.29"/><path class="cls-2" d="M497.84,750.54a5.19,5.19,0,0,0,1.55,4.15,4.18,4.18,0,0,0,2.65,1.19,3.94,3.94,0,0,0,3.27-1.74,5.27,5.27,0,0,0,.79-3.7"/><path class="cls-2" d="M506.18,750.54a5.17,5.17,0,0,0,1.56,4.15,4.13,4.13,0,0,0,2.64,1.19,3.94,3.94,0,0,0,3.27-1.74,5.33,5.33,0,0,0,.8-3.7"/><path class="cls-2" d="M514.52,750.54a5.17,5.17,0,0,0,1.56,4.15,4.13,4.13,0,0,0,2.64,1.19,3.94,3.94,0,0,0,3.27-1.74,5.28,5.28,0,0,0,.8-3.7"/><path class="cls-2" d="M523.09,750.54a5.24,5.24,0,0,0,1.56,4.15,4.18,4.18,0,0,0,2.65,1.19,4,4,0,0,0,3.27-1.74,5.27,5.27,0,0,0,.79-3.7"/><path class="cls-2" d="M531.44,750.54a5.19,5.19,0,0,0,1.55,4.15,4.18,4.18,0,0,0,2.65,1.19,4,4,0,0,0,3.27-1.74,5.27,5.27,0,0,0,.79-3.7"/><path class="cls-2" d="M539.78,750.54a5.19,5.19,0,0,0,1.55,4.15,4.18,4.18,0,0,0,2.65,1.19,3.94,3.94,0,0,0,3.27-1.74,5.27,5.27,0,0,0,.79-3.7"/><path class="cls-2" d="M548.12,750.54a5.17,5.17,0,0,0,1.56,4.15,4.13,4.13,0,0,0,2.64,1.19,3.94,3.94,0,0,0,3.27-1.74,5.33,5.33,0,0,0,.8-3.7"/><path class="cls-2" d="M556.46,750.54a5.17,5.17,0,0,0,1.56,4.15,4.13,4.13,0,0,0,2.64,1.19,3.94,3.94,0,0,0,3.27-1.74,5.28,5.28,0,0,0,.8-3.7"/><path class="cls-2" d="M564.8,750.54a5.17,5.17,0,0,0,1.56,4.15,4.16,4.16,0,0,0,2.64,1.19,4,4,0,0,0,3.28-1.74,5.33,5.33,0,0,0,.79-3.7v-3.07"/><polygon class="cls-2" points="455.76 797.09 455.76 758.9 495.85 758.9 495.85 796.99 455.76 797.09"/><polygon class="cls-2" points="568.72 797.09 568.72 758.9 608.81 758.9 608.81 796.99 568.72 797.09"/><path class="cls-2" d="M524.59,779.16a1.7,1.7,0,0,0-.69,1.28,1.53,1.53,0,0,0,.05.64,1.17,1.17,0,0,0,1.26.73,1.44,1.44,0,0,0,1.1-1C526.6,779.83,525.7,778.46,524.59,779.16Z"/><path class="cls-2" d="M536.79,779.16a1.67,1.67,0,0,0-.69,1.28,1.39,1.39,0,0,0,0,.64,1.16,1.16,0,0,0,1.25.73,1.42,1.42,0,0,0,1.1-1C538.79,779.83,537.9,778.46,536.79,779.16Z"/><path class="cls-2" d="M457.92,343.82c.5-1.23,1.1-2.42,1.7-3.6l9.92-19.6,2-.38h21.85c3.43,8.24,6.19,15,9.94,23.11"/><path class="cls-2" d="M500.29,343.3c-3.1-6.46-5.47-13.35-9-19.6-2.83,5.35-5.15,10.12-7.56,15.67"/><path class="cls-2" d="M480.81,340.58c-2.89-5.89-5-10.16-7.62-16.19l-.63-1.52H489c-2.68,6-5.79,12-8.21,18.06"/><path class="cls-2" d="M477.26,339.66a110.49,110.49,0,0,1-7.66-14.72c-2.6,5.75-5.59,11.95-8.44,17.59h14.68"/><path class="cls-2" d="M488.61,320.44a6.2,6.2,0,0,1,0-1.22v-4.4a71.28,71.28,0,0,1,7.31.16,10.31,10.31,0,0,1,4.56,1.29,6.67,6.67,0,0,1,2.5,7.43,8.5,8.5,0,0,1-6,5.43"/><path class="cls-2" d="M491.74,320.28a24.53,24.53,0,0,0-.08-3.09,25.53,25.53,0,0,1,4.19.14c1.62.11,3.4.38,4.46,1.61a4.47,4.47,0,0,1,.89,3.93c-.27,1.32-1.83,3.24-4.82,3.74"/><path class="cls-2" d="M466.61,317.36c.77,1.61,1.53,3.22,2.3,4.82"/><path class="cls-2" d="M470.42,317.39c.08,1,.15,2.05.23,3.08,0,.1.14.22.16.12"/><path class="cls-2" d="M475.68,343.83a5.27,5.27,0,1,1,10.53,0"/><path class="cls-2" d="M450.44,343.83a9.85,9.85,0,1,1,19.7,0"/><path class="cls-2" d="M492.42,343.83a9.85,9.85,0,0,1,19.7,0"/><path class="cls-2" d="M447.83,343.83a12.46,12.46,0,1,1,24.91,0"/><path class="cls-2" d="M489.81,343.83a12.46,12.46,0,1,1,24.91,0"/><path class="cls-2" d="M472,316.89a10,10,0,0,0,1.73-1.25c.36-.3.76-.76.54-1.18s-.62-.38-1-.39l-3.14,0a6.79,6.79,0,0,0-1.56.1,3.56,3.56,0,0,0-2.41,1.86,1.21,1.21,0,0,0-.16.67C466.26,318.29,471.12,317.36,472,316.89Z"/><path class="cls-2" d="M440.09,563.71c-3.39-2.76-4.48-5.6-4-10,28.6-1,57.58-.16,86.2-.55,0,4.52-1.77,7.67-5.47,10.26-.21,0-2.92.21-3.13.21Z"/><path class="cls-2" d="M440,553.62V486.37h78.58v66.83"/><line class="cls-2" x1="448.48" y1="486.38" x2="448.48" y2="553.21"/><line class="cls-2" x1="478.21" y1="486.38" x2="478.21" y2="553.21"/><line class="cls-2" x1="510.64" y1="486.38" x2="510.64" y2="553.21"/><line class="cls-2" x1="439.96" y1="503.17" x2="518.54" y2="503.17"/><line class="cls-2" x1="439.96" y1="529.15" x2="518.97" y2="529.15"/><path class="cls-2" d="M284.56,194.55q.19,252.24,0,504.86"/><polygon class="cls-2" points="102.07 194.03 292.5 194.56 292.5 184.7 102.07 183.77 102.07 194.03"/><path class="cls-2" d="M213.5,235.12l-1.78,87.79a11.06,11.06,0,0,1,2.23,0l41.91.3v-87.7Z"/><path class="cls-2" d="M141,235.12l-1.78,87.79a11.07,11.07,0,0,1,2.23,0l41.91.3v-87.7Z"/><path class="cls-2" d="M213.5,350.29l-1.78,87.79a11.06,11.06,0,0,1,2.23,0l41.91.3V350.73Z"/><path class="cls-2" d="M141,350.29l-1.78,87.79a11.07,11.07,0,0,1,2.23,0l41.91.3V350.73Z"/><path class="cls-2" d="M141,465.46l-1.78,87.79a11.07,11.07,0,0,1,2.23,0l41.91.3V465.9Z"/><path class="cls-2" d="M141,580.63l-1.78,87.79a11.07,11.07,0,0,1,2.23,0l41.91.3V581.07Z"/><path class="cls-2" d="M159.69,580.88v.79l-.25.21v86.78"/><path class="cls-2" d="M164,581.13v87.53"/><line class="cls-2" x1="163.96" y1="606.96" x2="182.52" y2="606.96"/><line class="cls-2" x1="140.12" y1="606.96" x2="159.38" y2="606.96"/><line class="cls-2" x1="163.96" y1="611.47" x2="183.28" y2="611.47"/><path class="cls-2" d="M140.12,611.19l2.51.28h16.88"/><path class="cls-2" d="M159.69,465.64v.79l-.25.21v86.77"/><path class="cls-2" d="M164,465.89v87.52"/><line class="cls-2" x1="163.96" y1="491.72" x2="183.37" y2="491.72"/><line class="cls-2" x1="140.12" y1="491.72" x2="159.38" y2="491.72"/><line class="cls-2" x1="163.96" y1="496.23" x2="183.28" y2="496.23"/><path class="cls-2" d="M140.12,496l2.51.28h16.88"/><path class="cls-2" d="M213.4,465.46l-1.78,87.79a11.07,11.07,0,0,1,2.23,0l41.91.3V465.9Z"/><path class="cls-2" d="M233.25,465.64v.79l-.25.21v86.77"/><path class="cls-2" d="M237.51,465.89v87.52"/><line class="cls-2" x1="237.51" y1="491.72" x2="255.76" y2="491.72"/><line class="cls-2" x1="212.87" y1="491.72" x2="232.94" y2="491.72"/><line class="cls-2" x1="237.51" y1="496.23" x2="255.76" y2="496.23"/><line class="cls-2" x1="212.77" y1="496.23" x2="233.06" y2="496.23"/><path class="cls-2" d="M213.4,580.83l-1.78,87.79a11.07,11.07,0,0,1,2.23,0l41.91.3V581.27Z"/><path class="cls-2" d="M233.25,581v.79L233,582v86.78"/><path class="cls-2" d="M237.51,581.26v87.53"/><line class="cls-2" x1="237.51" y1="607.09" x2="255.76" y2="607.09"/><line class="cls-2" x1="212.87" y1="607.09" x2="232.94" y2="607.09"/><line class="cls-2" x1="237.51" y1="611.6" x2="255.76" y2="611.6"/><line class="cls-2" x1="212.77" y1="611.6" x2="233.06" y2="611.6"/><path class="cls-2" d="M159.69,350.47v.79l-.25.21v86.77"/><path class="cls-2" d="M164,350.72v87.52"/><line class="cls-2" x1="163.96" y1="376.54" x2="182.52" y2="376.54"/><line class="cls-2" x1="140.12" y1="376.54" x2="159.38" y2="376.54"/><line class="cls-2" x1="163.96" y1="381.06" x2="183.28" y2="381.06"/><path class="cls-2" d="M140.12,380.77l2.51.29h16.88"/><line class="cls-2" x1="233.1" y1="350.49" x2="233.1" y2="438.24"/><path class="cls-2" d="M237.61,350.72v87.52"/><line class="cls-2" x1="237.61" y1="376.54" x2="255.86" y2="376.54"/><line class="cls-2" x1="212.97" y1="376.54" x2="233.04" y2="376.54"/><line class="cls-2" x1="237.61" y1="381.06" x2="255.86" y2="381.06"/><line class="cls-2" x1="212.97" y1="380.92" x2="233.1" y2="380.92"/><path class="cls-2" d="M159.69,235.29v.8l-.25.21v86.77"/><path class="cls-2" d="M164,235.55v87.52"/><line class="cls-2" x1="163.96" y1="271.37" x2="182.52" y2="271.37"/><line class="cls-2" x1="140.12" y1="271.37" x2="159.38" y2="271.37"/><line class="cls-2" x1="163.96" y1="275.89" x2="183.28" y2="275.89"/><path class="cls-2" d="M140.12,275.6l2.51.29h16.88"/><path class="cls-2" d="M233.35,235.29v.8l-.25.21v86.77"/><path class="cls-2" d="M237.61,235.55v87.52"/><line class="cls-2" x1="237.61" y1="271.37" x2="256.17" y2="271.37"/><line class="cls-2" x1="213.78" y1="271.37" x2="233.04" y2="271.37"/><line class="cls-2" x1="237.61" y1="275.89" x2="256.94" y2="275.89"/><path class="cls-2" d="M213.78,275.6l2.5.29h16.88"/><path class="cls-2" d="M117.69,700.26c1.22-168.17-2.39-337.55-5.39-505.71"/><path class="cls-2" d="M189.3,805.82V743"/><path class="cls-2" d="M168.5,743h43.29"/><path class="cls-2" d="M113.82,708.8h49.84l125.43-.3v-8.65H113.82Z"/><path class="cls-2" d="M286.11,709a9.51,9.51,0,0,0-.22,3.64v92.86l-.09.86H115.58c.65-34.63,1.23-67,1.75-97.59"/><path class="cls-2" d="M285.3,740.09H212"/><line class="cls-2" x1="212.24" y1="747.09" x2="285.57" y2="747.09"/><path class="cls-2" d="M168.5,740.09H117"/><path class="cls-2" d="M116.71,747.09h51.47"/><path class="cls-2" d="M159.11,541a9.26,9.26,0,0,0-2.23,12.4"/><path class="cls-2" d="M158.56,541.63a27.34,27.34,0,0,0-1.62-11.37c-.53-1.44-1.4-3-2.92-3.3a1.11,1.11,0,0,0-.72.08,1.29,1.29,0,0,0-.47.56"/><path class="cls-2" d="M154.8,529.82a4.15,4.15,0,0,1,1,1.81,46.59,46.59,0,0,1,2.22,10"/><path class="cls-2" d="M257.84,311.51a24.75,24.75,0,0,0-4.95,3,36.09,36.09,0,0,0-5.31,5.29c1.82-5.67,5.16-10.73,8.47-15.69-.91,1.36-3.08,2.46-4.22,3.76a24.33,24.33,0,0,0-3.29,4.76c-.22.42-.64,1.3-1.1,2.38,0-1.59,0-3-.09-3.57a24.92,24.92,0,0,0-1.21-5.67c-.56-1.63-2.14-3.48-2.46-5.09,1.13,5.76,2.25,11.6,1.82,17.44a39.16,39.16,0,0,0-2.26-5.49,24.33,24.33,0,0,0-3.29-4.76c-1.14-1.3-3.31-2.4-4.22-3.76,3.34,5,6.71,10.09,8.52,15.83.33,1,.54,2.58,1.31,3.31a.33.33,0,0,1,.66,0c.05-.05.08-.12.13-.18a1,1,0,0,0,.08.18c1-.35,1.83-1.68,2.55-2.49,4-4.49,9.16-7.75,14.25-10.95C261.84,310.68,259.41,310.8,257.84,311.51Z"/><path class="cls-2" d="M226.41,380.85c-3,7.11-8.07,15-13.79,20.17"/><path class="cls-2" d="M232.9,356.09a199.22,199.22,0,0,1-5.13,20.17"/><path class="cls-2" d="M242.08,381.17c.38,1.3.77,2.6,1.2,3.89,2.47,7.59,5.82,15.4,12.58,19.67"/><path class="cls-2" d="M237.51,356.85a127.45,127.45,0,0,0,3.24,19.41"/><path class="cls-2" d="M215.48,398.49a104.18,104.18,0,0,0,2.29,18.14c.82,3.38,2,6.72,2.19,10.2.23,3.78-.64,7.52-1.5,11.21"/><path class="cls-2" d="M251.48,401c1.21,6.61.07,14-1.56,20.53-1.47,5.84-4.16,10.91-3.35,16.87"/><path class="cls-2" d="M146,531a9.61,9.61,0,0,0-1.27,5.74c.15,1.47.64,2.89.67,4.36,0,1.29-.25,2.73.55,3.74a3.1,3.1,0,0,1,1.91-1.8c.83-.34,1.73-.52,2.54-.93,2.06-1,3.09-3.39,3.74-5.6.77-2.59,1.26-6.61-1.38-8.44C150.35,526.36,147.17,529,146,531Z"/><path class="cls-2" d="M148.79,537.7a19.82,19.82,0,0,1,3.38-8.58"/><path class="cls-2" d="M164.15,540.61a24.28,24.28,0,0,1,1.32-6.55,13.63,13.63,0,0,1,3.65-5.54"/><path class="cls-2" d="M164.2,533.08a11.17,11.17,0,0,1,3.94-6.15,5.74,5.74,0,0,1,3.09-3.46,4.87,4.87,0,0,1,4.23.15c2,1.09,3,3.45,3.26,5.72s0,4.56.28,6.82a37.6,37.6,0,0,0,1.29,5.43c.13.47,0,1.24-.5,1-.4-1.23-.81-2.45-1.22-3.67a2.8,2.8,0,0,0-.68-1.27,3.4,3.4,0,0,0-1.4-.57,8.28,8.28,0,0,1-5.66-5.44c-.4-1.27-.52-2.71-1.44-3.67-.48-.51-1.19-.93-1.22-1.63"/><path class="cls-2" d="M172.89,527.71a4.28,4.28,0,0,1,2.05,2,16.45,16.45,0,0,1,.72,2.29,8.82,8.82,0,0,0,1.36,2.66"/><path class="cls-2" d="M211.72,806.4H168.5s.73-20.15,0-35.92,0-30.44,0-30.44c0-11.93,3.3-21.1,21.61-21.6s21.61,9.76,21.61,21.6c0,0,.78,28.44,0,40.72A244.88,244.88,0,0,0,211.72,806.4Z"/><path class="cls-2" d="M207.13,743.43c-.13-6.32.34-14-5.43-18.15-7-5-22.1-4-26.56,4.1-2.28,4.16-2,9.27-2.09,13.86"/><polygon class="cls-2" points="184.4 778.21 186.5 776.46 187.32 777.33 186.38 779.72 184.4 778.21"/><polygon class="cls-2" points="194.2 778.21 192.1 776.46 191.28 777.33 192.22 779.72 194.2 778.21"/><path class="cls-2" d="M284.56,288.23c7.37,6.62,26.94,14.08,36.64,16.1,26.9,5.59,43.24,12.5,70.68,10.85,7.53-.45,18.27-2.57,21.65-4.48"/><path class="cls-2" d="M380.71,336.12c.51-6.36.71-12.49.63-18.87,6.15-1.29,8.59-.15,10.86-.21s5.75-.72,6.64-.47a169.1,169.1,0,0,0,2,19.18,6.18,6.18,0,0,0-4.34,3.41,18.72,18.72,0,0,0-.42,5.34"/><path class="cls-2" d="M380.71,336.12c.71.15,3.55-.09,4.16,2.69a23.62,23.62,0,0,1,.74,5.31c1,0,1.74-.06,2.75,0"/><path class="cls-2" d="M396,344.5a8,8,0,0,0-2.31.55c-.55-2.57-1.13-5.22-1.68-7.79a15.59,15.59,0,0,0-.65-2.34,2.19,2.19,0,0,0-.55-.87.94.94,0,0,0-1-.2,1.3,1.3,0,0,0-.57.67,11.48,11.48,0,0,0-.89,4.82,39.6,39.6,0,0,1-.06,4.75"/><path class="cls-2" d="M352.73,337c.26-.7-.34-1.65-2.32-2.61s-4.5-.75-4.83,0"/><path class="cls-2" d="M351.39,349.37a39.5,39.5,0,0,0,7,.62c.8-12.05,1.49-23.87,4-35.83-7.48.87-11.72-2.15-18.78-3.1a229,229,0,0,0-5.29,36.72,20,20,0,0,0,3.73,3.16,69.91,69.91,0,0,1,3.57-16.45c1.62,2.78,5.18,4.06,7,2.52-1.08,3.23-1.89,9.16-1.27,11A5.44,5.44,0,0,1,351.39,349.37Z"/><path class="cls-1" d="M345.86,309.25c0-.11,0-.25.07-.31a.18.18,0,0,1,.14,0l.95.07a.23.23,0,0,1,.15.07.37.37,0,0,1,0,.21c-.08.76-.19,1.52-.32,2.27-.09.5-.12,1.38-.63,1S345.89,310,345.86,309.25Z"/><path class="cls-1" d="M357.89,311.57a.5.5,0,0,1,.08-.39.27.27,0,0,1,.19-.06l.87-.06a.42.42,0,0,1,.27.05c.18.12.18.44.16.69a15.71,15.71,0,0,1-.58,3.07c-.26.89-.69.15-.77-.35C358,313.57,358,312.54,357.89,311.57Z"/><path class="cls-1" d="M384.29,315.08c0-.27,0-.64.16-.71a.24.24,0,0,1,.23,0,6.2,6.2,0,0,1,.69.44.56.56,0,0,1,.18.22.92.92,0,0,1,0,.29,6.13,6.13,0,0,1-.17,1.42,1.22,1.22,0,0,1-.38.74C384.33,318,384.36,315.66,384.29,315.08Z"/><path class="cls-1" d="M395.19,314.27a.24.24,0,0,1,.14.11.79.79,0,0,1,0,.23c.05.92-.11,4.11-.9,2.36C393.84,315.58,394,313.9,395.19,314.27Z"/><path class="cls-1" d="M309.79,301.19a1.29,1.29,0,0,1,0-.19.18.18,0,0,1,.19-.1.83.83,0,0,1,.91.69,2.64,2.64,0,0,1,0,.63c-.06.71-.39,3-1,2.44C309.45,304.23,309.72,302,309.79,301.19Z"/><path class="cls-2" d="M314.55,321.18a18.23,18.23,0,0,1,2.5-4.35c1.17-1.16,3.87-1.51,5.84-1.26a15.17,15.17,0,0,0,1.94-8.46c-5.36-.47-12.54-2.35-18.84-4.53a13.2,13.2,0,0,0-1.14,6.74c.28.41,3.49,1.84,4.36,3.88s-.07,4.73-.3,6.25c1.43.29,4.2,1.5,5.64,1.73"/><path class="cls-1" d="M320.23,303.66a.53.53,0,0,1,0-.19.17.17,0,0,1,.19-.1.82.82,0,0,1,.91.68,3.39,3.39,0,0,1,0,.64c-.06.7-.39,3-1,2.44C319.89,306.7,320.16,304.47,320.23,303.66Z"/><path class="cls-2" d="M343.9,311.28a10.5,10.5,0,0,0,3.87,4.49c2.56,1.41,5.92,0,8,0s2.74.7,4.42.7,2.15-2.31,2.15-2.31"/><path class="cls-2" d="M381.34,317.25s.26,1.35,7.15,1.59,10.35-2.27,10.35-2.27"/><path class="cls-3" d="M692.58,818.89c-14.08-9.8-50.21-9-50.21-9s-28.57-33.53-72.55-28.81c-21.21,2.28-39.91,11.11-59.26,22.83s-28.56,18.94-29.9,21.54-1.46,22.34-.79,23.24,14.58.38,15.37-.13,3.43-21.19,20.37-20.83,21.71,9.24,22.57,21H639.76a22.63,22.63,0,0,1,45.14,0h19.52S706.65,828.69,692.58,818.89Z"/><path class="cls-3" d="M570.7,809.29c.78-.81,0-23,0-23-20.14,3.34-40.15,13.38-55.6,23C515.1,809.29,569.92,810.09,570.7,809.29Z"/><path class="cls-3" d="M577.89,784.89s-.58,24.4,0,25,54.15,0,54.15,0C624.16,802.44,604.8,787,577.89,784.89Z"/><path class="cls-3" d="M594,818.44c-.19.39-15.27,0-15.27,0s-.5-2.07,0-2.8,14.87-.39,15.27,0S594.16,818.05,594,818.44Z"/><path class="cls-3" d="M479.5,838.86s-3.6-1.81-3.26-5,3.65-4,3.65-4,.68.25.68,4.13S479.5,838.86,479.5,838.86Z"/><path class="cls-3" d="M499,848.34c0-3.7.86-16.71,17.57-16.4s17.82,13.64,17.83,17.47.77,17.3-17.7,17.66S499,852.05,499,848.34Z"/><path class="cls-3" d="M506.93,848.87c0-2,.48-9.21,9.68-9s9.81,7.51,9.82,9.62.42,9.53-9.75,9.73S506.93,850.91,506.93,848.87Z"/><path class="cls-3" d="M536.54,809.29l-2.74-5c-.57-1.07-.57-3.64,2.74-4.54S542,802.8,542,802.8l4.29,6.49"/><path class="cls-3" d="M587.88,809.91l-2.73-5c-.58-1.06-.58-3.64,2.73-4.54s5.5,3.06,5.5,3.06l4.28,6.49"/><path class="cls-4" d="M695.57,825.34a24,24,0,0,1,4.87-1.41c2.41-.52,7,12,5.07,13.34a15.59,15.59,0,0,1-4.49,1.6C695.86,840.15,691,827.66,695.57,825.34Z"/><path class="cls-3" d="M644.69,848.34c0-3.7.86-16.71,17.56-16.4s17.83,13.64,17.84,17.47.77,17.3-17.7,17.66S644.7,852.05,644.69,848.34Z"/><path class="cls-3" d="M652.64,848.87c0-2,.48-9.21,9.67-9s9.82,7.51,9.83,9.62.42,9.53-9.75,9.73S652.64,850.91,652.64,848.87Z"/><path class="cls-3" d="M496.48,843.64l-17,.14h16.95A.57.57,0,0,0,496.48,843.64Z"/><path class="cls-3" d="M537.5,843.41a2.38,2.38,0,0,1,.06.37H592C585.42,843.36,561.57,843.32,537.5,843.41Z"/><path class="cls-3" d="M684.06,844c12.1-.09,20.45-.18,20.45-.18H684.08C684.07,843.84,684.07,843.9,684.06,844Z"/><path class="cls-3" d="M640.62,843.78H592c6,.4,26.64.46,48.56.4A1.83,1.83,0,0,1,640.62,843.78Z"/><path class="cls-3" d="M420.89,593.38s-7.34-.37-19.67,0-26.37,0-26.37,0a2,2,0,0,1-2-2s-.35-11.55,0-19.18,0-13.55,0-13.55a1.91,1.91,0,0,1,2-2c.67,0,11.28-.67,25.33,0s20.71,0,20.71,0a2,2,0,0,1,2,2,67.81,67.81,0,0,1,0,11.17c-.49,6.43,0,21.56,0,21.56A2,2,0,0,1,420.89,593.38Z"/><circle class="cls-3" cx="389.31" cy="574.63" r="15.17"/><circle class="cls-3" cx="389.31" cy="574.63" r="13.3"/><path class="cls-2" d="M418.72,574.42s-1.58,0-4.23,0-5.67,0-5.67,0c-.24,0-.43,0-.43-.1a3.66,3.66,0,0,1,0-1,1.88,1.88,0,0,0,0-.69s.16-.1.43-.1,2.43,0,5.45,0,4.45,0,4.45,0c.24,0,.44.05.44.1a.91.91,0,0,1,0,.57,3.5,3.5,0,0,0,0,1.1S419,574.42,418.72,574.42Z"/><path class="cls-2" d="M418.72,579.23s-1.58,0-4.23,0-5.67,0-5.67,0c-.24,0-.43-.05-.43-.1a3.66,3.66,0,0,1,0-1,1.88,1.88,0,0,0,0-.69c0-.05.16-.1.43-.1s2.43,0,5.45,0,4.45,0,4.45,0c.24,0,.44,0,.44.1a.92.92,0,0,1,0,.57,3.5,3.5,0,0,0,0,1.1S419,579.23,418.72,579.23Z"/><path class="cls-2" d="M418.72,584s-1.58,0-4.23,0-5.67,0-5.67,0c-.24,0-.43,0-.43-.1a3.66,3.66,0,0,1,0-1,1.88,1.88,0,0,0,0-.69s.16-.1.43-.1,2.43,0,5.45,0,4.45,0,4.45,0c.24,0,.44.05.44.1a.92.92,0,0,1,0,.57,3.5,3.5,0,0,0,0,1.1S419,584,418.72,584Z"/><circle class="cls-3" cx="417.46" cy="567.83" r="1.74"/><circle class="cls-3" cx="411.22" cy="567.83" r="2.87"/><path class="cls-3" d="M315.12,465.65s-7.34-.37-19.67,0-26.37,0-26.37,0a2,2,0,0,1-2-2s-.35-11.54,0-19.18,0-13.55,0-13.55a1.91,1.91,0,0,1,2-2c.67,0,11.28-.66,25.33,0s20.71,0,20.71,0a2,2,0,0,1,2,2,68,68,0,0,1,0,11.18c-.49,6.43,0,21.55,0,21.55A2,2,0,0,1,315.12,465.65Z"/><circle class="cls-3" cx="283.54" cy="446.9" r="15.17"/><circle class="cls-3" cx="283.54" cy="446.9" r="13.3"/><path class="cls-2" d="M313,446.68h-4.23c-2.65,0-5.67,0-5.67,0-.24,0-.43,0-.43-.1a3.58,3.58,0,0,1,0-1,1.88,1.88,0,0,0,0-.69c0-.06.16-.1.43-.1s2.43,0,5.45,0,4.45,0,4.45,0c.24,0,.44,0,.44.1a.91.91,0,0,1,0,.57,3.45,3.45,0,0,0,0,1.09C313.39,446.64,313.19,446.68,313,446.68Z"/><path class="cls-2" d="M313,451.5s-1.58,0-4.23,0h-5.67c-.24,0-.43-.05-.43-.11a3.58,3.58,0,0,1,0-1,1.88,1.88,0,0,0,0-.69c0-.06.16-.1.43-.1s2.43,0,5.45,0,4.45,0,4.45,0c.24,0,.44,0,.44.1a.91.91,0,0,1,0,.57,3.45,3.45,0,0,0,0,1.09C313.39,451.45,313.19,451.5,313,451.5Z"/><path class="cls-2" d="M313,456.31s-1.58,0-4.23,0h-5.67c-.24,0-.43-.05-.43-.11a3.58,3.58,0,0,1,0-1,1.88,1.88,0,0,0,0-.69c0-.06.16-.1.43-.1s2.43,0,5.45,0,4.45,0,4.45,0c.24,0,.44,0,.44.1a.91.91,0,0,1,0,.57,3.45,3.45,0,0,0,0,1.09C313.39,456.26,313.19,456.31,313,456.31Z"/><circle class="cls-3" cx="311.69" cy="440.09" r="1.74"/><circle class="cls-3" cx="305.45" cy="440.09" r="2.87"/><path class="cls-3" d="M129.16,244.91s-7.34-.37-19.67,0-26.37,0-26.37,0a2,2,0,0,1-2-2s-.35-11.55,0-19.19,0-13.54,0-13.54a1.91,1.91,0,0,1,2-2c.67,0,11.28-.66,25.33,0s20.71,0,20.71,0a2,2,0,0,1,2,2,67.81,67.81,0,0,1,0,11.17c-.49,6.43,0,21.56,0,21.56A2,2,0,0,1,129.16,244.91Z"/><circle class="cls-3" cx="97.58" cy="226.16" r="15.17"/><circle class="cls-3" cx="97.58" cy="226.16" r="13.3"/><path class="cls-2" d="M127,226s-1.58,0-4.23,0-5.67,0-5.67,0c-.24,0-.43,0-.43-.11a3.58,3.58,0,0,1,0-1,1.88,1.88,0,0,0,0-.69c0-.06.15-.1.43-.1s2.43,0,5.45,0,4.45,0,4.45,0c.24,0,.43,0,.43.1a.83.83,0,0,1,0,.57,3.79,3.79,0,0,0,0,1.09C127.42,225.9,127.23,226,127,226Z"/><path class="cls-2" d="M127,230.76s-1.58,0-4.23,0-5.67,0-5.67,0c-.24,0-.43,0-.43-.11a3.58,3.58,0,0,1,0-1,1.88,1.88,0,0,0,0-.69c0-.06.15-.1.43-.1s2.43,0,5.45,0,4.45,0,4.45,0c.24,0,.43,0,.43.1a.83.83,0,0,1,0,.57,3.78,3.78,0,0,0,0,1.09C127.42,230.71,127.23,230.76,127,230.76Z"/><path class="cls-2" d="M127,235.57s-1.58,0-4.23,0-5.67,0-5.67,0c-.24,0-.43,0-.43-.11a3.58,3.58,0,0,1,0-1,1.88,1.88,0,0,0,0-.69c0-.06.15-.1.43-.1s2.43,0,5.45,0,4.45,0,4.45,0c.24,0,.43,0,.43.1a.83.83,0,0,1,0,.57,3.78,3.78,0,0,0,0,1.09C127.42,235.52,127.23,235.57,127,235.57Z"/><circle class="cls-3" cx="125.73" cy="219.35" r="1.74"/><circle class="cls-3" cx="119.49" cy="219.35" r="2.87"/><path class="cls-3" d="M691.84,302.19s-7.34-.37-19.67,0-26.37,0-26.37,0a2,2,0,0,1-2-2s-.35-11.55,0-19.18,0-13.55,0-13.55a1.91,1.91,0,0,1,2-2c.67,0,11.28-.67,25.32,0s20.72,0,20.72,0a2,2,0,0,1,2,2,67.81,67.81,0,0,1,0,11.17c-.49,6.43,0,21.56,0,21.56A2,2,0,0,1,691.84,302.19Z"/><circle class="cls-3" cx="660.26" cy="283.44" r="15.17"/><circle class="cls-3" cx="660.26" cy="283.44" r="13.3"/><path class="cls-2" d="M689.67,283.23s-1.58,0-4.23,0-5.67,0-5.67,0c-.24,0-.43-.05-.43-.1a3.66,3.66,0,0,1,0-1,1.88,1.88,0,0,0,0-.69s.15-.1.43-.1,2.43,0,5.45,0,4.45,0,4.45,0c.24,0,.43.05.43.1a.83.83,0,0,1,0,.57,3.85,3.85,0,0,0,0,1.1C690.1,283.18,689.91,283.23,689.67,283.23Z"/><path class="cls-2" d="M689.67,288s-1.58,0-4.23,0-5.67,0-5.67,0c-.24,0-.43-.05-.43-.1a3.66,3.66,0,0,1,0-1,1.88,1.88,0,0,0,0-.69s.15-.1.43-.1,2.43,0,5.45,0,4.45,0,4.45,0c.24,0,.43.05.43.1a.83.83,0,0,1,0,.57,3.85,3.85,0,0,0,0,1.1C690.1,288,689.91,288,689.67,288Z"/><path class="cls-2" d="M689.67,292.85s-1.58,0-4.23,0-5.67,0-5.67,0c-.24,0-.43-.05-.43-.1a3.66,3.66,0,0,1,0-1,1.88,1.88,0,0,0,0-.69c0-.05.15-.1.43-.1s2.43,0,5.45,0,4.45,0,4.45,0c.24,0,.43,0,.43.1a.83.83,0,0,1,0,.57,3.85,3.85,0,0,0,0,1.1C690.1,292.8,689.91,292.85,689.67,292.85Z"/><circle class="cls-3" cx="688.41" cy="276.63" r="1.74"/><circle class="cls-3" cx="682.17" cy="276.63" r="2.87"/><polyline class="cls-2" points="668.46 302.35 650.51 323.19 650.56 320.02 665.88 302.35 668.46 302.35"/><polyline class="cls-2" points="95.64 245.07 113.6 265.91 113.54 262.73 98.22 245.07 95.64 245.07"/><polyline class="cls-2" points="302.69 465.46 284.74 486.3 284.8 483.12 300.11 465.46 302.69 465.46"/><polyline class="cls-2" points="392.55 594.01 410.51 614.84 410.45 611.67 395.13 594.01 392.55 594.01"/><path class="cls-5" d="M101.35,791.44H71a.38.38,0,0,1-.37-.45l.53-2.68-.53-2.94a.39.39,0,0,1,.08-.31.38.38,0,0,1,.29-.13h75.8a.34.34,0,0,1,.28.13.35.35,0,0,1,.1.29l-.29,2.22.61,4.31a.36.36,0,0,1-.09.3.37.37,0,0,1-.28.13Z"/><path class="cls-1" d="M146.81,785.3h0m0,0-.29,2.27.62,4.36-45.78-.87H71l.54-2.74-.54-3h75.8m0-.75H71a.75.75,0,0,0-.58.27.77.77,0,0,0-.16.62l.52,2.87-.52,2.61a.75.75,0,0,0,.74.89h30.35l45.77.87h0a.73.73,0,0,0,.56-.25.73.73,0,0,0,.18-.6l-.6-4.26.27-2.11a.78.78,0,0,0,0-.16.76.76,0,0,0-.75-.75Zm0,1.5h0Z"/><path class="cls-5" d="M71,809.46a.38.38,0,0,1-.37-.44l.53-2.95-.53-2.67a.35.35,0,0,1,.08-.31A.36.36,0,0,1,71,803h30.35l45.78-.87a.34.34,0,0,1,.28.13.36.36,0,0,1,.09.3l-.61,4.31.29,2.22a.36.36,0,0,1-.1.29.37.37,0,0,1-.28.13Z"/><path class="cls-1" d="M147.14,802.45l-.62,4.37.29,2.26H71l.54-3L71,803.33h30.35l45.78-.88m0-.75h0l-45.78.88H71a.75.75,0,0,0-.58.27.73.73,0,0,0-.16.62l.52,2.61L70.27,809a.74.74,0,0,0,.16.61.72.72,0,0,0,.58.27h75.8a.77.77,0,0,0,.57-.25.79.79,0,0,0,.18-.59l-.28-2.17.6-4.26a.73.73,0,0,0-.18-.6.71.71,0,0,0-.56-.26Zm0,1.5h0Z"/><path class="cls-5" d="M71.33,797.56a.38.38,0,0,1-.37-.42l.29-2.22-.61-4.31a.33.33,0,0,1,.09-.3.34.34,0,0,1,.28-.13l45.78.87h30.35a.37.37,0,0,1,.29.14.39.39,0,0,1,.08.31l-.53,2.68.53,2.94a.39.39,0,0,1-.08.31.39.39,0,0,1-.29.13Z"/><path class="cls-1" d="M71,790.55l45.78.88h30.35l-.54,2.74.54,3H71.33l.3-2.27L71,790.55m76.13.88h0M71,789.8a.78.78,0,0,0-.57.26.76.76,0,0,0-.18.6l.61,4.26-.28,2.17a.75.75,0,0,0,.18.59.76.76,0,0,0,.56.26h75.81a.78.78,0,0,0,.58-.27.77.77,0,0,0,.16-.62l-.52-2.87.5-2.55a.64.64,0,0,0,0-.2.74.74,0,0,0-.74-.75H116.79L71,789.8Z"/><path class="cls-5" d="M71.33,803.36a.38.38,0,0,1-.37-.42l.29-2.22-.61-4.31a.33.33,0,0,1,.09-.3A.37.37,0,0,1,71,796l45.78.87h30.35a.37.37,0,0,1,.29.14.39.39,0,0,1,.08.31L147,800l.53,2.94a.39.39,0,0,1-.08.31.39.39,0,0,1-.29.13Z"/><path class="cls-1" d="M71,796.36l45.78.87h30.35L146.6,800l.54,3H71.33l.3-2.27L71,796.36m76.13.87h0M71,795.61a.77.77,0,0,0-.57.25.76.76,0,0,0-.18.6l.61,4.26-.28,2.17a.75.75,0,0,0,.18.59.76.76,0,0,0,.56.26h75.81a.78.78,0,0,0,.58-.27.77.77,0,0,0,.16-.62l-.52-2.87.5-2.55a.64.64,0,0,0,0-.2.74.74,0,0,0-.74-.75H116.79L71,795.61Z"/><path class="cls-5" d="M266.54,791.44H236.19a.38.38,0,0,1-.29-.14.35.35,0,0,1-.07-.31l.53-2.68-.54-2.94a.39.39,0,0,1,.09-.31.37.37,0,0,1,.28-.13H312a.38.38,0,0,1,.37.42l-.28,2.22.61,4.31a.36.36,0,0,1-.09.3.37.37,0,0,1-.28.13Z"/><path class="cls-1" d="M312,785.3h0m0,0-.29,2.27.62,4.36-45.78-.87H236.19l.55-2.74-.55-3H312m0-.75H236.19a.74.74,0,0,0-.57.27.77.77,0,0,0-.16.62l.52,2.87-.52,2.61a.74.74,0,0,0,.15.62.78.78,0,0,0,.58.27h30.36l45.76.87h0a.75.75,0,0,0,.56-.25.73.73,0,0,0,.18-.6l-.61-4.26.28-2.11a.81.81,0,0,0,0-.16.75.75,0,0,0-.74-.75Zm0,1.5h0Z"/><path class="cls-5" d="M236.19,809.46a.35.35,0,0,1-.28-.14.36.36,0,0,1-.09-.3l.54-2.95-.53-2.67a.34.34,0,0,1,.07-.31.38.38,0,0,1,.29-.14h30.36l45.78-.87a.34.34,0,0,1,.28.13.36.36,0,0,1,.09.3l-.61,4.31.28,2.22a.35.35,0,0,1-.09.29.37.37,0,0,1-.28.13Z"/><path class="cls-1" d="M312.33,802.45l-.62,4.37.29,2.26H236.19l.55-3-.55-2.74h30.36l45.78-.88m0-.75h0l-45.78.88H236.19a.78.78,0,0,0-.58.27.73.73,0,0,0-.15.62l.52,2.61-.52,2.87a.74.74,0,0,0,.16.61.71.71,0,0,0,.57.27H312a.73.73,0,0,0,.56-.25.71.71,0,0,0,.18-.59l-.28-2.17.61-4.26a.76.76,0,0,0-.74-.86Zm0,1.5Z"/><path class="cls-5" d="M236.52,797.56a.37.37,0,0,1-.28-.13.39.39,0,0,1-.09-.29l.29-2.22-.62-4.31a.4.4,0,0,1,.09-.3.35.35,0,0,1,.28-.13l45.79.87h30.35a.37.37,0,0,1,.29.14.39.39,0,0,1,.08.31l-.54,2.68.54,2.94a.39.39,0,0,1-.08.31.39.39,0,0,1-.29.13Z"/><path class="cls-1" d="M236.19,790.55l45.78.88h30.36l-.55,2.74.55,3H236.52l.3-2.27-.63-4.37m76.14.88h0m-76.14-1.63a.76.76,0,0,0-.74.86l.61,4.26-.28,2.17a.75.75,0,0,0,.18.59.76.76,0,0,0,.56.26h75.81a.76.76,0,0,0,.74-.89l-.52-2.87.5-2.55a.64.64,0,0,0,0-.2.74.74,0,0,0-.75-.75H282l-45.76-.88Z"/><path class="cls-5" d="M236.52,803.36a.37.37,0,0,1-.28-.13.39.39,0,0,1-.09-.29l.29-2.22-.62-4.31a.4.4,0,0,1,.09-.3.39.39,0,0,1,.28-.13l45.79.87h30.35a.37.37,0,0,1,.29.14.39.39,0,0,1,.08.31l-.54,2.68.54,2.94a.39.39,0,0,1-.08.31.39.39,0,0,1-.29.13Z"/><path class="cls-1" d="M236.19,796.36l45.78.87h30.36l-.55,2.74.55,3H236.52l.3-2.27-.63-4.36m76.14.87h0m-76.14-1.62a.75.75,0,0,0-.56.25.76.76,0,0,0-.18.6l.61,4.26-.28,2.17a.75.75,0,0,0,.18.59.76.76,0,0,0,.56.26h75.81a.76.76,0,0,0,.74-.89l-.52-2.87.5-2.55a.64.64,0,0,0,0-.2.74.74,0,0,0-.75-.75H282l-45.76-.87Z"/><path class="cls-6" d="M133.27,657.67c-.25.44,1.91,6.41,2.9,9.09A1.94,1.94,0,0,0,138,668h42.52a2,2,0,0,0,1.71-1c1.32-2.39,4.39-8.29,3.44-9.35-1.57-.49-11.52-.07-26.2.25S133.58,657.1,133.27,657.67Z"/><path class="cls-5" d="M617,239.91H597.08a.41.41,0,0,1-.29-.13.36.36,0,0,1-.08-.3l.35-2.31-.35-2.54a.36.36,0,0,1,.09-.3.37.37,0,0,1,.28-.13h49.67a.37.37,0,0,1,.28.13.38.38,0,0,1,.09.29l-.19,1.95.41,3.68a.4.4,0,0,1-.1.29.36.36,0,0,1-.28.12Z"/><path class="cls-1" d="M646.75,234.58h0m0,0-.19,1.95.4,3.76-30-.75H597.08l.36-2.37-.36-2.59h49.67m0-.75H597.08a.74.74,0,0,0-.74.85l.34,2.49-.34,2.25a.75.75,0,0,0,.17.6.74.74,0,0,0,.57.27H617l30,.75h0a.75.75,0,0,0,.75-.83l-.4-3.68.18-1.82a.53.53,0,0,0,0-.13.74.74,0,0,0-.75-.75Zm0,1.5Z"/><path class="cls-5" d="M597.08,255.42a.37.37,0,0,1-.28-.13.36.36,0,0,1-.09-.3l.35-2.54-.35-2.31a.38.38,0,0,1,.08-.3.41.41,0,0,1,.29-.13H617l30-.75a.4.4,0,0,1,.28.12.41.41,0,0,1,.1.3l-.41,3.75.19,1.88a.39.39,0,0,1-.09.29.4.4,0,0,1-.28.12Z"/><path class="cls-1" d="M647,249.34l-.4,3.75.19,1.95H597.08l.36-2.59-.36-2.36H617l30-.75m0-.75h0l-30,.75H597.08a.73.73,0,0,0-.57.26.76.76,0,0,0-.17.6l.34,2.26-.34,2.48a.73.73,0,0,0,.74.85h49.67a.76.76,0,0,0,.56-.24.77.77,0,0,0,.19-.58l-.19-1.87.4-3.68a.78.78,0,0,0-.19-.59.8.8,0,0,0-.56-.24Zm0,1.5h0Z"/><path class="cls-5" d="M597.29,245.18a.38.38,0,0,1-.37-.41l.19-2-.4-3.68a.36.36,0,0,1,.09-.3.4.4,0,0,1,.28-.12l30,.75H647a.39.39,0,0,1,.29.13.43.43,0,0,1,.09.3l-.35,2.31.35,2.54a.4.4,0,0,1-.09.3.39.39,0,0,1-.29.13Z"/><path class="cls-1" d="M597.08,239.1l30,.75H647l-.35,2.36.35,2.59H597.29l.2-2-.41-3.75m49.88.75h0m-49.89-1.5a.76.76,0,0,0-.75.83l.4,3.68-.18,1.87a.77.77,0,0,0,.19.58.72.72,0,0,0,.55.24H647a.76.76,0,0,0,.57-.25.77.77,0,0,0,.18-.6l-.34-2.48.33-2.2a.88.88,0,0,0,0-.17.75.75,0,0,0-.75-.75H627.08l-30-.75Z"/><path class="cls-5" d="M597.29,250.17a.36.36,0,0,1-.27-.12.38.38,0,0,1-.1-.29l.19-1.95-.4-3.68a.34.34,0,0,1,.09-.29.36.36,0,0,1,.28-.12l30,.75H647a.36.36,0,0,1,.29.13.4.4,0,0,1,.09.3l-.35,2.31.35,2.54a.39.39,0,0,1-.09.29.36.36,0,0,1-.29.13Z"/><path class="cls-1" d="M597.08,244.09l30,.75H647l-.35,2.36.35,2.6H597.29l.2-2-.41-3.75m49.88.75h0m-49.89-1.5a.76.76,0,0,0-.75.83l.4,3.68-.18,1.87a.77.77,0,0,0,.19.58.73.73,0,0,0,.55.25H647a.76.76,0,0,0,.75-.86l-.34-2.48.33-2.2a.88.88,0,0,0,0-.17.76.76,0,0,0-.75-.75H627.08l-30-.75Z"/><path class="cls-6" d="M187.33,312.71c.24.44-1.91,6.41-2.9,9.08a2,2,0,0,1-1.84,1.28H140.07a1.94,1.94,0,0,1-1.71-1c-1.31-2.39-4.38-8.29-3.43-9.35,1.56-.5,11.52-.07,26.2.25S187,312.14,187.33,312.71Z"/><path class="cls-6" d="M558.24,438.15c-.24.44,1.91,6.41,2.9,9.09a1.93,1.93,0,0,0,1.83,1.27h42.52a2,2,0,0,0,1.72-1c1.31-2.39,4.38-8.29,3.43-9.35-1.56-.5-11.52-.07-26.2.25S558.55,437.58,558.24,438.15Z"/><path class="cls-2" d="M223.2,607.28c1.57-7.41,4.36-18,4.27-26.08"/><path class="cls-2" d="M212.34,625.4c4.62.33,8.73-10.37,9.91-13.61"/><path class="cls-2" d="M216.18,623.55s-.68,6.66,2.24,18.2.36,27.06.36,27.06"/><path class="cls-2" d="M243.69,607.28c-2.37-8-3.13-18-4.75-26.08"/><path class="cls-2" d="M255.59,625.2c-4.9.35-9.51-9.88-10.94-13.41"/><path class="cls-2" d="M251.36,623.36s.75,6.71-2.47,18.34-.4,27.28-.4,27.28"/></svg>