<?xml version="1.0" encoding="utf-8"?>
<!-- Generator: Adobe Illustrator 24.3.0, SVG Export Plug-In . SVG Version: 6.00 Build 0)  -->
<svg version="1.1" id="FIXE" xmlns="http://www.w3.org/2000/svg" xmlns:xlink="http://www.w3.org/1999/xlink" x="0px" y="0px"
	 viewBox="0 0 756 1050" style="enable-background:new 0 0 756 1050;" xml:space="preserve">
<style type="text/css">
	.st0{fill:#FFFFFF;}
	.st1{fill:none;stroke:#FFFFFF;stroke-width:0.5;stroke-linecap:round;stroke-linejoin:round;}
	.st2{fill:#1D1D1B;stroke:#FFFFFF;stroke-width:0.5;stroke-linecap:round;stroke-linejoin:round;}
	.st3{fill:#1D1D1B;stroke:#FFFFFF;stroke-width:0.5;stroke-linecap:round;stroke-linejoin:bevel;}
	.st4{fill:#1D1D1B;}
	.st5{fill:#1D1D1B;stroke:#FFFFFF;stroke-width:0.5;stroke-linecap:round;stroke-miterlimit:10;}
	.st6{fill:#1D1D1B;stroke:#FFFFFF;stroke-width:0.75;stroke-miterlimit:10;}
</style>
<path class="st0" d="M764.2,879.2c-20.2-0.4-40.4,0.1-60.6,0.4c-32.5,0.5-65.1,1-97.6,1.6c-34.9,0.6-69.9,1.2-104.8,1.7
	c-27.8,0.4-55.7,0.7-83.5,0.5c-15-0.1-29.9-0.8-44.9-1c-23.5-0.3-46.9-0.3-70.4-0.2c-31.1,0.1-62.2,0.2-93.2,0.5
	c-31.8,0.2-63.5,0.5-95.3,0.8c-26,0.3-52,0.5-78.1,0.8c-13.4,0.1-26.8,0.3-40.3,0.5h-1.8c-0.2,0-0.3,0.2-0.3,0.4
	c0,0.2,0.2,0.3,0.3,0.3l28.1-0.3c23.6-0.3,47.2-0.5,70.8-0.8c31-0.3,61.9-0.6,92.9-0.8c31.9-0.2,63.8-0.4,95.7-0.6
	c26-0.1,52-0.2,78,0c15,0.1,30,0.6,45,1c24.6,0.5,49.2,0.2,73.8-0.1c34.1-0.4,68.1-0.9,102.2-1.5s68.1-1.2,102.2-1.8
	c24.1-0.4,48.2-0.8,72.3-0.8c3.2,0,6.5,0,9.7,0.1c0.2,0,0.3-0.2,0.3-0.4C764.5,879.3,764.4,879.2,764.2,879.2L764.2,879.2z"/>
<path class="st0" d="M71.4,954.1c1.4,1.6,2.8,3.3,4,5.2c0.3,0.4,0.9,0,0.7-0.4c-1.2-1.9-2.6-3.6-4.1-5.3
	C71.6,953.2,71.1,953.8,71.4,954.1L71.4,954.1z"/>
<path class="st0" d="M30.8,996.8c0.8,0.1,1.5,0.5,2,1.2c0.6,0.7,1.3,1.3,2.1,1.8c0.4,0.2,0.8-0.4,0.4-0.6c-1.6-0.8-2.5-3-4.5-3
	c-0.2,0-0.3,0.2-0.3,0.4C30.5,996.6,30.6,996.8,30.8,996.8L30.8,996.8z"/>
<path class="st0" d="M3.9,967.6c0.8,1.3,1.8,2.4,3.1,3.2c0.2,0.1,0.4,0,0.5-0.2c0.1-0.2,0-0.3-0.1-0.4c-1.2-0.7-2.1-1.7-2.8-2.9
	C4.4,967,4.2,967,4,967.1C3.9,967.3,3.8,967.4,3.9,967.6L3.9,967.6z"/>
<path class="st0" d="M54.8,979.4c1.8-1,3.7-1.8,5.6-2.4c1.6-0.4,3.4-0.3,4.8-1.5c0.4-0.3-0.2-0.8-0.5-0.5c-0.7,0.5-1.5,0.8-2.4,0.9
	c-0.9,0.1-1.7,0.3-2.6,0.5c-1.8,0.6-3.6,1.4-5.3,2.4C54,979,54.4,979.7,54.8,979.4L54.8,979.4z"/>
<path class="st0" d="M7.5,997.6c1.9-2,4.3-3.5,7-4.3c0.2-0.1,0.3-0.3,0.3-0.5c-0.1-0.2-0.3-0.3-0.5-0.3c-2.8,0.8-5.3,2.4-7.3,4.5
	C6.7,997.4,7.2,997.9,7.5,997.6L7.5,997.6z"/>
<path class="st0" d="M68.6,995.5l10.3-2.5c0.5-0.1,0.3-0.8-0.2-0.7l-10.3,2.5C67.9,994.9,68.1,995.6,68.6,995.5z"/>
<path class="st0" d="M107.1,981.4l7.1,11.4c0.3,0.4,0.9,0,0.7-0.4l-7.1-11.4C107.5,980.6,106.8,981,107.1,981.4L107.1,981.4z"/>
<path class="st0" d="M102.7,956.8c1.9,1.6,3.8,3.4,5.5,5.2c0.3,0.4,0.8-0.2,0.5-0.5c-1.7-1.9-3.5-3.6-5.5-5.2
	C102.8,955.9,102.3,956.4,102.7,956.8z"/>
<path class="st0" d="M89.3,971.6c-2-0.1-4.3-0.2-5.9,1.2c-1.4,1.3-1.8,3.5-0.9,5.2c1,1.9,3.1,3,5.2,2.7c1.1-0.1,2.1-0.4,3-0.9
	c1-0.6,1.7-1.6,1.9-2.7c0.3-1.3,0.1-2.6-0.7-3.6c-0.7-1-1.9-1.5-3.1-1.4c-0.5,0-0.5,0.8,0,0.8c1.7,0,3.2,1.4,3.2,3.1
	c0,0.2,0,0.5-0.1,0.7c-0.1,1-0.7,1.9-1.6,2.5c-0.8,0.5-1.7,0.8-2.6,0.8c-1.8,0.2-3.5-0.6-4.4-2.1c-0.9-1.4-0.7-3.3,0.5-4.5
	c1.4-1.3,3.7-1.2,5.5-1.1C89.8,972.4,89.8,971.7,89.3,971.6L89.3,971.6z"/>
<path class="st0" d="M135.6,979h10.9c0.2,0,0.3-0.2,0.3-0.4c0-0.2-0.2-0.3-0.3-0.3h-10.9c-0.2,0-0.3,0.2-0.3,0.4
	C135.3,978.8,135.4,979,135.6,979z"/>
<path class="st0" d="M144.9,963c2.6-0.5,5.2-1,7.8-1.7c0.2-0.1,0.3-0.3,0.3-0.5c-0.1-0.2-0.3-0.3-0.5-0.3c-2.6,0.7-5.2,1.2-7.8,1.7
	C144.3,962.4,144.5,963.1,144.9,963z"/>
<path class="st0" d="M150.5,991.7c-1.3-0.2-2.5-0.5-3.8-0.6c-0.5-0.1-1.1-0.1-1.6,0c-0.5,0.2-0.9,0.4-1.2,0.8
	c-1.6,1.2-3.1,3.2-1.9,5.2c2,3.2,7.7,3.7,10.2,0.9c0.7-0.8,1-1.9,0.8-3c-0.4-1-1.3-1.8-2.3-2.2c-0.4-0.2-0.8,0.4-0.4,0.7
	c0.8,0.3,1.5,0.8,1.9,1.5c0.3,0.9,0.1,1.9-0.5,2.5c-1.1,1.2-2.7,1.7-4.4,1.6c-1.6,0-3.1-0.7-4.2-1.8c-0.7-0.6-0.9-1.6-0.6-2.5
	c0.3-0.8,0.9-1.5,1.6-2.1c0.4-0.4,0.8-0.6,1.3-0.9c0.6-0.1,1.1-0.1,1.7,0.1c1.1,0.2,2.2,0.4,3.4,0.6
	C150.7,992.6,150.9,991.9,150.5,991.7L150.5,991.7z"/>
<path class="st0" d="M176.3,984.8c2.8,1.3,5.4,2.9,7.8,4.9c0.4,0.3,0.9-0.2,0.5-0.5c-2.4-2-5.1-3.7-7.9-5
	C176.3,984,175.9,984.6,176.3,984.8L176.3,984.8z"/>
<path class="st0" d="M190.4,964.8c1-0.1,2.1,0.1,3,0.6c0.2,0.1,0.4,0,0.5-0.2c0.1-0.2,0-0.3-0.1-0.4c-1-0.6-2.2-0.8-3.4-0.7
	c-0.2,0-0.4,0.1-0.4,0.3c0,0.2,0.1,0.4,0.3,0.4C190.3,964.8,190.4,964.8,190.4,964.8L190.4,964.8z"/>
<path class="st0" d="M200.9,1005.5c2.8-2.6,6.5-3.7,9.5-5.8c0.4-0.3,0-0.9-0.4-0.6c-3.1,2.2-6.9,3.3-9.7,6
	C200,1005.4,200.5,1005.9,200.9,1005.5L200.9,1005.5z"/>
<path class="st0" d="M218.5,970.4c-1.2-0.5-2.5-0.9-3.8-1c-1.2,0.1-2.2,0.6-3.1,1.5c-0.7,0.8-1.1,1.8-1.1,2.9
	c-0.1,1.1-0.1,2.3,0.2,3.4c0.6,2.3,2.7,3.4,4.9,3.6c1.2,0.2,2.5-0.2,3.4-1c0.9-0.7,1.7-1.7,2-2.8c0.7-2.8-1.5-5.1-3.4-6.8
	c-0.4-0.3-0.9,0.2-0.5,0.5c1.5,1.3,3.2,2.9,3.3,5c0,2.2-1.6,4.1-3.8,4.4c-1.9,0.1-4.2-0.7-5-2.6c-0.3-0.9-0.5-1.8-0.4-2.7
	c-0.1-1,0.1-2,0.5-2.9c0.3-0.5,0.8-0.8,1.3-1.1c0.5-0.4,1.1-0.6,1.7-0.7c1.2,0.1,2.4,0.4,3.6,0.9C218.8,971.2,219,970.5,218.5,970.4
	L218.5,970.4z"/>
<path class="st0" d="M233.1,991.5c0.7,0,1.3-0.2,1.8-0.6c0.7-0.4,1.3-0.8,1.9-1.2c1.3-0.8,2.6-1.6,3.8-2.5c0.4-0.3,0-0.9-0.4-0.7
	c-1.1,0.8-2.3,1.6-3.4,2.3c-0.6,0.4-1.2,0.7-1.8,1.1l-0.8,0.5c-0.3,0.2-0.6,0.4-1,0.3S232.6,991.4,233.1,991.5L233.1,991.5z"/>
<path class="st0" d="M241.1,972.5l1.7,1.9c0.1,0.1,0.4,0.1,0.5,0c0.1-0.1,0.1-0.4,0-0.5l-1.7-1.9c-0.1-0.1-0.4-0.1-0.5,0
	c0,0,0,0,0,0C240.9,972.1,240.9,972.4,241.1,972.5L241.1,972.5z"/>
<path class="st0" d="M242.6,1001c1.7,2,3.3,3.9,4.9,6c0.1,0.2,0.3,0.2,0.5,0.1c0.2-0.1,0.2-0.3,0.1-0.5c-1.6-2.1-3.3-4.1-5-6.1
	C242.8,1000.1,242.3,1000.6,242.6,1001L242.6,1001z"/>
<path class="st0" d="M258.9,964.4c1.2,0.3,2.2,1,3,2c0.1,0.2,0.3,0.2,0.5,0.1s0.2-0.3,0.1-0.5c-0.9-1.1-2.1-2-3.5-2.3
	c-0.2,0-0.4,0.1-0.4,0.3C258.5,964.2,258.6,964.3,258.9,964.4L258.9,964.4z"/>
<path class="st0" d="M286.3,978.9c0.4,0.9,1,1.8,1.8,2.4c0.8,0.8,1.4,1.7,2,2.7c0.2,0.4,0.9,0,0.6-0.4c-0.6-1-1.2-1.8-2-2.7
	c-0.6-0.7-1.6-1.3-1.8-2.3c-0.1-0.2-0.3-0.3-0.5-0.3C286.3,978.5,286.1,978.7,286.3,978.9L286.3,978.9z"/>
<path class="st0" d="M312,970c0.5-0.4,1-0.8,1.4-1.3c0.1-0.1,0.1-0.4,0-0.5c-0.1-0.1-0.4-0.1-0.5,0c-0.4,0.5-0.9,0.9-1.4,1.3
	c-0.1,0.2-0.1,0.4,0,0.5c0.1,0.1,0.2,0.1,0.3,0.1C311.8,970.1,311.9,970.1,312,970L312,970z"/>
<path class="st0" d="M301.8,1001.1c0.2,0,0.3-0.2,0.3-0.4c0-0.2-0.2-0.3-0.3-0.3c-0.2,0-0.3,0.2-0.3,0.4
	C301.5,1001,301.6,1001.1,301.8,1001.1z"/>
<path class="st0" d="M274.9,990.2c-1.6-1.7-3.8-2.7-6.2-2.6c-1.2,0-2.4,0.3-3.4,1c-1,0.9-1.6,2-1.7,3.3c-0.4,2.3-0.2,5.6,2.3,6.7
	c1.3,0.5,2.7,0.6,4,0.4c1.3-0.1,2.7-0.5,3.8-1.2c1.2-0.6,2-1.8,2.3-3.1c0.1-0.7,0-1.4-0.3-2c-0.4-0.6-0.8-1.3-1.2-1.8
	c-0.2-0.4-0.9,0-0.6,0.4s0.6,0.8,0.9,1.3c0.3,0.5,0.5,1.1,0.5,1.7c0,1.1-0.6,2.1-1.6,2.7c-2,1.3-4.5,1.7-6.8,1.3
	c-2.6-0.5-3-3.4-2.7-5.7c0.1-1.2,0.5-2.3,1.3-3.2c0.8-0.6,1.9-1,2.9-1c2.2-0.2,4.4,0.7,5.9,2.4C274.7,991.1,275.2,990.6,274.9,990.2
	L274.9,990.2z"/>
<path class="st0" d="M325.9,990.3c-1.9-1.5-5.5-2.6-7.3-0.5c-1.8,2.3-2.2,5.4-1.1,8c1.3,2.6,4.4,3.7,7.1,4.1
	c1.3,0.2,2.9,0.4,3.9-0.5c0.9-1,1.4-2.3,1.4-3.6c0.2-2.5,0-7.1-3.5-7.2c-0.2,0-0.3,0.2-0.3,0.4c0,0.2,0.2,0.3,0.3,0.3
	c2.7,0.1,2.9,3.7,2.8,5.7c0.1,1.1-0.2,2.3-0.8,3.2c-0.3,0.6-0.9,0.9-1.5,1c-0.6,0-1.3,0-1.9-0.1c-2.2-0.2-4.9-1-6.3-2.8
	c-1.6-2-1.4-4.8-0.3-7c0.3-0.6,0.7-1.2,1.2-1.6c0.6-0.3,1.3-0.5,2-0.4c1.4,0,2.7,0.5,3.7,1.4C325.8,991.1,326.3,990.6,325.9,990.3
	L325.9,990.3z"/>
<path class="st0" d="M341.4,976.8c1.3-1.1,2.6-2.2,4-3.3c0.1-0.1,0.1-0.4,0-0.5c-0.2-0.1-0.4-0.1-0.5,0c-1.4,1.1-2.7,2.2-4,3.3
	C340.5,976.6,341,977.1,341.4,976.8z"/>
<path class="st0" d="M350.6,994.7c2.1,0.8,4.3,1.6,6.5,2.1c0.5,0.1,0.7-0.6,0.2-0.7c-2.2-0.6-4.3-1.3-6.5-2.1
	C350.4,993.8,350.2,994.5,350.6,994.7L350.6,994.7z"/>
<path class="st0" d="M376.1,986.7c0.2,0,0.3-0.2,0.3-0.4c0-0.2-0.2-0.3-0.3-0.3c-0.2,0-0.3,0.2-0.3,0.4
	C375.8,986.6,375.9,986.7,376.1,986.7z"/>
<path class="st0" d="M377.4,966.6c2,1.3,4,2.7,5.8,4.2c0.4,0.3,0.9-0.2,0.5-0.5c-1.9-1.6-3.8-3.1-5.9-4.4
	C377.4,965.7,377,966.3,377.4,966.6z"/>
<path class="st0" d="M379.3,1004.4c2.9-1.5,5.7-3,8.7-4.3c0.5-0.2,0.1-0.8-0.4-0.7c-2.9,1.3-5.8,2.8-8.7,4.3
	C378.5,1004,378.9,1004.6,379.3,1004.4z"/>
<path class="st0" d="M410.3,972.5c2.2-1.4,4.5-2.5,7-3.2c0.2-0.1,0.3-0.3,0.3-0.5c-0.1-0.2-0.3-0.3-0.5-0.3l0,0
	c-2.6,0.7-5,1.9-7.2,3.3C409.5,972.1,409.9,972.8,410.3,972.5L410.3,972.5z"/>
<path class="st0" d="M397.8,978.7c-2.3-0.6-4.6,0.4-5.8,2.4c-0.6,0.9-0.8,2-0.7,3.1c0.3,1.1,1,2,1.9,2.7c2,1.6,4.7,2.1,7.2,1.3
	c2.2-0.9,3.7-2.8,4-5.2c0.1-1.2-0.4-2.3-1.3-3.1c-1.1-0.9-2.8-1.1-4.1-1.4c-0.5-0.1-0.7,0.6-0.2,0.7c1,0.2,2,0.5,3,0.8
	c0.9,0.4,1.6,1.2,1.8,2.2c0.4,2-1,4-2.7,5c-2.9,1.4-6.4,0.5-8.4-2c-0.6-0.8-0.7-1.9-0.2-2.8c0.8-2.2,3.1-3.4,5.4-2.8
	c0.2,0,0.4-0.1,0.4-0.3C398.1,979,398,978.8,397.8,978.7L397.8,978.7z"/>
<path class="st0" d="M423.1,994.7c2.4,1.8,4.9,3.5,7.6,4.9c0.4,0.2,0.8-0.4,0.4-0.7c-2.6-1.4-5.1-3-7.4-4.8
	C423.2,993.8,422.7,994.3,423.1,994.7z"/>
<path class="st0" d="M437.8,978.6c0.2,0,0.3-0.2,0.3-0.4c0-0.2-0.2-0.3-0.3-0.3c-0.2,0-0.3,0.2-0.3,0.4
	C437.5,978.4,437.7,978.6,437.8,978.6z"/>
<path class="st0" d="M448.2,994.7l6.4,0.1c0.2,0,0.3-0.2,0.3-0.4c0-0.2-0.2-0.3-0.3-0.3l-6.4-0.1c-0.2,0-0.3,0.2-0.3,0.4
	C447.9,994.5,448,994.7,448.2,994.7z"/>
<path class="st0" d="M457.5,974.2c1.5-2.1,3.1-4,4.8-5.8c0.1-0.2,0.1-0.4-0.1-0.5c-0.1-0.1-0.3-0.1-0.4,0c-1.8,1.9-3.5,3.9-5,6
	C456.6,974.2,457.2,974.6,457.5,974.2L457.5,974.2z"/>
<path class="st0" d="M485.1,969.7c2.7,0,5.3,0.1,8,0.3c0.5,0,0.5-0.7,0-0.8c-2.7-0.2-5.3-0.3-8-0.3c-0.2,0-0.3,0.2-0.3,0.4
	C484.8,969.5,485,969.6,485.1,969.7z"/>
<path class="st0" d="M478.8,1001.2c-2.6-0.5-5.2-0.8-7.8-1.1c-0.5,0-0.5,0.7,0,0.8c2.6,0.3,5.1,0.7,7.6,1.1
	C479,1002,479.2,1001.3,478.8,1001.2L478.8,1001.2z"/>
<path class="st0" d="M486.6,982.5c0.2,0,0.3-0.2,0.3-0.4c0-0.2-0.2-0.3-0.3-0.3c-0.2,0-0.3,0.2-0.3,0.4
	C486.3,982.3,486.4,982.4,486.6,982.5z"/>
<path class="st0" d="M501.2,961.6c0.2,0,0.3-0.2,0.3-0.4c0-0.2-0.2-0.3-0.3-0.3c-0.2,0-0.3,0.2-0.3,0.4
	C500.9,961.5,501,961.6,501.2,961.6z"/>
<path class="st0" d="M526.7,985.9c0.2,0,0.3-0.2,0.3-0.4c0-0.2-0.2-0.3-0.3-0.3c-0.2,0-0.3,0.2-0.3,0.4
	C526.4,985.7,526.6,985.8,526.7,985.9z"/>
<path class="st0" d="M508.5,990.9c-1.6-0.4-3.2-0.6-4.8-0.6c-1.4,0-2.8,0.3-4,1.1c-1.1,0.7-1.8,1.9-2,3.2c-0.3,1.4-0.2,2.8,0.3,4.1
	c0.8,1.1,1.8,2,3.1,2.5c1.3,0.7,2.7,1,4.1,1.1c2.4,0.1,5.8-1,6.4-3.7c0.5-3-1-6-3.7-7.4c-0.4-0.2-0.8,0.5-0.4,0.7
	c2,1,3.3,3.1,3.4,5.4c0.1,1.3-0.5,2.5-1.5,3.2c-1.1,0.7-2.3,1.1-3.5,1.1c-1.2,0-2.4-0.2-3.5-0.7c-1.2-0.4-2.2-1-3.1-1.8
	c-1-1-1-2.4-0.9-3.7c0-1.2,0.6-2.4,1.5-3.2c1.2-0.8,2.6-1.2,4-1.1c1.5,0,3,0.2,4.5,0.6c0.2,0.1,0.4-0.1,0.5-0.3
	C508.9,991.2,508.8,991,508.5,990.9L508.5,990.9L508.5,990.9z"/>
<path class="st0" d="M515.6,960.6c4.5,0,9,1.4,12.7,4c0.4,0.3,0.8-0.4,0.4-0.7c-3.8-2.6-8.4-4.1-13-4.1c-0.2,0-0.3,0.2-0.3,0.4
	C515.4,960.5,515.5,960.6,515.6,960.6L515.6,960.6z"/>
<path class="st0" d="M546.7,982.6c-0.1,2,0.3,4.1,1.2,5.9c0.2,0.5,0.8,0.1,0.7-0.4c-0.7-1.8-1.1-3.7-1-5.6c0-0.2-0.2-0.3-0.4-0.3
	C546.9,982.3,546.8,982.4,546.7,982.6L546.7,982.6z"/>
<path class="st0" d="M565.2,972.9c1.7,0.1,3.3,0.4,5,0.7c0.5,0.1,0.7-0.6,0.2-0.7c-1.7-0.3-3.4-0.6-5.2-0.7
	C564.7,972.1,564.7,972.8,565.2,972.9L565.2,972.9z"/>
<path class="st0" d="M542.5,1005.4h10.4c0.2,0,0.3-0.2,0.3-0.4c0-0.2-0.2-0.3-0.3-0.3h-10.4c-0.2,0-0.3,0.2-0.3,0.4
	C542.2,1005.2,542.3,1005.4,542.5,1005.4z"/>
<path class="st0" d="M551.6,965.4c1.6-1.7,3.3-3.3,5.2-4.9c0.4-0.3-0.2-0.8-0.5-0.5c-1.8,1.5-3.5,3.1-5.2,4.9
	C550.8,965.2,551.3,965.8,551.6,965.4z"/>
<path class="st0" d="M581.5,959.1c1.8-1.1,3.4-2.4,4.9-3.8c0.3-0.3-0.2-0.9-0.5-0.5c-1.4,1.4-3,2.6-4.7,3.7
	C580.7,958.7,581.1,959.4,581.5,959.1z"/>
<path class="st0" d="M572.5,993.7c1.2,2.5,2.7,4.9,4.5,7c0.3,0.4,0.8-0.2,0.5-0.5c-1.8-2.1-3.2-4.4-4.4-6.8
	C573,992.9,572.3,993.3,572.5,993.7z"/>
<path class="st0" d="M596.9,996.6l6.2,3.6c0.2,0.1,0.4,0,0.5-0.2c0.1-0.2,0-0.3-0.1-0.4l-6.2-3.5c-0.2-0.1-0.4,0-0.5,0.1
	S596.8,996.5,596.9,996.6z"/>
<path class="st0" d="M601.8,971c-1.5,0.2-3-0.2-4.4,0.1c-1.1,0.3-2.1,1.1-2.5,2.2c-1,2.2-1.1,4.8-0.1,7c1.2,2.5,4.5,2.9,7,2.5
	c2.4-0.2,4.4-2.2,4.6-4.6c0.3-2.9-0.9-5.8-3.3-7.5c-0.4-0.3-0.8,0.4-0.4,0.6c1.9,1.3,3,3.5,3,5.8c0.2,2.2-1.2,4.2-3.3,4.8
	c-1.2,0.3-2.4,0.3-3.6,0.1c-1.2-0.1-2.3-0.7-3.1-1.7c-1-1.9-1.1-4-0.4-6c0.3-1.2,1.2-2.1,2.3-2.5c1.4-0.4,2.8,0,4.2-0.1
	C602.3,971.7,602.3,971,601.8,971L601.8,971z"/>
<path class="st0" d="M763.5,1021.2c-99.7-7.3-199.7-6.5-299.5-5.5c-50.7,0.5-101.5,1.1-152.2,1.6c-50.6,0.5-101.3,1.4-151.9-0.7
	c-56.3-2.3-112.9-9-169.1-1.8c-0.5,0.1-0.5,0.8,0,0.8c50.2-6.4,100.7-1.7,150.9,1c50.5,2.7,101,2.3,151.5,1.8
	c100.6-1,201.3-3.1,301.9-2.4c56.2,0.4,112.4,1.9,168.4,6C764,1022,764,1021.2,763.5,1021.2L763.5,1021.2z"/>
<path class="st0" d="M764.2,930.4c-39.5-2.9-78.9,0.2-118.2,4.8c-47.8,5.6-95.4,12.1-143.4,15.5c-68.7,4.9-137.5,4.5-206.3,2.7
	c-60.6-1.6-121.1-4.7-181.7-7.7c-22.1-1.1-44.3-2.2-66.5-2.7c-15.8-0.4-31.8-0.7-47.6,0.5c-2.8,0.2-5.6,0.5-8.3,0.8
	c-0.5,0.1-0.5,0.8,0,0.8c14.1-1.8,28.4-1.8,42.6-1.6c20.7,0.2,41.4,1.1,62,2.1c58.2,2.7,116.3,6,174.5,7.8
	c69.9,2.2,139.9,3.4,209.8-0.6c50.2-2.9,100.1-9,150-15.1c39.3-4.8,78.8-9,118.5-7.4c4.9,0.2,9.8,0.5,14.7,0.8
	C764.6,931.1,764.6,930.4,764.2,930.4L764.2,930.4z"/>
<path class="st0" d="M676.7,949.7c1.4,1.6,2.8,3.3,4,5.2c0.3,0.4,0.9,0,0.6-0.4c-1.2-1.9-2.6-3.6-4.1-5.3
	C676.9,948.8,676.4,949.3,676.7,949.7L676.7,949.7z"/>
<path class="st0" d="M681.1,994.2c0.8,0.1,1.5,0.5,2,1.2c0.6,0.7,1.3,1.3,2.1,1.8c0.4,0.2,0.8-0.4,0.4-0.7c-1.6-0.8-2.5-3-4.5-3
	c-0.2,0-0.3,0.2-0.3,0.4C680.8,994.1,680.9,994.2,681.1,994.2L681.1,994.2z"/>
<path class="st0" d="M667.2,968.1c0.8,1.3,1.8,2.4,3.1,3.2c0.4,0.2,0.8-0.4,0.4-0.7c-1.2-0.7-2.2-1.7-2.8-2.9
	c-0.1-0.2-0.3-0.2-0.5-0.1S667.1,967.9,667.2,968.1L667.2,968.1z"/>
<path class="st0" d="M705.1,976.9c1.8-1,3.7-1.8,5.7-2.4c1.6-0.4,3.4-0.3,4.8-1.5c0.4-0.3-0.2-0.8-0.5-0.5c-0.7,0.5-1.5,0.8-2.4,0.9
	c-0.9,0.1-1.7,0.3-2.6,0.5c-1.8,0.6-3.6,1.4-5.3,2.3C704.3,976.4,704.7,977.1,705.1,976.9z"/>
<path class="st0" d="M657.8,995c1.9-2,4.3-3.5,7-4.3c0.2-0.1,0.3-0.3,0.3-0.5c-0.1-0.2-0.3-0.3-0.5-0.3c-2.8,0.8-5.3,2.4-7.3,4.5
	C657,994.8,657.5,995.4,657.8,995z"/>
<path class="st0" d="M718.9,992.9l10.3-2.5c0.5-0.1,0.3-0.8-0.2-0.7l-10.3,2.5C718.3,992.3,718.5,993,718.9,992.9z"/>
<path class="st0" d="M745.9,994.3l7.1,11.4c0.3,0.4,0.9,0,0.7-0.4l-7.1-11.4C746.3,993.5,745.6,993.9,745.9,994.3L745.9,994.3z"/>
<path class="st0" d="M753,954.2c1.9,1.6,3.8,3.4,5.5,5.2c0.3,0.4,0.8-0.2,0.5-0.5c-1.7-1.9-3.5-3.6-5.5-5.2
	C753.2,953.4,752.6,953.9,753,954.2z"/>
<path class="st0" d="M739.7,962.7c-2-0.1-4.3-0.2-5.9,1.2c-1.4,1.3-1.8,3.5-0.9,5.2c1,1.9,3.1,3,5.2,2.7c1.1-0.1,2.1-0.4,3-0.9
	c2.1-1.4,2.7-4.2,1.3-6.2c0,0-0.1-0.1-0.1-0.1c-0.7-1-1.9-1.5-3.1-1.4c-0.5,0-0.5,0.8,0,0.8c1.7,0,3.2,1.4,3.2,3.1
	c0,0.2,0,0.5-0.1,0.7c-0.1,1-0.7,1.9-1.6,2.5c-0.8,0.5-1.7,0.8-2.6,0.8c-1.8,0.2-3.5-0.6-4.5-2.1c-0.9-1.4-0.7-3.3,0.5-4.5
	c1.5-1.3,3.7-1.2,5.5-1.1C740.1,963.4,740.1,962.7,739.7,962.7L739.7,962.7z"/>
<path class="st0" d="M708,952.4h10.9c0.2,0,0.3-0.2,0.3-0.4c0-0.2-0.2-0.3-0.3-0.3H708c-0.2,0-0.3,0.2-0.3,0.4
	C707.7,952.2,707.8,952.4,708,952.4z"/>
<path class="st0" d="M622.5,956.3c2.6-0.5,5.2-1,7.8-1.7c0.2-0.1,0.3-0.3,0.3-0.5c-0.1-0.2-0.3-0.3-0.5-0.3l0,0
	c-2.6,0.7-5.2,1.2-7.8,1.7C621.8,955.6,622,956.4,622.5,956.3z"/>
<path class="st0" d="M36.1,959c-1.3-0.2-2.5-0.5-3.8-0.6c-0.5-0.1-1.1-0.1-1.6,0c-0.5,0.2-0.9,0.5-1.2,0.8c-1.6,1.2-3.1,3.2-1.9,5.2
	c2,3.2,7.7,3.7,10.2,0.9c0.8-0.8,1-1.9,0.8-3c-0.4-1-1.3-1.8-2.3-2.2c-0.4-0.2-0.8,0.4-0.4,0.6c0.8,0.3,1.5,0.8,1.9,1.5
	c0.3,0.9,0.1,1.9-0.5,2.5c-1.1,1.2-2.7,1.7-4.3,1.6c-1.6,0-3.1-0.7-4.2-1.8c-0.7-0.6-1-1.6-0.7-2.5c0.3-0.8,0.9-1.5,1.6-2
	c0.4-0.4,0.8-0.6,1.2-0.8c0.6-0.1,1.1-0.1,1.7,0.1c1.1,0.2,2.2,0.3,3.3,0.6C36.4,959.9,36.6,959.2,36.1,959L36.1,959z"/>
<path class="st0" d="M639.1,978c1-0.1,2.1,0.1,3,0.6c0.2,0.1,0.4,0,0.5-0.2c0.1-0.2,0-0.3-0.1-0.4c-1-0.6-2.2-0.8-3.4-0.7
	c-0.2,0-0.4,0.2-0.4,0.4C638.7,977.8,638.9,978,639.1,978L639.1,978z"/>
<path class="st0" d="M653.7,955.2l1.7,1.9c0.1,0.1,0.4,0.1,0.5,0c0,0,0,0,0,0c0.1-0.1,0.1-0.4,0-0.5l-1.7-1.9
	c-0.1-0.1-0.4-0.1-0.5,0C653.5,954.8,653.5,955.1,653.7,955.2z"/>
<path class="st0" d="M627.5,994.6c1.2,0.3,2.2,1,3,2c0.2,0.4,0.9,0,0.7-0.4c-0.9-1.1-2.1-2-3.5-2.3c-0.2-0.1-0.4,0.1-0.5,0.3
	C627.1,994.4,627.2,994.6,627.5,994.6L627.5,994.6z"/>
<path class="st0" d="M762.9,1033.7c-99.9,7.3-200.1,6.5-300.2,5.4c-50.5-0.6-100.9-1.1-151.4-1.6c-50-0.5-100.1-1.3-150.1,0.8
	c-55.8,2.3-111.8,8.9-167.6,1.8c-0.5-0.1-0.5,0.7,0,0.8c49.6,6.3,99.6,1.8,149.4-0.9c49.9-2.7,100-2.4,150-1.9
	c100.3,1,200.6,3.1,300.9,2.4c56.4-0.4,112.8-1.9,169.1-6C763.4,1034.5,763.4,1033.7,762.9,1033.7L762.9,1033.7z"/>
<path class="st0" d="M23.2,1013.8c0.2,9.1-3,18.1-1.9,27.2c0.1,0.5,0.8,0.5,0.8,0c-1.2-9.2,2-18.1,1.9-27.2c0-0.2-0.2-0.3-0.4-0.3
	C23.3,1013.6,23.2,1013.7,23.2,1013.8z"/>
<path class="st0" d="M13.6,1013.8c0.4,9,0.2,18-0.6,27c0,0.5,0.7,0.5,0.8,0c0.8-9,1-18,0.6-27C14.3,1013.3,13.5,1013.3,13.6,1013.8
	L13.6,1013.8z"/>
<path class="st0" d="M5.7,1015.2c-0.8,8.3-1.2,16.5-1.3,24.8c0,0.2,0.2,0.3,0.4,0.3c0.2,0,0.3-0.2,0.3-0.3
	c0.1-8.3,0.5-16.6,1.3-24.8C6.5,1014.7,5.8,1014.7,5.7,1015.2L5.7,1015.2z"/>
<path class="st0" d="M48.8,1012.8c0.2,10-3,19.9-1.8,30c0,0.5,0.8,0.5,0.8,0c-1.2-10.1,2-19.9,1.8-30c0-0.2-0.2-0.3-0.4-0.3
	C48.9,1012.5,48.8,1012.6,48.8,1012.8L48.8,1012.8z"/>
<path class="st0" d="M39.2,1012.8c0.4,10,0.2,19.9-0.6,29.9c0,0.5,0.7,0.5,0.8,0c0.8-9.9,1-19.9,0.6-29.9
	C39.9,1012.3,39.2,1012.3,39.2,1012.8L39.2,1012.8z"/>
<path class="st0" d="M57.3,1013.5c-0.8,9.4-1.2,18.8-1.3,28.2c0,0.2,0.2,0.3,0.4,0.3c0.2,0,0.3-0.2,0.3-0.3
	c0.1-9.4,0.5-18.8,1.3-28.2C58.1,1013,57.4,1013,57.3,1013.5L57.3,1013.5z"/>
<path class="st0" d="M31.3,1013.9c-0.5,9.1-0.8,18.1-0.9,27.2c0,0.2,0.2,0.3,0.4,0.3c0.2,0,0.3-0.2,0.3-0.3
	c0.1-9.1,0.4-18.1,0.9-27.2C32.1,1013.4,31.4,1013.4,31.3,1013.9L31.3,1013.9z"/>
<path class="st0" d="M98.8,1014.5c-0.2,8.9,3,17.7,1.9,26.6c-0.1,0.5,0.7,0.5,0.8,0c1.2-8.9-2-17.7-1.9-26.6c0-0.2-0.2-0.3-0.4-0.3
	C98.9,1014.2,98.8,1014.3,98.8,1014.5L98.8,1014.5z"/>
<path class="st0" d="M108.4,1014.4c-0.4,8.7-0.2,17.5,0.6,26.2c0,0.5,0.8,0.5,0.8,0c-0.8-8.7-1-17.5-0.6-26.2
	C109.2,1013.9,108.4,1013.9,108.4,1014.4z"/>
<path class="st0" d="M116.2,1014.8c0.8,8.7,1.2,17.5,1.3,26.3c0,0.2,0.2,0.3,0.4,0.3c0.2,0,0.3-0.2,0.3-0.3
	c-0.1-8.8-0.5-17.5-1.3-26.3C117,1014.3,116.2,1014.3,116.2,1014.8L116.2,1014.8z"/>
<path class="st0" d="M124.8,1015.4c0.5,8.4,0.8,16.8,0.9,25.2c0,0.2,0.2,0.3,0.4,0.3c0.2,0,0.3-0.2,0.3-0.3
	c-0.1-8.4-0.4-16.8-0.9-25.2C125.5,1014.9,124.8,1014.9,124.8,1015.4z"/>
<path class="st0" d="M73.2,1012.8c-0.2,10,3,19.9,1.9,30c-0.1,0.5,0.7,0.5,0.8,0c1.2-10.1-2-20-1.9-30c0-0.2-0.2-0.3-0.4-0.3
	C73.3,1012.6,73.2,1012.7,73.2,1012.8z"/>
<path class="st0" d="M82.8,1013.5c-0.4,9.6-0.2,19.1,0.6,28.7c0,0.5,0.8,0.5,0.8,0c-0.8-9.5-1-19.1-0.6-28.7
	C83.5,1013,82.8,1013,82.8,1013.5L82.8,1013.5z"/>
<path class="st0" d="M64.6,1012.6c0.8,10.1,1.2,20.2,1.3,30.3c0,0.2,0.2,0.3,0.4,0.3c0.2,0,0.3-0.2,0.3-0.3
	c-0.1-10.1-0.5-20.2-1.3-30.3C65.4,1012.1,64.6,1012.1,64.6,1012.6z"/>
<path class="st0" d="M90.6,1013.5c0.5,9.5,0.8,19.1,0.9,28.6c0,0.2,0.2,0.3,0.4,0.3c0.2,0,0.3-0.2,0.3-0.3
	c-0.1-9.6-0.4-19.1-0.9-28.6C91.4,1013,90.6,1013,90.6,1013.5z"/>
<path class="st0" d="M159.3,1018.2c0.2,6.7-3,13.2-1.8,19.9c0.1,0.5,0.8,0.3,0.7-0.2c-1.2-6.7,2-13.1,1.9-19.7
	c0-0.2-0.2-0.3-0.4-0.3C159.5,1018,159.4,1018.1,159.3,1018.2L159.3,1018.2z"/>
<path class="st0" d="M149.7,1018.2c0.4,6.9,0.2,13.8-0.6,20.7c0,0.5,0.7,0.5,0.8,0c0.8-6.9,1-13.8,0.6-20.7
	C150.5,1017.7,149.7,1017.7,149.7,1018.2z"/>
<path class="st0" d="M142.5,1016.8c-0.8,7.6-1.2,15.2-1.3,22.8c0,0.2,0.2,0.3,0.4,0.3c0.2,0,0.3-0.2,0.3-0.3
	c0.1-7.6,0.5-15.2,1.3-22.8C143.3,1016.3,142.6,1016.3,142.5,1016.8L142.5,1016.8z"/>
<path class="st0" d="M134.2,1015.8c-0.5,8-0.8,15.9-0.9,23.9c0,0.2,0.2,0.3,0.4,0.3c0.2,0,0.3-0.2,0.3-0.3c0.1-8,0.4-16,0.9-23.9
	C135,1015.4,134.3,1015.4,134.2,1015.8z"/>
<path class="st0" d="M185,1017.9c0.2,6.7-3,13.1-1.8,19.9c0.1,0.5,0.8,0.3,0.7-0.2c-1.2-6.6,2-13,1.9-19.7
	C185.8,1017.4,185,1017.4,185,1017.9L185,1017.9z"/>
<path class="st0" d="M175.4,1017.9c0.4,6.8,0.2,13.6-0.6,20.3c-0.1,0.5,0.7,0.5,0.8,0c0.8-6.7,1-13.5,0.6-20.3
	C176.1,1017.5,175.3,1017.4,175.4,1017.9z"/>
<path class="st0" d="M193.5,1017.9c-0.8,6.6-1.2,13.2-1.3,19.8c0,0.2,0.2,0.3,0.4,0.3c0.2,0,0.3-0.2,0.3-0.3
	c0.1-6.6,0.5-13.2,1.3-19.8C194.3,1017.4,193.6,1017.4,193.5,1017.9L193.5,1017.9z"/>
<path class="st0" d="M167.5,1018.3c-0.5,6.7-0.8,13.3-0.9,19.9c0,0.2,0.2,0.3,0.4,0.3c0.2,0,0.3-0.2,0.3-0.3
	c0.1-6.7,0.4-13.3,0.9-19.9C168.3,1017.8,167.5,1017.8,167.5,1018.3z"/>
<path class="st0" d="M235,1018.2c-0.1,6.2,1.8,12.3,1.1,18.6c-0.1,0.5,0.7,0.5,0.8,0c0.7-6.2-1.2-12.3-1.1-18.6
	c0-0.2-0.2-0.3-0.4-0.3C235.2,1018,235,1018.1,235,1018.2L235,1018.2z"/>
<path class="st0" d="M244.6,1018.8c-0.4,6.2-0.2,12.4,0.6,18.6c0.1,0.5,0.8,0.5,0.8,0c-0.8-6.2-1-12.4-0.6-18.6
	C245.3,1018.3,244.6,1018.3,244.6,1018.8z"/>
<path class="st0" d="M252.4,1018.8c0.8,5.8,1.2,11.7,1.3,17.6c0,0.2,0.2,0.3,0.4,0.3c0.2,0,0.3-0.2,0.3-0.3
	c-0.1-5.9-0.5-11.8-1.3-17.6C253.1,1018.3,252.4,1018.3,252.4,1018.8L252.4,1018.8z"/>
<path class="st0" d="M261,1019.2c0.5,6,0.8,12.1,0.9,18.2c0,0.2,0.2,0.3,0.4,0.3c0.2,0,0.3-0.2,0.3-0.3c-0.1-6.1-0.4-12.1-0.9-18.2
	C261.8,1018.7,261,1018.7,261,1019.2z"/>
<path class="st0" d="M209.3,1018.1c-0.2,6.3,3,12.4,1.9,18.8c-0.1,0.5,0.6,0.7,0.7,0.2c1.2-6.4-2-12.6-1.8-19c0-0.2-0.2-0.3-0.4-0.3
	C209.5,1017.8,209.4,1017.9,209.3,1018.1L209.3,1018.1z"/>
<path class="st0" d="M218.9,1018.2c-0.4,6.2-0.2,12.5,0.6,18.7c0.1,0.5,0.8,0.5,0.8,0c-0.8-6.2-1-12.5-0.6-18.7
	C219.7,1017.8,219,1017.8,218.9,1018.2z"/>
<path class="st0" d="M200.8,1018.2c0.8,6.5,1.2,12.9,1.3,19.4c0,0.2,0.2,0.3,0.4,0.3c0.2,0,0.3-0.2,0.3-0.3
	c-0.1-6.5-0.5-13-1.3-19.4C201.5,1017.8,200.7,1017.8,200.8,1018.2L200.8,1018.2z"/>
<path class="st0" d="M226.8,1018.2c0.5,6.3,0.8,12.7,0.9,19.1c0,0.2,0.2,0.3,0.4,0.3c0.2,0,0.3-0.2,0.3-0.3
	c-0.1-6.4-0.4-12.7-0.9-19.1C227.5,1017.8,226.7,1017.8,226.8,1018.2L226.8,1018.2z"/>
<path class="st0" d="M269.7,1018.8c-0.4,5.9-0.2,11.9,0.6,17.8c0.1,0.5,0.8,0.5,0.8,0c-0.8-5.9-1-11.9-0.6-17.8
	C270.4,1018.3,269.7,1018.3,269.7,1018.8z"/>
<path class="st0" d="M277.5,1018.8c0.8,6,1.2,12,1.3,18c0,0.2,0.2,0.3,0.4,0.3c0.2,0,0.3-0.2,0.3-0.3c-0.1-6-0.5-12-1.3-18
	C278.2,1018.3,277.4,1018.3,277.5,1018.8L277.5,1018.8z"/>
<path class="st0" d="M286,1018.8c0.5,6.3,0.8,12.5,0.9,18.8c0,0.2,0.2,0.3,0.4,0.3c0.2,0,0.3-0.2,0.3-0.3
	c-0.1-6.3-0.4-12.6-0.9-18.8C286.8,1018.3,286,1018.3,286,1018.8z"/>
<path class="st0" d="M320.6,1018.8c0.2,6.4-3,12.4-1.9,18.8c0.1,0.5,0.8,0.3,0.7-0.2c-1.2-6.3,2-12.3,1.9-18.6
	C321.3,1018.3,320.6,1018.3,320.6,1018.8L320.6,1018.8z"/>
<path class="st0" d="M311,1018.8c0.4,6.4,0.2,12.7-0.6,19.1c-0.1,0.5,0.7,0.5,0.8,0c0.8-6.3,1-12.7,0.6-19.1
	C311.8,1018.3,311,1018.3,311,1018.8z"/>
<path class="st0" d="M303.8,1018.8c-0.8,6.3-1.2,12.6-1.3,19c0,0.2,0.2,0.3,0.4,0.3c0.2,0,0.3-0.2,0.3-0.3c0.1-6.4,0.5-12.7,1.3-19
	C304.6,1018.3,303.8,1018.3,303.8,1018.8L303.8,1018.8z"/>
<path class="st0" d="M295.5,1018.8c-0.5,6-0.8,12.1-0.9,18.2c0,0.2,0.2,0.3,0.4,0.3c0.2,0,0.3-0.2,0.3-0.3
	c0.1-6.1,0.4-12.1,0.9-18.2C296.2,1018.3,295.5,1018.3,295.5,1018.8z"/>
<path class="st0" d="M346.2,1018.8c0.1,6.3-1.2,12.5-0.8,18.7c0,0.5,0.8,0.5,0.8,0c-0.5-6.2,0.8-12.4,0.8-18.7
	c0-0.2-0.2-0.3-0.4-0.3C346.4,1018.5,346.2,1018.6,346.2,1018.8z"/>
<path class="st0" d="M336.6,1018.8c0.4,6.4,0.2,12.7-0.6,19.1c-0.1,0.5,0.7,0.5,0.8,0c0.8-6.3,1-12.7,0.6-19.1
	C337.4,1018.3,336.6,1018.3,336.6,1018.8z"/>
<path class="st0" d="M354.8,1018.8c-0.8,6.6-1.2,13.2-1.3,19.8c0,0.2,0.2,0.3,0.4,0.3c0.2,0,0.3-0.2,0.3-0.3
	c0.1-6.6,0.5-13.2,1.3-19.8C355.6,1018.3,354.8,1018.3,354.8,1018.8L354.8,1018.8z"/>
<path class="st0" d="M328.8,1018.8c-0.5,6.3-0.8,12.5-0.9,18.8c0,0.2,0.2,0.3,0.4,0.3c0.2,0,0.3-0.2,0.3-0.3
	c0.1-6.3,0.4-12.6,0.9-18.8C329.5,1018.3,328.8,1018.3,328.8,1018.8z"/>
<path class="st0" d="M396.2,1017.4c-0.1,7,1.8,13.8,1.1,20.8c0,0.5,0.7,0.5,0.8,0c0.7-7-1.2-13.8-1.1-20.8c0-0.2-0.2-0.3-0.4-0.3
	C396.4,1017.1,396.3,1017.3,396.2,1017.4L396.2,1017.4z"/>
<path class="st0" d="M405.8,1017.4c-0.4,6.9-0.2,13.9,0.6,20.8c0,0.5,0.8,0.5,0.8,0c-0.8-6.9-1-13.9-0.6-20.8
	C406.6,1017,405.9,1017,405.8,1017.4z"/>
<path class="st0" d="M413.7,1016.8c0.8,7.2,1.2,14.5,1.3,21.7c0,0.2,0.2,0.3,0.4,0.3c0.2,0,0.3-0.2,0.3-0.3
	c-0.1-7.3-0.5-14.5-1.3-21.7C414.4,1016.3,413.6,1016.3,413.7,1016.8z"/>
<path class="st0" d="M422.2,1016.8c0.5,7,0.8,13.9,0.9,20.9c0,0.2,0.2,0.3,0.4,0.3c0.2,0,0.3-0.2,0.3-0.3c-0.1-7-0.4-14-0.9-20.9
	C423,1016.3,422.2,1016.3,422.2,1016.8L422.2,1016.8z"/>
<path class="st0" d="M370.6,1017.4c-0.2,7.1,3,13.9,1.9,21c-0.1,0.5,0.6,0.7,0.7,0.2c1.2-7.2-2-14.1-1.9-21.2
	C371.4,1016.9,370.6,1016.9,370.6,1017.4L370.6,1017.4z"/>
<path class="st0" d="M380.2,1017.4c-0.4,7-0.2,14,0.6,21c0,0.5,0.8,0.5,0.8,0c-0.8-7-1-14-0.6-21
	C381,1016.9,380.2,1016.9,380.2,1017.4L380.2,1017.4z"/>
<path class="st0" d="M362,1018.8c0.8,6.5,1.2,12.9,1.3,19.4c0,0.2,0.2,0.3,0.4,0.3c0.2,0,0.3-0.2,0.3-0.3c-0.1-6.5-0.5-13-1.3-19.4
	C362.8,1018.3,362,1018.3,362,1018.8z"/>
<path class="st0" d="M388.1,1017.4c0.5,7.1,0.8,14.2,0.9,21.3c0,0.2,0.2,0.3,0.4,0.3c0.2,0,0.3-0.2,0.3-0.3
	c-0.1-7.1-0.4-14.2-0.9-21.3C388.8,1017,388,1017,388.1,1017.4z"/>
<path class="st0" d="M429.7,1016.6c0.5,7.3,0.8,14.6,0.9,21.9c0,0.2,0.2,0.3,0.4,0.3c0.2,0,0.3-0.2,0.3-0.3
	c-0.1-7.3-0.4-14.6-0.9-21.9C430.5,1016.1,429.7,1016.1,429.7,1016.6z"/>
<path class="st0" d="M464.2,1016.6c0.2,7.4-3,14.5-1.8,21.9c0.1,0.5,0.8,0.3,0.7-0.2c-1.2-7.3,2-14.4,1.9-21.7
	c0-0.2-0.2-0.3-0.4-0.3C464.4,1016.3,464.3,1016.4,464.2,1016.6L464.2,1016.6z"/>
<path class="st0" d="M454.6,1016.6c0.4,7.4,0.2,14.8-0.6,22.2c0,0.5,0.7,0.5,0.8,0c0.8-7.4,1-14.8,0.6-22.2
	C455.4,1016.1,454.6,1016.1,454.6,1016.6L454.6,1016.6z"/>
<path class="st0" d="M447.4,1016.6c-0.8,7.3-1.2,14.7-1.3,22.1c0,0.2,0.2,0.3,0.4,0.3c0.2,0,0.3-0.2,0.3-0.3
	c0.1-7.4,0.5-14.8,1.3-22.1C448.2,1016.1,447.5,1016.1,447.4,1016.6z"/>
<path class="st0" d="M439.1,1016.6c-0.5,7-0.8,14.1-0.9,21.1c0,0.2,0.2,0.3,0.4,0.3c0.2,0,0.3-0.2,0.3-0.3c0.1-7,0.4-14.1,0.9-21.1
	C439.9,1016.1,439.2,1016.1,439.1,1016.6z"/>
<path class="st0" d="M489.9,1016.6c0.1,7.3-1.2,14.5-0.8,21.8c0,0.5,0.8,0.5,0.8,0c-0.5-7.3,0.8-14.5,0.8-21.8
	c0-0.2-0.2-0.3-0.4-0.3C490,1016.3,489.9,1016.4,489.9,1016.6z"/>
<path class="st0" d="M480.3,1016.6c0.4,7.4,0.2,14.8-0.6,22.2c0,0.5,0.7,0.5,0.8,0c0.8-7.4,1-14.8,0.6-22.2
	C481,1016.1,480.2,1016.1,480.3,1016.6L480.3,1016.6z"/>
<path class="st0" d="M498.4,1016.6c-0.8,7.7-1.2,15.3-1.3,23c0,0.2,0.2,0.3,0.4,0.3c0.2,0,0.3-0.2,0.3-0.3c0.1-7.7,0.5-15.3,1.3-23
	C499.2,1016.1,498.5,1016.1,498.4,1016.6z"/>
<path class="st0" d="M472.4,1016.6c-0.5,7.3-0.8,14.6-0.9,21.9c0,0.2,0.2,0.3,0.4,0.3c0.2,0,0.3-0.2,0.3-0.3
	c0.1-7.3,0.4-14.6,0.9-21.9C473.2,1016.1,472.5,1016.1,472.4,1016.6z"/>
<path class="st0" d="M539.9,1016.1c-0.1,7.7,1.8,15.4,1.1,23.1c0,0.5,0.7,0.5,0.8,0c0.7-7.7-1.2-15.4-1.1-23.1
	c0-0.2-0.2-0.3-0.4-0.3C540,1015.8,539.9,1016,539.9,1016.1L539.9,1016.1z"/>
<path class="st0" d="M549.5,1016.1c-0.4,7.7-0.2,15.4,0.6,23.1c0,0.5,0.8,0.5,0.8,0c-0.8-7.7-1-15.4-0.6-23.1
	C550.2,1015.7,549.5,1015.7,549.5,1016.1z"/>
<path class="st0" d="M557.3,1016.1c0.8,7.8,1.2,15.6,1.3,23.5c0,0.2,0.2,0.3,0.4,0.3c0.2,0,0.3-0.2,0.3-0.3
	c-0.1-7.8-0.5-15.7-1.3-23.5C558.1,1015.7,557.3,1015.7,557.3,1016.1z"/>
<path class="st0" d="M565.9,1016.1c0.5,7.5,0.8,15.1,0.9,22.6c0,0.2,0.2,0.3,0.4,0.3c0.2,0,0.3-0.2,0.3-0.3
	c-0.1-7.6-0.4-15.1-0.9-22.6C566.6,1015.7,565.8,1015.7,565.9,1016.1z"/>
<path class="st0" d="M514.3,1016.1c-0.2,7.8,3,15.5,1.9,23.4c-0.1,0.5,0.7,0.7,0.7,0.2c1.2-8-2-15.6-1.8-23.6c0-0.2-0.2-0.3-0.4-0.3
	C514.4,1015.8,514.3,1016,514.3,1016.1L514.3,1016.1z"/>
<path class="st0" d="M523.9,1016.1c-0.4,7.8-0.2,15.6,0.6,23.3c0,0.5,0.8,0.5,0.8,0c-0.8-7.7-1-15.5-0.6-23.3
	C524.6,1015.7,523.9,1015.7,523.9,1016.1L523.9,1016.1z"/>
<path class="st0" d="M505.7,1016.6c0.8,7.5,1.2,15.1,1.3,22.6c0,0.2,0.2,0.3,0.4,0.3c0.2,0,0.3-0.2,0.3-0.3
	c-0.1-7.6-0.5-15.1-1.3-22.6C506.4,1016.1,505.6,1016.1,505.7,1016.6z"/>
<path class="st0" d="M531.7,1016.1c0.5,7.9,0.8,15.8,0.9,23.7c0,0.2,0.2,0.3,0.4,0.3c0.2,0,0.3-0.2,0.3-0.3
	c-0.1-7.9-0.4-15.8-0.9-23.7C532.5,1015.6,531.7,1015.6,531.7,1016.1L531.7,1016.1z"/>
<path class="st0" d="M592.8,1016.3c0.2,7.4-3,14.5-1.8,21.9c0.1,0.5,0.8,0.3,0.7-0.2c-1.2-7.3,2-14.4,1.9-21.7
	c0-0.2-0.2-0.3-0.4-0.3C592.9,1016,592.8,1016.2,592.8,1016.3L592.8,1016.3z"/>
<path class="st0" d="M583.2,1016.3c0.4,7.4,0.2,14.8-0.6,22.2c0,0.5,0.7,0.5,0.8,0c0.8-7.4,1-14.8,0.6-22.2
	C583.9,1015.8,583.1,1015.8,583.2,1016.3z"/>
<path class="st0" d="M576,1016.3c-0.8,7.3-1.2,14.7-1.3,22.1c0,0.2,0.2,0.3,0.4,0.3c0.2,0,0.3-0.2,0.3-0.3
	c0.1-7.4,0.5-14.7,1.3-22.1C576.8,1015.8,576,1015.9,576,1016.3z"/>
<path class="st0" d="M618.4,1016.3c0.1,7.3-1.2,14.5-0.8,21.8c0,0.5,0.8,0.5,0.8,0c-0.5-7.3,0.8-14.5,0.8-21.8
	c0-0.2-0.2-0.3-0.4-0.3C618.6,1016,618.4,1016.2,618.4,1016.3L618.4,1016.3z"/>
<path class="st0" d="M608.8,1016.3c0.4,7.4,0.2,14.8-0.6,22.2c0,0.5,0.7,0.5,0.8,0c0.8-7.4,1-14.8,0.6-22.2
	C609.5,1015.8,608.8,1015.8,608.8,1016.3z"/>
<path class="st0" d="M626.9,1016.3c-0.8,7.6-1.2,15.3-1.3,23c0,0.2,0.2,0.3,0.4,0.3c0.2,0,0.3-0.2,0.3-0.3c0.1-7.7,0.5-15.3,1.3-23
	C627.7,1015.8,627,1015.9,626.9,1016.3L626.9,1016.3z"/>
<path class="st0" d="M600.9,1016.3c-0.5,7.3-0.8,14.6-0.9,21.9c0,0.2,0.2,0.3,0.4,0.3c0.2,0,0.3-0.2,0.3-0.3
	c0.1-7.3,0.4-14.6,0.9-21.9C601.7,1015.8,601,1015.8,600.9,1016.3L600.9,1016.3z"/>
<path class="st0" d="M668.4,1017.1c-0.1,6.9,1.8,13.7,1.1,20.5c0,0.5,0.7,0.5,0.8,0c0.7-6.9-1.2-13.7-1.1-20.5
	c0-0.2-0.2-0.3-0.4-0.3C668.6,1016.8,668.4,1017,668.4,1017.1z"/>
<path class="st0" d="M677.6,1018.9c-0.4,6.4-0.2,12.8,0.6,19.1c0.1,0.5,0.8,0.5,0.8,0c-0.8-6.4-1-12.8-0.6-19.2
	C678.4,1018.5,677.7,1018.5,677.6,1018.9L677.6,1018.9z"/>
<path class="st0" d="M685.9,1017.7c0.8,6.4,1.2,12.8,1.3,19.2c0,0.2,0.2,0.3,0.4,0.3c0.2,0,0.3-0.2,0.3-0.3
	c-0.1-6.4-0.5-12.8-1.3-19.2C686.6,1017.3,685.8,1017.3,685.9,1017.7L685.9,1017.7z"/>
<path class="st0" d="M694.4,1019.2c0.5,6.2,0.8,12.3,0.9,18.5c0,0.2,0.2,0.3,0.4,0.3c0.2,0,0.3-0.2,0.3-0.3
	c-0.1-6.2-0.4-12.3-0.9-18.5C695.2,1018.7,694.4,1018.7,694.4,1019.2L694.4,1019.2z"/>
<path class="st0" d="M642.8,1017.1c-0.2,7.5,3,14.7,1.9,22.2c-0.1,0.5,0.7,0.7,0.7,0.2c1.2-7.6-2-14.9-1.8-22.4
	c0-0.2-0.2-0.3-0.4-0.3C642.9,1016.8,642.8,1017,642.8,1017.1L642.8,1017.1z"/>
<path class="st0" d="M652.4,1017.1c-0.4,7.3-0.2,14.7,0.6,22c0,0.5,0.8,0.5,0.8,0c-0.8-7.3-1-14.7-0.6-22
	C653.1,1016.6,652.4,1016.6,652.4,1017.1z"/>
<path class="st0" d="M634.2,1016.3c0.8,7.5,1.2,15.1,1.3,22.6c0,0.2,0.2,0.3,0.4,0.3c0.2,0,0.3-0.2,0.3-0.3
	c-0.1-7.6-0.5-15.1-1.3-22.6C634.9,1015.8,634.2,1015.8,634.2,1016.3L634.2,1016.3z"/>
<path class="st0" d="M660.2,1017.1c0.5,7.2,0.8,14.4,0.9,21.6c0,0.2,0.2,0.3,0.4,0.3c0.2,0,0.3-0.2,0.3-0.3
	c-0.1-7.2-0.4-14.4-0.9-21.5C661,1016.6,660.2,1016.6,660.2,1017.1L660.2,1017.1z"/>
<path class="st0" d="M702.3,1018.5c-0.1,6.1,1.8,12,1.1,18.1c-0.1,0.5,0.7,0.5,0.8,0c0.7-6.1-1.2-12-1.1-18.1c0-0.2-0.2-0.3-0.4-0.3
	C702.5,1018.2,702.4,1018.3,702.3,1018.5z"/>
<path class="st0" d="M711.6,1019.7c-0.4,5.8-0.2,11.6,0.6,17.4c0.1,0.5,0.8,0.3,0.7-0.2c-0.8-5.7-1-11.4-0.6-17.2
	C712.3,1019.2,711.6,1019.2,711.6,1019.7L711.6,1019.7z"/>
<path class="st0" d="M719.8,1019.8c0.8,5.3,1.2,10.7,1.3,16.1c0,0.2,0.2,0.3,0.4,0.3c0.2,0,0.3-0.2,0.3-0.3
	c-0.1-5.5-0.5-10.9-1.3-16.3C720.5,1019.1,719.7,1019.3,719.8,1019.8z"/>
<path class="st0" d="M728.3,1019.9c0.5,5.3,0.8,10.7,0.9,16c0,0.2,0.2,0.3,0.4,0.3c0.2,0,0.3-0.2,0.3-0.3c-0.1-5.3-0.4-10.7-0.9-16
	C729,1019.4,728.3,1019.4,728.3,1019.9z"/>
<path class="st0" d="M737.4,1021.4c-0.1,4.7,1.9,9.3,1.2,14c-0.1,0.5,0.7,0.7,0.7,0.2c0.7-4.8-1.2-9.4-1.1-14.2
	c0-0.2-0.2-0.3-0.4-0.3C737.5,1021.1,737.4,1021.3,737.4,1021.4L737.4,1021.4z"/>
<path class="st0" d="M746.6,1021.2c-0.4,4.5-0.2,9.1,0.6,13.5c0.1,0.5,0.8,0.3,0.7-0.2c-0.8-4.4-1-8.9-0.6-13.3
	C747.3,1020.7,746.6,1020.8,746.6,1021.2L746.6,1021.2z"/>
<path class="st0" d="M116.5,754c-30.4,1.2-60.8,0.3-91.2,0.6c-8.5,0.1-17,0.3-25.6,0.7c-0.5,0-0.5,0.8,0,0.8
	c30.3-1.3,60.6-0.4,90.9-0.7c8.6-0.1,17.2-0.2,25.9-0.6C117,754.7,117,754,116.5,754L116.5,754z"/>
<path class="st0" d="M407,755.4c-31.5-0.7-63-0.2-94.5-0.8c-8.8-0.1-17.6-0.4-26.4-0.7c-0.5,0-0.5,0.7,0,0.8
	c31.5,1.2,63,0.9,94.5,1.1c8.8,0.1,17.6,0.2,26.4,0.4c0.2,0,0.3-0.2,0.3-0.4C407.3,755.5,407.2,755.4,407,755.4L407,755.4z"/>
<path class="st0" d="M756.7,754c-28,0.7-56.1,0.8-84.1,1c-8,0.1-16,0.1-23.9,0.2c-0.2,0-0.3,0.2-0.3,0.4c0,0.2,0.2,0.3,0.3,0.3
	c28-0.3,56.1-0.4,84.1-0.8c8-0.1,16-0.3,23.9-0.5C757.2,754.7,757.2,753.9,756.7,754L756.7,754z"/>
<path class="st1" d="M650.6,807.1c-5.5-102.8,0.9-210.9,2.9-313.9c0.7-36.3-0.4-72.5-1.4-108.8c-1.8-61.5-1.5-67.8-3.2-129.3H410.5
	c8.8,130.8-3.1,477.1-4.9,551.7c7.6,0.9,15.4-0.3,23.1,0.1L650.6,807.1z"/>
<path class="st1" d="M438.8,354.3c-3.4-2.8-4.5-5.6-4-10c28.6-1,57.6-0.2,86.2-0.5c0,4.5-1.8,7.7-5.5,10.3c-0.2,0-2.9,0.2-3.1,0.2
	L438.8,354.3z"/>
<path class="st1" d="M438.7,344.2V277h78.6v66.8"/>
<line class="st1" x1="447.2" y1="277" x2="447.2" y2="343.8"/>
<line class="st1" x1="476.9" y1="277" x2="476.9" y2="343.8"/>
<line class="st1" x1="509.4" y1="277" x2="509.4" y2="343.8"/>
<line class="st1" x1="438.7" y1="293.8" x2="517.2" y2="293.8"/>
<line class="st1" x1="438.7" y1="319.8" x2="517.7" y2="319.8"/>
<path class="st1" d="M438.8,459c-3.4-2.8-4.5-5.6-4-10c28.6-1,57.6-0.2,86.2-0.5c0,4.5-1.8,7.7-5.5,10.3c-0.2,0-2.9,0.2-3.1,0.2
	L438.8,459z"/>
<path class="st1" d="M438.7,448.9v-67.2h78.6v66.8"/>
<line class="st1" x1="447.2" y1="381.7" x2="447.2" y2="448.5"/>
<line class="st1" x1="476.9" y1="381.7" x2="476.9" y2="448.5"/>
<line class="st1" x1="509.4" y1="381.7" x2="509.4" y2="448.5"/>
<line class="st1" x1="438.7" y1="398.5" x2="517.2" y2="398.5"/>
<line class="st1" x1="438.7" y1="424.5" x2="517.7" y2="424.5"/>
<path class="st1" d="M438.8,668.4c-3.4-2.8-4.5-5.6-4-10c28.6-1,57.6-0.2,86.2-0.5c0,4.5-1.8,7.7-5.5,10.3c-0.2,0-2.9,0.2-3.1,0.2
	L438.8,668.4z"/>
<path class="st1" d="M438.7,658.3v-67.2c1.2,0,0,0,1.2,0h77.4v66.8"/>
<line class="st1" x1="447.2" y1="591.1" x2="447.2" y2="657.9"/>
<line class="st1" x1="476.9" y1="591.1" x2="476.9" y2="657.9"/>
<line class="st1" x1="509.4" y1="591.1" x2="509.4" y2="657.9"/>
<line class="st1" x1="438.7" y1="607.9" x2="517.2" y2="607.9"/>
<line class="st1" x1="438.7" y1="633.8" x2="517.7" y2="633.8"/>
<path class="st1" d="M544.1,354.3c-3.4-2.8-4.5-5.6-4-10c28.6-1,57.6-0.2,86.2-0.5c0,4.5-1.8,7.7-5.5,10.3c-0.2,0-2.9,0.2-3.1,0.2
	L544.1,354.3z"/>
<path class="st1" d="M544,344.2V277h78.6v66.8"/>
<line class="st1" x1="552.5" y1="277" x2="552.5" y2="343.8"/>
<line class="st1" x1="582.2" y1="277" x2="582.2" y2="343.8"/>
<line class="st1" x1="614.7" y1="277" x2="614.7" y2="343.8"/>
<line class="st1" x1="544" y1="293.8" x2="622.6" y2="293.8"/>
<line class="st1" x1="544" y1="319.8" x2="623" y2="319.8"/>
<path class="st1" d="M544.1,459c-3.4-2.8-4.5-5.6-4-10c28.6-1,57.6-0.2,86.2-0.5c0,4.5-1.8,7.7-5.5,10.3c-0.2,0-2.9,0.2-3.1,0.2
	L544.1,459z"/>
<path class="st1" d="M544,448.9v-67.2h78.6v66.8"/>
<line class="st1" x1="552.5" y1="381.7" x2="552.5" y2="448.5"/>
<line class="st1" x1="582.2" y1="381.7" x2="582.2" y2="448.5"/>
<line class="st1" x1="614.7" y1="381.7" x2="614.7" y2="448.5"/>
<line class="st1" x1="544" y1="398.5" x2="622.6" y2="398.5"/>
<line class="st1" x1="544" y1="424.5" x2="622.6" y2="424.5"/>
<path class="st1" d="M544.1,563.7c-3.4-2.8-4.5-5.6-4-10c28.6-1,57.6-0.2,86.2-0.5c0,4.5-1.8,7.7-5.5,10.3c-0.2,0-2.9,0.2-3.1,0.2
	L544.1,563.7z"/>
<path class="st1" d="M544,553.6v-67.2h78.6v66.8"/>
<line class="st1" x1="552.5" y1="486.4" x2="552.5" y2="553.2"/>
<line class="st1" x1="582.2" y1="486.4" x2="582.2" y2="553.2"/>
<line class="st1" x1="614.7" y1="486.4" x2="614.7" y2="553.2"/>
<line class="st1" x1="544" y1="503.2" x2="622.6" y2="503.2"/>
<line class="st1" x1="544" y1="529.2" x2="623" y2="529.2"/>
<path class="st1" d="M544.1,668.4c-3.4-2.8-4.5-5.6-4-10c28.6-1,57.6-0.2,86.2-0.5c0,4.5-1.8,7.7-5.5,10.3c-0.2,0-2.9,0.2-3.1,0.2
	L544.1,668.4z"/>
<path class="st1" d="M544,658.3v-67.2c1.2,0,0,0,1.2,0h77.4v66.8"/>
<line class="st1" x1="552.5" y1="591.1" x2="552.5" y2="657.9"/>
<line class="st1" x1="582.2" y1="591.1" x2="582.2" y2="657.9"/>
<line class="st1" x1="614.7" y1="591.1" x2="614.7" y2="657.9"/>
<line class="st1" x1="544" y1="607.9" x2="622.6" y2="607.9"/>
<line class="st1" x1="544" y1="633.8" x2="623" y2="633.8"/>
<path class="st1" d="M409.6,685.5c40-6.4,80.8,0.8,121.3,1.4c9.6,0.1,19.1-0.1,28.7-0.3l88.2-2.1"/>
<path class="st1" d="M409.2,701c79.3,3.3,158.5,2.6,237.9-2"/>
<path class="st1" d="M440.8,702.5c0-6,0.3-12.1,0.9-18.1"/>
<path class="st1" d="M479.9,702.9c-0.5-6.2-0.3-12.4,0.6-18.5"/>
<path class="st1" d="M521,702.5v-15.4"/>
<path class="st1" d="M561.1,702.5c0-5.3,0.3-10.6,1-15.8"/>
<path class="st1" d="M601.2,700.2c-0.1-4.9,0.5-9.8,1.7-14.6"/>
<path class="st1" d="M632.8,699.1c-0.2-4.8,0.2-9.6,1.2-14.2"/>
<path class="st1" d="M626.4,730.1H429.9v-5.5c0.1-1.5,0.2-2.6,0.3-4.1h196.2V730.1z"/>
<path class="st1" d="M442.1,730.5c0.1,1,0.1,2,0.2,3.1V806"/>
<line class="st1" x1="614.1" y1="730.3" x2="614.1" y2="806.7"/>
<line class="st1" x1="532" y1="753.2" x2="532" y2="806.9"/>
<line class="st1" x1="563.4" y1="754.7" x2="563.4" y2="806.7"/>
<line class="st1" x1="501.1" y1="755.7" x2="501.1" y2="807.5"/>
<path class="st1" d="M563.4,730.1l9.5,17.3l-83.3-0.1c4.1-5.5,8.8-11.5,12.7-17.2"/>
<path class="st1" d="M497.8,750.4c0.2,1.3-0.1,2.6-0.8,3.7c-0.7,1.1-2,1.7-3.3,1.7c-1-0.1-1.9-0.5-2.6-1.2c-1.1-1.1-1.7-2.6-1.5-4.2
	v-3.3"/>
<path class="st1" d="M497.8,750.5c-0.1,1.5,0.4,3.1,1.5,4.2c0.7,0.7,1.7,1.1,2.6,1.2c1.3,0,2.5-0.7,3.3-1.7c0.7-1.1,1-2.4,0.8-3.7"
	/>
<path class="st1" d="M506.2,750.5c-0.1,1.5,0.4,3.1,1.6,4.2c0.7,0.7,1.6,1.1,2.6,1.2c1.3,0,2.5-0.7,3.3-1.7c0.7-1.1,1-2.4,0.8-3.7"
	/>
<path class="st1" d="M514.5,750.5c-0.1,1.5,0.4,3.1,1.6,4.2c0.7,0.7,1.6,1.1,2.6,1.2c1.3,0,2.5-0.7,3.3-1.7c0.7-1.1,1-2.4,0.8-3.7"
	/>
<path class="st1" d="M523.1,750.5c-0.1,1.5,0.5,3.1,1.6,4.2c0.7,0.7,1.7,1.1,2.7,1.2c1.3,0,2.5-0.7,3.3-1.7c0.7-1.1,1-2.4,0.8-3.7"
	/>
<path class="st1" d="M531.4,750.5c-0.1,1.5,0.4,3.1,1.5,4.2c0.7,0.7,1.7,1.1,2.7,1.2c1.3,0,2.5-0.7,3.3-1.7c0.7-1.1,1-2.4,0.8-3.7"
	/>
<path class="st1" d="M539.8,750.5c-0.1,1.5,0.4,3.1,1.5,4.2c0.7,0.7,1.7,1.1,2.7,1.2c1.3,0,2.5-0.7,3.3-1.7c0.7-1.1,1-2.4,0.8-3.7"
	/>
<path class="st1" d="M548.1,750.5c-0.1,1.5,0.4,3.1,1.6,4.2c0.7,0.7,1.6,1.1,2.6,1.2c1.3,0,2.5-0.7,3.3-1.7c0.7-1.1,1-2.4,0.8-3.7"
	/>
<path class="st1" d="M556.5,750.5c-0.1,1.5,0.4,3.1,1.6,4.2c0.7,0.7,1.6,1.1,2.6,1.2c1.3,0,2.5-0.7,3.3-1.7c0.7-1.1,1-2.4,0.8-3.7"
	/>
<path class="st1" d="M564.8,750.5c-0.1,1.5,0.4,3.1,1.6,4.2c0.7,0.7,1.6,1.1,2.6,1.2c1.3,0,2.5-0.7,3.3-1.7c0.7-1.1,1-2.4,0.8-3.7
	v-3.1"/>
<polygon class="st1" points="455.8,797.1 455.8,758.9 495.9,758.9 495.9,797 "/>
<polygon class="st1" points="568.7,797.1 568.7,758.9 608.8,758.9 608.8,797 "/>
<path class="st1" d="M524.6,779.2c-0.4,0.3-0.7,0.8-0.7,1.3c0,0.2,0,0.4,0,0.6c0.2,0.5,0.7,0.8,1.3,0.7c0.5-0.1,0.9-0.5,1.1-1
	C526.6,779.8,525.7,778.5,524.6,779.2z"/>
<path class="st1" d="M536.8,779.2c-0.4,0.3-0.7,0.8-0.7,1.3c0,0.2,0,0.4,0,0.6c0.2,0.5,0.7,0.8,1.2,0.7c0.5-0.1,1-0.5,1.1-1
	C538.8,779.8,537.9,778.5,536.8,779.2z"/>
<path class="st1" d="M457.9,343.8c0.5-1.2,1.1-2.4,1.7-3.6l9.9-19.6l2-0.4h21.9c3.4,8.2,6.2,15,9.9,23.1"/>
<path class="st1" d="M500.3,343.3c-3.1-6.5-5.5-13.4-9-19.6c-2.8,5.4-5.1,10.1-7.6,15.7"/>
<path class="st1" d="M480.8,340.6c-2.9-5.9-5-10.2-7.6-16.2l-0.6-1.5H489c-2.7,6-5.8,12-8.2,18.1"/>
<path class="st1" d="M477.3,339.7c-2.9-4.7-5.5-9.6-7.7-14.7c-2.6,5.8-5.6,12-8.4,17.6h14.7"/>
<path class="st1" d="M488.6,320.4c0-0.4,0-0.8,0-1.2v-4.4c2.4-0.1,4.9,0,7.3,0.2c1.6,0.1,3.2,0.5,4.6,1.3c2.4,1.7,3.4,4.7,2.5,7.4
	c-1,2.7-3.2,4.7-6,5.4"/>
<path class="st1" d="M491.7,320.3c0-1,0-2.1-0.1-3.1c1.4-0.1,2.8,0,4.2,0.1c1.6,0.1,3.4,0.4,4.5,1.6c0.9,1.1,1.2,2.6,0.9,3.9
	c-0.3,1.3-1.8,3.2-4.8,3.7"/>
<path class="st1" d="M466.6,317.4c0.8,1.6,1.5,3.2,2.3,4.8"/>
<path class="st1" d="M470.4,317.4c0.1,1,0.1,2,0.2,3.1c0,0.1,0.1,0.2,0.2,0.1"/>
<path class="st1" d="M475.7,343.8c-0.1-2.9,2.1-5.4,5-5.5c2.9-0.1,5.4,2.1,5.5,5c0,0.2,0,0.3,0,0.5"/>
<path class="st1" d="M450.4,343.8c0-5.4,4.4-9.9,9.9-9.9s9.9,4.4,9.9,9.9"/>
<path class="st1" d="M492.4,343.8c0-5.4,4.4-9.8,9.9-9.8c5.4,0,9.8,4.4,9.8,9.8"/>
<path class="st1" d="M447.8,343.8c-0.2-6.9,5.2-12.6,12.1-12.8s12.6,5.2,12.8,12.1c0,0.2,0,0.5,0,0.7"/>
<path class="st1" d="M489.8,343.8c-0.2-6.9,5.2-12.6,12.1-12.8s12.6,5.2,12.8,12.1c0,0.2,0,0.5,0,0.7"/>
<path class="st1" d="M472,316.9c0.6-0.4,1.2-0.8,1.7-1.2c0.4-0.3,0.8-0.8,0.5-1.2s-0.6-0.4-1-0.4h-3.1c-0.5,0-1,0-1.6,0.1
	c-1,0.2-1.9,0.9-2.4,1.9c-0.1,0.2-0.2,0.4-0.2,0.7C466.3,318.3,471.1,317.4,472,316.9z"/>
<path class="st1" d="M440.1,563.7c-3.4-2.8-4.5-5.6-4-10c28.6-1,57.6-0.2,86.2-0.5c0,4.5-1.8,7.7-5.5,10.3c-0.2,0-2.9,0.2-3.1,0.2
	L440.1,563.7z"/>
<path class="st1" d="M440,553.6v-67.2h78.6v66.8"/>
<line class="st1" x1="448.5" y1="486.4" x2="448.5" y2="553.2"/>
<line class="st1" x1="478.2" y1="486.4" x2="478.2" y2="553.2"/>
<line class="st1" x1="510.6" y1="486.4" x2="510.6" y2="553.2"/>
<line class="st1" x1="440" y1="503.2" x2="518.5" y2="503.2"/>
<line class="st1" x1="440" y1="529.2" x2="519" y2="529.2"/>
<path class="st1" d="M284.6,194.6c0.1,168.2,0.1,336.4,0,504.9"/>
<polygon class="st1" points="102.1,194 292.5,194.6 292.5,184.7 102.1,183.8 "/>
<path class="st1" d="M213.5,235.1l-1.8,87.8c0.7-0.1,1.5-0.1,2.2,0l41.9,0.3v-87.7L213.5,235.1z"/>
<path class="st1" d="M141,235.1l-1.8,87.8c0.7-0.1,1.5-0.1,2.2,0l41.9,0.3v-87.7L141,235.1z"/>
<path class="st1" d="M213.5,350.3l-1.8,87.8c0.7-0.1,1.5-0.1,2.2,0l41.9,0.3v-87.6L213.5,350.3z"/>
<path class="st1" d="M141,350.3l-1.8,87.8c0.7-0.1,1.5-0.1,2.2,0l41.9,0.3v-87.6L141,350.3z"/>
<path class="st1" d="M141,465.5l-1.8,87.8c0.7-0.1,1.5-0.1,2.2,0l41.9,0.3v-87.6L141,465.5z"/>
<path class="st1" d="M141,580.6l-1.8,87.8c0.7-0.1,1.5-0.1,2.2,0l41.9,0.3v-87.6L141,580.6z"/>
<path class="st1" d="M159.7,580.9v0.8l-0.2,0.2v86.8"/>
<path class="st1" d="M164,581.1v87.5"/>
<line class="st1" x1="164" y1="607" x2="182.5" y2="607"/>
<line class="st1" x1="140.1" y1="607" x2="159.4" y2="607"/>
<line class="st1" x1="164" y1="611.5" x2="183.3" y2="611.5"/>
<path class="st1" d="M140.1,611.2l2.5,0.3h16.9"/>
<path class="st1" d="M159.7,465.6v0.8l-0.2,0.2v86.8"/>
<path class="st1" d="M164,465.9v87.5"/>
<line class="st1" x1="164" y1="491.7" x2="183.4" y2="491.7"/>
<line class="st1" x1="140.1" y1="491.7" x2="159.4" y2="491.7"/>
<line class="st1" x1="164" y1="496.2" x2="183.3" y2="496.2"/>
<path class="st1" d="M140.1,496l2.5,0.3h16.9"/>
<path class="st1" d="M213.4,465.5l-1.8,87.8c0.7-0.1,1.5-0.1,2.2,0l41.9,0.3v-87.6L213.4,465.5z"/>
<path class="st1" d="M233.2,465.6v0.8l-0.2,0.2v86.8"/>
<path class="st1" d="M237.5,465.9v87.5"/>
<line class="st1" x1="237.5" y1="491.7" x2="255.8" y2="491.7"/>
<line class="st1" x1="212.9" y1="491.7" x2="232.9" y2="491.7"/>
<line class="st1" x1="237.5" y1="496.2" x2="255.8" y2="496.2"/>
<line class="st1" x1="212.8" y1="496.2" x2="233.1" y2="496.2"/>
<path class="st1" d="M213.4,580.8l-1.8,87.8c0.7-0.1,1.5-0.1,2.2,0l41.9,0.3v-87.6L213.4,580.8z"/>
<path class="st1" d="M233.2,581v0.8L233,582v86.8"/>
<path class="st1" d="M237.5,581.3v87.5"/>
<line class="st1" x1="237.5" y1="607.1" x2="255.8" y2="607.1"/>
<line class="st1" x1="212.9" y1="607.1" x2="232.9" y2="607.1"/>
<line class="st1" x1="237.5" y1="611.6" x2="255.8" y2="611.6"/>
<line class="st1" x1="212.8" y1="611.6" x2="233.1" y2="611.6"/>
<path class="st1" d="M159.7,350.5v0.8l-0.2,0.2v86.8"/>
<path class="st1" d="M164,350.7v87.5"/>
<line class="st1" x1="164" y1="376.5" x2="182.5" y2="376.5"/>
<line class="st1" x1="140.1" y1="376.5" x2="159.4" y2="376.5"/>
<line class="st1" x1="164" y1="381.1" x2="183.3" y2="381.1"/>
<path class="st1" d="M140.1,380.8l2.5,0.3h16.9"/>
<line class="st1" x1="233.1" y1="350.5" x2="233.1" y2="438.2"/>
<path class="st1" d="M237.6,350.7v87.5"/>
<line class="st1" x1="237.6" y1="376.5" x2="255.9" y2="376.5"/>
<line class="st1" x1="213" y1="376.5" x2="233" y2="376.5"/>
<line class="st1" x1="237.6" y1="381.1" x2="255.9" y2="381.1"/>
<line class="st1" x1="213" y1="380.9" x2="233.1" y2="380.9"/>
<path class="st1" d="M159.7,235.3v0.8l-0.2,0.2v86.8"/>
<path class="st1" d="M164,235.6v87.5"/>
<line class="st1" x1="164" y1="271.4" x2="182.5" y2="271.4"/>
<line class="st1" x1="140.1" y1="271.4" x2="159.4" y2="271.4"/>
<line class="st1" x1="164" y1="275.9" x2="183.3" y2="275.9"/>
<path class="st1" d="M140.1,275.6l2.5,0.3h16.9"/>
<path class="st1" d="M233.4,235.3v0.8l-0.2,0.2v86.8"/>
<path class="st1" d="M237.6,235.6v87.5"/>
<line class="st1" x1="237.6" y1="271.4" x2="256.2" y2="271.4"/>
<line class="st1" x1="213.8" y1="271.4" x2="233" y2="271.4"/>
<line class="st1" x1="237.6" y1="275.9" x2="256.9" y2="275.9"/>
<path class="st1" d="M213.8,275.6l2.5,0.3h16.9"/>
<path class="st1" d="M117.7,700.3c1.2-168.2-2.4-337.5-5.4-505.7"/>
<path class="st1" d="M189.3,805.8V743"/>
<path class="st1" d="M168.5,743h43.3"/>
<path class="st1" d="M113.8,708.8h49.8l125.4-0.3v-8.7H113.8V708.8z"/>
<path class="st1" d="M286.1,709c-0.3,1.2-0.4,2.4-0.2,3.6v92.9l-0.1,0.9H115.6c0.7-34.6,1.2-67,1.8-97.6"/>
<path class="st1" d="M285.3,740.1H212"/>
<line class="st1" x1="212.2" y1="747.1" x2="285.6" y2="747.1"/>
<path class="st1" d="M168.5,740.1H117"/>
<path class="st1" d="M116.7,747.1h51.5"/>
<path class="st1" d="M159.1,541c-3.9,2.9-4.8,8.3-2.2,12.4"/>
<path class="st1" d="M158.6,541.6c0.3-3.9-0.3-7.7-1.6-11.4c-0.5-1.4-1.4-3-2.9-3.3c-0.2-0.1-0.5,0-0.7,0.1
	c-0.2,0.1-0.4,0.3-0.5,0.6"/>
<path class="st1" d="M154.8,529.8c0.5,0.5,0.8,1.1,1,1.8c1.1,3.2,1.8,6.6,2.2,10"/>
<path class="st1" d="M257.8,311.5c-1.8,0.8-3.4,1.8-4.9,3c-1.9,1.6-3.7,3.3-5.3,5.3c1.8-5.7,5.2-10.7,8.5-15.7
	c-0.9,1.4-3.1,2.5-4.2,3.8c-1.3,1.5-2.4,3-3.3,4.8c-0.2,0.4-0.6,1.3-1.1,2.4c0-1.6,0-3-0.1-3.6c-0.2-1.9-0.6-3.8-1.2-5.7
	c-0.6-1.6-2.1-3.5-2.5-5.1c1.1,5.8,2.2,11.6,1.8,17.4c-0.6-1.9-1.4-3.7-2.3-5.5c-0.9-1.7-2-3.3-3.3-4.8c-1.1-1.3-3.3-2.4-4.2-3.8
	c3.3,5,6.7,10.1,8.5,15.8c0.3,1,0.5,2.6,1.3,3.3c0-0.2,0.1-0.3,0.3-0.3s0.3,0.1,0.3,0.3l0,0c0.1,0,0.1-0.1,0.1-0.2
	c0,0.1,0,0.1,0.1,0.2c1-0.4,1.8-1.7,2.6-2.5c4-4.5,9.2-7.8,14.2-11C261.8,310.7,259.4,310.8,257.8,311.5z"/>
<path class="st1" d="M226.4,380.9c-3,7.1-8.1,15-13.8,20.2"/>
<path class="st1" d="M232.9,356.1c-1.4,6.8-3.1,13.5-5.1,20.2"/>
<path class="st1" d="M242.1,381.2c0.4,1.3,0.8,2.6,1.2,3.9c2.5,7.6,5.8,15.4,12.6,19.7"/>
<path class="st1" d="M237.5,356.9c0.6,6.5,1.7,13,3.2,19.4"/>
<path class="st1" d="M215.5,398.5c0.2,6.1,1,12.2,2.3,18.1c0.8,3.4,2,6.7,2.2,10.2c0.2,3.8-0.6,7.5-1.5,11.2"/>
<path class="st1" d="M251.5,401c1.2,6.6,0.1,14-1.6,20.5c-1.5,5.8-4.2,10.9-3.4,16.9"/>
<path class="st1" d="M146,531c-1,1.7-1.5,3.7-1.3,5.7c0.1,1.5,0.6,2.9,0.7,4.4c0,1.3-0.2,2.7,0.6,3.7c0.3-0.9,1-1.5,1.9-1.8
	c0.8-0.3,1.7-0.5,2.5-0.9c2.1-1,3.1-3.4,3.7-5.6c0.8-2.6,1.3-6.6-1.4-8.4C150.4,526.4,147.2,529,146,531z"/>
<path class="st1" d="M148.8,537.7c0.4-3.1,1.6-6,3.4-8.6"/>
<path class="st1" d="M164.1,540.6c0.1-2.2,0.6-4.4,1.3-6.5c0.7-2.1,2-4,3.6-5.5"/>
<path class="st1" d="M164.2,533.1c0.6-2.4,2-4.6,3.9-6.2c0.5-1.5,1.6-2.8,3.1-3.5c1.4-0.6,2.9-0.5,4.2,0.2c2,1.1,3,3.5,3.3,5.7
	s0,4.6,0.3,6.8c0.3,1.8,0.7,3.7,1.3,5.4c0.1,0.5,0,1.2-0.5,1c-0.4-1.2-0.8-2.5-1.2-3.7c-0.1-0.5-0.3-0.9-0.7-1.3
	c-0.4-0.3-0.9-0.5-1.4-0.6c-2.7-0.7-4.8-2.8-5.7-5.4c-0.4-1.3-0.5-2.7-1.4-3.7c-0.5-0.5-1.2-0.9-1.2-1.6"/>
<path class="st1" d="M172.9,527.7c0.9,0.4,1.6,1.1,2.1,2c0.3,0.7,0.5,1.5,0.7,2.3c0.3,1,0.8,1.9,1.4,2.7"/>
<path class="st1" d="M211.7,806.4h-43.2c0,0,0.7-20.2,0-35.9s0-30.4,0-30.4c0-11.9,3.3-21.1,21.6-21.6s21.6,9.8,21.6,21.6
	c0,0,0.8,28.4,0,40.7C211.3,789.3,211.3,797.9,211.7,806.4z"/>
<path class="st1" d="M207.1,743.4c-0.1-6.3,0.3-14-5.4-18.2c-7-5-22.1-4-26.6,4.1c-2.3,4.2-2,9.3-2.1,13.9"/>
<polygon class="st1" points="184.4,778.2 186.5,776.5 187.3,777.3 186.4,779.7 "/>
<polygon class="st1" points="194.2,778.2 192.1,776.5 191.3,777.3 192.2,779.7 "/>
<path class="st1" d="M284.6,288.2c7.4,6.6,26.9,14.1,36.6,16.1c26.9,5.6,43.2,12.5,70.7,10.9c7.5-0.5,18.3-2.6,21.6-4.5"/>
<path class="st1" d="M380.7,336.1c0.5-6.4,0.7-12.5,0.6-18.9c6.1-1.3,8.6-0.1,10.9-0.2s5.8-0.7,6.6-0.5c0.3,6.4,1,12.8,2,19.2
	c-1.9,0.4-3.5,1.7-4.3,3.4c-0.4,1.8-0.5,3.5-0.4,5.3"/>
<path class="st1" d="M380.7,336.1c0.7,0.1,3.5-0.1,4.2,2.7c0.4,1.7,0.7,3.5,0.7,5.3c1,0,1.7-0.1,2.8,0"/>
<path class="st1" d="M396,344.5c-0.8,0.1-1.6,0.3-2.3,0.5c-0.5-2.6-1.1-5.2-1.7-7.8c-0.2-0.8-0.4-1.6-0.6-2.3
	c-0.1-0.3-0.3-0.6-0.5-0.9c-0.3-0.3-0.7-0.3-1-0.2c-0.3,0.2-0.5,0.4-0.6,0.7c-0.6,1.5-0.9,3.2-0.9,4.8c0.1,1.6,0.1,3.2-0.1,4.8"/>
<path class="st1" d="M352.7,337c0.3-0.7-0.3-1.6-2.3-2.6s-4.5-0.8-4.8,0"/>
<path class="st1" d="M351.4,349.4c2.3,0.4,4.7,0.6,7,0.6c0.8-12,1.5-23.9,4-35.8c-7.5,0.9-11.7-2.1-18.8-3.1
	c-2.8,12.1-4.5,24.4-5.3,36.7c1.1,1.2,2.4,2.3,3.7,3.2c0.5-5.6,1.7-11.1,3.6-16.5c1.6,2.8,5.2,4.1,7,2.5c-1.1,3.2-1.9,9.2-1.3,11
	C351.4,348.5,351.4,348.9,351.4,349.4z"/>
<path class="st0" d="M345.9,309.2c0-0.1,0-0.2,0.1-0.3c0,0,0.1,0,0.1,0l1,0.1c0.1,0,0.1,0,0.1,0.1c0,0.1,0,0.1,0,0.2
	c-0.1,0.8-0.2,1.5-0.3,2.3c-0.1,0.5-0.1,1.4-0.6,1S345.9,310,345.9,309.2z"/>
<path class="st0" d="M357.9,311.6c0-0.1,0-0.3,0.1-0.4c0.1,0,0.1-0.1,0.2-0.1l0.9-0.1c0.1,0,0.2,0,0.3,0c0.2,0.1,0.2,0.4,0.2,0.7
	c-0.1,1-0.3,2.1-0.6,3.1c-0.3,0.9-0.7,0.1-0.8-0.4C358,313.6,358,312.5,357.9,311.6z"/>
<path class="st0" d="M384.3,315.1c0-0.3,0-0.6,0.2-0.7c0.1,0,0.2,0,0.2,0c0.2,0.1,0.5,0.3,0.7,0.4c0.1,0.1,0.1,0.1,0.2,0.2
	c0,0.1,0,0.2,0,0.3c0,0.5-0.1,1-0.2,1.4c0,0.3-0.2,0.5-0.4,0.7C384.3,318,384.4,315.7,384.3,315.1z"/>
<path class="st0" d="M395.2,314.3c0.1,0,0.1,0.1,0.1,0.1c0,0.1,0,0.2,0,0.2c0,0.9-0.1,4.1-0.9,2.4
	C393.8,315.6,394,313.9,395.2,314.3z"/>
<path class="st0" d="M309.8,301.2c0-0.1,0-0.1,0-0.2c0-0.1,0.1-0.1,0.2-0.1c0.4,0,0.8,0.3,0.9,0.7c0,0.2,0,0.4,0,0.6
	c-0.1,0.7-0.4,3-1,2.4C309.5,304.2,309.7,302,309.8,301.2z"/>
<path class="st1" d="M314.5,321.2c0.6-1.6,1.5-3,2.5-4.4c1.2-1.2,3.9-1.5,5.8-1.3c1.5-2.6,2.1-5.5,1.9-8.5
	c-5.4-0.5-12.5-2.4-18.8-4.5c-1,2.1-1.4,4.4-1.1,6.7c0.3,0.4,3.5,1.8,4.4,3.9s-0.1,4.7-0.3,6.2C310.3,319.7,313.1,320.9,314.5,321.2
	"/>
<path class="st0" d="M320.2,303.7c0-0.1,0-0.1,0-0.2c0-0.1,0.1-0.1,0.2-0.1c0.4-0.1,0.8,0.2,0.9,0.7c0,0.2,0,0.4,0,0.6
	c-0.1,0.7-0.4,3-1,2.4C319.9,306.7,320.2,304.5,320.2,303.7z"/>
<path class="st1" d="M343.9,311.3c0.8,1.8,2.2,3.4,3.9,4.5c2.6,1.4,5.9,0,8,0s2.7,0.7,4.4,0.7s2.1-2.3,2.1-2.3"/>
<path class="st1" d="M381.3,317.2c0,0,0.3,1.4,7.1,1.6s10.4-2.3,10.4-2.3"/>
<path class="st2" d="M692.6,818.9c-14.1-9.8-50.2-9-50.2-9s-28.6-33.5-72.5-28.8c-21.2,2.3-39.9,11.1-59.3,22.8
	s-28.6,18.9-29.9,21.5s-1.5,22.3-0.8,23.2s14.6,0.4,15.4-0.1s3.4-21.2,20.4-20.8s21.7,9.2,22.6,21h101.6
	c0.9-12.5,11.8-21.8,24.2-20.9c11.2,0.8,20.1,9.7,20.9,20.9h19.5C704.4,848.7,706.7,828.7,692.6,818.9z"/>
<path class="st2" d="M570.7,809.3c0.8-0.8,0-23,0-23c-20.1,3.3-40.2,13.4-55.6,23C515.1,809.3,569.9,810.1,570.7,809.3z"/>
<path class="st2" d="M577.9,784.9c0,0-0.6,24.4,0,25s54.2,0,54.2,0C624.2,802.4,604.8,787,577.9,784.9z"/>
<path class="st2" d="M594,818.4c-0.2,0.4-15.3,0-15.3,0s-0.5-2.1,0-2.8s14.9-0.4,15.3,0S594.2,818,594,818.4z"/>
<path class="st2" d="M479.5,838.9c0,0-3.6-1.8-3.3-5s3.6-4,3.6-4s0.7,0.2,0.7,4.1S479.5,838.9,479.5,838.9z"/>
<path class="st2" d="M499,848.3c0-3.7,0.9-16.7,17.6-16.4s17.8,13.6,17.8,17.5s0.8,17.3-17.7,17.7S499,852,499,848.3z"/>
<path class="st2" d="M506.9,848.9c0-2,0.5-9.2,9.7-9c9.2,0.2,9.8,7.5,9.8,9.6s0.4,9.5-9.8,9.7S506.9,850.9,506.9,848.9z"/>
<path class="st2" d="M536.5,809.3l-2.7-5c-0.6-1.1-0.6-3.6,2.7-4.5s5.5,3,5.5,3l4.3,6.5"/>
<path class="st2" d="M587.9,809.9l-2.7-5c-0.6-1.1-0.6-3.6,2.7-4.5s5.5,3.1,5.5,3.1l4.3,6.5"/>
<path class="st3" d="M695.6,825.3c1.6-0.6,3.2-1.1,4.9-1.4c2.4-0.5,7,12,5.1,13.3c-1.4,0.8-2.9,1.3-4.5,1.6
	C695.9,840.2,691,827.7,695.6,825.3z"/>
<path class="st2" d="M644.7,848.3c0-3.7,0.9-16.7,17.6-16.4s17.8,13.6,17.8,17.5s0.8,17.3-17.7,17.7S644.7,852,644.7,848.3z"/>
<path class="st2" d="M652.6,848.9c0-2,0.5-9.2,9.7-9s9.8,7.5,9.8,9.6s0.4,9.5-9.8,9.7S652.6,850.9,652.6,848.9z"/>
<path class="st2" d="M496.5,843.6l-17,0.1h17C496.5,843.7,496.5,843.7,496.5,843.6z"/>
<path class="st2" d="M537.5,843.4c0,0.1,0,0.2,0.1,0.4H592C585.4,843.4,561.6,843.3,537.5,843.4z"/>
<path class="st2" d="M684.1,844c12.1-0.1,20.5-0.2,20.5-0.2h-20.4C684.1,843.8,684.1,843.9,684.1,844z"/>
<path class="st2" d="M640.6,843.8H592c6,0.4,26.6,0.5,48.6,0.4C640.6,844,640.6,843.9,640.6,843.8z"/>
<path class="st2" d="M420.9,593.4c0,0-7.3-0.4-19.7,0s-26.4,0-26.4,0c-1.1,0-2-0.9-2-2c0,0-0.4-11.5,0-19.2s0-13.5,0-13.5
	c-0.1-1.1,0.8-1.9,1.8-2c0.1,0,0.1,0,0.2,0c0.7,0,11.3-0.7,25.3,0s20.7,0,20.7,0c1.1,0,2,0.9,2,2c0.3,3.7,0.3,7.5,0,11.2
	c-0.5,6.4,0,21.6,0,21.6C422.9,592.5,422,593.4,420.9,593.4z"/>
<circle class="st2" cx="389.3" cy="574.6" r="15.2"/>
<circle class="st2" cx="389.3" cy="574.6" r="13.3"/>
<path class="st1" d="M418.7,574.4c0,0-1.6,0-4.2,0s-5.7,0-5.7,0c-0.2,0-0.4,0-0.4-0.1c0-0.3,0-0.7,0-1c0-0.2,0-0.5,0-0.7
	c0,0,0.2-0.1,0.4-0.1s2.4,0,5.5,0s4.5,0,4.5,0c0.2,0,0.4,0,0.4,0.1c0.1,0.2,0.1,0.4,0,0.6c-0.1,0.4-0.1,0.7,0,1.1
	C419.2,574.3,419,574.4,418.7,574.4z"/>
<path class="st1" d="M418.7,579.2c0,0-1.6,0-4.2,0s-5.7,0-5.7,0c-0.2,0-0.4,0-0.4-0.1c0-0.3,0-0.7,0-1c0-0.2,0-0.5,0-0.7
	c0,0,0.2-0.1,0.4-0.1s2.4,0,5.5,0s4.5,0,4.5,0c0.2,0,0.4,0,0.4,0.1c0.1,0.2,0.1,0.4,0,0.6c-0.1,0.4-0.1,0.7,0,1.1
	C419.2,579.1,419,579.2,418.7,579.2z"/>
<path class="st1" d="M418.7,584c0,0-1.6,0-4.2,0s-5.7,0-5.7,0c-0.2,0-0.4,0-0.4-0.1c0-0.3,0-0.7,0-1c0-0.2,0-0.5,0-0.7
	c0,0,0.2-0.1,0.4-0.1s2.4,0,5.5,0s4.5,0,4.5,0c0.2,0,0.4,0,0.4,0.1c0.1,0.2,0.1,0.4,0,0.6c-0.1,0.4-0.1,0.7,0,1.1
	C419.2,583.9,419,584,418.7,584z"/>
<circle class="st2" cx="417.5" cy="567.8" r="1.7"/>
<circle class="st2" cx="411.2" cy="567.8" r="2.9"/>
<path class="st2" d="M315.1,465.6c0,0-7.3-0.4-19.7,0s-26.4,0-26.4,0c-1.1,0-2-0.9-2-2c0,0-0.4-11.5,0-19.2s0-13.5,0-13.5
	c-0.1-1.1,0.8-1.9,1.8-2c0.1,0,0.1,0,0.2,0c0.7,0,11.3-0.7,25.3,0s20.7,0,20.7,0c1.1,0,2,0.9,2,2c0.3,3.7,0.3,7.5,0,11.2
	c-0.5,6.4,0,21.5,0,21.5C317.1,464.8,316.2,465.6,315.1,465.6z"/>
<circle class="st2" cx="283.5" cy="446.9" r="15.2"/>
<circle class="st2" cx="283.5" cy="446.9" r="13.3"/>
<path class="st1" d="M313,446.7h-4.2c-2.6,0-5.7,0-5.7,0c-0.2,0-0.4,0-0.4-0.1c0-0.3,0-0.7,0-1c0-0.2,0-0.5,0-0.7
	c0-0.1,0.2-0.1,0.4-0.1s2.4,0,5.5,0s4.5,0,4.5,0c0.2,0,0.4,0,0.4,0.1c0.1,0.2,0.1,0.4,0,0.6c-0.1,0.4-0.1,0.7,0,1.1
	C313.4,446.6,313.2,446.7,313,446.7z"/>
<path class="st1" d="M313,451.5c0,0-1.6,0-4.2,0h-5.7c-0.2,0-0.4,0-0.4-0.1c0-0.3,0-0.7,0-1c0-0.2,0-0.5,0-0.7
	c0-0.1,0.2-0.1,0.4-0.1s2.4,0,5.5,0s4.5,0,4.5,0c0.2,0,0.4,0,0.4,0.1c0.1,0.2,0.1,0.4,0,0.6c-0.1,0.4-0.1,0.7,0,1.1
	C313.4,451.5,313.2,451.5,313,451.5z"/>
<path class="st1" d="M313,456.3c0,0-1.6,0-4.2,0h-5.7c-0.2,0-0.4,0-0.4-0.1c0-0.3,0-0.7,0-1c0-0.2,0-0.5,0-0.7
	c0-0.1,0.2-0.1,0.4-0.1s2.4,0,5.5,0s4.5,0,4.5,0c0.2,0,0.4,0,0.4,0.1c0.1,0.2,0.1,0.4,0,0.6c-0.1,0.4-0.1,0.7,0,1.1
	C313.4,456.3,313.2,456.3,313,456.3z"/>
<circle class="st2" cx="311.7" cy="440.1" r="1.7"/>
<circle class="st2" cx="305.5" cy="440.1" r="2.9"/>
<path class="st2" d="M129.2,244.9c0,0-7.3-0.4-19.7,0s-26.4,0-26.4,0c-1.1,0-2-0.9-2-2c0,0-0.3-11.6,0-19.2s0-13.5,0-13.5
	c-0.1-1.1,0.8-1.9,1.8-2c0.1,0,0.1,0,0.2,0c0.7,0,11.3-0.7,25.3,0s20.7,0,20.7,0c1.1,0,2,0.9,2,2c0.3,3.7,0.3,7.5,0,11.2
	c-0.5,6.4,0,21.6,0,21.6C131.2,244,130.3,244.9,129.2,244.9z"/>
<circle class="st2" cx="97.6" cy="226.2" r="15.2"/>
<circle class="st2" cx="97.6" cy="226.2" r="13.3"/>
<path class="st1" d="M127,226c0,0-1.6,0-4.2,0s-5.7,0-5.7,0c-0.2,0-0.4,0-0.4-0.1c0-0.3,0-0.7,0-1c0-0.2,0-0.5,0-0.7
	c0-0.1,0.2-0.1,0.4-0.1s2.4,0,5.4,0s4.4,0,4.4,0c0.2,0,0.4,0,0.4,0.1c0.1,0.2,0.1,0.4,0,0.6c-0.1,0.4-0.1,0.7,0,1.1
	C127.4,225.9,127.2,226,127,226z"/>
<path class="st1" d="M127,230.8c0,0-1.6,0-4.2,0s-5.7,0-5.7,0c-0.2,0-0.4,0-0.4-0.1c0-0.3,0-0.7,0-1c0-0.2,0-0.5,0-0.7
	c0-0.1,0.2-0.1,0.4-0.1s2.4,0,5.4,0s4.4,0,4.4,0c0.2,0,0.4,0,0.4,0.1c0.1,0.2,0.1,0.4,0,0.6c-0.1,0.4-0.1,0.7,0,1.1
	C127.4,230.7,127.2,230.8,127,230.8z"/>
<path class="st1" d="M127,235.6c0,0-1.6,0-4.2,0s-5.7,0-5.7,0c-0.2,0-0.4,0-0.4-0.1c0-0.3,0-0.7,0-1c0-0.2,0-0.5,0-0.7
	c0-0.1,0.2-0.1,0.4-0.1s2.4,0,5.4,0s4.4,0,4.4,0c0.2,0,0.4,0,0.4,0.1c0.1,0.2,0.1,0.4,0,0.6c-0.1,0.4-0.1,0.7,0,1.1
	C127.4,235.5,127.2,235.6,127,235.6z"/>
<circle class="st2" cx="125.7" cy="219.4" r="1.7"/>
<circle class="st2" cx="119.5" cy="219.4" r="2.9"/>
<path class="st2" d="M691.8,302.2c0,0-7.3-0.4-19.7,0s-26.4,0-26.4,0c-1.1,0-2-0.9-2-2c0,0-0.3-11.5,0-19.2s0-13.5,0-13.5
	c-0.1-1.1,0.8-1.9,1.8-2c0.1,0,0.1,0,0.2,0c0.7,0,11.3-0.7,25.3,0s20.7,0,20.7,0c1.1,0,2,0.9,2,2c0.3,3.7,0.3,7.5,0,11.2
	c-0.5,6.4,0,21.6,0,21.6C693.8,301.3,692.9,302.2,691.8,302.2z"/>
<circle class="st2" cx="660.3" cy="283.4" r="15.2"/>
<circle class="st2" cx="660.3" cy="283.4" r="13.3"/>
<path class="st1" d="M689.7,283.2c0,0-1.6,0-4.2,0s-5.7,0-5.7,0c-0.2,0-0.4,0-0.4-0.1c0-0.3,0-0.7,0-1c0-0.2,0-0.5,0-0.7
	c0,0,0.2-0.1,0.4-0.1s2.4,0,5.5,0s4.5,0,4.5,0c0.2,0,0.4,0,0.4,0.1c0.1,0.2,0.1,0.4,0,0.6c-0.1,0.4-0.1,0.7,0,1.1
	C690.1,283.2,689.9,283.2,689.7,283.2z"/>
<path class="st1" d="M689.7,288c0,0-1.6,0-4.2,0s-5.7,0-5.7,0c-0.2,0-0.4,0-0.4-0.1c0-0.3,0-0.7,0-1c0-0.2,0-0.5,0-0.7
	c0,0,0.2-0.1,0.4-0.1s2.4,0,5.5,0s4.5,0,4.5,0c0.2,0,0.4,0,0.4,0.1c0.1,0.2,0.1,0.4,0,0.6c-0.1,0.4-0.1,0.7,0,1.1
	C690.1,288,689.9,288,689.7,288z"/>
<path class="st1" d="M689.7,292.9c0,0-1.6,0-4.2,0s-5.7,0-5.7,0c-0.2,0-0.4,0-0.4-0.1c0-0.3,0-0.7,0-1c0-0.2,0-0.5,0-0.7
	c0,0,0.2-0.1,0.4-0.1s2.4,0,5.5,0s4.5,0,4.5,0c0.2,0,0.4,0,0.4,0.1c0.1,0.2,0.1,0.4,0,0.6c-0.1,0.4-0.1,0.7,0,1.1
	C690.1,292.8,689.9,292.9,689.7,292.9z"/>
<circle class="st2" cx="688.4" cy="276.6" r="1.7"/>
<circle class="st2" cx="682.2" cy="276.6" r="2.9"/>
<polyline class="st1" points="668.5,302.4 650.5,323.2 650.6,320 665.9,302.4 668.5,302.4 "/>
<polyline class="st1" points="95.6,245.1 113.6,265.9 113.5,262.7 98.2,245.1 95.6,245.1 "/>
<polyline class="st1" points="302.7,465.5 284.7,486.3 284.8,483.1 300.1,465.5 302.7,465.5 "/>
<polyline class="st1" points="392.5,594 410.5,614.8 410.5,611.7 395.1,594 392.5,594 "/>
<path class="st4" d="M101.3,791.4H71c-0.2,0-0.4-0.2-0.4-0.4c0,0,0,0,0-0.1l0.5-2.7l-0.5-2.9c0-0.1,0-0.2,0.1-0.3
	c0.1-0.1,0.2-0.1,0.3-0.1h75.8c0.1,0,0.2,0,0.3,0.1c0.1,0.1,0.1,0.2,0.1,0.3l-0.3,2.2l0.6,4.3c0,0.1,0,0.2-0.1,0.3
	c-0.1,0.1-0.2,0.1-0.3,0.1L101.3,791.4z"/>
<path class="st0" d="M146.8,785.3L146.8,785.3 M146.8,785.3l-0.3,2.3l0.6,4.4l-45.8-0.9H71l0.5-2.7l-0.5-3L146.8,785.3 M146.8,784.6
	H71c-0.2,0-0.4,0.1-0.6,0.3c-0.1,0.2-0.2,0.4-0.2,0.6l0.5,2.9l-0.5,2.6c-0.1,0.4,0.2,0.8,0.6,0.9c0,0,0.1,0,0.1,0h30.3l45.8,0.9l0,0
	c0.2,0,0.4-0.1,0.6-0.2c0.1-0.2,0.2-0.4,0.2-0.6l-0.6-4.3l0.3-2.1c0-0.1,0-0.1,0-0.2C147.5,784.9,147.2,784.6,146.8,784.6
	L146.8,784.6z M146.8,786.1L146.8,786.1z"/>
<path class="st4" d="M71,809.5c-0.2,0-0.4-0.2-0.4-0.4c0,0,0,0,0-0.1l0.5-3l-0.5-2.7c0-0.1,0-0.2,0.1-0.3c0.1-0.1,0.2-0.1,0.3-0.1
	h30.3l45.8-0.9c0.1,0,0.2,0,0.3,0.1c0.1,0.1,0.1,0.2,0.1,0.3l-0.6,4.3l0.3,2.2c0,0.1,0,0.2-0.1,0.3c-0.1,0.1-0.2,0.1-0.3,0.1
	L71,809.5z"/>
<path class="st0" d="M147.1,802.5l-0.6,4.4l0.3,2.3H71l0.5-3l-0.5-2.8h30.3L147.1,802.5 M147.1,801.7L147.1,801.7l-45.8,0.9H71
	c-0.2,0-0.4,0.1-0.6,0.3c-0.1,0.2-0.2,0.4-0.2,0.6l0.5,2.6l-0.5,2.9c0,0.2,0,0.4,0.2,0.6c0.1,0.2,0.4,0.3,0.6,0.3h75.8
	c0.2,0,0.4-0.1,0.6-0.2c0.1-0.2,0.2-0.4,0.2-0.6l-0.3-2.2l0.6-4.3c0-0.2,0-0.4-0.2-0.6C147.6,801.8,147.4,801.7,147.1,801.7
	L147.1,801.7z M147.1,803.2L147.1,803.2z"/>
<path class="st4" d="M71.3,797.6c-0.2,0-0.4-0.2-0.4-0.4c0,0,0,0,0,0l0.3-2.2l-0.6-4.3c0-0.1,0-0.2,0.1-0.3c0.1-0.1,0.2-0.1,0.3-0.1
	l45.8,0.9h30.4c0.1,0,0.2,0.1,0.3,0.1c0.1,0.1,0.1,0.2,0.1,0.3l-0.5,2.7l0.5,2.9c0,0.1,0,0.2-0.1,0.3c-0.1,0.1-0.2,0.1-0.3,0.1
	L71.3,797.6z"/>
<path class="st0" d="M71,790.5l45.8,0.9h30.4l-0.5,2.7l0.5,3H71.3l0.3-2.3L71,790.5 M147.1,791.4L147.1,791.4 M71,789.8
	c-0.2,0-0.4,0.1-0.6,0.3c-0.1,0.2-0.2,0.4-0.2,0.6l0.6,4.3l-0.3,2.2c0,0.2,0,0.4,0.2,0.6c0.1,0.2,0.3,0.3,0.6,0.3h75.8
	c0.2,0,0.4-0.1,0.6-0.3c0.1-0.2,0.2-0.4,0.2-0.6l-0.5-2.9l0.5-2.5c0-0.1,0-0.1,0-0.2c0-0.4-0.3-0.7-0.7-0.7c0,0,0,0,0,0h-30.3
	L71,789.8z"/>
<path class="st4" d="M71.3,803.4c-0.2,0-0.4-0.2-0.4-0.4c0,0,0,0,0,0l0.3-2.2l-0.6-4.3c0-0.1,0-0.2,0.1-0.3c0.1-0.1,0.2-0.1,0.3-0.1
	l45.8,0.9h30.4c0.1,0,0.2,0.1,0.3,0.1c0.1,0.1,0.1,0.2,0.1,0.3L147,800l0.5,2.9c0,0.1,0,0.2-0.1,0.3c-0.1,0.1-0.2,0.1-0.3,0.1
	L71.3,803.4z"/>
<path class="st0" d="M71,796.4l45.8,0.9h30.4l-0.5,2.8l0.5,3H71.3l0.3-2.3L71,796.4 M147.1,797.2L147.1,797.2 M71,795.6
	c-0.2,0-0.4,0.1-0.6,0.2c-0.1,0.2-0.2,0.4-0.2,0.6l0.6,4.3l-0.3,2.2c0,0.2,0,0.4,0.2,0.6c0.1,0.2,0.3,0.3,0.6,0.3h75.8
	c0.2,0,0.4-0.1,0.6-0.3c0.1-0.2,0.2-0.4,0.2-0.6l-0.5-2.9l0.5-2.5c0-0.1,0-0.1,0-0.2c0-0.4-0.3-0.7-0.7-0.7c0,0,0,0,0,0h-30.3
	L71,795.6z"/>
<path class="st4" d="M266.5,791.4h-30.4c-0.1,0-0.2-0.1-0.3-0.1c-0.1-0.1-0.1-0.2-0.1-0.3l0.5-2.7l-0.5-2.9c0-0.1,0-0.2,0.1-0.3
	c0.1-0.1,0.2-0.1,0.3-0.1H312c0.2,0,0.4,0.2,0.4,0.4c0,0,0,0,0,0l-0.3,2.2l0.6,4.3c0,0.1,0,0.2-0.1,0.3c-0.1,0.1-0.2,0.1-0.3,0.1
	L266.5,791.4z"/>
<path class="st0" d="M312,785.3L312,785.3 M312,785.3l-0.3,2.3l0.6,4.4l-45.8-0.9h-30.4l0.6-2.7l-0.6-3L312,785.3 M312,784.6h-75.8
	c-0.2,0-0.4,0.1-0.6,0.3c-0.1,0.2-0.2,0.4-0.2,0.6l0.5,2.9l-0.5,2.6c0,0.2,0,0.4,0.1,0.6c0.1,0.2,0.4,0.3,0.6,0.3h30.4l45.8,0.9l0,0
	c0.2,0,0.4-0.1,0.6-0.2c0.1-0.2,0.2-0.4,0.2-0.6l-0.6-4.3l0.3-2.1c0-0.1,0-0.1,0-0.2C312.7,784.9,312.4,784.6,312,784.6L312,784.6z
	 M312,786.1L312,786.1z"/>
<path class="st4" d="M236.2,809.5c-0.1,0-0.2-0.1-0.3-0.1c-0.1-0.1-0.1-0.2-0.1-0.3l0.5-3l-0.5-2.7c0-0.1,0-0.2,0.1-0.3
	c0.1-0.1,0.2-0.1,0.3-0.1h30.4l45.8-0.9c0.1,0,0.2,0,0.3,0.1c0.1,0.1,0.1,0.2,0.1,0.3l-0.6,4.3l0.3,2.2c0,0.1,0,0.2-0.1,0.3
	c-0.1,0.1-0.2,0.1-0.3,0.1L236.2,809.5z"/>
<path class="st0" d="M312.3,802.5l-0.6,4.4l0.3,2.3h-75.8l0.6-3l-0.6-2.7h30.4L312.3,802.5 M312.3,801.7L312.3,801.7l-45.8,0.9
	h-30.4c-0.2,0-0.4,0.1-0.6,0.3c-0.1,0.2-0.2,0.4-0.1,0.6l0.5,2.6l-0.5,2.9c0,0.2,0,0.4,0.2,0.6c0.1,0.2,0.3,0.3,0.6,0.3H312
	c0.2,0,0.4-0.1,0.6-0.2c0.1-0.2,0.2-0.4,0.2-0.6l-0.3-2.2l0.6-4.3C313.1,802.2,312.8,801.8,312.3,801.7
	C312.4,801.7,312.4,801.7,312.3,801.7z"/>
<path class="st4" d="M236.5,797.6c-0.1,0-0.2,0-0.3-0.1c-0.1-0.1-0.1-0.2-0.1-0.3l0.3-2.2l-0.6-4.3c0-0.1,0-0.2,0.1-0.3
	c0.1-0.1,0.2-0.1,0.3-0.1l45.8,0.9h30.4c0.1,0,0.2,0.1,0.3,0.1c0.1,0.1,0.1,0.2,0.1,0.3l-0.5,2.7l0.5,2.9c0,0.1,0,0.2-0.1,0.3
	c-0.1,0.1-0.2,0.1-0.3,0.1L236.5,797.6z"/>
<path class="st0" d="M236.2,790.5l45.8,0.9h30.4l-0.5,2.7l0.5,3h-75.8l0.3-2.3L236.2,790.5 M312.3,791.4L312.3,791.4 M236.2,789.8
	c-0.4,0-0.8,0.4-0.7,0.8c0,0,0,0.1,0,0.1l0.6,4.3l-0.3,2.2c0,0.2,0,0.4,0.2,0.6c0.1,0.2,0.3,0.3,0.6,0.3h75.8c0.4,0,0.8-0.3,0.8-0.8
	c0,0,0-0.1,0-0.1l-0.5-2.9l0.5-2.5c0-0.1,0-0.1,0-0.2c0-0.4-0.3-0.7-0.7-0.8c0,0,0,0,0,0H282L236.2,789.8L236.2,789.8z"/>
<path class="st4" d="M236.5,803.4c-0.1,0-0.2,0-0.3-0.1c-0.1-0.1-0.1-0.2-0.1-0.3l0.3-2.2l-0.6-4.3c0-0.1,0-0.2,0.1-0.3
	c0.1-0.1,0.2-0.1,0.3-0.1l45.8,0.9h30.4c0.1,0,0.2,0.1,0.3,0.1c0.1,0.1,0.1,0.2,0.1,0.3l-0.5,2.7l0.5,2.9c0,0.1,0,0.2-0.1,0.3
	c-0.1,0.1-0.2,0.1-0.3,0.1L236.5,803.4z"/>
<path class="st0" d="M236.2,796.4l45.8,0.9h30.4l-0.5,2.7l0.5,3h-75.8l0.3-2.3L236.2,796.4 M312.3,797.2L312.3,797.2 M236.2,795.6
	c-0.2,0-0.4,0.1-0.6,0.2c-0.1,0.2-0.2,0.4-0.2,0.6l0.6,4.3l-0.3,2.2c0,0.2,0,0.4,0.2,0.6c0.1,0.2,0.3,0.3,0.6,0.3h75.8
	c0.4,0,0.8-0.3,0.8-0.8c0,0,0-0.1,0-0.1l-0.5-2.9l0.5-2.5c0-0.1,0-0.1,0-0.2c0-0.4-0.3-0.7-0.7-0.8c0,0,0,0,0,0H282L236.2,795.6
	L236.2,795.6z"/>
<path class="st5" d="M133.3,657.7c-0.2,0.4,1.9,6.4,2.9,9.1c0.3,0.8,1,1.2,1.8,1.2h42.5c0.7,0,1.4-0.4,1.7-1
	c1.3-2.4,4.4-8.3,3.4-9.3c-1.6-0.5-11.5-0.1-26.2,0.2S133.6,657.1,133.3,657.7z"/>
<path class="st4" d="M617,239.9h-19.9c-0.1,0-0.2,0-0.3-0.1c-0.1-0.1-0.1-0.2-0.1-0.3l0.3-2.3l-0.3-2.5c0-0.1,0-0.2,0.1-0.3
	c0.1-0.1,0.2-0.1,0.3-0.1h49.7c0.1,0,0.2,0,0.3,0.1c0.1,0.1,0.1,0.2,0.1,0.3l-0.2,1.9l0.4,3.7c0,0.1,0,0.2-0.1,0.3
	c-0.1,0.1-0.2,0.1-0.3,0.1L617,239.9z"/>
<path class="st0" d="M646.8,234.6L646.8,234.6 M646.8,234.6l-0.2,1.9l0.4,3.8l-30-0.8h-19.9l0.4-2.4l-0.4-2.6H646.8 M646.8,233.8
	h-49.7c-0.4,0-0.7,0.3-0.7,0.7c0,0,0,0.1,0,0.1l0.3,2.5l-0.3,2.2c0,0.2,0,0.4,0.2,0.6c0.1,0.2,0.3,0.3,0.6,0.3H617l30,0.8l0,0
	c0.4,0,0.8-0.3,0.8-0.7c0,0,0-0.1,0-0.1l-0.4-3.7l0.2-1.8c0,0,0-0.1,0-0.1C647.5,234.2,647.2,233.8,646.8,233.8
	C646.8,233.8,646.8,233.8,646.8,233.8L646.8,233.8z"/>
<path class="st4" d="M597.1,255.4c-0.1,0-0.2,0-0.3-0.1c-0.1-0.1-0.1-0.2-0.1-0.3l0.3-2.5l-0.3-2.3c0-0.1,0-0.2,0.1-0.3
	c0.1-0.1,0.2-0.1,0.3-0.1H617l30-0.8c0.1,0,0.2,0,0.3,0.1c0.1,0.1,0.1,0.2,0.1,0.3l-0.4,3.8l0.2,1.9c0,0.1,0,0.2-0.1,0.3
	c-0.1,0.1-0.2,0.1-0.3,0.1L597.1,255.4z"/>
<path class="st0" d="M647,249.3l-0.4,3.8l0.2,1.9h-49.7l0.4-2.6l-0.4-2.4H617L647,249.3 M647,248.6L647,248.6l-30,0.8h-19.9
	c-0.2,0-0.4,0.1-0.6,0.3c-0.1,0.2-0.2,0.4-0.2,0.6l0.3,2.3l-0.3,2.5c-0.1,0.4,0.2,0.8,0.6,0.8c0,0,0.1,0,0.1,0h49.7
	c0.2,0,0.4-0.1,0.6-0.2c0.1-0.2,0.2-0.4,0.2-0.6l-0.2-1.9l0.4-3.7c0-0.2,0-0.4-0.2-0.6C647.4,248.7,647.2,248.6,647,248.6L647,248.6
	z M647,250.1L647,250.1z"/>
<path class="st4" d="M597.3,245.2c-0.2,0-0.4-0.2-0.4-0.4c0,0,0,0,0,0l0.2-2l-0.4-3.7c0-0.1,0-0.2,0.1-0.3c0.1-0.1,0.2-0.1,0.3-0.1
	l30,0.8H647c0.1,0,0.2,0,0.3,0.1c0.1,0.1,0.1,0.2,0.1,0.3l-0.3,2.3l0.3,2.5c0,0.1,0,0.2-0.1,0.3c-0.1,0.1-0.2,0.1-0.3,0.1
	L597.3,245.2z"/>
<path class="st0" d="M597.1,239.1l30,0.8H647l-0.3,2.4l0.3,2.6h-49.7l0.2-2L597.1,239.1 M647,239.8L647,239.8 M597.1,238.3
	c-0.4,0-0.8,0.3-0.8,0.8c0,0,0,0,0,0.1l0.4,3.7l-0.2,1.9c0,0.2,0,0.4,0.2,0.6c0.1,0.2,0.3,0.2,0.5,0.2H647c0.2,0,0.4-0.1,0.6-0.2
	c0.1-0.2,0.2-0.4,0.2-0.6l-0.3-2.5l0.3-2.2c0-0.1,0-0.1,0-0.2c0-0.4-0.3-0.8-0.8-0.8h-19.9L597.1,238.3L597.1,238.3z"/>
<path class="st4" d="M597.3,250.2c-0.1,0-0.2,0-0.3-0.1c-0.1-0.1-0.1-0.2-0.1-0.3l0.2-1.9l-0.4-3.7c0-0.1,0-0.2,0.1-0.3
	c0.1-0.1,0.2-0.1,0.3-0.1l30,0.8H647c0.1,0,0.2,0,0.3,0.1c0.1,0.1,0.1,0.2,0.1,0.3l-0.3,2.3l0.3,2.5c0,0.1,0,0.2-0.1,0.3
	c-0.1,0.1-0.2,0.1-0.3,0.1L597.3,250.2z"/>
<path class="st0" d="M597.1,244.1l30,0.8H647l-0.3,2.4l0.3,2.6h-49.7l0.2-2L597.1,244.1 M647,244.8L647,244.8 M597.1,243.3
	c-0.4,0-0.8,0.3-0.8,0.8c0,0,0,0,0,0.1l0.4,3.7l-0.2,1.9c0,0.2,0,0.4,0.2,0.6c0.1,0.2,0.3,0.2,0.5,0.2H647c0.4,0,0.8-0.3,0.8-0.8
	c0,0,0-0.1,0-0.1l-0.3-2.5l0.3-2.2c0-0.1,0-0.1,0-0.2c0-0.4-0.3-0.7-0.8-0.8h-19.9L597.1,243.3L597.1,243.3z"/>
<path class="st5" d="M187.3,312.7c0.2,0.4-1.9,6.4-2.9,9.1c-0.3,0.8-1,1.3-1.8,1.3h-42.5c-0.7,0-1.4-0.4-1.7-1
	c-1.3-2.4-4.4-8.3-3.4-9.4c1.6-0.5,11.5-0.1,26.2,0.2S187,312.1,187.3,312.7z"/>
<path class="st5" d="M558.2,438.1c-0.2,0.4,1.9,6.4,2.9,9.1c0.3,0.8,1,1.3,1.8,1.3h42.5c0.7,0,1.4-0.4,1.7-1
	c1.3-2.4,4.4-8.3,3.4-9.4c-1.6-0.5-11.5-0.1-26.2,0.2S558.5,437.6,558.2,438.1z"/>
<path class="st1" d="M223.2,607.3c1.6-7.4,4.4-18,4.3-26.1"/>
<path class="st1" d="M212.3,625.4c4.6,0.3,8.7-10.4,9.9-13.6"/>
<path class="st1" d="M216.2,623.5c0,0-0.7,6.7,2.2,18.2s0.4,27.1,0.4,27.1"/>
<path class="st1" d="M243.7,607.3c-2.4-8-3.1-18-4.8-26.1"/>
<path class="st1" d="M255.6,625.2c-4.9,0.3-9.5-9.9-10.9-13.4"/>
<path class="st1" d="M251.4,623.4c0,0,0.8,6.7-2.5,18.3s-0.4,27.3-0.4,27.3"/>
<g>
	<path class="st6" d="M453.8,540.9c0.7,2.1,1.1,4.3,1.4,6.5c0.2,2,0.7,3.9,1.4,5.8l13.6-0.2c0,0,0.9-2.8,1.4-5.4l1.2-6.6"/>
	<path class="st6" d="M451.8,535.8c-0.1,1.3,0,2.5,0.2,3.8c0.3,1,1,1.2,2.1,1.4c3,0.6,6.1,0.9,9.1,0.9c6.2,0.1,8.7-0.5,9.7-1
		s1-0.8,1.2-1.8c0.1-1.1,0-2.3-0.1-3.4"/>
	<path class="st6" d="M474,535.6c0,0-0.9-0.7-5.1-0.8c-3.7-0.1-8.4-0.1-12,0c-4.1,0.1-5.1,0.8-5.1,0.8s-0.8,0.7,3.1,1.5
		c5.3,0.7,10.7,0.7,16,0C474.8,536.3,474,535.6,474,535.6z"/>
</g>
<g>
	<path class="st6" d="M609.6,645.4c-0.7,2.1-1.1,4.3-1.4,6.5c-0.2,2-0.6,3.9-1.4,5.8l-13.6-0.2c-0.5-1.8-1-3.6-1.3-5.4l-1.2-6.6"/>
	<path class="st6" d="M611.7,640.3c0.1,1.3,0,2.5-0.2,3.8c-0.3,1-1,1.2-2.1,1.4c-3,0.6-6.1,0.9-9.1,0.9c-6.2,0.1-8.7-0.5-9.7-1
		s-1-0.8-1.2-1.8c-0.1-1.1,0-2.3,0.1-3.4"/>
	<path class="st6" d="M589.4,640.1c0,0,0.9-0.7,5.1-0.8c3.7-0.1,8.4-0.1,12,0c4.2,0.1,5.1,0.8,5.1,0.8s0.8,0.7-3.1,1.5
		c-5.3,0.7-10.7,0.7-16,0C588.6,640.9,589.4,640.1,589.4,640.1z"/>
</g>
</svg>
