<svg width="290" height="418" viewBox="0 0 290 418" fill="none" xmlns="http://www.w3.org/2000/svg">
<mask id="path-1-inside-1_505_692" fill="white">
<path fill-rule="evenodd" clip-rule="evenodd" d="M178.19 11.4272H111.413V84.1284C70.4651 98.009 41 136.716 41 182.293C41 239.534 87.4736 285.937 144.802 285.937C202.13 285.937 248.603 239.534 248.603 182.293C248.603 136.716 219.138 98.0091 178.19 84.1284V11.4272Z"/>
</mask>
<path fill-rule="evenodd" clip-rule="evenodd" d="M178.19 11.4272H111.413V84.1284C70.4651 98.009 41 136.716 41 182.293C41 239.534 87.4736 285.937 144.802 285.937C202.13 285.937 248.603 239.534 248.603 182.293C248.603 136.716 219.138 98.0091 178.19 84.1284V11.4272Z" fill="white"/>
<path d="M111.413 11.4272V10.4272H110.413V11.4272H111.413ZM178.19 11.4272H179.19V10.4272H178.19V11.4272ZM111.413 84.1284L111.734 85.0754L112.413 84.8453V84.1284H111.413ZM178.19 84.1284H177.19V84.8454L177.869 85.0755L178.19 84.1284ZM111.413 12.4272H178.19V10.4272H111.413V12.4272ZM112.413 84.1284V11.4272H110.413V84.1284H112.413ZM42 182.293C42 137.158 71.1788 98.823 111.734 85.0754L111.092 83.1813C69.7513 97.1951 40 136.273 40 182.293H42ZM144.802 284.937C88.0244 284.937 42 238.98 42 182.293H40C40 240.088 86.9228 286.937 144.802 286.937V284.937ZM247.603 182.293C247.603 238.98 201.579 284.937 144.802 284.937V286.937C202.681 286.937 249.603 240.088 249.603 182.293H247.603ZM177.869 85.0755C218.425 98.8231 247.603 137.158 247.603 182.293H249.603C249.603 136.273 219.852 97.1952 178.511 83.1814L177.869 85.0755ZM177.19 11.4272V84.1284H179.19V11.4272H177.19Z" fill="black" mask="url(#path-1-inside-1_505_692)"/>
<path d="M109.832 212.69C109.832 216.503 106.736 219.596 102.915 219.596C99.0942 219.596 95.998 216.503 95.998 212.69C95.998 208.877 99.0942 205.784 102.915 205.784C106.736 205.784 109.832 208.877 109.832 212.69Z" fill="white" stroke="black"/>
<path d="M155.022 248.261C155.022 253.935 150.414 258.536 144.73 258.536C139.045 258.536 134.438 253.935 134.438 248.261C134.438 242.586 139.045 237.985 144.73 237.985C150.414 237.985 155.022 242.586 155.022 248.261Z" fill="white" stroke="black"/>
<path d="M181.629 182.736C181.629 186.549 178.533 189.642 174.712 189.642C170.891 189.642 167.795 186.549 167.795 182.736C167.795 178.923 170.891 175.83 174.712 175.83C178.533 175.83 181.629 178.923 181.629 182.736Z" fill="white" stroke="black"/>
<mask id="path-6-inside-2_505_692" fill="white">
<path fill-rule="evenodd" clip-rule="evenodd" d="M62.8334 182.38C63.1407 181.787 66.8413 174.85 73.7691 170.65C74.2185 170.377 74.6647 170.097 75.1175 169.812C81.9603 165.507 90.3109 160.253 134.09 168.249C163.429 173.608 173.353 167.225 181.652 161.888C186.556 158.734 190.893 155.946 198.332 156.161C217.632 156.718 226.327 173.21 226.573 182.38H226.7C226.7 193.123 224.581 203.761 220.463 213.687C216.346 223.612 210.311 232.631 202.702 240.228C195.094 247.824 186.062 253.85 176.121 257.962C166.18 262.073 155.526 264.189 144.766 264.189C134.006 264.189 123.352 262.073 113.411 257.962C103.47 253.85 94.4377 247.824 86.8294 240.228C79.2211 232.631 73.1858 223.612 69.0682 213.687C64.9558 203.774 62.8367 193.15 62.8314 182.42L62.8125 182.42C62.8125 182.42 62.8188 182.408 62.8313 182.383C62.8313 182.382 62.8313 182.381 62.8313 182.38H62.8334Z"/>
</mask>
<path fill-rule="evenodd" clip-rule="evenodd" d="M62.8334 182.38C63.1407 181.787 66.8413 174.85 73.7691 170.65C74.2185 170.377 74.6647 170.097 75.1175 169.812C81.9603 165.507 90.3109 160.253 134.09 168.249C163.429 173.608 173.353 167.225 181.652 161.888C186.556 158.734 190.893 155.946 198.332 156.161C217.632 156.718 226.327 173.21 226.573 182.38H226.7C226.7 193.123 224.581 203.761 220.463 213.687C216.346 223.612 210.311 232.631 202.702 240.228C195.094 247.824 186.062 253.85 176.121 257.962C166.18 262.073 155.526 264.189 144.766 264.189C134.006 264.189 123.352 262.073 113.411 257.962C103.47 253.85 94.4377 247.824 86.8294 240.228C79.2211 232.631 73.1858 223.612 69.0682 213.687C64.9558 203.774 62.8367 193.15 62.8314 182.42L62.8125 182.42C62.8125 182.42 62.8188 182.408 62.8313 182.383C62.8313 182.382 62.8313 182.381 62.8313 182.38H62.8334Z" fill="url(#paint0_linear_505_692)"/>
<path d="M62.8334 182.38V183.38H63.4412L63.7211 182.84L62.8334 182.38ZM73.7691 170.65L74.2875 171.505L74.2875 171.505L73.7691 170.65ZM75.1175 169.812L74.585 168.965L74.585 168.965L75.1175 169.812ZM134.09 168.249L133.91 169.233L134.09 168.249ZM181.652 161.888L182.193 162.729L182.193 162.729L181.652 161.888ZM198.332 156.161L198.361 155.161L198.332 156.161ZM226.573 182.38L225.574 182.406L225.6 183.38H226.573V182.38ZM226.7 182.38H227.7V181.38H226.7V182.38ZM220.463 213.687L219.54 213.303L219.54 213.303L220.463 213.687ZM176.121 257.962L176.503 258.886L176.503 258.886L176.121 257.962ZM113.411 257.962L113.793 257.038L113.793 257.038L113.411 257.962ZM69.0682 213.687L69.9919 213.303L69.9919 213.303L69.0682 213.687ZM62.8314 182.42L63.8314 182.42L63.8309 181.426L62.8372 181.42L62.8314 182.42ZM62.8125 182.42L61.9193 181.971L61.1944 183.411L62.8066 183.42L62.8125 182.42ZM62.8313 182.383L63.7194 182.843L63.8314 182.627L63.8313 182.383L62.8313 182.383ZM62.8313 182.38V181.38H61.8313V182.38H62.8313ZM63.7211 182.84C64.0081 182.287 67.6038 175.557 74.2875 171.505L73.2507 169.795C66.0788 174.142 62.2734 181.287 61.9456 181.919L63.7211 182.84ZM74.2875 171.505C74.7452 171.227 75.1984 170.942 75.65 170.658L74.585 168.965C74.131 169.251 73.6918 169.527 73.2507 169.795L74.2875 171.505ZM75.65 170.658C79.0046 168.548 82.652 166.243 90.8534 165.412C99.1291 164.575 112.053 165.241 133.91 169.233L134.27 167.266C112.348 163.262 99.2069 162.557 90.6519 163.423C82.0225 164.296 78.0732 166.771 74.585 168.965L75.65 170.658ZM133.91 169.233C148.664 171.928 158.621 171.687 165.977 170.056C173.348 168.422 178.031 165.406 182.193 162.729L181.111 161.047C176.974 163.708 172.545 166.552 165.544 168.103C158.529 169.659 148.855 169.93 134.27 167.266L133.91 169.233ZM182.193 162.729C187.085 159.583 191.194 156.955 198.303 157.16L198.361 155.161C190.591 154.936 186.027 157.886 181.111 161.047L182.193 162.729ZM198.303 157.16C207.644 157.43 214.388 161.545 218.842 166.695C223.321 171.875 225.457 178.073 225.574 182.406L227.573 182.353C227.443 177.516 225.109 170.884 220.354 165.386C215.574 159.859 208.321 155.449 198.361 155.161L198.303 157.16ZM226.573 183.38H226.7V181.38H226.573V183.38ZM225.7 182.38C225.7 192.991 223.607 203.499 219.54 213.303L221.387 214.07C225.555 204.023 227.7 193.254 227.7 182.38H225.7ZM219.54 213.303C215.473 223.108 209.511 232.016 201.996 239.52L203.409 240.935C211.11 233.246 217.219 224.117 221.387 214.07L219.54 213.303ZM201.996 239.52C194.48 247.024 185.558 252.976 175.739 257.038L176.503 258.886C186.565 254.724 195.708 248.625 203.409 240.935L201.996 239.52ZM175.739 257.038C165.919 261.099 155.395 263.189 144.766 263.189V265.189C155.657 265.189 166.441 263.047 176.503 258.886L175.739 257.038ZM144.766 263.189C134.137 263.189 123.613 261.099 113.793 257.038L113.029 258.886C123.091 263.047 133.875 265.189 144.766 265.189V263.189ZM113.793 257.038C103.974 252.976 95.0514 247.024 87.536 239.52L86.1228 240.935C93.8241 248.625 102.967 254.724 113.029 258.886L113.793 257.038ZM87.536 239.52C80.0206 232.016 74.0591 223.108 69.9919 213.303L68.1446 214.07C72.3125 224.117 78.4216 233.246 86.1228 240.935L87.536 239.52ZM69.9919 213.303C65.9298 203.512 63.8366 193.018 63.8314 182.42L61.8314 182.421C61.8368 193.282 63.9819 204.036 68.1446 214.07L69.9919 213.303ZM62.8372 181.42L62.8184 181.42L62.8066 183.42L62.8255 183.42L62.8372 181.42ZM62.8125 182.42C63.7057 182.87 63.7057 182.87 63.7057 182.87C63.7057 182.87 63.7057 182.87 63.7057 182.87C63.7057 182.87 63.7057 182.87 63.7057 182.87C63.7057 182.87 63.7057 182.87 63.7056 182.87C63.7056 182.87 63.7056 182.87 63.7056 182.87C63.7055 182.87 63.7055 182.87 63.7055 182.87C63.7054 182.87 63.7054 182.87 63.7054 182.87C63.7054 182.871 63.7055 182.87 63.7056 182.87C63.706 182.869 63.7067 182.868 63.7079 182.866C63.7101 182.861 63.714 182.854 63.7194 182.843L61.9433 181.924C61.9362 181.937 61.9306 181.948 61.9266 181.956C61.9245 181.96 61.9229 181.963 61.9217 181.966C61.9211 181.967 61.9206 181.968 61.9202 181.969C61.92 181.969 61.9198 181.969 61.9197 181.97C61.9196 181.97 61.9195 181.97 61.9195 181.97C61.9194 181.97 61.9194 181.97 61.9194 181.97C61.9193 181.97 61.9193 181.97 61.9193 181.97C61.9193 181.97 61.9193 181.971 61.9193 181.971C61.9193 181.971 61.9193 181.971 61.9193 181.971C61.9193 181.971 61.9193 181.971 62.8125 182.42ZM63.8313 182.383C63.8313 182.382 63.8313 182.381 63.8313 182.38H61.8313C61.8313 182.381 61.8313 182.383 61.8313 182.383L63.8313 182.383ZM62.8313 183.38H62.8334V181.38H62.8313V183.38Z" fill="black" mask="url(#path-6-inside-2_505_692)"/>
<rect x="98.0674" y="1.43677" width="92.1876" height="25.5844" rx="12.7922" fill="white" stroke="black"/>
<rect x="11" y="321" width="268" height="44" fill="black"/>
<path d="M77.4411 334.566H83.7851C85.5185 334.566 86.8878 335.025 87.8931 335.944C88.8985 336.863 89.4011 338.059 89.4011 339.532C89.4011 340.485 89.1498 341.317 88.6471 342.028C88.1445 342.721 87.4858 343.215 86.6711 343.51C87.6591 343.77 88.4565 344.299 89.0631 345.096C89.6698 345.893 89.9731 346.829 89.9731 347.904C89.9731 349.395 89.4445 350.617 88.3871 351.57C87.3298 352.523 85.9518 353 84.2531 353H77.4411V334.566ZM80.5351 342.366H83.3691C84.2705 342.366 84.9811 342.132 85.5011 341.664C86.0211 341.196 86.2811 340.572 86.2811 339.792C86.2811 338.995 86.0125 338.371 85.4751 337.92C84.9551 337.452 84.2271 337.218 83.2911 337.218H80.5351V342.366ZM80.5351 350.348H83.7071C84.6431 350.348 85.3885 350.114 85.9431 349.646C86.5151 349.161 86.8011 348.511 86.8011 347.696C86.8011 346.881 86.5325 346.231 85.9951 345.746C85.4751 345.243 84.7471 344.992 83.8111 344.992H80.5351V350.348ZM97.1831 349.62C97.8764 350.331 98.7171 350.686 99.7051 350.686C100.693 350.686 101.525 350.331 102.201 349.62C102.894 348.909 103.241 347.921 103.241 346.656C103.241 345.408 102.894 344.437 102.201 343.744C101.525 343.033 100.693 342.678 99.7051 342.678C98.7171 342.678 97.8764 343.033 97.1831 343.744C96.5071 344.437 96.1691 345.408 96.1691 346.656C96.1691 347.904 96.5071 348.892 97.1831 349.62ZM99.7051 339.948C101.612 339.948 103.18 340.581 104.411 341.846C105.659 343.111 106.283 344.715 106.283 346.656C106.283 348.597 105.659 350.209 104.411 351.492C103.18 352.757 101.612 353.39 99.7051 353.39C97.8157 353.39 96.2471 352.757 94.9991 351.492C93.7684 350.209 93.1531 348.597 93.1531 346.656C93.1531 344.715 93.7684 343.111 94.9991 341.846C96.2471 340.581 97.8157 339.948 99.7051 339.948ZM113.28 349.62C113.973 350.331 114.814 350.686 115.802 350.686C116.79 350.686 117.622 350.331 118.298 349.62C118.991 348.909 119.338 347.921 119.338 346.656C119.338 345.408 118.991 344.437 118.298 343.744C117.622 343.033 116.79 342.678 115.802 342.678C114.814 342.678 113.973 343.033 113.28 343.744C112.604 344.437 112.266 345.408 112.266 346.656C112.266 347.904 112.604 348.892 113.28 349.62ZM115.802 339.948C117.708 339.948 119.277 340.581 120.508 341.846C121.756 343.111 122.38 344.715 122.38 346.656C122.38 348.597 121.756 350.209 120.508 351.492C119.277 352.757 117.708 353.39 115.802 353.39C113.912 353.39 112.344 352.757 111.096 351.492C109.865 350.209 109.25 348.597 109.25 346.656C109.25 344.715 109.865 343.111 111.096 341.846C112.344 340.581 113.912 339.948 115.802 339.948ZM125.216 349.568L127.842 348.84C127.894 349.447 128.146 349.958 128.596 350.374C129.047 350.79 129.654 350.998 130.416 350.998C131.006 350.998 131.465 350.859 131.794 350.582C132.141 350.305 132.314 349.958 132.314 349.542C132.314 348.814 131.82 348.346 130.832 348.138L128.96 347.722C127.868 347.479 127.028 347.029 126.438 346.37C125.849 345.711 125.554 344.931 125.554 344.03C125.554 342.921 126.005 341.967 126.906 341.17C127.808 340.355 128.908 339.948 130.208 339.948C131.04 339.948 131.777 340.069 132.418 340.312C133.06 340.555 133.554 340.875 133.9 341.274C134.264 341.655 134.542 342.028 134.732 342.392C134.923 342.756 135.044 343.12 135.096 343.484L132.548 344.212C132.479 343.727 132.254 343.293 131.872 342.912C131.508 342.513 130.954 342.314 130.208 342.314C129.688 342.314 129.255 342.461 128.908 342.756C128.562 343.033 128.388 343.371 128.388 343.77C128.388 344.481 128.813 344.923 129.662 345.096L131.586 345.486C132.765 345.746 133.666 346.214 134.29 346.89C134.914 347.566 135.226 348.381 135.226 349.334C135.226 350.391 134.802 351.336 133.952 352.168C133.12 352.983 131.95 353.39 130.442 353.39C129.576 353.39 128.796 353.26 128.102 353C127.426 352.74 126.889 352.411 126.49 352.012C126.109 351.596 125.806 351.189 125.58 350.79C125.372 350.374 125.251 349.967 125.216 349.568ZM143.079 336.464V340.338H145.705V343.016H143.079V348.892C143.079 349.447 143.209 349.854 143.469 350.114C143.729 350.357 144.136 350.478 144.691 350.478C145.038 350.478 145.384 350.443 145.731 350.374V352.87C145.28 353.061 144.665 353.156 143.885 353.156C142.706 353.156 141.779 352.827 141.103 352.168C140.427 351.492 140.089 350.565 140.089 349.386V343.016H137.749V340.338H138.399C139.04 340.338 139.526 340.156 139.855 339.792C140.184 339.428 140.349 338.951 140.349 338.362V336.464H143.079ZM153.895 358.122H150.671L153.713 351.492L148.305 340.338H151.711L155.351 348.346L158.757 340.338H161.955L153.895 358.122ZM168.584 353H165.464V334.566H176.93V337.504H168.584V342.678H176.072V345.564H168.584V353ZM183.809 353H180.793V334.176H183.809V353ZM191.781 349.62C192.475 350.331 193.315 350.686 194.303 350.686C195.291 350.686 196.123 350.331 196.799 349.62C197.493 348.909 197.839 347.921 197.839 346.656C197.839 345.408 197.493 344.437 196.799 343.744C196.123 343.033 195.291 342.678 194.303 342.678C193.315 342.678 192.475 343.033 191.781 343.744C191.105 344.437 190.767 345.408 190.767 346.656C190.767 347.904 191.105 348.892 191.781 349.62ZM194.303 339.948C196.21 339.948 197.779 340.581 199.009 341.846C200.257 343.111 200.881 344.715 200.881 346.656C200.881 348.597 200.257 350.209 199.009 351.492C197.779 352.757 196.21 353.39 194.303 353.39C192.414 353.39 190.845 352.757 189.597 351.492C188.367 350.209 187.751 348.597 187.751 346.656C187.751 344.715 188.367 343.111 189.597 341.846C190.845 340.581 192.414 339.948 194.303 339.948ZM203.718 349.568L206.344 348.84C206.396 349.447 206.647 349.958 207.098 350.374C207.549 350.79 208.155 350.998 208.918 350.998C209.507 350.998 209.967 350.859 210.296 350.582C210.643 350.305 210.816 349.958 210.816 349.542C210.816 348.814 210.322 348.346 209.334 348.138L207.462 347.722C206.37 347.479 205.529 347.029 204.94 346.37C204.351 345.711 204.056 344.931 204.056 344.03C204.056 342.921 204.507 341.967 205.408 341.17C206.309 340.355 207.41 339.948 208.71 339.948C209.542 339.948 210.279 340.069 210.92 340.312C211.561 340.555 212.055 340.875 212.402 341.274C212.766 341.655 213.043 342.028 213.234 342.392C213.425 342.756 213.546 343.12 213.598 343.484L211.05 344.212C210.981 343.727 210.755 343.293 210.374 342.912C210.01 342.513 209.455 342.314 208.71 342.314C208.19 342.314 207.757 342.461 207.41 342.756C207.063 343.033 206.89 343.371 206.89 343.77C206.89 344.481 207.315 344.923 208.164 345.096L210.088 345.486C211.267 345.746 212.168 346.214 212.792 346.89C213.416 347.566 213.728 348.381 213.728 349.334C213.728 350.391 213.303 351.336 212.454 352.168C211.622 352.983 210.452 353.39 208.944 353.39C208.077 353.39 207.297 353.26 206.604 353C205.928 352.74 205.391 352.411 204.992 352.012C204.611 351.596 204.307 351.189 204.082 350.79C203.874 350.374 203.753 349.967 203.718 349.568Z" fill="white"/>
<path opacity="0.8" d="M52.88 388.13V382.78H54.35C55.66 382.78 56.74 383.68 56.74 385.47C56.74 387.25 55.64 388.13 54.33 388.13H52.88ZM54.36 389C56.16 389 57.75 387.79 57.75 385.47C57.75 383.14 56.18 381.91 54.38 381.91H51.9V389H54.36ZM63.8073 389V388.09H60.4773V385.92H63.4973V385H60.4773V382.82H63.8073V381.91H59.4973V389H63.8073ZM70.2278 383.52C70.0678 382.75 69.4278 381.76 67.8278 381.76C66.5178 381.76 65.4878 382.76 65.4878 383.87C65.4878 384.93 66.2078 385.59 67.2178 385.81L68.2278 386.03C68.9378 386.18 69.2878 386.62 69.2878 387.13C69.2878 387.75 68.8078 388.26 67.8278 388.26C66.7578 388.26 66.1978 387.53 66.1278 386.74L65.1878 387.04C65.3178 388.05 66.1278 389.15 67.8378 389.15C69.3478 389.15 70.2878 388.15 70.2878 387.05C70.2878 386.06 69.6278 385.32 68.4478 385.06L67.3878 384.83C66.7878 384.7 66.4778 384.31 66.4778 383.8C66.4778 383.14 67.0478 382.62 67.8478 382.62C68.8378 382.62 69.2678 383.32 69.3478 383.83L70.2278 383.52ZM75.0567 389.15C76.6867 389.15 77.8067 388.2 78.1867 386.87L77.3167 386.55C77.0267 387.52 76.2667 388.25 75.0567 388.25C73.7667 388.25 72.5367 387.3 72.5367 385.45C72.5367 383.6 73.7667 382.66 75.0567 382.66C76.2167 382.66 76.9967 383.26 77.2667 384.33L78.1767 384.01C77.8167 382.64 76.6767 381.76 75.0567 381.76C73.2967 381.76 71.5367 383.08 71.5367 385.45C71.5367 387.82 73.2267 389.15 75.0567 389.15ZM83.5567 389H84.6967L83.0067 386.03C84.0767 385.83 84.7267 385.04 84.7267 384.02C84.7267 382.85 83.8967 381.91 82.5567 381.91H79.8867V389H80.8767V386.1H81.9367L83.5567 389ZM80.8767 385.22V382.79H82.3767C83.1767 382.79 83.7167 383.27 83.7167 384.02C83.7167 384.75 83.1767 385.22 82.3767 385.22H80.8767ZM87.4781 389V381.91H86.4781V389H87.4781ZM90.6609 385.22V382.79H92.0809C92.9309 382.79 93.4509 383.27 93.4509 384.02C93.4509 384.75 92.9309 385.22 92.0809 385.22H90.6609ZM92.2609 386.1C93.5709 386.1 94.4509 385.21 94.4509 384.01C94.4509 382.82 93.5709 381.91 92.2609 381.91H89.6809V389H90.6609V386.1H92.2609ZM100.968 382.82V381.91H95.2477V382.82H97.6177V389H98.5977V382.82H100.968ZM103.366 389V381.91H102.366V389H103.366ZM106.118 385.45C106.118 383.6 107.358 382.66 108.678 382.66C109.998 382.66 111.238 383.6 111.238 385.45C111.238 387.3 109.998 388.25 108.678 388.25C107.358 388.25 106.118 387.3 106.118 385.45ZM105.118 385.45C105.118 387.82 106.898 389.15 108.678 389.15C110.458 389.15 112.238 387.82 112.238 385.45C112.238 383.08 110.458 381.76 108.678 381.76C106.898 381.76 105.118 383.08 105.118 385.45ZM119.816 389V381.91H118.836V387.35L115.296 381.91H113.986V389H114.966V383.22L118.796 389H119.816ZM124.773 388.36C124.773 388.75 125.073 389.05 125.463 389.05C125.853 389.05 126.163 388.75 126.163 388.36C126.163 387.97 125.853 387.66 125.463 387.66C125.073 387.66 124.773 387.97 124.773 388.36ZM124.763 384.84C124.763 385.23 125.063 385.53 125.453 385.53C125.843 385.53 126.153 385.23 126.153 384.84C126.153 384.45 125.843 384.14 125.453 384.14C125.063 384.14 124.763 384.45 124.763 384.84ZM131.063 381.91H133.503C134.17 381.91 134.697 382.087 135.083 382.44C135.47 382.793 135.663 383.253 135.663 383.82C135.663 384.187 135.567 384.507 135.373 384.78C135.18 385.047 134.927 385.237 134.613 385.35C134.993 385.45 135.3 385.653 135.533 385.96C135.767 386.267 135.883 386.627 135.883 387.04C135.883 387.613 135.68 388.083 135.273 388.45C134.867 388.817 134.337 389 133.683 389H131.063V381.91ZM132.253 384.91H133.343C133.69 384.91 133.963 384.82 134.163 384.64C134.363 384.46 134.463 384.22 134.463 383.92C134.463 383.613 134.36 383.373 134.153 383.2C133.953 383.02 133.673 382.93 133.313 382.93H132.253V384.91ZM132.253 387.98H133.473C133.833 387.98 134.12 387.89 134.333 387.71C134.553 387.523 134.663 387.273 134.663 386.96C134.663 386.647 134.56 386.397 134.353 386.21C134.153 386.017 133.873 385.92 133.513 385.92H132.253V387.98ZM139.038 383.57C138.571 384.017 138.338 384.643 138.338 385.45C138.338 386.257 138.571 386.887 139.038 387.34C139.504 387.787 140.061 388.01 140.708 388.01C141.354 388.01 141.911 387.787 142.378 387.34C142.851 386.887 143.088 386.257 143.088 385.45C143.088 384.643 142.851 384.017 142.378 383.57C141.911 383.117 141.354 382.89 140.708 382.89C140.061 382.89 139.504 383.117 139.038 383.57ZM137.618 387.43C137.278 386.857 137.108 386.197 137.108 385.45C137.108 384.703 137.278 384.047 137.618 383.48C137.964 382.907 138.408 382.477 138.948 382.19C139.488 381.903 140.074 381.76 140.708 381.76C141.341 381.76 141.928 381.903 142.468 382.19C143.008 382.477 143.451 382.907 143.798 383.48C144.144 384.047 144.318 384.703 144.318 385.45C144.318 386.197 144.144 386.857 143.798 387.43C143.451 388.003 143.008 388.433 142.468 388.72C141.928 389.007 141.341 389.15 140.708 389.15C140.074 389.15 139.488 389.007 138.948 388.72C138.408 388.433 137.964 388.003 137.618 387.43ZM147.484 383.57C147.018 384.017 146.784 384.643 146.784 385.45C146.784 386.257 147.018 386.887 147.484 387.34C147.951 387.787 148.508 388.01 149.154 388.01C149.801 388.01 150.358 387.787 150.824 387.34C151.298 386.887 151.534 386.257 151.534 385.45C151.534 384.643 151.298 384.017 150.824 383.57C150.358 383.117 149.801 382.89 149.154 382.89C148.508 382.89 147.951 383.117 147.484 383.57ZM146.064 387.43C145.724 386.857 145.554 386.197 145.554 385.45C145.554 384.703 145.724 384.047 146.064 383.48C146.411 382.907 146.854 382.477 147.394 382.19C147.934 381.903 148.521 381.76 149.154 381.76C149.788 381.76 150.374 381.903 150.914 382.19C151.454 382.477 151.898 382.907 152.244 383.48C152.591 384.047 152.764 384.703 152.764 385.45C152.764 386.197 152.591 386.857 152.244 387.43C151.898 388.003 151.454 388.433 150.914 388.72C150.374 389.007 149.788 389.15 149.154 389.15C148.521 389.15 147.934 389.007 147.394 388.72C146.854 388.433 146.411 388.003 146.064 387.43ZM159.062 383.57L157.982 383.91C157.935 383.637 157.799 383.387 157.572 383.16C157.345 382.933 157.019 382.82 156.592 382.82C156.239 382.82 155.945 382.92 155.712 383.12C155.485 383.32 155.372 383.56 155.372 383.84C155.372 384.327 155.649 384.63 156.202 384.75L157.222 384.96C157.835 385.08 158.309 385.323 158.642 385.69C158.975 386.057 159.142 386.493 159.142 387C159.142 387.587 158.915 388.093 158.462 388.52C158.015 388.94 157.405 389.15 156.632 389.15C155.799 389.15 155.149 388.933 154.682 388.5C154.215 388.06 153.952 387.55 153.892 386.97L155.012 386.65C155.052 387.05 155.212 387.387 155.492 387.66C155.772 387.933 156.152 388.07 156.632 388.07C157.045 388.07 157.362 387.98 157.582 387.8C157.809 387.613 157.922 387.377 157.922 387.09C157.922 386.857 157.839 386.657 157.672 386.49C157.505 386.317 157.272 386.197 156.972 386.13L155.972 385.92C155.419 385.807 154.979 385.577 154.652 385.23C154.332 384.883 154.172 384.45 154.172 383.93C154.172 383.337 154.409 382.827 154.882 382.4C155.355 381.973 155.922 381.76 156.582 381.76C157.335 381.76 157.912 381.943 158.312 382.31C158.712 382.67 158.962 383.09 159.062 383.57ZM165.849 383.04H163.539V389H162.339V383.04H160.039V381.91H165.849V383.04ZM171.613 389H167.233V381.91H171.613V383.03H168.433V384.91H171.313V386H168.433V387.88H171.613V389ZM177.034 389L175.544 386.2H174.664V389H173.454V381.91H176.174C176.84 381.91 177.377 382.117 177.784 382.53C178.19 382.937 178.394 383.447 178.394 384.06C178.394 384.567 178.25 385 177.964 385.36C177.677 385.72 177.287 385.96 176.794 386.08L178.394 389H177.034ZM174.664 385.14H175.954C176.32 385.14 176.614 385.043 176.834 384.85C177.06 384.65 177.174 384.387 177.174 384.06C177.174 383.727 177.06 383.463 176.834 383.27C176.614 383.07 176.32 382.97 175.954 382.97H174.664V385.14ZM187.405 389H182.955V381.91H184.155V387.86H187.405V389ZM193.879 389L193.209 387.22H190.209L189.549 389H188.279L191.039 381.91H192.429L195.189 389H193.879ZM191.709 383.21L190.629 386.11H192.789L191.709 383.21ZM200.618 385.17H201.868C202.248 385.17 202.545 385.073 202.758 384.88C202.978 384.68 203.088 384.413 203.088 384.08C203.088 383.74 202.978 383.47 202.758 383.27C202.545 383.07 202.248 382.97 201.868 382.97H200.618V385.17ZM202.048 386.23H200.618V389H199.418V381.91H202.048C202.722 381.91 203.265 382.113 203.678 382.52C204.098 382.927 204.308 383.443 204.308 384.07C204.308 384.703 204.098 385.223 203.678 385.63C203.265 386.03 202.722 386.23 202.048 386.23ZM210.264 389H205.814V381.91H207.014V387.86H210.264V389ZM216.738 389L216.068 387.22H213.068L212.408 389H211.138L213.898 381.91H215.288L218.048 389H216.738ZM214.568 383.21L213.488 386.11H215.648L214.568 383.21ZM225.348 389H224.098L220.598 383.63V389H219.398V381.91H220.928L224.148 386.94V381.91H225.348V389ZM232.534 383.04H230.224V389H229.024V383.04H226.724V381.91H232.534V383.04ZM238.298 389H233.918V381.91H238.298V383.03H235.118V384.91H237.998V386H235.118V387.88H238.298V389ZM248.969 389H247.719L244.219 383.63V389H243.019V381.91H244.549L247.769 386.94V381.91H248.969V389ZM251.566 383.48C251.432 383.613 251.366 383.787 251.366 384C251.366 384.213 251.432 384.39 251.566 384.53C251.706 384.67 251.876 384.74 252.076 384.74C252.276 384.74 252.442 384.67 252.576 384.53C252.709 384.39 252.776 384.213 252.776 384C252.776 383.787 252.709 383.613 252.576 383.48C252.442 383.34 252.276 383.27 252.076 383.27C251.876 383.27 251.706 383.34 251.566 383.48ZM250.916 385.14C250.596 384.827 250.436 384.447 250.436 384C250.436 383.553 250.596 383.173 250.916 382.86C251.242 382.547 251.629 382.39 252.076 382.39C252.522 382.39 252.906 382.547 253.226 382.86C253.552 383.173 253.716 383.553 253.716 384C253.716 384.447 253.552 384.827 253.226 385.14C252.906 385.447 252.519 385.6 252.066 385.6C251.619 385.6 251.236 385.447 250.916 385.14ZM257.532 389H256.352V384.56H254.782V383.74C255.236 383.733 255.616 383.617 255.922 383.39C256.229 383.157 256.419 382.867 256.492 382.52H257.532V389ZM260.38 385.76C260.38 386.6 260.534 387.217 260.84 387.61C261.08 387.93 261.414 388.09 261.84 388.09C262.254 388.09 262.587 387.93 262.84 387.61C263.14 387.223 263.29 386.607 263.29 385.76C263.29 384.913 263.14 384.297 262.84 383.91C262.587 383.59 262.254 383.43 261.84 383.43C261.414 383.43 261.08 383.59 260.84 383.91C260.534 384.29 260.38 384.907 260.38 385.76ZM259.77 388.09C259.384 387.51 259.19 386.733 259.19 385.76C259.19 384.787 259.384 384.01 259.77 383.43C260.244 382.723 260.934 382.37 261.84 382.37C262.74 382.37 263.427 382.723 263.9 383.43C264.287 384.01 264.48 384.787 264.48 385.76C264.48 386.733 264.287 387.51 263.9 388.09C263.427 388.797 262.74 389.15 261.84 389.15C260.934 389.15 260.244 388.797 259.77 388.09ZM55.184 406V405.264H52.504V400.328H51.72V406H55.184ZM56.5816 403.16C56.5816 401.68 57.5736 400.928 58.6296 400.928C59.6856 400.928 60.6776 401.68 60.6776 403.16C60.6776 404.64 59.6856 405.4 58.6296 405.4C57.5736 405.4 56.5816 404.64 56.5816 403.16ZM55.7816 403.16C55.7816 405.056 57.2056 406.12 58.6296 406.12C60.0536 406.12 61.4776 405.056 61.4776 403.16C61.4776 401.264 60.0536 400.208 58.6296 400.208C57.2056 400.208 55.7816 401.264 55.7816 403.16ZM66.6085 401.056V400.328H62.0325V401.056H63.9285V406H64.7125V401.056H66.6085ZM69.9349 405.488C69.9349 405.8 70.1749 406.04 70.4869 406.04C70.7989 406.04 71.0469 405.8 71.0469 405.488C71.0469 405.176 70.7989 404.928 70.4869 404.928C70.1749 404.928 69.9349 405.176 69.9349 405.488ZM69.9269 402.672C69.9269 402.984 70.1669 403.224 70.4789 403.224C70.7909 403.224 71.0389 402.984 71.0389 402.672C71.0389 402.36 70.7909 402.112 70.4789 402.112C70.1669 402.112 69.9269 402.36 69.9269 402.672ZM76.1516 401.656C75.7782 402.013 75.5916 402.515 75.5916 403.16C75.5916 403.805 75.7782 404.309 76.1516 404.672C76.5249 405.029 76.9702 405.208 77.4876 405.208C78.0049 405.208 78.4502 405.029 78.8236 404.672C79.2022 404.309 79.3916 403.805 79.3916 403.16C79.3916 402.515 79.2022 402.013 78.8236 401.656C78.4502 401.293 78.0049 401.112 77.4876 401.112C76.9702 401.112 76.5249 401.293 76.1516 401.656ZM75.0156 404.744C74.7436 404.285 74.6076 403.757 74.6076 403.16C74.6076 402.563 74.7436 402.037 75.0156 401.584C75.2929 401.125 75.6476 400.781 76.0796 400.552C76.5116 400.323 76.9809 400.208 77.4876 400.208C77.9942 400.208 78.4636 400.323 78.8956 400.552C79.3276 400.781 79.6822 401.125 79.9596 401.584C80.2369 402.037 80.3756 402.563 80.3756 403.16C80.3756 403.757 80.2369 404.285 79.9596 404.744C79.6822 405.203 79.3276 405.547 78.8956 405.776C78.4636 406.005 77.9942 406.12 77.4876 406.12C76.9809 406.12 76.5116 406.005 76.0796 405.776C75.6476 405.547 75.2929 405.203 75.0156 404.744ZM85.6014 401.232H83.7534V406H82.7934V401.232H80.9534V400.328H85.6014V401.232ZM89.5728 406L88.3808 403.76H87.6768V406H86.7088V400.328H88.8848C89.4181 400.328 89.8474 400.493 90.1728 400.824C90.4981 401.149 90.6608 401.557 90.6608 402.048C90.6608 402.453 90.5461 402.8 90.3168 403.088C90.0874 403.376 89.7754 403.568 89.3808 403.664L90.6608 406H89.5728ZM87.6768 402.912H88.7088C89.0021 402.912 89.2368 402.835 89.4128 402.68C89.5941 402.52 89.6848 402.309 89.6848 402.048C89.6848 401.781 89.5941 401.571 89.4128 401.416C89.2368 401.256 89.0021 401.176 88.7088 401.176H87.6768V402.912ZM93.8085 404.072H91.5525V403.248H93.8085V404.072ZM98.7685 400.952L98.4965 401.736C98.2405 401.597 97.9445 401.528 97.6085 401.528C97.1178 401.528 96.7098 401.68 96.3845 401.984C96.0645 402.283 95.8832 402.683 95.8405 403.184C96.1072 402.773 96.5472 402.568 97.1605 402.568C97.6832 402.568 98.1072 402.728 98.4325 403.048C98.7578 403.368 98.9205 403.792 98.9205 404.32C98.9205 404.848 98.7312 405.28 98.3525 405.616C97.9738 405.952 97.5072 406.12 96.9525 406.12C96.3125 406.12 95.8058 405.891 95.4325 405.432C95.0645 404.973 94.8805 404.4 94.8805 403.712C94.8805 402.789 95.1392 402.056 95.6565 401.512C96.1738 400.968 96.8432 400.696 97.6645 400.696C98.1338 400.696 98.5018 400.781 98.7685 400.952ZM95.9445 404.336C95.9445 404.624 96.0432 404.859 96.2405 405.04C96.4432 405.216 96.6805 405.304 96.9525 405.304C97.2352 405.304 97.4725 405.216 97.6645 405.04C97.8618 404.864 97.9605 404.629 97.9605 404.336C97.9605 404.043 97.8618 403.808 97.6645 403.632C97.4725 403.456 97.2352 403.368 96.9525 403.368C96.6698 403.368 96.4298 403.456 96.2325 403.632C96.0405 403.808 95.9445 404.043 95.9445 404.336ZM103.729 405.568C103.334 405.936 102.828 406.12 102.209 406.12C101.59 406.12 101.084 405.936 100.689 405.568C100.294 405.2 100.097 404.685 100.097 404.024V400.328H101.049V403.968C101.049 404.363 101.15 404.669 101.353 404.888C101.561 405.101 101.846 405.208 102.209 405.208C102.577 405.208 102.862 405.101 103.065 404.888C103.268 404.675 103.369 404.368 103.369 403.968V400.328H104.329V404.024C104.329 404.685 104.129 405.2 103.729 405.568ZM134.282 406H135.194L133.842 403.624C134.698 403.464 135.218 402.832 135.218 402.016C135.218 401.08 134.554 400.328 133.482 400.328H131.346V406H132.138V403.68H132.986L134.282 406ZM132.138 402.976V401.032H133.338C133.978 401.032 134.41 401.416 134.41 402.016C134.41 402.6 133.978 402.976 133.338 402.976H132.138ZM140.067 406V405.272H137.403V403.536H139.819V402.8H137.403V401.056H140.067V400.328H136.619V406H140.067ZM139.619 398.976H138.579L137.771 399.928H138.523L139.619 398.976ZM146.46 406V403.224H143.748V403.928H145.716C145.684 404.512 145.228 405.408 143.964 405.408C142.948 405.408 141.988 404.664 141.988 403.16C141.988 401.656 142.98 400.928 143.996 400.928C144.876 400.928 145.54 401.408 145.796 402.224L146.508 401.92C146.18 400.896 145.228 400.208 143.996 400.208C142.596 400.208 141.188 401.24 141.188 403.16C141.188 405.08 142.516 406.12 143.94 406.12C144.892 406.12 145.508 405.648 145.756 405.2L145.828 406H146.46ZM148.785 406V400.328H147.985V406H148.785ZM150.987 403.16C150.987 401.68 151.979 400.928 153.035 400.928C154.091 400.928 155.083 401.68 155.083 403.16C155.083 404.64 154.091 405.4 153.035 405.4C151.979 405.4 150.987 404.64 150.987 403.16ZM150.187 403.16C150.187 405.056 151.611 406.12 153.035 406.12C154.459 406.12 155.883 405.056 155.883 403.16C155.883 401.264 154.459 400.208 153.035 400.208C151.611 400.208 150.187 401.264 150.187 403.16ZM161.946 406V400.328H161.162V404.68L158.33 400.328H157.282V406H158.066V401.376L161.13 406H161.946ZM165.911 405.488C165.911 405.8 166.151 406.04 166.463 406.04C166.775 406.04 167.023 405.8 167.023 405.488C167.023 405.176 166.775 404.928 166.463 404.928C166.151 404.928 165.911 405.176 165.911 405.488ZM165.903 402.672C165.903 402.984 166.143 403.224 166.455 403.224C166.767 403.224 167.015 402.984 167.015 402.672C167.015 402.36 166.767 402.112 166.455 402.112C166.143 402.112 165.903 402.36 165.903 402.672ZM171.56 403.408C171.56 404.08 171.682 404.573 171.928 404.888C172.12 405.144 172.386 405.272 172.728 405.272C173.058 405.272 173.325 405.144 173.528 404.888C173.768 404.579 173.888 404.085 173.888 403.408C173.888 402.731 173.768 402.237 173.528 401.928C173.325 401.672 173.058 401.544 172.728 401.544C172.386 401.544 172.12 401.672 171.928 401.928C171.682 402.232 171.56 402.725 171.56 403.408ZM171.072 405.272C170.762 404.808 170.608 404.187 170.608 403.408C170.608 402.629 170.762 402.008 171.072 401.544C171.45 400.979 172.002 400.696 172.728 400.696C173.448 400.696 173.997 400.979 174.376 401.544C174.685 402.008 174.84 402.629 174.84 403.408C174.84 404.187 174.685 404.808 174.376 405.272C173.997 405.837 173.448 406.12 172.728 406.12C172.002 406.12 171.45 405.837 171.072 405.272ZM176.809 403.408C176.809 404.08 176.932 404.573 177.177 404.888C177.369 405.144 177.636 405.272 177.977 405.272C178.308 405.272 178.575 405.144 178.777 404.888C179.017 404.579 179.137 404.085 179.137 403.408C179.137 402.731 179.017 402.237 178.777 401.928C178.575 401.672 178.308 401.544 177.977 401.544C177.636 401.544 177.369 401.672 177.177 401.928C176.932 402.232 176.809 402.725 176.809 403.408ZM176.321 405.272C176.012 404.808 175.857 404.187 175.857 403.408C175.857 402.629 176.012 402.008 176.321 401.544C176.7 400.979 177.252 400.696 177.977 400.696C178.697 400.696 179.247 400.979 179.625 401.544C179.935 402.008 180.089 402.629 180.089 403.408C180.089 404.187 179.935 404.808 179.625 405.272C179.247 405.837 178.697 406.12 177.977 406.12C177.252 406.12 176.7 405.837 176.321 405.272ZM181.211 405.824L181.475 405.04C181.725 405.2 182.035 405.28 182.403 405.28C182.936 405.28 183.349 405.133 183.643 404.84C183.936 404.547 184.096 404.149 184.123 403.648C184.021 403.824 183.859 403.968 183.635 404.08C183.416 404.192 183.157 404.248 182.859 404.248C182.368 404.248 181.947 404.091 181.595 403.776C181.243 403.456 181.067 403.032 181.067 402.504C181.067 401.976 181.253 401.544 181.627 401.208C182 400.867 182.464 400.696 183.019 400.696C183.6 400.696 184.085 400.904 184.475 401.32C184.869 401.736 185.067 402.336 185.067 403.12C185.067 404.075 184.84 404.813 184.387 405.336C183.939 405.859 183.28 406.12 182.411 406.12C181.909 406.12 181.509 406.021 181.211 405.824ZM183.995 402.472C183.995 402.195 183.896 401.965 183.699 401.784C183.501 401.603 183.269 401.512 183.003 401.512C182.731 401.512 182.496 401.603 182.299 401.784C182.107 401.96 182.011 402.189 182.011 402.472C182.011 402.765 182.107 403 182.299 403.176C182.491 403.352 182.725 403.44 183.003 403.44C183.275 403.44 183.507 403.352 183.699 403.176C183.896 402.995 183.995 402.76 183.995 402.472ZM187.964 402.976C188.22 402.971 188.425 402.899 188.58 402.76C188.74 402.616 188.82 402.435 188.82 402.216C188.82 402.013 188.74 401.84 188.58 401.696C188.425 401.552 188.22 401.48 187.964 401.48C187.708 401.48 187.502 401.552 187.348 401.696C187.193 401.84 187.116 402.013 187.116 402.216C187.116 402.435 187.193 402.616 187.348 402.76C187.502 402.899 187.708 402.971 187.964 402.976ZM187.964 405.312C188.268 405.312 188.505 405.237 188.676 405.088C188.852 404.933 188.94 404.744 188.94 404.52C188.94 404.296 188.852 404.107 188.676 403.952C188.505 403.797 188.268 403.72 187.964 403.72C187.665 403.72 187.428 403.797 187.252 403.952C187.081 404.107 186.996 404.296 186.996 404.52C186.996 404.744 187.081 404.933 187.252 405.088C187.428 405.237 187.665 405.312 187.964 405.312ZM187.964 406.12C187.382 406.12 186.916 405.979 186.564 405.696C186.217 405.413 186.044 405.053 186.044 404.616C186.044 404.328 186.132 404.069 186.308 403.84C186.489 403.605 186.721 403.44 187.004 403.344C186.758 403.253 186.556 403.099 186.396 402.88C186.241 402.656 186.164 402.416 186.164 402.16C186.164 401.728 186.332 401.376 186.668 401.104C187.009 400.832 187.441 400.696 187.964 400.696C188.486 400.696 188.918 400.832 189.26 401.104C189.601 401.376 189.772 401.728 189.772 402.16C189.772 402.411 189.692 402.648 189.532 402.872C189.377 403.096 189.177 403.253 188.932 403.344C189.209 403.445 189.438 403.611 189.62 403.84C189.801 404.069 189.892 404.328 189.892 404.616C189.892 405.053 189.716 405.413 189.364 405.696C189.017 405.979 188.55 406.12 187.964 406.12ZM192.191 406H191.231V400.328H194.759V401.232H192.191V402.824H194.495V403.712H192.191V406ZM198.868 406L197.676 403.76H196.972V406H196.004V400.328H198.18C198.714 400.328 199.143 400.493 199.468 400.824C199.794 401.149 199.956 401.557 199.956 402.048C199.956 402.453 199.842 402.8 199.612 403.088C199.383 403.376 199.071 403.568 198.676 403.664L199.956 406H198.868ZM196.972 402.912H198.004C198.298 402.912 198.532 402.835 198.708 402.68C198.89 402.52 198.98 402.309 198.98 402.048C198.98 401.781 198.89 401.571 198.708 401.416C198.532 401.256 198.298 401.176 198.004 401.176H196.972V402.912ZM204.533 400.816V401.656C204.405 401.763 204.28 401.875 204.157 401.992C204.04 402.109 203.877 402.304 203.669 402.576C203.461 402.843 203.28 403.125 203.125 403.424C202.97 403.717 202.821 404.096 202.677 404.56C202.538 405.019 202.448 405.499 202.405 406H201.413C201.456 405.461 201.554 404.944 201.709 404.448C201.864 403.947 202.037 403.536 202.229 403.216C202.421 402.891 202.608 402.605 202.789 402.36C202.976 402.115 203.133 401.936 203.261 401.824L203.445 401.656H200.661V400.816H204.533ZM205.056 404.568L205.96 404.336C205.982 404.619 206.088 404.851 206.28 405.032C206.472 405.213 206.715 405.304 207.008 405.304C207.286 405.304 207.518 405.219 207.704 405.048C207.896 404.872 207.992 404.643 207.992 404.36C207.992 404.056 207.896 403.821 207.704 403.656C207.512 403.485 207.275 403.4 206.992 403.4C206.63 403.4 206.342 403.52 206.128 403.76L205.224 403.432L205.864 400.816H208.704V401.656H206.512L206.192 402.968C206.422 402.728 206.752 402.608 207.184 402.608C207.712 402.608 208.139 402.763 208.464 403.072C208.795 403.381 208.96 403.803 208.96 404.336C208.96 404.837 208.782 405.261 208.424 405.608C208.067 405.955 207.595 406.128 207.008 406.128C206.464 406.128 206.011 405.976 205.648 405.672C205.286 405.363 205.088 404.995 205.056 404.568Z" fill="black"/>
<line opacity="0.8" x1="130" y1="391.75" x2="272" y2="391.75" stroke="black" stroke-width="0.5" stroke-dasharray="0.6 0.6"/>
<line opacity="0.8" x1="74" y1="407.75" x2="108" y2="407.75" stroke="black" stroke-width="0.5" stroke-dasharray="0.6 0.6"/>
<line opacity="0.8" x1="173" y1="407.75" x2="212" y2="407.75" stroke="black" stroke-width="0.5" stroke-dasharray="0.6 0.6"/>
<rect x="0.5" y="310.5" width="289" height="107" stroke="black"/>
<rect x="25" y="379.707" width="18.799" height="18.799" rx="0.5" transform="rotate(45 25 379.707)" fill="#ED712E" stroke="black"/>
<path d="M19.46 387.46L30.7401 398.74M19.46 398.74L29.9344 387.46" stroke="black" stroke-width="2"/>
<defs>
<linearGradient id="paint0_linear_505_692" x1="37.3206" y1="123.731" x2="177.426" y2="276.993" gradientUnits="userSpaceOnUse">
<stop stop-color="#1F228B"/>
<stop offset="1" stop-color="#90D5F2"/>
</linearGradient>
</defs>
</svg>
