<svg width="290" height="418" viewBox="0 0 290 418" fill="none" xmlns="http://www.w3.org/2000/svg">
<mask id="path-1-inside-1_562_955" fill="white">
<path fill-rule="evenodd" clip-rule="evenodd" d="M168.19 11.4272H101.413V84.1284C60.4651 98.009 31 136.716 31 182.293C31 239.534 77.4736 285.937 134.802 285.937C192.13 285.937 238.603 239.534 238.603 182.293C238.603 136.716 209.138 98.0091 168.19 84.1284V11.4272Z"/>
</mask>
<path fill-rule="evenodd" clip-rule="evenodd" d="M168.19 11.4272H101.413V84.1284C60.4651 98.009 31 136.716 31 182.293C31 239.534 77.4736 285.937 134.802 285.937C192.13 285.937 238.603 239.534 238.603 182.293C238.603 136.716 209.138 98.0091 168.19 84.1284V11.4272Z" fill="white"/>
<path d="M101.413 11.4272V10.4272H100.413V11.4272H101.413ZM168.19 11.4272H169.19V10.4272H168.19V11.4272ZM101.413 84.1284L101.734 85.0754L102.413 84.8453V84.1284H101.413ZM168.19 84.1284H167.19V84.8454L167.869 85.0755L168.19 84.1284ZM101.413 12.4272H168.19V10.4272H101.413V12.4272ZM102.413 84.1284V11.4272H100.413V84.1284H102.413ZM32 182.293C32 137.158 61.1788 98.823 101.734 85.0754L101.092 83.1813C59.7513 97.1951 30 136.273 30 182.293H32ZM134.802 284.937C78.0244 284.937 32 238.98 32 182.293H30C30 240.088 76.9228 286.937 134.802 286.937V284.937ZM237.603 182.293C237.603 238.98 191.579 284.937 134.802 284.937V286.937C192.681 286.937 239.603 240.088 239.603 182.293H237.603ZM167.869 85.0755C208.425 98.8231 237.603 137.158 237.603 182.293H239.603C239.603 136.273 209.852 97.1952 168.511 83.1814L167.869 85.0755ZM167.19 11.4272V84.1284H169.19V11.4272H167.19Z" fill="black" mask="url(#path-1-inside-1_562_955)"/>
<path d="M99.8322 212.69C99.8322 216.503 96.736 219.596 92.9151 219.596C89.0942 219.596 85.998 216.503 85.998 212.69C85.998 208.877 89.0942 205.784 92.9151 205.784C96.736 205.784 99.8322 208.877 99.8322 212.69Z" fill="white" stroke="black"/>
<path d="M145.022 248.261C145.022 253.935 140.414 258.536 134.73 258.536C129.045 258.536 124.438 253.935 124.438 248.261C124.438 242.586 129.045 237.985 134.73 237.985C140.414 237.985 145.022 242.586 145.022 248.261Z" fill="white" stroke="black"/>
<path d="M171.629 182.736C171.629 186.549 168.533 189.642 164.712 189.642C160.891 189.642 157.795 186.549 157.795 182.736C157.795 178.923 160.891 175.83 164.712 175.83C168.533 175.83 171.629 178.923 171.629 182.736Z" fill="white" stroke="black"/>
<mask id="path-6-inside-2_562_955" fill="white">
<path fill-rule="evenodd" clip-rule="evenodd" d="M52.8334 182.38C53.1407 181.787 56.8413 174.85 63.7691 170.65C64.2185 170.377 64.6647 170.097 65.1175 169.812C71.9603 165.507 80.3109 160.253 124.09 168.249C153.429 173.608 163.353 167.225 171.652 161.888C176.556 158.734 180.893 155.946 188.332 156.161C207.632 156.718 216.327 173.21 216.573 182.38H216.7C216.7 193.123 214.581 203.761 210.463 213.687C206.346 223.612 200.311 232.631 192.702 240.228C185.094 247.824 176.062 253.85 166.121 257.962C156.18 262.073 145.526 264.189 134.766 264.189C124.006 264.189 113.352 262.073 103.411 257.962C93.4701 253.85 84.4377 247.824 76.8294 240.228C69.2211 232.631 63.1858 223.612 59.0682 213.687C54.9558 203.774 52.8367 193.15 52.8314 182.42L52.8125 182.42C52.8125 182.42 52.8188 182.408 52.8313 182.383C52.8313 182.382 52.8313 182.381 52.8313 182.38H52.8334Z"/>
</mask>
<path fill-rule="evenodd" clip-rule="evenodd" d="M52.8334 182.38C53.1407 181.787 56.8413 174.85 63.7691 170.65C64.2185 170.377 64.6647 170.097 65.1175 169.812C71.9603 165.507 80.3109 160.253 124.09 168.249C153.429 173.608 163.353 167.225 171.652 161.888C176.556 158.734 180.893 155.946 188.332 156.161C207.632 156.718 216.327 173.21 216.573 182.38H216.7C216.7 193.123 214.581 203.761 210.463 213.687C206.346 223.612 200.311 232.631 192.702 240.228C185.094 247.824 176.062 253.85 166.121 257.962C156.18 262.073 145.526 264.189 134.766 264.189C124.006 264.189 113.352 262.073 103.411 257.962C93.4701 253.85 84.4377 247.824 76.8294 240.228C69.2211 232.631 63.1858 223.612 59.0682 213.687C54.9558 203.774 52.8367 193.15 52.8314 182.42L52.8125 182.42C52.8125 182.42 52.8188 182.408 52.8313 182.383C52.8313 182.382 52.8313 182.381 52.8313 182.38H52.8334Z" fill="url(#paint0_linear_562_955)"/>
<path d="M52.8334 182.38V183.38H53.4412L53.7211 182.84L52.8334 182.38ZM63.7691 170.65L64.2875 171.505L64.2875 171.505L63.7691 170.65ZM65.1175 169.812L64.585 168.965L64.585 168.965L65.1175 169.812ZM124.09 168.249L123.91 169.233L124.09 168.249ZM171.652 161.888L172.193 162.729L172.193 162.729L171.652 161.888ZM188.332 156.161L188.361 155.161L188.332 156.161ZM216.573 182.38L215.574 182.406L215.6 183.38H216.573V182.38ZM216.7 182.38H217.7V181.38H216.7V182.38ZM210.463 213.687L209.54 213.303L209.54 213.303L210.463 213.687ZM166.121 257.962L166.503 258.886L166.503 258.886L166.121 257.962ZM103.411 257.962L103.793 257.038L103.793 257.038L103.411 257.962ZM59.0682 213.687L59.9919 213.303L59.9919 213.303L59.0682 213.687ZM52.8314 182.42L53.8314 182.42L53.8309 181.426L52.8372 181.42L52.8314 182.42ZM52.8125 182.42L51.9193 181.971L51.1944 183.411L52.8066 183.42L52.8125 182.42ZM52.8313 182.383L53.7194 182.843L53.8314 182.627L53.8313 182.383L52.8313 182.383ZM52.8313 182.38V181.38H51.8313V182.38H52.8313ZM53.7211 182.84C54.0081 182.287 57.6038 175.557 64.2875 171.505L63.2507 169.795C56.0788 174.142 52.2734 181.287 51.9456 181.919L53.7211 182.84ZM64.2875 171.505C64.7452 171.227 65.1984 170.942 65.65 170.658L64.585 168.965C64.131 169.251 63.6918 169.527 63.2507 169.795L64.2875 171.505ZM65.65 170.658C69.0046 168.548 72.652 166.243 80.8534 165.412C89.1291 164.575 102.053 165.241 123.91 169.233L124.27 167.266C102.348 163.262 89.2069 162.557 80.6519 163.423C72.0225 164.296 68.0732 166.771 64.585 168.965L65.65 170.658ZM123.91 169.233C138.664 171.928 148.621 171.687 155.977 170.056C163.348 168.422 168.031 165.406 172.193 162.729L171.111 161.047C166.974 163.708 162.545 166.552 155.544 168.103C148.529 169.659 138.855 169.93 124.27 167.266L123.91 169.233ZM172.193 162.729C177.085 159.583 181.194 156.955 188.303 157.16L188.361 155.161C180.591 154.936 176.027 157.886 171.111 161.047L172.193 162.729ZM188.303 157.16C197.644 157.43 204.388 161.545 208.842 166.695C213.321 171.875 215.457 178.073 215.574 182.406L217.573 182.353C217.443 177.516 215.109 170.884 210.354 165.386C205.574 159.859 198.321 155.449 188.361 155.161L188.303 157.16ZM216.573 183.38H216.7V181.38H216.573V183.38ZM215.7 182.38C215.7 192.991 213.607 203.499 209.54 213.303L211.387 214.07C215.555 204.023 217.7 193.254 217.7 182.38H215.7ZM209.54 213.303C205.473 223.108 199.511 232.016 191.996 239.52L193.409 240.935C201.11 233.246 207.219 224.117 211.387 214.07L209.54 213.303ZM191.996 239.52C184.48 247.024 175.558 252.976 165.739 257.038L166.503 258.886C176.565 254.724 185.708 248.625 193.409 240.935L191.996 239.52ZM165.739 257.038C155.919 261.099 145.395 263.189 134.766 263.189V265.189C145.657 265.189 156.441 263.047 166.503 258.886L165.739 257.038ZM134.766 263.189C124.137 263.189 113.613 261.099 103.793 257.038L103.029 258.886C113.091 263.047 123.875 265.189 134.766 265.189V263.189ZM103.793 257.038C93.9735 252.976 85.0514 247.024 77.536 239.52L76.1228 240.935C83.8241 248.625 92.9667 254.724 103.029 258.886L103.793 257.038ZM77.536 239.52C70.0206 232.016 64.0591 223.108 59.9919 213.303L58.1446 214.07C62.3125 224.117 68.4216 233.246 76.1228 240.935L77.536 239.52ZM59.9919 213.303C55.9298 203.512 53.8366 193.018 53.8314 182.42L51.8314 182.421C51.8368 193.282 53.9819 204.036 58.1446 214.07L59.9919 213.303ZM52.8372 181.42L52.8184 181.42L52.8066 183.42L52.8255 183.42L52.8372 181.42ZM52.8125 182.42C53.7057 182.87 53.7057 182.87 53.7057 182.87C53.7057 182.87 53.7057 182.87 53.7057 182.87C53.7057 182.87 53.7057 182.87 53.7057 182.87C53.7057 182.87 53.7057 182.87 53.7056 182.87C53.7056 182.87 53.7056 182.87 53.7056 182.87C53.7055 182.87 53.7055 182.87 53.7055 182.87C53.7054 182.87 53.7054 182.87 53.7054 182.87C53.7054 182.871 53.7055 182.87 53.7056 182.87C53.706 182.869 53.7067 182.868 53.7079 182.866C53.7101 182.861 53.714 182.854 53.7194 182.843L51.9433 181.924C51.9362 181.937 51.9306 181.948 51.9266 181.956C51.9245 181.96 51.9229 181.963 51.9217 181.966C51.9211 181.967 51.9206 181.968 51.9202 181.969C51.92 181.969 51.9198 181.969 51.9197 181.97C51.9196 181.97 51.9195 181.97 51.9195 181.97C51.9194 181.97 51.9194 181.97 51.9194 181.97C51.9193 181.97 51.9193 181.97 51.9193 181.97C51.9193 181.97 51.9193 181.971 51.9193 181.971C51.9193 181.971 51.9193 181.971 51.9193 181.971C51.9193 181.971 51.9193 181.971 52.8125 182.42ZM53.8313 182.383C53.8313 182.382 53.8313 182.381 53.8313 182.38H51.8313C51.8313 182.381 51.8313 182.383 51.8313 182.383L53.8313 182.383ZM52.8313 183.38H52.8334V181.38H52.8313V183.38Z" fill="black" mask="url(#path-6-inside-2_562_955)"/>
<rect x="88.0674" y="1.43677" width="92.1876" height="25.5844" rx="12.7922" fill="white" stroke="black"/>
<rect x="0.5" y="310.5" width="289" height="107" fill="white" stroke="black"/>
<rect width="278" height="41" transform="translate(6 316)" fill="black"/>
<path d="M77.4411 327.566V346H84.2531C87.6851 346 89.9731 343.868 89.9731 340.904C89.9731 338.72 88.6211 337.03 86.6711 336.51C88.2571 335.938 89.4011 334.482 89.4011 332.532C89.4011 329.646 87.3211 327.566 83.7851 327.566H77.4411ZM80.5351 335.366V330.218H83.2911C85.1891 330.218 86.2811 331.232 86.2811 332.792C86.2811 334.326 85.1891 335.366 83.3691 335.366H80.5351ZM80.5351 343.348V337.992H83.8111C85.7351 337.992 86.8011 339.11 86.8011 340.696C86.8011 342.334 85.5791 343.348 83.7071 343.348H80.5351ZM99.7051 343.686C97.8591 343.686 96.1691 342.282 96.1691 339.656C96.1691 337.03 97.8591 335.678 99.7051 335.678C101.577 335.678 103.241 337.03 103.241 339.656C103.241 342.308 101.577 343.686 99.7051 343.686ZM99.7051 332.948C95.9351 332.948 93.1531 335.782 93.1531 339.656C93.1531 343.556 95.9351 346.39 99.7051 346.39C103.501 346.39 106.283 343.556 106.283 339.656C106.283 335.782 103.501 332.948 99.7051 332.948ZM115.802 343.686C113.956 343.686 112.266 342.282 112.266 339.656C112.266 337.03 113.956 335.678 115.802 335.678C117.674 335.678 119.338 337.03 119.338 339.656C119.338 342.308 117.674 343.686 115.802 343.686ZM115.802 332.948C112.032 332.948 109.25 335.782 109.25 339.656C109.25 343.556 112.032 346.39 115.802 346.39C119.598 346.39 122.38 343.556 122.38 339.656C122.38 335.782 119.598 332.948 115.802 332.948ZM125.216 342.568C125.372 343.998 126.776 346.39 130.442 346.39C133.666 346.39 135.226 344.258 135.226 342.334C135.226 340.462 133.978 339.006 131.586 338.486L129.662 338.096C128.882 337.94 128.388 337.446 128.388 336.77C128.388 335.99 129.142 335.314 130.208 335.314C131.898 335.314 132.444 336.484 132.548 337.212L135.096 336.484C134.888 335.236 133.744 332.948 130.208 332.948C127.582 332.948 125.554 334.82 125.554 337.03C125.554 338.772 126.724 340.228 128.96 340.722L130.832 341.138C131.846 341.346 132.314 341.866 132.314 342.542C132.314 343.322 131.664 343.998 130.416 343.998C128.804 343.998 127.946 342.984 127.842 341.84L125.216 342.568ZM143.079 329.464H140.349V331.362C140.349 332.48 139.751 333.338 138.399 333.338H137.749V336.016H140.089V342.386C140.089 344.752 141.545 346.156 143.885 346.156C144.977 346.156 145.549 345.948 145.731 345.87V343.374C145.601 343.4 145.107 343.478 144.691 343.478C143.573 343.478 143.079 343.01 143.079 341.892V336.016H145.705V333.338H143.079V329.464ZM153.895 351.122L161.955 333.338H158.757L155.351 341.346L151.711 333.338H148.305L153.713 344.492L150.671 351.122H153.895ZM168.584 346V338.564H176.072V335.678H168.584V330.504H176.93V327.566H165.464V346H168.584ZM183.809 346V327.176H180.793V346H183.809ZM194.303 343.686C192.457 343.686 190.767 342.282 190.767 339.656C190.767 337.03 192.457 335.678 194.303 335.678C196.175 335.678 197.839 337.03 197.839 339.656C197.839 342.308 196.175 343.686 194.303 343.686ZM194.303 332.948C190.533 332.948 187.751 335.782 187.751 339.656C187.751 343.556 190.533 346.39 194.303 346.39C198.099 346.39 200.881 343.556 200.881 339.656C200.881 335.782 198.099 332.948 194.303 332.948ZM203.718 342.568C203.874 343.998 205.278 346.39 208.944 346.39C212.168 346.39 213.728 344.258 213.728 342.334C213.728 340.462 212.48 339.006 210.088 338.486L208.164 338.096C207.384 337.94 206.89 337.446 206.89 336.77C206.89 335.99 207.644 335.314 208.71 335.314C210.4 335.314 210.946 336.484 211.05 337.212L213.598 336.484C213.39 335.236 212.246 332.948 208.71 332.948C206.084 332.948 204.056 334.82 204.056 337.03C204.056 338.772 205.226 340.228 207.462 340.722L209.334 341.138C210.348 341.346 210.816 341.866 210.816 342.542C210.816 343.322 210.166 343.998 208.918 343.998C207.306 343.998 206.448 342.984 206.344 341.84L203.718 342.568Z" fill="white"/>
<path opacity="0.8" d="M39.8541 379.923V369.288H38.3541V379.923H39.8541ZM52.0532 379.923V369.288H50.5832V377.448L45.2732 369.288H43.3082V379.923H44.7782V371.253L50.5232 379.923H52.0532ZM56.9687 379.923V375.453H61.4987V374.073H56.9687V370.653H61.9637V369.288H55.4987V379.923H56.9687ZM65.2621 374.598C65.2621 371.823 67.1221 370.413 69.1021 370.413C71.0821 370.413 72.9421 371.823 72.9421 374.598C72.9421 377.373 71.0821 378.798 69.1021 378.798C67.1221 378.798 65.2621 377.373 65.2621 374.598ZM63.7621 374.598C63.7621 378.153 66.4321 380.148 69.1021 380.148C71.7721 380.148 74.4421 378.153 74.4421 374.598C74.4421 371.043 71.7721 369.063 69.1021 369.063C66.4321 369.063 63.7621 371.043 63.7621 374.598ZM83.9203 371.703C83.6803 370.548 82.7203 369.063 80.3203 369.063C78.3553 369.063 76.8103 370.563 76.8103 372.228C76.8103 373.818 77.8903 374.808 79.4053 375.138L80.9203 375.468C81.9853 375.693 82.5103 376.353 82.5103 377.118C82.5103 378.048 81.7903 378.813 80.3203 378.813C78.7153 378.813 77.8753 377.718 77.7703 376.533L76.3603 376.983C76.5553 378.498 77.7703 380.148 80.3353 380.148C82.6003 380.148 84.0103 378.648 84.0103 376.998C84.0103 375.513 83.0203 374.403 81.2503 374.013L79.6603 373.668C78.7603 373.473 78.2953 372.888 78.2953 372.123C78.2953 371.133 79.1503 370.353 80.3503 370.353C81.8353 370.353 82.4803 371.403 82.6003 372.168L83.9203 371.703ZM91.0719 378.963C91.0719 379.548 91.5219 379.998 92.1069 379.998C92.6919 379.998 93.1569 379.548 93.1569 378.963C93.1569 378.378 92.6919 377.913 92.1069 377.913C91.5219 377.913 91.0719 378.378 91.0719 378.963ZM91.0569 373.683C91.0569 374.268 91.5069 374.718 92.0919 374.718C92.6769 374.718 93.1419 374.268 93.1419 373.683C93.1419 373.098 92.6769 372.633 92.0919 372.633C91.5069 372.633 91.0569 373.098 91.0569 373.683ZM102.038 369.288V379.923H105.968C107.948 379.923 109.268 378.693 109.268 376.983C109.268 375.723 108.488 374.748 107.363 374.448C108.278 374.118 108.938 373.278 108.938 372.153C108.938 370.488 107.738 369.288 105.698 369.288H102.038ZM103.823 373.788V370.818H105.413C106.508 370.818 107.138 371.403 107.138 372.303C107.138 373.188 106.508 373.788 105.458 373.788H103.823ZM103.823 378.393V375.303H105.713C106.823 375.303 107.438 375.948 107.438 376.863C107.438 377.808 106.733 378.393 105.653 378.393H103.823ZM113.099 374.598C113.099 372.033 114.869 370.758 116.654 370.758C118.454 370.758 120.224 372.033 120.224 374.598C120.224 377.163 118.454 378.438 116.654 378.438C114.869 378.438 113.099 377.163 113.099 374.598ZM111.254 374.598C111.254 378.093 113.864 380.148 116.654 380.148C119.444 380.148 122.069 378.093 122.069 374.598C122.069 371.118 119.444 369.063 116.654 369.063C113.864 369.063 111.254 371.118 111.254 374.598ZM125.92 374.598C125.92 372.033 127.69 370.758 129.475 370.758C131.275 370.758 133.045 372.033 133.045 374.598C133.045 377.163 131.275 378.438 129.475 378.438C127.69 378.438 125.92 377.163 125.92 374.598ZM124.075 374.598C124.075 378.093 126.685 380.148 129.475 380.148C132.265 380.148 134.89 378.093 134.89 374.598C134.89 371.118 132.265 369.063 129.475 369.063C126.685 369.063 124.075 371.118 124.075 374.598ZM144.486 371.778C144.246 370.593 143.271 369.063 140.766 369.063C138.786 369.063 137.151 370.533 137.151 372.318C137.151 373.908 138.231 374.973 139.851 375.303L141.351 375.618C142.266 375.813 142.776 376.368 142.776 377.058C142.776 377.883 142.116 378.528 140.841 378.528C139.311 378.528 138.516 377.508 138.411 376.398L136.731 376.878C136.896 378.408 138.141 380.148 140.841 380.148C143.271 380.148 144.606 378.573 144.606 376.923C144.606 375.423 143.601 374.238 141.726 373.863L140.196 373.548C139.371 373.368 138.951 372.858 138.951 372.183C138.951 371.373 139.701 370.653 140.781 370.653C142.206 370.653 142.761 371.628 142.866 372.288L144.486 371.778ZM154.816 370.983V369.288H146.101V370.983H149.551V379.923H151.351V370.983H154.816ZM163.613 379.923V378.243H158.843V375.423H163.163V373.788H158.843V370.968H163.613V369.288H157.043V379.923H163.613ZM171.893 379.923H173.933L171.533 375.543C173.018 375.183 173.933 374.028 173.933 372.513C173.933 370.713 172.658 369.288 170.603 369.288H166.523V379.923H168.338V375.723H169.658L171.893 379.923ZM168.338 374.133V370.878H170.273C171.383 370.878 172.103 371.523 172.103 372.513C172.103 373.488 171.383 374.133 170.273 374.133H168.338ZM187.75 379.923V378.213H182.875V369.288H181.075V379.923H187.75ZM197.611 379.923H199.576L195.436 369.288H193.351L189.211 379.923H191.116L192.106 377.253H196.606L197.611 379.923ZM194.356 371.238L195.976 375.588H192.736L194.356 371.238ZM208.021 379.923V375.633H212.341V373.968H208.021V370.983H212.836V369.288H206.221V379.923H208.021ZM221.995 379.923V378.213H217.12V369.288H215.32V379.923H221.995ZM230.96 379.923V378.243H226.19V375.423H230.51V373.788H226.19V370.968H230.96V369.288H224.39V379.923H230.96ZM237.711 380.148C239.946 380.148 241.686 378.783 241.686 376.218V369.288H239.886V376.113C239.886 377.613 239.076 378.438 237.711 378.438C236.361 378.438 235.536 377.613 235.536 376.113V369.288H233.751V376.218C233.751 378.783 235.491 380.148 237.711 380.148ZM250.23 379.923H252.27L249.87 375.543C251.355 375.183 252.27 374.028 252.27 372.513C252.27 370.713 250.995 369.288 248.94 369.288H244.86V379.923H246.675V375.723H247.995L250.23 379.923ZM246.675 374.133V370.878H248.61C249.72 370.878 250.44 371.523 250.44 372.513C250.44 373.488 249.72 374.133 248.61 374.133H246.675Z" fill="black"/>
<line opacity="0.8" x1="102" y1="383.75" x2="254" y2="383.75" stroke="black" stroke-width="0.5" stroke-dasharray="0.6 0.6"/>
<rect x="26.123" y="391.277" width="12.459" height="12.459" rx="0.75" transform="rotate(45 26.123 391.277)" fill="#ED712E" stroke="black" stroke-width="0.5"/>
<path fill-rule="evenodd" clip-rule="evenodd" d="M27.0088 396.605H25.0527L25.5418 401.496H26.5198L27.0088 396.605ZM26.519 402.474H25.541V403.452H26.519V402.474Z" fill="black"/>
<path opacity="0.8" d="M100.948 402.587V401.943H98.6031V397.624H97.9171V402.587H100.948ZM102.171 400.102C102.171 398.807 103.039 398.149 103.963 398.149C104.887 398.149 105.755 398.807 105.755 400.102C105.755 401.397 104.887 402.062 103.963 402.062C103.039 402.062 102.171 401.397 102.171 400.102ZM101.471 400.102C101.471 401.761 102.717 402.692 103.963 402.692C105.209 402.692 106.455 401.761 106.455 400.102C106.455 398.443 105.209 397.519 103.963 397.519C102.717 397.519 101.471 398.443 101.471 400.102ZM110.945 398.261V397.624H106.941V398.261H108.6V402.587H109.286V398.261H110.945ZM113.855 402.139C113.855 402.412 114.065 402.622 114.338 402.622C114.611 402.622 114.828 402.412 114.828 402.139C114.828 401.866 114.611 401.649 114.338 401.649C114.065 401.649 113.855 401.866 113.855 402.139ZM113.848 399.675C113.848 399.948 114.058 400.158 114.331 400.158C114.604 400.158 114.821 399.948 114.821 399.675C114.821 399.402 114.604 399.185 114.331 399.185C114.058 399.185 113.848 399.402 113.848 399.675ZM118.805 400.102C118.805 398.905 119.631 398.31 120.464 398.31C121.304 398.31 122.13 398.905 122.13 400.102C122.13 401.299 121.304 401.894 120.464 401.894C119.631 401.894 118.805 401.299 118.805 400.102ZM117.944 400.102C117.944 401.733 119.162 402.692 120.464 402.692C121.766 402.692 122.991 401.733 122.991 400.102C122.991 398.478 121.766 397.519 120.464 397.519C119.162 397.519 117.944 398.478 117.944 400.102ZM127.563 398.415V397.624H123.496V398.415H125.106V402.587H125.946V398.415H127.563ZM131.038 402.587H131.99L130.87 400.543C131.563 400.375 131.99 399.836 131.99 399.129C131.99 398.289 131.395 397.624 130.436 397.624H128.532V402.587H129.379V400.627H129.995L131.038 402.587ZM129.379 399.885V398.366H130.282C130.8 398.366 131.136 398.667 131.136 399.129C131.136 399.584 130.8 399.885 130.282 399.885H129.379ZM134.745 400.9V400.179H132.771V400.9H134.745ZM139.085 398.17C138.889 398.044 138.539 397.946 138.119 397.946C136.712 397.946 135.683 398.94 135.683 400.585C135.683 401.747 136.341 402.692 137.496 402.692C138.448 402.692 139.218 402.062 139.218 401.117C139.218 400.186 138.581 399.584 137.678 399.584C137.195 399.584 136.761 399.759 136.523 400.123C136.6 399.241 137.216 398.674 138.07 398.674C138.441 398.674 138.679 398.765 138.847 398.856L139.085 398.17ZM136.614 401.131C136.614 400.599 137.02 400.284 137.496 400.284C137.972 400.284 138.378 400.599 138.378 401.131C138.378 401.656 137.972 401.978 137.496 401.978C137.034 401.978 136.614 401.649 136.614 401.131ZM142.095 402.692C143.138 402.692 143.95 402.055 143.95 400.858V397.624H143.11V400.809C143.11 401.509 142.732 401.894 142.095 401.894C141.465 401.894 141.08 401.509 141.08 400.809V397.624H140.247V400.858C140.247 402.055 141.059 402.692 142.095 402.692Z" fill="black"/>
<path opacity="0.8" d="M210.486 402.587H211.284L210.101 400.508C210.85 400.368 211.305 399.815 211.305 399.101C211.305 398.282 210.724 397.624 209.786 397.624H207.917V402.587H208.61V400.557H209.352L210.486 402.587ZM208.61 399.941V398.24H209.66C210.22 398.24 210.598 398.576 210.598 399.101C210.598 399.612 210.22 399.941 209.66 399.941H208.61ZM215.548 402.587V401.95H213.217V400.431H215.331V399.787H213.217V398.261H215.548V397.624H212.531V402.587H215.548ZM215.156 396.441H214.246L213.539 397.274H214.197L215.156 396.441ZM221.142 402.587V400.158H218.769V400.774H220.491C220.463 401.285 220.064 402.069 218.958 402.069C218.069 402.069 217.229 401.418 217.229 400.102C217.229 398.786 218.097 398.149 218.986 398.149C219.756 398.149 220.337 398.569 220.561 399.283L221.184 399.017C220.897 398.121 220.064 397.519 218.986 397.519C217.761 397.519 216.529 398.422 216.529 400.102C216.529 401.782 217.691 402.692 218.937 402.692C219.77 402.692 220.309 402.279 220.526 401.887L220.589 402.587H221.142ZM223.177 402.587V397.624H222.477V402.587H223.177ZM225.104 400.102C225.104 398.807 225.972 398.149 226.896 398.149C227.82 398.149 228.688 398.807 228.688 400.102C228.688 401.397 227.82 402.062 226.896 402.062C225.972 402.062 225.104 401.397 225.104 400.102ZM224.404 400.102C224.404 401.761 225.65 402.692 226.896 402.692C228.142 402.692 229.388 401.761 229.388 400.102C229.388 398.443 228.142 397.519 226.896 397.519C225.65 397.519 224.404 398.443 224.404 400.102ZM234.692 402.587V397.624H234.006V401.432L231.528 397.624H230.611V402.587H231.297V398.541L233.978 402.587H234.692ZM238.162 402.139C238.162 402.412 238.372 402.622 238.645 402.622C238.918 402.622 239.135 402.412 239.135 402.139C239.135 401.866 238.918 401.649 238.645 401.649C238.372 401.649 238.162 401.866 238.162 402.139ZM238.155 399.675C238.155 399.948 238.365 400.158 238.638 400.158C238.911 400.158 239.128 399.948 239.128 399.675C239.128 399.402 238.911 399.185 238.638 399.185C238.365 399.185 238.155 399.402 238.155 399.675ZM243.105 400.319C243.105 399.745 243.203 399.304 243.427 399.024C243.581 398.821 243.798 398.688 244.127 398.688C244.456 398.688 244.666 398.821 244.827 399.024C245.044 399.304 245.142 399.745 245.142 400.319C245.142 400.893 245.044 401.334 244.827 401.614C244.666 401.817 244.456 401.95 244.127 401.95C243.798 401.95 243.581 401.817 243.427 401.614C243.21 401.334 243.105 400.893 243.105 400.319ZM242.272 400.319C242.272 400.921 242.37 401.488 242.678 401.95C242.972 402.391 243.448 402.692 244.127 402.692C244.806 402.692 245.275 402.391 245.569 401.95C245.877 401.488 245.975 400.921 245.975 400.319C245.975 399.717 245.877 399.15 245.569 398.688C245.275 398.247 244.806 397.946 244.127 397.946C243.448 397.946 242.972 398.247 242.678 398.688C242.37 399.15 242.272 399.717 242.272 400.319ZM247.698 400.319C247.698 399.745 247.796 399.304 248.02 399.024C248.174 398.821 248.391 398.688 248.72 398.688C249.049 398.688 249.259 398.821 249.42 399.024C249.637 399.304 249.735 399.745 249.735 400.319C249.735 400.893 249.637 401.334 249.42 401.614C249.259 401.817 249.049 401.95 248.72 401.95C248.391 401.95 248.174 401.817 248.02 401.614C247.803 401.334 247.698 400.893 247.698 400.319ZM246.865 400.319C246.865 400.921 246.963 401.488 247.271 401.95C247.565 402.391 248.041 402.692 248.72 402.692C249.399 402.692 249.868 402.391 250.162 401.95C250.47 401.488 250.568 400.921 250.568 400.319C250.568 399.717 250.47 399.15 250.162 398.688C249.868 398.247 249.399 397.946 248.72 397.946C248.041 397.946 247.565 398.247 247.271 398.688C246.963 399.15 246.865 399.717 246.865 400.319ZM251.549 402.433C251.78 402.587 252.228 402.692 252.599 402.692C254.139 402.692 254.923 401.712 254.923 400.067C254.923 398.618 254.076 397.946 253.131 397.946C252.179 397.946 251.423 398.59 251.423 399.528C251.423 400.494 252.172 401.054 252.991 401.054C253.53 401.054 253.929 400.823 254.097 400.529C254.055 401.383 253.544 401.957 252.592 401.957C252.291 401.957 251.955 401.859 251.78 401.747L251.549 402.433ZM253.985 399.5C253.985 400.018 253.572 400.347 253.117 400.347C252.648 400.347 252.249 400.032 252.249 399.5C252.249 398.989 252.655 398.66 253.117 398.66C253.572 398.66 253.985 398.996 253.985 399.5ZM257.458 399.941C257.01 399.934 256.716 399.654 256.716 399.276C256.716 398.933 256.996 398.632 257.458 398.632C257.92 398.632 258.207 398.933 258.207 399.276C258.207 399.654 257.913 399.934 257.458 399.941ZM257.458 401.985C256.912 401.985 256.611 401.663 256.611 401.292C256.611 400.921 256.912 400.592 257.458 400.592C258.011 400.592 258.312 400.921 258.312 401.292C258.312 401.663 258.011 401.985 257.458 401.985ZM257.458 402.692C258.501 402.692 259.145 402.132 259.145 401.376C259.145 400.858 258.781 400.431 258.305 400.263C258.739 400.102 259.04 399.668 259.04 399.227C259.04 398.471 258.368 397.946 257.458 397.946C256.548 397.946 255.883 398.471 255.883 399.227C255.883 399.675 256.184 400.102 256.618 400.263C256.135 400.431 255.778 400.858 255.778 401.376C255.778 402.132 256.422 402.692 257.458 402.692ZM261.157 402.587V400.585H263.173V399.808H261.157V398.415H263.404V397.624H260.317V402.587H261.157ZM267 402.587H267.952L266.832 400.543C267.525 400.375 267.952 399.836 267.952 399.129C267.952 398.289 267.357 397.624 266.398 397.624H264.494V402.587H265.341V400.627H265.957L267 402.587ZM265.341 399.885V398.366H266.244C266.762 398.366 267.098 398.667 267.098 399.129C267.098 399.584 266.762 399.885 266.244 399.885H265.341ZM271.956 398.051H268.568V398.786H271.004C271.004 398.786 269.422 400.053 269.226 402.587H270.094C270.297 400.249 271.578 399.101 271.956 398.786V398.051ZM272.414 401.334C272.47 402.048 273.142 402.699 274.122 402.699C275.172 402.699 275.83 401.985 275.83 401.131C275.83 400.179 275.179 399.619 274.276 399.619C273.954 399.619 273.604 399.731 273.408 399.934L273.688 398.786H275.606V398.051H273.121L272.561 400.34L273.352 400.627C273.513 400.445 273.786 400.312 274.108 400.312C274.57 400.312 274.983 400.592 274.983 401.152C274.983 401.656 274.598 401.978 274.122 401.978C273.597 401.978 273.24 401.614 273.205 401.131L272.414 401.334Z" fill="black"/>
<defs>
<linearGradient id="paint0_linear_562_955" x1="27.3206" y1="123.731" x2="167.426" y2="276.993" gradientUnits="userSpaceOnUse">
<stop stop-color="#1F228B"/>
<stop offset="1" stop-color="#90D5F2"/>
</linearGradient>
</defs>
</svg>
