<svg width="1680" height="1050" viewBox="0 0 1680 1050" fill="none" xmlns="http://www.w3.org/2000/svg">
<path fill-rule="evenodd" clip-rule="evenodd" d="M1086 483C1084.9 483 1084 483.895 1084 485V558C1084 559.105 1084.9 560 1086 560H1119.8C1119.7 560.116 1119.65 560.279 1119.68 560.447C1121.43 570.352 1112.04 583.201 1106.17 589.452C1105.83 589.805 1106.14 590.384 1106.62 590.292C1128.73 586.04 1143.14 569.254 1148.07 560.56C1148.18 560.366 1148.14 560.146 1148.01 560H1278C1279.1 560 1280 559.105 1280 558V485C1280 483.895 1279.1 483 1278 483H1086Z" fill="#F7F7F7"/>
<path d="M1101.12 509.16C1104.1 509.352 1104.3 507.064 1104.3 503.816V498.44C1104.3 497.88 1103.98 497.528 1103.42 497.56L1100.38 497.72V498.616L1103.25 498.456V503.816C1103.25 507.24 1102.99 508.376 1101.12 508.264L1098.58 508.104V509L1101.12 509.16ZM1106.26 504.936C1106.26 507.224 1107.41 509.16 1110.19 509.16C1112.67 509.16 1113.57 507.48 1113.89 506.232H1112.83C1112.51 507.56 1111.6 508.264 1110.19 508.264C1108.13 508.264 1107.41 506.84 1107.31 505.224H1113.62V504.776C1113.62 502.328 1112.21 500.92 1110.02 500.92C1107.82 500.92 1106.26 502.376 1106.26 504.936ZM1107.31 504.328C1107.31 502.92 1108.43 501.816 1110.02 501.816C1111.65 501.816 1112.56 502.92 1112.56 504.328H1107.31ZM1121.47 501.08V511.88H1122.52V507.704L1122.36 506.904H1122.68C1123 508.184 1124.12 509.16 1125.9 509.16C1128.2 509.16 1129.75 507.416 1129.75 505.048C1129.75 502.664 1128.2 500.92 1125.9 500.92C1124.12 500.92 1123 501.896 1122.68 503.176H1122.36L1122.52 502.376V501.08H1121.47ZM1122.52 505.048C1122.52 502.776 1123.99 501.816 1125.69 501.816C1127.39 501.816 1128.7 502.808 1128.7 505.048C1128.7 507.272 1127.39 508.264 1125.69 508.264C1123.99 508.264 1122.52 507.304 1122.52 505.048ZM1131.4 504.936C1131.4 507.224 1132.55 509.16 1135.33 509.16C1137.81 509.16 1138.71 507.48 1139.03 506.232H1137.97C1137.65 507.56 1136.74 508.264 1135.33 508.264C1133.27 508.264 1132.55 506.84 1132.45 505.224H1138.76V504.776C1138.76 502.328 1137.35 500.92 1135.16 500.92C1132.96 500.92 1131.4 502.376 1131.4 504.936ZM1132.45 504.328C1132.45 502.92 1133.57 501.816 1135.16 501.816C1136.79 501.816 1137.7 502.92 1137.7 504.328H1132.45ZM1145.01 501.816C1146.41 501.816 1147.09 502.472 1147.09 504.168V509H1148.15V504.04C1148.15 501.896 1147 500.92 1145.25 500.92C1143.53 500.92 1142.52 501.896 1142.2 503.336H1141.88L1142.04 502.536V501.08H1140.98V509H1142.04V505.368C1142.04 503.256 1143.27 501.816 1145.01 501.816ZM1156.45 506.968C1156.45 505.256 1154.71 504.904 1153.14 504.392C1151.86 503.976 1151.36 503.736 1151.36 502.904C1151.36 502.104 1152.13 501.816 1153.08 501.816C1154.42 501.816 1155.12 502.36 1155.12 503.528H1156.18C1156.18 502.28 1155.49 500.92 1153.08 500.92C1151.33 500.92 1150.31 501.752 1150.31 502.968C1150.31 504.344 1151.4 504.824 1152.9 505.288C1154.2 505.688 1155.4 505.88 1155.4 507.048C1155.4 507.944 1154.79 508.264 1153.44 508.264C1151.86 508.264 1151 507.608 1151 506.072H1149.94C1149.94 507.96 1150.95 509.16 1153.44 509.16C1155.75 509.16 1156.45 508.136 1156.45 506.968ZM1157.77 506.792C1157.77 507.624 1158.09 509.16 1160.36 509.16C1162.22 509.16 1163.08 508.024 1163.39 506.84H1163.71L1163.55 507.64V508.12C1163.55 508.68 1163.87 509 1164.43 509H1165.77V508.104H1164.6V504.488C1164.6 502.472 1163.4 500.92 1161.18 500.92C1158.92 500.92 1157.77 502.44 1157.77 504.008H1158.83C1158.83 502.36 1160 501.816 1161.18 501.816C1162.6 501.816 1163.45 502.6 1163.55 504.216L1160.25 504.52C1158.51 504.68 1157.77 505.56 1157.77 506.792ZM1158.83 506.696C1158.83 505.848 1159.36 505.512 1160.41 505.416L1163.55 505.112C1163.55 506.888 1162.35 508.264 1160.46 508.264C1159.44 508.264 1158.83 507.704 1158.83 506.696ZM1169.6 499.72C1170.19 499.72 1170.68 499.224 1170.68 498.632C1170.68 498.056 1170.19 497.56 1169.6 497.56C1169 497.56 1168.52 498.056 1168.52 498.632C1168.52 499.224 1169 499.72 1169.6 499.72ZM1167.08 509H1172.52V508.104H1170.3V501.8C1170.3 501.24 1170.04 500.856 1169.32 500.92L1167.72 501.08V501.976L1169.31 501.816V508.104H1167.08V509ZM1180.03 506.968C1180.03 505.256 1178.29 504.904 1176.72 504.392C1175.44 503.976 1174.94 503.736 1174.94 502.904C1174.94 502.104 1175.71 501.816 1176.65 501.816C1178 501.816 1178.7 502.36 1178.7 503.528H1179.76C1179.76 502.28 1179.07 500.92 1176.65 500.92C1174.91 500.92 1173.89 501.752 1173.89 502.968C1173.89 504.344 1174.97 504.824 1176.48 505.288C1177.77 505.688 1178.97 505.88 1178.97 507.048C1178.97 507.944 1178.37 508.264 1177.02 508.264C1175.44 508.264 1174.57 507.608 1174.57 506.072H1173.52C1173.52 507.96 1174.53 509.16 1177.02 509.16C1179.33 509.16 1180.03 508.136 1180.03 506.968ZM1195.26 501.08H1194.21V502.376L1194.37 503.176H1194.05C1193.73 501.896 1192.61 500.92 1190.83 500.92C1188.53 500.92 1186.97 502.664 1186.97 505.048C1186.97 507.416 1188.53 509.16 1190.83 509.16C1192.61 509.16 1193.73 508.184 1194.05 506.904H1194.37L1194.21 507.704V511.88H1195.26V501.08ZM1194.21 505.048C1194.21 507.304 1192.73 508.264 1191.04 508.264C1189.34 508.264 1188.03 507.272 1188.03 505.048C1188.03 502.808 1189.34 501.816 1191.04 501.816C1192.73 501.816 1194.21 502.776 1194.21 505.048ZM1200.68 508.264C1199.28 508.264 1198.6 507.608 1198.6 505.912V501.08H1197.54V506.04C1197.54 508.184 1198.69 509.16 1200.44 509.16C1202.16 509.16 1203.17 508.184 1203.49 506.744H1203.81L1203.65 507.544V509H1204.71V501.08H1203.65V504.712C1203.65 506.824 1202.42 508.264 1200.68 508.264ZM1206.66 504.936C1206.66 507.224 1207.81 509.16 1210.6 509.16C1213.08 509.16 1213.97 507.48 1214.29 506.232H1213.24C1212.92 507.56 1212.01 508.264 1210.6 508.264C1208.53 508.264 1207.81 506.84 1207.72 505.224H1214.02V504.776C1214.02 502.328 1212.61 500.92 1210.42 500.92C1208.23 500.92 1206.66 502.376 1206.66 504.936ZM1207.72 504.328C1207.72 502.92 1208.84 501.816 1210.42 501.816C1212.05 501.816 1212.97 502.92 1212.97 504.328H1207.72ZM1221.39 509H1226.9V508.104H1224.67V498.12C1224.67 497.4 1224.35 497 1223.63 497.08L1222.03 497.24V498.136L1223.62 497.976V508.104H1221.39V509ZM1227.88 504.936C1227.88 507.224 1229.03 509.16 1231.82 509.16C1234.3 509.16 1235.19 507.48 1235.51 506.232H1234.46C1234.14 507.56 1233.22 508.264 1231.82 508.264C1229.75 508.264 1229.03 506.84 1228.94 505.224H1235.24V504.776C1235.24 502.328 1233.83 500.92 1231.64 500.92C1229.45 500.92 1227.88 502.376 1227.88 504.936ZM1228.94 504.328C1228.94 502.92 1230.06 501.816 1231.64 501.816C1233.27 501.816 1234.18 502.92 1234.18 504.328H1228.94ZM1243.5 506.968C1243.5 505.256 1241.75 504.904 1240.19 504.392C1238.91 503.976 1238.41 503.736 1238.41 502.904C1238.41 502.104 1239.18 501.816 1240.12 501.816C1241.47 501.816 1242.17 502.36 1242.17 503.528H1243.23C1243.23 502.28 1242.54 500.92 1240.12 500.92C1238.38 500.92 1237.35 501.752 1237.35 502.968C1237.35 504.344 1238.44 504.824 1239.95 505.288C1241.24 505.688 1242.44 505.88 1242.44 507.048C1242.44 507.944 1241.83 508.264 1240.49 508.264C1238.91 508.264 1238.04 507.608 1238.04 506.072H1236.99C1236.99 507.96 1237.99 509.16 1240.49 509.16C1242.79 509.16 1243.5 508.136 1243.5 506.968ZM1098.9 524.032C1098.9 526.256 1100.3 528.16 1102.88 528.16C1104.29 528.16 1106.24 527.36 1106.46 525.056H1105.39C1105.14 526.736 1104.06 527.264 1102.88 527.264C1100.86 527.264 1099.95 525.76 1099.95 524.032C1099.95 522.32 1100.86 520.816 1102.88 520.816C1104.06 520.816 1105.14 521.344 1105.39 523.024H1106.46C1106.24 520.72 1104.29 519.92 1102.88 519.92C1100.3 519.92 1098.9 521.824 1098.9 524.032ZM1112.85 519.92C1111.12 519.92 1110.11 520.896 1109.79 522.336H1109.47L1109.63 521.536V516.24H1108.58V528H1109.63V524.368C1109.63 522.256 1110.86 520.816 1112.61 520.816C1114 520.816 1114.69 521.472 1114.69 523.168V528H1115.74V523.04C1115.74 520.896 1114.59 519.92 1112.85 519.92ZM1117.69 525.792C1117.69 526.624 1118.01 528.16 1120.28 528.16C1122.14 528.16 1123 527.024 1123.31 525.84H1123.63L1123.47 526.64V527.12C1123.47 527.68 1123.79 528 1124.35 528H1125.69V527.104H1124.52V523.488C1124.52 521.472 1123.32 519.92 1121.1 519.92C1118.84 519.92 1117.69 521.44 1117.69 523.008H1118.75C1118.75 521.36 1119.92 520.816 1121.1 520.816C1122.52 520.816 1123.37 521.6 1123.47 523.216L1120.17 523.52C1118.43 523.68 1117.69 524.56 1117.69 525.792ZM1118.75 525.696C1118.75 524.848 1119.28 524.512 1120.33 524.416L1123.47 524.112C1123.47 525.888 1122.27 527.264 1120.38 527.264C1119.36 527.264 1118.75 526.704 1118.75 525.696ZM1128.81 527.28V520.976H1131.26V520.08H1128.81V517.6L1127.75 517.92V520.08H1126.04V520.976H1127.75V527.12C1127.75 527.84 1128.07 528.208 1128.79 528.16L1131.58 528V527.104L1128.81 527.28ZM1139.56 525.968C1139.56 524.256 1137.82 523.904 1136.25 523.392C1134.97 522.976 1134.47 522.736 1134.47 521.904C1134.47 521.104 1135.24 520.816 1136.18 520.816C1137.53 520.816 1138.23 521.36 1138.23 522.528H1139.29C1139.29 521.28 1138.6 519.92 1136.18 519.92C1134.44 519.92 1133.42 520.752 1133.42 521.968C1133.42 523.344 1134.5 523.824 1136.01 524.288C1137.3 524.688 1138.5 524.88 1138.5 526.048C1138.5 526.944 1137.9 527.264 1136.55 527.264C1134.97 527.264 1134.1 526.608 1134.1 525.072H1133.05C1133.05 526.96 1134.06 528.16 1136.55 528.16C1138.86 528.16 1139.56 527.136 1139.56 525.968ZM1146.83 528H1147.88V520.816L1152.11 520.976V520.08L1147.87 519.92C1147.15 519.888 1146.83 520.24 1146.83 520.96V528ZM1152.77 523.936C1152.77 526.224 1153.92 528.16 1156.71 528.16C1159.19 528.16 1160.08 526.48 1160.4 525.232H1159.35C1159.03 526.56 1158.12 527.264 1156.71 527.264C1154.64 527.264 1153.92 525.84 1153.83 524.224H1160.13V523.776C1160.13 521.328 1158.72 519.92 1156.53 519.92C1154.34 519.92 1152.77 521.376 1152.77 523.936ZM1153.83 523.328C1153.83 521.92 1154.95 520.816 1156.53 520.816C1158.16 520.816 1159.08 521.92 1159.08 523.328H1153.83ZM1164 527.28V520.976H1166.44V520.08H1164V517.6L1162.94 517.92V520.08H1161.23V520.976H1162.94V527.12C1162.94 527.84 1163.26 528.208 1163.98 528.16L1166.76 528V527.104L1164 527.28ZM1167.91 524.032C1167.91 526.256 1169.5 528.16 1172.04 528.16C1174.57 528.16 1176.15 526.256 1176.15 524.032C1176.15 521.824 1174.57 519.92 1172.04 519.92C1169.5 519.92 1167.91 521.824 1167.91 524.032ZM1168.97 524.032C1168.97 522.32 1170.02 520.816 1172.04 520.816C1174.04 520.816 1175.1 522.32 1175.1 524.032C1175.1 525.76 1174.04 527.264 1172.04 527.264C1170.02 527.264 1168.97 525.76 1168.97 524.032ZM1187.69 519.92C1185.96 519.92 1185.11 520.896 1184.79 522.336H1184.6C1184.46 520.896 1183.64 519.92 1182.22 519.92C1180.49 519.92 1179.64 520.896 1179.32 522.336H1179L1179.16 521.536V520.08H1178.11V528H1179.16V524.368C1179.16 522.256 1180.23 520.816 1181.85 520.816C1183.21 520.816 1183.58 521.632 1183.58 523.168V528H1184.63V524.368C1184.63 522.256 1185.71 520.816 1187.32 520.816C1188.68 520.816 1189.05 521.632 1189.05 523.168V528H1190.11V522.832C1190.11 521.136 1189.27 519.92 1187.69 519.92ZM1192.37 528H1193.43V526.704L1193.27 525.904H1193.59C1193.91 527.184 1195.04 528.16 1196.82 528.16C1199.12 528.16 1200.66 526.416 1200.66 524.032C1200.66 521.664 1199.12 519.92 1196.82 519.92C1195.04 519.92 1193.91 520.896 1193.59 522.176H1193.27L1193.43 521.376V516.24H1192.37V528ZM1193.43 524.032C1193.43 521.776 1194.9 520.816 1196.6 520.816C1198.29 520.816 1199.6 521.776 1199.6 524.032C1199.6 526.304 1198.29 527.264 1196.6 527.264C1194.9 527.264 1193.43 526.304 1193.43 524.032ZM1202.46 525.792C1202.46 526.624 1202.78 528.16 1205.05 528.16C1206.91 528.16 1207.77 527.024 1208.07 525.84H1208.39L1208.23 526.64V527.12C1208.23 527.68 1208.55 528 1209.11 528H1210.46V527.104H1209.29V523.488C1209.29 521.472 1208.09 519.92 1205.87 519.92C1203.61 519.92 1202.46 521.44 1202.46 523.008H1203.51C1203.51 521.36 1204.68 520.816 1205.87 520.816C1207.29 520.816 1208.14 521.6 1208.23 523.216L1204.94 523.52C1203.19 523.68 1202.46 524.56 1202.46 525.792ZM1203.51 525.696C1203.51 524.848 1204.04 524.512 1205.1 524.416L1208.23 524.112C1208.23 525.888 1207.03 527.264 1205.15 527.264C1204.12 527.264 1203.51 526.704 1203.51 525.696ZM1214.28 518.72C1214.88 518.72 1215.37 518.224 1215.37 517.632C1215.37 517.056 1214.88 516.56 1214.28 516.56C1213.69 516.56 1213.21 517.056 1213.21 517.632C1213.21 518.224 1213.69 518.72 1214.28 518.72ZM1211.77 528H1217.21V527.104H1214.99V520.8C1214.99 520.24 1214.73 519.856 1214.01 519.92L1212.41 520.08V520.976L1214 520.816V527.104H1211.77V528ZM1218.19 523.936C1218.19 526.224 1219.34 528.16 1222.13 528.16C1224.61 528.16 1225.5 526.48 1225.82 525.232H1224.77C1224.45 526.56 1223.54 527.264 1222.13 527.264C1220.06 527.264 1219.34 525.84 1219.25 524.224H1225.55V523.776C1225.55 521.328 1224.14 519.92 1221.95 519.92C1219.76 519.92 1218.19 521.376 1218.19 523.936ZM1219.25 523.328C1219.25 521.92 1220.37 520.816 1221.95 520.816C1223.58 520.816 1224.5 521.92 1224.5 523.328H1219.25ZM1231.81 520.816C1233.2 520.816 1233.89 521.472 1233.89 523.168V528H1234.95V523.04C1234.95 520.896 1233.79 519.92 1232.05 519.92C1230.32 519.92 1229.31 520.896 1228.99 522.336H1228.67L1228.83 521.536V520.08H1227.78V528H1228.83V524.368C1228.83 522.256 1230.07 520.816 1231.81 520.816ZM1239.03 527.28V520.976H1241.48V520.08H1239.03V517.6L1237.97 517.92V520.08H1236.26V520.976H1237.97V527.12C1237.97 527.84 1238.29 528.208 1239.01 528.16L1241.8 528V527.104L1239.03 527.28ZM1105.25 544.968C1105.25 543.256 1103.5 542.904 1101.94 542.392C1100.66 541.976 1100.16 541.736 1100.16 540.904C1100.16 540.104 1100.93 539.816 1101.87 539.816C1103.22 539.816 1103.92 540.36 1103.92 541.528H1104.98C1104.98 540.28 1104.29 538.92 1101.87 538.92C1100.13 538.92 1099.1 539.752 1099.1 540.968C1099.1 542.344 1100.19 542.824 1101.7 543.288C1102.99 543.688 1104.19 543.88 1104.19 545.048C1104.19 545.944 1103.58 546.264 1102.24 546.264C1100.66 546.264 1099.79 545.608 1099.79 544.072H1098.74C1098.74 545.96 1099.74 547.16 1102.24 547.16C1104.54 547.16 1105.25 546.136 1105.25 544.968ZM1110.02 546.264C1108.63 546.264 1107.94 545.608 1107.94 543.912V539.08H1106.88V544.04C1106.88 546.184 1108.04 547.16 1109.78 547.16C1111.51 547.16 1112.52 546.184 1112.84 544.744H1113.16L1113 545.544V547H1114.05V539.08H1113V542.712C1113 544.824 1111.76 546.264 1110.02 546.264ZM1116.33 547H1117.38V539.816L1121.61 539.976V539.08L1117.37 538.92C1116.65 538.888 1116.33 539.24 1116.33 539.96V547ZM1128.22 547H1133.72V546.104H1131.5V536.12C1131.5 535.4 1131.18 535 1130.46 535.08L1128.86 535.24V536.136L1130.44 535.976V546.104H1128.22V547ZM1134.71 542.936C1134.71 545.224 1135.86 547.16 1138.64 547.16C1141.12 547.16 1142.02 545.48 1142.34 544.232H1141.28C1140.96 545.56 1140.05 546.264 1138.64 546.264C1136.58 546.264 1135.86 544.84 1135.76 543.224H1142.07V542.776C1142.07 540.328 1140.66 538.92 1138.47 538.92C1136.28 538.92 1134.71 540.376 1134.71 542.936ZM1135.76 542.328C1135.76 540.92 1136.88 539.816 1138.47 539.816C1140.1 539.816 1141.01 540.92 1141.01 542.328H1135.76ZM1147.27 546.264C1145.88 546.264 1145.19 545.608 1145.19 543.912V539.08H1144.13V544.04C1144.13 546.184 1145.29 547.16 1147.03 547.16C1148.76 547.16 1149.77 546.184 1150.09 544.744H1150.41L1150.25 545.544V547H1151.3V539.08H1150.25V542.712C1150.25 544.824 1149.01 546.264 1147.27 546.264ZM1153.58 547H1154.63V539.816L1158.86 539.976V539.08L1154.62 538.92C1153.9 538.888 1153.58 539.24 1153.58 539.96V547ZM1166.51 544.968C1166.51 543.256 1164.77 542.904 1163.2 542.392C1161.92 541.976 1161.43 541.736 1161.43 540.904C1161.43 540.104 1162.19 539.816 1163.14 539.816C1164.48 539.816 1165.19 540.36 1165.19 541.528H1166.24C1166.24 540.28 1165.55 538.92 1163.14 538.92C1161.39 538.92 1160.37 539.752 1160.37 540.968C1160.37 542.344 1161.46 542.824 1162.96 543.288C1164.26 543.688 1165.46 543.88 1165.46 545.048C1165.46 545.944 1164.85 546.264 1163.51 546.264C1161.92 546.264 1161.06 545.608 1161.06 544.072H1160C1160 545.96 1161.01 547.16 1163.51 547.16C1165.81 547.16 1166.51 546.136 1166.51 544.968ZM1173.78 539.08V549.88H1174.83V545.704L1174.67 544.904H1174.99C1175.31 546.184 1176.43 547.16 1178.21 547.16C1180.51 547.16 1182.07 545.416 1182.07 543.048C1182.07 540.664 1180.51 538.92 1178.21 538.92C1176.43 538.92 1175.31 539.896 1174.99 541.176H1174.67L1174.83 540.376V539.08H1173.78ZM1174.83 543.048C1174.83 540.776 1176.31 539.816 1178 539.816C1179.7 539.816 1181.01 540.808 1181.01 543.048C1181.01 545.272 1179.7 546.264 1178 546.264C1176.31 546.264 1174.83 545.304 1174.83 543.048ZM1183.86 544.792C1183.86 545.624 1184.18 547.16 1186.46 547.16C1188.31 547.16 1189.18 546.024 1189.48 544.84H1189.8L1189.64 545.64V546.12C1189.64 546.68 1189.96 547 1190.52 547H1191.86V546.104H1190.7V542.488C1190.7 540.472 1189.5 538.92 1187.27 538.92C1185.02 538.92 1183.86 540.44 1183.86 542.008H1184.92C1184.92 540.36 1186.09 539.816 1187.27 539.816C1188.7 539.816 1189.54 540.6 1189.64 542.216L1186.34 542.52C1184.6 542.68 1183.86 543.56 1183.86 544.792ZM1184.92 544.696C1184.92 543.848 1185.45 543.512 1186.5 543.416L1189.64 543.112C1189.64 544.888 1188.44 546.264 1186.55 546.264C1185.53 546.264 1184.92 545.704 1184.92 544.696ZM1194.98 546.28V539.976H1197.43V539.08H1194.98V536.6L1193.92 536.92V539.08H1192.21V539.976H1193.92V546.12C1193.92 546.84 1194.24 547.208 1194.96 547.16L1197.75 547V546.104L1194.98 546.28ZM1201.51 546.28V539.976H1203.96V539.08H1201.51V536.6L1200.46 536.92V539.08H1198.74V539.976H1200.46V546.12C1200.46 546.84 1200.78 547.208 1201.5 547.16L1204.28 547V546.104L1201.51 546.28ZM1205.43 542.936C1205.43 545.224 1206.58 547.16 1209.36 547.16C1211.84 547.16 1212.74 545.48 1213.06 544.232H1212C1211.68 545.56 1210.77 546.264 1209.36 546.264C1207.3 546.264 1206.58 544.84 1206.48 543.224H1212.79V542.776C1212.79 540.328 1211.38 538.92 1209.19 538.92C1207 538.92 1205.43 540.376 1205.43 542.936ZM1206.48 542.328C1206.48 540.92 1207.6 539.816 1209.19 539.816C1210.82 539.816 1211.73 540.92 1211.73 542.328H1206.48ZM1221.04 544.968C1221.04 543.256 1219.3 542.904 1217.73 542.392C1216.45 541.976 1215.96 541.736 1215.96 540.904C1215.96 540.104 1216.72 539.816 1217.67 539.816C1219.01 539.816 1219.72 540.36 1219.72 541.528H1220.77C1220.77 540.28 1220.08 538.92 1217.67 538.92C1215.92 538.92 1214.9 539.752 1214.9 540.968C1214.9 542.344 1215.99 542.824 1217.49 543.288C1218.79 543.688 1219.99 543.88 1219.99 545.048C1219.99 545.944 1219.38 546.264 1218.04 546.264C1216.45 546.264 1215.59 545.608 1215.59 544.072H1214.53C1214.53 545.96 1215.54 547.16 1218.04 547.16C1220.34 547.16 1221.04 546.136 1221.04 544.968ZM1229.19 535.72L1229.27 543.176H1230.17L1230.25 535.72H1229.19ZM1229.7 547.16C1230.37 547.16 1230.95 546.616 1230.95 545.912C1230.95 545.224 1230.37 544.68 1229.7 544.68C1229.01 544.68 1228.47 545.224 1228.47 545.912C1228.47 546.616 1229.01 547.16 1229.7 547.16Z" fill="black"/>
<path fill-rule="evenodd" clip-rule="evenodd" d="M1273.99 348.138C1305.42 343.486 1328 330.63 1328 315.5C1328 296.446 1292.18 281 1248 281C1203.82 281 1168 296.446 1168 315.5C1168 334.554 1203.82 350 1248 350C1250.77 350 1253.51 349.939 1256.2 349.821C1252.78 362.012 1256.04 378.5 1274.01 378.5C1291.65 378.5 1302.51 381 1309.01 392.5C1303.95 379.216 1296.69 377.736 1287.73 375.911C1282.53 374.851 1276.76 373.674 1270.51 370C1261.83 364.893 1266.74 355.915 1273.99 348.138Z" fill="#F7F7F7"/>
<path d="M1191.06 304.352C1191.06 307.648 1192.96 310.16 1196.22 310.16C1199.47 310.16 1201.38 307.648 1201.38 304.352C1201.38 301.072 1199.47 298.56 1196.22 298.56C1192.96 298.56 1191.06 301.072 1191.06 304.352ZM1192.11 304.352C1192.11 301.552 1193.46 299.456 1196.22 299.456C1198.99 299.456 1200.32 301.552 1200.32 304.352C1200.32 307.168 1198.99 309.264 1196.22 309.264C1193.46 309.264 1192.11 307.168 1192.11 304.352ZM1206.47 309.264C1205.08 309.264 1204.39 308.608 1204.39 306.912V302.08H1203.34V307.04C1203.34 309.184 1204.49 310.16 1206.23 310.16C1207.96 310.16 1208.97 309.184 1209.29 307.744H1209.61L1209.45 308.544V310H1210.51V302.08H1209.45V305.712C1209.45 307.824 1208.22 309.264 1206.47 309.264ZM1215.75 309.264C1214.36 309.264 1213.67 308.608 1213.67 306.912V302.08H1212.62V307.04C1212.62 309.184 1213.77 310.16 1215.51 310.16C1217.24 310.16 1218.25 309.184 1218.57 307.744H1218.89L1218.73 308.544V310H1219.79V302.08H1218.73V305.712C1218.73 307.824 1217.5 309.264 1215.75 309.264ZM1225.04 309.264C1223.64 309.264 1222.96 308.608 1222.96 306.912V302.08H1221.9V307.04C1221.9 309.184 1223.05 310.16 1224.8 310.16C1226.52 310.16 1227.53 309.184 1227.85 307.744H1228.17L1228.01 308.544V310H1229.07V302.08H1228.01V305.712C1228.01 307.824 1226.78 309.264 1225.04 309.264ZM1246.39 301.92C1244.67 301.92 1243.82 302.896 1243.5 304.336H1243.31C1243.16 302.896 1242.35 301.92 1240.92 301.92C1239.19 301.92 1238.35 302.896 1238.03 304.336H1237.71L1237.87 303.536V302.08H1236.81V310H1237.87V306.368C1237.87 304.256 1238.94 302.816 1240.55 302.816C1241.91 302.816 1242.28 303.632 1242.28 305.168V310H1243.34V306.368C1243.34 304.256 1244.41 302.816 1246.03 302.816C1247.39 302.816 1247.75 303.632 1247.75 305.168V310H1248.81V304.832C1248.81 303.136 1247.98 301.92 1246.39 301.92ZM1253.11 300.72C1253.7 300.72 1254.2 300.224 1254.2 299.632C1254.2 299.056 1253.7 298.56 1253.11 298.56C1252.52 298.56 1252.04 299.056 1252.04 299.632C1252.04 300.224 1252.52 300.72 1253.11 300.72ZM1250.6 310H1256.04V309.104H1253.82V302.8C1253.82 302.24 1253.56 301.856 1252.84 301.92L1251.24 302.08V302.976L1252.82 302.816V309.104H1250.6V310ZM1261.86 302.816C1263.25 302.816 1263.94 303.472 1263.94 305.168V310H1264.99V305.04C1264.99 302.896 1263.84 301.92 1262.1 301.92C1260.37 301.92 1259.36 302.896 1259.04 304.336H1258.72L1258.88 303.536V302.08H1257.83V310H1258.88V306.368C1258.88 304.256 1260.11 302.816 1261.86 302.816ZM1266.94 306.032C1266.94 308.256 1268.53 310.16 1271.07 310.16C1273.6 310.16 1275.18 308.256 1275.18 306.032C1275.18 303.824 1273.6 301.92 1271.07 301.92C1268.53 301.92 1266.94 303.824 1266.94 306.032ZM1268 306.032C1268 304.32 1269.05 302.816 1271.07 302.816C1273.07 302.816 1274.13 304.32 1274.13 306.032C1274.13 307.76 1273.07 309.264 1271.07 309.264C1269.05 309.264 1268 307.76 1268 306.032ZM1280.11 309.264C1278.72 309.264 1278.03 308.608 1278.03 306.912V302.08H1276.98V307.04C1276.98 309.184 1278.13 310.16 1279.87 310.16C1281.6 310.16 1282.61 309.184 1282.93 307.744H1283.25L1283.09 308.544V310H1284.15V302.08H1283.09V305.712C1283.09 307.824 1281.86 309.264 1280.11 309.264ZM1287.12 307.456L1285.94 311.872L1286.96 312.144L1288.15 307.728L1287.12 307.456ZM1193.18 328.28V321.976H1195.63V321.08H1193.18V318.6L1192.13 318.92V321.08H1190.42V321.976H1192.13V328.12C1192.13 328.84 1192.45 329.208 1193.17 329.16L1195.95 329V328.104L1193.18 328.28ZM1198.74 317.16L1197.75 320.872L1198.78 321.144L1199.77 317.432L1198.74 317.16ZM1200.6 324.936C1200.6 327.224 1201.75 329.16 1204.54 329.16C1207.02 329.16 1207.91 327.48 1208.23 326.232H1207.18C1206.86 327.56 1205.94 328.264 1204.54 328.264C1202.47 328.264 1201.75 326.84 1201.66 325.224H1207.96V324.776C1207.96 322.328 1206.55 320.92 1204.36 320.92C1202.17 320.92 1200.6 322.376 1200.6 324.936ZM1201.66 324.328C1201.66 322.92 1202.78 321.816 1204.36 321.816C1205.99 321.816 1206.9 322.92 1206.9 324.328H1201.66ZM1216.22 326.968C1216.22 325.256 1214.47 324.904 1212.9 324.392C1211.62 323.976 1211.13 323.736 1211.13 322.904C1211.13 322.104 1211.9 321.816 1212.84 321.816C1214.18 321.816 1214.89 322.36 1214.89 323.528H1215.94C1215.94 322.28 1215.26 320.92 1212.84 320.92C1211.1 320.92 1210.07 321.752 1210.07 322.968C1210.07 324.344 1211.16 324.824 1212.66 325.288C1213.96 325.688 1215.16 325.88 1215.16 327.048C1215.16 327.944 1214.55 328.264 1213.21 328.264C1211.62 328.264 1210.76 327.608 1210.76 326.072H1209.7C1209.7 327.96 1210.71 329.16 1213.21 329.16C1215.51 329.16 1216.22 328.136 1216.22 326.968ZM1223.48 321.08V331.88H1224.54V327.704L1224.38 326.904H1224.7C1225.02 328.184 1226.14 329.16 1227.91 329.16C1230.22 329.16 1231.77 327.416 1231.77 325.048C1231.77 322.664 1230.22 320.92 1227.91 320.92C1226.14 320.92 1225.02 321.896 1224.7 323.176H1224.38L1224.54 322.376V321.08H1223.48ZM1224.54 325.048C1224.54 322.776 1226.01 321.816 1227.71 321.816C1229.4 321.816 1230.71 322.808 1230.71 325.048C1230.71 327.272 1229.4 328.264 1227.71 328.264C1226.01 328.264 1224.54 327.304 1224.54 325.048ZM1233.57 326.792C1233.57 327.624 1233.89 329.16 1236.16 329.16C1238.02 329.16 1238.88 328.024 1239.18 326.84H1239.5L1239.34 327.64V328.12C1239.34 328.68 1239.66 329 1240.22 329H1241.57V328.104H1240.4V324.488C1240.4 322.472 1239.2 320.92 1236.98 320.92C1234.72 320.92 1233.57 322.44 1233.57 324.008H1234.62C1234.62 322.36 1235.79 321.816 1236.98 321.816C1238.4 321.816 1239.25 322.6 1239.34 324.216L1236.05 324.52C1234.3 324.68 1233.57 325.56 1233.57 326.792ZM1234.62 326.696C1234.62 325.848 1235.15 325.512 1236.21 325.416L1239.34 325.112C1239.34 326.888 1238.14 328.264 1236.26 328.264C1235.23 328.264 1234.62 327.704 1234.62 326.696ZM1249.08 326.968C1249.08 325.256 1247.33 324.904 1245.76 324.392C1244.48 323.976 1243.99 323.736 1243.99 322.904C1243.99 322.104 1244.76 321.816 1245.7 321.816C1247.04 321.816 1247.75 322.36 1247.75 323.528H1248.8C1248.8 322.28 1248.12 320.92 1245.7 320.92C1243.96 320.92 1242.93 321.752 1242.93 322.968C1242.93 324.344 1244.02 324.824 1245.52 325.288C1246.82 325.688 1248.02 325.88 1248.02 327.048C1248.02 327.944 1247.41 328.264 1246.07 328.264C1244.48 328.264 1243.62 327.608 1243.62 326.072H1242.56C1242.56 327.96 1243.57 329.16 1246.07 329.16C1248.37 329.16 1249.08 328.136 1249.08 326.968ZM1256.34 329H1257.4V327.704L1257.24 326.904H1257.56C1257.88 328.184 1259.01 329.16 1260.79 329.16C1263.09 329.16 1264.63 327.416 1264.63 325.032C1264.63 322.664 1263.09 320.92 1260.79 320.92C1259.01 320.92 1257.88 321.896 1257.56 323.176H1257.24L1257.4 322.376V317.24H1256.34V329ZM1257.4 325.032C1257.4 322.776 1258.87 321.816 1260.57 321.816C1262.26 321.816 1263.57 322.776 1263.57 325.032C1263.57 327.304 1262.26 328.264 1260.57 328.264C1258.87 328.264 1257.4 327.304 1257.4 325.032ZM1268.3 319.72C1268.89 319.72 1269.39 319.224 1269.39 318.632C1269.39 318.056 1268.89 317.56 1268.3 317.56C1267.71 317.56 1267.23 318.056 1267.23 318.632C1267.23 319.224 1267.71 319.72 1268.3 319.72ZM1265.79 329H1271.23V328.104H1269V321.8C1269 321.24 1268.75 320.856 1268.03 320.92L1266.43 321.08V321.976L1268.01 321.816V328.104H1265.79V329ZM1272.21 324.936C1272.21 327.224 1273.36 329.16 1276.14 329.16C1278.62 329.16 1279.52 327.48 1279.84 326.232H1278.78C1278.46 327.56 1277.55 328.264 1276.14 328.264C1274.08 328.264 1273.36 326.84 1273.26 325.224H1279.57V324.776C1279.57 322.328 1278.16 320.92 1275.97 320.92C1273.78 320.92 1272.21 322.376 1272.21 324.936ZM1273.26 324.328C1273.26 322.92 1274.38 321.816 1275.97 321.816C1277.6 321.816 1278.51 322.92 1278.51 324.328H1273.26ZM1285.83 321.816C1287.22 321.816 1287.91 322.472 1287.91 324.168V329H1288.96V324.04C1288.96 321.896 1287.81 320.92 1286.07 320.92C1284.34 320.92 1283.33 321.896 1283.01 323.336H1282.69L1282.85 322.536V321.08H1281.79V329H1282.85V325.368C1282.85 323.256 1284.08 321.816 1285.83 321.816ZM1297.58 317.72L1297.66 325.176H1298.56L1298.64 317.72H1297.58ZM1298.09 329.16C1298.76 329.16 1299.34 328.616 1299.34 327.912C1299.34 327.224 1298.76 326.68 1298.09 326.68C1297.4 326.68 1296.86 327.224 1296.86 327.912C1296.86 328.616 1297.4 329.16 1298.09 329.16Z" fill="black"/>
</svg>
