<svg width="757" height="1050" viewBox="0 0 757 1050" fill="none" xmlns="http://www.w3.org/2000/svg">
<path fill-rule="evenodd" clip-rule="evenodd" d="M560 221C556.686 221 554 223.686 554 227V271C554 274.314 556.686 277 560 277H647.808C657.143 285.525 666.482 297.334 656 303.5C649.754 307.174 643.98 308.351 638.778 309.411C629.822 311.236 622.561 312.716 617.5 326C624 314.5 634.859 312 652.5 312C673.865 312 674.437 288.677 667.697 277H689C692.314 277 695 274.314 695 271V227C695 223.686 692.314 221 689 221H560Z" fill="#F7F7F7"/>
<path d="M575.056 238.352C575.056 241.648 576.96 244.16 580.224 244.16C583.472 244.16 585.376 241.648 585.376 238.352C585.376 235.072 583.472 232.56 580.224 232.56C576.96 232.56 575.056 235.072 575.056 238.352ZM576.112 238.352C576.112 235.552 577.456 233.456 580.224 233.456C582.992 233.456 584.32 235.552 584.32 238.352C584.32 241.168 582.992 243.264 580.224 243.264C577.456 243.264 576.112 241.168 576.112 238.352ZM591.613 235.92C589.885 235.92 588.877 236.896 588.557 238.336H588.237L588.397 237.536V232.24H587.341V244H588.397V240.368C588.397 238.256 589.629 236.816 591.373 236.816C592.765 236.816 593.453 237.472 593.453 239.168V244H594.509V239.04C594.509 236.896 593.357 235.92 591.613 235.92ZM601.767 244H607.271V243.104H605.047V233.12C605.047 232.4 604.727 232 604.007 232.08L602.407 232.24V233.136L603.991 232.976V243.104H601.767V244ZM608.74 241.792C608.74 242.624 609.06 244.16 611.332 244.16C613.188 244.16 614.052 243.024 614.356 241.84H614.676L614.516 242.64V243.12C614.516 243.68 614.836 244 615.396 244H616.74V243.104H615.572V239.488C615.572 237.472 614.372 235.92 612.148 235.92C609.892 235.92 608.74 237.44 608.74 239.008H609.796C609.796 237.36 610.964 236.816 612.148 236.816C613.572 236.816 614.42 237.6 614.516 239.216L611.22 239.52C609.476 239.68 608.74 240.56 608.74 241.792ZM609.796 241.696C609.796 240.848 610.324 240.512 611.38 240.416L614.516 240.112C614.516 241.888 613.316 243.264 611.428 243.264C610.404 243.264 609.796 242.704 609.796 241.696ZM623.361 244H628.865V243.104H626.641V233.12C626.641 232.4 626.321 232 625.601 232.08L624.001 232.24V233.136L625.585 232.976V243.104H623.361V244ZM630.334 241.792C630.334 242.624 630.654 244.16 632.926 244.16C634.782 244.16 635.646 243.024 635.95 241.84H636.27L636.11 242.64V243.12C636.11 243.68 636.43 244 636.99 244H638.334V243.104H637.166V239.488C637.166 237.472 635.966 235.92 633.742 235.92C631.486 235.92 630.334 237.44 630.334 239.008H631.39C631.39 237.36 632.558 236.816 633.742 236.816C635.166 236.816 636.014 237.6 636.11 239.216L632.814 239.52C631.07 239.68 630.334 240.56 630.334 241.792ZM631.39 241.696C631.39 240.848 631.918 240.512 632.974 240.416L636.11 240.112C636.11 241.888 634.91 243.264 633.022 243.264C631.998 243.264 631.39 242.704 631.39 241.696ZM647.627 234.72C648.219 234.72 648.715 234.224 648.715 233.632C648.715 233.056 648.219 232.56 647.627 232.56C647.035 232.56 646.555 233.056 646.555 233.632C646.555 234.224 647.035 234.72 647.627 234.72ZM645.115 244H650.555V243.104H648.331V236.8C648.331 236.24 648.075 235.856 647.355 235.92L645.755 236.08V236.976L647.339 236.816V243.104H645.115V244ZM651.861 244H657.365V243.104H655.141V233.12C655.141 232.4 654.821 232 654.101 232.08L652.501 232.24V233.136L654.085 232.976V243.104H651.861V244ZM578.96 252.136H580.336V251.24H578.96C577.216 251.24 576.528 252.216 576.528 253.672V255.08H574.736V255.976H576.528V262.104H574.736V263H579.888V262.104H577.584V255.976H579.888V255.08H577.584V253.688C577.584 252.632 577.888 252.136 578.96 252.136ZM581.646 260.792C581.646 261.624 581.966 263.16 584.238 263.16C586.094 263.16 586.958 262.024 587.262 260.84H587.582L587.422 261.64V262.12C587.422 262.68 587.742 263 588.302 263H589.646V262.104H588.478V258.488C588.478 256.472 587.278 254.92 585.054 254.92C582.798 254.92 581.646 256.44 581.646 258.008H582.702C582.702 256.36 583.87 255.816 585.054 255.816C586.478 255.816 587.326 256.6 587.422 258.216L584.126 258.52C582.382 258.68 581.646 259.56 581.646 260.792ZM582.702 260.696C582.702 259.848 583.23 259.512 584.286 259.416L587.422 259.112C587.422 260.888 586.222 262.264 584.334 262.264C583.31 262.264 582.702 261.704 582.702 260.696ZM593.471 253.72C594.062 253.72 594.559 253.224 594.559 252.632C594.559 252.056 594.062 251.56 593.471 251.56C592.879 251.56 592.399 252.056 592.399 252.632C592.399 253.224 592.879 253.72 593.471 253.72ZM590.959 263H596.399V262.104H594.174V255.8C594.174 255.24 593.919 254.856 593.199 254.92L591.599 255.08V255.976L593.183 255.816V262.104H590.959V263ZM599.356 262.28V255.976H601.804V255.08H599.356V252.6L598.3 252.92V255.08H596.588V255.976H598.3V262.12C598.3 262.84 598.62 263.208 599.34 263.16L602.124 263V262.104L599.356 262.28ZM609.224 259.032C609.224 261.256 610.632 263.16 613.208 263.16C614.616 263.16 616.568 262.36 616.792 260.056H615.72C615.464 261.736 614.392 262.264 613.208 262.264C611.192 262.264 610.28 260.76 610.28 259.032C610.28 257.32 611.192 255.816 613.208 255.816C614.392 255.816 615.464 256.344 615.72 258.024H616.792C616.568 255.72 614.616 254.92 613.208 254.92C610.632 254.92 609.224 256.824 609.224 259.032ZM623.176 254.92C621.448 254.92 620.44 255.896 620.12 257.336H619.799L619.96 256.536V251.24H618.904V263H619.96V259.368C619.96 257.256 621.192 255.816 622.936 255.816C624.328 255.816 625.016 256.472 625.016 258.168V263H626.072V258.04C626.072 255.896 624.92 254.92 623.176 254.92ZM628.021 260.792C628.021 261.624 628.341 263.16 630.613 263.16C632.469 263.16 633.333 262.024 633.637 260.84H633.957L633.797 261.64V262.12C633.797 262.68 634.117 263 634.677 263H636.021V262.104H634.853V258.488C634.853 256.472 633.653 254.92 631.429 254.92C629.173 254.92 628.021 256.44 628.021 258.008H629.077C629.077 256.36 630.245 255.816 631.429 255.816C632.853 255.816 633.701 256.6 633.797 258.216L630.501 258.52C628.757 258.68 628.021 259.56 628.021 260.792ZM629.077 260.696C629.077 259.848 629.605 259.512 630.661 259.416L633.797 259.112C633.797 260.888 632.597 262.264 630.709 262.264C629.685 262.264 629.077 261.704 629.077 260.696ZM640.473 262.264C639.081 262.264 638.393 261.608 638.393 259.912V255.08H637.337V260.04C637.337 262.184 638.489 263.16 640.233 263.16C641.961 263.16 642.969 262.184 643.289 260.744H643.609L643.449 261.544V263H644.505V255.08H643.449V258.712C643.449 260.824 642.217 262.264 640.473 262.264ZM654.747 263V251.24H653.691V256.376L653.851 257.176H653.531C653.211 255.896 652.075 254.92 650.299 254.92C647.995 254.92 646.459 256.664 646.459 259.032C646.459 261.416 647.995 263.16 650.299 263.16C652.075 263.16 653.211 262.184 653.531 260.904H653.851L653.691 261.704V263H654.747ZM653.691 259.032C653.691 261.304 652.219 262.264 650.523 262.264C648.827 262.264 647.515 261.304 647.515 259.032C647.515 256.776 648.827 255.816 650.523 255.816C652.219 255.816 653.691 256.776 653.691 259.032ZM663.534 251.72L663.614 259.176H664.51L664.59 251.72H663.534ZM664.046 263.16C664.718 263.16 665.294 262.616 665.294 261.912C665.294 261.224 664.718 260.68 664.046 260.68C663.358 260.68 662.814 261.224 662.814 261.912C662.814 262.616 663.358 263.16 664.046 263.16Z" fill="black"/>
</svg>
