<svg width="1680" height="1050" viewBox="0 0 1680 1050" fill="none" xmlns="http://www.w3.org/2000/svg">
<path fill-rule="evenodd" clip-rule="evenodd" d="M1442 183C1438.69 183 1436 185.686 1436 189V233C1436 236.314 1438.69 239 1442 239H1529.81C1539.14 247.525 1548.48 259.334 1538 265.5C1531.75 269.174 1525.98 270.351 1520.78 271.411C1511.82 273.236 1504.56 274.716 1499.5 288C1506 276.5 1516.86 274 1534.5 274C1555.87 274 1556.44 250.677 1549.7 239H1571C1574.31 239 1577 236.314 1577 233V189C1577 185.686 1574.31 183 1571 183H1442Z" fill="#F7F7F7"/>
<path d="M1457.06 200.352C1457.06 203.648 1458.96 206.16 1462.22 206.16C1465.47 206.16 1467.38 203.648 1467.38 200.352C1467.38 197.072 1465.47 194.56 1462.22 194.56C1458.96 194.56 1457.06 197.072 1457.06 200.352ZM1458.11 200.352C1458.11 197.552 1459.46 195.456 1462.22 195.456C1464.99 195.456 1466.32 197.552 1466.32 200.352C1466.32 203.168 1464.99 205.264 1462.22 205.264C1459.46 205.264 1458.11 203.168 1458.11 200.352ZM1473.61 197.92C1471.89 197.92 1470.88 198.896 1470.56 200.336H1470.24L1470.4 199.536V194.24H1469.34V206H1470.4V202.368C1470.4 200.256 1471.63 198.816 1473.37 198.816C1474.77 198.816 1475.45 199.472 1475.45 201.168V206H1476.51V201.04C1476.51 198.896 1475.36 197.92 1473.61 197.92ZM1483.77 206H1489.27V205.104H1487.05V195.12C1487.05 194.4 1486.73 194 1486.01 194.08L1484.41 194.24V195.136L1485.99 194.976V205.104H1483.77V206ZM1490.74 203.792C1490.74 204.624 1491.06 206.16 1493.33 206.16C1495.19 206.16 1496.05 205.024 1496.36 203.84H1496.68L1496.52 204.64V205.12C1496.52 205.68 1496.84 206 1497.4 206H1498.74V205.104H1497.57V201.488C1497.57 199.472 1496.37 197.92 1494.15 197.92C1491.89 197.92 1490.74 199.44 1490.74 201.008H1491.8C1491.8 199.36 1492.96 198.816 1494.15 198.816C1495.57 198.816 1496.42 199.6 1496.52 201.216L1493.22 201.52C1491.48 201.68 1490.74 202.56 1490.74 203.792ZM1491.8 203.696C1491.8 202.848 1492.32 202.512 1493.38 202.416L1496.52 202.112C1496.52 203.888 1495.32 205.264 1493.43 205.264C1492.4 205.264 1491.8 204.704 1491.8 203.696ZM1505.36 206H1510.87V205.104H1508.64V195.12C1508.64 194.4 1508.32 194 1507.6 194.08L1506 194.24V195.136L1507.59 194.976V205.104H1505.36V206ZM1512.33 203.792C1512.33 204.624 1512.65 206.16 1514.93 206.16C1516.78 206.16 1517.65 205.024 1517.95 203.84H1518.27L1518.11 204.64V205.12C1518.11 205.68 1518.43 206 1518.99 206H1520.33V205.104H1519.17V201.488C1519.17 199.472 1517.97 197.92 1515.74 197.92C1513.49 197.92 1512.33 199.44 1512.33 201.008H1513.39C1513.39 199.36 1514.56 198.816 1515.74 198.816C1517.17 198.816 1518.01 199.6 1518.11 201.216L1514.81 201.52C1513.07 201.68 1512.33 202.56 1512.33 203.792ZM1513.39 203.696C1513.39 202.848 1513.92 202.512 1514.97 202.416L1518.11 202.112C1518.11 203.888 1516.91 205.264 1515.02 205.264C1514 205.264 1513.39 204.704 1513.39 203.696ZM1529.63 196.72C1530.22 196.72 1530.71 196.224 1530.71 195.632C1530.71 195.056 1530.22 194.56 1529.63 194.56C1529.03 194.56 1528.55 195.056 1528.55 195.632C1528.55 196.224 1529.03 196.72 1529.63 196.72ZM1527.11 206H1532.55V205.104H1530.33V198.8C1530.33 198.24 1530.07 197.856 1529.35 197.92L1527.75 198.08V198.976L1529.34 198.816V205.104H1527.11V206ZM1533.86 206H1539.37V205.104H1537.14V195.12C1537.14 194.4 1536.82 194 1536.1 194.08L1534.5 194.24V195.136L1536.09 194.976V205.104H1533.86V206ZM1460.96 214.136H1462.34V213.24H1460.96C1459.22 213.24 1458.53 214.216 1458.53 215.672V217.08H1456.74V217.976H1458.53V224.104H1456.74V225H1461.89V224.104H1459.58V217.976H1461.89V217.08H1459.58V215.688C1459.58 214.632 1459.89 214.136 1460.96 214.136ZM1463.65 222.792C1463.65 223.624 1463.97 225.16 1466.24 225.16C1468.09 225.16 1468.96 224.024 1469.26 222.84H1469.58L1469.42 223.64V224.12C1469.42 224.68 1469.74 225 1470.3 225H1471.65V224.104H1470.48V220.488C1470.48 218.472 1469.28 216.92 1467.05 216.92C1464.8 216.92 1463.65 218.44 1463.65 220.008H1464.7C1464.7 218.36 1465.87 217.816 1467.05 217.816C1468.48 217.816 1469.33 218.6 1469.42 220.216L1466.13 220.52C1464.38 220.68 1463.65 221.56 1463.65 222.792ZM1464.7 222.696C1464.7 221.848 1465.23 221.512 1466.29 221.416L1469.42 221.112C1469.42 222.888 1468.22 224.264 1466.33 224.264C1465.31 224.264 1464.7 223.704 1464.7 222.696ZM1475.47 215.72C1476.06 215.72 1476.56 215.224 1476.56 214.632C1476.56 214.056 1476.06 213.56 1475.47 213.56C1474.88 213.56 1474.4 214.056 1474.4 214.632C1474.4 215.224 1474.88 215.72 1475.47 215.72ZM1472.96 225H1478.4V224.104H1476.17V217.8C1476.17 217.24 1475.92 216.856 1475.2 216.92L1473.6 217.08V217.976L1475.18 217.816V224.104H1472.96V225ZM1481.36 224.28V217.976H1483.8V217.08H1481.36V214.6L1480.3 214.92V217.08H1478.59V217.976H1480.3V224.12C1480.3 224.84 1480.62 225.208 1481.34 225.16L1484.12 225V224.104L1481.36 224.28ZM1491.22 221.032C1491.22 223.256 1492.63 225.16 1495.21 225.16C1496.62 225.16 1498.57 224.36 1498.79 222.056H1497.72C1497.46 223.736 1496.39 224.264 1495.21 224.264C1493.19 224.264 1492.28 222.76 1492.28 221.032C1492.28 219.32 1493.19 217.816 1495.21 217.816C1496.39 217.816 1497.46 218.344 1497.72 220.024H1498.79C1498.57 217.72 1496.62 216.92 1495.21 216.92C1492.63 216.92 1491.22 218.824 1491.22 221.032ZM1505.18 216.92C1503.45 216.92 1502.44 217.896 1502.12 219.336H1501.8L1501.96 218.536V213.24H1500.9V225H1501.96V221.368C1501.96 219.256 1503.19 217.816 1504.94 217.816C1506.33 217.816 1507.02 218.472 1507.02 220.168V225H1508.07V220.04C1508.07 217.896 1506.92 216.92 1505.18 216.92ZM1510.02 222.792C1510.02 223.624 1510.34 225.16 1512.61 225.16C1514.47 225.16 1515.33 224.024 1515.64 222.84H1515.96L1515.8 223.64V224.12C1515.8 224.68 1516.12 225 1516.68 225H1518.02V224.104H1516.85V220.488C1516.85 218.472 1515.65 216.92 1513.43 216.92C1511.17 216.92 1510.02 218.44 1510.02 220.008H1511.08C1511.08 218.36 1512.25 217.816 1513.43 217.816C1514.85 217.816 1515.7 218.6 1515.8 220.216L1512.5 220.52C1510.76 220.68 1510.02 221.56 1510.02 222.792ZM1511.08 222.696C1511.08 221.848 1511.61 221.512 1512.66 221.416L1515.8 221.112C1515.8 222.888 1514.6 224.264 1512.71 224.264C1511.69 224.264 1511.08 223.704 1511.08 222.696ZM1522.47 224.264C1521.08 224.264 1520.39 223.608 1520.39 221.912V217.08H1519.34V222.04C1519.34 224.184 1520.49 225.16 1522.23 225.16C1523.96 225.16 1524.97 224.184 1525.29 222.744H1525.61L1525.45 223.544V225H1526.51V217.08H1525.45V220.712C1525.45 222.824 1524.22 224.264 1522.47 224.264ZM1536.75 225V213.24H1535.69V218.376L1535.85 219.176H1535.53C1535.21 217.896 1534.07 216.92 1532.3 216.92C1529.99 216.92 1528.46 218.664 1528.46 221.032C1528.46 223.416 1529.99 225.16 1532.3 225.16C1534.07 225.16 1535.21 224.184 1535.53 222.904H1535.85L1535.69 223.704V225H1536.75ZM1535.69 221.032C1535.69 223.304 1534.22 224.264 1532.52 224.264C1530.83 224.264 1529.51 223.304 1529.51 221.032C1529.51 218.776 1530.83 217.816 1532.52 217.816C1534.22 217.816 1535.69 218.776 1535.69 221.032ZM1545.53 213.72L1545.61 221.176H1546.51L1546.59 213.72H1545.53ZM1546.05 225.16C1546.72 225.16 1547.29 224.616 1547.29 223.912C1547.29 223.224 1546.72 222.68 1546.05 222.68C1545.36 222.68 1544.81 223.224 1544.81 223.912C1544.81 224.616 1545.36 225.16 1546.05 225.16Z" fill="black"/>
</svg>
