<svg width="757" height="1050" viewBox="0 0 757 1050" fill="none" xmlns="http://www.w3.org/2000/svg">
<path fill-rule="evenodd" clip-rule="evenodd" d="M173 401C174.105 401 175 401.895 175 403V453C175 454.105 174.105 455 173 455H139.23C140.268 464.005 147.824 474.125 152.833 479.452C153.165 479.805 152.856 480.384 152.379 480.292C133.62 476.684 120.408 464.055 113.819 455H21C19.8954 455 19 454.105 19 453V403C19 401.895 19.8954 401 21 401H173Z" fill="#F7F7F7"/>
<path d="M37.12 424.16C40.096 424.352 40.304 422.064 40.304 418.816V413.44C40.304 412.88 39.984 412.528 39.424 412.56L36.384 412.72V413.616L39.248 413.456V418.816C39.248 422.24 38.992 423.376 37.12 423.264L34.576 423.104V424L37.12 424.16ZM42.2554 419.936C42.2554 422.224 43.4074 424.16 46.1914 424.16C48.6714 424.16 49.5674 422.48 49.8874 421.232H48.8314C48.5114 422.56 47.5994 423.264 46.1914 423.264C44.1274 423.264 43.4074 421.84 43.3114 420.224H49.6154V419.776C49.6154 417.328 48.2074 415.92 46.0154 415.92C43.8234 415.92 42.2554 417.376 42.2554 419.936ZM43.3114 419.328C43.3114 417.92 44.4314 416.816 46.0154 416.816C47.6474 416.816 48.5594 417.92 48.5594 419.328H43.3114ZM61.498 416.816C62.89 416.816 63.578 417.472 63.578 419.168V424H64.634V419.04C64.634 416.896 63.482 415.92 61.738 415.92C60.01 415.92 59.002 416.896 58.682 418.336H58.362L58.522 417.536V416.08H57.466V424H58.522V420.368C58.522 418.256 59.754 416.816 61.498 416.816ZM67.4149 412.16L66.4229 415.872L67.4469 416.144L68.4389 412.432L67.4149 412.16ZM70.7085 421.792C70.7085 422.624 71.0285 424.16 73.3005 424.16C75.1565 424.16 76.0205 423.024 76.3245 421.84H76.6445L76.4845 422.64V423.12C76.4845 423.68 76.8045 424 77.3645 424H78.7085V423.104H77.5405V419.488C77.5405 417.472 76.3405 415.92 74.1165 415.92C71.8605 415.92 70.7085 417.44 70.7085 419.008H71.7645C71.7645 417.36 72.9325 416.816 74.1165 416.816C75.5405 416.816 76.3885 417.6 76.4845 419.216L73.1885 419.52C71.4445 419.68 70.7085 420.56 70.7085 421.792ZM71.7645 421.696C71.7645 420.848 72.2925 420.512 73.3485 420.416L76.4845 420.112C76.4845 421.888 75.2845 423.264 73.3965 423.264C72.3725 423.264 71.7645 422.704 71.7645 421.696ZM80.341 424H81.397V416.816L85.621 416.976V416.08L81.381 415.92C80.661 415.888 80.341 416.24 80.341 416.96V424ZM87.2473 424H88.3033V416.816L92.5273 416.976V416.08L88.2873 415.92C87.5673 415.888 87.2473 416.24 87.2473 416.96V424ZM96.3455 414.72C96.9375 414.72 97.4335 414.224 97.4335 413.632C97.4335 413.056 96.9375 412.56 96.3455 412.56C95.7535 412.56 95.2735 413.056 95.2735 413.632C95.2735 414.224 95.7535 414.72 96.3455 414.72ZM93.8335 424H99.2735V423.104H97.0495V416.8C97.0495 416.24 96.7935 415.856 96.0735 415.92L94.4735 416.08V416.976L96.0575 416.816V423.104H93.8335V424ZM105.851 416.08L103.259 423.68H102.939L100.331 416.08H99.3066L102.027 424H104.171L106.875 416.08H105.851ZM107.88 419.936C107.88 422.224 109.032 424.16 111.816 424.16C114.296 424.16 115.192 422.48 115.512 421.232H114.456C114.136 422.56 113.224 423.264 111.816 423.264C109.752 423.264 109.032 421.84 108.936 420.224H115.24V419.776C115.24 417.328 113.832 415.92 111.64 415.92C109.448 415.92 107.88 417.376 107.88 419.936ZM108.936 419.328C108.936 417.92 110.056 416.816 111.64 416.816C113.272 416.816 114.184 417.92 114.184 419.328H108.936ZM123.091 416.08V426.88H124.147V422.704L123.987 421.904H124.307C124.627 423.184 125.747 424.16 127.523 424.16C129.827 424.16 131.379 422.416 131.379 420.048C131.379 417.664 129.827 415.92 127.523 415.92C125.747 415.92 124.627 416.896 124.307 418.176H123.987L124.147 417.376V416.08H123.091ZM124.147 420.048C124.147 417.776 125.619 416.816 127.315 416.816C129.011 416.816 130.323 417.808 130.323 420.048C130.323 422.272 129.011 423.264 127.315 423.264C125.619 423.264 124.147 422.304 124.147 420.048ZM132.22 424H137.724V423.104H135.5V413.12C135.5 412.4 135.18 412 134.46 412.08L132.86 412.24V413.136L134.444 412.976V423.104H132.22V424ZM142.333 423.264C140.941 423.264 140.253 422.608 140.253 420.912V416.08H139.197V421.04C139.197 423.184 140.349 424.16 142.093 424.16C143.821 424.16 144.829 423.184 145.149 421.744H145.469L145.309 422.544V424H146.365V416.08H145.309V419.712C145.309 421.824 144.077 423.264 142.333 423.264ZM154.67 421.968C154.67 420.256 152.926 419.904 151.358 419.392C150.078 418.976 149.582 418.736 149.582 417.904C149.582 417.104 150.35 416.816 151.294 416.816C152.638 416.816 153.342 417.36 153.342 418.528H154.398C154.398 417.28 153.71 415.92 151.294 415.92C149.55 415.92 148.526 416.752 148.526 417.968C148.526 419.344 149.614 419.824 151.118 420.288C152.414 420.688 153.614 420.88 153.614 422.048C153.614 422.944 153.006 423.264 151.662 423.264C150.078 423.264 149.214 422.608 149.214 421.072H148.158C148.158 422.96 149.166 424.16 151.662 424.16C153.966 424.16 154.67 423.136 154.67 421.968ZM40.896 432.824L36.256 431.576L36.032 432.44L40.672 433.688L40.896 432.824ZM34.896 440.792C34.896 441.624 35.216 443.16 37.488 443.16C39.344 443.16 40.208 442.024 40.512 440.84H40.832L40.672 441.64V442.12C40.672 442.68 40.992 443 41.552 443H42.896V442.104H41.728V438.488C41.728 436.472 40.528 434.92 38.304 434.92C36.048 434.92 34.896 436.44 34.896 438.008H35.952C35.952 436.36 37.12 435.816 38.304 435.816C39.728 435.816 40.576 436.6 40.672 438.216L37.376 438.52C35.632 438.68 34.896 439.56 34.896 440.792ZM35.952 440.696C35.952 439.848 36.48 439.512 37.536 439.416L40.672 439.112C40.672 440.888 39.472 442.264 37.584 442.264C36.56 442.264 35.952 441.704 35.952 440.696ZM57.9653 443V431.24H56.9093V436.376L57.0693 437.176H56.7493C56.4293 435.896 55.2933 434.92 53.5173 434.92C51.2133 434.92 49.6773 436.664 49.6773 439.032C49.6773 441.416 51.2133 443.16 53.5173 443.16C55.2933 443.16 56.4293 442.184 56.7493 440.904H57.0693L56.9093 441.704V443H57.9653ZM56.9093 439.032C56.9093 441.304 55.4373 442.264 53.7413 442.264C52.0453 442.264 50.7333 441.304 50.7333 439.032C50.7333 436.776 52.0453 435.816 53.7413 435.816C55.4373 435.816 56.9093 436.776 56.9093 439.032ZM60.0835 439.032C60.0835 441.256 61.6675 443.16 64.2115 443.16C66.7395 443.16 68.3235 441.256 68.3235 439.032C68.3235 436.824 66.7395 434.92 64.2115 434.92C61.6675 434.92 60.0835 436.824 60.0835 439.032ZM61.1395 439.032C61.1395 437.32 62.1955 435.816 64.2115 435.816C66.2115 435.816 67.2675 437.32 67.2675 439.032C67.2675 440.76 66.2115 442.264 64.2115 442.264C62.1955 442.264 61.1395 440.76 61.1395 439.032ZM70.2785 443H71.3345V435.816L75.5585 435.976V435.08L71.3185 434.92C70.5985 434.888 70.2785 435.24 70.2785 435.96V443ZM86.7688 434.92C85.0408 434.92 84.1927 435.896 83.8728 437.336H83.6808C83.5368 435.896 82.7208 434.92 81.2968 434.92C79.5688 434.92 78.7208 435.896 78.4008 437.336H78.0807L78.2408 436.536V435.08H77.1848V443H78.2408V439.368C78.2408 437.256 79.3128 435.816 80.9288 435.816C82.2888 435.816 82.6568 436.632 82.6568 438.168V443H83.7128V439.368C83.7128 437.256 84.7847 435.816 86.4008 435.816C87.7608 435.816 88.1288 436.632 88.1288 438.168V443H89.1848V437.832C89.1848 436.136 88.3528 434.92 86.7688 434.92ZM93.4861 433.72C94.0781 433.72 94.5741 433.224 94.5741 432.632C94.5741 432.056 94.0781 431.56 93.4861 431.56C92.8941 431.56 92.4141 432.056 92.4141 432.632C92.4141 433.224 92.8941 433.72 93.4861 433.72ZM90.9741 443H96.4141V442.104H94.1901V435.8C94.1901 435.24 93.9341 434.856 93.2141 434.92L91.6141 435.08V435.976L93.1981 435.816V442.104H90.9741V443ZM98.2004 443H99.2564V435.816L103.48 435.976V435.08L99.2404 434.92C98.5204 434.888 98.2004 435.24 98.2004 435.96V443ZM105.061 443.16C105.733 443.16 106.309 442.616 106.309 441.912C106.309 441.224 105.733 440.68 105.061 440.68C104.373 440.68 103.829 441.224 103.829 441.912C103.829 442.616 104.373 443.16 105.061 443.16ZM110.296 443.16C110.968 443.16 111.544 442.616 111.544 441.912C111.544 441.224 110.968 440.68 110.296 440.68C109.608 440.68 109.064 441.224 109.064 441.912C109.064 442.616 109.608 443.16 110.296 443.16ZM115.53 443.16C116.202 443.16 116.778 442.616 116.778 441.912C116.778 441.224 116.202 440.68 115.53 440.68C114.842 440.68 114.298 441.224 114.298 441.912C114.298 442.616 114.842 443.16 115.53 443.16Z" fill="black"/>
<path fill-rule="evenodd" clip-rule="evenodd" d="M232 168C230.895 168 230 168.895 230 170V237C230 238.105 230.895 239 232 239H265.77C264.732 248.005 257.176 258.125 252.167 263.452C251.835 263.805 252.144 264.384 252.621 264.292C271.38 260.684 284.592 248.055 291.181 239H397C398.105 239 399 238.105 399 237V170C399 168.895 398.105 168 397 168H232Z" fill="#F7F7F7"/>
<path d="M248.216 190H249.272V179.84L249.112 179.04H249.432L252.952 190H255.128L258.648 179.04H258.968L258.808 179.84V190H259.864V178.72H257.72L254.2 189.68H253.88L250.36 178.72H248.216V190ZM261.974 187.792C261.974 188.624 262.294 190.16 264.566 190.16C266.422 190.16 267.286 189.024 267.59 187.84H267.91L267.75 188.64V189.12C267.75 189.68 268.07 190 268.63 190H269.974V189.104H268.806V185.488C268.806 183.472 267.606 181.92 265.382 181.92C263.126 181.92 261.974 183.44 261.974 185.008H263.03C263.03 183.36 264.198 182.816 265.382 182.816C266.806 182.816 267.654 183.6 267.75 185.216L264.454 185.52C262.71 185.68 261.974 186.56 261.974 187.792ZM263.03 187.696C263.03 186.848 263.558 186.512 264.614 186.416L267.75 186.112C267.75 187.888 266.55 189.264 264.662 189.264C263.638 189.264 263.03 188.704 263.03 187.696ZM281.191 181.92C279.463 181.92 278.615 182.896 278.295 184.336H278.103C277.959 182.896 277.143 181.92 275.719 181.92C273.991 181.92 273.143 182.896 272.823 184.336H272.503L272.663 183.536V182.08H271.607V190H272.663V186.368C272.663 184.256 273.735 182.816 275.351 182.816C276.711 182.816 277.079 183.632 277.079 185.168V190H278.135V186.368C278.135 184.256 279.207 182.816 280.823 182.816C282.183 182.816 282.551 183.632 282.551 185.168V190H283.607V184.832C283.607 183.136 282.775 181.92 281.191 181.92ZM285.552 187.792C285.552 188.624 285.872 190.16 288.144 190.16C290 190.16 290.864 189.024 291.168 187.84H291.488L291.328 188.64V189.12C291.328 189.68 291.648 190 292.208 190H293.552V189.104H292.384V185.488C292.384 183.472 291.184 181.92 288.96 181.92C286.704 181.92 285.552 183.44 285.552 185.008H286.608C286.608 183.36 287.776 182.816 288.96 182.816C290.384 182.816 291.232 183.6 291.328 185.216L288.032 185.52C286.288 185.68 285.552 186.56 285.552 187.792ZM286.608 187.696C286.608 186.848 287.136 186.512 288.192 186.416L291.328 186.112C291.328 187.888 290.128 189.264 288.24 189.264C287.216 189.264 286.608 188.704 286.608 187.696ZM299.217 182.816C300.609 182.816 301.297 183.472 301.297 185.168V190H302.353V185.04C302.353 182.896 301.201 181.92 299.457 181.92C297.729 181.92 296.721 182.896 296.401 184.336H296.081L296.241 183.536V182.08H295.185V190H296.241V186.368C296.241 184.256 297.473 182.816 299.217 182.816ZM305.326 187.456L304.142 191.872L305.166 192.144L306.35 187.728L305.326 187.456ZM315.539 180.72C316.132 180.72 316.628 180.224 316.628 179.632C316.628 179.056 316.132 178.56 315.539 178.56C314.948 178.56 314.468 179.056 314.468 179.632C314.468 180.224 314.948 180.72 315.539 180.72ZM313.604 192.88H314.74L316.036 190.608C316.244 190.24 316.308 189.936 316.308 189.52V182.8C316.308 182.24 315.988 181.856 315.268 181.92L313.604 182.08V182.976L315.252 182.816V189.328C315.252 189.744 315.188 190.048 314.98 190.416L313.604 192.88ZM319.931 178.16L318.939 181.872L319.963 182.144L320.955 178.432L319.931 178.16ZM323.224 187.792C323.224 188.624 323.544 190.16 325.816 190.16C327.672 190.16 328.536 189.024 328.84 187.84H329.16L329 188.64V189.12C329 189.68 329.32 190 329.88 190H331.224V189.104H330.056V185.488C330.056 183.472 328.856 181.92 326.632 181.92C324.376 181.92 323.224 183.44 323.224 185.008H324.28C324.28 183.36 325.448 182.816 326.632 182.816C328.056 182.816 328.904 183.6 329 185.216L325.704 185.52C323.96 185.68 323.224 186.56 323.224 187.792ZM324.28 187.696C324.28 186.848 324.808 186.512 325.864 186.416L329 186.112C329 187.888 327.8 189.264 325.912 189.264C324.888 189.264 324.28 188.704 324.28 187.696ZM335.049 180.72C335.641 180.72 336.137 180.224 336.137 179.632C336.137 179.056 335.641 178.56 335.049 178.56C334.457 178.56 333.977 179.056 333.977 179.632C333.977 180.224 334.457 180.72 335.049 180.72ZM332.537 190H337.977V189.104H335.753V182.8C335.753 182.24 335.497 181.856 334.777 181.92L333.177 182.08V182.976L334.761 182.816V189.104H332.537V190ZM345.232 182.08V192.88H346.288V188.704L346.128 187.904H346.448C346.768 189.184 347.888 190.16 349.664 190.16C351.968 190.16 353.52 188.416 353.52 186.048C353.52 183.664 351.968 181.92 349.664 181.92C347.888 181.92 346.768 182.896 346.448 184.176H346.128L346.288 183.376V182.08H345.232ZM346.288 186.048C346.288 183.776 347.76 182.816 349.456 182.816C351.152 182.816 352.464 183.808 352.464 186.048C352.464 188.272 351.152 189.264 349.456 189.264C347.76 189.264 346.288 188.304 346.288 186.048ZM354.361 190H359.865V189.104H357.641V179.12C357.641 178.4 357.321 178 356.601 178.08L355.001 178.24V179.136L356.585 178.976V189.104H354.361V190ZM364.473 189.264C363.081 189.264 362.393 188.608 362.393 186.912V182.08H361.337V187.04C361.337 189.184 362.489 190.16 364.233 190.16C365.961 190.16 366.969 189.184 367.289 187.744H367.609L367.449 188.544V190H368.505V182.08H367.449V185.712C367.449 187.824 366.217 189.264 364.473 189.264ZM376.811 187.968C376.811 186.256 375.067 185.904 373.499 185.392C372.219 184.976 371.723 184.736 371.723 183.904C371.723 183.104 372.491 182.816 373.435 182.816C374.779 182.816 375.483 183.36 375.483 184.528H376.539C376.539 183.28 375.851 181.92 373.435 181.92C371.691 181.92 370.667 182.752 370.667 183.968C370.667 185.344 371.755 185.824 373.259 186.288C374.555 186.688 375.755 186.88 375.755 188.048C375.755 188.944 375.147 189.264 373.803 189.264C372.219 189.264 371.355 188.608 371.355 187.072H370.299C370.299 188.96 371.307 190.16 373.803 190.16C376.107 190.16 376.811 189.136 376.811 187.968ZM248.216 201.08V211.88H249.272V207.704L249.112 206.904H249.432C249.752 208.184 250.872 209.16 252.648 209.16C254.952 209.16 256.504 207.416 256.504 205.048C256.504 202.664 254.952 200.92 252.648 200.92C250.872 200.92 249.752 201.896 249.432 203.176H249.112L249.272 202.376V201.08H248.216ZM249.272 205.048C249.272 202.776 250.744 201.816 252.44 201.816C254.136 201.816 255.448 202.808 255.448 205.048C255.448 207.272 254.136 208.264 252.44 208.264C250.744 208.264 249.272 207.304 249.272 205.048ZM258.146 204.936C258.146 207.224 259.298 209.16 262.082 209.16C264.562 209.16 265.458 207.48 265.778 206.232H264.722C264.402 207.56 263.49 208.264 262.082 208.264C260.018 208.264 259.298 206.84 259.202 205.224H265.506V204.776C265.506 202.328 264.098 200.92 261.906 200.92C259.714 200.92 258.146 202.376 258.146 204.936ZM259.202 204.328C259.202 202.92 260.322 201.816 261.906 201.816C263.538 201.816 264.45 202.92 264.45 204.328H259.202ZM270.708 208.264C269.316 208.264 268.628 207.608 268.628 205.912V201.08H267.572V206.04C267.572 208.184 268.724 209.16 270.468 209.16C272.196 209.16 273.204 208.184 273.524 206.744H273.844L273.684 207.544V209H274.74V201.08H273.684V204.712C273.684 206.824 272.452 208.264 270.708 208.264ZM277.013 209H278.069V201.816L282.293 201.976V201.08L278.053 200.92C277.333 200.888 277.013 201.24 277.013 201.96V209ZM297.356 209V197.24H296.3V202.376L296.46 203.176H296.14C295.82 201.896 294.684 200.92 292.908 200.92C290.604 200.92 289.068 202.664 289.068 205.032C289.068 207.416 290.604 209.16 292.908 209.16C294.684 209.16 295.82 208.184 296.14 206.904H296.46L296.3 207.704V209H297.356ZM296.3 205.032C296.3 207.304 294.828 208.264 293.132 208.264C291.436 208.264 290.124 207.304 290.124 205.032C290.124 202.776 291.436 201.816 293.132 201.816C294.828 201.816 296.3 202.776 296.3 205.032ZM302.77 208.264C301.378 208.264 300.69 207.608 300.69 205.912V201.08H299.634V206.04C299.634 208.184 300.786 209.16 302.53 209.16C304.258 209.16 305.266 208.184 305.586 206.744H305.906L305.746 207.544V209H306.802V201.08H305.746V204.712C305.746 206.824 304.514 208.264 302.77 208.264ZM318.576 201.816C319.968 201.816 320.656 202.472 320.656 204.168V209H321.712V204.04C321.712 201.896 320.56 200.92 318.816 200.92C317.088 200.92 316.08 201.896 315.76 203.336H315.44L315.6 202.536V201.08H314.544V209H315.6V205.368C315.6 203.256 316.832 201.816 318.576 201.816ZM323.662 205.032C323.662 207.256 325.246 209.16 327.79 209.16C330.318 209.16 331.902 207.256 331.902 205.032C331.902 202.824 330.318 200.92 327.79 200.92C325.246 200.92 323.662 202.824 323.662 205.032ZM324.718 205.032C324.718 203.32 325.774 201.816 327.79 201.816C329.79 201.816 330.846 203.32 330.846 205.032C330.846 206.76 329.79 208.264 327.79 208.264C325.774 208.264 324.718 206.76 324.718 205.032ZM335.564 199.72C336.156 199.72 336.652 199.224 336.652 198.632C336.652 198.056 336.156 197.56 335.564 197.56C334.972 197.56 334.492 198.056 334.492 198.632C334.492 199.224 334.972 199.72 335.564 199.72ZM333.052 209H338.492V208.104H336.268V201.8C336.268 201.24 336.012 200.856 335.292 200.92L333.692 201.08V201.976L335.276 201.816V208.104H333.052V209ZM340.279 209H341.335V201.816L345.559 201.976V201.08L341.319 200.92C340.599 200.888 340.279 201.24 340.279 201.96V209ZM257.8 219.92C256.072 219.92 255.224 220.896 254.904 222.336H254.712C254.568 220.896 253.752 219.92 252.328 219.92C250.6 219.92 249.752 220.896 249.432 222.336H249.112L249.272 221.536V220.08H248.216V228H249.272V224.368C249.272 222.256 250.344 220.816 251.96 220.816C253.32 220.816 253.688 221.632 253.688 223.168V228H254.744V224.368C254.744 222.256 255.816 220.816 257.432 220.816C258.792 220.816 259.16 221.632 259.16 223.168V228H260.216V222.832C260.216 221.136 259.384 219.92 257.8 219.92ZM262.162 225.792C262.162 226.624 262.482 228.16 264.754 228.16C266.61 228.16 267.474 227.024 267.778 225.84H268.098L267.938 226.64V227.12C267.938 227.68 268.258 228 268.818 228H270.162V227.104H268.994V223.488C268.994 221.472 267.794 219.92 265.57 219.92C263.314 219.92 262.162 221.44 262.162 223.008H263.218C263.218 221.36 264.386 220.816 265.57 220.816C266.994 220.816 267.842 221.6 267.938 223.216L264.642 223.52C262.898 223.68 262.162 224.56 262.162 225.792ZM263.218 225.696C263.218 224.848 263.746 224.512 264.802 224.416L267.938 224.112C267.938 225.888 266.738 227.264 264.85 227.264C263.826 227.264 263.218 226.704 263.218 225.696ZM273.986 218.72C274.578 218.72 275.074 218.224 275.074 217.632C275.074 217.056 274.578 216.56 273.986 216.56C273.394 216.56 272.914 217.056 272.914 217.632C272.914 218.224 273.394 218.72 273.986 218.72ZM271.474 228H276.914V227.104H274.69V220.8C274.69 220.24 274.434 219.856 273.714 219.92L272.114 220.08V220.976L273.698 220.816V227.104H271.474V228ZM282.732 220.816C284.124 220.816 284.812 221.472 284.812 223.168V228H285.868V223.04C285.868 220.896 284.716 219.92 282.972 219.92C281.244 219.92 280.236 220.896 279.916 222.336H279.596L279.756 221.536V220.08H278.7V228H279.756V224.368C279.756 222.256 280.988 220.816 282.732 220.816ZM289.95 227.28V220.976H292.398V220.08H289.95V217.6L288.894 217.92V220.08H287.182V220.976H288.894V227.12C288.894 227.84 289.214 228.208 289.934 228.16L292.718 228V227.104L289.95 227.28ZM293.865 223.936C293.865 226.224 295.017 228.16 297.801 228.16C300.281 228.16 301.177 226.48 301.497 225.232H300.441C300.121 226.56 299.209 227.264 297.801 227.264C295.737 227.264 295.017 225.84 294.921 224.224H301.225V223.776C301.225 221.328 299.817 219.92 297.625 219.92C295.433 219.92 293.865 221.376 293.865 223.936ZM294.921 223.328C294.921 221.92 296.041 220.816 297.625 220.816C299.257 220.816 300.169 221.92 300.169 223.328H294.921ZM307.482 220.816C308.874 220.816 309.562 221.472 309.562 223.168V228H310.618V223.04C310.618 220.896 309.466 219.92 307.722 219.92C305.994 219.92 304.986 220.896 304.666 222.336H304.346L304.506 221.536V220.08H303.45V228H304.506V224.368C304.506 222.256 305.738 220.816 307.482 220.816ZM312.568 225.792C312.568 226.624 312.888 228.16 315.16 228.16C317.016 228.16 317.88 227.024 318.184 225.84H318.504L318.344 226.64V227.12C318.344 227.68 318.664 228 319.224 228H320.568V227.104H319.4V223.488C319.4 221.472 318.2 219.92 315.976 219.92C313.72 219.92 312.568 221.44 312.568 223.008H313.624C313.624 221.36 314.792 220.816 315.976 220.816C317.4 220.816 318.248 221.6 318.344 223.216L315.048 223.52C313.304 223.68 312.568 224.56 312.568 225.792ZM313.624 225.696C313.624 224.848 314.152 224.512 315.208 224.416L318.344 224.112C318.344 225.888 317.144 227.264 315.256 227.264C314.232 227.264 313.624 226.704 313.624 225.696ZM326.232 220.816C327.624 220.816 328.312 221.472 328.312 223.168V228H329.368V223.04C329.368 220.896 328.216 219.92 326.472 219.92C324.744 219.92 323.736 220.896 323.416 222.336H323.096L323.256 221.536V220.08H322.2V228H323.256V224.368C323.256 222.256 324.488 220.816 326.232 220.816ZM333.45 227.28V220.976H335.898V220.08H333.45V217.6L332.394 217.92V220.08H330.682V220.976H332.394V227.12C332.394 227.84 332.714 228.208 333.434 228.16L336.218 228V227.104L333.45 227.28ZM344.518 216.72L344.598 224.176H345.494L345.574 216.72H344.518ZM345.03 228.16C345.702 228.16 346.278 227.616 346.278 226.912C346.278 226.224 345.702 225.68 345.03 225.68C344.342 225.68 343.798 226.224 343.798 226.912C343.798 227.616 344.342 228.16 345.03 228.16Z" fill="black"/>
<path fill-rule="evenodd" clip-rule="evenodd" d="M540 484C536.686 484 534 486.686 534 490V555C534 558.314 536.686 561 540 561H650.808C660.143 569.525 669.482 581.334 659 587.5C652.754 591.174 646.98 592.351 641.778 593.411C632.822 595.236 625.561 596.716 620.5 610C627 598.5 637.859 596 655.5 596C676.865 596 677.437 572.677 670.697 561H692C695.314 561 698 558.314 698 555V490C698 486.686 695.314 484 692 484H540Z" fill="#F7F7F7"/>
<path d="M549.056 503.352C549.056 506.648 550.96 509.16 554.224 509.16C557.472 509.16 559.376 506.648 559.376 503.352C559.376 500.072 557.472 497.56 554.224 497.56C550.96 497.56 549.056 500.072 549.056 503.352ZM550.112 503.352C550.112 500.552 551.456 498.456 554.224 498.456C556.992 498.456 558.32 500.552 558.32 503.352C558.32 506.168 556.992 508.264 554.224 508.264C551.456 508.264 550.112 506.168 550.112 503.352ZM561.021 505.032C561.021 507.256 562.605 509.16 565.149 509.16C567.677 509.16 569.261 507.256 569.261 505.032C569.261 502.824 567.677 500.92 565.149 500.92C562.605 500.92 561.021 502.824 561.021 505.032ZM562.077 505.032C562.077 503.32 563.133 501.816 565.149 501.816C567.149 501.816 568.205 503.32 568.205 505.032C568.205 506.76 567.149 508.264 565.149 508.264C563.133 508.264 562.077 506.76 562.077 505.032ZM574.192 508.264C572.8 508.264 572.112 507.608 572.112 505.912V501.08H571.056V506.04C571.056 508.184 572.208 509.16 573.952 509.16C575.68 509.16 576.688 508.184 577.008 506.744H577.328L577.168 507.544V509H578.224V501.08H577.168V504.712C577.168 506.824 575.936 508.264 574.192 508.264ZM582.465 508.28V501.976H584.913V501.08H582.465V498.6L581.409 498.92V501.08H579.697V501.976H581.409V508.12C581.409 508.84 581.729 509.208 582.449 509.16L585.233 509V508.104L582.465 508.28ZM586.38 505.032C586.38 507.256 587.788 509.16 590.364 509.16C591.772 509.16 593.724 508.36 593.948 506.056H592.876C592.62 507.736 591.548 508.264 590.364 508.264C588.348 508.264 587.436 506.76 587.436 505.032C587.436 503.32 588.348 501.816 590.364 501.816C591.548 501.816 592.62 502.344 592.876 504.024H593.948C593.724 501.72 591.772 500.92 590.364 500.92C587.788 500.92 586.38 502.824 586.38 505.032ZM600.332 500.92C598.604 500.92 597.596 501.896 597.276 503.336H596.956L597.116 502.536V497.24H596.06V509H597.116V505.368C597.116 503.256 598.348 501.816 600.092 501.816C601.484 501.816 602.172 502.472 602.172 504.168V509H603.228V504.04C603.228 501.896 602.076 500.92 600.332 500.92ZM620.55 500.92C618.822 500.92 617.974 501.896 617.654 503.336H617.462C617.318 501.896 616.502 500.92 615.078 500.92C613.35 500.92 612.502 501.896 612.182 503.336H611.862L612.022 502.536V501.08H610.966V509H612.022V505.368C612.022 503.256 613.094 501.816 614.71 501.816C616.07 501.816 616.438 502.632 616.438 504.168V509H617.494V505.368C617.494 503.256 618.566 501.816 620.182 501.816C621.542 501.816 621.91 502.632 621.91 504.168V509H622.966V503.832C622.966 502.136 622.134 500.92 620.55 500.92ZM624.912 506.792C624.912 507.624 625.232 509.16 627.504 509.16C629.36 509.16 630.224 508.024 630.528 506.84H630.848L630.688 507.64V508.12C630.688 508.68 631.008 509 631.568 509H632.912V508.104H631.744V504.488C631.744 502.472 630.544 500.92 628.32 500.92C626.064 500.92 624.912 502.44 624.912 504.008H625.968C625.968 502.36 627.136 501.816 628.32 501.816C629.744 501.816 630.592 502.6 630.688 504.216L627.392 504.52C625.648 504.68 624.912 505.56 624.912 506.792ZM625.968 506.696C625.968 505.848 626.496 505.512 627.552 505.416L630.688 505.112C630.688 506.888 629.488 508.264 627.6 508.264C626.576 508.264 625.968 507.704 625.968 506.696ZM636.736 499.72C637.328 499.72 637.824 499.224 637.824 498.632C637.824 498.056 637.328 497.56 636.736 497.56C636.144 497.56 635.664 498.056 635.664 498.632C635.664 499.224 636.144 499.72 636.736 499.72ZM634.224 509H639.664V508.104H637.44V501.8C637.44 501.24 637.184 500.856 636.464 500.92L634.864 501.08V501.976L636.448 501.816V508.104H634.224V509ZM647.17 506.968C647.17 505.256 645.426 504.904 643.858 504.392C642.578 503.976 642.082 503.736 642.082 502.904C642.082 502.104 642.85 501.816 643.794 501.816C645.138 501.816 645.842 502.36 645.842 503.528H646.898C646.898 502.28 646.21 500.92 643.794 500.92C642.05 500.92 641.026 501.752 641.026 502.968C641.026 504.344 642.114 504.824 643.618 505.288C644.914 505.688 646.114 505.88 646.114 507.048C646.114 507.944 645.506 508.264 644.162 508.264C642.578 508.264 641.714 507.608 641.714 506.072H640.658C640.658 507.96 641.666 509.16 644.162 509.16C646.466 509.16 647.17 508.136 647.17 506.968ZM548.896 523.936C548.896 526.224 550.048 528.16 552.832 528.16C555.312 528.16 556.208 526.48 556.528 525.232H555.472C555.152 526.56 554.24 527.264 552.832 527.264C550.768 527.264 550.048 525.84 549.952 524.224H556.256V523.776C556.256 521.328 554.848 519.92 552.656 519.92C550.464 519.92 548.896 521.376 548.896 523.936ZM549.952 523.328C549.952 521.92 551.072 520.816 552.656 520.816C554.288 520.816 555.2 521.92 555.2 523.328H549.952ZM557.361 528H562.865V527.104H560.641V517.12C560.641 516.4 560.321 516 559.601 516.08L558.001 516.24V517.136L559.585 516.976V527.104H557.361V528ZM564.174 528H569.678V527.104H567.454V517.12C567.454 516.4 567.134 516 566.414 516.08L564.814 516.24V517.136L566.398 516.976V527.104H564.174V528ZM570.662 523.936C570.662 526.224 571.814 528.16 574.598 528.16C577.078 528.16 577.974 526.48 578.294 525.232H577.238C576.918 526.56 576.006 527.264 574.598 527.264C572.534 527.264 571.814 525.84 571.718 524.224H578.022V523.776C578.022 521.328 576.614 519.92 574.422 519.92C572.23 519.92 570.662 521.376 570.662 523.936ZM571.718 523.328C571.718 521.92 572.838 520.816 574.422 520.816C576.054 520.816 576.966 521.92 576.966 523.328H571.718ZM585.552 523.936C585.552 526.224 586.704 528.16 589.488 528.16C591.968 528.16 592.864 526.48 593.184 525.232H592.128C591.808 526.56 590.896 527.264 589.488 527.264C587.424 527.264 586.704 525.84 586.608 524.224H592.912V523.776C592.912 521.328 591.504 519.92 589.312 519.92C587.12 519.92 585.552 521.376 585.552 523.936ZM586.608 523.328C586.608 521.92 587.728 520.816 589.312 520.816C590.944 520.816 591.856 521.92 591.856 523.328H586.608ZM601.17 525.968C601.17 524.256 599.426 523.904 597.858 523.392C596.578 522.976 596.082 522.736 596.082 521.904C596.082 521.104 596.85 520.816 597.794 520.816C599.138 520.816 599.842 521.36 599.842 522.528H600.898C600.898 521.28 600.21 519.92 597.794 519.92C596.05 519.92 595.026 520.752 595.026 521.968C595.026 523.344 596.114 523.824 597.618 524.288C598.914 524.688 600.114 524.88 600.114 526.048C600.114 526.944 599.506 527.264 598.162 527.264C596.578 527.264 595.714 526.608 595.714 525.072H594.658C594.658 526.96 595.666 528.16 598.162 528.16C600.466 528.16 601.17 527.136 601.17 525.968ZM604.934 527.28V520.976H607.382V520.08H604.934V517.6L603.878 517.92V520.08H602.166V520.976H603.878V527.12C603.878 527.84 604.198 528.208 604.918 528.16L607.702 528V527.104L604.934 527.28ZM616.082 514.464L616.306 515.328L620.946 514.08L620.722 513.216L616.082 514.464ZM615.122 528H621.89V527.104H616.178V522.8H621.09V521.904H616.178V517.616H621.89V516.72H615.122V528ZM623.841 528H624.897V517.84L624.737 517.04H625.057L631.121 528H633.281V516.72H632.225V526.88L632.385 527.68H632.065L626.001 516.72H623.841V528ZM635.243 522.352C635.243 525.648 637.148 528.16 640.412 528.16C643.66 528.16 645.564 525.648 645.564 522.352C645.564 519.072 643.66 516.56 640.412 516.56C637.148 516.56 635.243 519.072 635.243 522.352ZM636.299 522.352C636.299 519.552 637.644 517.456 640.412 517.456C643.18 517.456 644.508 519.552 644.508 522.352C644.508 525.168 643.18 527.264 640.412 527.264C637.644 527.264 636.299 525.168 636.299 522.352ZM647.529 528H648.585V523.36H654.505V528H655.561V523.632C655.561 523.104 655.352 522.88 654.76 522.88H653.465V522.56C654.665 522.336 655.417 521.536 655.417 519.872C655.417 517.344 653.833 516.72 651.145 516.72H647.529V528ZM648.585 522.464V517.616H651.145C653.145 517.616 654.361 517.824 654.361 520.032C654.361 522.24 653.145 522.464 651.145 522.464H648.585ZM657.841 528H658.897V517.84L658.737 517.04H659.057L662.577 528H664.753L668.273 517.04H668.593L668.433 517.84V528H669.489V516.72H667.345L663.825 527.68H663.505L659.985 516.72H657.841V528ZM671.763 528H678.531V527.104H672.819V522.8H677.731V521.904H672.819V517.616H678.531V516.72H671.763V528ZM548.896 543.032C548.896 545.256 550.304 547.16 552.88 547.16C554.288 547.16 556.24 546.36 556.464 544.056H555.392C555.136 545.736 554.064 546.264 552.88 546.264C550.864 546.264 549.952 544.76 549.952 543.032C549.952 541.32 550.864 539.816 552.88 539.816C554.064 539.816 555.136 540.344 555.392 542.024H556.464C556.24 539.72 554.288 538.92 552.88 538.92C550.304 538.92 548.896 540.824 548.896 543.032ZM558.099 542.936C558.099 545.224 559.251 547.16 562.035 547.16C564.515 547.16 565.411 545.48 565.731 544.232H564.675C564.355 545.56 563.443 546.264 562.035 546.264C559.971 546.264 559.251 544.84 559.155 543.224H565.459V542.776C565.459 540.328 564.051 538.92 561.859 538.92C559.667 538.92 558.099 540.376 558.099 542.936ZM559.155 542.328C559.155 540.92 560.275 539.816 561.859 539.816C563.491 539.816 564.403 540.92 564.403 542.328H559.155ZM569.325 546.28V539.976H571.773V539.08H569.325V536.6L568.269 536.92V539.08H566.557V539.976H568.269V546.12C568.269 546.84 568.589 547.208 569.309 547.16L572.093 547V546.104L569.325 546.28ZM575.856 546.28V539.976H578.304V539.08H575.856V536.6L574.8 536.92V539.08H573.088V539.976H574.8V546.12C574.8 546.84 575.12 547.208 575.84 547.16L578.624 547V546.104L575.856 546.28ZM579.771 542.936C579.771 545.224 580.923 547.16 583.707 547.16C586.187 547.16 587.083 545.48 587.403 544.232H586.347C586.027 545.56 585.115 546.264 583.707 546.264C581.643 546.264 580.923 544.84 580.827 543.224H587.131V542.776C587.131 540.328 585.723 538.92 583.531 538.92C581.339 538.92 579.771 540.376 579.771 542.936ZM580.827 542.328C580.827 540.92 581.947 539.816 583.531 539.816C585.163 539.816 586.075 540.92 586.075 542.328H580.827ZM596.054 536.824L596.278 537.688L600.918 536.44L600.694 535.576L596.054 536.824ZM594.662 542.936C594.662 545.224 595.814 547.16 598.598 547.16C601.078 547.16 601.974 545.48 602.294 544.232H601.238C600.918 545.56 600.006 546.264 598.598 546.264C596.534 546.264 595.814 544.84 595.718 543.224H602.022V542.776C602.022 540.328 600.614 538.92 598.422 538.92C596.23 538.92 594.662 540.376 594.662 542.936ZM595.718 542.328C595.718 540.92 596.838 539.816 598.422 539.816C600.054 539.816 600.966 540.92 600.966 542.328H595.718ZM604.404 539.08V549.88H605.46V545.704L605.299 544.904H605.62C605.94 546.184 607.06 547.16 608.836 547.16C611.14 547.16 612.692 545.416 612.692 543.048C612.692 540.664 611.14 538.92 608.836 538.92C607.06 538.92 605.94 539.896 605.62 541.176H605.299L605.46 540.376V539.08H604.404ZM605.46 543.048C605.46 540.776 606.932 539.816 608.628 539.816C610.324 539.816 611.635 540.808 611.635 543.048C611.635 545.272 610.324 546.264 608.628 546.264C606.932 546.264 605.46 545.304 605.46 543.048ZM616.361 537.72C616.953 537.72 617.449 537.224 617.449 536.632C617.449 536.056 616.953 535.56 616.361 535.56C615.769 535.56 615.289 536.056 615.289 536.632C615.289 537.224 615.769 537.72 616.361 537.72ZM613.849 547H619.289V546.104H617.065V539.8C617.065 539.24 616.809 538.856 616.089 538.92L614.489 539.08V539.976L616.073 539.816V546.104H613.849V547ZM625.107 539.816C626.499 539.816 627.187 540.472 627.187 542.168V547H628.243V542.04C628.243 539.896 627.091 538.92 625.347 538.92C623.619 538.92 622.611 539.896 622.291 541.336H621.971L622.131 540.536V539.08H621.075V547H622.131V543.368C622.131 541.256 623.363 539.816 625.107 539.816ZM630.193 542.936C630.193 545.224 631.345 547.16 634.129 547.16C636.609 547.16 637.505 545.48 637.825 544.232H636.769C636.449 545.56 635.537 546.264 634.129 546.264C632.065 546.264 631.345 544.84 631.249 543.224H637.553V542.776C637.553 540.328 636.145 538.92 633.953 538.92C631.761 538.92 630.193 540.376 630.193 542.936ZM631.249 542.328C631.249 540.92 632.369 539.816 633.953 539.816C635.585 539.816 636.497 540.92 636.497 542.328H631.249ZM646.284 535.72L646.364 543.176H647.26L647.34 535.72H646.284ZM646.796 547.16C647.468 547.16 648.044 546.616 648.044 545.912C648.044 545.224 647.468 544.68 646.796 544.68C646.108 544.68 645.564 545.224 645.564 545.912C645.564 546.616 646.108 547.16 646.796 547.16ZM651.518 535.72L651.598 543.176H652.494L652.574 535.72H651.518ZM652.03 547.16C652.702 547.16 653.278 546.616 653.278 545.912C653.278 545.224 652.702 544.68 652.03 544.68C651.342 544.68 650.798 545.224 650.798 545.912C650.798 546.616 651.342 547.16 652.03 547.16Z" fill="black"/>
</svg>
