<svg width="1680" height="1050" viewBox="0 0 1680 1050" fill="none" xmlns="http://www.w3.org/2000/svg">
<path fill-rule="evenodd" clip-rule="evenodd" d="M1024 374C1025.1 374 1026 374.895 1026 376V426C1026 427.105 1025.1 428 1024 428H990.23C991.268 437.005 998.824 447.125 1003.83 452.452C1004.17 452.805 1003.86 453.384 1003.38 453.292C984.62 449.684 971.408 437.055 964.819 428H872C870.895 428 870 427.105 870 426V376C870 374.895 870.895 374 872 374H1024Z" fill="#F7F7F7"/>
<path d="M888.12 397.16C891.096 397.352 891.304 395.064 891.304 391.816V386.44C891.304 385.88 890.984 385.528 890.424 385.56L887.384 385.72V386.616L890.248 386.456V391.816C890.248 395.24 889.992 396.376 888.12 396.264L885.576 396.104V397L888.12 397.16ZM893.255 392.936C893.255 395.224 894.407 397.16 897.191 397.16C899.671 397.16 900.567 395.48 900.887 394.232H899.831C899.511 395.56 898.599 396.264 897.191 396.264C895.127 396.264 894.407 394.84 894.311 393.224H900.615V392.776C900.615 390.328 899.207 388.92 897.015 388.92C894.823 388.92 893.255 390.376 893.255 392.936ZM894.311 392.328C894.311 390.92 895.431 389.816 897.015 389.816C898.647 389.816 899.559 390.92 899.559 392.328H894.311ZM912.498 389.816C913.89 389.816 914.578 390.472 914.578 392.168V397H915.634V392.04C915.634 389.896 914.482 388.92 912.738 388.92C911.01 388.92 910.002 389.896 909.682 391.336H909.362L909.522 390.536V389.08H908.466V397H909.522V393.368C909.522 391.256 910.754 389.816 912.498 389.816ZM918.415 385.16L917.423 388.872L918.447 389.144L919.439 385.432L918.415 385.16ZM921.709 394.792C921.709 395.624 922.029 397.16 924.301 397.16C926.157 397.16 927.021 396.024 927.325 394.84H927.645L927.485 395.64V396.12C927.485 396.68 927.805 397 928.365 397H929.709V396.104H928.541V392.488C928.541 390.472 927.341 388.92 925.117 388.92C922.861 388.92 921.709 390.44 921.709 392.008H922.765C922.765 390.36 923.933 389.816 925.117 389.816C926.541 389.816 927.389 390.6 927.485 392.216L924.189 392.52C922.445 392.68 921.709 393.56 921.709 394.792ZM922.765 394.696C922.765 393.848 923.293 393.512 924.349 393.416L927.485 393.112C927.485 394.888 926.285 396.264 924.397 396.264C923.373 396.264 922.765 395.704 922.765 394.696ZM931.341 397H932.397V389.816L936.621 389.976V389.08L932.381 388.92C931.661 388.888 931.341 389.24 931.341 389.96V397ZM938.247 397H939.303V389.816L943.527 389.976V389.08L939.287 388.92C938.567 388.888 938.247 389.24 938.247 389.96V397ZM947.346 387.72C947.938 387.72 948.434 387.224 948.434 386.632C948.434 386.056 947.938 385.56 947.346 385.56C946.754 385.56 946.274 386.056 946.274 386.632C946.274 387.224 946.754 387.72 947.346 387.72ZM944.834 397H950.274V396.104H948.049V389.8C948.049 389.24 947.794 388.856 947.074 388.92L945.474 389.08V389.976L947.058 389.816V396.104H944.834V397ZM956.851 389.08L954.259 396.68H953.939L951.331 389.08H950.307L953.027 397H955.171L957.875 389.08H956.851ZM958.88 392.936C958.88 395.224 960.032 397.16 962.816 397.16C965.296 397.16 966.192 395.48 966.512 394.232H965.456C965.136 395.56 964.224 396.264 962.816 396.264C960.752 396.264 960.032 394.84 959.936 393.224H966.24V392.776C966.24 390.328 964.832 388.92 962.64 388.92C960.448 388.92 958.88 390.376 958.88 392.936ZM959.936 392.328C959.936 390.92 961.056 389.816 962.64 389.816C964.272 389.816 965.184 390.92 965.184 392.328H959.936ZM974.091 389.08V399.88H975.147V395.704L974.987 394.904H975.307C975.627 396.184 976.747 397.16 978.523 397.16C980.827 397.16 982.379 395.416 982.379 393.048C982.379 390.664 980.827 388.92 978.523 388.92C976.747 388.92 975.627 389.896 975.307 391.176H974.987L975.147 390.376V389.08H974.091ZM975.147 393.048C975.147 390.776 976.619 389.816 978.315 389.816C980.011 389.816 981.323 390.808 981.323 393.048C981.323 395.272 980.011 396.264 978.315 396.264C976.619 396.264 975.147 395.304 975.147 393.048ZM983.22 397H988.724V396.104H986.5V386.12C986.5 385.4 986.18 385 985.46 385.08L983.86 385.24V386.136L985.444 385.976V396.104H983.22V397ZM993.333 396.264C991.941 396.264 991.253 395.608 991.253 393.912V389.08H990.197V394.04C990.197 396.184 991.349 397.16 993.093 397.16C994.821 397.16 995.829 396.184 996.149 394.744H996.469L996.309 395.544V397H997.365V389.08H996.309V392.712C996.309 394.824 995.077 396.264 993.333 396.264ZM1005.67 394.968C1005.67 393.256 1003.93 392.904 1002.36 392.392C1001.08 391.976 1000.58 391.736 1000.58 390.904C1000.58 390.104 1001.35 389.816 1002.29 389.816C1003.64 389.816 1004.34 390.36 1004.34 391.528H1005.4C1005.4 390.28 1004.71 388.92 1002.29 388.92C1000.55 388.92 999.526 389.752 999.526 390.968C999.526 392.344 1000.61 392.824 1002.12 393.288C1003.41 393.688 1004.61 393.88 1004.61 395.048C1004.61 395.944 1004.01 396.264 1002.66 396.264C1001.08 396.264 1000.21 395.608 1000.21 394.072H999.158C999.158 395.96 1000.17 397.16 1002.66 397.16C1004.97 397.16 1005.67 396.136 1005.67 394.968ZM891.896 405.824L887.256 404.576L887.032 405.44L891.672 406.688L891.896 405.824ZM885.896 413.792C885.896 414.624 886.216 416.16 888.488 416.16C890.344 416.16 891.208 415.024 891.512 413.84H891.832L891.672 414.64V415.12C891.672 415.68 891.992 416 892.552 416H893.896V415.104H892.728V411.488C892.728 409.472 891.528 407.92 889.304 407.92C887.048 407.92 885.896 409.44 885.896 411.008H886.952C886.952 409.36 888.12 408.816 889.304 408.816C890.728 408.816 891.576 409.6 891.672 411.216L888.376 411.52C886.632 411.68 885.896 412.56 885.896 413.792ZM886.952 413.696C886.952 412.848 887.48 412.512 888.536 412.416L891.672 412.112C891.672 413.888 890.472 415.264 888.584 415.264C887.56 415.264 886.952 414.704 886.952 413.696ZM908.965 416V404.24H907.909V409.376L908.069 410.176H907.749C907.429 408.896 906.293 407.92 904.517 407.92C902.213 407.92 900.677 409.664 900.677 412.032C900.677 414.416 902.213 416.16 904.517 416.16C906.293 416.16 907.429 415.184 907.749 413.904H908.069L907.909 414.704V416H908.965ZM907.909 412.032C907.909 414.304 906.437 415.264 904.741 415.264C903.045 415.264 901.733 414.304 901.733 412.032C901.733 409.776 903.045 408.816 904.741 408.816C906.437 408.816 907.909 409.776 907.909 412.032ZM911.084 412.032C911.084 414.256 912.668 416.16 915.212 416.16C917.74 416.16 919.324 414.256 919.324 412.032C919.324 409.824 917.74 407.92 915.212 407.92C912.668 407.92 911.084 409.824 911.084 412.032ZM912.14 412.032C912.14 410.32 913.196 408.816 915.212 408.816C917.212 408.816 918.267 410.32 918.267 412.032C918.267 413.76 917.212 415.264 915.212 415.264C913.196 415.264 912.14 413.76 912.14 412.032ZM921.279 416H922.335V408.816L926.559 408.976V408.08L922.319 407.92C921.599 407.888 921.279 408.24 921.279 408.96V416ZM937.769 407.92C936.041 407.92 935.193 408.896 934.873 410.336H934.681C934.537 408.896 933.721 407.92 932.297 407.92C930.569 407.92 929.721 408.896 929.401 410.336H929.081L929.241 409.536V408.08H928.185V416H929.241V412.368C929.241 410.256 930.313 408.816 931.929 408.816C933.289 408.816 933.657 409.632 933.657 411.168V416H934.713V412.368C934.713 410.256 935.785 408.816 937.401 408.816C938.761 408.816 939.129 409.632 939.129 411.168V416H940.185V410.832C940.185 409.136 939.353 407.92 937.769 407.92ZM944.486 406.72C945.078 406.72 945.574 406.224 945.574 405.632C945.574 405.056 945.078 404.56 944.486 404.56C943.894 404.56 943.414 405.056 943.414 405.632C943.414 406.224 943.894 406.72 944.486 406.72ZM941.974 416H947.414V415.104H945.19V408.8C945.19 408.24 944.934 407.856 944.214 407.92L942.614 408.08V408.976L944.198 408.816V415.104H941.974V416ZM949.2 416H950.256V408.816L954.48 408.976V408.08L950.24 407.92C949.52 407.888 949.2 408.24 949.2 408.96V416ZM956.061 416.16C956.733 416.16 957.309 415.616 957.309 414.912C957.309 414.224 956.733 413.68 956.061 413.68C955.373 413.68 954.829 414.224 954.829 414.912C954.829 415.616 955.373 416.16 956.061 416.16ZM961.296 416.16C961.968 416.16 962.544 415.616 962.544 414.912C962.544 414.224 961.968 413.68 961.296 413.68C960.608 413.68 960.064 414.224 960.064 414.912C960.064 415.616 960.608 416.16 961.296 416.16ZM966.53 416.16C967.202 416.16 967.778 415.616 967.778 414.912C967.778 414.224 967.202 413.68 966.53 413.68C965.842 413.68 965.298 414.224 965.298 414.912C965.298 415.616 965.842 416.16 966.53 416.16Z" fill="black"/>
<path fill-rule="evenodd" clip-rule="evenodd" d="M1101 144C1099.9 144 1099 144.895 1099 146V213C1099 214.105 1099.9 215 1101 215H1134.77C1133.73 224.005 1126.18 234.125 1121.17 239.452C1120.83 239.805 1121.14 240.384 1121.62 240.292C1140.38 236.684 1153.59 224.055 1160.18 215H1266C1267.1 215 1268 214.105 1268 213V146C1268 144.895 1267.1 144 1266 144H1101Z" fill="#F7F7F7"/>
<path d="M1117.22 166H1118.27V155.84L1118.11 155.04H1118.43L1121.95 166H1124.13L1127.65 155.04H1127.97L1127.81 155.84V166H1128.86V154.72H1126.72L1123.2 165.68H1122.88L1119.36 154.72H1117.22V166ZM1130.97 163.792C1130.97 164.624 1131.29 166.16 1133.57 166.16C1135.42 166.16 1136.29 165.024 1136.59 163.84H1136.91L1136.75 164.64V165.12C1136.75 165.68 1137.07 166 1137.63 166H1138.97V165.104H1137.81V161.488C1137.81 159.472 1136.61 157.92 1134.38 157.92C1132.13 157.92 1130.97 159.44 1130.97 161.008H1132.03C1132.03 159.36 1133.2 158.816 1134.38 158.816C1135.81 158.816 1136.65 159.6 1136.75 161.216L1133.45 161.52C1131.71 161.68 1130.97 162.56 1130.97 163.792ZM1132.03 163.696C1132.03 162.848 1132.56 162.512 1133.61 162.416L1136.75 162.112C1136.75 163.888 1135.55 165.264 1133.66 165.264C1132.64 165.264 1132.03 164.704 1132.03 163.696ZM1150.19 157.92C1148.46 157.92 1147.61 158.896 1147.29 160.336H1147.1C1146.96 158.896 1146.14 157.92 1144.72 157.92C1142.99 157.92 1142.14 158.896 1141.82 160.336H1141.5L1141.66 159.536V158.08H1140.61V166H1141.66V162.368C1141.66 160.256 1142.73 158.816 1144.35 158.816C1145.71 158.816 1146.08 159.632 1146.08 161.168V166H1147.13V162.368C1147.13 160.256 1148.21 158.816 1149.82 158.816C1151.18 158.816 1151.55 159.632 1151.55 161.168V166H1152.61V160.832C1152.61 159.136 1151.77 157.92 1150.19 157.92ZM1154.55 163.792C1154.55 164.624 1154.87 166.16 1157.14 166.16C1159 166.16 1159.86 165.024 1160.17 163.84H1160.49L1160.33 164.64V165.12C1160.33 165.68 1160.65 166 1161.21 166H1162.55V165.104H1161.38V161.488C1161.38 159.472 1160.18 157.92 1157.96 157.92C1155.7 157.92 1154.55 159.44 1154.55 161.008H1155.61C1155.61 159.36 1156.78 158.816 1157.96 158.816C1159.38 158.816 1160.23 159.6 1160.33 161.216L1157.03 161.52C1155.29 161.68 1154.55 162.56 1154.55 163.792ZM1155.61 163.696C1155.61 162.848 1156.14 162.512 1157.19 162.416L1160.33 162.112C1160.33 163.888 1159.13 165.264 1157.24 165.264C1156.22 165.264 1155.61 164.704 1155.61 163.696ZM1168.22 158.816C1169.61 158.816 1170.3 159.472 1170.3 161.168V166H1171.35V161.04C1171.35 158.896 1170.2 157.92 1168.46 157.92C1166.73 157.92 1165.72 158.896 1165.4 160.336H1165.08L1165.24 159.536V158.08H1164.18V166H1165.24V162.368C1165.24 160.256 1166.47 158.816 1168.22 158.816ZM1174.33 163.456L1173.14 167.872L1174.17 168.144L1175.35 163.728L1174.33 163.456ZM1184.54 156.72C1185.13 156.72 1185.63 156.224 1185.63 155.632C1185.63 155.056 1185.13 154.56 1184.54 154.56C1183.95 154.56 1183.47 155.056 1183.47 155.632C1183.47 156.224 1183.95 156.72 1184.54 156.72ZM1182.6 168.88H1183.74L1185.04 166.608C1185.24 166.24 1185.31 165.936 1185.31 165.52V158.8C1185.31 158.24 1184.99 157.856 1184.27 157.92L1182.6 158.08V158.976L1184.25 158.816V165.328C1184.25 165.744 1184.19 166.048 1183.98 166.416L1182.6 168.88ZM1188.93 154.16L1187.94 157.872L1188.96 158.144L1189.95 154.432L1188.93 154.16ZM1192.22 163.792C1192.22 164.624 1192.54 166.16 1194.82 166.16C1196.67 166.16 1197.54 165.024 1197.84 163.84H1198.16L1198 164.64V165.12C1198 165.68 1198.32 166 1198.88 166H1200.22V165.104H1199.06V161.488C1199.06 159.472 1197.86 157.92 1195.63 157.92C1193.38 157.92 1192.22 159.44 1192.22 161.008H1193.28C1193.28 159.36 1194.45 158.816 1195.63 158.816C1197.06 158.816 1197.9 159.6 1198 161.216L1194.7 161.52C1192.96 161.68 1192.22 162.56 1192.22 163.792ZM1193.28 163.696C1193.28 162.848 1193.81 162.512 1194.86 162.416L1198 162.112C1198 163.888 1196.8 165.264 1194.91 165.264C1193.89 165.264 1193.28 164.704 1193.28 163.696ZM1204.05 156.72C1204.64 156.72 1205.14 156.224 1205.14 155.632C1205.14 155.056 1204.64 154.56 1204.05 154.56C1203.46 154.56 1202.98 155.056 1202.98 155.632C1202.98 156.224 1203.46 156.72 1204.05 156.72ZM1201.54 166H1206.98V165.104H1204.75V158.8C1204.75 158.24 1204.5 157.856 1203.78 157.92L1202.18 158.08V158.976L1203.76 158.816V165.104H1201.54V166ZM1214.23 158.08V168.88H1215.29V164.704L1215.13 163.904H1215.45C1215.77 165.184 1216.89 166.16 1218.66 166.16C1220.97 166.16 1222.52 164.416 1222.52 162.048C1222.52 159.664 1220.97 157.92 1218.66 157.92C1216.89 157.92 1215.77 158.896 1215.45 160.176H1215.13L1215.29 159.376V158.08H1214.23ZM1215.29 162.048C1215.29 159.776 1216.76 158.816 1218.46 158.816C1220.15 158.816 1221.46 159.808 1221.46 162.048C1221.46 164.272 1220.15 165.264 1218.46 165.264C1216.76 165.264 1215.29 164.304 1215.29 162.048ZM1223.36 166H1228.87V165.104H1226.64V155.12C1226.64 154.4 1226.32 154 1225.6 154.08L1224 154.24V155.136L1225.59 154.976V165.104H1223.36V166ZM1233.47 165.264C1232.08 165.264 1231.39 164.608 1231.39 162.912V158.08H1230.34V163.04C1230.34 165.184 1231.49 166.16 1233.23 166.16C1234.96 166.16 1235.97 165.184 1236.29 163.744H1236.61L1236.45 164.544V166H1237.51V158.08H1236.45V161.712C1236.45 163.824 1235.22 165.264 1233.47 165.264ZM1245.81 163.968C1245.81 162.256 1244.07 161.904 1242.5 161.392C1241.22 160.976 1240.72 160.736 1240.72 159.904C1240.72 159.104 1241.49 158.816 1242.43 158.816C1243.78 158.816 1244.48 159.36 1244.48 160.528H1245.54C1245.54 159.28 1244.85 157.92 1242.43 157.92C1240.69 157.92 1239.67 158.752 1239.67 159.968C1239.67 161.344 1240.75 161.824 1242.26 162.288C1243.55 162.688 1244.75 162.88 1244.75 164.048C1244.75 164.944 1244.15 165.264 1242.8 165.264C1241.22 165.264 1240.35 164.608 1240.35 163.072H1239.3C1239.3 164.96 1240.31 166.16 1242.8 166.16C1245.11 166.16 1245.81 165.136 1245.81 163.968ZM1117.22 177.08V187.88H1118.27V183.704L1118.11 182.904H1118.43C1118.75 184.184 1119.87 185.16 1121.65 185.16C1123.95 185.16 1125.5 183.416 1125.5 181.048C1125.5 178.664 1123.95 176.92 1121.65 176.92C1119.87 176.92 1118.75 177.896 1118.43 179.176H1118.11L1118.27 178.376V177.08H1117.22ZM1118.27 181.048C1118.27 178.776 1119.74 177.816 1121.44 177.816C1123.14 177.816 1124.45 178.808 1124.45 181.048C1124.45 183.272 1123.14 184.264 1121.44 184.264C1119.74 184.264 1118.27 183.304 1118.27 181.048ZM1127.15 180.936C1127.15 183.224 1128.3 185.16 1131.08 185.16C1133.56 185.16 1134.46 183.48 1134.78 182.232H1133.72C1133.4 183.56 1132.49 184.264 1131.08 184.264C1129.02 184.264 1128.3 182.84 1128.2 181.224H1134.51V180.776C1134.51 178.328 1133.1 176.92 1130.91 176.92C1128.71 176.92 1127.15 178.376 1127.15 180.936ZM1128.2 180.328C1128.2 178.92 1129.32 177.816 1130.91 177.816C1132.54 177.816 1133.45 178.92 1133.45 180.328H1128.2ZM1139.71 184.264C1138.32 184.264 1137.63 183.608 1137.63 181.912V177.08H1136.57V182.04C1136.57 184.184 1137.72 185.16 1139.47 185.16C1141.2 185.16 1142.2 184.184 1142.52 182.744H1142.84L1142.68 183.544V185H1143.74V177.08H1142.68V180.712C1142.68 182.824 1141.45 184.264 1139.71 184.264ZM1146.01 185H1147.07V177.816L1151.29 177.976V177.08L1147.05 176.92C1146.33 176.888 1146.01 177.24 1146.01 177.96V185ZM1166.36 185V173.24H1165.3V178.376L1165.46 179.176H1165.14C1164.82 177.896 1163.68 176.92 1161.91 176.92C1159.6 176.92 1158.07 178.664 1158.07 181.032C1158.07 183.416 1159.6 185.16 1161.91 185.16C1163.68 185.16 1164.82 184.184 1165.14 182.904H1165.46L1165.3 183.704V185H1166.36ZM1165.3 181.032C1165.3 183.304 1163.83 184.264 1162.13 184.264C1160.44 184.264 1159.12 183.304 1159.12 181.032C1159.12 178.776 1160.44 177.816 1162.13 177.816C1163.83 177.816 1165.3 178.776 1165.3 181.032ZM1171.77 184.264C1170.38 184.264 1169.69 183.608 1169.69 181.912V177.08H1168.63V182.04C1168.63 184.184 1169.79 185.16 1171.53 185.16C1173.26 185.16 1174.27 184.184 1174.59 182.744H1174.91L1174.75 183.544V185H1175.8V177.08H1174.75V180.712C1174.75 182.824 1173.51 184.264 1171.77 184.264ZM1187.58 177.816C1188.97 177.816 1189.66 178.472 1189.66 180.168V185H1190.71V180.04C1190.71 177.896 1189.56 176.92 1187.82 176.92C1186.09 176.92 1185.08 177.896 1184.76 179.336H1184.44L1184.6 178.536V177.08H1183.54V185H1184.6V181.368C1184.6 179.256 1185.83 177.816 1187.58 177.816ZM1192.66 181.032C1192.66 183.256 1194.25 185.16 1196.79 185.16C1199.32 185.16 1200.9 183.256 1200.9 181.032C1200.9 178.824 1199.32 176.92 1196.79 176.92C1194.25 176.92 1192.66 178.824 1192.66 181.032ZM1193.72 181.032C1193.72 179.32 1194.77 177.816 1196.79 177.816C1198.79 177.816 1199.85 179.32 1199.85 181.032C1199.85 182.76 1198.79 184.264 1196.79 184.264C1194.77 184.264 1193.72 182.76 1193.72 181.032ZM1204.56 175.72C1205.16 175.72 1205.65 175.224 1205.65 174.632C1205.65 174.056 1205.16 173.56 1204.56 173.56C1203.97 173.56 1203.49 174.056 1203.49 174.632C1203.49 175.224 1203.97 175.72 1204.56 175.72ZM1202.05 185H1207.49V184.104H1205.27V177.8C1205.27 177.24 1205.01 176.856 1204.29 176.92L1202.69 177.08V177.976L1204.28 177.816V184.104H1202.05V185ZM1209.28 185H1210.33V177.816L1214.56 177.976V177.08L1210.32 176.92C1209.6 176.888 1209.28 177.24 1209.28 177.96V185ZM1126.8 195.92C1125.07 195.92 1124.22 196.896 1123.9 198.336H1123.71C1123.57 196.896 1122.75 195.92 1121.33 195.92C1119.6 195.92 1118.75 196.896 1118.43 198.336H1118.11L1118.27 197.536V196.08H1117.22V204H1118.27V200.368C1118.27 198.256 1119.34 196.816 1120.96 196.816C1122.32 196.816 1122.69 197.632 1122.69 199.168V204H1123.74V200.368C1123.74 198.256 1124.82 196.816 1126.43 196.816C1127.79 196.816 1128.16 197.632 1128.16 199.168V204H1129.22V198.832C1129.22 197.136 1128.38 195.92 1126.8 195.92ZM1131.16 201.792C1131.16 202.624 1131.48 204.16 1133.75 204.16C1135.61 204.16 1136.47 203.024 1136.78 201.84H1137.1L1136.94 202.64V203.12C1136.94 203.68 1137.26 204 1137.82 204H1139.16V203.104H1137.99V199.488C1137.99 197.472 1136.79 195.92 1134.57 195.92C1132.31 195.92 1131.16 197.44 1131.16 199.008H1132.22C1132.22 197.36 1133.39 196.816 1134.57 196.816C1135.99 196.816 1136.84 197.6 1136.94 199.216L1133.64 199.52C1131.9 199.68 1131.16 200.56 1131.16 201.792ZM1132.22 201.696C1132.22 200.848 1132.75 200.512 1133.8 200.416L1136.94 200.112C1136.94 201.888 1135.74 203.264 1133.85 203.264C1132.83 203.264 1132.22 202.704 1132.22 201.696ZM1142.99 194.72C1143.58 194.72 1144.07 194.224 1144.07 193.632C1144.07 193.056 1143.58 192.56 1142.99 192.56C1142.39 192.56 1141.91 193.056 1141.91 193.632C1141.91 194.224 1142.39 194.72 1142.99 194.72ZM1140.47 204H1145.91V203.104H1143.69V196.8C1143.69 196.24 1143.43 195.856 1142.71 195.92L1141.11 196.08V196.976L1142.7 196.816V203.104H1140.47V204ZM1151.73 196.816C1153.12 196.816 1153.81 197.472 1153.81 199.168V204H1154.87V199.04C1154.87 196.896 1153.72 195.92 1151.97 195.92C1150.24 195.92 1149.24 196.896 1148.92 198.336H1148.6L1148.76 197.536V196.08H1147.7V204H1148.76V200.368C1148.76 198.256 1149.99 196.816 1151.73 196.816ZM1158.95 203.28V196.976H1161.4V196.08H1158.95V193.6L1157.89 193.92V196.08H1156.18V196.976H1157.89V203.12C1157.89 203.84 1158.21 204.208 1158.93 204.16L1161.72 204V203.104L1158.95 203.28ZM1162.86 199.936C1162.86 202.224 1164.02 204.16 1166.8 204.16C1169.28 204.16 1170.18 202.48 1170.5 201.232H1169.44C1169.12 202.56 1168.21 203.264 1166.8 203.264C1164.74 203.264 1164.02 201.84 1163.92 200.224H1170.22V199.776C1170.22 197.328 1168.82 195.92 1166.62 195.92C1164.43 195.92 1162.86 197.376 1162.86 199.936ZM1163.92 199.328C1163.92 197.92 1165.04 196.816 1166.62 196.816C1168.26 196.816 1169.17 197.92 1169.17 199.328H1163.92ZM1176.48 196.816C1177.87 196.816 1178.56 197.472 1178.56 199.168V204H1179.62V199.04C1179.62 196.896 1178.47 195.92 1176.72 195.92C1174.99 195.92 1173.99 196.896 1173.67 198.336H1173.35L1173.51 197.536V196.08H1172.45V204H1173.51V200.368C1173.51 198.256 1174.74 196.816 1176.48 196.816ZM1181.57 201.792C1181.57 202.624 1181.89 204.16 1184.16 204.16C1186.02 204.16 1186.88 203.024 1187.18 201.84H1187.5L1187.34 202.64V203.12C1187.34 203.68 1187.66 204 1188.22 204H1189.57V203.104H1188.4V199.488C1188.4 197.472 1187.2 195.92 1184.98 195.92C1182.72 195.92 1181.57 197.44 1181.57 199.008H1182.62C1182.62 197.36 1183.79 196.816 1184.98 196.816C1186.4 196.816 1187.25 197.6 1187.34 199.216L1184.05 199.52C1182.3 199.68 1181.57 200.56 1181.57 201.792ZM1182.62 201.696C1182.62 200.848 1183.15 200.512 1184.21 200.416L1187.34 200.112C1187.34 201.888 1186.14 203.264 1184.26 203.264C1183.23 203.264 1182.62 202.704 1182.62 201.696ZM1195.23 196.816C1196.62 196.816 1197.31 197.472 1197.31 199.168V204H1198.37V199.04C1198.37 196.896 1197.22 195.92 1195.47 195.92C1193.74 195.92 1192.74 196.896 1192.42 198.336H1192.1L1192.26 197.536V196.08H1191.2V204H1192.26V200.368C1192.26 198.256 1193.49 196.816 1195.23 196.816ZM1202.45 203.28V196.976H1204.9V196.08H1202.45V193.6L1201.39 193.92V196.08H1199.68V196.976H1201.39V203.12C1201.39 203.84 1201.71 204.208 1202.43 204.16L1205.22 204V203.104L1202.45 203.28ZM1213.52 192.72L1213.6 200.176H1214.49L1214.57 192.72H1213.52ZM1214.03 204.16C1214.7 204.16 1215.28 203.616 1215.28 202.912C1215.28 202.224 1214.7 201.68 1214.03 201.68C1213.34 201.68 1212.8 202.224 1212.8 202.912C1212.8 203.616 1213.34 204.16 1214.03 204.16Z" fill="black"/>
</svg>
