<svg width="757" height="1050" viewBox="0 0 757 1050" fill="none" xmlns="http://www.w3.org/2000/svg">
<path fill-rule="evenodd" clip-rule="evenodd" d="M241 483C239.895 483 239 483.895 239 485V558C239 559.105 239.895 560 241 560H274.804C274.699 560.116 274.645 560.279 274.675 560.447C276.429 570.352 267.045 583.201 261.167 589.452C260.835 589.805 261.144 590.384 261.621 590.292C283.731 586.04 298.136 569.254 303.073 560.56C303.184 560.366 303.144 560.146 303.014 560H433C434.105 560 435 559.105 435 558V485C435 483.895 434.105 483 433 483H241Z" fill="#F7F7F7"/>
<path d="M256.12 509.16C259.096 509.352 259.304 507.064 259.304 503.816V498.44C259.304 497.88 258.984 497.528 258.424 497.56L255.384 497.72V498.616L258.248 498.456V503.816C258.248 507.24 257.992 508.376 256.12 508.264L253.576 508.104V509L256.12 509.16ZM261.255 504.936C261.255 507.224 262.407 509.16 265.191 509.16C267.671 509.16 268.567 507.48 268.887 506.232H267.831C267.511 507.56 266.599 508.264 265.191 508.264C263.127 508.264 262.407 506.84 262.311 505.224H268.615V504.776C268.615 502.328 267.207 500.92 265.015 500.92C262.823 500.92 261.255 502.376 261.255 504.936ZM262.311 504.328C262.311 502.92 263.431 501.816 265.015 501.816C266.647 501.816 267.559 502.92 267.559 504.328H262.311ZM276.466 501.08V511.88H277.522V507.704L277.362 506.904H277.682C278.002 508.184 279.122 509.16 280.898 509.16C283.202 509.16 284.754 507.416 284.754 505.048C284.754 502.664 283.202 500.92 280.898 500.92C279.122 500.92 278.002 501.896 277.682 503.176H277.362L277.522 502.376V501.08H276.466ZM277.522 505.048C277.522 502.776 278.994 501.816 280.69 501.816C282.386 501.816 283.698 502.808 283.698 505.048C283.698 507.272 282.386 508.264 280.69 508.264C278.994 508.264 277.522 507.304 277.522 505.048ZM286.396 504.936C286.396 507.224 287.548 509.16 290.332 509.16C292.812 509.16 293.708 507.48 294.028 506.232H292.972C292.652 507.56 291.74 508.264 290.332 508.264C288.268 508.264 287.548 506.84 287.452 505.224H293.756V504.776C293.756 502.328 292.348 500.92 290.156 500.92C287.964 500.92 286.396 502.376 286.396 504.936ZM287.452 504.328C287.452 502.92 288.572 501.816 290.156 501.816C291.788 501.816 292.7 502.92 292.7 504.328H287.452ZM300.014 501.816C301.406 501.816 302.094 502.472 302.094 504.168V509H303.15V504.04C303.15 501.896 301.998 500.92 300.254 500.92C298.526 500.92 297.518 501.896 297.198 503.336H296.878L297.038 502.536V501.08H295.982V509H297.038V505.368C297.038 503.256 298.27 501.816 300.014 501.816ZM311.451 506.968C311.451 505.256 309.707 504.904 308.139 504.392C306.859 503.976 306.363 503.736 306.363 502.904C306.363 502.104 307.131 501.816 308.075 501.816C309.419 501.816 310.123 502.36 310.123 503.528H311.179C311.179 502.28 310.491 500.92 308.075 500.92C306.331 500.92 305.307 501.752 305.307 502.968C305.307 504.344 306.395 504.824 307.899 505.288C309.195 505.688 310.395 505.88 310.395 507.048C310.395 507.944 309.787 508.264 308.443 508.264C306.859 508.264 305.995 507.608 305.995 506.072H304.939C304.939 507.96 305.947 509.16 308.443 509.16C310.747 509.16 311.451 508.136 311.451 506.968ZM312.771 506.792C312.771 507.624 313.091 509.16 315.363 509.16C317.219 509.16 318.083 508.024 318.387 506.84H318.707L318.547 507.64V508.12C318.547 508.68 318.867 509 319.427 509H320.771V508.104H319.603V504.488C319.603 502.472 318.403 500.92 316.179 500.92C313.923 500.92 312.771 502.44 312.771 504.008H313.827C313.827 502.36 314.995 501.816 316.179 501.816C317.603 501.816 318.451 502.6 318.547 504.216L315.251 504.52C313.507 504.68 312.771 505.56 312.771 506.792ZM313.827 506.696C313.827 505.848 314.355 505.512 315.411 505.416L318.547 505.112C318.547 506.888 317.347 508.264 315.459 508.264C314.435 508.264 313.827 507.704 313.827 506.696ZM324.596 499.72C325.188 499.72 325.684 499.224 325.684 498.632C325.684 498.056 325.188 497.56 324.596 497.56C324.004 497.56 323.524 498.056 323.524 498.632C323.524 499.224 324.004 499.72 324.596 499.72ZM322.084 509H327.524V508.104H325.299V501.8C325.299 501.24 325.044 500.856 324.324 500.92L322.724 501.08V501.976L324.308 501.816V508.104H322.084V509ZM335.029 506.968C335.029 505.256 333.285 504.904 331.717 504.392C330.437 503.976 329.941 503.736 329.941 502.904C329.941 502.104 330.709 501.816 331.653 501.816C332.997 501.816 333.701 502.36 333.701 503.528H334.757C334.757 502.28 334.069 500.92 331.653 500.92C329.909 500.92 328.885 501.752 328.885 502.968C328.885 504.344 329.973 504.824 331.477 505.288C332.773 505.688 333.973 505.88 333.973 507.048C333.973 507.944 333.365 508.264 332.021 508.264C330.437 508.264 329.573 507.608 329.573 506.072H328.517C328.517 507.96 329.525 509.16 332.021 509.16C334.325 509.16 335.029 508.136 335.029 506.968ZM350.262 501.08H349.206V502.376L349.366 503.176H349.046C348.726 501.896 347.606 500.92 345.83 500.92C343.526 500.92 341.974 502.664 341.974 505.048C341.974 507.416 343.526 509.16 345.83 509.16C347.606 509.16 348.726 508.184 349.046 506.904H349.366L349.206 507.704V511.88H350.262V501.08ZM349.206 505.048C349.206 507.304 347.734 508.264 346.038 508.264C344.342 508.264 343.03 507.272 343.03 505.048C343.03 502.808 344.342 501.816 346.038 501.816C347.734 501.816 349.206 502.776 349.206 505.048ZM355.676 508.264C354.284 508.264 353.596 507.608 353.596 505.912V501.08H352.54V506.04C352.54 508.184 353.692 509.16 355.436 509.16C357.164 509.16 358.172 508.184 358.492 506.744H358.812L358.652 507.544V509H359.708V501.08H358.652V504.712C358.652 506.824 357.42 508.264 355.676 508.264ZM361.662 504.936C361.662 507.224 362.814 509.16 365.598 509.16C368.078 509.16 368.974 507.48 369.294 506.232H368.238C367.918 507.56 367.006 508.264 365.598 508.264C363.534 508.264 362.814 506.84 362.718 505.224H369.022V504.776C369.022 502.328 367.614 500.92 365.422 500.92C363.23 500.92 361.662 502.376 361.662 504.936ZM362.718 504.328C362.718 502.92 363.838 501.816 365.422 501.816C367.054 501.816 367.966 502.92 367.966 504.328H362.718ZM376.392 509H381.896V508.104H379.672V498.12C379.672 497.4 379.352 497 378.632 497.08L377.032 497.24V498.136L378.616 497.976V508.104H376.392V509ZM382.88 504.936C382.88 507.224 384.032 509.16 386.816 509.16C389.296 509.16 390.192 507.48 390.512 506.232H389.456C389.136 507.56 388.224 508.264 386.816 508.264C384.752 508.264 384.032 506.84 383.936 505.224H390.24V504.776C390.24 502.328 388.832 500.92 386.64 500.92C384.448 500.92 382.88 502.376 382.88 504.936ZM383.936 504.328C383.936 502.92 385.056 501.816 386.64 501.816C388.272 501.816 389.184 502.92 389.184 504.328H383.936ZM398.498 506.968C398.498 505.256 396.754 504.904 395.186 504.392C393.906 503.976 393.41 503.736 393.41 502.904C393.41 502.104 394.178 501.816 395.122 501.816C396.466 501.816 397.17 502.36 397.17 503.528H398.226C398.226 502.28 397.538 500.92 395.122 500.92C393.378 500.92 392.354 501.752 392.354 502.968C392.354 504.344 393.442 504.824 394.946 505.288C396.242 505.688 397.442 505.88 397.442 507.048C397.442 507.944 396.834 508.264 395.49 508.264C393.906 508.264 393.042 507.608 393.042 506.072H391.986C391.986 507.96 392.994 509.16 395.49 509.16C397.794 509.16 398.498 508.136 398.498 506.968ZM253.896 524.032C253.896 526.256 255.304 528.16 257.88 528.16C259.288 528.16 261.24 527.36 261.464 525.056H260.392C260.136 526.736 259.064 527.264 257.88 527.264C255.864 527.264 254.952 525.76 254.952 524.032C254.952 522.32 255.864 520.816 257.88 520.816C259.064 520.816 260.136 521.344 260.392 523.024H261.464C261.24 520.72 259.288 519.92 257.88 519.92C255.304 519.92 253.896 521.824 253.896 524.032ZM267.847 519.92C266.119 519.92 265.111 520.896 264.791 522.336H264.471L264.631 521.536V516.24H263.575V528H264.631V524.368C264.631 522.256 265.863 520.816 267.607 520.816C268.999 520.816 269.687 521.472 269.687 523.168V528H270.743V523.04C270.743 520.896 269.591 519.92 267.847 519.92ZM272.693 525.792C272.693 526.624 273.013 528.16 275.285 528.16C277.141 528.16 278.005 527.024 278.309 525.84H278.629L278.469 526.64V527.12C278.469 527.68 278.789 528 279.349 528H280.693V527.104H279.525V523.488C279.525 521.472 278.325 519.92 276.101 519.92C273.845 519.92 272.693 521.44 272.693 523.008H273.749C273.749 521.36 274.917 520.816 276.101 520.816C277.525 520.816 278.373 521.6 278.469 523.216L275.173 523.52C273.429 523.68 272.693 524.56 272.693 525.792ZM273.749 525.696C273.749 524.848 274.277 524.512 275.333 524.416L278.469 524.112C278.469 525.888 277.269 527.264 275.381 527.264C274.357 527.264 273.749 526.704 273.749 525.696ZM283.809 527.28V520.976H286.257V520.08H283.809V517.6L282.753 517.92V520.08H281.041V520.976H282.753V527.12C282.753 527.84 283.073 528.208 283.793 528.16L286.577 528V527.104L283.809 527.28ZM294.561 525.968C294.561 524.256 292.817 523.904 291.249 523.392C289.969 522.976 289.473 522.736 289.473 521.904C289.473 521.104 290.241 520.816 291.185 520.816C292.529 520.816 293.233 521.36 293.233 522.528H294.289C294.289 521.28 293.601 519.92 291.185 519.92C289.441 519.92 288.417 520.752 288.417 521.968C288.417 523.344 289.505 523.824 291.009 524.288C292.305 524.688 293.505 524.88 293.505 526.048C293.505 526.944 292.897 527.264 291.553 527.264C289.969 527.264 289.105 526.608 289.105 525.072H288.049C288.049 526.96 289.057 528.16 291.553 528.16C293.857 528.16 294.561 527.136 294.561 525.968ZM301.825 528H302.881V520.816L307.105 520.976V520.08L302.865 519.92C302.145 519.888 301.825 520.24 301.825 520.96V528ZM307.771 523.936C307.771 526.224 308.923 528.16 311.707 528.16C314.187 528.16 315.083 526.48 315.403 525.232H314.347C314.027 526.56 313.115 527.264 311.707 527.264C309.643 527.264 308.923 525.84 308.827 524.224H315.131V523.776C315.131 521.328 313.723 519.92 311.531 519.92C309.339 519.92 307.771 521.376 307.771 523.936ZM308.827 523.328C308.827 521.92 309.947 520.816 311.531 520.816C313.163 520.816 314.075 521.92 314.075 523.328H308.827ZM318.997 527.28V520.976H321.445V520.08H318.997V517.6L317.941 517.92V520.08H316.229V520.976H317.941V527.12C317.941 527.84 318.261 528.208 318.981 528.16L321.765 528V527.104L318.997 527.28ZM322.912 524.032C322.912 526.256 324.496 528.16 327.04 528.16C329.568 528.16 331.152 526.256 331.152 524.032C331.152 521.824 329.568 519.92 327.04 519.92C324.496 519.92 322.912 521.824 322.912 524.032ZM323.968 524.032C323.968 522.32 325.024 520.816 327.04 520.816C329.04 520.816 330.096 522.32 330.096 524.032C330.096 525.76 329.04 527.264 327.04 527.264C325.024 527.264 323.968 525.76 323.968 524.032ZM342.691 519.92C340.963 519.92 340.115 520.896 339.795 522.336H339.603C339.459 520.896 338.643 519.92 337.219 519.92C335.491 519.92 334.643 520.896 334.323 522.336H334.003L334.163 521.536V520.08H333.107V528H334.163V524.368C334.163 522.256 335.235 520.816 336.851 520.816C338.211 520.816 338.579 521.632 338.579 523.168V528H339.635V524.368C339.635 522.256 340.707 520.816 342.323 520.816C343.683 520.816 344.051 521.632 344.051 523.168V528H345.107V522.832C345.107 521.136 344.275 519.92 342.691 519.92ZM347.372 528H348.428V526.704L348.268 525.904H348.588C348.908 527.184 350.044 528.16 351.82 528.16C354.124 528.16 355.66 526.416 355.66 524.032C355.66 521.664 354.124 519.92 351.82 519.92C350.044 519.92 348.908 520.896 348.588 522.176H348.268L348.428 521.376V516.24H347.372V528ZM348.428 524.032C348.428 521.776 349.9 520.816 351.596 520.816C353.292 520.816 354.604 521.776 354.604 524.032C354.604 526.304 353.292 527.264 351.596 527.264C349.9 527.264 348.428 526.304 348.428 524.032ZM357.459 525.792C357.459 526.624 357.779 528.16 360.051 528.16C361.907 528.16 362.771 527.024 363.075 525.84H363.395L363.235 526.64V527.12C363.235 527.68 363.555 528 364.115 528H365.459V527.104H364.291V523.488C364.291 521.472 363.091 519.92 360.867 519.92C358.611 519.92 357.459 521.44 357.459 523.008H358.515C358.515 521.36 359.683 520.816 360.867 520.816C362.291 520.816 363.139 521.6 363.235 523.216L359.939 523.52C358.195 523.68 357.459 524.56 357.459 525.792ZM358.515 525.696C358.515 524.848 359.043 524.512 360.099 524.416L363.235 524.112C363.235 525.888 362.035 527.264 360.147 527.264C359.123 527.264 358.515 526.704 358.515 525.696ZM369.283 518.72C369.875 518.72 370.371 518.224 370.371 517.632C370.371 517.056 369.875 516.56 369.283 516.56C368.691 516.56 368.211 517.056 368.211 517.632C368.211 518.224 368.691 518.72 369.283 518.72ZM366.771 528H372.211V527.104H369.987V520.8C369.987 520.24 369.731 519.856 369.011 519.92L367.411 520.08V520.976L368.995 520.816V527.104H366.771V528ZM373.193 523.936C373.193 526.224 374.345 528.16 377.129 528.16C379.609 528.16 380.505 526.48 380.825 525.232H379.769C379.449 526.56 378.537 527.264 377.129 527.264C375.065 527.264 374.345 525.84 374.249 524.224H380.553V523.776C380.553 521.328 379.145 519.92 376.953 519.92C374.761 519.92 373.193 521.376 373.193 523.936ZM374.249 523.328C374.249 521.92 375.369 520.816 376.953 520.816C378.585 520.816 379.497 521.92 379.497 523.328H374.249ZM386.811 520.816C388.203 520.816 388.891 521.472 388.891 523.168V528H389.947V523.04C389.947 520.896 388.795 519.92 387.051 519.92C385.323 519.92 384.315 520.896 383.995 522.336H383.674L383.835 521.536V520.08H382.779V528H383.835V524.368C383.835 522.256 385.067 520.816 386.811 520.816ZM394.028 527.28V520.976H396.476V520.08H394.028V517.6L392.972 517.92V520.08H391.26V520.976H392.972V527.12C392.972 527.84 393.292 528.208 394.012 528.16L396.796 528V527.104L394.028 527.28ZM260.248 544.968C260.248 543.256 258.504 542.904 256.936 542.392C255.656 541.976 255.16 541.736 255.16 540.904C255.16 540.104 255.928 539.816 256.872 539.816C258.216 539.816 258.92 540.36 258.92 541.528H259.976C259.976 540.28 259.288 538.92 256.872 538.92C255.128 538.92 254.104 539.752 254.104 540.968C254.104 542.344 255.192 542.824 256.696 543.288C257.992 543.688 259.192 543.88 259.192 545.048C259.192 545.944 258.584 546.264 257.24 546.264C255.656 546.264 254.792 545.608 254.792 544.072H253.736C253.736 545.96 254.744 547.16 257.24 547.16C259.544 547.16 260.248 546.136 260.248 544.968ZM265.02 546.264C263.628 546.264 262.94 545.608 262.94 543.912V539.08H261.884V544.04C261.884 546.184 263.036 547.16 264.78 547.16C266.508 547.16 267.516 546.184 267.836 544.744H268.156L267.996 545.544V547H269.052V539.08H267.996V542.712C267.996 544.824 266.764 546.264 265.02 546.264ZM271.325 547H272.381V539.816L276.605 539.976V539.08L272.365 538.92C271.645 538.888 271.325 539.24 271.325 539.96V547ZM283.22 547H288.724V546.104H286.5V536.12C286.5 535.4 286.18 535 285.46 535.08L283.86 535.24V536.136L285.444 535.976V546.104H283.22V547ZM289.709 542.936C289.709 545.224 290.861 547.16 293.645 547.16C296.125 547.16 297.021 545.48 297.341 544.232H296.285C295.965 545.56 295.053 546.264 293.645 546.264C291.581 546.264 290.861 544.84 290.765 543.224H297.069V542.776C297.069 540.328 295.661 538.92 293.469 538.92C291.277 538.92 289.709 540.376 289.709 542.936ZM290.765 542.328C290.765 540.92 291.885 539.816 293.469 539.816C295.101 539.816 296.013 540.92 296.013 542.328H290.765ZM302.27 546.264C300.878 546.264 300.19 545.608 300.19 543.912V539.08H299.134V544.04C299.134 546.184 300.286 547.16 302.03 547.16C303.758 547.16 304.766 546.184 305.086 544.744H305.406L305.246 545.544V547H306.302V539.08H305.246V542.712C305.246 544.824 304.014 546.264 302.27 546.264ZM308.575 547H309.631V539.816L313.855 539.976V539.08L309.615 538.92C308.895 538.888 308.575 539.24 308.575 539.96V547ZM321.514 544.968C321.514 543.256 319.77 542.904 318.202 542.392C316.922 541.976 316.426 541.736 316.426 540.904C316.426 540.104 317.194 539.816 318.138 539.816C319.482 539.816 320.186 540.36 320.186 541.528H321.242C321.242 540.28 320.554 538.92 318.138 538.92C316.394 538.92 315.37 539.752 315.37 540.968C315.37 542.344 316.458 542.824 317.962 543.288C319.258 543.688 320.458 543.88 320.458 545.048C320.458 545.944 319.85 546.264 318.506 546.264C316.922 546.264 316.058 545.608 316.058 544.072H315.002C315.002 545.96 316.01 547.16 318.506 547.16C320.81 547.16 321.514 546.136 321.514 544.968ZM328.779 539.08V549.88H329.835V545.704L329.674 544.904H329.995C330.315 546.184 331.435 547.16 333.211 547.16C335.515 547.16 337.067 545.416 337.067 543.048C337.067 540.664 335.515 538.92 333.211 538.92C331.435 538.92 330.315 539.896 329.995 541.176H329.674L329.835 540.376V539.08H328.779ZM329.835 543.048C329.835 540.776 331.307 539.816 333.003 539.816C334.699 539.816 336.01 540.808 336.01 543.048C336.01 545.272 334.699 546.264 333.003 546.264C331.307 546.264 329.835 545.304 329.835 543.048ZM338.865 544.792C338.865 545.624 339.185 547.16 341.457 547.16C343.313 547.16 344.177 546.024 344.481 544.84H344.801L344.641 545.64V546.12C344.641 546.68 344.961 547 345.521 547H346.865V546.104H345.697V542.488C345.697 540.472 344.497 538.92 342.273 538.92C340.017 538.92 338.865 540.44 338.865 542.008H339.921C339.921 540.36 341.089 539.816 342.273 539.816C343.697 539.816 344.545 540.6 344.641 542.216L341.345 542.52C339.601 542.68 338.865 543.56 338.865 544.792ZM339.921 544.696C339.921 543.848 340.449 543.512 341.505 543.416L344.641 543.112C344.641 544.888 343.441 546.264 341.553 546.264C340.529 546.264 339.921 545.704 339.921 544.696ZM349.981 546.28V539.976H352.429V539.08H349.981V536.6L348.925 536.92V539.08H347.213V539.976H348.925V546.12C348.925 546.84 349.245 547.208 349.965 547.16L352.749 547V546.104L349.981 546.28ZM356.512 546.28V539.976H358.96V539.08H356.512V536.6L355.456 536.92V539.08H353.744V539.976H355.456V546.12C355.456 546.84 355.776 547.208 356.496 547.16L359.28 547V546.104L356.512 546.28ZM360.427 542.936C360.427 545.224 361.579 547.16 364.363 547.16C366.843 547.16 367.739 545.48 368.059 544.232H367.003C366.683 545.56 365.771 546.264 364.363 546.264C362.299 546.264 361.579 544.84 361.483 543.224H367.787V542.776C367.787 540.328 366.379 538.92 364.187 538.92C361.995 538.92 360.427 540.376 360.427 542.936ZM361.483 542.328C361.483 540.92 362.603 539.816 364.187 539.816C365.819 539.816 366.731 540.92 366.731 542.328H361.483ZM376.045 544.968C376.045 543.256 374.301 542.904 372.733 542.392C371.453 541.976 370.957 541.736 370.957 540.904C370.957 540.104 371.725 539.816 372.669 539.816C374.013 539.816 374.717 540.36 374.717 541.528H375.773C375.773 540.28 375.085 538.92 372.669 538.92C370.925 538.92 369.901 539.752 369.901 540.968C369.901 542.344 370.989 542.824 372.493 543.288C373.789 543.688 374.989 543.88 374.989 545.048C374.989 545.944 374.381 546.264 373.037 546.264C371.453 546.264 370.589 545.608 370.589 544.072H369.533C369.533 545.96 370.541 547.16 373.037 547.16C375.341 547.16 376.045 546.136 376.045 544.968ZM384.19 535.72L384.27 543.176H385.166L385.246 535.72H384.19ZM384.702 547.16C385.374 547.16 385.95 546.616 385.95 545.912C385.95 545.224 385.374 544.68 384.702 544.68C384.014 544.68 383.47 545.224 383.47 545.912C383.47 546.616 384.014 547.16 384.702 547.16Z" fill="black"/>
<path fill-rule="evenodd" clip-rule="evenodd" d="M428.991 348.138C460.415 343.486 483 330.63 483 315.5C483 296.446 447.183 281 403 281C358.817 281 323 296.446 323 315.5C323 334.554 358.817 350 403 350C405.77 350 408.506 349.939 411.204 349.821C407.781 362.012 411.044 378.5 429.009 378.5C446.65 378.5 457.509 381 464.009 392.5C458.948 379.216 451.687 377.736 442.731 375.911C437.529 374.851 431.755 373.674 425.509 370C416.827 364.893 421.742 355.915 428.991 348.138Z" fill="#F7F7F7"/>
<path d="M346.056 304.352C346.056 307.648 347.96 310.16 351.224 310.16C354.472 310.16 356.376 307.648 356.376 304.352C356.376 301.072 354.472 298.56 351.224 298.56C347.96 298.56 346.056 301.072 346.056 304.352ZM347.112 304.352C347.112 301.552 348.456 299.456 351.224 299.456C353.992 299.456 355.32 301.552 355.32 304.352C355.32 307.168 353.992 309.264 351.224 309.264C348.456 309.264 347.112 307.168 347.112 304.352ZM361.473 309.264C360.081 309.264 359.393 308.608 359.393 306.912V302.08H358.337V307.04C358.337 309.184 359.489 310.16 361.233 310.16C362.961 310.16 363.969 309.184 364.289 307.744H364.609L364.449 308.544V310H365.505V302.08H364.449V305.712C364.449 307.824 363.217 309.264 361.473 309.264ZM370.755 309.264C369.363 309.264 368.674 308.608 368.674 306.912V302.08H367.618V307.04C367.618 309.184 368.771 310.16 370.515 310.16C372.243 310.16 373.251 309.184 373.571 307.744H373.891L373.731 308.544V310H374.786V302.08H373.731V305.712C373.731 307.824 372.499 309.264 370.755 309.264ZM380.036 309.264C378.644 309.264 377.956 308.608 377.956 306.912V302.08H376.9V307.04C376.9 309.184 378.052 310.16 379.796 310.16C381.524 310.16 382.532 309.184 382.852 307.744H383.172L383.012 308.544V310H384.068V302.08H383.012V305.712C383.012 307.824 381.78 309.264 380.036 309.264ZM401.394 301.92C399.666 301.92 398.818 302.896 398.498 304.336H398.306C398.162 302.896 397.346 301.92 395.922 301.92C394.194 301.92 393.346 302.896 393.026 304.336H392.706L392.866 303.536V302.08H391.81V310H392.866V306.368C392.866 304.256 393.938 302.816 395.554 302.816C396.914 302.816 397.282 303.632 397.282 305.168V310H398.338V306.368C398.338 304.256 399.41 302.816 401.026 302.816C402.386 302.816 402.754 303.632 402.754 305.168V310H403.81V304.832C403.81 303.136 402.978 301.92 401.394 301.92ZM408.111 300.72C408.703 300.72 409.199 300.224 409.199 299.632C409.199 299.056 408.703 298.56 408.111 298.56C407.519 298.56 407.039 299.056 407.039 299.632C407.039 300.224 407.519 300.72 408.111 300.72ZM405.599 310H411.039V309.104H408.815V302.8C408.815 302.24 408.559 301.856 407.839 301.92L406.239 302.08V302.976L407.823 302.816V309.104H405.599V310ZM416.857 302.816C418.249 302.816 418.937 303.472 418.937 305.168V310H419.993V305.04C419.993 302.896 418.841 301.92 417.097 301.92C415.369 301.92 414.361 302.896 414.041 304.336H413.721L413.881 303.536V302.08H412.825V310H413.881V306.368C413.881 304.256 415.113 302.816 416.857 302.816ZM421.943 306.032C421.943 308.256 423.527 310.16 426.071 310.16C428.599 310.16 430.183 308.256 430.183 306.032C430.183 303.824 428.599 301.92 426.071 301.92C423.527 301.92 421.943 303.824 421.943 306.032ZM422.999 306.032C422.999 304.32 424.055 302.816 426.071 302.816C428.071 302.816 429.127 304.32 429.127 306.032C429.127 307.76 428.071 309.264 426.071 309.264C424.055 309.264 422.999 307.76 422.999 306.032ZM435.114 309.264C433.722 309.264 433.034 308.608 433.034 306.912V302.08H431.978V307.04C431.978 309.184 433.13 310.16 434.874 310.16C436.602 310.16 437.61 309.184 437.93 307.744H438.25L438.09 308.544V310H439.146V302.08H438.09V305.712C438.09 307.824 436.858 309.264 435.114 309.264ZM442.123 307.456L440.939 311.872L441.963 312.144L443.147 307.728L442.123 307.456ZM348.184 328.28V321.976H350.632V321.08H348.184V318.6L347.128 318.92V321.08H345.416V321.976H347.128V328.12C347.128 328.84 347.448 329.208 348.168 329.16L350.952 329V328.104L348.184 328.28ZM353.743 317.16L352.751 320.872L353.775 321.144L354.767 317.432L353.743 317.16ZM355.599 324.936C355.599 327.224 356.751 329.16 359.535 329.16C362.015 329.16 362.911 327.48 363.231 326.232H362.175C361.855 327.56 360.943 328.264 359.535 328.264C357.471 328.264 356.751 326.84 356.655 325.224H362.959V324.776C362.959 322.328 361.551 320.92 359.359 320.92C357.167 320.92 355.599 322.376 355.599 324.936ZM356.655 324.328C356.655 322.92 357.775 321.816 359.359 321.816C360.991 321.816 361.903 322.92 361.903 324.328H356.655ZM371.217 326.968C371.217 325.256 369.473 324.904 367.905 324.392C366.625 323.976 366.129 323.736 366.129 322.904C366.129 322.104 366.897 321.816 367.841 321.816C369.185 321.816 369.889 322.36 369.889 323.528H370.945C370.945 322.28 370.257 320.92 367.841 320.92C366.097 320.92 365.073 321.752 365.073 322.968C365.073 324.344 366.161 324.824 367.665 325.288C368.961 325.688 370.161 325.88 370.161 327.048C370.161 327.944 369.553 328.264 368.209 328.264C366.625 328.264 365.761 327.608 365.761 326.072H364.705C364.705 327.96 365.713 329.16 368.209 329.16C370.513 329.16 371.217 328.136 371.217 326.968ZM378.482 321.08V331.88H379.538V327.704L379.378 326.904H379.698C380.018 328.184 381.138 329.16 382.914 329.16C385.218 329.16 386.77 327.416 386.77 325.048C386.77 322.664 385.218 320.92 382.914 320.92C381.138 320.92 380.018 321.896 379.698 323.176H379.378L379.538 322.376V321.08H378.482ZM379.538 325.048C379.538 322.776 381.01 321.816 382.706 321.816C384.402 321.816 385.714 322.808 385.714 325.048C385.714 327.272 384.402 328.264 382.706 328.264C381.01 328.264 379.538 327.304 379.538 325.048ZM388.568 326.792C388.568 327.624 388.888 329.16 391.16 329.16C393.016 329.16 393.88 328.024 394.184 326.84H394.504L394.344 327.64V328.12C394.344 328.68 394.664 329 395.224 329H396.568V328.104H395.4V324.488C395.4 322.472 394.2 320.92 391.976 320.92C389.72 320.92 388.568 322.44 388.568 324.008H389.624C389.624 322.36 390.792 321.816 391.976 321.816C393.4 321.816 394.248 322.6 394.344 324.216L391.048 324.52C389.304 324.68 388.568 325.56 388.568 326.792ZM389.624 326.696C389.624 325.848 390.152 325.512 391.208 325.416L394.344 325.112C394.344 326.888 393.144 328.264 391.256 328.264C390.232 328.264 389.624 327.704 389.624 326.696ZM404.076 326.968C404.076 325.256 402.332 324.904 400.764 324.392C399.484 323.976 398.988 323.736 398.988 322.904C398.988 322.104 399.756 321.816 400.7 321.816C402.044 321.816 402.748 322.36 402.748 323.528H403.804C403.804 322.28 403.116 320.92 400.7 320.92C398.956 320.92 397.932 321.752 397.932 322.968C397.932 324.344 399.02 324.824 400.524 325.288C401.82 325.688 403.02 325.88 403.02 327.048C403.02 327.944 402.412 328.264 401.068 328.264C399.484 328.264 398.62 327.608 398.62 326.072H397.564C397.564 327.96 398.572 329.16 401.068 329.16C403.372 329.16 404.076 328.136 404.076 326.968ZM411.341 329H412.397V327.704L412.237 326.904H412.557C412.877 328.184 414.013 329.16 415.789 329.16C418.093 329.16 419.629 327.416 419.629 325.032C419.629 322.664 418.093 320.92 415.789 320.92C414.013 320.92 412.877 321.896 412.557 323.176H412.237L412.397 322.376V317.24H411.341V329ZM412.397 325.032C412.397 322.776 413.869 321.816 415.565 321.816C417.261 321.816 418.573 322.776 418.573 325.032C418.573 327.304 417.261 328.264 415.565 328.264C413.869 328.264 412.397 327.304 412.397 325.032ZM423.299 319.72C423.891 319.72 424.387 319.224 424.387 318.632C424.387 318.056 423.891 317.56 423.299 317.56C422.707 317.56 422.227 318.056 422.227 318.632C422.227 319.224 422.707 319.72 423.299 319.72ZM420.787 329H426.227V328.104H424.003V321.8C424.003 321.24 423.747 320.856 423.027 320.92L421.427 321.08V321.976L423.011 321.816V328.104H420.787V329ZM427.209 324.936C427.209 327.224 428.361 329.16 431.145 329.16C433.625 329.16 434.521 327.48 434.841 326.232H433.785C433.465 327.56 432.553 328.264 431.145 328.264C429.081 328.264 428.361 326.84 428.265 325.224H434.569V324.776C434.569 322.328 433.161 320.92 430.969 320.92C428.777 320.92 427.209 322.376 427.209 324.936ZM428.265 324.328C428.265 322.92 429.385 321.816 430.969 321.816C432.601 321.816 433.513 322.92 433.513 324.328H428.265ZM440.826 321.816C442.218 321.816 442.906 322.472 442.906 324.168V329H443.962V324.04C443.962 321.896 442.81 320.92 441.066 320.92C439.338 320.92 438.33 321.896 438.01 323.336H437.69L437.85 322.536V321.08H436.794V329H437.85V325.368C437.85 323.256 439.082 321.816 440.826 321.816ZM452.58 317.72L452.66 325.176H453.556L453.636 317.72H452.58ZM453.092 329.16C453.764 329.16 454.34 328.616 454.34 327.912C454.34 327.224 453.764 326.68 453.092 326.68C452.404 326.68 451.86 327.224 451.86 327.912C451.86 328.616 452.404 329.16 453.092 329.16Z" fill="black"/>
</svg>
