<svg width="757" height="1050" viewBox="0 0 757 1050" fill="none" xmlns="http://www.w3.org/2000/svg">
<path fill-rule="evenodd" clip-rule="evenodd" d="M181 525C177.686 525 175 527.686 175 531V576C175 579.314 177.686 582 181 582H291.808C301.143 590.525 310.482 602.334 300 608.5C293.754 612.174 287.98 613.351 282.778 614.411C273.822 616.236 266.561 617.716 261.5 631C268 619.5 278.859 617 296.5 617C317.865 617 318.437 593.677 311.697 582H333C336.314 582 339 579.314 339 576V531C339 527.686 336.314 525 333 525H181Z" fill="#F7F7F7"/>
<path d="M195.224 548.264C192.456 548.264 191.112 546.168 191.112 543.352C191.112 540.552 192.456 538.456 195.224 538.456C197.56 538.456 198.92 539.784 199.176 542.072H200.232C199.896 539.288 198.056 537.56 195.224 537.56C191.96 537.56 190.056 540.072 190.056 543.352C190.056 546.392 191.688 548.776 194.504 549.112L193.864 549.816L194.376 550.568C194.936 550.184 195.176 550.12 195.464 550.12C195.688 550.12 195.832 550.232 195.832 550.456C195.832 550.984 195 550.984 193.608 550.984V551.88C195.56 551.88 196.728 551.72 196.728 550.552C196.728 549.944 196.264 549.672 195.752 549.672C195.352 549.672 195.048 549.768 194.776 549.896L195.528 549.16C198.184 549.032 199.912 547.336 200.232 544.632H199.176C198.92 546.92 197.56 548.264 195.224 548.264ZM201.865 546.792C201.865 547.624 202.185 549.16 204.457 549.16C206.313 549.16 207.177 548.024 207.481 546.84H207.801L207.641 547.64V548.12C207.641 548.68 207.961 549 208.521 549H209.865V548.104H208.697V544.488C208.697 542.472 207.497 540.92 205.273 540.92C203.017 540.92 201.865 542.44 201.865 544.008H202.921C202.921 542.36 204.089 541.816 205.273 541.816C206.697 541.816 207.545 542.6 207.641 544.216L204.345 544.52C202.601 544.68 201.865 545.56 201.865 546.792ZM202.921 546.696C202.921 545.848 203.449 545.512 204.505 545.416L207.641 545.112C207.641 546.888 206.441 548.264 204.553 548.264C203.529 548.264 202.921 547.704 202.921 546.696ZM226.55 540.92C224.822 540.92 223.974 541.896 223.654 543.336H223.462C223.318 541.896 222.502 540.92 221.078 540.92C219.35 540.92 218.502 541.896 218.182 543.336H217.862L218.022 542.536V541.08H216.966V549H218.022V545.368C218.022 543.256 219.094 541.816 220.71 541.816C222.07 541.816 222.438 542.632 222.438 544.168V549H223.494V545.368C223.494 543.256 224.566 541.816 226.182 541.816C227.542 541.816 227.91 542.632 227.91 544.168V549H228.966V543.832C228.966 542.136 228.134 540.92 226.55 540.92ZM230.912 544.936C230.912 547.224 232.064 549.16 234.848 549.16C237.328 549.16 238.224 547.48 238.544 546.232H237.488C237.168 547.56 236.256 548.264 234.848 548.264C232.784 548.264 232.064 546.84 231.968 545.224H238.272V544.776C238.272 542.328 236.864 540.92 234.672 540.92C232.48 540.92 230.912 542.376 230.912 544.936ZM231.968 544.328C231.968 542.92 233.088 541.816 234.672 541.816C236.304 541.816 237.216 542.92 237.216 544.328H231.968ZM254.09 549V537.24H253.034V542.376L253.194 543.176H252.874C252.554 541.896 251.418 540.92 249.642 540.92C247.338 540.92 245.802 542.664 245.802 545.032C245.802 547.416 247.338 549.16 249.642 549.16C251.418 549.16 252.554 548.184 252.874 546.904H253.194L253.034 547.704V549H254.09ZM253.034 545.032C253.034 547.304 251.562 548.264 249.866 548.264C248.17 548.264 246.858 547.304 246.858 545.032C246.858 542.776 248.17 541.816 249.866 541.816C251.562 541.816 253.034 542.776 253.034 545.032ZM257.601 538.824L257.825 539.688L262.465 538.44L262.241 537.576L257.601 538.824ZM256.209 544.936C256.209 547.224 257.361 549.16 260.145 549.16C262.625 549.16 263.521 547.48 263.841 546.232H262.785C262.465 547.56 261.553 548.264 260.145 548.264C258.081 548.264 257.361 546.84 257.265 545.224H263.569V544.776C263.569 542.328 262.161 540.92 259.969 540.92C257.777 540.92 256.209 542.376 256.209 544.936ZM257.265 544.328C257.265 542.92 258.385 541.816 259.969 541.816C261.601 541.816 262.513 542.92 262.513 544.328H257.265ZM275.378 540.92C273.65 540.92 272.802 541.896 272.482 543.336H272.29C272.146 541.896 271.33 540.92 269.906 540.92C268.178 540.92 267.33 541.896 267.01 543.336H266.69L266.85 542.536V541.08H265.794V549H266.85V545.368C266.85 543.256 267.922 541.816 269.538 541.816C270.898 541.816 271.266 542.632 271.266 544.168V549H272.322V545.368C272.322 543.256 273.394 541.816 275.01 541.816C276.37 541.816 276.738 542.632 276.738 544.168V549H277.794V543.832C277.794 542.136 276.962 540.92 275.378 540.92ZM279.74 546.792C279.74 547.624 280.06 549.16 282.332 549.16C284.188 549.16 285.052 548.024 285.356 546.84H285.676L285.516 547.64V548.12C285.516 548.68 285.836 549 286.396 549H287.74V548.104H286.572V544.488C286.572 542.472 285.372 540.92 283.148 540.92C280.892 540.92 279.74 542.44 279.74 544.008H280.796C280.796 542.36 281.964 541.816 283.148 541.816C284.572 541.816 285.42 542.6 285.516 544.216L282.22 544.52C280.476 544.68 279.74 545.56 279.74 546.792ZM280.796 546.696C280.796 545.848 281.324 545.512 282.38 545.416L285.516 545.112C285.516 546.888 284.316 548.264 282.428 548.264C281.404 548.264 280.796 547.704 280.796 546.696ZM293.404 541.816C294.796 541.816 295.484 542.472 295.484 544.168V549H296.54V544.04C296.54 541.896 295.388 540.92 293.644 540.92C291.916 540.92 290.908 541.896 290.588 543.336H290.268L290.428 542.536V541.08H289.372V549H290.428V545.368C290.428 543.256 291.66 541.816 293.404 541.816ZM306.734 541.08C306.014 541.08 305.822 541.16 304.91 541.656C304.174 541.16 303.214 540.92 302.302 540.92C300.078 540.92 298.334 541.944 298.334 544.152C298.334 546.568 300.382 547.48 302.862 546.904V547.224C301.678 547.608 300.51 548.008 299.326 548.392L299.598 549.192C301.47 548.568 305.102 547.656 305.102 549.544C305.102 550.856 303.342 550.984 298.91 550.984V551.88C304.11 551.88 306.158 551.608 306.158 549.544C306.158 547.768 304.35 547.576 302.494 547.912C304.926 547.016 306.253 545.912 306.253 544.152C306.253 543.416 306.03 542.808 305.646 542.328C305.966 542.088 306.253 541.976 306.734 541.976H307.438V541.08H306.734ZM302.302 546.504C300.606 546.504 299.39 545.88 299.39 544.152C299.39 542.44 300.606 541.816 302.302 541.816C303.998 541.816 305.198 542.44 305.198 544.152C305.198 545.88 303.998 546.504 302.302 546.504ZM308.443 544.936C308.443 547.224 309.595 549.16 312.379 549.16C314.859 549.16 315.755 547.48 316.075 546.232H315.019C314.699 547.56 313.787 548.264 312.379 548.264C310.315 548.264 309.595 546.84 309.499 545.224H315.803V544.776C315.803 542.328 314.395 540.92 312.203 540.92C310.011 540.92 308.443 542.376 308.443 544.936ZM309.499 544.328C309.499 542.92 310.619 541.816 312.203 541.816C313.835 541.816 314.747 542.92 314.747 544.328H309.499ZM198.184 568V556.24H197.128V561.376L197.288 562.176H196.968C196.648 560.896 195.512 559.92 193.736 559.92C191.432 559.92 189.896 561.664 189.896 564.032C189.896 566.416 191.432 568.16 193.736 568.16C195.512 568.16 196.648 567.184 196.968 565.904H197.288L197.128 566.704V568H198.184ZM197.128 564.032C197.128 566.304 195.656 567.264 193.96 567.264C192.264 567.264 190.952 566.304 190.952 564.032C190.952 561.776 192.264 560.816 193.96 560.816C195.656 560.816 197.128 561.776 197.128 564.032ZM200.302 563.936C200.302 566.224 201.454 568.16 204.238 568.16C206.718 568.16 207.614 566.48 207.934 565.232H206.878C206.558 566.56 205.646 567.264 204.238 567.264C202.174 567.264 201.454 565.84 201.358 564.224H207.662V563.776C207.662 561.328 206.254 559.92 204.062 559.92C201.87 559.92 200.302 561.376 200.302 563.936ZM201.358 563.328C201.358 561.92 202.478 560.816 204.062 560.816C205.694 560.816 206.606 561.92 206.606 563.328H201.358ZM215.513 560.08V570.88H216.569V566.704L216.409 565.904H216.729C217.049 567.184 218.169 568.16 219.945 568.16C222.249 568.16 223.801 566.416 223.801 564.048C223.801 561.664 222.249 559.92 219.945 559.92C218.169 559.92 217.049 560.896 216.729 562.176H216.409L216.569 561.376V560.08H215.513ZM216.569 564.048C216.569 561.776 218.041 560.816 219.737 560.816C221.433 560.816 222.745 561.808 222.745 564.048C222.745 566.272 221.433 567.264 219.737 567.264C218.041 567.264 216.569 566.304 216.569 564.048ZM225.599 565.792C225.599 566.624 225.919 568.16 228.191 568.16C230.047 568.16 230.911 567.024 231.215 565.84H231.535L231.375 566.64V567.12C231.375 567.68 231.695 568 232.255 568H233.599V567.104H232.431V563.488C232.431 561.472 231.231 559.92 229.007 559.92C226.751 559.92 225.599 561.44 225.599 563.008H226.655C226.655 561.36 227.823 560.816 229.007 560.816C230.431 560.816 231.279 561.6 231.375 563.216L228.079 563.52C226.335 563.68 225.599 564.56 225.599 565.792ZM226.655 565.696C226.655 564.848 227.183 564.512 228.239 564.416L231.375 564.112C231.375 565.888 230.175 567.264 228.287 567.264C227.263 567.264 226.655 566.704 226.655 565.696ZM235.232 568H236.288V560.816L240.512 560.976V560.08L236.272 559.92C235.552 559.888 235.232 560.24 235.232 560.96V568ZM244.262 567.28V560.976H246.71V560.08H244.262V557.6L243.206 557.92V560.08H241.494V560.976H243.206V567.12C243.206 567.84 243.526 568.208 244.246 568.16L247.03 568V567.104L244.262 567.28ZM248.177 564.032C248.177 566.256 249.761 568.16 252.305 568.16C254.833 568.16 256.417 566.256 256.417 564.032C256.417 561.824 254.833 559.92 252.305 559.92C249.761 559.92 248.177 561.824 248.177 564.032ZM249.233 564.032C249.233 562.32 250.289 560.816 252.305 560.816C254.305 560.816 255.361 562.32 255.361 564.032C255.361 565.76 254.305 567.264 252.305 567.264C250.289 567.264 249.233 565.76 249.233 564.032ZM261.348 567.264C259.956 567.264 259.268 566.608 259.268 564.912V560.08H258.212V565.04C258.212 567.184 259.364 568.16 261.108 568.16C262.836 568.16 263.844 567.184 264.164 565.744H264.484L264.324 566.544V568H265.38V560.08H264.324V563.712C264.324 565.824 263.092 567.264 261.348 567.264ZM269.622 567.28V560.976H272.07V560.08H269.622V557.6L268.566 557.92V560.08H266.854V560.976H268.566V567.12C268.566 567.84 268.886 568.208 269.606 568.16L272.39 568V567.104L269.622 567.28ZM280.69 556.72L280.77 564.176H281.666L281.746 556.72H280.69ZM281.202 568.16C281.874 568.16 282.45 567.616 282.45 566.912C282.45 566.224 281.874 565.68 281.202 565.68C280.514 565.68 279.97 566.224 279.97 566.912C279.97 567.616 280.514 568.16 281.202 568.16Z" fill="black"/>
<path fill-rule="evenodd" clip-rule="evenodd" d="M419.991 273.138C451.415 268.486 474 255.63 474 240.5C474 221.446 438.183 206 394 206C349.817 206 314 221.446 314 240.5C314 259.554 349.817 275 394 275C396.77 275 399.506 274.939 402.204 274.821C398.781 287.012 402.044 303.5 420.009 303.5C437.65 303.5 448.509 306 455.009 317.5C449.948 304.216 442.687 302.736 433.731 300.911C428.529 299.851 422.755 298.674 416.509 295C407.827 289.893 412.742 280.915 419.991 273.138Z" fill="#F7F7F7"/>
<path d="M351.613 236.72H350.093L344.045 241.68V236.72H342.989V248H344.045V243.04L350.093 248H351.613L344.717 242.352L351.613 236.72ZM352.138 244.032C352.138 246.256 353.722 248.16 356.266 248.16C358.794 248.16 360.378 246.256 360.378 244.032C360.378 241.824 358.794 239.92 356.266 239.92C353.722 239.92 352.138 241.824 352.138 244.032ZM353.194 244.032C353.194 242.32 354.25 240.816 356.266 240.816C358.266 240.816 359.322 242.32 359.322 244.032C359.322 245.76 358.266 247.264 356.266 247.264C354.25 247.264 353.194 245.76 353.194 244.032ZM365.921 237.136H367.297V236.24H365.921C364.177 236.24 363.489 237.216 363.489 238.672V240.08H361.697V240.976H363.489V247.104H361.697V248H366.849V247.104H364.545V240.976H366.849V240.08H364.545V238.688C364.545 237.632 364.849 237.136 365.921 237.136ZM369.807 236.72L369.887 244.176H370.783L370.863 236.72H369.807ZM370.319 248.16C370.991 248.16 371.567 247.616 371.567 246.912C371.567 246.224 370.991 245.68 370.319 245.68C369.631 245.68 369.087 246.224 369.087 246.912C369.087 247.616 369.631 248.16 370.319 248.16ZM388.254 236.72H386.734L380.686 241.68V236.72H379.63V248H380.686V243.04L386.734 248H388.254L381.358 242.352L388.254 236.72ZM388.779 244.032C388.779 246.256 390.363 248.16 392.907 248.16C395.435 248.16 397.019 246.256 397.019 244.032C397.019 241.824 395.435 239.92 392.907 239.92C390.363 239.92 388.779 241.824 388.779 244.032ZM389.835 244.032C389.835 242.32 390.891 240.816 392.907 240.816C394.907 240.816 395.963 242.32 395.963 244.032C395.963 245.76 394.907 247.264 392.907 247.264C390.891 247.264 389.835 245.76 389.835 244.032ZM402.562 237.136H403.938V236.24H402.562C400.818 236.24 400.13 237.216 400.13 238.672V240.08H398.338V240.976H400.13V247.104H398.338V248H403.49V247.104H401.186V240.976H403.49V240.08H401.186V238.688C401.186 237.632 401.49 237.136 402.562 237.136ZM406.448 236.72L406.528 244.176H407.424L407.504 236.72H406.448ZM406.96 248.16C407.632 248.16 408.208 247.616 408.208 246.912C408.208 246.224 407.632 245.68 406.96 245.68C406.272 245.68 405.728 246.224 405.728 246.912C405.728 247.616 406.272 248.16 406.96 248.16ZM424.895 236.72H423.375L417.327 241.68V236.72H416.271V248H417.327V243.04L423.375 248H424.895L417.999 242.352L424.895 236.72ZM425.419 244.032C425.419 246.256 427.003 248.16 429.547 248.16C432.075 248.16 433.659 246.256 433.659 244.032C433.659 241.824 432.075 239.92 429.547 239.92C427.003 239.92 425.419 241.824 425.419 244.032ZM426.475 244.032C426.475 242.32 427.531 240.816 429.547 240.816C431.547 240.816 432.603 242.32 432.603 244.032C432.603 245.76 431.547 247.264 429.547 247.264C427.531 247.264 426.475 245.76 426.475 244.032ZM439.202 237.136H440.578V236.24H439.202C437.458 236.24 436.77 237.216 436.77 238.672V240.08H434.978V240.976H436.77V247.104H434.978V248H440.13V247.104H437.826V240.976H440.13V240.08H437.826V238.688C437.826 237.632 438.13 237.136 439.202 237.136ZM443.088 236.72L443.168 244.176H444.064L444.144 236.72H443.088ZM443.6 248.16C444.272 248.16 444.848 247.616 444.848 246.912C444.848 246.224 444.272 245.68 443.6 245.68C442.912 245.68 442.368 246.224 442.368 246.912C442.368 247.616 442.912 248.16 443.6 248.16Z" fill="black"/>
</svg>
