<svg width="196" height="417" viewBox="0 0 196 417" fill="none" xmlns="http://www.w3.org/2000/svg">
<path d="M52 0.5H145.086C145.569 0.5 145.771 1.11622 145.383 1.40253L120.498 19.7384C119.091 20.775 118.261 22.4186 118.261 24.1662V249.12C118.261 268.66 102.421 284.5 82.8804 284.5C63.3404 284.5 47.5 268.66 47.5 249.12V5C47.5 2.51472 49.5147 0.5 52 0.5Z" fill="white" stroke="black"/>
<path fill-rule="evenodd" clip-rule="evenodd" d="M60.7288 86.5516C65.6522 80.4908 68.8668 80.9194 74.6301 81.6879C75.3263 81.7807 76.0598 81.8785 76.8379 81.9704C82.7296 82.6663 85.0381 81.2299 87.2183 79.8732C88.9337 78.8058 90.5697 77.7878 93.809 77.8967C100.05 78.1065 105.404 84.5896 106.885 86.5516H107.387V244.131C107.387 257.21 96.784 267.813 83.705 267.813C70.626 267.813 60.0234 257.21 60.0234 244.131V86.5516H60.7288Z" fill="url(#paint0_linear_562_983)"/>
<path d="M60.7288 86.5516V87.0516H60.9668L61.1168 86.8668L60.7288 86.5516ZM74.6301 81.6879L74.564 82.1835L74.564 82.1835L74.6301 81.6879ZM76.8379 81.9704L76.7793 82.467L76.7793 82.467L76.8379 81.9704ZM87.2183 79.8732L87.4825 80.2977L87.4825 80.2977L87.2183 79.8732ZM93.809 77.8967L93.7922 78.3964L93.7922 78.3964L93.809 77.8967ZM106.885 86.5516L106.485 86.8528L106.636 87.0516H106.885V86.5516ZM107.387 86.5516H107.887V86.0516H107.387V86.5516ZM60.0234 86.5516V86.0516H59.5234V86.5516H60.0234ZM61.1168 86.8668C63.5428 83.8805 65.4934 82.5601 67.4899 82.0428C69.5163 81.5177 71.6563 81.7958 74.564 82.1835L74.6962 81.1923C71.8406 80.8115 69.4916 80.4911 67.2391 81.0748C64.9566 81.6662 62.8382 83.1619 60.3407 86.2363L61.1168 86.8668ZM74.564 82.1835C75.2599 82.2763 75.9969 82.3746 76.7793 82.467L76.8966 81.4739C76.1227 81.3825 75.3928 81.2852 74.6962 81.1923L74.564 82.1835ZM76.7793 82.467C79.7731 82.8206 81.8909 82.6364 83.5541 82.1732C85.2163 81.7103 86.3924 80.9761 87.4825 80.2977L86.9542 79.4487C85.8641 80.127 84.7958 80.7893 83.2858 81.2099C81.7767 81.6301 79.7945 81.8162 76.8966 81.4739L76.7793 82.467ZM87.4825 80.2977C88.3446 79.7613 89.1408 79.2677 90.1132 78.9137C91.0773 78.5628 92.2319 78.344 93.7922 78.3964L93.8258 77.397C92.1468 77.3405 90.8638 77.5763 89.7712 77.974C88.687 78.3686 87.8075 78.9177 86.9542 79.4487L87.4825 80.2977ZM93.7922 78.3964C96.751 78.4959 99.5445 80.089 101.814 81.9534C104.076 83.8107 105.757 85.8877 106.485 86.8528L107.284 86.2504C106.531 85.2534 104.795 83.1079 102.449 81.1807C100.112 79.2606 97.1077 77.5073 93.8258 77.397L93.7922 78.3964ZM106.885 87.0516H107.387V86.0516H106.885V87.0516ZM106.887 86.5516V244.131H107.887V86.5516H106.887ZM106.887 244.131C106.887 256.934 96.5078 267.313 83.705 267.313V268.313C97.0601 268.313 107.887 257.486 107.887 244.131H106.887ZM83.705 267.313C70.9022 267.313 60.5234 256.934 60.5234 244.131H59.5234C59.5234 257.487 70.3499 268.313 83.705 268.313V267.313ZM60.5234 244.131V86.5516H59.5234V244.131H60.5234ZM60.0234 87.0516H60.7288V86.0516H60.0234V87.0516Z" fill="black"/>
<rect x="11" y="320" width="173" height="44" fill="black"/>
<path d="M40.7837 352V349.088H32.5157V344.2H40.0037V341.366H32.5157V336.478H40.7837V333.566H29.3957V352H40.7837ZM48.0707 344.694C48.0707 343.03 48.9807 341.704 50.6967 341.704C52.5947 341.704 53.2967 342.952 53.2967 344.512V352H56.3127V343.992C56.3127 341.21 54.8307 338.974 51.7367 338.974C50.3327 338.974 48.8247 339.572 47.9927 341.028V339.338H45.0547V352H48.0707V344.694ZM60.1143 352.702C60.4523 355.25 62.7923 357.33 66.1463 357.33C70.9043 357.33 72.6463 354.184 72.6463 350.804V339.338H69.7343V340.95C69.1883 339.91 67.9663 339.104 65.9903 339.104C62.5063 339.104 60.1403 341.886 60.1403 345.266C60.1403 348.828 62.6103 351.428 65.9903 351.428C67.8363 351.428 69.1103 350.57 69.6563 349.582V350.908C69.6563 353.482 68.4603 354.704 66.0683 354.704C64.3263 354.704 63.1043 353.534 62.8963 351.974L60.1143 352.702ZM66.4843 348.854C64.5083 348.854 63.1823 347.476 63.1823 345.266C63.1823 343.108 64.5603 341.704 66.4843 341.704C68.3563 341.704 69.7343 343.108 69.7343 345.266C69.7343 347.45 68.4083 348.854 66.4843 348.854ZM84.7849 339.26C84.6549 339.234 84.3429 339.182 83.9789 339.182C82.3149 339.182 80.9109 339.988 80.3129 341.366V339.338H77.3749V352H80.3909V345.968C80.3909 343.602 81.4569 342.25 83.7969 342.25C84.1089 342.25 84.4469 342.276 84.7849 342.328V339.26ZM87.588 348.568C87.588 350.57 89.226 352.39 91.878 352.39C93.932 352.39 95.18 351.35 95.778 350.388C95.778 351.402 95.882 351.922 95.908 352H98.716C98.69 351.87 98.56 351.116 98.56 349.972V343.68C98.56 341.158 97.078 338.948 93.178 338.948C90.058 338.948 88.082 340.898 87.848 343.082L90.604 343.706C90.734 342.432 91.618 341.418 93.204 341.418C94.868 341.418 95.596 342.276 95.596 343.342C95.596 343.784 95.388 344.148 94.66 344.252L91.41 344.746C89.252 345.058 87.588 346.306 87.588 348.568ZM92.45 350.024C91.254 350.024 90.604 349.244 90.604 348.386C90.604 347.346 91.358 346.826 92.294 346.67L95.596 346.176V346.748C95.596 349.218 94.14 350.024 92.45 350.024ZM106.236 352V339.338H103.246V352H106.236ZM102.778 334.892C102.778 335.984 103.662 336.842 104.728 336.842C105.82 336.842 106.704 335.984 106.704 334.892C106.704 333.8 105.82 332.916 104.728 332.916C103.662 332.916 102.778 333.8 102.778 334.892ZM114.183 344.694C114.183 343.03 115.093 341.704 116.809 341.704C118.707 341.704 119.409 342.952 119.409 344.512V352H122.425V343.992C122.425 341.21 120.943 338.974 117.849 338.974C116.445 338.974 114.937 339.572 114.105 341.028V339.338H111.167V352H114.183V344.694ZM126.356 348.568C126.356 350.57 127.994 352.39 130.646 352.39C132.7 352.39 133.948 351.35 134.546 350.388C134.546 351.402 134.65 351.922 134.676 352H137.484C137.458 351.87 137.328 351.116 137.328 349.972V343.68C137.328 341.158 135.846 338.948 131.946 338.948C128.826 338.948 126.85 340.898 126.616 343.082L129.372 343.706C129.502 342.432 130.386 341.418 131.972 341.418C133.636 341.418 134.364 342.276 134.364 343.342C134.364 343.784 134.156 344.148 133.428 344.252L130.178 344.746C128.02 345.058 126.356 346.306 126.356 348.568ZM131.218 350.024C130.022 350.024 129.372 349.244 129.372 348.386C129.372 347.346 130.126 346.826 131.062 346.67L134.364 346.176V346.748C134.364 349.218 132.908 350.024 131.218 350.024ZM145.03 352V333.176H142.014V352H145.03ZM152.951 352V339.338H149.961V352H152.951ZM149.493 334.892C149.493 335.984 150.377 336.842 151.443 336.842C152.535 336.842 153.419 335.984 153.419 334.892C153.419 333.8 152.535 332.916 151.443 332.916C150.377 332.916 149.493 333.8 149.493 334.892ZM156.763 348.568C156.919 349.998 158.323 352.39 161.989 352.39C165.213 352.39 166.773 350.258 166.773 348.334C166.773 346.462 165.525 345.006 163.133 344.486L161.209 344.096C160.429 343.94 159.935 343.446 159.935 342.77C159.935 341.99 160.689 341.314 161.755 341.314C163.445 341.314 163.991 342.484 164.095 343.212L166.643 342.484C166.435 341.236 165.291 338.948 161.755 338.948C159.129 338.948 157.101 340.82 157.101 343.03C157.101 344.772 158.271 346.228 160.507 346.722L162.379 347.138C163.393 347.346 163.861 347.866 163.861 348.542C163.861 349.322 163.211 349.998 161.963 349.998C160.351 349.998 159.493 348.984 159.389 347.84L156.763 348.568Z" fill="white"/>
<path opacity="0.8" d="M56.753 388V386.988H53.068V380.201H51.99V388H56.753ZM58.6746 384.095C58.6746 382.06 60.0386 381.026 61.4906 381.026C62.9426 381.026 64.3066 382.06 64.3066 384.095C64.3066 386.13 62.9426 387.175 61.4906 387.175C60.0386 387.175 58.6746 386.13 58.6746 384.095ZM57.5746 384.095C57.5746 386.702 59.5326 388.165 61.4906 388.165C63.4486 388.165 65.4066 386.702 65.4066 384.095C65.4066 381.488 63.4486 380.036 61.4906 380.036C59.5326 380.036 57.5746 381.488 57.5746 384.095ZM72.4617 381.202V380.201H66.1697V381.202H68.7767V388H69.8547V381.202H72.4617ZM77.0355 387.296C77.0355 387.725 77.3655 388.055 77.7945 388.055C78.2235 388.055 78.5645 387.725 78.5645 387.296C78.5645 386.867 78.2235 386.526 77.7945 386.526C77.3655 386.526 77.0355 386.867 77.0355 387.296ZM77.0245 383.424C77.0245 383.853 77.3545 384.183 77.7835 384.183C78.2125 384.183 78.5535 383.853 78.5535 383.424C78.5535 382.995 78.2125 382.654 77.7835 382.654C77.3545 382.654 77.0245 382.995 77.0245 383.424ZM90.8524 388H89.7854L89.6864 387.01C89.4957 387.333 89.1951 387.608 88.7844 387.835C88.3737 388.055 87.8787 388.165 87.2994 388.165C86.2361 388.165 85.3304 387.798 84.5824 387.065C83.8344 386.324 83.4604 385.334 83.4604 384.095C83.4604 383.274 83.6474 382.548 84.0214 381.917C84.4027 381.286 84.8867 380.817 85.4734 380.509C86.0601 380.194 86.6981 380.036 87.3874 380.036C88.2894 380.036 89.0447 380.26 89.6534 380.707C90.2694 381.154 90.6874 381.723 90.9074 382.412L89.6644 382.885C89.5251 382.416 89.2574 382.027 88.8614 381.719C88.4654 381.411 87.9741 381.257 87.3874 381.257C86.6907 381.257 86.0857 381.503 85.5724 381.994C85.0591 382.485 84.8024 383.186 84.8024 384.095C84.8024 384.997 85.0517 385.701 85.5504 386.207C86.0491 386.706 86.6577 386.955 87.3764 386.955C88.0804 386.955 88.6157 386.772 88.9824 386.405C89.3564 386.031 89.5654 385.631 89.6094 385.206H87.0354V384.051H90.8524V388ZM96.83 388L95.191 384.92H94.223V388H92.892V380.201H95.884C96.6173 380.201 97.2076 380.428 97.655 380.883C98.1023 381.33 98.326 381.891 98.326 382.566C98.326 383.123 98.1683 383.6 97.853 383.996C97.5376 384.392 97.1086 384.656 96.566 384.788L98.326 388H96.83ZM94.223 383.754H95.642C96.0453 383.754 96.368 383.648 96.61 383.435C96.8593 383.215 96.984 382.925 96.984 382.566C96.984 382.199 96.8593 381.91 96.61 381.697C96.368 381.477 96.0453 381.367 95.642 381.367H94.223V383.754ZM104.993 388H100.175V380.201H104.993V381.433H101.495V383.501H104.663V384.7H101.495V386.768H104.993V388ZM109.647 385.349H106.545V384.216H109.647V385.349ZM116.467 381.059L116.093 382.137C115.741 381.946 115.334 381.851 114.872 381.851C114.197 381.851 113.636 382.06 113.189 382.478C112.749 382.889 112.5 383.439 112.441 384.128C112.808 383.563 113.413 383.281 114.256 383.281C114.975 383.281 115.558 383.501 116.005 383.941C116.452 384.381 116.676 384.964 116.676 385.69C116.676 386.416 116.416 387.01 115.895 387.472C115.374 387.934 114.733 388.165 113.97 388.165C113.09 388.165 112.393 387.85 111.88 387.219C111.374 386.588 111.121 385.8 111.121 384.854C111.121 383.585 111.477 382.577 112.188 381.829C112.899 381.081 113.82 380.707 114.949 380.707C115.594 380.707 116.1 380.824 116.467 381.059ZM112.584 385.712C112.584 386.108 112.72 386.431 112.991 386.68C113.27 386.922 113.596 387.043 113.97 387.043C114.359 387.043 114.685 386.922 114.949 386.68C115.22 386.438 115.356 386.115 115.356 385.712C115.356 385.309 115.22 384.986 114.949 384.744C114.685 384.502 114.359 384.381 113.97 384.381C113.581 384.381 113.251 384.502 112.98 384.744C112.716 384.986 112.584 385.309 112.584 385.712ZM118.381 380.201H121.065C121.799 380.201 122.378 380.395 122.803 380.784C123.229 381.173 123.441 381.679 123.441 382.302C123.441 382.705 123.335 383.057 123.122 383.358C122.91 383.651 122.631 383.86 122.286 383.985C122.704 384.095 123.042 384.319 123.298 384.656C123.555 384.993 123.683 385.389 123.683 385.844C123.683 386.475 123.46 386.992 123.012 387.395C122.565 387.798 121.982 388 121.263 388H118.381V380.201ZM119.69 383.501H120.889C121.271 383.501 121.571 383.402 121.791 383.204C122.011 383.006 122.121 382.742 122.121 382.412C122.121 382.075 122.008 381.811 121.78 381.62C121.56 381.422 121.252 381.323 120.856 381.323H119.69V383.501ZM119.69 386.878H121.032C121.428 386.878 121.744 386.779 121.978 386.581C122.22 386.376 122.341 386.101 122.341 385.756C122.341 385.411 122.228 385.136 122 384.931C121.78 384.718 121.472 384.612 121.076 384.612H119.69V386.878ZM56.027 405H57.281L55.422 401.733C56.599 401.513 57.314 400.644 57.314 399.522C57.314 398.235 56.401 397.201 54.927 397.201H51.99V405H53.079V401.81H54.245L56.027 405ZM53.079 400.842V398.169H54.729C55.609 398.169 56.203 398.697 56.203 399.522C56.203 400.325 55.609 400.842 54.729 400.842H53.079ZM63.9815 405V403.999H60.3185V401.612H63.6405V400.6H60.3185V398.202H63.9815V397.201H59.2405V405H63.9815ZM63.3655 395.342H61.9355L60.8245 396.651H61.8585L63.3655 395.342ZM72.7724 405V401.183H69.0434V402.151H71.7494C71.7054 402.954 71.0784 404.186 69.3404 404.186C67.9434 404.186 66.6234 403.163 66.6234 401.095C66.6234 399.027 67.9874 398.026 69.3844 398.026C70.5944 398.026 71.5074 398.686 71.8594 399.808L72.8384 399.39C72.3874 397.982 71.0784 397.036 69.3844 397.036C67.4594 397.036 65.5234 398.455 65.5234 401.095C65.5234 403.735 67.3494 405.165 69.3074 405.165C70.6164 405.165 71.4634 404.516 71.8044 403.9L71.9034 405H72.7724ZM75.9696 405V397.201H74.8696V405H75.9696ZM78.9976 401.095C78.9976 399.06 80.3616 398.026 81.8136 398.026C83.2656 398.026 84.6296 399.06 84.6296 401.095C84.6296 403.13 83.2656 404.175 81.8136 404.175C80.3616 404.175 78.9976 403.13 78.9976 401.095ZM77.8976 401.095C77.8976 403.702 79.8556 405.165 81.8136 405.165C83.7716 405.165 85.7296 403.702 85.7296 401.095C85.7296 398.488 83.7716 397.036 81.8136 397.036C79.8556 397.036 77.8976 398.488 77.8976 401.095ZM94.0649 405V397.201H92.9869V403.185L89.0929 397.201H87.6519V405H88.7299V398.642L92.9429 405H94.0649ZM99.5176 404.296C99.5176 404.725 99.8476 405.055 100.277 405.055C100.706 405.055 101.047 404.725 101.047 404.296C101.047 403.867 100.706 403.526 100.277 403.526C99.8476 403.526 99.5176 403.867 99.5176 404.296ZM99.5066 400.424C99.5066 400.853 99.8366 401.183 100.266 401.183C100.695 401.183 101.036 400.853 101.036 400.424C101.036 399.995 100.695 399.654 100.266 399.654C99.8366 399.654 99.5066 399.995 99.5066 400.424ZM107.285 401.436C107.285 402.36 107.453 403.038 107.791 403.471C108.055 403.823 108.421 403.999 108.891 403.999C109.345 403.999 109.712 403.823 109.991 403.471C110.321 403.046 110.486 402.367 110.486 401.436C110.486 400.505 110.321 399.826 109.991 399.401C109.712 399.049 109.345 398.873 108.891 398.873C108.421 398.873 108.055 399.049 107.791 399.401C107.453 399.819 107.285 400.497 107.285 401.436ZM106.614 403.999C106.188 403.361 105.976 402.507 105.976 401.436C105.976 400.365 106.188 399.511 106.614 398.873C107.134 398.096 107.893 397.707 108.891 397.707C109.881 397.707 110.636 398.096 111.157 398.873C111.582 399.511 111.795 400.365 111.795 401.436C111.795 402.507 111.582 403.361 111.157 403.999C110.636 404.776 109.881 405.165 108.891 405.165C107.893 405.165 107.134 404.776 106.614 403.999ZM114.503 401.436C114.503 402.36 114.671 403.038 115.009 403.471C115.273 403.823 115.639 403.999 116.109 403.999C116.563 403.999 116.93 403.823 117.209 403.471C117.539 403.046 117.704 402.367 117.704 401.436C117.704 400.505 117.539 399.826 117.209 399.401C116.93 399.049 116.563 398.873 116.109 398.873C115.639 398.873 115.273 399.049 115.009 399.401C114.671 399.819 114.503 400.497 114.503 401.436ZM113.832 403.999C113.406 403.361 113.194 402.507 113.194 401.436C113.194 400.365 113.406 399.511 113.832 398.873C114.352 398.096 115.111 397.707 116.109 397.707C117.099 397.707 117.854 398.096 118.375 398.873C118.8 399.511 119.013 400.365 119.013 401.436C119.013 402.507 118.8 403.361 118.375 403.999C117.854 404.776 117.099 405.165 116.109 405.165C115.111 405.165 114.352 404.776 113.832 403.999ZM125.328 397.872V399.027C125.152 399.174 124.98 399.328 124.811 399.489C124.65 399.65 124.426 399.918 124.14 400.292C123.854 400.659 123.605 401.047 123.392 401.458C123.18 401.861 122.974 402.382 122.776 403.02C122.586 403.651 122.461 404.311 122.402 405H121.038C121.097 404.259 121.233 403.548 121.445 402.866C121.658 402.177 121.896 401.612 122.16 401.172C122.424 400.725 122.681 400.332 122.93 399.995C123.187 399.658 123.403 399.412 123.579 399.258L123.832 399.027H120.004V397.872H125.328ZM131.462 398.059L131.088 399.137C130.736 398.946 130.329 398.851 129.867 398.851C129.192 398.851 128.631 399.06 128.184 399.478C127.744 399.889 127.495 400.439 127.436 401.128C127.803 400.563 128.408 400.281 129.251 400.281C129.97 400.281 130.553 400.501 131 400.941C131.447 401.381 131.671 401.964 131.671 402.69C131.671 403.416 131.411 404.01 130.89 404.472C130.369 404.934 129.728 405.165 128.965 405.165C128.085 405.165 127.388 404.85 126.875 404.219C126.369 403.588 126.116 402.8 126.116 401.854C126.116 400.585 126.472 399.577 127.183 398.829C127.894 398.081 128.815 397.707 129.944 397.707C130.589 397.707 131.095 397.824 131.462 398.059ZM127.579 402.712C127.579 403.108 127.715 403.431 127.986 403.68C128.265 403.922 128.591 404.043 128.965 404.043C129.354 404.043 129.68 403.922 129.944 403.68C130.215 403.438 130.351 403.115 130.351 402.712C130.351 402.309 130.215 401.986 129.944 401.744C129.68 401.502 129.354 401.381 128.965 401.381C128.576 401.381 128.246 401.502 127.975 401.744C127.711 401.986 127.579 402.309 127.579 402.712ZM134.697 405H133.377V397.201H138.228V398.444H134.697V400.633H137.865V401.854H134.697V405ZM143.878 405L142.239 401.92H141.271V405H139.94V397.201H142.932C143.665 397.201 144.255 397.428 144.703 397.883C145.15 398.33 145.374 398.891 145.374 399.566C145.374 400.123 145.216 400.6 144.901 400.996C144.585 401.392 144.156 401.656 143.614 401.788L145.374 405H143.878ZM141.271 400.754H142.69C143.093 400.754 143.416 400.648 143.658 400.435C143.907 400.215 144.032 399.925 144.032 399.566C144.032 399.199 143.907 398.91 143.658 398.697C143.416 398.477 143.093 398.367 142.69 398.367H141.271V400.754ZM146.892 404.758L147.255 403.68C147.6 403.9 148.025 404.01 148.531 404.01C149.265 404.01 149.833 403.808 150.236 403.405C150.64 403.002 150.86 402.455 150.896 401.766C150.757 402.008 150.533 402.206 150.225 402.36C149.925 402.514 149.569 402.591 149.158 402.591C148.484 402.591 147.904 402.375 147.42 401.942C146.936 401.502 146.694 400.919 146.694 400.193C146.694 399.467 146.951 398.873 147.464 398.411C147.978 397.942 148.616 397.707 149.378 397.707C150.178 397.707 150.845 397.993 151.38 398.565C151.923 399.137 152.194 399.962 152.194 401.04C152.194 402.353 151.883 403.368 151.259 404.087C150.643 404.806 149.738 405.165 148.542 405.165C147.853 405.165 147.303 405.029 146.892 404.758ZM150.72 400.149C150.72 399.768 150.585 399.452 150.313 399.203C150.042 398.954 149.723 398.829 149.356 398.829C148.982 398.829 148.66 398.954 148.388 399.203C148.124 399.445 147.992 399.76 147.992 400.149C147.992 400.552 148.124 400.875 148.388 401.117C148.652 401.359 148.975 401.48 149.356 401.48C149.73 401.48 150.049 401.359 150.313 401.117C150.585 400.868 150.72 400.545 150.72 400.149ZM153.493 403.438V402.008L156.529 397.872H158.223V402.272H159.422V403.438H158.223V405H156.925V403.438H153.493ZM156.925 402.272V399.203L154.681 402.272H156.925Z" fill="black"/>
<line opacity="0.8" x1="83" y1="390.75" x2="128" y2="390.75" stroke="black" stroke-width="0.5" stroke-dasharray="0.6 0.6"/>
<line opacity="0.8" x1="106" y1="408.75" x2="161" y2="408.75" stroke="black" stroke-width="0.5" stroke-dasharray="0.6 0.6"/>
<rect x="0.5" y="309.5" width="195" height="107" stroke="black"/>
<rect x="25" y="378.707" width="18.799" height="18.799" rx="0.5" transform="rotate(45 25 378.707)" fill="#ED712E" stroke="black"/>
<path fill-rule="evenodd" clip-rule="evenodd" d="M26.8397 385.919H22.8799L23.8698 395.819H25.8497L26.8397 385.919ZM25.8497 397.799H23.8698V399.779H25.8497V397.799Z" fill="black"/>
<defs>
<linearGradient id="paint0_linear_562_983" x1="64.9906" y1="92.8972" x2="128.244" y2="104.869" gradientUnits="userSpaceOnUse">
<stop stop-color="#DD5E89"/>
<stop offset="1" stop-color="#F7BB97"/>
</linearGradient>
</defs>
</svg>
