<svg width="162" height="285" viewBox="0 0 162 285" fill="none" xmlns="http://www.w3.org/2000/svg">
<path d="M5.65674 0.5L158.501 0.5C158.984 0.5 159.186 1.11622 158.798 1.40253L133.913 19.7384C132.506 20.775 131.676 22.4186 131.676 24.1662L131.676 265C131.676 275.77 122.945 284.5 112.176 284.5H20.6567C9.88718 284.5 1.15674 275.77 1.15674 265L1.15674 5C1.15674 2.51472 3.17146 0.5 5.65674 0.5Z" fill="white" stroke="black"/>
<path fill-rule="evenodd" clip-rule="evenodd" d="M14.7369 86.5514C17.192 85.2135 19.2196 83.9535 21.0731 82.8016C28.6688 78.0814 33.3411 75.1779 52.5347 76.1751C65.1007 76.8281 67.9103 73.1741 70.692 69.5562C73.2079 66.2841 75.7011 63.0415 85.3688 63.0415C103.881 63.0415 117.845 82.9443 120.223 86.5514H120.802L120.802 247.813C120.802 258.858 111.847 267.813 100.802 267.813H33.1338C22.0881 267.813 13.1338 258.858 13.1338 247.813L13.1338 86.5514H14.7369Z" fill="url(#paint0_linear_484_560)"/>
<path d="M14.7369 86.5514V87.0514H14.8643L14.9761 86.9904L14.7369 86.5514ZM21.0731 82.8016L20.8092 82.377L20.8092 82.377L21.0731 82.8016ZM52.5347 76.1751L52.5607 75.6758L52.5607 75.6758L52.5347 76.1751ZM70.692 69.5562L70.2956 69.2514L70.2956 69.2514L70.692 69.5562ZM120.223 86.5514L119.806 86.8266L119.954 87.0514H120.223V86.5514ZM120.802 86.5514H121.302V86.0514H120.802V86.5514ZM120.802 247.813H120.302H120.802ZM13.1338 247.813H12.6338H13.1338ZM13.1338 86.5514V86.0514H12.6338L12.6338 86.5514H13.1338ZM14.9761 86.9904C17.4452 85.6449 19.4838 84.378 21.337 83.2263L20.8092 82.377C18.9554 83.529 16.9388 84.782 14.4976 86.1123L14.9761 86.9904ZM21.337 83.2263C25.1373 80.8647 28.1465 78.9977 32.5822 77.8278C37.0262 76.6557 42.9333 76.1769 52.5088 76.6745L52.5607 75.6758C42.9425 75.1761 36.9166 75.6504 32.3272 76.8609C27.7293 78.0735 24.6046 80.0184 20.8092 82.377L21.337 83.2263ZM52.5088 76.6745C58.8351 77.0032 62.775 76.2526 65.5025 74.9162C68.2386 73.5756 69.6977 71.6696 71.0884 69.8609L70.2956 69.2514C68.9045 71.0606 67.568 72.7906 65.0625 74.0182C62.5482 75.2501 58.8003 76 52.5607 75.6758L52.5088 76.6745ZM71.0884 69.8609C72.3491 68.2213 73.5473 66.6704 75.5955 65.5065C77.6422 64.3434 80.5885 63.5415 85.3688 63.5415V62.5415C80.4814 62.5415 77.3473 63.3608 75.1014 64.6371C72.8572 65.9124 71.5508 67.619 70.2956 69.2514L71.0884 69.8609ZM85.3688 63.5415C94.4463 63.5415 102.45 68.4249 108.514 73.8174C114.57 79.2032 118.628 85.0407 119.806 86.8266L120.641 86.2761C119.44 84.4549 115.327 78.5375 109.179 73.0701C103.038 67.6095 94.8038 62.5415 85.3688 62.5415V63.5415ZM120.223 87.0514H120.802V86.0514H120.223V87.0514ZM120.302 86.5514L120.302 247.813H121.302L121.302 86.5514L120.302 86.5514ZM120.302 247.813C120.302 258.582 111.571 267.313 100.802 267.313V268.313C112.123 268.313 121.302 259.135 121.302 247.813H120.302ZM100.802 267.313H33.1338V268.313H100.802V267.313ZM33.1338 267.313C22.3642 267.313 13.6338 258.582 13.6338 247.813H12.6338C12.6338 259.135 21.812 268.313 33.1338 268.313V267.313ZM13.6338 247.813L13.6338 86.5514H12.6338L12.6338 247.813H13.6338ZM13.1338 87.0514H14.7369V86.0514H13.1338V87.0514Z" fill="black"/>
<path d="M12.8784 38.0876L12.8784 189.571" stroke="black" stroke-width="2" stroke-linecap="round"/>
<path d="M14.5615 49.0281H33.0761" stroke="black" stroke-width="2" stroke-linecap="round"/>
<path d="M14.5615 70.0674H49.9076" stroke="black" stroke-width="2" stroke-linecap="round"/>
<path d="M14.5615 91.1067H33.0761" stroke="black" stroke-width="2" stroke-linecap="round"/>
<path d="M14.5615 112.146H49.9076" stroke="black" stroke-width="2" stroke-linecap="round"/>
<path d="M14.5615 133.185H33.0761" stroke="black" stroke-width="2" stroke-linecap="round"/>
<path d="M14.5615 154.225H49.9076" stroke="black" stroke-width="2" stroke-linecap="round"/>
<path d="M14.5615 175.264H33.0761" stroke="black" stroke-width="2" stroke-linecap="round"/>
<defs>
<linearGradient id="paint0_linear_484_560" x1="24.4253" y1="79.2233" x2="152.906" y2="130.496" gradientUnits="userSpaceOnUse">
<stop stop-color="#EECDA3"/>
<stop offset="1" stop-color="#EF629F"/>
</linearGradient>
</defs>
</svg>
