<svg width="320" height="358" viewBox="0 0 320 358" fill="none" xmlns="http://www.w3.org/2000/svg">
<mask id="path-1-inside-1_484_561" fill="white">
<path fill-rule="evenodd" clip-rule="evenodd" d="M147.701 13.1655L231.086 13.1655L231.086 104.406C282.218 121.827 319.011 170.404 319.011 227.604C319.011 299.442 260.979 357.678 189.393 357.678C117.808 357.678 59.7761 299.442 59.7761 227.604C59.7761 170.404 96.5692 121.827 147.701 104.406V68.6666L19.5821 167.535C14.415 171.522 6.99377 170.566 3.00636 165.398C-0.98105 160.231 -0.0247004 152.81 5.14243 148.823L146.117 40.0341C146.625 39.6421 147.155 39.2978 147.701 39.0007V13.1655Z"/>
</mask>
<path fill-rule="evenodd" clip-rule="evenodd" d="M147.701 13.1655L231.086 13.1655L231.086 104.406C282.218 121.827 319.011 170.404 319.011 227.604C319.011 299.442 260.979 357.678 189.393 357.678C117.808 357.678 59.7761 299.442 59.7761 227.604C59.7761 170.404 96.5692 121.827 147.701 104.406V68.6666L19.5821 167.535C14.415 171.522 6.99377 170.566 3.00636 165.398C-0.98105 160.231 -0.0247004 152.81 5.14243 148.823L146.117 40.0341C146.625 39.6421 147.155 39.2978 147.701 39.0007V13.1655Z" fill="white"/>
<path d="M231.086 13.1655L232.086 13.1655V12.1655L231.086 12.1655V13.1655ZM147.701 13.1655V12.1655L146.701 12.1655V13.1655H147.701ZM231.086 104.406H230.086V105.122L230.763 105.353L231.086 104.406ZM147.701 104.406L148.024 105.353L148.701 105.122V104.406H147.701ZM147.701 68.6666H148.701V66.6317L147.09 67.8749L147.701 68.6666ZM19.5821 167.535L18.9712 166.743L18.9712 166.743L19.5821 167.535ZM3.00636 165.398L2.21468 166.009L2.21468 166.009L3.00636 165.398ZM5.14243 148.823L4.5315 148.031L4.5315 148.031L5.14243 148.823ZM146.117 40.0341L145.506 39.2424L145.506 39.2424L146.117 40.0341ZM147.701 39.0007L148.179 39.8791L148.701 39.5951V39.0007H147.701ZM231.086 12.1655L147.701 12.1655V14.1655L231.086 14.1655V12.1655ZM232.086 104.406L232.086 13.1655L230.086 13.1655L230.086 104.406H232.086ZM320.011 227.604C320.011 169.965 282.935 121.015 231.408 103.46L230.763 105.353C281.501 122.639 318.011 170.843 318.011 227.604H320.011ZM189.393 358.678C261.535 358.678 320.011 299.991 320.011 227.604H318.011C318.011 298.893 260.423 356.678 189.393 356.678V358.678ZM58.7761 227.604C58.7761 299.991 117.252 358.678 189.393 358.678V356.678C118.363 356.678 60.7761 298.893 60.7761 227.604H58.7761ZM147.379 103.46C95.8521 121.014 58.7761 169.965 58.7761 227.604H60.7761C60.7761 170.843 97.2862 122.639 148.024 105.353L147.379 103.46ZM146.701 68.6666V104.406H148.701V68.6666H146.701ZM147.09 67.8749L18.9712 166.743L20.193 168.326L148.312 69.4582L147.09 67.8749ZM18.9712 166.743C14.2413 170.393 7.44804 169.517 3.79804 164.788L2.21468 166.009C6.53949 171.614 14.5887 172.651 20.193 168.326L18.9712 166.743ZM3.79804 164.788C0.148041 160.058 1.02347 153.264 5.75336 149.614L4.5315 148.031C-1.07287 152.356 -2.11014 160.405 2.21468 166.009L3.79804 164.788ZM5.75336 149.614L146.728 40.8257L145.506 39.2424L4.5315 148.031L5.75336 149.614ZM146.728 40.8257C147.194 40.4663 147.679 40.151 148.179 39.8791L147.223 38.1223C146.631 38.4447 146.057 38.8179 145.506 39.2424L146.728 40.8257ZM146.701 13.1655V39.0007H148.701V13.1655H146.701Z" fill="black" mask="url(#path-1-inside-1_484_561)"/>
<mask id="path-3-inside-2_484_561" fill="white">
<path fill-rule="evenodd" clip-rule="evenodd" d="M87.0392 227.712C87.4229 226.969 92.0438 218.262 100.695 212.991C101.256 212.65 101.813 212.297 102.378 211.94C110.923 206.537 121.35 199.944 176.017 209.979C212.652 216.704 225.045 208.694 235.408 201.996C241.532 198.038 246.947 194.538 256.237 194.807C280.337 195.507 291.194 216.204 291.502 227.712H291.66C291.66 241.195 289.014 254.546 283.872 267.003C278.73 279.46 271.194 290.778 261.694 300.312C252.193 309.846 240.914 317.409 228.501 322.569C216.088 327.728 202.784 330.384 189.348 330.384C175.913 330.384 162.608 327.728 150.195 322.569C137.782 317.409 126.504 309.846 117.003 300.312C107.503 290.778 99.9664 279.46 94.8247 267.003C89.6896 254.562 87.0434 241.229 87.0367 227.764L87.0132 227.763C87.0132 227.763 87.021 227.748 87.0367 227.717C87.0367 227.716 87.0367 227.714 87.0367 227.712L87.0392 227.712Z"/>
</mask>
<path fill-rule="evenodd" clip-rule="evenodd" d="M87.0392 227.712C87.4229 226.969 92.0438 218.262 100.695 212.991C101.256 212.65 101.813 212.297 102.378 211.94C110.923 206.537 121.35 199.944 176.017 209.979C212.652 216.704 225.045 208.694 235.408 201.996C241.532 198.038 246.947 194.538 256.237 194.807C280.337 195.507 291.194 216.204 291.502 227.712H291.66C291.66 241.195 289.014 254.546 283.872 267.003C278.73 279.46 271.194 290.778 261.694 300.312C252.193 309.846 240.914 317.409 228.501 322.569C216.088 327.728 202.784 330.384 189.348 330.384C175.913 330.384 162.608 327.728 150.195 322.569C137.782 317.409 126.504 309.846 117.003 300.312C107.503 290.778 99.9664 279.46 94.8247 267.003C89.6896 254.562 87.0434 241.229 87.0367 227.764L87.0132 227.763C87.0132 227.763 87.021 227.748 87.0367 227.717C87.0367 227.716 87.0367 227.714 87.0367 227.712L87.0392 227.712Z" fill="url(#paint0_linear_484_561)"/>
<path d="M87.0392 227.712L87.0392 228.712L87.6485 228.712L87.9279 228.171L87.0392 227.712ZM100.695 212.991L101.215 213.845L101.215 213.845L100.695 212.991ZM102.378 211.94L102.913 212.785L102.913 212.785L102.378 211.94ZM176.017 209.979L175.837 210.962L175.837 210.962L176.017 209.979ZM235.408 201.996L235.951 202.836L235.951 202.836L235.408 201.996ZM256.237 194.807L256.266 193.808L256.266 193.808L256.237 194.807ZM291.502 227.712L290.502 227.739L290.528 228.712H291.502V227.712ZM291.66 227.712H292.66V226.712H291.66V227.712ZM283.872 267.003L282.948 266.622L282.948 266.622L283.872 267.003ZM261.694 300.312L260.985 299.606L260.985 299.606L261.694 300.312ZM228.501 322.569L228.117 321.645L228.117 321.645L228.501 322.569ZM189.348 330.384L189.348 329.384H189.348V330.384ZM117.003 300.312L117.711 299.606L117.711 299.606L117.003 300.312ZM94.8247 267.003L95.7491 266.622L95.7491 266.622L94.8247 267.003ZM87.0367 227.764L88.0367 227.763L88.0362 226.77L87.0427 226.764L87.0367 227.764ZM87.0132 227.763L86.119 227.316L85.3988 228.754L87.0072 228.763L87.0132 227.763ZM87.0367 227.717L87.9257 228.175L88.0367 227.96L88.0367 227.717L87.0367 227.717ZM87.0367 227.712L87.0367 226.712L86.0367 226.712V227.712H87.0367ZM87.9279 228.171C88.2916 227.466 92.8081 218.968 101.215 213.845L100.174 212.137C91.2795 217.557 86.5543 226.471 86.1506 227.254L87.9279 228.171ZM101.215 213.845C101.784 213.498 102.349 213.142 102.913 212.785L101.844 211.094C101.277 211.453 100.727 211.801 100.174 212.137L101.215 213.845ZM102.913 212.785C107.118 210.126 111.71 207.212 122.003 206.165C132.371 205.11 148.535 205.951 175.837 210.962L176.198 208.995C148.832 203.972 132.449 203.092 121.801 204.175C111.078 205.266 106.183 208.351 101.844 211.094L102.913 212.785ZM175.837 210.962C194.239 214.34 206.638 214.034 215.782 211.997C224.941 209.956 230.757 206.192 235.951 202.836L234.865 201.156C229.696 204.497 224.134 208.087 215.347 210.045C206.545 212.006 194.431 212.342 176.198 208.995L175.837 210.962ZM235.951 202.836C242.063 198.885 247.25 195.547 256.208 195.807L256.266 193.808C246.643 193.528 241.001 197.19 234.865 201.156L235.951 202.836ZM256.208 195.807C267.946 196.148 276.431 201.348 282.033 207.859C287.662 214.4 290.355 222.235 290.502 227.739L292.501 227.686C292.341 221.682 289.451 213.414 283.549 206.554C277.621 199.665 268.627 194.167 256.266 193.808L256.208 195.807ZM291.502 228.712H291.66V226.712H291.502V228.712ZM290.66 227.712C290.66 241.065 288.039 254.286 282.948 266.622L284.796 267.385C289.988 254.807 292.66 241.326 292.66 227.712H290.66ZM282.948 266.622C277.856 278.957 270.393 290.165 260.985 299.606L262.402 301.018C271.995 291.391 279.605 279.963 284.796 267.385L282.948 266.622ZM260.985 299.606C251.577 309.047 240.409 316.536 228.117 321.645L228.885 323.492C241.42 318.282 252.809 310.645 262.402 301.018L260.985 299.606ZM228.117 321.645C215.826 326.754 202.652 329.384 189.348 329.384L189.348 331.384C202.916 331.384 216.351 328.702 228.885 323.492L228.117 321.645ZM189.348 329.384C176.044 329.384 162.871 326.754 150.579 321.645L149.812 323.492C162.346 328.702 175.781 331.384 189.348 331.384V329.384ZM150.579 321.645C138.288 316.536 127.119 309.047 117.711 299.606L116.295 301.018C125.888 310.645 137.277 318.282 149.812 323.492L150.579 321.645ZM117.711 299.606C108.304 290.165 100.841 278.957 95.7491 266.622L93.9004 267.385C99.092 279.962 106.702 291.391 116.295 301.018L117.711 299.606ZM95.7491 266.622C90.6639 254.302 88.0434 241.098 88.0367 227.763L86.0367 227.764C86.0435 241.36 88.7153 254.823 93.9004 267.385L95.7491 266.622ZM87.0427 226.764L87.0192 226.763L87.0072 228.763L87.0307 228.764L87.0427 226.764ZM87.0132 227.763C87.9073 228.211 87.9073 228.211 87.9073 228.211C87.9073 228.211 87.9073 228.211 87.9073 228.211C87.9073 228.211 87.9073 228.211 87.9073 228.211C87.9073 228.211 87.9073 228.211 87.9073 228.211C87.9072 228.211 87.9072 228.211 87.9072 228.211C87.9072 228.212 87.9071 228.212 87.9071 228.212C87.9071 228.212 87.907 228.212 87.9071 228.212C87.9071 228.212 87.9073 228.211 87.9075 228.211C87.9081 228.21 87.9091 228.208 87.9107 228.205C87.9137 228.199 87.9187 228.189 87.9257 228.175L86.1478 227.259C86.139 227.276 86.1323 227.289 86.1275 227.299C86.1251 227.304 86.1232 227.307 86.1218 227.31C86.1211 227.312 86.1205 227.313 86.12 227.314C86.1198 227.314 86.1196 227.314 86.1194 227.315C86.1194 227.315 86.1193 227.315 86.1192 227.315C86.1192 227.315 86.1192 227.315 86.1191 227.315C86.1191 227.315 86.1191 227.316 86.1191 227.316C86.1191 227.316 86.1191 227.316 86.1191 227.316C86.1191 227.316 86.1191 227.316 86.1191 227.316C86.119 227.316 86.119 227.316 87.0132 227.763ZM88.0367 227.717C88.0367 227.716 88.0367 227.714 88.0367 227.712H86.0367C86.0367 227.714 86.0367 227.716 86.0367 227.717L88.0367 227.717ZM87.0367 228.712L87.0392 228.712L87.0392 226.712L87.0367 226.712L87.0367 228.712Z" fill="black" mask="url(#path-3-inside-2_484_561)"/>
<rect x="130.912" y="0.5" width="115.363" height="32.3637" rx="16.1818" fill="white" stroke="black"/>
<defs>
<linearGradient id="paint0_linear_484_561" x1="71.6389" y1="176.686" x2="277.039" y2="353.285" gradientUnits="userSpaceOnUse">
<stop stop-color="#8A2387"/>
<stop offset="0.578302" stop-color="#E94057"/>
<stop offset="1" stop-color="#F27121"/>
</linearGradient>
</defs>
</svg>
