<svg width="102" height="285" viewBox="0 0 102 285" fill="none" xmlns="http://www.w3.org/2000/svg">
<path d="M5.01074 0.5H98.0969C98.5795 0.5 98.782 1.11622 98.3934 1.40253L73.509 19.7384C72.1021 20.775 71.2716 22.4186 71.2716 24.1662V249.12C71.2716 268.66 55.4313 284.5 35.8912 284.5C16.3511 284.5 0.510742 268.66 0.510742 249.12V5C0.510742 2.51472 2.52546 0.5 5.01074 0.5Z" fill="white" stroke="black"/>
<path fill-rule="evenodd" clip-rule="evenodd" d="M13.7395 86.5513C18.663 80.4906 21.8775 80.9192 27.6408 81.6877C28.3371 81.7805 29.0705 81.8783 29.8487 81.9702C35.7404 82.6661 38.0489 81.2296 40.2291 79.873C41.9445 78.8056 43.5804 77.7876 46.8198 77.8964C53.0604 78.1062 58.4146 84.5894 59.8953 86.5513L60.3973 86.5513L60.3973 244.131C60.3973 257.21 49.7947 267.813 36.7158 267.813C23.6368 267.813 13.0342 257.21 13.0342 244.131V86.5513L13.7395 86.5513Z" fill="url(#paint0_linear_484_558)"/>
<path d="M13.7395 86.5513L13.7395 87.0513L13.9775 87.0513L14.1276 86.8666L13.7395 86.5513ZM27.6408 81.6877L27.5748 82.1833L27.5748 82.1833L27.6408 81.6877ZM29.8487 81.9702L29.79 82.4667L29.79 82.4667L29.8487 81.9702ZM40.2291 79.873L40.4932 80.2975L40.4932 80.2975L40.2291 79.873ZM46.8198 77.8964L46.803 78.3962L46.803 78.3962L46.8198 77.8964ZM59.8953 86.5513L59.4962 86.8525L59.6462 87.0513L59.8953 87.0513L59.8953 86.5513ZM60.3973 86.5513H60.8973V86.0513L60.3973 86.0513L60.3973 86.5513ZM60.3973 244.131H60.8973H60.3973ZM13.0342 86.5513L13.0342 86.0513L12.5342 86.0513V86.5513H13.0342ZM14.1276 86.8666C16.5536 83.8803 18.5042 82.5599 20.5006 82.0426C22.5271 81.5175 24.667 81.7956 27.5748 82.1833L27.7069 81.192C24.8513 80.8113 22.5023 80.4909 20.2498 81.0745C17.9673 81.666 15.8489 83.1617 13.3514 86.2361L14.1276 86.8666ZM27.5748 82.1833C28.2706 82.2761 29.0076 82.3743 29.79 82.4667L29.9073 81.4737C29.1334 81.3822 28.4036 81.2849 27.7069 81.192L27.5748 82.1833ZM29.79 82.4667C32.7838 82.8204 34.9017 82.6361 36.5648 82.173C38.227 81.7101 39.4031 80.9758 40.4932 80.2975L39.9649 79.4484C38.8748 80.1268 37.8066 80.7891 36.2966 81.2096C34.7875 81.6299 32.8052 81.8159 29.9073 81.4737L29.79 82.4667ZM40.4932 80.2975C41.3553 79.7611 42.1515 79.2674 43.124 78.9134C44.088 78.5625 45.2427 78.3437 46.803 78.3962L46.8366 77.3967C45.1575 77.3403 43.8745 77.576 42.7819 77.9738C41.6977 78.3684 40.8182 78.9175 39.9649 79.4484L40.4932 80.2975ZM46.803 78.3962C49.7618 78.4956 52.5553 80.0887 54.8252 81.9532C57.0863 83.8104 58.7679 85.8875 59.4962 86.8525L60.2944 86.2501C59.542 85.2532 57.8062 83.1077 55.4599 81.1804C53.1223 79.2604 50.1184 77.507 46.8366 77.3967L46.803 78.3962ZM59.8953 87.0513L60.3973 87.0513L60.3973 86.0513L59.8953 86.0513L59.8953 87.0513ZM59.8973 86.5513L59.8973 244.131H60.8973L60.8973 86.5513H59.8973ZM59.8973 244.131C59.8973 256.934 49.5186 267.313 36.7158 267.313V268.313C50.0709 268.313 60.8973 257.486 60.8973 244.131H59.8973ZM36.7158 267.313C23.9129 267.313 13.5342 256.934 13.5342 244.131H12.5342C12.5342 257.486 23.3606 268.313 36.7158 268.313V267.313ZM13.5342 244.131V86.5513H12.5342V244.131H13.5342ZM13.0342 87.0513L13.7395 87.0513L13.7395 86.0513L13.0342 86.0513L13.0342 87.0513Z" fill="black"/>
<defs>
<linearGradient id="paint0_linear_484_558" x1="18.0013" y1="92.897" x2="81.2549" y2="104.869" gradientUnits="userSpaceOnUse">
<stop stop-color="#DD5E89"/>
<stop offset="1" stop-color="#F7BB97"/>
</linearGradient>
</defs>
</svg>
