<svg width="307" height="391" viewBox="0 0 307 391" fill="none" xmlns="http://www.w3.org/2000/svg">
<mask id="path-1-inside-1_484_559" fill="white">
<path fill-rule="evenodd" clip-rule="evenodd" d="M187.205 14.3921L96.1514 14.3921L96.1514 114.133C40.3166 133.176 0.139648 186.279 0.139648 248.809C0.139648 327.339 63.5085 391 141.678 391C219.847 391 283.216 327.339 283.216 248.809C283.216 224.394 277.091 201.416 266.3 181.342L286.537 156.098L287.696 157.029C292.582 160.955 299.722 160.173 303.643 155.283C307.564 150.392 306.781 143.245 301.894 139.319L257.888 103.962C253.002 100.036 245.862 100.818 241.942 105.708C238.159 110.426 238.754 117.244 243.187 121.244L230.001 137.693C217.333 127.517 202.886 119.482 187.205 114.133L187.205 14.3921Z"/>
</mask>
<path fill-rule="evenodd" clip-rule="evenodd" d="M187.205 14.3921L96.1514 14.3921L96.1514 114.133C40.3166 133.176 0.139648 186.279 0.139648 248.809C0.139648 327.339 63.5085 391 141.678 391C219.847 391 283.216 327.339 283.216 248.809C283.216 224.394 277.091 201.416 266.3 181.342L286.537 156.098L287.696 157.029C292.582 160.955 299.722 160.173 303.643 155.283C307.564 150.392 306.781 143.245 301.894 139.319L257.888 103.962C253.002 100.036 245.862 100.818 241.942 105.708C238.159 110.426 238.754 117.244 243.187 121.244L230.001 137.693C217.333 127.517 202.886 119.482 187.205 114.133L187.205 14.3921Z" fill="white"/>
<path d="M96.1514 14.3921L96.1514 13.3921L95.1514 13.3921V14.3921L96.1514 14.3921ZM187.205 14.3921L188.205 14.3921V13.3921L187.205 13.3921V14.3921ZM96.1514 114.133L96.4742 115.079L97.1514 114.848V114.133H96.1514ZM266.3 181.342L265.52 180.716L265.106 181.233L265.42 181.815L266.3 181.342ZM286.537 156.098L287.163 155.319L286.383 154.691L285.757 155.473L286.537 156.098ZM287.696 157.029L288.322 156.25L288.322 156.25L287.696 157.029ZM303.643 155.283L302.862 154.657L302.862 154.657L303.643 155.283ZM301.894 139.319L302.521 138.539L302.521 138.539L301.894 139.319ZM257.888 103.962L258.515 103.182L258.515 103.182L257.888 103.962ZM241.942 105.708L241.161 105.083L241.161 105.083L241.942 105.708ZM243.187 121.244L243.968 121.87L244.558 121.134L243.857 120.502L243.187 121.244ZM230.001 137.693L229.375 138.473L230.155 139.099L230.781 138.318L230.001 137.693ZM187.205 114.133L186.205 114.133V114.849L186.882 115.08L187.205 114.133ZM96.1514 15.3921L187.205 15.3921V13.3921L96.1514 13.3921L96.1514 15.3921ZM97.1514 114.133L97.1514 14.3921L95.1514 14.3921L95.1514 114.133H97.1514ZM1.13965 248.809C1.13965 186.717 41.0343 133.988 96.4742 115.079L95.8286 113.186C39.5988 132.364 -0.860352 185.84 -0.860352 248.809H1.13965ZM141.678 390C64.0651 390 1.13965 326.791 1.13965 248.809H-0.860352C-0.860352 327.887 62.9519 392 141.678 392V390ZM282.216 248.809C282.216 326.791 219.291 390 141.678 390V392C220.404 392 284.216 327.887 284.216 248.809H282.216ZM265.42 181.815C276.134 201.748 282.216 224.563 282.216 248.809H284.216C284.216 224.225 278.048 201.085 267.181 180.868L265.42 181.815ZM285.757 155.473L265.52 180.716L267.081 181.967L287.317 156.724L285.757 155.473ZM288.322 156.25L287.163 155.319L285.911 156.878L287.07 157.809L288.322 156.25ZM302.862 154.657C299.287 159.116 292.778 159.829 288.322 156.25L287.07 157.809C292.387 162.081 300.156 161.23 304.423 155.908L302.862 154.657ZM301.268 140.098C305.724 143.679 306.438 150.197 302.862 154.657L304.423 155.908C308.689 150.587 307.837 142.811 302.521 138.539L301.268 140.098ZM257.262 104.741L301.268 140.098L302.521 138.539L258.515 103.182L257.262 104.741ZM242.722 106.334C246.297 101.874 252.807 101.162 257.262 104.741L258.515 103.182C253.197 98.9101 245.428 99.761 241.161 105.083L242.722 106.334ZM243.857 120.502C239.815 116.854 239.273 110.636 242.722 106.334L241.161 105.083C237.046 110.216 237.693 117.634 242.517 121.987L243.857 120.502ZM230.781 138.318L243.968 121.87L242.407 120.619L229.221 137.067L230.781 138.318ZM186.882 115.08C202.451 120.39 216.796 128.368 229.375 138.473L230.627 136.913C217.87 126.666 203.321 118.573 187.527 113.187L186.882 115.08ZM186.205 14.3921L186.205 114.133L188.205 114.133L188.205 14.3921L186.205 14.3921Z" fill="black" mask="url(#path-1-inside-1_484_559)"/>
<mask id="path-3-inside-2_484_559" fill="white">
<path fill-rule="evenodd" clip-rule="evenodd" d="M29.9103 248.927C30.3294 248.114 35.3752 238.596 44.8216 232.834C45.4344 232.461 46.0428 232.075 46.6603 231.685C55.9907 225.778 67.3772 218.571 127.072 229.541C167.076 236.893 180.609 228.136 191.925 220.814C198.612 216.487 204.525 212.661 214.669 212.956C240.985 213.721 252.842 236.346 253.177 248.927L253.35 248.927C253.35 263.666 250.46 278.261 244.846 291.878C239.231 305.495 231.002 317.868 220.628 328.29C210.254 338.712 197.937 346.98 184.383 352.62C170.828 358.26 156.3 361.164 141.629 361.164C126.957 361.164 112.43 358.26 98.875 352.62C85.3203 346.98 73.0042 338.712 62.63 328.29C52.2557 317.868 44.0263 305.495 38.4118 291.878C32.8044 278.278 29.9148 263.703 29.9075 248.983L29.8818 248.983C29.8818 248.983 29.8904 248.965 29.9075 248.932C29.9075 248.93 29.9075 248.929 29.9075 248.927L29.9103 248.927Z"/>
</mask>
<path fill-rule="evenodd" clip-rule="evenodd" d="M29.9103 248.927C30.3294 248.114 35.3752 238.596 44.8216 232.834C45.4344 232.461 46.0428 232.075 46.6603 231.685C55.9907 225.778 67.3772 218.571 127.072 229.541C167.076 236.893 180.609 228.136 191.925 220.814C198.612 216.487 204.525 212.661 214.669 212.956C240.985 213.721 252.842 236.346 253.177 248.927L253.35 248.927C253.35 263.666 250.46 278.261 244.846 291.878C239.231 305.495 231.002 317.868 220.628 328.29C210.254 338.712 197.937 346.98 184.383 352.62C170.828 358.26 156.3 361.164 141.629 361.164C126.957 361.164 112.43 358.26 98.875 352.62C85.3203 346.98 73.0042 338.712 62.63 328.29C52.2557 317.868 44.0263 305.495 38.4118 291.878C32.8044 278.278 29.9148 263.703 29.9075 248.983L29.8818 248.983C29.8818 248.983 29.8904 248.965 29.9075 248.932C29.9075 248.93 29.9075 248.929 29.9075 248.927L29.9103 248.927Z" fill="url(#paint0_linear_484_559)"/>
<path d="M29.9103 248.927L29.9103 249.927L30.5199 249.927L30.7992 249.385L29.9103 248.927ZM44.8216 232.834L44.3009 231.981L44.3009 231.981L44.8216 232.834ZM46.6603 231.685L46.1254 230.84L46.1254 230.84L46.6603 231.685ZM127.072 229.541L127.253 228.557L127.253 228.557L127.072 229.541ZM191.925 220.814L192.468 221.654L192.468 221.654L191.925 220.814ZM214.669 212.956L214.698 211.957L214.698 211.957L214.669 212.956ZM253.177 248.927L252.178 248.953L252.204 249.927L253.177 249.927L253.177 248.927ZM253.35 248.927H254.35V247.927L253.35 247.927L253.35 248.927ZM244.846 291.878L243.921 291.497L243.921 291.497L244.846 291.878ZM184.383 352.62L183.999 351.697L183.999 351.697L184.383 352.62ZM98.875 352.62L99.2592 351.697L99.2592 351.697L98.875 352.62ZM62.63 328.29L61.9212 328.996L61.9212 328.996L62.63 328.29ZM38.4118 291.878L39.3363 291.497L39.3363 291.497L38.4118 291.878ZM29.9075 248.983L30.9075 248.982L30.9071 247.989L29.9135 247.983L29.9075 248.983ZM29.8818 248.983L28.9875 248.535L28.2681 249.973L29.8759 249.982L29.8818 248.983ZM29.9075 248.932L30.7967 249.39L30.9075 249.174L30.9075 248.932L29.9075 248.932ZM29.9075 248.927L29.9075 247.927L28.9075 247.927V248.927H29.9075ZM30.7992 249.385C31.1983 248.611 36.1399 239.301 45.3423 233.688L44.3009 231.981C34.6106 237.891 29.4605 247.617 29.0214 248.469L30.7992 249.385ZM45.3423 233.688C45.9635 233.309 46.5789 232.92 47.1951 232.53L46.1254 230.84C45.5068 231.231 44.9054 231.612 44.3009 231.981L45.3423 233.688ZM47.1951 232.53C51.7936 229.619 56.8213 226.426 68.0808 225.279C79.4151 224.124 97.0758 225.045 126.891 230.525L127.253 228.557C97.3732 223.067 79.4934 222.106 67.8781 223.289C56.1882 224.48 50.8574 227.844 46.1254 230.84L47.1951 232.53ZM126.891 230.525C146.978 234.216 160.505 233.88 170.474 231.656C180.459 229.429 186.798 225.323 192.468 221.654L191.381 219.975C185.736 223.628 179.651 227.56 170.039 229.704C160.412 231.852 147.17 232.218 127.253 228.557L126.891 230.525ZM192.468 221.654C199.144 217.334 204.828 213.671 214.64 213.956L214.698 211.957C204.221 211.652 198.08 215.64 191.381 219.975L192.468 221.654ZM214.64 213.956C227.486 214.329 236.774 220.027 242.908 227.163C249.066 234.328 252.016 242.913 252.178 248.953L254.177 248.9C254.002 242.36 250.856 233.342 244.424 225.859C237.966 218.345 228.168 212.348 214.698 211.957L214.64 213.956ZM253.177 249.927L253.35 249.927L253.35 247.927L253.177 247.927L253.177 249.927ZM252.35 248.927C252.35 263.535 249.486 278.001 243.921 291.497L245.77 292.259C251.435 278.521 254.35 263.797 254.35 248.927H252.35ZM243.921 291.497C238.357 304.993 230.201 317.256 219.919 327.585L221.337 328.996C231.803 318.48 240.106 305.997 245.77 292.259L243.921 291.497ZM219.919 327.585C209.637 337.914 197.432 346.107 183.999 351.697L184.767 353.543C198.443 347.852 210.87 339.511 221.337 328.996L219.919 327.585ZM183.999 351.697C170.566 357.287 156.168 360.164 141.629 360.164V362.164C156.432 362.164 171.091 359.234 184.767 353.543L183.999 351.697ZM141.629 360.164C127.089 360.164 112.692 357.287 99.2592 351.697L98.4908 353.543C112.167 359.234 126.825 362.164 141.629 362.164V360.164ZM99.2592 351.697C85.8262 346.107 73.6203 337.914 63.3387 327.585L61.9212 328.996C72.3882 339.511 84.8145 347.852 98.4908 353.543L99.2592 351.697ZM63.3387 327.585C53.057 317.256 44.9009 304.993 39.3363 291.497L37.4873 292.259C43.1517 305.997 51.4543 318.48 61.9212 328.996L63.3387 327.585ZM39.3363 291.497C33.7787 278.018 30.9148 263.572 30.9075 248.982L28.9075 248.983C28.9149 263.834 31.8301 278.538 37.4873 292.259L39.3363 291.497ZM29.9135 247.983L29.8878 247.983L29.8759 249.982L29.9016 249.983L29.9135 247.983ZM29.8818 248.983C30.7761 249.43 30.7761 249.43 30.7761 249.43C30.7761 249.43 30.7761 249.43 30.7761 249.43C30.7761 249.43 30.7761 249.43 30.7761 249.43C30.7761 249.43 30.7761 249.43 30.7761 249.43C30.776 249.43 30.776 249.43 30.776 249.43C30.776 249.43 30.7759 249.43 30.7759 249.43C30.7759 249.43 30.7759 249.43 30.7759 249.43C30.776 249.43 30.7762 249.43 30.7765 249.429C30.7771 249.428 30.7783 249.426 30.78 249.422C30.7835 249.416 30.789 249.405 30.7967 249.39L29.0184 248.474C29.0089 248.493 29.0016 248.507 28.9965 248.517C28.9939 248.522 28.9919 248.526 28.9904 248.529C28.9897 248.531 28.989 248.532 28.9886 248.533C28.9883 248.533 28.9881 248.534 28.9879 248.534C28.9879 248.534 28.9878 248.535 28.9877 248.535C28.9877 248.535 28.9876 248.535 28.9876 248.535C28.9876 248.535 28.9876 248.535 28.9876 248.535C28.9876 248.535 28.9876 248.535 28.9876 248.535C28.9876 248.535 28.9875 248.535 28.9875 248.535C28.9875 248.535 28.9875 248.535 29.8818 248.983ZM30.9075 248.932C30.9075 248.93 30.9075 248.929 30.9075 248.927H28.9075C28.9075 248.929 28.9075 248.93 28.9075 248.932L30.9075 248.932ZM29.9075 249.927L29.9103 249.927L29.9103 247.927L29.9075 247.927L29.9075 249.927Z" fill="black" mask="url(#path-3-inside-2_484_559)"/>
<rect x="77.772" y="0.5" width="126.066" height="35.4719" rx="17.736" fill="white" stroke="black"/>
<defs>
<linearGradient id="paint0_linear_484_559" x1="-4.87746" y1="168.465" x2="187.44" y2="377.556" gradientUnits="userSpaceOnUse">
<stop stop-color="#FF6E7F"/>
<stop offset="1" stop-color="#BFE9FF"/>
</linearGradient>
</defs>
</svg>
