<svg width="290" height="418" viewBox="0 0 290 418" fill="none" xmlns="http://www.w3.org/2000/svg">
<mask id="path-1-inside-1_537_724" fill="white">
<path fill-rule="evenodd" clip-rule="evenodd" d="M135.256 11.4268H201.697V84.128C242.439 98.0087 271.756 136.715 271.756 182.293C271.756 239.534 225.516 285.936 168.476 285.936C111.437 285.936 65.1966 239.534 65.1966 182.293C65.1966 136.715 94.5135 98.0085 135.256 84.1279V55.6503L33.1697 134.429C29.0525 137.606 23.1393 136.844 19.9621 132.727C16.7849 128.61 17.5469 122.696 21.6641 119.519L133.994 32.8358C134.399 32.5234 134.821 32.2492 135.256 32.0124V11.4268Z"/>
</mask>
<path fill-rule="evenodd" clip-rule="evenodd" d="M135.256 11.4268H201.697V84.128C242.439 98.0087 271.756 136.715 271.756 182.293C271.756 239.534 225.516 285.936 168.476 285.936C111.437 285.936 65.1966 239.534 65.1966 182.293C65.1966 136.715 94.5135 98.0085 135.256 84.1279V55.6503L33.1697 134.429C29.0525 137.606 23.1393 136.844 19.9621 132.727C16.7849 128.61 17.5469 122.696 21.6641 119.519L133.994 32.8358C134.399 32.5234 134.821 32.2492 135.256 32.0124V11.4268Z" fill="white"/>
<path d="M201.697 11.4268H202.697V10.4268H201.697V11.4268ZM135.256 11.4268V10.4268H134.256V11.4268H135.256ZM201.697 84.128H200.697V84.8437L201.375 85.0745L201.697 84.128ZM135.256 84.1279L135.578 85.0745L136.256 84.8436V84.1279H135.256ZM135.256 55.6503H136.256V53.6155L134.645 54.8587L135.256 55.6503ZM33.1697 134.429L33.7807 135.221L33.7807 135.221L33.1697 134.429ZM19.9621 132.727L19.1704 133.338L19.1704 133.338L19.9621 132.727ZM21.6641 119.519L22.275 120.311L22.275 120.311L21.6641 119.519ZM133.994 32.8358L133.383 32.0441L133.383 32.0441L133.994 32.8358ZM135.256 32.0124L135.734 32.8908L136.256 32.6068V32.0124H135.256ZM201.697 10.4268H135.256V12.4268H201.697V10.4268ZM202.697 84.128V11.4268H200.697V84.128H202.697ZM272.756 182.293C272.756 136.276 243.156 97.1965 202.02 83.1814L201.375 85.0745C241.722 98.8208 270.756 137.154 270.756 182.293H272.756ZM168.476 286.936C226.072 286.936 272.756 240.083 272.756 182.293H270.756C270.756 238.985 224.961 284.936 168.476 284.936V286.936ZM64.1966 182.293C64.1966 240.083 110.881 286.936 168.476 286.936V284.936C111.992 284.936 66.1966 238.985 66.1966 182.293H64.1966ZM134.933 83.1813C93.7965 97.1964 64.1966 136.276 64.1966 182.293H66.1966C66.1966 137.154 95.2306 98.8207 135.578 85.0745L134.933 83.1813ZM134.256 55.6503V84.1279H136.256V55.6503H134.256ZM134.645 54.8587L32.5588 133.637L33.7807 135.221L135.867 56.442L134.645 54.8587ZM32.5588 133.637C28.8788 136.477 23.5935 135.796 20.7537 132.116L19.1704 133.338C22.685 137.892 29.2262 138.735 33.7807 135.221L32.5588 133.637ZM20.7538 132.116C17.914 128.436 18.5951 123.151 22.275 120.311L21.0532 118.728C16.4987 122.242 15.6558 128.783 19.1704 133.338L20.7538 132.116ZM22.275 120.311L134.605 33.6275L133.383 32.0441L21.0532 118.728L22.275 120.311ZM134.605 33.6275C134.967 33.3476 135.345 33.1023 135.734 32.8908L134.778 31.134C134.296 31.396 133.83 31.6992 133.383 32.0441L134.605 33.6275ZM134.256 11.4268V32.0124H136.256V11.4268H134.256Z" fill="black" mask="url(#path-1-inside-1_537_724)"/>
<mask id="path-3-inside-2_537_724" fill="white">
<path fill-rule="evenodd" clip-rule="evenodd" d="M86.9202 182.379C87.226 181.786 90.908 174.849 97.8009 170.649C98.2481 170.377 98.692 170.096 99.1426 169.811C105.951 165.506 114.26 160.253 157.818 168.249C187.01 173.607 196.884 167.225 205.141 161.888C210.021 158.734 214.336 155.945 221.738 156.16C240.941 156.718 249.592 173.209 249.837 182.379H249.963C249.963 193.122 247.855 203.761 243.758 213.686C239.661 223.612 233.656 232.63 226.086 240.227C218.516 247.824 209.529 253.85 199.638 257.961C189.747 262.072 179.146 264.189 168.441 264.189C157.735 264.189 147.134 262.072 137.243 257.961C127.353 253.85 118.366 247.824 110.796 240.227C103.226 232.63 97.2206 223.612 93.1237 213.686C89.032 203.773 86.9235 193.149 86.9182 182.42L86.8994 182.42C86.8994 182.42 86.9057 182.407 86.9182 182.383C86.9182 182.382 86.9182 182.38 86.9182 182.379H86.9202Z"/>
</mask>
<path fill-rule="evenodd" clip-rule="evenodd" d="M86.9202 182.379C87.226 181.786 90.908 174.849 97.8009 170.649C98.2481 170.377 98.692 170.096 99.1426 169.811C105.951 165.506 114.26 160.253 157.818 168.249C187.01 173.607 196.884 167.225 205.141 161.888C210.021 158.734 214.336 155.945 221.738 156.16C240.941 156.718 249.592 173.209 249.837 182.379H249.963C249.963 193.122 247.855 203.761 243.758 213.686C239.661 223.612 233.656 232.63 226.086 240.227C218.516 247.824 209.529 253.85 199.638 257.961C189.747 262.072 179.146 264.189 168.441 264.189C157.735 264.189 147.134 262.072 137.243 257.961C127.353 253.85 118.366 247.824 110.796 240.227C103.226 232.63 97.2206 223.612 93.1237 213.686C89.032 203.773 86.9235 193.149 86.9182 182.42L86.8994 182.42C86.8994 182.42 86.9057 182.407 86.9182 182.383C86.9182 182.382 86.9182 182.38 86.9182 182.379H86.9202Z" fill="url(#paint0_linear_537_724)"/>
<path d="M86.9202 182.379V183.379H87.5295L87.8088 182.838L86.9202 182.379ZM97.8009 170.649L98.3212 171.503L98.3212 171.503L97.8009 170.649ZM99.1426 169.811L99.677 170.656L99.677 170.656L99.1426 169.811ZM157.818 168.249L157.999 167.265L157.818 168.249ZM205.141 161.888L204.599 161.048L204.599 161.048L205.141 161.888ZM221.738 156.16L221.767 155.161L221.738 156.16ZM249.837 182.379L248.837 182.406L248.863 183.379H249.837V182.379ZM249.963 182.379H250.963V181.379H249.963V182.379ZM243.758 213.686L242.833 213.305L242.833 213.305L243.758 213.686ZM199.638 257.961L200.022 258.885L200.022 258.885L199.638 257.961ZM137.243 257.961L137.627 257.038L137.627 257.038L137.243 257.961ZM93.1237 213.686L94.0481 213.305L94.0481 213.305L93.1237 213.686ZM86.9182 182.42L87.9182 182.419L87.9177 181.426L86.9241 181.42L86.9182 182.42ZM86.8994 182.42L86.0053 181.972L85.2849 183.41L86.8935 183.42L86.8994 182.42ZM86.9182 182.383L87.8071 182.841L87.9182 182.625L87.9182 182.383L86.9182 182.383ZM86.9182 182.379V181.379H85.9182V182.379H86.9182ZM87.8088 182.838C88.0946 182.284 91.6722 175.554 98.3212 171.503L97.2806 169.795C90.1437 174.144 86.3574 181.289 86.0315 181.92L87.8088 182.838ZM98.3212 171.503C98.7767 171.226 99.2277 170.941 99.677 170.656L98.6081 168.966C98.1564 169.252 97.7195 169.528 97.2806 169.795L98.3212 171.503ZM99.677 170.656C103.014 168.546 106.642 166.242 114.8 165.412C123.033 164.574 135.89 165.24 157.638 169.232L157.999 167.265C136.188 163.261 123.111 162.556 114.598 163.422C106.01 164.296 102.079 166.771 98.6081 168.966L99.677 170.656ZM157.638 169.232C172.318 171.927 182.227 171.686 189.548 170.055C196.883 168.421 201.544 165.404 205.684 162.728L204.599 161.048C200.482 163.709 196.076 166.552 189.113 168.103C182.134 169.658 172.51 169.929 157.999 167.265L157.638 169.232ZM205.684 162.728C210.552 159.581 214.639 156.954 221.709 157.16L221.767 155.161C214.032 154.936 209.49 157.887 204.599 161.048L205.684 162.728ZM221.709 157.16C230.999 157.429 237.707 161.542 242.139 166.692C246.596 171.872 248.722 178.071 248.837 182.406L250.837 182.352C250.708 177.518 248.385 170.885 243.655 165.388C238.898 159.86 231.68 155.448 221.767 155.161L221.709 157.16ZM249.837 183.379H249.963V181.379H249.837V183.379ZM248.963 182.379C248.963 192.992 246.88 203.5 242.833 213.305L244.682 214.068C248.829 204.021 250.963 193.253 250.963 182.379H248.963ZM242.833 213.305C238.787 223.109 232.855 232.018 225.378 239.521L226.794 240.933C234.457 233.243 240.535 224.114 244.682 214.068L242.833 213.305ZM225.378 239.521C217.9 247.025 209.023 252.977 199.254 257.038L200.022 258.885C210.034 254.723 219.131 248.623 226.794 240.933L225.378 239.521ZM199.254 257.038C189.485 261.098 179.015 263.189 168.441 263.189V265.189C179.278 265.189 190.01 263.046 200.022 258.885L199.254 257.038ZM168.441 263.189C157.867 263.189 147.396 261.098 137.627 257.038L136.86 258.885C146.872 263.046 157.603 265.189 168.441 265.189V263.189ZM137.627 257.038C127.858 252.977 118.981 247.025 111.504 239.521L110.087 240.933C117.75 248.623 126.847 254.723 136.86 258.885L137.627 257.038ZM111.504 239.521C104.027 232.018 98.095 223.109 94.0481 213.305L92.1994 214.068C96.3462 224.114 102.424 233.243 110.087 240.933L111.504 239.521ZM94.0481 213.305C90.0063 203.513 87.9234 193.018 87.9182 182.419L85.9182 182.42C85.9236 193.28 88.0577 204.034 92.1994 214.068L94.0481 213.305ZM86.9241 181.42L86.9053 181.42L86.8935 183.42L86.9123 183.42L86.9241 181.42ZM86.8994 182.42C87.7935 182.868 87.7935 182.868 87.7935 182.868C87.7935 182.868 87.7935 182.868 87.7935 182.868C87.7935 182.868 87.7935 182.868 87.7935 182.868C87.7935 182.868 87.7935 182.868 87.7935 182.868C87.7934 182.868 87.7934 182.868 87.7934 182.868C87.7934 182.868 87.7933 182.868 87.7933 182.868C87.7932 182.868 87.7932 182.868 87.7932 182.868C87.7932 182.868 87.7933 182.868 87.7935 182.868C87.7938 182.867 87.7946 182.866 87.7957 182.863C87.798 182.859 87.8018 182.851 87.8071 182.841L86.0292 181.925C86.0221 181.939 86.0165 181.95 86.0125 181.958C86.0105 181.961 86.0089 181.965 86.0077 181.967C86.0071 181.968 86.0066 181.969 86.0062 181.97C86.006 181.97 86.0058 181.971 86.0057 181.971C86.0056 181.971 86.0055 181.971 86.0055 181.972C86.0054 181.972 86.0054 181.972 86.0054 181.972C86.0054 181.972 86.0053 181.972 86.0053 181.972C86.0053 181.972 86.0053 181.972 86.0053 181.972C86.0053 181.972 86.0053 181.972 86.0053 181.972C86.0053 181.972 86.0053 181.972 86.8994 182.42ZM87.9182 182.383C87.9182 182.381 87.9182 182.381 87.9182 182.379H85.9182C85.9182 182.38 85.9182 182.382 85.9182 182.383L87.9182 182.383ZM86.9182 183.379H86.9202V181.379H86.9182V183.379Z" fill="black" mask="url(#path-3-inside-2_537_724)"/>
<rect x="121.979" y="1.43652" width="91.7191" height="25.5844" rx="12.7922" fill="white" stroke="black"/>
<rect x="11" y="321" width="268" height="44" fill="black"/>
<path d="M63.1143 338.882L60.3063 339.766C60.185 339.055 59.8297 338.405 59.2403 337.816C58.651 337.227 57.8017 336.932 56.6923 336.932C55.7737 336.932 55.011 337.192 54.4043 337.712C53.815 338.232 53.5203 338.856 53.5203 339.584C53.5203 340.849 54.2397 341.638 55.6783 341.95L58.3303 342.496C59.925 342.808 61.1557 343.441 62.0223 344.394C62.889 345.347 63.3223 346.483 63.3223 347.8C63.3223 349.325 62.733 350.643 61.5543 351.752C60.393 352.844 58.807 353.39 56.7963 353.39C54.6297 353.39 52.9397 352.827 51.7263 351.7C50.513 350.556 49.8283 349.23 49.6723 347.722L52.5843 346.89C52.6883 347.93 53.1043 348.805 53.8323 349.516C54.5603 350.227 55.5483 350.582 56.7963 350.582C57.871 350.582 58.6943 350.348 59.2663 349.88C59.8557 349.395 60.1503 348.779 60.1503 348.034C60.1503 347.427 59.9337 346.907 59.5003 346.474C59.067 346.023 58.4603 345.711 57.6803 345.538L55.0803 344.992C53.6417 344.697 52.4977 344.099 51.6483 343.198C50.8163 342.297 50.4003 341.17 50.4003 339.818C50.4003 338.275 51.0157 336.949 52.2463 335.84C53.477 334.731 54.9503 334.176 56.6663 334.176C58.625 334.176 60.1243 334.653 61.1643 335.606C62.2043 336.542 62.8543 337.634 63.1143 338.882ZM76.863 334.904L73.457 338.752H70.987L73.301 334.904H76.863ZM69.271 345.278H75.485C75.4504 344.481 75.1644 343.813 74.627 343.276C74.107 342.739 73.353 342.47 72.365 342.47C71.4637 342.47 70.7357 342.756 70.181 343.328C69.6264 343.883 69.323 344.533 69.271 345.278ZM75.823 348.58L78.371 349.386C78.007 350.547 77.3224 351.509 76.317 352.272C75.329 353.017 74.107 353.39 72.651 353.39C70.8484 353.39 69.3144 352.775 68.049 351.544C66.801 350.313 66.177 348.667 66.177 346.604C66.177 344.663 66.7837 343.068 67.997 341.82C69.2277 340.572 70.675 339.948 72.339 339.948C74.2804 339.948 75.797 340.546 76.889 341.742C77.981 342.921 78.527 344.515 78.527 346.526C78.527 347.063 78.501 347.384 78.449 347.488H69.193C69.2277 348.441 69.5744 349.23 70.233 349.854C70.909 350.478 71.715 350.79 72.651 350.79C74.2804 350.79 75.3377 350.053 75.823 348.58ZM89.8592 340.26V343.328C89.5125 343.276 89.1832 343.25 88.8712 343.25C86.6005 343.25 85.4652 344.489 85.4652 346.968V353H82.4492V340.338H85.3872V342.366C85.6819 341.69 86.1585 341.161 86.8172 340.78C87.4759 340.381 88.2212 340.182 89.0532 340.182C89.3305 340.182 89.5992 340.208 89.8592 340.26ZM101.684 351.596C101.39 352.151 100.904 352.584 100.228 352.896C99.5696 353.208 98.859 353.364 98.0963 353.364C96.623 353.364 95.453 352.887 94.5863 351.934C93.737 350.981 93.3123 349.776 93.3123 348.32V340.338H96.3283V347.774C96.3283 348.623 96.5363 349.317 96.9523 349.854C97.3683 350.391 98.0096 350.66 98.8763 350.66C99.7256 350.66 100.376 350.4 100.826 349.88C101.294 349.36 101.528 348.675 101.528 347.826V340.338H104.544V350.686C104.544 351.449 104.588 352.22 104.674 353H101.788C101.719 352.619 101.684 352.151 101.684 351.596ZM112.478 353H109.488V340.338H112.374V341.95C112.721 341.326 113.241 340.841 113.934 340.494C114.645 340.147 115.373 339.974 116.118 339.974C116.967 339.974 117.73 340.165 118.406 340.546C119.082 340.927 119.585 341.482 119.914 342.21C120.798 340.719 122.167 339.974 124.022 339.974C125.27 339.974 126.327 340.381 127.194 341.196C128.061 342.011 128.494 343.207 128.494 344.784V353H125.582V345.278C125.582 344.498 125.374 343.874 124.958 343.406C124.559 342.921 123.953 342.678 123.138 342.678C122.358 342.678 121.725 342.947 121.24 343.484C120.755 344.021 120.512 344.689 120.512 345.486V353H117.548V345.278C117.548 344.498 117.34 343.874 116.924 343.406C116.525 342.921 115.919 342.678 115.104 342.678C114.307 342.678 113.665 342.947 113.18 343.484C112.712 344.004 112.478 344.671 112.478 345.486V353ZM144.149 353H140.977V334.566H144.149V353ZM152.364 345.694V353H149.348V340.338H152.286V342.028C152.685 341.335 153.214 340.823 153.872 340.494C154.548 340.147 155.268 339.974 156.03 339.974C157.521 339.974 158.656 340.442 159.436 341.378C160.216 342.314 160.606 343.519 160.606 344.992V353H157.59V345.512C157.59 344.663 157.382 343.987 156.966 343.484C156.55 342.964 155.892 342.704 154.99 342.704C154.158 342.704 153.508 342.99 153.04 343.562C152.59 344.117 152.364 344.827 152.364 345.694ZM170.83 342.73C169.859 342.73 169.036 343.085 168.36 343.796C167.684 344.489 167.346 345.443 167.346 346.656C167.346 347.887 167.684 348.857 168.36 349.568C169.053 350.279 169.894 350.634 170.882 350.634C171.766 350.634 172.468 350.4 172.988 349.932C173.525 349.447 173.881 348.901 174.054 348.294L176.706 349.256C176.359 350.383 175.683 351.353 174.678 352.168C173.69 352.983 172.425 353.39 170.882 353.39C169.027 353.39 167.467 352.749 166.202 351.466C164.954 350.183 164.33 348.58 164.33 346.656C164.33 344.715 164.945 343.111 166.176 341.846C167.424 340.581 168.967 339.948 170.804 339.948C172.381 339.948 173.664 340.355 174.652 341.17C175.657 341.985 176.307 342.964 176.602 344.108L173.898 345.096C173.725 344.437 173.387 343.883 172.884 343.432C172.399 342.964 171.714 342.73 170.83 342.73ZM183.34 349.62C184.033 350.331 184.874 350.686 185.862 350.686C186.85 350.686 187.682 350.331 188.358 349.62C189.051 348.909 189.398 347.921 189.398 346.656C189.398 345.408 189.051 344.437 188.358 343.744C187.682 343.033 186.85 342.678 185.862 342.678C184.874 342.678 184.033 343.033 183.34 343.744C182.664 344.437 182.326 345.408 182.326 346.656C182.326 347.904 182.664 348.892 183.34 349.62ZM185.862 339.948C187.768 339.948 189.337 340.581 190.568 341.846C191.816 343.111 192.44 344.715 192.44 346.656C192.44 348.597 191.816 350.209 190.568 351.492C189.337 352.757 187.768 353.39 185.862 353.39C183.972 353.39 182.404 352.757 181.156 351.492C179.925 350.209 179.31 348.597 179.31 346.656C179.31 344.715 179.925 343.111 181.156 341.846C182.404 340.581 183.972 339.948 185.862 339.948ZM199.41 345.694V353H196.394V340.338H199.332V342.028C199.731 341.335 200.26 340.823 200.918 340.494C201.594 340.147 202.314 339.974 203.076 339.974C204.567 339.974 205.702 340.442 206.482 341.378C207.262 342.314 207.652 343.519 207.652 344.992V353H204.636V345.512C204.636 344.663 204.428 343.987 204.012 343.484C203.596 342.964 202.938 342.704 202.036 342.704C201.204 342.704 200.554 342.99 200.086 343.562C199.636 344.117 199.41 344.827 199.41 345.694ZM215.38 345.694V353H212.364V340.338H215.302V342.028C215.701 341.335 216.229 340.823 216.888 340.494C217.564 340.147 218.283 339.974 219.046 339.974C220.537 339.974 221.672 340.442 222.452 341.378C223.232 342.314 223.622 343.519 223.622 344.992V353H220.606V345.512C220.606 344.663 220.398 343.987 219.982 343.484C219.566 342.964 218.907 342.704 218.006 342.704C217.174 342.704 216.524 342.99 216.056 343.562C215.605 344.117 215.38 344.827 215.38 345.694ZM236.398 351.596C236.103 352.151 235.618 352.584 234.942 352.896C234.283 353.208 233.572 353.364 232.81 353.364C231.336 353.364 230.166 352.887 229.3 351.934C228.45 350.981 228.026 349.776 228.026 348.32V340.338H231.042V347.774C231.042 348.623 231.25 349.317 231.666 349.854C232.082 350.391 232.723 350.66 233.59 350.66C234.439 350.66 235.089 350.4 235.54 349.88C236.008 349.36 236.242 348.675 236.242 347.826V340.338H239.258V350.686C239.258 351.449 239.301 352.22 239.388 353H236.502C236.432 352.619 236.398 352.151 236.398 351.596Z" fill="white"/>
<path opacity="0.8" d="M52.88 388.13V382.78H54.35C55.66 382.78 56.74 383.68 56.74 385.47C56.74 387.25 55.64 388.13 54.33 388.13H52.88ZM54.36 389C56.16 389 57.75 387.79 57.75 385.47C57.75 383.14 56.18 381.91 54.38 381.91H51.9V389H54.36ZM63.8073 389V388.09H60.4773V385.92H63.4973V385H60.4773V382.82H63.8073V381.91H59.4973V389H63.8073ZM70.2278 383.52C70.0678 382.75 69.4278 381.76 67.8278 381.76C66.5178 381.76 65.4878 382.76 65.4878 383.87C65.4878 384.93 66.2078 385.59 67.2178 385.81L68.2278 386.03C68.9378 386.18 69.2878 386.62 69.2878 387.13C69.2878 387.75 68.8078 388.26 67.8278 388.26C66.7578 388.26 66.1978 387.53 66.1278 386.74L65.1878 387.04C65.3178 388.05 66.1278 389.15 67.8378 389.15C69.3478 389.15 70.2878 388.15 70.2878 387.05C70.2878 386.06 69.6278 385.32 68.4478 385.06L67.3878 384.83C66.7878 384.7 66.4778 384.31 66.4778 383.8C66.4778 383.14 67.0478 382.62 67.8478 382.62C68.8378 382.62 69.2678 383.32 69.3478 383.83L70.2278 383.52ZM75.0567 389.15C76.6867 389.15 77.8067 388.2 78.1867 386.87L77.3167 386.55C77.0267 387.52 76.2667 388.25 75.0567 388.25C73.7667 388.25 72.5367 387.3 72.5367 385.45C72.5367 383.6 73.7667 382.66 75.0567 382.66C76.2167 382.66 76.9967 383.26 77.2667 384.33L78.1767 384.01C77.8167 382.64 76.6767 381.76 75.0567 381.76C73.2967 381.76 71.5367 383.08 71.5367 385.45C71.5367 387.82 73.2267 389.15 75.0567 389.15ZM83.5567 389H84.6967L83.0067 386.03C84.0767 385.83 84.7267 385.04 84.7267 384.02C84.7267 382.85 83.8967 381.91 82.5567 381.91H79.8867V389H80.8767V386.1H81.9367L83.5567 389ZM80.8767 385.22V382.79H82.3767C83.1767 382.79 83.7167 383.27 83.7167 384.02C83.7167 384.75 83.1767 385.22 82.3767 385.22H80.8767ZM87.4781 389V381.91H86.4781V389H87.4781ZM90.6609 385.22V382.79H92.0809C92.9309 382.79 93.4509 383.27 93.4509 384.02C93.4509 384.75 92.9309 385.22 92.0809 385.22H90.6609ZM92.2609 386.1C93.5709 386.1 94.4509 385.21 94.4509 384.01C94.4509 382.82 93.5709 381.91 92.2609 381.91H89.6809V389H90.6609V386.1H92.2609ZM100.968 382.82V381.91H95.2477V382.82H97.6177V389H98.5977V382.82H100.968ZM103.366 389V381.91H102.366V389H103.366ZM106.118 385.45C106.118 383.6 107.358 382.66 108.678 382.66C109.998 382.66 111.238 383.6 111.238 385.45C111.238 387.3 109.998 388.25 108.678 388.25C107.358 388.25 106.118 387.3 106.118 385.45ZM105.118 385.45C105.118 387.82 106.898 389.15 108.678 389.15C110.458 389.15 112.238 387.82 112.238 385.45C112.238 383.08 110.458 381.76 108.678 381.76C106.898 381.76 105.118 383.08 105.118 385.45ZM119.816 389V381.91H118.836V387.35L115.296 381.91H113.986V389H114.966V383.22L118.796 389H119.816ZM124.773 388.36C124.773 388.75 125.073 389.05 125.463 389.05C125.853 389.05 126.163 388.75 126.163 388.36C126.163 387.97 125.853 387.66 125.463 387.66C125.073 387.66 124.773 387.97 124.773 388.36ZM124.763 384.84C124.763 385.23 125.063 385.53 125.453 385.53C125.843 385.53 126.153 385.23 126.153 384.84C126.153 384.45 125.843 384.14 125.453 384.14C125.063 384.14 124.763 384.45 124.763 384.84ZM136.734 389L136.064 387.22H133.064L132.404 389H131.134L133.894 381.91H135.284L138.044 389H136.734ZM134.564 383.21L133.484 386.11H135.644L134.564 383.21ZM139.393 381.91H141.833C142.5 381.91 143.026 382.087 143.413 382.44C143.8 382.793 143.993 383.253 143.993 383.82C143.993 384.187 143.896 384.507 143.703 384.78C143.51 385.047 143.256 385.237 142.943 385.35C143.323 385.45 143.63 385.653 143.863 385.96C144.096 386.267 144.213 386.627 144.213 387.04C144.213 387.613 144.01 388.083 143.603 388.45C143.196 388.817 142.666 389 142.013 389H139.393V381.91ZM140.583 384.91H141.673C142.02 384.91 142.293 384.82 142.493 384.64C142.693 384.46 142.793 384.22 142.793 383.92C142.793 383.613 142.69 383.373 142.483 383.2C142.283 383.02 142.003 382.93 141.643 382.93H140.583V384.91ZM140.583 387.98H141.803C142.163 387.98 142.45 387.89 142.663 387.71C142.883 387.523 142.993 387.273 142.993 386.96C142.993 386.647 142.89 386.397 142.683 386.21C142.483 386.017 142.203 385.92 141.843 385.92H140.583V387.98ZM150.527 383.57L149.447 383.91C149.401 383.637 149.264 383.387 149.037 383.16C148.811 382.933 148.484 382.82 148.057 382.82C147.704 382.82 147.411 382.92 147.177 383.12C146.951 383.32 146.837 383.56 146.837 383.84C146.837 384.327 147.114 384.63 147.667 384.75L148.687 384.96C149.301 385.08 149.774 385.323 150.107 385.69C150.441 386.057 150.607 386.493 150.607 387C150.607 387.587 150.381 388.093 149.927 388.52C149.481 388.94 148.871 389.15 148.097 389.15C147.264 389.15 146.614 388.933 146.147 388.5C145.681 388.06 145.417 387.55 145.357 386.97L146.477 386.65C146.517 387.05 146.677 387.387 146.957 387.66C147.237 387.933 147.617 388.07 148.097 388.07C148.511 388.07 148.827 387.98 149.047 387.8C149.274 387.613 149.387 387.377 149.387 387.09C149.387 386.857 149.304 386.657 149.137 386.49C148.971 386.317 148.737 386.197 148.437 386.13L147.437 385.92C146.884 385.807 146.444 385.577 146.117 385.23C145.797 384.883 145.637 384.45 145.637 383.93C145.637 383.337 145.874 382.827 146.347 382.4C146.821 381.973 147.387 381.76 148.047 381.76C148.801 381.76 149.377 381.943 149.777 382.31C150.177 382.67 150.427 383.09 150.527 383.57ZM156.634 389H152.254V381.91H156.634V383.03H153.454V384.91H156.334V386H153.454V387.88H156.634V389ZM164.424 389H163.174L159.674 383.63V389H158.474V381.91H160.004L163.224 386.94V381.91H164.424V389ZM171.61 383.04H169.3V389H168.1V383.04H165.8V381.91H171.61V383.04ZM55.184 406V405.264H52.504V400.328H51.72V406H55.184ZM56.5816 403.16C56.5816 401.68 57.5736 400.928 58.6296 400.928C59.6856 400.928 60.6776 401.68 60.6776 403.16C60.6776 404.64 59.6856 405.4 58.6296 405.4C57.5736 405.4 56.5816 404.64 56.5816 403.16ZM55.7816 403.16C55.7816 405.056 57.2056 406.12 58.6296 406.12C60.0536 406.12 61.4776 405.056 61.4776 403.16C61.4776 401.264 60.0536 400.208 58.6296 400.208C57.2056 400.208 55.7816 401.264 55.7816 403.16ZM66.6085 401.056V400.328H62.0325V401.056H63.9285V406H64.7125V401.056H66.6085ZM69.9349 405.488C69.9349 405.8 70.1749 406.04 70.4869 406.04C70.7989 406.04 71.0469 405.8 71.0469 405.488C71.0469 405.176 70.7989 404.928 70.4869 404.928C70.1749 404.928 69.9349 405.176 69.9349 405.488ZM69.9269 402.672C69.9269 402.984 70.1669 403.224 70.4789 403.224C70.7909 403.224 71.0389 402.984 71.0389 402.672C71.0389 402.36 70.7909 402.112 70.4789 402.112C70.1669 402.112 69.9269 402.36 69.9269 402.672ZM78.8316 406L78.2956 404.576H75.8956L75.3676 406H74.3516L76.5596 400.328H77.6716L79.8796 406H78.8316ZM77.0956 401.368L76.2316 403.688H77.9596L77.0956 401.368ZM80.9591 400.328H82.9111C83.4444 400.328 83.8657 400.469 84.1751 400.752C84.4844 401.035 84.6391 401.403 84.6391 401.856C84.6391 402.149 84.5617 402.405 84.4071 402.624C84.2524 402.837 84.0497 402.989 83.7991 403.08C84.1031 403.16 84.3484 403.323 84.5351 403.568C84.7217 403.813 84.8151 404.101 84.8151 404.432C84.8151 404.891 84.6524 405.267 84.3271 405.56C84.0017 405.853 83.5777 406 83.0551 406H80.9591V400.328ZM81.9111 402.728H82.7831C83.0604 402.728 83.2791 402.656 83.4391 402.512C83.5991 402.368 83.6791 402.176 83.6791 401.936C83.6791 401.691 83.5964 401.499 83.4311 401.36C83.2711 401.216 83.0471 401.144 82.7591 401.144H81.9111V402.728ZM81.9111 405.184H82.8871C83.1751 405.184 83.4044 405.112 83.5751 404.968C83.7511 404.819 83.8391 404.619 83.8391 404.368C83.8391 404.117 83.7564 403.917 83.5911 403.768C83.4311 403.613 83.2071 403.536 82.9191 403.536H81.9111V405.184ZM89.8664 401.656L89.0024 401.928C88.9651 401.709 88.8558 401.509 88.6744 401.328C88.4931 401.147 88.2318 401.056 87.8904 401.056C87.6078 401.056 87.3731 401.136 87.1864 401.296C87.0051 401.456 86.9144 401.648 86.9144 401.872C86.9144 402.261 87.1358 402.504 87.5784 402.6L88.3944 402.768C88.8851 402.864 89.2638 403.059 89.5304 403.352C89.7971 403.645 89.9304 403.995 89.9304 404.4C89.9304 404.869 89.7491 405.275 89.3864 405.616C89.0291 405.952 88.5411 406.12 87.9224 406.12C87.2558 406.12 86.7358 405.947 86.3624 405.6C85.9891 405.248 85.7784 404.84 85.7304 404.376L86.6264 404.12C86.6584 404.44 86.7864 404.709 87.0104 404.928C87.2344 405.147 87.5384 405.256 87.9224 405.256C88.2531 405.256 88.5064 405.184 88.6824 405.04C88.8638 404.891 88.9544 404.701 88.9544 404.472C88.9544 404.285 88.8878 404.125 88.7544 403.992C88.6211 403.853 88.4344 403.757 88.1944 403.704L87.3944 403.536C86.9518 403.445 86.5998 403.261 86.3384 402.984C86.0824 402.707 85.9544 402.36 85.9544 401.944C85.9544 401.469 86.1438 401.061 86.5224 400.72C86.9011 400.379 87.3544 400.208 87.8824 400.208C88.4851 400.208 88.9464 400.355 89.2664 400.648C89.5864 400.936 89.7864 401.272 89.8664 401.656ZM94.7515 406H91.2475V400.328H94.7515V401.224H92.2075V402.728H94.5115V403.6H92.2075V405.104H94.7515V406ZM100.984 406H99.9838L97.1838 401.704V406H96.2238V400.328H97.4478L100.024 404.352V400.328H100.984V406ZM106.733 401.232H104.885V406H103.925V401.232H102.085V400.328H106.733V401.232ZM136.18 406H137.092L135.74 403.624C136.596 403.464 137.116 402.832 137.116 402.016C137.116 401.08 136.452 400.328 135.38 400.328H133.244V406H134.036V403.68H134.884L136.18 406ZM134.036 402.976V401.032H135.236C135.876 401.032 136.308 401.416 136.308 402.016C136.308 402.6 135.876 402.976 135.236 402.976H134.036ZM141.965 406V405.272H139.301V403.536H141.717V402.8H139.301V401.056H141.965V400.328H138.517V406H141.965ZM141.517 398.976H140.477L139.669 399.928H140.421L141.517 398.976ZM148.359 406V403.224H145.647V403.928H147.615C147.583 404.512 147.127 405.408 145.863 405.408C144.847 405.408 143.887 404.664 143.887 403.16C143.887 401.656 144.879 400.928 145.895 400.928C146.775 400.928 147.439 401.408 147.695 402.224L148.407 401.92C148.079 400.896 147.127 400.208 145.895 400.208C144.495 400.208 143.087 401.24 143.087 403.16C143.087 405.08 144.415 406.12 145.839 406.12C146.791 406.12 147.407 405.648 147.655 405.2L147.727 406H148.359ZM150.684 406V400.328H149.884V406H150.684ZM152.886 403.16C152.886 401.68 153.878 400.928 154.934 400.928C155.99 400.928 156.982 401.68 156.982 403.16C156.982 404.64 155.99 405.4 154.934 405.4C153.878 405.4 152.886 404.64 152.886 403.16ZM152.086 403.16C152.086 405.056 153.51 406.12 154.934 406.12C156.358 406.12 157.782 405.056 157.782 403.16C157.782 401.264 156.358 400.208 154.934 400.208C153.51 400.208 152.086 401.264 152.086 403.16ZM163.844 406V400.328H163.06V404.68L160.228 400.328H159.18V406H159.964V401.376L163.028 406H163.844ZM167.81 405.488C167.81 405.8 168.05 406.04 168.362 406.04C168.674 406.04 168.922 405.8 168.922 405.488C168.922 405.176 168.674 404.928 168.362 404.928C168.05 404.928 167.81 405.176 167.81 405.488ZM167.802 402.672C167.802 402.984 168.042 403.224 168.354 403.224C168.666 403.224 168.914 402.984 168.914 402.672C168.914 402.36 168.666 402.112 168.354 402.112C168.042 402.112 167.802 402.36 167.802 402.672ZM176.706 406L176.17 404.576H173.77L173.242 406H172.226L174.434 400.328H175.546L177.754 406H176.706ZM174.97 401.368L174.106 403.688H175.834L174.97 401.368ZM178.834 400.328H180.786C181.319 400.328 181.74 400.469 182.05 400.752C182.359 401.035 182.514 401.403 182.514 401.856C182.514 402.149 182.436 402.405 182.282 402.624C182.127 402.837 181.924 402.989 181.674 403.08C181.978 403.16 182.223 403.323 182.41 403.568C182.596 403.813 182.69 404.101 182.69 404.432C182.69 404.891 182.527 405.267 182.202 405.56C181.876 405.853 181.452 406 180.93 406H178.834V400.328ZM179.786 402.728H180.658C180.935 402.728 181.154 402.656 181.314 402.512C181.474 402.368 181.554 402.176 181.554 401.936C181.554 401.691 181.471 401.499 181.306 401.36C181.146 401.216 180.922 401.144 180.634 401.144H179.786V402.728ZM179.786 405.184H180.762C181.05 405.184 181.279 405.112 181.45 404.968C181.626 404.819 181.714 404.619 181.714 404.368C181.714 404.117 181.631 403.917 181.466 403.768C181.306 403.613 181.082 403.536 180.794 403.536H179.786V405.184ZM187.741 401.656L186.877 401.928C186.84 401.709 186.73 401.509 186.549 401.328C186.368 401.147 186.106 401.056 185.765 401.056C185.482 401.056 185.248 401.136 185.061 401.296C184.88 401.456 184.789 401.648 184.789 401.872C184.789 402.261 185.01 402.504 185.453 402.6L186.269 402.768C186.76 402.864 187.138 403.059 187.405 403.352C187.672 403.645 187.805 403.995 187.805 404.4C187.805 404.869 187.624 405.275 187.261 405.616C186.904 405.952 186.416 406.12 185.797 406.12C185.13 406.12 184.61 405.947 184.237 405.6C183.864 405.248 183.653 404.84 183.605 404.376L184.501 404.12C184.533 404.44 184.661 404.709 184.885 404.928C185.109 405.147 185.413 405.256 185.797 405.256C186.128 405.256 186.381 405.184 186.557 405.04C186.738 404.891 186.829 404.701 186.829 404.472C186.829 404.285 186.762 404.125 186.629 403.992C186.496 403.853 186.309 403.757 186.069 403.704L185.269 403.536C184.826 403.445 184.474 403.261 184.213 402.984C183.957 402.707 183.829 402.36 183.829 401.944C183.829 401.469 184.018 401.061 184.397 400.72C184.776 400.379 185.229 400.208 185.757 400.208C186.36 400.208 186.821 400.355 187.141 400.648C187.461 400.936 187.661 401.272 187.741 401.656ZM192.626 406H189.122V400.328H192.626V401.224H190.082V402.728H192.386V403.6H190.082V405.104H192.626V406ZM198.858 406H197.858L195.058 401.704V406H194.098V400.328H195.322L197.898 404.352V400.328H198.858V406ZM204.608 401.232H202.76V406H201.8V401.232H199.96V400.328H204.608V401.232Z" fill="black"/>
<line opacity="0.8" x1="130" y1="391.75" x2="272" y2="391.75" stroke="black" stroke-width="0.5" stroke-dasharray="0.6 0.6"/>
<line opacity="0.8" x1="74" y1="407.75" x2="108" y2="407.75" stroke="black" stroke-width="0.5" stroke-dasharray="0.6 0.6"/>
<line opacity="0.8" x1="172" y1="407.75" x2="211" y2="407.75" stroke="black" stroke-width="0.5" stroke-dasharray="0.6 0.6"/>
<rect x="0.5" y="310.5" width="289" height="107" stroke="black"/>
<rect x="25" y="379.707" width="18.799" height="18.799" rx="0.5" transform="rotate(45 25 379.707)" fill="#ED712E" stroke="black"/>
<path d="M21.9527 400C18.5217 398.152 17.6184 396.404 18.1349 394.015C18.5161 392.252 19.7646 390.817 19.8843 389.057C20.4176 389.984 20.6404 390.652 20.7 391.621C22.3961 389.636 23.517 386.887 23.5834 384C23.5834 384 28.0012 386.48 28.2911 390.226C28.6714 389.454 28.8629 388.228 28.4826 387.433C29.6235 388.228 36.3015 395.284 27.578 400C29.2181 396.949 28.0011 392.832 25.1535 390.93C25.3436 391.748 25.0102 394.797 23.7504 396.137C24.0995 393.898 23.4183 392.952 23.4183 392.952C23.4183 392.952 23.1844 394.206 22.2773 395.473C21.4489 396.629 20.875 397.857 21.9527 400Z" fill="black"/>
<defs>
<linearGradient id="paint0_linear_537_724" x1="74.6491" y1="141.721" x2="238.314" y2="282.436" gradientUnits="userSpaceOnUse">
<stop stop-color="#8A2387"/>
<stop offset="0.578302" stop-color="#E94057"/>
<stop offset="1" stop-color="#F27121"/>
</linearGradient>
</defs>
</svg>
