<svg width="700" height="370" viewBox="0 0 700 370" fill="none" xmlns="http://www.w3.org/2000/svg">
<g clip-path="url(#clip0_484_495)">
<rect width="700" height="370" fill="transparent"/>
<path d="M30.0059 139.949L30.0275 139.948L30.0491 139.948L93.0996 138.436L100.374 138.261V134.855C105.819 138.079 112.938 139.95 121.942 139.95C133.869 139.95 142.978 136.923 149.571 131.148C150.028 130.748 150.468 130.339 150.892 129.921C151.591 131.131 152.451 132.268 153.489 133.306C157.191 137.008 162.15 138.438 167.151 138.438H177.739H183.934H185.192H191.388H209.384H216.838V133.094C222.922 137.477 230.833 139.95 240.985 139.95C254.326 139.95 264.805 134.346 271.747 125.241C273.1 123.467 274.303 121.58 275.364 119.602C277.52 122.876 280.113 125.793 283.101 128.331C292.558 136.361 305.206 139.95 318.487 139.95C331.702 139.95 344.313 136.356 353.747 128.325C363.354 120.148 368.882 108.029 368.882 92.7308C368.882 77.4947 363.344 65.4141 353.739 57.2618C344.308 49.2564 331.702 45.6628 318.487 45.6628C305.207 45.6628 292.563 49.2512 283.109 57.256C280.126 59.7821 277.535 62.6856 275.38 65.9432C274.313 63.9556 273.1 62.0617 271.736 60.2815C264.783 51.2094 254.303 45.6628 240.985 45.6628C230.833 45.6628 222.922 48.1356 216.838 52.5192V19.8523V12.3988H209.384H185.192H177.739V19.8523V72.2842C175.264 65.3704 171.113 59.7363 165.643 55.4512C156.685 48.4352 145.005 45.6628 133.433 45.6628C121.537 45.6628 110.361 48.8189 101.975 55.3124C93.4085 61.9462 88.1799 71.7756 88.1799 83.81V91.2635H93.3527C90.3325 94.5888 88.4684 98.3977 87.5 102.518L48.5127 103.654V24.3883V16.9348H41.0592H16.8672H9.41366V24.3883V119.796C9.41366 125.323 10.9953 130.71 15.0487 134.66C19.0928 138.6 24.5095 140.049 30.0059 139.949ZM216.838 92.7308C216.838 87.7068 218.213 85.463 219.542 84.3012C221.068 82.9681 224.039 81.7379 229.645 81.7379C235.252 81.7379 238.222 82.9681 239.748 84.3012C241.078 85.463 242.452 87.7068 242.452 92.7308C242.452 97.7567 241.075 100.062 239.713 101.266C238.177 102.626 235.209 103.875 229.645 103.875C224.081 103.875 221.114 102.626 219.577 101.266C218.215 100.062 216.838 97.7567 216.838 92.7308ZM307.041 92.7308C307.041 87.844 308.424 85.4719 309.773 84.2313C311.232 82.8897 313.885 81.7379 318.487 81.7379C322.991 81.7379 325.606 82.8783 327.053 84.2168C328.398 85.4607 329.782 87.8434 329.782 92.7308C329.782 97.7189 328.383 100.139 327.036 101.393C325.594 102.735 322.991 103.875 318.487 103.875C313.885 103.875 311.244 102.723 309.79 101.378C308.439 100.128 307.041 97.7185 307.041 92.7308Z" fill="white" stroke="#2C2C2C" stroke-width="14.9071"/>
<path d="M29.8704 132.496L92.9209 130.984V109.816L41.0592 111.328V24.3883H16.8672V119.796C16.8672 128.112 21.5544 132.648 29.8704 132.496Z" fill="white"/>
<path d="M94.1214 110.119C94.1214 117.981 98.2038 132.496 121.942 132.496C143.261 132.496 150.67 121.761 153.543 109.06H159.591L155.811 118.132V119.644C155.811 126.902 159.893 130.984 167.151 130.984H183.934V109.816H172.897V88.346C172.897 63.2467 154.45 53.1163 133.433 53.1163C112.114 53.1163 95.6334 64.4563 95.6334 83.81H118.313C118.313 76.8548 123.757 72.7724 133.433 72.7724C143.866 72.7724 148.705 76.5524 148.705 82.7516L124.664 86.078C101.984 89.2532 94.1214 96.9644 94.1214 110.119ZM118.313 105.583C118.313 101.198 121.942 100.14 129.2 99.0812L148.705 96.3596C148.705 105.734 139.935 111.328 126.629 111.328C122.547 111.328 118.313 109.968 118.313 105.583Z" fill="white"/>
<path d="M185.192 130.984H209.384V126.297L204.848 112.689H210.896C214.828 122.82 222.085 132.496 240.985 132.496C263.06 132.496 274.098 114.352 274.098 92.7308C274.098 71.1091 263.06 53.1163 240.985 53.1163C222.085 53.1163 214.828 62.7931 210.896 72.9236H204.848L209.384 59.3155V19.8523H185.192V130.984ZM209.384 92.7308C209.384 79.8788 216.642 74.2844 229.645 74.2844C242.648 74.2844 249.906 79.8788 249.906 92.7308C249.906 105.583 242.648 111.328 229.645 111.328C216.642 111.328 209.384 105.583 209.384 92.7308Z" fill="white"/>
<path d="M275.395 92.7308C275.395 119.493 294.446 132.496 318.487 132.496C342.377 132.496 361.428 119.493 361.428 92.7308C361.428 66.1195 342.377 53.1163 318.487 53.1163C294.446 53.1163 275.395 66.1195 275.395 92.7308ZM299.587 92.7308C299.587 80.03 306.996 74.2844 318.487 74.2844C329.827 74.2844 337.236 80.03 337.236 92.7308C337.236 105.583 329.827 111.328 318.487 111.328C306.996 111.328 299.587 105.583 299.587 92.7308Z" fill="white"/>
<path fill-rule="evenodd" clip-rule="evenodd" d="M30.1171 144.207L30.0831 144.207C23.8219 144.321 17.1675 142.671 12.0762 137.71C6.97007 132.735 5.1543 126.105 5.1543 119.796V12.6756H52.7717V99.2693L84.2831 98.3506C84.618 97.3925 85.0016 96.449 85.437 95.5227H83.9205V83.81C83.9205 70.4285 89.7826 59.367 99.3673 51.9449C108.667 44.7433 120.83 41.4037 133.433 41.4037C145.613 41.4037 158.33 44.3131 168.269 52.0982C170.154 53.5752 171.894 55.1925 173.479 56.9449V8.13965H221.097V45.2086C226.756 42.7103 233.368 41.4037 240.985 41.4037C255.605 41.4037 267.344 47.5494 275.116 57.6907C275.325 57.9632 275.531 58.238 275.733 58.515C277.158 56.9124 278.701 55.4077 280.357 54.0055C290.774 45.185 304.486 41.4037 318.487 41.4037C332.428 41.4037 346.102 45.1932 356.495 54.0147C367.16 63.067 373.14 76.3917 373.14 92.7308C373.14 109.124 367.176 122.488 356.508 131.569C346.11 140.419 332.428 144.209 318.487 144.209C304.486 144.209 290.766 140.427 280.344 131.578C278.685 130.169 277.14 128.657 275.713 127.046C275.523 127.307 275.33 127.566 275.134 127.823C267.379 137.995 255.642 144.209 240.985 144.209C233.368 144.209 226.756 142.902 221.097 140.404V142.697H167.151C161.366 142.697 155.193 141.034 150.477 136.318C150.398 136.239 150.32 136.16 150.243 136.08C142.923 141.547 133.44 144.209 121.942 144.209C115.376 144.209 109.606 143.27 104.633 141.508V142.42L30.1171 144.207ZM29.8702 132.496C21.5542 132.648 16.867 128.112 16.867 119.796V24.3883H41.059V111.328L92.9207 109.816V130.984L29.8702 132.496ZM104.633 128.704C108.719 130.998 114.316 132.496 121.942 132.496C132.636 132.496 139.829 129.796 144.706 125.501C146.659 123.78 148.241 121.805 149.527 119.644C149.821 119.15 150.1 118.646 150.365 118.132C150.684 117.513 150.982 116.88 151.26 116.236C151.409 115.893 151.552 115.546 151.689 115.196C152.461 113.232 153.065 111.174 153.543 109.06H159.591L155.811 118.132V119.644C155.811 120.03 155.822 120.406 155.845 120.773C156.022 123.609 156.876 125.903 158.346 127.593C160.272 129.807 163.253 130.984 167.151 130.984H183.934V109.816H172.897V88.346C172.897 63.2468 154.45 53.1164 133.433 53.1164C116.867 53.1164 103.222 59.9636 97.9618 72.0973C96.4709 75.5359 95.6534 79.3991 95.6336 83.6514C95.6333 83.7042 95.6332 83.7571 95.6332 83.81H118.313C118.313 79.954 119.986 76.981 123.126 75.0971C123.132 75.0938 123.137 75.0905 123.143 75.0872C123.677 74.7681 124.252 74.4805 124.87 74.2252C127.169 73.274 130.041 72.7724 133.433 72.7724C134.012 72.7724 134.574 72.784 135.119 72.8071C142.777 73.1313 147.054 75.7111 148.31 79.9001C148.574 80.7814 148.704 81.7339 148.704 82.7516L124.664 86.078C122.402 86.3947 120.287 86.7565 118.313 87.1642C109.449 88.9954 103.417 91.7544 99.5938 95.5227C98.811 96.2942 98.1207 97.108 97.5176 97.9648C95.1951 101.264 94.1654 105.202 94.1226 109.816C94.1217 109.917 94.1212 110.018 94.1212 110.119C94.1212 115.455 96.002 123.857 104.633 128.704ZM148.671 97.3477C148.693 97.0232 148.704 96.6938 148.704 96.3596L129.2 99.0812C128.07 99.246 127.028 99.4108 126.074 99.5881C126.059 99.5909 126.044 99.5937 126.029 99.5965C120.885 100.558 118.313 101.891 118.313 105.583C118.313 109.968 122.547 111.328 126.629 111.328C126.653 111.328 126.676 111.328 126.7 111.328C126.844 111.328 126.988 111.327 127.131 111.326C131.123 111.283 134.694 110.73 137.728 109.717C139.205 109.224 140.555 108.622 141.764 107.916C142.368 107.564 142.937 107.185 143.469 106.782C146.561 104.437 148.406 101.244 148.671 97.3477ZM185.192 130.984H209.384V126.297L204.848 112.689H210.896C211.942 115.385 213.224 118.049 214.898 120.507C215.639 121.595 216.458 122.644 217.367 123.636C218.229 124.577 219.172 125.469 220.208 126.297C220.497 126.528 220.793 126.754 221.097 126.975C225.707 130.33 232.043 132.496 240.985 132.496C254.11 132.496 263.334 126.082 268.655 116.336C272.284 109.691 274.098 101.497 274.098 92.7308C274.098 83.9726 272.287 75.8098 268.665 69.1971C263.345 59.4848 254.118 53.1164 240.985 53.1164C232.043 53.1164 225.707 55.2824 221.097 58.6376C220.793 58.8585 220.497 59.0846 220.208 59.3156C219.172 60.1441 218.229 61.0354 217.367 61.9765C216.471 62.9549 215.663 63.9871 214.93 65.0588C213.241 67.5297 211.949 70.2104 210.896 72.9236H204.848L209.384 59.3156V19.8523H185.192V130.984ZM210.643 84.6363C209.811 86.9233 209.384 89.6136 209.384 92.7308C209.384 95.9064 209.827 98.6482 210.691 100.977C210.757 101.155 210.825 101.33 210.896 101.504C212.456 105.314 215.2 107.959 219.02 109.537C220.17 110.012 221.418 110.391 222.761 110.675C224.834 111.114 227.132 111.328 229.645 111.328C242.648 111.328 249.906 105.583 249.906 92.7308C249.906 79.8788 242.648 74.2844 229.645 74.2844C227.135 74.2844 224.84 74.4928 222.769 74.9215C221.405 75.2038 220.14 75.5816 218.974 76.0584C215.178 77.6113 212.45 80.214 210.896 83.9844C210.808 84.198 210.724 84.4152 210.643 84.6363ZM281.779 115.786C289.325 126.996 302.851 132.496 318.487 132.496C342.377 132.496 361.428 119.493 361.428 92.7308C361.428 66.1196 342.377 53.1164 318.487 53.1164C302.863 53.1164 289.347 58.6082 281.798 69.7578C277.73 75.7646 275.395 83.4137 275.395 92.7308C275.395 102.087 277.723 109.761 281.779 115.786ZM318.487 74.2844C306.996 74.2844 299.587 80.03 299.587 92.7308C299.587 105.583 306.996 111.328 318.487 111.328C329.827 111.328 337.236 105.583 337.236 92.7308C337.236 80.03 329.827 74.2844 318.487 74.2844Z" fill="black"/>
<mask id="path-4-outside-1_484_495" maskUnits="userSpaceOnUse" x="1.11328" y="96.3999" width="700" height="257" fill="black">
<rect fill="white" x="1.11328" y="96.3999" width="700" height="257"/>
<path d="M163.852 158.073L28.3246 143.828L25.1133 174.382L75.527 179.681L62.567 302.987L97.4856 306.657L110.446 183.351L160.641 188.627L163.852 158.073Z"/>
<path d="M141.445 305.615C143.426 316.853 152.919 336.57 186.848 330.588C217.32 325.215 225.204 308.004 226.109 289.127L234.753 287.602L231.637 301.522L232.018 303.683C233.847 314.056 240.711 318.862 251.084 317.033L275.072 312.803L269.737 282.548L253.962 285.33L248.55 254.642C242.225 218.768 213.306 208.937 183.267 214.234C152.796 219.607 132.098 239.969 136.975 267.631L169.392 261.915C167.639 251.974 174.39 244.767 188.221 242.328C203.133 239.699 211.001 243.882 212.563 252.743L179.04 263.556C147.424 273.81 138.129 286.813 141.445 305.615ZM174.879 293.035C173.774 286.768 178.694 284.34 188.8 280.998L215.993 272.193C218.355 285.592 207.231 295.798 188.213 299.151C182.378 300.18 175.984 299.302 174.879 293.035Z"/>
<path d="M336.658 221.451C353.532 222.335 359.047 230.315 357.99 250.476L355.142 304.824L390.205 306.661L393.34 246.835C395.132 212.649 379.027 192.907 350.757 191.426C327.09 190.185 312.468 205.021 307.052 224.514L298.286 224.055L305.894 204.676L306.595 191.309L271.532 189.471L265.732 300.138L300.795 301.976L302.942 260.996C304.573 229.878 317.593 220.452 336.658 221.451Z"/>
<path d="M428.9 197.686C441.462 194.554 447.854 186.628 445.093 175.556C442.386 164.697 432.968 160.486 420.406 163.618C407.843 166.75 401.93 174.783 404.638 185.643C407.398 196.715 416.337 200.818 428.9 197.686ZM414.288 326.849L507.975 303.49L500.543 273.681L470.095 281.272L454.646 219.311C451.673 207.387 443.427 202.432 431.662 206.044L391.737 218.26L399.17 248.07L425.041 240.262L437.304 289.448L406.856 297.039L414.288 326.849Z"/>
<path d="M598.282 304.697L638.166 306.788L603.667 248.066L621.173 241.073C631.057 236.976 635.577 230.401 636.128 219.882L637.391 195.776L602.328 193.939L601.721 213.904L549.882 234.48L554.786 140.906L519.723 139.068L511.282 300.138L546.345 301.976L547.987 270.638L572.909 260.518L598.282 304.697Z"/>
<path d="M659.898 122.4L634.121 127.861L648.761 196.529L674.538 191.068L659.898 122.4Z"/>
</mask>
<path d="M163.852 158.073L28.3246 143.828L25.1133 174.382L75.527 179.681L62.567 302.987L97.4856 306.657L110.446 183.351L160.641 188.627L163.852 158.073Z" fill="url(#paint0_linear_484_495)"/>
<path d="M141.445 305.615C143.426 316.853 152.919 336.57 186.848 330.588C217.32 325.215 225.204 308.004 226.109 289.127L234.753 287.602L231.637 301.522L232.018 303.683C233.847 314.056 240.711 318.862 251.084 317.033L275.072 312.803L269.737 282.548L253.962 285.33L248.55 254.642C242.225 218.768 213.306 208.937 183.267 214.234C152.796 219.607 132.098 239.969 136.975 267.631L169.392 261.915C167.639 251.974 174.39 244.767 188.221 242.328C203.133 239.699 211.001 243.882 212.563 252.743L179.04 263.556C147.424 273.81 138.129 286.813 141.445 305.615ZM174.879 293.035C173.774 286.768 178.694 284.34 188.8 280.998L215.993 272.193C218.355 285.592 207.231 295.798 188.213 299.151C182.378 300.18 175.984 299.302 174.879 293.035Z" fill="url(#paint1_linear_484_495)"/>
<path d="M336.658 221.451C353.532 222.335 359.047 230.315 357.99 250.476L355.142 304.824L390.205 306.661L393.34 246.835C395.132 212.649 379.027 192.907 350.757 191.426C327.09 190.185 312.468 205.021 307.052 224.514L298.286 224.055L305.894 204.676L306.595 191.309L271.532 189.471L265.732 300.138L300.795 301.976L302.942 260.996C304.573 229.878 317.593 220.452 336.658 221.451Z" fill="url(#paint2_linear_484_495)"/>
<path d="M428.9 197.686C441.462 194.554 447.854 186.628 445.093 175.556C442.386 164.697 432.968 160.486 420.406 163.618C407.843 166.75 401.93 174.783 404.638 185.643C407.398 196.715 416.337 200.818 428.9 197.686ZM414.288 326.849L507.975 303.49L500.543 273.681L470.095 281.272L454.646 219.311C451.673 207.387 443.427 202.432 431.662 206.044L391.737 218.26L399.17 248.07L425.041 240.262L437.304 289.448L406.856 297.039L414.288 326.849Z" fill="url(#paint3_linear_484_495)"/>
<path d="M598.282 304.697L638.166 306.788L603.667 248.066L621.173 241.073C631.057 236.976 635.577 230.401 636.128 219.882L637.391 195.776L602.328 193.939L601.721 213.904L549.882 234.48L554.786 140.906L519.723 139.068L511.282 300.138L546.345 301.976L547.987 270.638L572.909 260.518L598.282 304.697Z" fill="url(#paint4_linear_484_495)"/>
<path d="M659.898 122.4L634.121 127.861L648.761 196.529L674.538 191.068L659.898 122.4Z" fill="url(#paint5_linear_484_495)"/>
<path d="M163.852 158.073L185.369 160.334L187.631 138.818L166.114 136.556L163.852 158.073ZM28.3246 143.828L30.5861 122.311L9.06937 120.05L6.80787 141.567L28.3246 143.828ZM25.1133 174.382L3.59654 172.12L1.33504 193.637L22.8518 195.899L25.1133 174.382ZM75.527 179.681L97.0438 181.942L99.3053 160.425L77.7885 158.164L75.527 179.681ZM62.567 302.987L41.0503 300.725L38.7888 322.242L60.3055 324.504L62.567 302.987ZM97.4856 306.657L95.2241 328.174L116.741 330.435L119.002 308.919L97.4856 306.657ZM110.446 183.351L112.707 161.834L91.1904 159.573L88.9289 181.089L110.446 183.351ZM160.641 188.627L158.38 210.143L179.896 212.405L182.158 190.888L160.641 188.627ZM141.445 305.615L120.138 309.372L141.445 305.615ZM186.848 330.588L190.605 351.894L186.848 330.588ZM226.109 289.127L222.352 267.82L205.327 270.822L204.499 288.09L226.109 289.127ZM234.753 287.602L255.866 292.329L262.956 260.66L230.996 266.296L234.753 287.602ZM231.637 301.522L210.524 296.795L209.579 301.017L210.33 305.278L231.637 301.522ZM232.018 303.683L210.711 307.44L210.711 307.44L232.018 303.683ZM251.084 317.033L254.841 338.339L254.841 338.339L251.084 317.033ZM275.072 312.803L278.829 334.11L300.136 330.353L296.379 309.046L275.072 312.803ZM269.737 282.548L291.044 278.791L287.287 257.484L265.981 261.241L269.737 282.548ZM253.962 285.33L232.655 289.086L236.412 310.393L257.718 306.636L253.962 285.33ZM248.55 254.642L269.857 250.885L269.857 250.885L248.55 254.642ZM183.267 214.234L179.51 192.928L183.267 214.234ZM136.975 267.631L115.669 271.388L119.426 292.694L140.732 288.937L136.975 267.631ZM169.392 261.915L173.149 283.221L194.455 279.465L190.698 258.158L169.392 261.915ZM188.221 242.328L184.464 221.022L188.221 242.328ZM212.563 252.743L219.205 273.333L237.142 267.547L233.87 248.986L212.563 252.743ZM179.04 263.556L172.398 242.966L172.382 242.971L172.365 242.976L179.04 263.556ZM188.8 280.998L182.135 260.415L182.071 260.436L182.008 260.457L188.8 280.998ZM215.993 272.193L237.299 268.436L232.982 243.95L209.327 251.61L215.993 272.193ZM188.213 299.151L191.97 320.458L188.213 299.151ZM336.658 221.451L337.79 199.845L336.658 221.451ZM357.99 250.476L379.596 251.609L379.596 251.609L357.99 250.476ZM355.142 304.824L333.537 303.692L332.404 325.297L354.01 326.429L355.142 304.824ZM390.205 306.661L389.073 328.267L410.678 329.399L411.811 307.794L390.205 306.661ZM393.34 246.835L414.946 247.968L393.34 246.835ZM350.757 191.426L349.625 213.031L350.757 191.426ZM307.052 224.514L305.92 246.12L323.251 247.028L327.897 230.306L307.052 224.514ZM298.286 224.055L278.147 216.148L267.178 244.089L297.154 245.66L298.286 224.055ZM305.894 204.676L326.033 212.583L327.316 209.315L327.5 205.809L305.894 204.676ZM306.595 191.309L328.2 192.441L329.333 170.835L307.727 169.703L306.595 191.309ZM271.532 189.471L272.664 167.865L251.059 166.733L249.926 188.339L271.532 189.471ZM265.732 300.138L244.126 299.006L242.994 320.611L264.6 321.744L265.732 300.138ZM300.795 301.976L299.663 323.581L321.268 324.714L322.4 303.108L300.795 301.976ZM302.942 260.996L281.337 259.864L281.337 259.864L302.942 260.996ZM428.9 197.686L434.134 218.679L428.9 197.686ZM445.093 175.556L424.101 180.79L445.093 175.556ZM420.406 163.618L425.64 184.611L420.406 163.618ZM404.638 185.643L383.645 190.877L404.638 185.643ZM414.288 326.849L393.296 332.083L398.53 353.076L419.522 347.841L414.288 326.849ZM507.975 303.49L513.209 324.483L534.202 319.249L528.968 298.256L507.975 303.49ZM500.543 273.681L521.535 268.447L516.301 247.454L495.309 252.688L500.543 273.681ZM470.095 281.272L449.102 286.506L454.336 307.499L475.329 302.265L470.095 281.272ZM454.646 219.311L433.653 224.545L433.653 224.545L454.646 219.311ZM431.662 206.044L437.992 226.732L438.002 226.73L438.012 226.727L431.662 206.044ZM391.737 218.26L385.407 197.572L365.779 203.577L370.745 223.494L391.737 218.26ZM399.17 248.07L378.177 253.304L383.673 275.345L405.42 268.782L399.17 248.07ZM425.041 240.262L446.033 235.028L440.538 212.986L418.79 219.549L425.041 240.262ZM437.304 289.448L442.538 310.44L463.531 305.206L458.297 284.214L437.304 289.448ZM406.856 297.039L401.622 276.047L380.629 281.281L385.863 302.273L406.856 297.039ZM598.282 304.697L579.52 315.472L585.386 325.687L597.149 326.303L598.282 304.697ZM638.166 306.788L637.033 328.393L677.188 330.498L656.82 295.828L638.166 306.788ZM603.667 248.066L595.641 227.974L572.258 237.315L585.013 259.025L603.667 248.066ZM621.173 241.073L629.199 261.164L629.329 261.112L629.458 261.059L621.173 241.073ZM636.128 219.882L657.733 221.014L657.733 221.014L636.128 219.882ZM637.391 195.776L658.997 196.908L660.129 175.303L638.523 174.171L637.391 195.776ZM602.328 193.939L603.461 172.333L581.375 171.176L580.703 193.281L602.328 193.939ZM601.721 213.904L609.703 234.013L622.915 228.769L623.347 214.561L601.721 213.904ZM549.882 234.48L528.277 233.347L526.511 267.033L557.864 254.589L549.882 234.48ZM554.786 140.906L576.392 142.038L577.524 120.432L555.918 119.3L554.786 140.906ZM519.723 139.068L520.856 117.463L499.25 116.33L498.118 137.936L519.723 139.068ZM511.282 300.138L489.676 299.006L488.544 320.611L510.15 321.744L511.282 300.138ZM546.345 301.976L545.213 323.581L566.818 324.714L567.95 303.108L546.345 301.976ZM547.987 270.638L539.847 250.593L527.101 255.769L526.382 269.506L547.987 270.638ZM572.909 260.518L591.671 249.743L582.266 233.367L564.769 240.472L572.909 260.518ZM659.898 122.4L681.057 117.889L676.552 96.7559L655.414 101.234L659.898 122.4ZM634.121 127.861L629.637 106.696L608.445 111.186L612.962 132.372L634.121 127.861ZM648.761 196.529L627.602 201.041L632.107 222.173L653.245 217.695L648.761 196.529ZM674.538 191.068L679.022 212.234L700.214 207.744L695.697 186.557L674.538 191.068ZM166.114 136.556L30.5861 122.311L26.0631 165.345L161.591 179.589L166.114 136.556ZM6.80787 141.567L3.59654 172.12L46.63 176.643L49.8414 146.09L6.80787 141.567ZM22.8518 195.899L73.2655 201.197L77.7885 158.164L27.3748 152.865L22.8518 195.899ZM54.0103 177.419L41.0503 300.725L84.0837 305.248L97.0438 181.942L54.0103 177.419ZM60.3055 324.504L95.2241 328.174L99.7471 285.14L64.8285 281.47L60.3055 324.504ZM119.002 308.919L131.962 185.612L88.9289 181.089L75.9689 304.396L119.002 308.919ZM108.184 204.868L158.38 210.143L162.903 167.11L112.707 161.834L108.184 204.868ZM182.158 190.888L185.369 160.334L142.336 155.811L139.124 186.365L182.158 190.888ZM120.138 309.372C121.685 318.146 126.299 331.399 138.507 341.337C151.393 351.827 169.082 355.689 190.605 351.894L183.092 309.281C170.685 311.469 166.664 308.463 165.825 307.78C164.309 306.546 163.186 304.321 162.751 301.858L120.138 309.372ZM190.605 351.894C209.463 348.569 224.389 340.971 234.431 328.473C244.272 316.225 247.148 302.071 247.719 290.163L204.499 288.09C204.164 295.059 202.646 298.949 200.701 301.37C198.957 303.54 194.706 307.233 183.092 309.281L190.605 351.894ZM229.866 310.433L238.51 308.909L230.996 266.296L222.352 267.82L229.866 310.433ZM213.641 282.875L210.524 296.795L252.75 306.248L255.866 292.329L213.641 282.875ZM210.33 305.278L210.711 307.44L253.325 299.926L252.944 297.765L210.33 305.278ZM210.711 307.44C212.318 316.548 216.73 326.209 225.938 332.656C235.145 339.103 245.733 339.946 254.841 338.339L247.327 295.726C246.063 295.949 248.032 295.303 250.757 297.211C253.481 299.119 253.548 301.19 253.325 299.926L210.711 307.44ZM254.841 338.339L278.829 334.11L271.315 291.497L247.327 295.726L254.841 338.339ZM296.379 309.046L291.044 278.791L248.431 286.305L253.766 316.56L296.379 309.046ZM265.981 261.241L250.205 264.023L257.718 306.636L273.494 303.854L265.981 261.241ZM275.268 281.573L269.857 250.885L227.244 258.399L232.655 289.086L275.268 281.573ZM269.857 250.885C265.668 227.127 253.249 209.65 234.982 199.909C217.617 190.648 197.569 189.743 179.51 192.928L187.024 235.541C199.004 233.428 208.436 234.791 214.621 238.089C219.905 240.907 225.108 246.283 227.244 258.399L269.857 250.885ZM179.51 192.928C160.739 196.237 143.173 204.459 130.85 218.028C118.079 232.09 112.042 250.818 115.669 271.388L158.282 263.874C157.031 256.782 158.905 251.498 162.881 247.12C167.305 242.249 175.324 237.604 187.024 235.541L179.51 192.928ZM140.732 288.937L173.149 283.221L165.635 240.608L133.218 246.324L140.732 288.937ZM190.698 258.158C190.757 258.489 190.859 259.522 190.454 260.94C190.038 262.398 189.292 263.535 188.611 264.248C187.996 264.892 187.697 264.924 188.243 264.673C188.796 264.419 189.973 263.988 191.978 263.635L184.464 221.022C174.971 222.696 164.841 226.484 157.314 234.368C149.014 243.061 146.104 254.438 148.085 265.672L190.698 258.158ZM191.978 263.635C194.477 263.194 196.056 263.155 196.88 263.201C197.707 263.248 197.405 263.358 196.467 262.933C195.404 262.451 194.01 261.492 192.85 259.937C191.729 258.433 191.36 257.088 191.256 256.5L233.87 248.986C231.96 238.158 225.426 228.55 214.329 223.521C204.641 219.13 193.925 219.354 184.464 221.022L191.978 263.635ZM205.921 232.152L172.398 242.966L185.682 284.147L219.205 273.333L205.921 232.152ZM172.365 242.976C155.281 248.517 140.436 255.886 130.671 267.353C119.732 280.199 117.625 295.118 120.138 309.372L162.751 301.858C161.949 297.31 162.832 296.327 163.615 295.407C165.572 293.109 171.182 288.849 185.715 284.136L172.365 242.976ZM196.186 289.278C196.439 290.718 196.611 293.618 195.259 297.005C193.923 300.35 191.852 302.281 190.81 303.081C189.94 303.749 189.608 303.771 190.693 303.309C191.7 302.879 193.207 302.329 195.593 301.54L182.008 260.457C177.559 261.928 170.202 264.351 164.461 268.758C161.064 271.366 157.338 275.288 155.075 280.955C152.795 286.664 152.766 292.218 153.572 296.792L196.186 289.278ZM195.466 301.581L222.658 292.776L209.327 251.61L182.135 260.415L195.466 301.581ZM194.686 275.95C194.687 275.953 194.658 275.782 194.68 275.475C194.703 275.163 194.772 274.814 194.892 274.469C195.149 273.732 195.449 273.534 195.176 273.795C194.398 274.538 191.359 276.627 184.456 277.844L191.97 320.458C204.084 318.321 216.117 313.631 225.065 305.083C234.718 295.862 239.839 282.839 237.299 268.436L194.686 275.95ZM184.456 277.844C183.315 278.046 184.488 277.546 187.002 278.437C188.526 278.978 190.741 280.123 192.747 282.37C194.827 284.7 195.831 287.264 196.186 289.278L153.572 296.792C155.629 308.453 163.584 316.044 172.543 319.22C179.989 321.86 187.276 321.285 191.97 320.458L184.456 277.844ZM335.526 243.057C338.263 243.2 339.141 243.579 338.995 243.519C338.863 243.464 338.46 243.277 337.938 242.877C337.402 242.467 336.918 241.967 336.536 241.44C335.776 240.391 335.932 239.966 336.167 241.305C336.415 242.716 336.601 245.223 336.385 249.344L379.596 251.609C380.173 240.607 379.534 227.021 371.56 216.03C362.605 203.686 349.004 200.433 337.79 199.845L335.526 243.057ZM336.385 249.344L333.537 303.692L376.748 305.956L379.596 251.609L336.385 249.344ZM354.01 326.429L389.073 328.267L391.337 285.056L356.275 283.218L354.01 326.429ZM411.811 307.794L414.946 247.968L371.735 245.703L368.599 305.529L411.811 307.794ZM414.946 247.968C416.017 227.525 411.904 208.315 400.373 193.55C388.498 178.344 371.08 170.826 351.889 169.82L349.625 213.031C358.703 213.507 363.473 216.601 366.27 220.183C369.411 224.205 372.455 231.959 371.735 245.703L414.946 247.968ZM351.889 169.82C334.972 168.933 320.021 173.869 308.325 183.478C296.921 192.849 289.847 205.619 286.206 218.722L327.897 230.306C329.673 223.916 332.618 219.522 335.795 216.911C338.681 214.54 342.875 212.677 349.625 213.031L351.889 169.82ZM308.184 202.908L299.418 202.449L297.154 245.66L305.92 246.12L308.184 202.908ZM318.425 231.961L326.033 212.583L285.755 196.77L278.147 216.148L318.425 231.961ZM327.5 205.809L328.2 192.441L284.989 190.176L284.288 203.544L327.5 205.809ZM307.727 169.703L272.664 167.865L270.4 211.077L305.462 212.914L307.727 169.703ZM249.926 188.339L244.126 299.006L287.338 301.27L293.137 190.603L249.926 188.339ZM264.6 321.744L299.663 323.581L301.927 280.37L266.864 278.532L264.6 321.744ZM322.4 303.108L324.548 262.128L281.337 259.864L279.189 300.843L322.4 303.108ZM324.548 262.128C325.246 248.809 328.247 244.815 328.914 244.116C329.135 243.885 329.367 243.69 330.04 243.479C330.891 243.213 332.586 242.902 335.526 243.057L337.79 199.845C324.521 199.15 309.312 201.981 297.611 214.242C286.594 225.787 282.27 242.065 281.337 259.864L324.548 262.128ZM434.134 218.679C443.415 216.365 453.272 211.601 460.039 202.595C467.305 192.926 468.817 181.276 466.086 170.322L424.101 180.79C424.167 181.057 424.001 180.565 424.177 179.548C424.364 178.47 424.832 177.419 425.446 176.602C426.014 175.846 426.432 175.65 426.207 175.782C425.961 175.925 425.186 176.315 423.666 176.694L434.134 218.679ZM466.086 170.322C463.357 159.375 456.51 149.903 445.704 144.786C435.565 139.986 424.616 140.271 415.172 142.626L425.64 184.611C427.096 184.248 427.924 184.235 428.187 184.247C428.428 184.258 427.995 184.277 427.187 183.894C426.319 183.484 425.452 182.81 424.797 181.97C424.172 181.169 424.061 180.631 424.101 180.79L466.086 170.322ZM415.172 142.626C405.726 144.981 395.878 149.886 389.249 159.076C382.224 168.814 381.012 180.314 383.645 190.877L425.63 180.409C425.553 180.097 425.709 180.514 425.56 181.454C425.401 182.458 424.974 183.513 424.342 184.39C423.133 186.066 422.523 185.388 425.64 184.611L415.172 142.626ZM383.645 190.877C386.28 201.446 392.711 211.137 403.63 216.447C413.863 221.424 424.855 220.992 434.134 218.679L423.666 176.694C422.141 177.074 421.338 177.077 421.154 177.069C421.007 177.062 421.593 177.067 422.556 177.535C423.585 178.035 424.495 178.803 425.122 179.638C425.702 180.409 425.734 180.826 425.63 180.409L383.645 190.877ZM419.522 347.841L513.209 324.483L502.741 282.497L409.054 305.856L419.522 347.841ZM528.968 298.256L521.535 268.447L479.55 278.915L486.983 308.724L528.968 298.256ZM495.309 252.688L464.861 260.28L475.329 302.265L505.777 294.673L495.309 252.688ZM491.087 276.038L475.639 214.077L433.653 224.545L449.102 286.506L491.087 276.038ZM475.639 214.077C473.231 204.421 467.814 194.268 457.354 188.165C446.771 181.99 435.13 182.347 425.313 185.361L438.012 226.727C438.986 226.427 439.111 226.548 438.55 226.516C437.901 226.478 436.773 226.253 435.548 225.539C434.335 224.831 433.658 224.013 433.394 223.611C433.172 223.275 433.382 223.457 433.653 224.545L475.639 214.077ZM425.332 185.356L385.407 197.572L398.067 238.948L437.992 226.732L425.332 185.356ZM370.745 223.494L378.177 253.304L420.162 242.835L412.73 213.026L370.745 223.494ZM405.42 268.782L431.291 260.975L418.79 219.549L392.919 227.357L405.42 268.782ZM404.048 245.496L416.312 294.682L458.297 284.214L446.033 235.028L404.048 245.496ZM432.07 268.455L401.622 276.047L412.09 318.032L442.538 310.44L432.07 268.455ZM385.863 302.273L393.296 332.083L435.281 321.615L427.848 291.805L385.863 302.273ZM597.149 326.303L637.033 328.393L639.298 285.182L599.414 283.092L597.149 326.303ZM656.82 295.828L622.321 237.107L585.013 259.025L619.511 317.747L656.82 295.828ZM611.693 268.157L629.199 261.164L613.147 220.981L595.641 227.974L611.693 268.157ZM629.458 261.059C637.137 257.876 644.486 252.975 649.863 245.309C655.229 237.659 657.308 229.14 657.733 221.014L614.522 218.75C614.458 219.972 614.303 220.582 614.246 220.769C614.203 220.913 614.238 220.746 614.437 220.462C614.637 220.177 614.787 220.08 614.681 220.16C614.536 220.267 614.022 220.616 612.889 221.086L629.458 261.059ZM657.733 221.014L658.997 196.908L615.786 194.644L614.522 218.75L657.733 221.014ZM638.523 174.171L603.461 172.333L601.196 215.544L636.259 217.382L638.523 174.171ZM580.703 193.281L580.096 213.246L623.347 214.561L623.954 194.596L580.703 193.281ZM593.74 193.794L541.9 214.371L557.864 254.589L609.703 234.013L593.74 193.794ZM571.488 235.612L576.392 142.038L533.181 139.773L528.277 233.347L571.488 235.612ZM555.918 119.3L520.856 117.463L518.591 160.674L553.654 162.511L555.918 119.3ZM498.118 137.936L489.676 299.006L532.888 301.27L541.329 140.2L498.118 137.936ZM510.15 321.744L545.213 323.581L547.477 280.37L512.414 278.532L510.15 321.744ZM567.95 303.108L569.593 271.77L526.382 269.506L524.739 300.843L567.95 303.108ZM556.127 290.684L581.049 280.563L564.769 240.472L539.847 250.593L556.127 290.684ZM554.148 271.292L579.52 315.472L617.043 293.923L591.671 249.743L554.148 271.292ZM655.414 101.234L629.637 106.696L638.605 149.027L664.382 143.565L655.414 101.234ZM612.962 132.372L627.602 201.041L669.921 192.018L655.281 123.35L612.962 132.372ZM653.245 217.695L679.022 212.234L670.054 169.903L644.277 175.364L653.245 217.695ZM695.697 186.557L681.057 117.889L638.738 126.911L653.378 195.579L695.697 186.557Z" fill="#2C2C2C" mask="url(#path-4-outside-1_484_495)"/>
<mask id="path-6-outside-2_484_495" maskUnits="userSpaceOnUse" x="6.11328" y="124.828" width="177" height="201" fill="black">
<rect fill="white" x="6.11328" y="124.828" width="177" height="201"/>
<path d="M163.852 158.073L28.3246 143.828L25.1133 174.382L75.527 179.681L62.567 302.987L97.4856 306.657L110.446 183.351L160.641 188.627L163.852 158.073Z"/>
</mask>
<path d="M163.852 158.073L28.3246 143.828L25.1133 174.382L75.527 179.681L62.567 302.987L97.4856 306.657L110.446 183.351L160.641 188.627L163.852 158.073Z" fill="url(#paint6_linear_484_495)"/>
<path d="M163.852 158.073L180.758 159.85L182.535 142.944L165.629 141.167L163.852 158.073ZM28.3246 143.828L30.1015 126.922L13.1955 125.145L11.4186 142.051L28.3246 143.828ZM25.1133 174.382L8.20727 172.605L6.43038 189.511L23.3364 191.288L25.1133 174.382ZM75.527 179.681L92.433 181.458L94.2099 164.552L77.3039 162.775L75.527 179.681ZM62.567 302.987L45.661 301.21L43.8841 318.116L60.7901 319.893L62.567 302.987ZM97.4856 306.657L95.7087 323.563L112.615 325.34L114.392 308.434L97.4856 306.657ZM110.446 183.351L112.223 166.445L95.3165 164.668L93.5396 181.574L110.446 183.351ZM160.641 188.627L158.864 205.533L175.77 207.31L177.547 190.404L160.641 188.627ZM165.629 141.167L30.1015 126.922L26.5477 160.734L162.076 174.979L165.629 141.167ZM11.4186 142.051L8.20727 172.605L42.0193 176.159L45.2306 145.605L11.4186 142.051ZM23.3364 191.288L73.7501 196.587L77.3039 162.775L26.8902 157.476L23.3364 191.288ZM58.621 177.904L45.661 301.21L79.473 304.764L92.433 181.458L58.621 177.904ZM60.7901 319.893L95.7087 323.563L99.2625 289.751L64.3439 286.081L60.7901 319.893ZM114.392 308.434L127.352 185.128L93.5396 181.574L80.5796 304.88L114.392 308.434ZM108.669 200.257L158.864 205.533L162.418 171.721L112.223 166.445L108.669 200.257ZM177.547 190.404L180.758 159.85L146.946 156.296L143.735 186.85L177.547 190.404Z" fill="black" mask="url(#path-6-outside-2_484_495)"/>
<mask id="path-8-outside-3_484_495" maskUnits="userSpaceOnUse" x="119.263" y="195.897" width="176" height="153" fill="black">
<rect fill="white" x="119.263" y="195.897" width="176" height="153"/>
<path d="M141.445 305.615C143.426 316.853 152.919 336.57 186.848 330.588C217.32 325.215 225.204 308.004 226.109 289.127L234.753 287.602L231.637 301.521L232.018 303.683C233.847 314.056 240.711 318.862 251.084 317.033L275.072 312.803L269.737 282.548L253.961 285.329L248.55 254.642C242.225 218.768 213.306 208.937 183.267 214.234C152.796 219.607 132.098 239.969 136.975 267.631L169.392 261.915C167.639 251.974 174.39 244.767 188.221 242.328C203.132 239.699 211.001 243.882 212.563 252.743L179.04 263.556C147.424 273.81 138.129 286.813 141.445 305.615ZM174.879 293.035C173.774 286.767 178.694 284.34 188.8 280.998L215.992 272.193C218.355 285.591 207.231 295.798 188.213 299.151C182.378 300.18 175.984 299.302 174.879 293.035Z"/>
</mask>
<path d="M141.445 305.615C143.426 316.853 152.919 336.57 186.848 330.588C217.32 325.215 225.204 308.004 226.109 289.127L234.753 287.602L231.637 301.521L232.018 303.683C233.847 314.056 240.711 318.862 251.084 317.033L275.072 312.803L269.737 282.548L253.961 285.329L248.55 254.642C242.225 218.768 213.306 208.937 183.267 214.234C152.796 219.607 132.098 239.969 136.975 267.631L169.392 261.915C167.639 251.974 174.39 244.767 188.221 242.328C203.132 239.699 211.001 243.882 212.563 252.743L179.04 263.556C147.424 273.81 138.129 286.813 141.445 305.615ZM174.879 293.035C173.774 286.767 178.694 284.34 188.8 280.998L215.992 272.193C218.355 285.591 207.231 295.798 188.213 299.151C182.378 300.18 175.984 299.302 174.879 293.035Z" fill="url(#paint7_linear_484_495)"/>
<path d="M141.445 305.615L124.704 308.567L141.445 305.615ZM186.848 330.588L189.8 347.329L186.848 330.588ZM226.109 289.127L223.157 272.386L209.78 274.744L209.129 288.312L226.109 289.127ZM234.753 287.602L251.342 291.316L256.913 266.434L231.801 270.861L234.753 287.602ZM231.637 301.521L215.048 297.807L214.306 301.125L214.896 304.473L231.637 301.521ZM232.018 303.683L215.277 306.634L215.277 306.634L232.018 303.683ZM251.084 317.033L248.132 300.292L248.132 300.292L251.084 317.033ZM275.072 312.803L278.024 329.544L294.765 326.592L291.813 309.851L275.072 312.803ZM269.737 282.548L286.478 279.596L283.526 262.855L266.786 265.807L269.737 282.548ZM253.961 285.329L237.221 288.281L240.172 305.022L256.913 302.07L253.961 285.329ZM248.55 254.642L265.291 251.69L265.291 251.69L248.55 254.642ZM183.267 214.234L180.315 197.493L183.267 214.234ZM136.975 267.631L120.234 270.583L123.186 287.324L139.927 284.372L136.975 267.631ZM169.392 261.915L172.343 278.656L189.084 275.704L186.132 258.963L169.392 261.915ZM188.221 242.328L185.269 225.587L188.221 242.328ZM212.563 252.743L217.781 268.921L231.875 264.375L229.304 249.791L212.563 252.743ZM179.04 263.556L173.821 247.378L173.808 247.382L173.795 247.386L179.04 263.556ZM188.8 280.998L183.563 264.826L183.513 264.842L183.463 264.859L188.8 280.998ZM215.992 272.193L232.733 269.241L229.341 250.002L210.755 256.02L215.992 272.193ZM188.213 299.151L191.165 315.892L188.213 299.151ZM124.704 308.567C126.132 316.665 130.372 328.736 141.434 337.742C153.029 347.181 169.254 350.951 189.8 347.329L183.896 313.847C170.514 316.207 165.028 313.109 162.898 311.376C160.236 309.209 158.739 305.803 158.185 302.663L124.704 308.567ZM189.8 347.329C207.881 344.14 221.664 336.96 230.817 325.569C239.812 314.374 242.543 301.32 243.088 289.941L209.129 288.312C208.77 295.811 207.106 300.8 204.315 304.273C201.682 307.55 196.287 311.662 183.896 313.847L189.8 347.329ZM229.061 305.867L237.705 304.343L231.801 270.861L223.157 272.386L229.061 305.867ZM218.165 283.888L215.048 297.807L248.225 305.235L251.342 291.316L218.165 283.888ZM214.896 304.473L215.277 306.634L248.759 300.731L248.378 298.57L214.896 304.473ZM215.277 306.634C216.735 314.903 220.668 323.307 228.597 328.858C236.525 334.41 245.768 335.232 254.036 333.774L248.132 300.292C247.082 300.477 246.682 300.393 246.783 300.41C246.841 300.419 247.013 300.455 247.264 300.555C247.518 300.656 247.806 300.805 248.097 301.009C248.388 301.212 248.627 301.432 248.809 301.636C248.989 301.838 249.081 301.988 249.11 302.039C249.16 302.128 248.944 301.781 248.759 300.731L215.277 306.634ZM254.036 333.774L278.024 329.544L272.12 296.062L248.132 300.292L254.036 333.774ZM291.813 309.851L286.478 279.596L252.997 285.5L258.331 315.755L291.813 309.851ZM266.786 265.807L251.01 268.589L256.913 302.07L272.689 299.289L266.786 265.807ZM270.702 282.378L265.291 251.69L231.809 257.594L237.221 288.281L270.702 282.378ZM265.291 251.69C261.322 229.179 249.676 212.999 232.801 203.999C216.633 195.377 197.723 194.424 180.315 197.493L186.219 230.975C198.85 228.748 209.419 230.061 216.802 233.998C223.477 237.558 229.453 244.23 231.809 257.594L265.291 251.69ZM180.315 197.493C162.301 200.67 145.759 208.508 134.282 221.145C122.453 234.169 116.862 251.457 120.234 270.583L153.716 264.679C152.211 256.143 154.53 249.419 159.449 244.003C164.719 238.2 173.761 233.172 186.219 230.975L180.315 197.493ZM139.927 284.372L172.343 278.656L166.44 245.174L134.023 250.89L139.927 284.372ZM186.132 258.963C186.084 258.691 186.185 259.006 185.996 259.668C185.798 260.361 185.45 260.845 185.258 261.047C185.117 261.194 185.329 260.911 186.305 260.462C187.285 260.01 188.856 259.478 191.173 259.069L185.269 225.587C176.328 227.164 167.266 230.657 160.667 237.57C153.461 245.118 150.907 254.975 152.651 264.867L186.132 258.963ZM191.173 259.069C193.935 258.582 195.88 258.502 197.14 258.573C198.403 258.644 198.686 258.849 198.381 258.71C197.977 258.527 197.223 258.046 196.567 257.166C195.942 256.327 195.82 255.682 195.822 255.695L229.304 249.791C227.636 240.334 221.997 232.086 212.415 227.744C203.94 223.903 194.3 223.995 185.269 225.587L191.173 259.069ZM207.344 236.565L173.821 247.378L184.258 279.734L217.781 268.921L207.344 236.565ZM173.795 247.386C156.985 252.838 143.129 259.874 134.201 270.359C124.35 281.927 122.374 295.353 124.704 308.567L158.185 302.663C157.2 297.075 158.214 294.599 160.085 292.402C162.879 289.121 169.479 284.528 184.284 279.726L173.795 247.386ZM191.62 290.083C191.76 290.878 191.917 292.873 190.953 295.285C190.003 297.665 188.553 298.969 187.986 299.404C187.555 299.735 187.622 299.578 188.874 299.044C190.065 298.536 191.721 297.937 194.137 297.138L183.463 264.859C178.885 266.373 172.299 268.585 167.284 272.435C164.362 274.678 161.258 277.973 159.38 282.675C157.489 287.409 157.445 292.057 158.138 295.987L191.62 290.083ZM194.037 297.171L221.23 288.365L210.755 256.02L183.563 264.826L194.037 297.171ZM199.252 275.145C199.315 275.506 199.311 275.72 199.304 275.815C199.297 275.905 199.283 275.955 199.27 275.994C199.256 276.035 199.114 276.444 198.378 277.147C196.725 278.726 192.723 281.094 185.261 282.41L191.165 315.892C202.721 313.854 213.79 309.443 221.863 301.731C230.489 293.49 234.982 281.993 232.733 269.241L199.252 275.145ZM185.261 282.41C184.692 282.51 184.345 282.519 184.244 282.517C184.109 282.513 184.586 282.5 185.453 282.807C186.386 283.138 187.894 283.895 189.288 285.457C190.742 287.085 191.4 288.837 191.62 290.083L158.138 295.987C159.872 305.821 166.525 312.168 174.092 314.851C180.471 317.112 186.851 316.652 191.165 315.892L185.261 282.41Z" fill="black" mask="url(#path-8-outside-3_484_495)"/>
<mask id="path-10-outside-4_484_495" maskUnits="userSpaceOnUse" x="247.732" y="171.471" width="163" height="154" fill="black">
<rect fill="white" x="247.732" y="171.471" width="163" height="154"/>
<path d="M336.658 221.451C353.532 222.335 359.047 230.315 357.99 250.476L355.142 304.824L390.205 306.661L393.34 246.835C395.132 212.649 379.026 192.907 350.757 191.426C327.09 190.185 312.468 205.021 307.052 224.514L298.286 224.055L305.894 204.676L306.595 191.309L271.532 189.471L265.732 300.138L300.795 301.976L302.942 260.996C304.573 229.878 317.593 220.452 336.658 221.451Z"/>
</mask>
<path d="M336.658 221.451C353.532 222.335 359.047 230.315 357.99 250.476L355.142 304.824L390.205 306.661L393.34 246.835C395.132 212.649 379.026 192.907 350.757 191.426C327.09 190.185 312.468 205.021 307.052 224.514L298.286 224.055L305.894 204.676L306.595 191.309L271.532 189.471L265.732 300.138L300.795 301.976L302.942 260.996C304.573 229.878 317.593 220.452 336.658 221.451Z" fill="url(#paint8_linear_484_495)"/>
<path d="M336.658 221.451L337.548 204.475L336.658 221.451ZM357.99 250.476L374.966 251.366L374.966 251.366L357.99 250.476ZM355.142 304.824L338.166 303.934L337.277 320.91L354.252 321.8L355.142 304.824ZM390.205 306.661L389.315 323.637L406.291 324.527L407.181 307.551L390.205 306.661ZM393.34 246.835L410.316 247.725L393.34 246.835ZM350.757 191.426L349.867 208.401L350.757 191.426ZM307.052 224.514L306.162 241.49L319.78 242.203L323.43 229.065L307.052 224.514ZM298.286 224.055L282.463 217.842L273.844 239.796L297.396 241.03L298.286 224.055ZM305.894 204.676L321.717 210.888L322.725 208.321L322.87 205.566L305.894 204.676ZM306.595 191.309L323.57 192.198L324.46 175.222L307.484 174.333L306.595 191.309ZM271.532 189.471L272.421 172.495L255.446 171.605L254.556 188.581L271.532 189.471ZM265.732 300.138L248.756 299.248L247.866 316.224L264.842 317.114L265.732 300.138ZM300.795 301.976L299.905 318.951L316.881 319.841L317.771 302.865L300.795 301.976ZM302.942 260.996L319.918 261.886L319.918 261.886L302.942 260.996ZM335.768 238.427C338.823 238.587 340.265 239.027 340.766 239.234C341.034 239.345 340.639 239.199 340.289 238.717C340.051 238.389 340.413 238.679 340.733 240.502C341.064 242.382 341.241 245.269 341.015 249.587L374.966 251.366C375.532 240.562 374.792 228.38 367.808 218.752C360.052 208.062 348.166 205.031 337.548 204.475L335.768 238.427ZM341.015 249.587L338.166 303.934L372.118 305.713L374.966 251.366L341.015 249.587ZM354.252 321.8L389.315 323.637L391.095 289.686L356.032 287.848L354.252 321.8ZM407.181 307.551L410.316 247.725L376.364 245.946L373.229 305.772L407.181 307.551ZM410.316 247.725C411.35 228 407.351 210.018 396.719 196.403C385.817 182.443 369.754 175.399 351.647 174.45L349.867 208.401C360.029 208.934 366.154 212.502 369.924 217.329C373.964 222.503 377.122 231.484 376.364 245.946L410.316 247.725ZM351.647 174.45C335.819 173.62 322.021 178.226 311.269 187.06C300.746 195.706 294.114 207.579 290.673 219.963L323.43 229.065C325.406 221.956 328.793 216.664 332.852 213.329C336.682 210.182 342.028 207.99 349.867 208.401L351.647 174.45ZM307.941 207.538L299.176 207.079L297.396 241.03L306.162 241.49L307.941 207.538ZM314.109 230.267L321.717 210.888L290.071 198.464L282.463 217.842L314.109 230.267ZM322.87 205.566L323.57 192.198L289.619 190.419L288.918 203.787L322.87 205.566ZM307.484 174.333L272.421 172.495L270.642 206.447L305.705 208.284L307.484 174.333ZM254.556 188.581L248.756 299.248L282.708 301.028L288.508 190.361L254.556 188.581ZM264.842 317.114L299.905 318.951L301.684 285L266.622 283.162L264.842 317.114ZM317.771 302.865L319.918 261.886L285.967 260.106L283.819 301.086L317.771 302.865ZM319.918 261.886C320.641 248.086 323.784 242.776 325.56 240.916C326.798 239.618 329.172 238.081 335.768 238.427L337.548 204.475C325.079 203.822 311.41 206.498 300.965 217.443C291.057 227.825 286.874 242.787 285.967 260.106L319.918 261.886Z" fill="black" mask="url(#path-10-outside-4_484_495)"/>
<mask id="path-12-outside-5_484_495" maskUnits="userSpaceOnUse" x="370.737" y="145.609" width="158" height="202" fill="black">
<rect fill="white" x="370.737" y="145.609" width="158" height="202"/>
<path d="M428.9 197.686C441.462 194.554 447.854 186.628 445.094 175.556C442.386 164.697 432.968 160.486 420.406 163.618C407.843 166.75 401.93 174.783 404.638 185.643C407.398 196.715 416.337 200.818 428.9 197.686ZM414.288 326.849L507.975 303.49L500.543 273.681L470.095 281.272L454.646 219.311C451.673 207.387 443.427 202.432 431.662 206.044L391.737 218.26L399.17 248.07L425.041 240.262L437.304 289.448L406.856 297.039L414.288 326.849Z"/>
</mask>
<path d="M428.9 197.686C441.462 194.554 447.854 186.628 445.094 175.556C442.386 164.697 432.968 160.486 420.406 163.618C407.843 166.75 401.93 174.783 404.638 185.643C407.398 196.715 416.337 200.818 428.9 197.686ZM414.288 326.849L507.975 303.49L500.543 273.681L470.095 281.272L454.646 219.311C451.673 207.387 443.427 202.432 431.662 206.044L391.737 218.26L399.17 248.07L425.041 240.262L437.304 289.448L406.856 297.039L414.288 326.849Z" fill="url(#paint9_linear_484_495)"/>
<path d="M428.9 197.686L433.012 214.18L428.9 197.686ZM445.094 175.556L428.599 179.668L445.094 175.556ZM420.406 163.618L424.518 180.112L420.406 163.618ZM404.638 185.643L388.144 189.755L404.638 185.643ZM414.288 326.849L397.794 330.961L401.907 347.456L418.401 343.343L414.288 326.849ZM507.975 303.49L512.088 319.984L528.582 315.872L524.469 299.378L507.975 303.49ZM500.543 273.681L517.037 269.568L512.925 253.074L496.431 257.186L500.543 273.681ZM470.095 281.272L453.601 285.385L457.713 301.879L474.207 297.766L470.095 281.272ZM454.646 219.311L438.152 223.424L438.152 223.424L454.646 219.311ZM431.662 206.044L436.636 222.299L436.643 222.297L436.651 222.295L431.662 206.044ZM391.737 218.26L386.764 202.005L371.341 206.724L375.243 222.372L391.737 218.26ZM399.17 248.07L382.675 252.182L386.993 269.5L404.081 264.344L399.17 248.07ZM425.041 240.262L441.535 236.15L437.217 218.831L420.13 223.988L425.041 240.262ZM437.304 289.448L441.417 305.942L457.911 301.83L453.798 285.335L437.304 289.448ZM406.856 297.039L402.744 280.545L386.249 284.658L390.362 301.152L406.856 297.039ZM433.012 214.18C441.65 212.027 450.411 207.691 456.333 199.81C462.647 191.408 464.03 181.237 461.588 171.443L428.599 179.668C428.8 180.471 428.694 180.636 428.745 180.34C428.805 179.997 428.973 179.626 429.153 179.387C429.428 179.02 428.712 180.214 424.787 181.192L433.012 214.18ZM461.588 171.443C459.153 161.679 453.124 153.429 443.72 148.976C434.84 144.772 425.06 144.938 416.293 147.124L424.518 180.112C428.314 179.166 429.524 179.872 429.171 179.704C428.946 179.598 428.655 179.378 428.454 179.12C428.276 178.892 428.423 178.962 428.599 179.668L461.588 171.443ZM416.293 147.124C407.525 149.31 398.798 153.762 393.009 161.788C386.909 170.245 385.784 180.292 388.144 189.755L421.132 181.53C420.926 180.704 421.019 180.488 420.982 180.727C420.935 181.017 420.789 181.391 420.582 181.677C420.213 182.189 420.724 181.059 424.518 180.112L416.293 147.124ZM388.144 189.755C390.51 199.246 396.189 207.673 405.658 212.278C414.588 216.621 424.376 216.334 433.012 214.18L424.787 181.192C422.917 181.658 421.661 181.732 420.949 181.7C420.266 181.67 420.217 181.553 420.528 181.704C420.892 181.881 421.228 182.173 421.416 182.423C421.567 182.624 421.362 182.451 421.132 181.53L388.144 189.755ZM418.401 343.343L512.088 319.984L503.863 286.996L410.176 310.355L418.401 343.343ZM524.469 299.378L517.037 269.568L484.049 277.793L491.481 307.603L524.469 299.378ZM496.431 257.186L465.982 264.778L474.207 297.766L504.655 290.175L496.431 257.186ZM486.589 277.16L471.14 215.199L438.152 223.424L453.601 285.385L486.589 277.16ZM471.14 215.199C468.93 206.334 464.073 197.452 455.018 192.169C445.866 186.829 435.648 187.038 426.673 189.793L436.651 222.295C438.047 221.866 438.728 221.882 438.818 221.887C438.854 221.889 438.757 221.887 438.563 221.83C438.364 221.773 438.127 221.676 437.884 221.534C437.35 221.223 437.177 220.927 437.264 221.059C437.384 221.241 437.78 221.93 438.152 223.424L471.14 215.199ZM426.688 189.789L386.764 202.005L396.711 234.515L436.636 222.299L426.688 189.789ZM375.243 222.372L382.675 252.182L415.664 243.957L408.231 214.148L375.243 222.372ZM404.081 264.344L429.952 256.536L420.13 223.988L394.258 231.795L404.081 264.344ZM408.547 244.375L420.81 293.56L453.798 285.335L441.535 236.15L408.547 244.375ZM433.192 272.954L402.744 280.545L410.968 313.534L441.417 305.942L433.192 272.954ZM390.362 301.152L397.794 330.961L430.783 322.736L423.35 292.927L390.362 301.152Z" fill="black" mask="url(#path-12-outside-5_484_495)"/>
<mask id="path-14-outside-6_484_495" maskUnits="userSpaceOnUse" x="493.282" y="121.068" width="176" height="205" fill="black">
<rect fill="white" x="493.282" y="121.068" width="176" height="205"/>
<path d="M598.282 304.697L638.166 306.788L603.667 248.066L621.174 241.072C631.057 236.976 635.577 230.401 636.128 219.882L637.391 195.776L602.329 193.939L601.722 213.903L549.882 234.48L554.786 140.906L519.724 139.068L511.282 300.138L546.345 301.976L547.987 270.638L572.909 260.518L598.282 304.697Z"/>
</mask>
<path d="M598.282 304.697L638.166 306.788L603.667 248.066L621.174 241.072C631.057 236.976 635.577 230.401 636.128 219.882L637.391 195.776L602.329 193.939L601.722 213.903L549.882 234.48L554.786 140.906L519.724 139.068L511.282 300.138L546.345 301.976L547.987 270.638L572.909 260.518L598.282 304.697Z" fill="url(#paint10_linear_484_495)"/>
<path d="M598.282 304.697L583.541 313.163L588.15 321.189L597.392 321.673L598.282 304.697ZM638.166 306.788L637.276 323.763L668.826 325.417L652.823 298.177L638.166 306.788ZM603.667 248.066L597.361 232.28L578.989 239.619L589.01 256.677L603.667 248.066ZM621.174 241.072L627.48 256.859L627.581 256.818L627.683 256.776L621.174 241.072ZM636.128 219.882L619.152 218.992L619.152 218.992L636.128 219.882ZM637.391 195.776L654.367 196.666L655.257 179.69L638.281 178.8L637.391 195.776ZM602.329 193.939L603.218 176.963L585.865 176.053L585.337 193.422L602.329 193.939ZM601.722 213.903L607.993 229.703L618.374 225.583L618.713 214.42L601.722 213.903ZM549.882 234.48L532.907 233.59L531.519 260.057L556.154 250.28L549.882 234.48ZM554.786 140.906L571.762 141.795L572.652 124.82L555.676 123.93L554.786 140.906ZM519.724 139.068L520.613 122.092L503.637 121.203L502.748 138.178L519.724 139.068ZM511.282 300.138L494.306 299.248L493.417 316.224L510.393 317.114L511.282 300.138ZM546.345 301.976L545.455 318.951L562.431 319.841L563.321 302.865L546.345 301.976ZM547.987 270.638L541.591 254.888L531.577 258.955L531.012 269.748L547.987 270.638ZM572.909 260.518L587.651 252.052L580.261 239.185L566.513 244.768L572.909 260.518ZM597.392 321.673L637.276 323.763L639.055 289.812L599.172 287.722L597.392 321.673ZM652.823 298.177L618.324 239.455L589.01 256.677L623.509 315.398L652.823 298.177ZM609.973 263.852L627.48 256.859L614.867 225.286L597.361 232.28L609.973 263.852ZM627.683 256.776C634.775 253.836 641.321 249.414 646.068 242.647C650.805 235.892 652.71 228.283 653.104 220.771L619.152 218.992C618.995 222 618.364 222.937 618.233 223.124C618.111 223.298 617.456 224.212 614.664 225.369L627.683 256.776ZM653.104 220.771L654.367 196.666L620.416 194.886L619.152 218.992L653.104 220.771ZM638.281 178.8L603.218 176.963L601.439 210.914L636.502 212.752L638.281 178.8ZM585.337 193.422L584.73 213.387L618.713 214.42L619.32 194.455L585.337 193.422ZM595.45 198.103L543.611 218.68L556.154 250.28L607.993 229.703L595.45 198.103ZM566.858 235.369L571.762 141.795L537.811 140.016L532.907 233.59L566.858 235.369ZM555.676 123.93L520.613 122.092L518.834 156.044L553.897 157.882L555.676 123.93ZM502.748 138.178L494.306 299.248L528.258 301.028L536.699 139.958L502.748 138.178ZM510.393 317.114L545.455 318.951L547.235 285L512.172 283.162L510.393 317.114ZM563.321 302.865L564.963 271.528L531.012 269.748L529.369 301.086L563.321 302.865ZM554.383 286.388L579.305 276.268L566.513 244.768L541.591 254.888L554.383 286.388ZM558.168 268.983L583.541 313.163L613.023 296.232L587.651 252.052L558.168 268.983Z" fill="black" mask="url(#path-14-outside-6_484_495)"/>
<mask id="path-16-outside-7_484_495" maskUnits="userSpaceOnUse" x="613.121" y="101.4" width="82" height="116" fill="black">
<rect fill="white" x="613.121" y="101.4" width="82" height="116"/>
<path d="M659.898 122.4L634.121 127.861L648.761 196.529L674.538 191.068L659.898 122.4Z"/>
</mask>
<path d="M659.898 122.4L634.121 127.861L648.761 196.529L674.538 191.068L659.898 122.4Z" fill="url(#paint11_linear_484_495)"/>
<path d="M659.898 122.4L676.523 118.855L672.983 102.251L656.374 105.77L659.898 122.4ZM634.121 127.861L630.598 111.231L613.947 114.759L617.496 131.406L634.121 127.861ZM648.761 196.529L632.136 200.074L635.676 216.678L652.284 213.159L648.761 196.529ZM674.538 191.068L678.061 207.698L694.712 204.17L691.163 187.524L674.538 191.068ZM656.374 105.77L630.598 111.231L637.644 144.491L663.421 139.03L656.374 105.77ZM617.496 131.406L632.136 200.074L665.387 192.985L650.747 124.317L617.496 131.406ZM652.284 213.159L678.061 207.698L671.014 174.438L645.238 179.899L652.284 213.159ZM691.163 187.524L676.523 118.855L643.272 125.944L657.912 194.613L691.163 187.524Z" fill="black" mask="url(#path-16-outside-7_484_495)"/>
</g>
<defs>
<linearGradient id="paint0_linear_484_495" x1="247.953" y1="56.9768" x2="365.596" y2="462.226" gradientUnits="userSpaceOnUse">
<stop stop-color="#1F228B"/>
<stop offset="1" stop-color="#90D5F2"/>
</linearGradient>
<linearGradient id="paint1_linear_484_495" x1="247.953" y1="56.9768" x2="365.596" y2="462.226" gradientUnits="userSpaceOnUse">
<stop stop-color="#1F228B"/>
<stop offset="1" stop-color="#90D5F2"/>
</linearGradient>
<linearGradient id="paint2_linear_484_495" x1="247.953" y1="56.9768" x2="365.596" y2="462.226" gradientUnits="userSpaceOnUse">
<stop stop-color="#1F228B"/>
<stop offset="1" stop-color="#90D5F2"/>
</linearGradient>
<linearGradient id="paint3_linear_484_495" x1="247.953" y1="56.9768" x2="365.596" y2="462.226" gradientUnits="userSpaceOnUse">
<stop stop-color="#1F228B"/>
<stop offset="1" stop-color="#90D5F2"/>
</linearGradient>
<linearGradient id="paint4_linear_484_495" x1="247.953" y1="56.9768" x2="365.596" y2="462.226" gradientUnits="userSpaceOnUse">
<stop stop-color="#1F228B"/>
<stop offset="1" stop-color="#90D5F2"/>
</linearGradient>
<linearGradient id="paint5_linear_484_495" x1="247.953" y1="56.9768" x2="365.596" y2="462.226" gradientUnits="userSpaceOnUse">
<stop stop-color="#1F228B"/>
<stop offset="1" stop-color="#90D5F2"/>
</linearGradient>
<linearGradient id="paint6_linear_484_495" x1="3.53316" y1="94.9712" x2="192.662" y2="211.181" gradientUnits="userSpaceOnUse">
<stop stop-color="#A1FFCE"/>
<stop offset="1" stop-color="#FAFFD1"/>
</linearGradient>
<linearGradient id="paint7_linear_484_495" x1="114.672" y1="177.251" x2="267.107" y2="305.696" gradientUnits="userSpaceOnUse">
<stop stop-color="#A1FFCE"/>
<stop offset="1" stop-color="#FAFFD1"/>
</linearGradient>
<linearGradient id="paint8_linear_484_495" x1="245.862" y1="154.308" x2="394.13" y2="270.858" gradientUnits="userSpaceOnUse">
<stop stop-color="#A1FFCE"/>
<stop offset="1" stop-color="#FAFFD1"/>
</linearGradient>
<linearGradient id="paint9_linear_484_495" x1="373.657" y1="113.329" x2="546.829" y2="201.711" gradientUnits="userSpaceOnUse">
<stop stop-color="#A1FFCE"/>
<stop offset="1" stop-color="#FAFFD1"/>
</linearGradient>
<linearGradient id="paint10_linear_484_495" x1="491.546" y1="88.7435" x2="675.166" y2="188.918" gradientUnits="userSpaceOnUse">
<stop stop-color="#A1FFCE"/>
<stop offset="1" stop-color="#FAFFD1"/>
</linearGradient>
<linearGradient id="paint11_linear_484_495" x1="627.835" y1="100.157" x2="693.57" y2="126.003" gradientUnits="userSpaceOnUse">
<stop stop-color="#A1FFCE"/>
<stop offset="1" stop-color="#FAFFD1"/>
</linearGradient>
<clipPath id="clip0_484_495">
<rect width="700" height="370" fill="white"/>
</clipPath>
</defs>
</svg>
