<svg viewBox="0 0 260 260" fill="none" xmlns="http://www.w3.org/2000/svg"><path d="M34.2874 114.415C46.2451 58.6917 101.27 23.1101 156.993 35.0678c55.724 11.9577 91.306 66.9822 79.348 122.7062-11.958 55.723-66.983 91.305-122.706 79.347-55.7237-11.957-91.3053-66.982-79.3476-122.706Z" fill="#000" stroke="url(#a)" stroke-width="2"/><path d="M132.276 150.255c5.93 1.272 11.769-2.504 13.041-8.434 1.273-5.93-2.503-11.769-8.433-13.041-5.93-1.273-11.769 2.503-13.041 8.433-1.273 5.93 2.503 11.769 8.433 13.042Z" stroke="url(#b)" stroke-width="2" stroke-linejoin="round"/><path d="m119.118 136.199-36.077-7.741c-4.1013 19.112 2.6582 37.859 16.1844 50.197l24.7666-27.482c-3.957-3.545-6.118-9.176-4.874-14.974Z" stroke="url(#c)" stroke-width="2" stroke-linejoin="round"/><path d="m145.167 127.862 24.767-27.482c-13.741-12.3837-33.237-16.7919-51.324-11.014l11.31 35.224c5.109-1.824 10.907-.58 15.247 3.272Z" stroke="url(#d)" stroke-width="2" stroke-linejoin="round"/><path d="M150.041 142.835c-1.244 5.798-5.525 10.046-10.588 11.655l11.311 35.224c17.351-5.487 31.253-20.025 35.354-39.137l-36.077-7.742Z" stroke="url(#e)" stroke-width="2" stroke-linejoin="round"/><path d="M23.2874 102.415C35.2451 46.6917 90.2699 11.1101 145.993 23.0678c55.724 11.9577 91.306 66.9824 79.348 122.7062-11.958 55.723-66.983 91.305-122.706 79.347-55.7237-11.957-91.3053-66.982-79.3476-122.706Z" fill="#000" stroke="url(#f)" stroke-width="2"/><path d="M121.276 138.255c5.93 1.272 11.769-2.504 13.041-8.434 1.273-5.93-2.503-11.769-8.433-13.041-5.93-1.273-11.769 2.503-13.041 8.433-1.273 5.93 2.503 11.769 8.433 13.042Z" stroke="url(#g)" stroke-width="2" stroke-linejoin="round"/><path d="m108.118 124.199-36.077-7.741c-4.1013 19.112 2.6582 37.859 16.1844 50.197l24.7666-27.482c-3.957-3.545-6.118-9.176-4.874-14.974Z" stroke="url(#h)" stroke-width="2" stroke-linejoin="round"/><path d="m134.167 115.862 24.767-27.4823c-13.741-12.3834-33.237-16.7916-51.324-11.0137l11.31 35.224c5.109-1.824 10.907-.58 15.247 3.272Z" stroke="url(#i)" stroke-width="2" stroke-linejoin="round"/><path d="M139.041 130.835c-1.244 5.798-5.525 10.046-10.588 11.655l11.311 35.224c17.351-5.487 31.253-20.025 35.354-39.137l-36.077-7.742Z" stroke="url(#j)" stroke-width="2" stroke-linejoin="round"/><defs><linearGradient id="a" x1="36.602" y1="-55.8219" x2="249.634" y2="180.013" gradientUnits="userSpaceOnUse"><stop stop-color="#A1FFCE"/><stop offset="1" stop-color="#FAFFD1"/></linearGradient><linearGradient id="b" x1="124.189" y1="119.316" x2="146.614" y2="144.14" gradientUnits="userSpaceOnUse"><stop stop-color="#A1FFCE"/><stop offset="1" stop-color="#FAFFD1"/></linearGradient><linearGradient id="c" x1="79.1029" y1="113.593" x2="125.616" y2="164.143" gradientUnits="userSpaceOnUse"><stop stop-color="#A1FFCE"/><stop offset="1" stop-color="#FAFFD1"/></linearGradient><linearGradient id="d" x1="114.555" y1="69.3462" x2="153.929" y2="128.18" gradientUnits="userSpaceOnUse"><stop stop-color="#A1FFCE"/><stop offset="1" stop-color="#FAFFD1"/></linearGradient><linearGradient id="e" x1="138.372" y1="126.311" x2="184.885" y2="176.862" gradientUnits="userSpaceOnUse"><stop stop-color="#A1FFCE"/><stop offset="1" stop-color="#FAFFD1"/></linearGradient><linearGradient id="f" x1="25.602" y1="-67.8219" x2="238.634" y2="168.013" gradientUnits="userSpaceOnUse"><stop stop-color="#A1FFCE"/><stop offset="1" stop-color="#FAFFD1"/></linearGradient><linearGradient id="g" x1="113.189" y1="107.316" x2="135.614" y2="132.14" gradientUnits="userSpaceOnUse"><stop stop-color="#A1FFCE"/><stop offset="1" stop-color="#FAFFD1"/></linearGradient><linearGradient id="h" x1="68.1029" y1="101.593" x2="114.616" y2="152.143" gradientUnits="userSpaceOnUse"><stop stop-color="#A1FFCE"/><stop offset="1" stop-color="#FAFFD1"/></linearGradient><linearGradient id="i" x1="103.555" y1="57.3462" x2="142.929" y2="116.18" gradientUnits="userSpaceOnUse"><stop stop-color="#A1FFCE"/><stop offset="1" stop-color="#FAFFD1"/></linearGradient><linearGradient id="j" x1="127.372" y1="114.311" x2="173.885" y2="164.862" gradientUnits="userSpaceOnUse"><stop stop-color="#A1FFCE"/><stop offset="1" stop-color="#FAFFD1"/></linearGradient></defs></svg>