<svg width="224" height="417" viewBox="0 0 224 417" fill="none" xmlns="http://www.w3.org/2000/svg">
<mask id="path-1-inside-1_562_982" fill="white">
<path fill-rule="evenodd" clip-rule="evenodd" d="M136.5 10.4902H70.0593V83.1914C29.3169 97.072 0 135.779 0 181.356C0 238.597 46.2399 285 103.28 285C160.32 285 206.56 238.597 206.56 181.356C206.56 163.561 202.09 146.812 194.216 132.18L208.983 113.78L209.83 114.46C213.395 117.321 218.604 116.75 221.465 113.185C224.326 109.621 223.755 104.412 220.191 101.551L188.076 75.7764C184.512 72.9154 179.303 73.4859 176.442 77.0506C173.681 80.4899 174.115 85.4598 177.351 88.3748L167.729 100.364C158.485 92.9468 147.943 87.09 136.5 83.1914V10.4902Z"/>
</mask>
<path fill-rule="evenodd" clip-rule="evenodd" d="M136.5 10.4902H70.0593V83.1914C29.3169 97.072 0 135.779 0 181.356C0 238.597 46.2399 285 103.28 285C160.32 285 206.56 238.597 206.56 181.356C206.56 163.561 202.09 146.812 194.216 132.18L208.983 113.78L209.83 114.46C213.395 117.321 218.604 116.75 221.465 113.185C224.326 109.621 223.755 104.412 220.191 101.551L188.076 75.7764C184.512 72.9154 179.303 73.4859 176.442 77.0506C173.681 80.4899 174.115 85.4598 177.351 88.3748L167.729 100.364C158.485 92.9468 147.943 87.09 136.5 83.1914V10.4902Z" fill="white"/>
<path d="M70.0593 10.4902V9.49023H69.0593V10.4902H70.0593ZM136.5 10.4902H137.5V9.49023H136.5V10.4902ZM70.0593 83.1914L70.3818 84.138L71.0593 83.9071V83.1914H70.0593ZM194.216 132.18L193.436 131.554L193.022 132.071L193.336 132.654L194.216 132.18ZM208.983 113.78L209.609 113L208.829 112.374L208.203 113.154L208.983 113.78ZM209.83 114.46L209.204 115.239L209.204 115.239L209.83 114.46ZM221.465 113.185L222.245 113.811L222.245 113.811L221.465 113.185ZM220.191 101.551L219.565 102.331L219.565 102.331L220.191 101.551ZM188.076 75.7764L188.702 74.9965L188.702 74.9965L188.076 75.7764ZM176.442 77.0506L177.222 77.6765L177.222 77.6765L176.442 77.0506ZM177.351 88.3748L178.131 89.0007L178.722 88.264L178.02 87.6318L177.351 88.3748ZM167.729 100.364L167.103 101.144L167.883 101.77L168.509 100.99L167.729 100.364ZM136.5 83.1914H135.5V83.9072L136.178 84.138L136.5 83.1914ZM70.0593 11.4902H136.5V9.49023H70.0593V11.4902ZM71.0593 83.1914V10.4902H69.0593V83.1914H71.0593ZM1 181.356C1 136.218 30.034 97.8842 70.3818 84.138L69.7368 82.2448C28.5999 96.2599 -1 135.339 -1 181.356H1ZM103.28 284C46.7955 284 1 238.048 1 181.356H-1C-1 239.146 45.6843 286 103.28 286V284ZM205.56 181.356C205.56 238.048 159.764 284 103.28 284V286C160.875 286 207.56 239.146 207.56 181.356H205.56ZM193.336 132.654C201.133 147.144 205.56 163.73 205.56 181.356H207.56C207.56 163.391 203.047 146.48 195.097 131.706L193.336 132.654ZM208.203 113.154L193.436 131.554L194.996 132.806L209.763 114.406L208.203 113.154ZM210.456 113.68L209.609 113L208.357 114.56L209.204 115.239L210.456 113.68ZM220.685 112.559C218.17 115.693 213.59 116.195 210.456 113.68L209.204 115.239C213.199 118.446 219.038 117.807 222.245 113.811L220.685 112.559ZM219.565 102.331C222.699 104.846 223.2 109.425 220.685 112.559L222.245 113.811C225.451 109.816 224.812 103.977 220.816 100.771L219.565 102.331ZM187.451 76.5563L219.565 102.331L220.816 100.771L188.702 74.9965L187.451 76.5563ZM177.222 77.6765C179.737 74.5425 184.317 74.041 187.451 76.5563L188.702 74.9965C184.707 71.7898 178.869 72.4292 175.662 76.4247L177.222 77.6765ZM178.02 87.6318C175.176 85.0696 174.795 80.7 177.222 77.6765L175.662 76.4247C172.568 80.2798 173.054 85.8499 176.681 89.1177L178.02 87.6318ZM168.509 100.99L178.131 89.0007L176.571 87.7489L166.949 99.7383L168.509 100.99ZM136.178 84.138C147.509 87.9984 157.948 93.7982 167.103 101.144L168.355 99.5843C159.022 92.0955 148.378 86.1816 136.823 82.2449L136.178 84.138ZM135.5 10.4902V83.1914H137.5V10.4902H135.5Z" fill="black" mask="url(#path-1-inside-1_562_982)"/>
<mask id="path-3-inside-2_562_982" fill="white">
<path fill-rule="evenodd" clip-rule="evenodd" d="M21.7229 181.443C22.0288 180.85 25.7107 173.912 32.6036 169.713C33.0508 169.44 33.4948 169.16 33.9453 168.875C40.7537 164.57 49.0623 159.316 92.6212 167.312C121.812 172.671 131.687 166.288 139.944 160.951C144.824 157.797 149.138 155.009 156.54 155.224C175.743 155.781 184.395 172.273 184.64 181.443H184.766C184.766 192.186 182.657 202.824 178.56 212.75C174.464 222.675 168.459 231.694 160.889 239.291C153.319 246.887 144.332 252.913 134.441 257.025C124.55 261.136 113.949 263.252 103.243 263.252C92.5378 263.252 81.9369 261.136 72.0461 257.025C62.1553 252.913 53.1684 246.887 45.5983 239.291C38.0282 231.694 32.0233 222.675 27.9264 212.75C23.8347 202.837 21.7262 192.213 21.7209 181.483L21.7021 181.483C21.7021 181.483 21.7084 181.471 21.7209 181.446C21.7209 181.445 21.7209 181.444 21.7209 181.443H21.7229Z"/>
</mask>
<path fill-rule="evenodd" clip-rule="evenodd" d="M21.7229 181.443C22.0288 180.85 25.7107 173.912 32.6036 169.713C33.0508 169.44 33.4948 169.16 33.9453 168.875C40.7537 164.57 49.0623 159.316 92.6212 167.312C121.812 172.671 131.687 166.288 139.944 160.951C144.824 157.797 149.138 155.009 156.54 155.224C175.743 155.781 184.395 172.273 184.64 181.443H184.766C184.766 192.186 182.657 202.824 178.56 212.75C174.464 222.675 168.459 231.694 160.889 239.291C153.319 246.887 144.332 252.913 134.441 257.025C124.55 261.136 113.949 263.252 103.243 263.252C92.5378 263.252 81.9369 261.136 72.0461 257.025C62.1553 252.913 53.1684 246.887 45.5983 239.291C38.0282 231.694 32.0233 222.675 27.9264 212.75C23.8347 202.837 21.7262 192.213 21.7209 181.483L21.7021 181.483C21.7021 181.483 21.7084 181.471 21.7209 181.446C21.7209 181.445 21.7209 181.444 21.7209 181.443H21.7229Z" fill="url(#paint0_linear_562_982)"/>
<path d="M21.7229 181.443V182.443H22.3322L22.6116 181.901L21.7229 181.443ZM32.6036 169.713L32.0833 168.859L32.6036 169.713ZM33.9453 168.875L33.4109 168.03L33.4109 168.03L33.9453 168.875ZM92.6212 167.312L92.8017 166.329L92.6212 167.312ZM139.944 160.951L140.487 161.791L140.487 161.791L139.944 160.951ZM156.54 155.224L156.569 154.224L156.54 155.224ZM184.64 181.443L183.64 181.469L183.666 182.443H184.64V181.443ZM184.766 181.443H185.766V180.443H184.766V181.443ZM178.56 212.75L177.636 212.368L177.636 212.368L178.56 212.75ZM134.441 257.025L134.825 257.948L134.825 257.948L134.441 257.025ZM72.0461 257.025L71.6623 257.948L71.6623 257.948L72.0461 257.025ZM45.5983 239.291L46.3066 238.585L46.3066 238.585L45.5983 239.291ZM27.9264 212.75L28.8508 212.368L28.8508 212.368L27.9264 212.75ZM21.7209 181.483L22.7209 181.483L22.7204 180.489L21.7268 180.483L21.7209 181.483ZM21.7021 181.483L20.808 181.035L20.0877 182.474L21.6963 182.483L21.7021 181.483ZM21.7209 181.446L22.6098 181.904L22.7209 181.689L22.7209 181.446L21.7209 181.446ZM21.7209 181.443V180.443H20.7209V181.443H21.7209ZM22.6116 181.901C22.8974 181.347 26.475 174.618 33.1239 170.567L32.0833 168.859C24.9465 173.207 21.1601 180.352 20.8342 180.984L22.6116 181.901ZM33.1239 170.567C33.5794 170.289 34.0304 170.004 34.4797 169.72L33.4109 168.03C32.9591 168.315 32.5222 168.591 32.0833 168.859L33.1239 170.567ZM34.4797 169.72C37.8172 167.61 41.445 165.306 49.6031 164.475C57.8358 163.638 70.6932 164.304 92.4406 168.296L92.8017 166.329C70.9903 162.325 57.914 161.619 49.4006 162.486C40.8125 163.36 36.8818 165.835 33.4109 168.03L34.4797 169.72ZM92.4406 168.296C107.121 170.991 117.03 170.75 124.35 169.119C131.686 167.484 136.346 164.467 140.487 161.791L139.401 160.111C135.285 162.772 130.879 165.615 123.915 167.167C116.937 168.721 107.313 168.993 92.8017 166.329L92.4406 168.296ZM140.487 161.791C145.355 158.645 149.442 156.018 156.511 156.223L156.569 154.224C148.835 153.999 144.292 156.95 139.401 160.111L140.487 161.791ZM156.511 156.223C165.802 156.493 172.51 160.606 176.941 165.756C181.398 170.936 183.524 177.134 183.64 181.469L185.639 181.416C185.51 176.581 183.188 169.949 178.457 164.451C173.701 158.923 166.482 154.512 156.569 154.224L156.511 156.223ZM184.64 182.443H184.766V180.443H184.64V182.443ZM183.766 181.443C183.766 192.055 181.683 202.564 177.636 212.368L179.485 213.131C183.632 203.085 185.766 192.317 185.766 181.443H183.766ZM177.636 212.368C173.589 222.173 167.658 231.081 160.18 238.585L161.597 239.996C169.26 232.307 175.338 223.178 179.485 213.131L177.636 212.368ZM160.18 238.585C152.703 246.088 143.826 252.04 134.057 256.101L134.825 257.948C144.837 253.786 153.934 247.686 161.597 239.996L160.18 238.585ZM134.057 256.101C124.288 260.162 113.817 262.252 103.243 262.252V264.252C114.081 264.252 124.812 262.11 134.825 257.948L134.057 256.101ZM103.243 262.252C92.6696 262.252 82.1991 260.162 72.4299 256.101L71.6623 257.948C81.6746 262.11 92.4059 264.252 103.243 264.252V262.252ZM72.4299 256.101C62.6608 252.04 53.784 246.088 46.3066 238.585L44.8899 239.996C52.5527 247.686 61.6499 253.786 71.6623 257.948L72.4299 256.101ZM46.3066 238.585C38.8293 231.081 32.8977 222.173 28.8508 212.368L27.0021 213.131C31.1489 223.178 37.2272 232.307 44.8899 239.996L46.3066 238.585ZM28.8508 212.368C24.809 202.576 22.7262 192.082 22.7209 181.483L20.7209 181.484C20.7263 192.344 22.8605 203.097 27.0021 213.131L28.8508 212.368ZM21.7268 180.483L21.708 180.483L21.6963 182.483L21.715 182.483L21.7268 180.483ZM21.7021 181.483C22.5963 181.931 22.5963 181.931 22.5963 181.931C22.5963 181.931 22.5963 181.931 22.5963 181.931C22.5963 181.931 22.5963 181.931 22.5962 181.931C22.5962 181.931 22.5962 181.931 22.5962 181.931C22.5962 181.931 22.5962 181.931 22.5961 181.931C22.5961 181.931 22.5961 181.931 22.596 181.931C22.596 181.932 22.596 181.932 22.5959 181.932C22.5959 181.932 22.596 181.932 22.5962 181.931C22.5965 181.93 22.5973 181.929 22.5984 181.927C22.6007 181.922 22.6045 181.915 22.6098 181.904L20.832 180.988C20.8248 181.002 20.8192 181.013 20.8153 181.021C20.8133 181.025 20.8117 181.028 20.8105 181.031C20.8098 181.032 20.8093 181.033 20.8089 181.034C20.8087 181.034 20.8086 181.034 20.8084 181.035C20.8083 181.035 20.8083 181.035 20.8082 181.035C20.8082 181.035 20.8081 181.035 20.8081 181.035C20.8081 181.035 20.8081 181.035 20.8081 181.035C20.808 181.035 20.808 181.035 20.808 181.035C20.808 181.035 20.808 181.035 20.808 181.035C20.808 181.035 20.808 181.035 21.7021 181.483ZM22.7209 181.446C22.7209 181.445 22.7209 181.444 22.7209 181.443H20.7209C20.7209 181.444 20.7209 181.446 20.7209 181.446L22.7209 181.446ZM21.7209 182.443H21.7229V180.443H21.7209V182.443Z" fill="black" mask="url(#path-3-inside-2_562_982)"/>
<rect x="56.7832" y="0.5" width="91.7191" height="25.5844" rx="12.7922" fill="white" stroke="black"/>
<rect x="25" y="320" width="173" height="44" fill="black"/>
<path d="M43.5958 342.042H46.8458C47.8338 342.042 48.6052 341.791 49.1598 341.288C49.7318 340.768 50.0178 340.075 50.0178 339.208C50.0178 338.324 49.7318 337.622 49.1598 337.102C48.6052 336.582 47.8338 336.322 46.8458 336.322H43.5958V342.042ZM47.3138 344.798H43.5958V352H40.4758V333.566H47.3138C49.0645 333.566 50.4772 334.095 51.5518 335.152C52.6438 336.209 53.1898 337.553 53.1898 339.182C53.1898 340.829 52.6438 342.181 51.5518 343.238C50.4772 344.278 49.0645 344.798 47.3138 344.798ZM63.9764 339.26V342.328C63.6297 342.276 63.3004 342.25 62.9884 342.25C60.7177 342.25 59.5824 343.489 59.5824 345.968V352H56.5664V339.338H59.5044V341.366C59.799 340.69 60.2757 340.161 60.9344 339.78C61.593 339.381 62.3384 339.182 63.1704 339.182C63.4477 339.182 63.7164 339.208 63.9764 339.26ZM70.4492 348.62C71.1425 349.331 71.9832 349.686 72.9712 349.686C73.9592 349.686 74.7912 349.331 75.4672 348.62C76.1605 347.909 76.5072 346.921 76.5072 345.656C76.5072 344.408 76.1605 343.437 75.4672 342.744C74.7912 342.033 73.9592 341.678 72.9712 341.678C71.9832 341.678 71.1425 342.033 70.4492 342.744C69.7732 343.437 69.4352 344.408 69.4352 345.656C69.4352 346.904 69.7732 347.892 70.4492 348.62ZM72.9712 338.948C74.8778 338.948 76.4465 339.581 77.6772 340.846C78.9252 342.111 79.5492 343.715 79.5492 345.656C79.5492 347.597 78.9252 349.209 77.6772 350.492C76.4465 351.757 74.8778 352.39 72.9712 352.39C71.0818 352.39 69.5132 351.757 68.2652 350.492C67.0345 349.209 66.4192 347.597 66.4192 345.656C66.4192 343.715 67.0345 342.111 68.2652 340.846C69.5132 339.581 71.0818 338.948 72.9712 338.948ZM87.2496 335.464V339.338H89.8756V342.016H87.2496V347.892C87.2496 348.447 87.3796 348.854 87.6396 349.114C87.8996 349.357 88.307 349.478 88.8616 349.478C89.2083 349.478 89.555 349.443 89.9016 349.374V351.87C89.451 352.061 88.8356 352.156 88.0556 352.156C86.877 352.156 85.9496 351.827 85.2736 351.168C84.5976 350.492 84.2596 349.565 84.2596 348.386V342.016H81.9196V339.338H82.5696C83.211 339.338 83.6963 339.156 84.0256 338.792C84.355 338.428 84.5196 337.951 84.5196 337.362V335.464H87.2496ZM95.9935 344.278H102.208C102.173 343.481 101.887 342.813 101.35 342.276C100.83 341.739 100.076 341.47 99.0875 341.47C98.1862 341.47 97.4582 341.756 96.9035 342.328C96.3489 342.883 96.0455 343.533 95.9935 344.278ZM102.546 347.58L105.094 348.386C104.73 349.547 104.045 350.509 103.04 351.272C102.052 352.017 100.83 352.39 99.3735 352.39C97.5709 352.39 96.0369 351.775 94.7715 350.544C93.5235 349.313 92.8995 347.667 92.8995 345.604C92.8995 343.663 93.5062 342.068 94.7195 340.82C95.9502 339.572 97.3975 338.948 99.0615 338.948C101.003 338.948 102.52 339.546 103.612 340.742C104.704 341.921 105.25 343.515 105.25 345.526C105.25 346.063 105.224 346.384 105.172 346.488H95.9155C95.9502 347.441 96.2969 348.23 96.9555 348.854C97.6315 349.478 98.4375 349.79 99.3735 349.79C101.003 349.79 102.06 349.053 102.546 347.58ZM114.684 341.73C113.713 341.73 112.89 342.085 112.214 342.796C111.538 343.489 111.2 344.443 111.2 345.656C111.2 346.887 111.538 347.857 112.214 348.568C112.907 349.279 113.748 349.634 114.736 349.634C115.62 349.634 116.322 349.4 116.842 348.932C117.379 348.447 117.734 347.901 117.908 347.294L120.56 348.256C120.213 349.383 119.537 350.353 118.532 351.168C117.544 351.983 116.278 352.39 114.736 352.39C112.881 352.39 111.321 351.749 110.056 350.466C108.808 349.183 108.184 347.58 108.184 345.656C108.184 343.715 108.799 342.111 110.03 340.846C111.278 339.581 112.82 338.948 114.658 338.948C116.235 338.948 117.518 339.355 118.506 340.17C119.511 340.985 120.161 341.964 120.456 343.108L117.752 344.096C117.578 343.437 117.24 342.883 116.738 342.432C116.252 341.964 115.568 341.73 114.684 341.73ZM128.1 335.464V339.338H130.726V342.016H128.1V347.892C128.1 348.447 128.23 348.854 128.49 349.114C128.75 349.357 129.157 349.478 129.712 349.478C130.059 349.478 130.405 349.443 130.752 349.374V351.87C130.301 352.061 129.686 352.156 128.906 352.156C127.727 352.156 126.8 351.827 126.124 351.168C125.448 350.492 125.11 349.565 125.11 348.386V342.016H122.77V339.338H123.42C124.061 339.338 124.547 339.156 124.876 338.792C125.205 338.428 125.37 337.951 125.37 337.362V335.464H128.1ZM137.855 352H134.865V339.338H137.855V352ZM134.969 336.27C134.588 335.889 134.397 335.429 134.397 334.892C134.397 334.355 134.588 333.895 134.969 333.514C135.35 333.115 135.81 332.916 136.347 332.916C136.902 332.916 137.37 333.107 137.751 333.488C138.132 333.869 138.323 334.337 138.323 334.892C138.323 335.429 138.132 335.889 137.751 336.27C137.37 336.651 136.902 336.842 136.347 336.842C135.81 336.842 135.35 336.651 134.969 336.27ZM147.908 333.046C148.618 333.046 149.147 333.133 149.494 333.306V335.88C149.199 335.793 148.835 335.75 148.402 335.75C147.916 335.75 147.483 335.897 147.102 336.192C146.72 336.487 146.53 336.981 146.53 337.674V339.338H154.954V352H151.99V341.964H146.53V352H143.488V341.964H141.278V339.338H143.488V337.596C143.488 336.192 143.895 335.083 144.71 334.268C145.524 333.453 146.59 333.046 147.908 333.046ZM151.522 334.866C151.522 334.311 151.712 333.843 152.094 333.462C152.475 333.081 152.934 332.89 153.472 332.89C154.026 332.89 154.494 333.089 154.876 333.488C155.257 333.869 155.448 334.329 155.448 334.866C155.448 335.403 155.248 335.863 154.85 336.244C154.468 336.625 154.009 336.816 153.472 336.816C152.934 336.816 152.475 336.625 152.094 336.244C151.712 335.863 151.522 335.403 151.522 334.866ZM159.143 348.568C159.143 347.493 159.49 346.635 160.183 345.994C160.894 345.335 161.821 344.919 162.965 344.746L166.215 344.252C166.839 344.165 167.151 343.862 167.151 343.342C167.151 342.77 166.952 342.311 166.553 341.964C166.155 341.6 165.557 341.418 164.759 341.418C163.997 341.418 163.39 341.635 162.939 342.068C162.489 342.484 162.229 343.03 162.159 343.706L159.403 343.082C159.525 341.938 160.071 340.967 161.041 340.17C162.012 339.355 163.243 338.948 164.733 338.948C166.571 338.948 167.923 339.39 168.789 340.274C169.673 341.158 170.115 342.293 170.115 343.68V349.972C170.115 350.804 170.167 351.48 170.271 352H167.463C167.377 351.74 167.333 351.203 167.333 350.388C166.501 351.723 165.201 352.39 163.433 352.39C162.151 352.39 161.111 352.017 160.313 351.272C159.533 350.509 159.143 349.608 159.143 348.568ZM164.005 350.024C164.941 350.024 165.695 349.773 166.267 349.27C166.857 348.75 167.151 347.909 167.151 346.748V346.176L163.849 346.67C162.723 346.861 162.159 347.433 162.159 348.386C162.159 348.837 162.324 349.227 162.653 349.556C162.983 349.868 163.433 350.024 164.005 350.024ZM173.683 348.568L176.309 347.84C176.361 348.447 176.613 348.958 177.063 349.374C177.514 349.79 178.121 349.998 178.883 349.998C179.473 349.998 179.932 349.859 180.261 349.582C180.608 349.305 180.781 348.958 180.781 348.542C180.781 347.814 180.287 347.346 179.299 347.138L177.427 346.722C176.335 346.479 175.495 346.029 174.905 345.37C174.316 344.711 174.021 343.931 174.021 343.03C174.021 341.921 174.472 340.967 175.373 340.17C176.275 339.355 177.375 338.948 178.675 338.948C179.507 338.948 180.244 339.069 180.885 339.312C181.527 339.555 182.021 339.875 182.367 340.274C182.731 340.655 183.009 341.028 183.199 341.392C183.39 341.756 183.511 342.12 183.563 342.484L181.015 343.212C180.946 342.727 180.721 342.293 180.339 341.912C179.975 341.513 179.421 341.314 178.675 341.314C178.155 341.314 177.722 341.461 177.375 341.756C177.029 342.033 176.855 342.371 176.855 342.77C176.855 343.481 177.28 343.923 178.129 344.096L180.053 344.486C181.232 344.746 182.133 345.214 182.757 345.89C183.381 346.566 183.693 347.381 183.693 348.334C183.693 349.391 183.269 350.336 182.419 351.168C181.587 351.983 180.417 352.39 178.909 352.39C178.043 352.39 177.263 352.26 176.569 352C175.893 351.74 175.356 351.411 174.957 351.012C174.576 350.596 174.273 350.189 174.047 349.79C173.839 349.374 173.718 348.967 173.683 348.568Z" fill="white"/>
<path opacity="0.8" d="M70.753 388V386.988H67.068V380.201H65.99V388H70.753ZM72.6746 384.095C72.6746 382.06 74.0386 381.026 75.4906 381.026C76.9426 381.026 78.3066 382.06 78.3066 384.095C78.3066 386.13 76.9426 387.175 75.4906 387.175C74.0386 387.175 72.6746 386.13 72.6746 384.095ZM71.5746 384.095C71.5746 386.702 73.5326 388.165 75.4906 388.165C77.4486 388.165 79.4066 386.702 79.4066 384.095C79.4066 381.488 77.4486 380.036 75.4906 380.036C73.5326 380.036 71.5746 381.488 71.5746 384.095ZM86.4617 381.202V380.201H80.1697V381.202H82.7767V388H83.8547V381.202H86.4617ZM91.0355 387.296C91.0355 387.725 91.3655 388.055 91.7945 388.055C92.2235 388.055 92.5645 387.725 92.5645 387.296C92.5645 386.867 92.2235 386.526 91.7945 386.526C91.3655 386.526 91.0355 386.867 91.0355 387.296ZM91.0245 383.424C91.0245 383.853 91.3545 384.183 91.7835 384.183C92.2125 384.183 92.5535 383.853 92.5535 383.424C92.5535 382.995 92.2125 382.654 91.7835 382.654C91.3545 382.654 91.0245 382.995 91.0245 383.424ZM102.718 388L100.287 384.623L99.2534 385.756V388H97.9334V380.201H99.2534V383.941L102.608 380.201H104.346L101.189 383.644L104.379 388H102.718ZM106.974 382.027C106.46 382.518 106.204 383.208 106.204 384.095C106.204 384.982 106.46 385.675 106.974 386.174C107.487 386.665 108.099 386.911 108.811 386.911C109.522 386.911 110.134 386.665 110.648 386.174C111.168 385.675 111.429 384.982 111.429 384.095C111.429 383.208 111.168 382.518 110.648 382.027C110.134 381.528 109.522 381.279 108.811 381.279C108.099 381.279 107.487 381.528 106.974 382.027ZM105.412 386.273C105.038 385.642 104.851 384.916 104.851 384.095C104.851 383.274 105.038 382.551 105.412 381.928C105.793 381.297 106.281 380.824 106.875 380.509C107.469 380.194 108.114 380.036 108.811 380.036C109.507 380.036 110.153 380.194 110.747 380.509C111.341 380.824 111.828 381.297 112.21 381.928C112.591 382.551 112.782 383.274 112.782 384.095C112.782 384.916 112.591 385.642 112.21 386.273C111.828 386.904 111.341 387.377 110.747 387.692C110.153 388.007 109.507 388.165 108.811 388.165C108.114 388.165 107.469 388.007 106.875 387.692C106.281 387.377 105.793 386.904 105.412 386.273ZM114.615 380.201H117.299C118.032 380.201 118.612 380.395 119.037 380.784C119.462 381.173 119.675 381.679 119.675 382.302C119.675 382.705 119.569 383.057 119.356 383.358C119.143 383.651 118.865 383.86 118.52 383.985C118.938 384.095 119.275 384.319 119.532 384.656C119.789 384.993 119.917 385.389 119.917 385.844C119.917 386.475 119.693 386.992 119.246 387.395C118.799 387.798 118.216 388 117.497 388H114.615V380.201ZM115.924 383.501H117.123C117.504 383.501 117.805 383.402 118.025 383.204C118.245 383.006 118.355 382.742 118.355 382.412C118.355 382.075 118.241 381.811 118.014 381.62C117.794 381.422 117.486 381.323 117.09 381.323H115.924V383.501ZM115.924 386.878H117.266C117.662 386.878 117.977 386.779 118.212 386.581C118.454 386.376 118.575 386.101 118.575 385.756C118.575 385.411 118.461 385.136 118.234 384.931C118.014 384.718 117.706 384.612 117.31 384.612H115.924V386.878ZM124.399 385.349H121.297V384.216H124.399V385.349ZM125.665 386.438V385.008L128.701 380.872H130.395V385.272H131.594V386.438H130.395V388H129.097V386.438H125.665ZM129.097 385.272V382.203L126.853 385.272H129.097ZM139.139 380.201L136.543 384.106L139.128 388H137.544L135.729 385.151L133.892 388H132.341L134.948 384.095L132.363 380.201H133.947L135.762 383.061L137.588 380.201H139.139ZM70.027 405H71.281L69.422 401.733C70.599 401.513 71.314 400.644 71.314 399.522C71.314 398.235 70.401 397.201 68.927 397.201H65.99V405H67.079V401.81H68.245L70.027 405ZM67.079 400.842V398.169H68.729C69.609 398.169 70.203 398.697 70.203 399.522C70.203 400.325 69.609 400.842 68.729 400.842H67.079ZM77.9815 405V403.999H74.3185V401.612H77.6405V400.6H74.3185V398.202H77.9815V397.201H73.2405V405H77.9815ZM77.3655 395.342H75.9355L74.8245 396.651H75.8585L77.3655 395.342ZM86.7724 405V401.183H83.0434V402.151H85.7494C85.7054 402.954 85.0784 404.186 83.3404 404.186C81.9434 404.186 80.6234 403.163 80.6234 401.095C80.6234 399.027 81.9874 398.026 83.3844 398.026C84.5944 398.026 85.5074 398.686 85.8594 399.808L86.8384 399.39C86.3874 397.982 85.0784 397.036 83.3844 397.036C81.4594 397.036 79.5234 398.455 79.5234 401.095C79.5234 403.735 81.3494 405.165 83.3074 405.165C84.6164 405.165 85.4634 404.516 85.8044 403.9L85.9034 405H86.7724ZM89.9696 405V397.201H88.8696V405H89.9696ZM92.9976 401.095C92.9976 399.06 94.3616 398.026 95.8136 398.026C97.2656 398.026 98.6296 399.06 98.6296 401.095C98.6296 403.13 97.2656 404.175 95.8136 404.175C94.3616 404.175 92.9976 403.13 92.9976 401.095ZM91.8976 401.095C91.8976 403.702 93.8556 405.165 95.8136 405.165C97.7716 405.165 99.7296 403.702 99.7296 401.095C99.7296 398.488 97.7716 397.036 95.8136 397.036C93.8556 397.036 91.8976 398.488 91.8976 401.095ZM108.065 405V397.201H106.987V403.185L103.093 397.201H101.652V405H102.73V398.642L106.943 405H108.065ZM113.518 404.296C113.518 404.725 113.848 405.055 114.277 405.055C114.706 405.055 115.047 404.725 115.047 404.296C115.047 403.867 114.706 403.526 114.277 403.526C113.848 403.526 113.518 403.867 113.518 404.296ZM113.507 400.424C113.507 400.853 113.837 401.183 114.266 401.183C114.695 401.183 115.036 400.853 115.036 400.424C115.036 399.995 114.695 399.654 114.266 399.654C113.837 399.654 113.507 399.995 113.507 400.424ZM121.285 401.436C121.285 402.36 121.453 403.038 121.791 403.471C122.055 403.823 122.421 403.999 122.891 403.999C123.345 403.999 123.712 403.823 123.991 403.471C124.321 403.046 124.486 402.367 124.486 401.436C124.486 400.505 124.321 399.826 123.991 399.401C123.712 399.049 123.345 398.873 122.891 398.873C122.421 398.873 122.055 399.049 121.791 399.401C121.453 399.819 121.285 400.497 121.285 401.436ZM120.614 403.999C120.188 403.361 119.976 402.507 119.976 401.436C119.976 400.365 120.188 399.511 120.614 398.873C121.134 398.096 121.893 397.707 122.891 397.707C123.881 397.707 124.636 398.096 125.157 398.873C125.582 399.511 125.795 400.365 125.795 401.436C125.795 402.507 125.582 403.361 125.157 403.999C124.636 404.776 123.881 405.165 122.891 405.165C121.893 405.165 121.134 404.776 120.614 403.999ZM128.503 401.436C128.503 402.36 128.671 403.038 129.009 403.471C129.273 403.823 129.639 403.999 130.109 403.999C130.563 403.999 130.93 403.823 131.209 403.471C131.539 403.046 131.704 402.367 131.704 401.436C131.704 400.505 131.539 399.826 131.209 399.401C130.93 399.049 130.563 398.873 130.109 398.873C129.639 398.873 129.273 399.049 129.009 399.401C128.671 399.819 128.503 400.497 128.503 401.436ZM127.832 403.999C127.406 403.361 127.194 402.507 127.194 401.436C127.194 400.365 127.406 399.511 127.832 398.873C128.352 398.096 129.111 397.707 130.109 397.707C131.099 397.707 131.854 398.096 132.375 398.873C132.8 399.511 133.013 400.365 133.013 401.436C133.013 402.507 132.8 403.361 132.375 403.999C131.854 404.776 131.099 405.165 130.109 405.165C129.111 405.165 128.352 404.776 127.832 403.999ZM139.328 397.872V399.027C139.152 399.174 138.98 399.328 138.811 399.489C138.65 399.65 138.426 399.918 138.14 400.292C137.854 400.659 137.605 401.047 137.392 401.458C137.18 401.861 136.974 402.382 136.776 403.02C136.586 403.651 136.461 404.311 136.402 405H135.038C135.097 404.259 135.233 403.548 135.445 402.866C135.658 402.177 135.896 401.612 136.16 401.172C136.424 400.725 136.681 400.332 136.93 399.995C137.187 399.658 137.403 399.412 137.579 399.258L137.832 399.027H134.004V397.872H139.328ZM145.462 398.059L145.088 399.137C144.736 398.946 144.329 398.851 143.867 398.851C143.192 398.851 142.631 399.06 142.184 399.478C141.744 399.889 141.495 400.439 141.436 401.128C141.803 400.563 142.408 400.281 143.251 400.281C143.97 400.281 144.553 400.501 145 400.941C145.447 401.381 145.671 401.964 145.671 402.69C145.671 403.416 145.411 404.01 144.89 404.472C144.369 404.934 143.728 405.165 142.965 405.165C142.085 405.165 141.388 404.85 140.875 404.219C140.369 403.588 140.116 402.8 140.116 401.854C140.116 400.585 140.472 399.577 141.183 398.829C141.894 398.081 142.815 397.707 143.944 397.707C144.589 397.707 145.095 397.824 145.462 398.059ZM141.579 402.712C141.579 403.108 141.715 403.431 141.986 403.68C142.265 403.922 142.591 404.043 142.965 404.043C143.354 404.043 143.68 403.922 143.944 403.68C144.215 403.438 144.351 403.115 144.351 402.712C144.351 402.309 144.215 401.986 143.944 401.744C143.68 401.502 143.354 401.381 142.965 401.381C142.576 401.381 142.246 401.502 141.975 401.744C141.711 401.986 141.579 402.309 141.579 402.712ZM148.697 405H147.377V397.201H152.228V398.444H148.697V400.633H151.865V401.854H148.697V405ZM157.878 405L156.239 401.92H155.271V405H153.94V397.201H156.932C157.665 397.201 158.255 397.428 158.703 397.883C159.15 398.33 159.374 398.891 159.374 399.566C159.374 400.123 159.216 400.6 158.901 400.996C158.585 401.392 158.156 401.656 157.614 401.788L159.374 405H157.878ZM155.271 400.754H156.69C157.093 400.754 157.416 400.648 157.658 400.435C157.907 400.215 158.032 399.925 158.032 399.566C158.032 399.199 157.907 398.91 157.658 398.697C157.416 398.477 157.093 398.367 156.69 398.367H155.271V400.754ZM160.892 404.758L161.255 403.68C161.6 403.9 162.025 404.01 162.531 404.01C163.265 404.01 163.833 403.808 164.236 403.405C164.64 403.002 164.86 402.455 164.896 401.766C164.757 402.008 164.533 402.206 164.225 402.36C163.925 402.514 163.569 402.591 163.158 402.591C162.484 402.591 161.904 402.375 161.42 401.942C160.936 401.502 160.694 400.919 160.694 400.193C160.694 399.467 160.951 398.873 161.464 398.411C161.978 397.942 162.616 397.707 163.378 397.707C164.178 397.707 164.845 397.993 165.38 398.565C165.923 399.137 166.194 399.962 166.194 401.04C166.194 402.353 165.883 403.368 165.259 404.087C164.643 404.806 163.738 405.165 162.542 405.165C161.853 405.165 161.303 405.029 160.892 404.758ZM164.72 400.149C164.72 399.768 164.585 399.452 164.313 399.203C164.042 398.954 163.723 398.829 163.356 398.829C162.982 398.829 162.66 398.954 162.388 399.203C162.124 399.445 161.992 399.76 161.992 400.149C161.992 400.552 162.124 400.875 162.388 401.117C162.652 401.359 162.975 401.48 163.356 401.48C163.73 401.48 164.049 401.359 164.313 401.117C164.585 400.868 164.72 400.545 164.72 400.149ZM167.493 403.438V402.008L170.529 397.872H172.223V402.272H173.422V403.438H172.223V405H170.925V403.438H167.493ZM170.925 402.272V399.203L168.681 402.272H170.925Z" fill="black"/>
<line opacity="0.8" x1="97" y1="390.75" x2="142" y2="390.75" stroke="black" stroke-width="0.5" stroke-dasharray="0.6 0.6"/>
<line opacity="0.8" x1="120" y1="408.75" x2="175" y2="408.75" stroke="black" stroke-width="0.5" stroke-dasharray="0.6 0.6"/>
<rect x="14.5" y="309.5" width="195" height="107" stroke="black"/>
<rect x="39" y="378.707" width="18.799" height="18.799" rx="0.5" transform="rotate(45 39 378.707)" fill="#ED712E" stroke="black"/>
<path fill-rule="evenodd" clip-rule="evenodd" d="M40.8397 385.919H36.8799L37.8698 395.819H39.8497L40.8397 385.919ZM39.8497 397.799H37.8698V399.779H39.8497V397.799Z" fill="black"/>
<defs>
<linearGradient id="paint0_linear_562_982" x1="-3.66154" y1="122.794" x2="136.506" y2="275.352" gradientUnits="userSpaceOnUse">
<stop stop-color="#FF6E7F"/>
<stop offset="1" stop-color="#BFE9FF"/>
</linearGradient>
</defs>
</svg>
