<svg width="290" height="418" viewBox="0 0 290 418" fill="none" xmlns="http://www.w3.org/2000/svg">
<mask id="path-1-inside-1_562_954" fill="white">
<path fill-rule="evenodd" clip-rule="evenodd" d="M178.19 11.4272H111.413V84.1284C70.4651 98.009 41 136.716 41 182.293C41 239.534 87.4736 285.937 144.802 285.937C202.13 285.937 248.603 239.534 248.603 182.293C248.603 136.716 219.138 98.0091 178.19 84.1284V11.4272Z"/>
</mask>
<path fill-rule="evenodd" clip-rule="evenodd" d="M178.19 11.4272H111.413V84.1284C70.4651 98.009 41 136.716 41 182.293C41 239.534 87.4736 285.937 144.802 285.937C202.13 285.937 248.603 239.534 248.603 182.293C248.603 136.716 219.138 98.0091 178.19 84.1284V11.4272Z" fill="white"/>
<path d="M111.413 11.4272V10.4272H110.413V11.4272H111.413ZM178.19 11.4272H179.19V10.4272H178.19V11.4272ZM111.413 84.1284L111.734 85.0754L112.413 84.8453V84.1284H111.413ZM178.19 84.1284H177.19V84.8454L177.869 85.0755L178.19 84.1284ZM111.413 12.4272H178.19V10.4272H111.413V12.4272ZM112.413 84.1284V11.4272H110.413V84.1284H112.413ZM42 182.293C42 137.158 71.1788 98.823 111.734 85.0754L111.092 83.1813C69.7513 97.1951 40 136.273 40 182.293H42ZM144.802 284.937C88.0244 284.937 42 238.98 42 182.293H40C40 240.088 86.9228 286.937 144.802 286.937V284.937ZM247.603 182.293C247.603 238.98 201.579 284.937 144.802 284.937V286.937C202.681 286.937 249.603 240.088 249.603 182.293H247.603ZM177.869 85.0755C218.425 98.8231 247.603 137.158 247.603 182.293H249.603C249.603 136.273 219.852 97.1952 178.511 83.1814L177.869 85.0755ZM177.19 11.4272V84.1284H179.19V11.4272H177.19Z" fill="black" mask="url(#path-1-inside-1_562_954)"/>
<path d="M109.832 212.69C109.832 216.503 106.736 219.596 102.915 219.596C99.0942 219.596 95.998 216.503 95.998 212.69C95.998 208.877 99.0942 205.784 102.915 205.784C106.736 205.784 109.832 208.877 109.832 212.69Z" fill="white" stroke="black"/>
<path d="M155.022 248.261C155.022 253.935 150.414 258.536 144.73 258.536C139.045 258.536 134.438 253.935 134.438 248.261C134.438 242.586 139.045 237.985 144.73 237.985C150.414 237.985 155.022 242.586 155.022 248.261Z" fill="white" stroke="black"/>
<path d="M181.629 182.736C181.629 186.549 178.533 189.642 174.712 189.642C170.891 189.642 167.795 186.549 167.795 182.736C167.795 178.923 170.891 175.83 174.712 175.83C178.533 175.83 181.629 178.923 181.629 182.736Z" fill="white" stroke="black"/>
<mask id="path-6-inside-2_562_954" fill="white">
<path fill-rule="evenodd" clip-rule="evenodd" d="M62.8334 182.38C63.1407 181.787 66.8413 174.85 73.7691 170.65C74.2185 170.377 74.6647 170.097 75.1175 169.812C81.9603 165.507 90.3109 160.253 134.09 168.249C163.429 173.608 173.353 167.225 181.652 161.888C186.556 158.734 190.893 155.946 198.332 156.161C217.632 156.718 226.327 173.21 226.573 182.38H226.7C226.7 193.123 224.581 203.761 220.463 213.687C216.346 223.612 210.311 232.631 202.702 240.228C195.094 247.824 186.062 253.85 176.121 257.962C166.18 262.073 155.526 264.189 144.766 264.189C134.006 264.189 123.352 262.073 113.411 257.962C103.47 253.85 94.4377 247.824 86.8294 240.228C79.2211 232.631 73.1858 223.612 69.0682 213.687C64.9558 203.774 62.8367 193.15 62.8314 182.42L62.8125 182.42C62.8125 182.42 62.8188 182.408 62.8313 182.383C62.8313 182.382 62.8313 182.381 62.8313 182.38H62.8334Z"/>
</mask>
<path fill-rule="evenodd" clip-rule="evenodd" d="M62.8334 182.38C63.1407 181.787 66.8413 174.85 73.7691 170.65C74.2185 170.377 74.6647 170.097 75.1175 169.812C81.9603 165.507 90.3109 160.253 134.09 168.249C163.429 173.608 173.353 167.225 181.652 161.888C186.556 158.734 190.893 155.946 198.332 156.161C217.632 156.718 226.327 173.21 226.573 182.38H226.7C226.7 193.123 224.581 203.761 220.463 213.687C216.346 223.612 210.311 232.631 202.702 240.228C195.094 247.824 186.062 253.85 176.121 257.962C166.18 262.073 155.526 264.189 144.766 264.189C134.006 264.189 123.352 262.073 113.411 257.962C103.47 253.85 94.4377 247.824 86.8294 240.228C79.2211 232.631 73.1858 223.612 69.0682 213.687C64.9558 203.774 62.8367 193.15 62.8314 182.42L62.8125 182.42C62.8125 182.42 62.8188 182.408 62.8313 182.383C62.8313 182.382 62.8313 182.381 62.8313 182.38H62.8334Z" fill="url(#paint0_linear_562_954)"/>
<path d="M62.8334 182.38V183.38H63.4412L63.7211 182.84L62.8334 182.38ZM73.7691 170.65L74.2875 171.505L74.2875 171.505L73.7691 170.65ZM75.1175 169.812L74.585 168.965L74.585 168.965L75.1175 169.812ZM134.09 168.249L133.91 169.233L134.09 168.249ZM181.652 161.888L182.193 162.729L182.193 162.729L181.652 161.888ZM198.332 156.161L198.361 155.161L198.332 156.161ZM226.573 182.38L225.574 182.406L225.6 183.38H226.573V182.38ZM226.7 182.38H227.7V181.38H226.7V182.38ZM220.463 213.687L219.54 213.303L219.54 213.303L220.463 213.687ZM176.121 257.962L176.503 258.886L176.503 258.886L176.121 257.962ZM113.411 257.962L113.793 257.038L113.793 257.038L113.411 257.962ZM69.0682 213.687L69.9919 213.303L69.9919 213.303L69.0682 213.687ZM62.8314 182.42L63.8314 182.42L63.8309 181.426L62.8372 181.42L62.8314 182.42ZM62.8125 182.42L61.9193 181.971L61.1944 183.411L62.8066 183.42L62.8125 182.42ZM62.8313 182.383L63.7194 182.843L63.8314 182.627L63.8313 182.383L62.8313 182.383ZM62.8313 182.38V181.38H61.8313V182.38H62.8313ZM63.7211 182.84C64.0081 182.287 67.6038 175.557 74.2875 171.505L73.2507 169.795C66.0788 174.142 62.2734 181.287 61.9456 181.919L63.7211 182.84ZM74.2875 171.505C74.7452 171.227 75.1984 170.942 75.65 170.658L74.585 168.965C74.131 169.251 73.6918 169.527 73.2507 169.795L74.2875 171.505ZM75.65 170.658C79.0046 168.548 82.652 166.243 90.8534 165.412C99.1291 164.575 112.053 165.241 133.91 169.233L134.27 167.266C112.348 163.262 99.2069 162.557 90.6519 163.423C82.0225 164.296 78.0732 166.771 74.585 168.965L75.65 170.658ZM133.91 169.233C148.664 171.928 158.621 171.687 165.977 170.056C173.348 168.422 178.031 165.406 182.193 162.729L181.111 161.047C176.974 163.708 172.545 166.552 165.544 168.103C158.529 169.659 148.855 169.93 134.27 167.266L133.91 169.233ZM182.193 162.729C187.085 159.583 191.194 156.955 198.303 157.16L198.361 155.161C190.591 154.936 186.027 157.886 181.111 161.047L182.193 162.729ZM198.303 157.16C207.644 157.43 214.388 161.545 218.842 166.695C223.321 171.875 225.457 178.073 225.574 182.406L227.573 182.353C227.443 177.516 225.109 170.884 220.354 165.386C215.574 159.859 208.321 155.449 198.361 155.161L198.303 157.16ZM226.573 183.38H226.7V181.38H226.573V183.38ZM225.7 182.38C225.7 192.991 223.607 203.499 219.54 213.303L221.387 214.07C225.555 204.023 227.7 193.254 227.7 182.38H225.7ZM219.54 213.303C215.473 223.108 209.511 232.016 201.996 239.52L203.409 240.935C211.11 233.246 217.219 224.117 221.387 214.07L219.54 213.303ZM201.996 239.52C194.48 247.024 185.558 252.976 175.739 257.038L176.503 258.886C186.565 254.724 195.708 248.625 203.409 240.935L201.996 239.52ZM175.739 257.038C165.919 261.099 155.395 263.189 144.766 263.189V265.189C155.657 265.189 166.441 263.047 176.503 258.886L175.739 257.038ZM144.766 263.189C134.137 263.189 123.613 261.099 113.793 257.038L113.029 258.886C123.091 263.047 133.875 265.189 144.766 265.189V263.189ZM113.793 257.038C103.974 252.976 95.0514 247.024 87.536 239.52L86.1228 240.935C93.8241 248.625 102.967 254.724 113.029 258.886L113.793 257.038ZM87.536 239.52C80.0206 232.016 74.0591 223.108 69.9919 213.303L68.1446 214.07C72.3125 224.117 78.4216 233.246 86.1228 240.935L87.536 239.52ZM69.9919 213.303C65.9298 203.512 63.8366 193.018 63.8314 182.42L61.8314 182.421C61.8368 193.282 63.9819 204.036 68.1446 214.07L69.9919 213.303ZM62.8372 181.42L62.8184 181.42L62.8066 183.42L62.8255 183.42L62.8372 181.42ZM62.8125 182.42C63.7057 182.87 63.7057 182.87 63.7057 182.87C63.7057 182.87 63.7057 182.87 63.7057 182.87C63.7057 182.87 63.7057 182.87 63.7057 182.87C63.7057 182.87 63.7057 182.87 63.7056 182.87C63.7056 182.87 63.7056 182.87 63.7056 182.87C63.7055 182.87 63.7055 182.87 63.7055 182.87C63.7054 182.87 63.7054 182.87 63.7054 182.87C63.7054 182.871 63.7055 182.87 63.7056 182.87C63.706 182.869 63.7067 182.868 63.7079 182.866C63.7101 182.861 63.714 182.854 63.7194 182.843L61.9433 181.924C61.9362 181.937 61.9306 181.948 61.9266 181.956C61.9245 181.96 61.9229 181.963 61.9217 181.966C61.9211 181.967 61.9206 181.968 61.9202 181.969C61.92 181.969 61.9198 181.969 61.9197 181.97C61.9196 181.97 61.9195 181.97 61.9195 181.97C61.9194 181.97 61.9194 181.97 61.9194 181.97C61.9193 181.97 61.9193 181.97 61.9193 181.97C61.9193 181.97 61.9193 181.971 61.9193 181.971C61.9193 181.971 61.9193 181.971 61.9193 181.971C61.9193 181.971 61.9193 181.971 62.8125 182.42ZM63.8313 182.383C63.8313 182.382 63.8313 182.381 63.8313 182.38H61.8313C61.8313 182.381 61.8313 182.383 61.8313 182.383L63.8313 182.383ZM62.8313 183.38H62.8334V181.38H62.8313V183.38Z" fill="black" mask="url(#path-6-inside-2_562_954)"/>
<rect x="98.0674" y="1.43677" width="92.1876" height="25.5844" rx="12.7922" fill="white" stroke="black"/>
<rect x="0.5" y="310.5" width="289" height="107" fill="white" stroke="black"/>
<rect width="278" height="43" transform="translate(6 316)" fill="black"/>
<path d="M58.5434 337.276V331.116H62.0434C64.1714 331.116 65.4594 332.32 65.4594 334.224C65.4594 336.1 64.1714 337.276 62.0434 337.276H58.5434ZM62.5474 340.244C66.3554 340.244 68.8754 337.696 68.8754 334.196C68.8754 330.724 66.3554 328.148 62.5474 328.148H55.1834V348H58.5434V340.244H62.5474ZM81.1963 346.488C81.1963 347.048 81.2523 347.692 81.3083 348H84.4163C84.3603 347.496 84.2763 346.628 84.2763 345.508V334.364H81.0283V342.428C81.0283 344.22 80.0483 345.48 78.1723 345.48C76.2123 345.48 75.4283 344.052 75.4283 342.372V334.364H72.1803V342.96C72.1803 345.984 74.0843 348.392 77.3323 348.392C78.9283 348.392 80.5243 347.72 81.1963 346.488ZM97.5805 334.28C97.4405 334.252 97.1045 334.196 96.7125 334.196C94.9205 334.196 93.4085 335.064 92.7645 336.548V334.364H89.6005V348H92.8485V341.504C92.8485 338.956 93.9965 337.5 96.5165 337.5C96.8525 337.5 97.2165 337.528 97.5805 337.584V334.28ZM104.632 348V334.364H101.412V348H104.632ZM100.908 329.576C100.908 330.752 101.86 331.676 103.008 331.676C104.184 331.676 105.136 330.752 105.136 329.576C105.136 328.4 104.184 327.448 103.008 327.448C101.86 327.448 100.908 328.4 100.908 329.576ZM115.458 327.588C112.658 327.588 110.698 329.436 110.698 332.488V334.364H108.318V337.192H110.698V348H113.974V337.192H119.854V348H123.046V334.364H113.974V332.572C113.974 330.892 115.15 330.5 115.99 330.5C116.606 330.5 116.97 330.584 117.166 330.64V327.868C116.942 327.756 116.27 327.588 115.458 327.588ZM119.35 329.548C119.35 330.696 120.274 331.648 121.45 331.648C122.626 331.648 123.578 330.696 123.578 329.548C123.578 328.372 122.626 327.42 121.45 327.42C120.274 327.42 119.35 328.372 119.35 329.548ZM134.334 336.94C136.406 336.94 137.33 338.284 137.638 339.488L140.55 338.424C139.99 336.24 137.974 333.944 134.306 333.944C130.386 333.944 127.334 336.968 127.334 341.168C127.334 345.312 130.386 348.42 134.39 348.42C137.974 348.42 140.018 346.096 140.662 343.968L137.806 342.932C137.498 343.968 136.518 345.452 134.39 345.452C132.346 345.452 130.582 343.912 130.582 341.168C130.582 338.424 132.346 336.94 134.334 336.94ZM143.744 344.304C143.744 346.46 145.508 348.42 148.364 348.42C150.576 348.42 151.92 347.3 152.564 346.264C152.564 347.356 152.676 347.916 152.704 348H155.728C155.7 347.86 155.56 347.048 155.56 345.816V339.04C155.56 336.324 153.964 333.944 149.764 333.944C146.404 333.944 144.276 336.044 144.024 338.396L146.992 339.068C147.132 337.696 148.084 336.604 149.792 336.604C151.584 336.604 152.368 337.528 152.368 338.676C152.368 339.152 152.144 339.544 151.36 339.656L147.86 340.188C145.536 340.524 143.744 341.868 143.744 344.304ZM148.98 345.872C147.692 345.872 146.992 345.032 146.992 344.108C146.992 342.988 147.804 342.428 148.812 342.26L152.368 341.728V342.344C152.368 345.004 150.8 345.872 148.98 345.872ZM164.668 330.192H161.728V332.236C161.728 333.44 161.084 334.364 159.628 334.364H158.928V337.248H161.448V344.108C161.448 346.656 163.016 348.168 165.536 348.168C166.712 348.168 167.328 347.944 167.524 347.86V345.172C167.384 345.2 166.852 345.284 166.404 345.284C165.2 345.284 164.668 344.78 164.668 343.576V337.248H167.496V334.364H164.668V330.192ZM175.173 348V334.364H171.953V348H175.173ZM171.449 329.576C171.449 330.752 172.401 331.676 173.549 331.676C174.725 331.676 175.677 330.752 175.677 329.576C175.677 328.4 174.725 327.448 173.549 327.448C172.401 327.448 171.449 328.4 171.449 329.576ZM183.731 348V327.728H180.483V348H183.731ZM192.261 348V334.364H189.041V348H192.261ZM188.537 329.576C188.537 330.752 189.489 331.676 190.637 331.676C191.813 331.676 192.765 330.752 192.765 329.576C192.765 328.4 191.813 327.448 190.637 327.448C189.489 327.448 188.537 328.4 188.537 329.576ZM206.447 346.488C206.447 347.048 206.503 347.692 206.559 348H209.667C209.611 347.496 209.527 346.628 209.527 345.508V334.364H206.279V342.428C206.279 344.22 205.299 345.48 203.423 345.48C201.463 345.48 200.679 344.052 200.679 342.372V334.364H197.431V342.96C197.431 345.984 199.335 348.392 202.583 348.392C204.179 348.392 205.775 347.72 206.447 346.488ZM218.071 348V339.908C218.071 338.172 219.163 336.884 220.899 336.884C222.747 336.884 223.531 338.116 223.531 339.684V348H226.723V339.908C226.723 338.228 227.843 336.884 229.551 336.884C231.371 336.884 232.183 338.088 232.183 339.684V348H235.319V339.152C235.319 335.54 232.967 333.972 230.503 333.972C228.739 333.972 227.143 334.588 226.079 336.38C225.351 334.784 223.783 333.972 221.991 333.972C220.451 333.972 218.743 334.7 217.959 336.1V334.364H214.851V348H218.071Z" fill="white"/>
<path opacity="0.8" d="M26.5021 379.923V369.288H25.0021V379.923H26.5021ZM38.7012 379.923V369.288H37.2312V377.448L31.9212 369.288H29.9562V379.923H31.4262V371.253L37.1712 379.923H38.7012ZM43.6166 379.923V375.453H48.1466V374.073H43.6166V370.653H48.6116V369.288H42.1466V379.923H43.6166ZM51.9101 374.598C51.9101 371.823 53.7701 370.413 55.7501 370.413C57.7301 370.413 59.5901 371.823 59.5901 374.598C59.5901 377.373 57.7301 378.798 55.7501 378.798C53.7701 378.798 51.9101 377.373 51.9101 374.598ZM50.4101 374.598C50.4101 378.153 53.0801 380.148 55.7501 380.148C58.4201 380.148 61.0901 378.153 61.0901 374.598C61.0901 371.043 58.4201 369.063 55.7501 369.063C53.0801 369.063 50.4101 371.043 50.4101 374.598ZM70.5682 371.703C70.3282 370.548 69.3682 369.063 66.9682 369.063C65.0032 369.063 63.4582 370.563 63.4582 372.228C63.4582 373.818 64.5382 374.808 66.0532 375.138L67.5682 375.468C68.6332 375.693 69.1582 376.353 69.1582 377.118C69.1582 378.048 68.4382 378.813 66.9682 378.813C65.3632 378.813 64.5232 377.718 64.4182 376.533L63.0082 376.983C63.2032 378.498 64.4182 380.148 66.9832 380.148C69.2482 380.148 70.6582 378.648 70.6582 376.998C70.6582 375.513 69.6682 374.403 67.8982 374.013L66.3082 373.668C65.4082 373.473 64.9432 372.888 64.9432 372.123C64.9432 371.133 65.7982 370.353 66.9982 370.353C68.4832 370.353 69.1282 371.403 69.2482 372.168L70.5682 371.703ZM77.7198 378.963C77.7198 379.548 78.1698 379.998 78.7548 379.998C79.3398 379.998 79.8048 379.548 79.8048 378.963C79.8048 378.378 79.3398 377.913 78.7548 377.913C78.1698 377.913 77.7198 378.378 77.7198 378.963ZM77.7048 373.683C77.7048 374.268 78.1548 374.718 78.7398 374.718C79.3248 374.718 79.7898 374.268 79.7898 373.683C79.7898 373.098 79.3248 372.633 78.7398 372.633C78.1548 372.633 77.7048 373.098 77.7048 373.683ZM90.4859 374.178V370.878H92.3609C93.5009 370.878 94.1909 371.523 94.1909 372.543C94.1909 373.548 93.5009 374.178 92.3609 374.178H90.4859ZM92.6309 375.768C94.6709 375.768 96.0209 374.403 96.0209 372.528C96.0209 370.668 94.6709 369.288 92.6309 369.288H88.6859V379.923H90.4859V375.768H92.6309ZM102.27 380.148C104.505 380.148 106.245 378.783 106.245 376.218V369.288H104.445V376.113C104.445 377.613 103.635 378.438 102.27 378.438C100.92 378.438 100.095 377.613 100.095 376.113V369.288H98.31V376.218C98.31 378.783 100.05 380.148 102.27 380.148ZM114.789 379.923H116.829L114.429 375.543C115.914 375.183 116.829 374.028 116.829 372.513C116.829 370.713 115.554 369.288 113.499 369.288H109.419V379.923H111.234V375.723H112.554L114.789 379.923ZM111.234 374.133V370.878H113.169C114.279 370.878 114.999 371.523 114.999 372.513C114.999 373.488 114.279 374.133 113.169 374.133H111.234ZM121.33 379.923V369.288H119.5V379.923H121.33ZM126.43 379.923V375.633H130.75V373.968H126.43V370.983H131.245V369.288H124.63V379.923H126.43ZM135.56 379.923V369.288H133.73V379.923H135.56ZM143.585 380.148C146.3 380.148 147.92 378.423 148.4 376.623L146.75 376.083C146.39 377.283 145.37 378.423 143.585 378.423C141.77 378.423 140.06 377.103 140.06 374.613C140.06 372.033 141.815 370.758 143.57 370.758C145.355 370.758 146.345 371.793 146.66 373.083L148.355 372.513C147.875 370.653 146.27 369.063 143.57 369.063C140.81 369.063 138.215 371.148 138.215 374.613C138.215 378.078 140.72 380.148 143.585 380.148ZM157.871 379.923H159.836L155.696 369.288H153.611L149.471 379.923H151.376L152.366 377.253H156.866L157.871 379.923ZM154.616 371.238L156.236 375.588H152.996L154.616 371.238ZM168.664 370.983V369.288H159.949V370.983H163.399V379.923H165.199V370.983H168.664ZM172.72 379.923V369.288H170.89V379.923H172.72ZM177.22 374.598C177.22 372.033 178.99 370.758 180.775 370.758C182.575 370.758 184.345 372.033 184.345 374.598C184.345 377.163 182.575 378.438 180.775 378.438C178.99 378.438 177.22 377.163 177.22 374.598ZM175.375 374.598C175.375 378.093 177.985 380.148 180.775 380.148C183.565 380.148 186.19 378.093 186.19 374.598C186.19 371.118 183.565 369.063 180.775 369.063C177.985 369.063 175.375 371.118 175.375 374.598ZM197.765 379.923V369.288H195.965V376.833L191.135 369.288H188.84V379.923H190.64V371.868L195.89 379.923H197.765ZM207.331 378.273V370.938H209.236C211.081 370.938 212.596 372.138 212.596 374.628C212.596 377.088 211.066 378.273 209.221 378.273H207.331ZM209.281 379.923C212.161 379.923 214.471 378.033 214.471 374.628C214.471 371.208 212.191 369.288 209.296 369.288H205.531V379.923H209.281ZM223.676 379.923V378.243H218.906V375.423H223.226V373.788H218.906V370.968H223.676V369.288H217.106V379.923H223.676ZM237.732 379.923V378.213H232.857V369.288H231.057V379.923H237.732ZM238.397 370.188C238.397 370.803 238.817 371.223 239.417 371.223C239.567 371.223 239.702 371.163 239.732 371.148C239.702 371.823 239.147 372.408 238.532 372.528V373.353C239.447 373.263 240.752 372.513 240.752 370.563C240.752 369.738 240.227 369.168 239.507 369.168C238.862 369.168 238.397 369.648 238.397 370.188ZM248.943 379.923H250.908L246.768 369.288H244.683L240.543 379.923H242.448L243.438 377.253H247.938L248.943 379.923ZM245.688 371.238L247.308 375.588H244.068L245.688 371.238ZM254.912 379.923V369.288H253.082V379.923H254.912ZM263.582 379.923H265.622L263.222 375.543C264.707 375.183 265.622 374.028 265.622 372.513C265.622 370.713 264.347 369.288 262.292 369.288H258.212V379.923H260.027V375.723H261.347L263.582 379.923ZM260.027 374.133V370.878H261.962C263.072 370.878 263.792 371.523 263.792 372.513C263.792 373.488 263.072 374.133 261.962 374.133H260.027Z" fill="black"/>
<line opacity="0.8" x1="88" y1="383.75" x2="266" y2="383.75" stroke="black" stroke-width="0.5" stroke-dasharray="0.6 0.6"/>
<rect x="26.123" y="391.277" width="12.459" height="12.459" rx="0.75" transform="rotate(45 26.123 391.277)" fill="#ED712E" stroke="black" stroke-width="0.5"/>
<path fill-rule="evenodd" clip-rule="evenodd" d="M27.0088 396.605H25.0527L25.5418 401.496H26.5198L27.0088 396.605ZM26.519 402.474H25.541V403.452H26.519V402.474Z" fill="black"/>
<path opacity="0.8" d="M100.948 402.587V401.943H98.6031V397.624H97.9171V402.587H100.948ZM102.171 400.102C102.171 398.807 103.039 398.149 103.963 398.149C104.887 398.149 105.755 398.807 105.755 400.102C105.755 401.397 104.887 402.062 103.963 402.062C103.039 402.062 102.171 401.397 102.171 400.102ZM101.471 400.102C101.471 401.761 102.717 402.692 103.963 402.692C105.209 402.692 106.455 401.761 106.455 400.102C106.455 398.443 105.209 397.519 103.963 397.519C102.717 397.519 101.471 398.443 101.471 400.102ZM110.945 398.261V397.624H106.941V398.261H108.6V402.587H109.286V398.261H110.945ZM113.855 402.139C113.855 402.412 114.065 402.622 114.338 402.622C114.611 402.622 114.828 402.412 114.828 402.139C114.828 401.866 114.611 401.649 114.338 401.649C114.065 401.649 113.855 401.866 113.855 402.139ZM113.848 399.675C113.848 399.948 114.058 400.158 114.331 400.158C114.604 400.158 114.821 399.948 114.821 399.675C114.821 399.402 114.604 399.185 114.331 399.185C114.058 399.185 113.848 399.402 113.848 399.675ZM121.64 402.587H122.557L120.625 397.624H119.652L117.72 402.587H118.609L119.071 401.341H121.171L121.64 402.587ZM120.121 398.534L120.877 400.564H119.365L120.121 398.534ZM124.869 401.488L123.483 397.624H122.573L124.421 402.587H125.275L127.151 397.624H126.262L124.869 401.488ZM132.755 401.278L131.572 397.624H130.697L129.535 401.25L128.541 397.624H127.659L129.066 402.587H129.927L131.131 398.835L132.335 402.587H133.203L134.596 397.624H133.728L132.755 401.278ZM137.021 400.9V400.179H135.047V400.9H137.021ZM137.793 401.334C137.849 402.048 138.521 402.699 139.501 402.699C140.551 402.699 141.209 401.985 141.209 401.131C141.209 400.179 140.558 399.619 139.655 399.619C139.333 399.619 138.983 399.731 138.787 399.934L139.067 398.786H140.985V398.051H138.5L137.94 400.34L138.731 400.627C138.892 400.445 139.165 400.312 139.487 400.312C139.949 400.312 140.362 400.592 140.362 401.152C140.362 401.656 139.977 401.978 139.501 401.978C138.976 401.978 138.619 401.614 138.584 401.131L137.793 401.334ZM143.139 399.906V398.366H144.014C144.546 398.366 144.868 398.667 144.868 399.143C144.868 399.612 144.546 399.906 144.014 399.906H143.139ZM144.14 400.648C145.092 400.648 145.722 400.011 145.722 399.136C145.722 398.268 145.092 397.624 144.14 397.624H142.299V402.587H143.139V400.648H144.14Z" fill="black"/>
<path opacity="0.8" d="M211.486 402.587H212.284L211.101 400.508C211.85 400.368 212.305 399.815 212.305 399.101C212.305 398.282 211.724 397.624 210.786 397.624H208.917V402.587H209.61V400.557H210.352L211.486 402.587ZM209.61 399.941V398.24H210.66C211.22 398.24 211.598 398.576 211.598 399.101C211.598 399.612 211.22 399.941 210.66 399.941H209.61ZM216.548 402.587V401.95H214.217V400.431H216.331V399.787H214.217V398.261H216.548V397.624H213.531V402.587H216.548ZM216.156 396.441H215.246L214.539 397.274H215.197L216.156 396.441ZM222.142 402.587V400.158H219.769V400.774H221.491C221.463 401.285 221.064 402.069 219.958 402.069C219.069 402.069 218.229 401.418 218.229 400.102C218.229 398.786 219.097 398.149 219.986 398.149C220.756 398.149 221.337 398.569 221.561 399.283L222.184 399.017C221.897 398.121 221.064 397.519 219.986 397.519C218.761 397.519 217.529 398.422 217.529 400.102C217.529 401.782 218.691 402.692 219.937 402.692C220.77 402.692 221.309 402.279 221.526 401.887L221.589 402.587H222.142ZM224.177 402.587V397.624H223.477V402.587H224.177ZM226.104 400.102C226.104 398.807 226.972 398.149 227.896 398.149C228.82 398.149 229.688 398.807 229.688 400.102C229.688 401.397 228.82 402.062 227.896 402.062C226.972 402.062 226.104 401.397 226.104 400.102ZM225.404 400.102C225.404 401.761 226.65 402.692 227.896 402.692C229.142 402.692 230.388 401.761 230.388 400.102C230.388 398.443 229.142 397.519 227.896 397.519C226.65 397.519 225.404 398.443 225.404 400.102ZM235.692 402.587V397.624H235.006V401.432L232.528 397.624H231.611V402.587H232.297V398.541L234.978 402.587H235.692ZM239.162 402.139C239.162 402.412 239.372 402.622 239.645 402.622C239.918 402.622 240.135 402.412 240.135 402.139C240.135 401.866 239.918 401.649 239.645 401.649C239.372 401.649 239.162 401.866 239.162 402.139ZM239.155 399.675C239.155 399.948 239.365 400.158 239.638 400.158C239.911 400.158 240.128 399.948 240.128 399.675C240.128 399.402 239.911 399.185 239.638 399.185C239.365 399.185 239.155 399.402 239.155 399.675ZM244.105 400.319C244.105 399.745 244.203 399.304 244.427 399.024C244.581 398.821 244.798 398.688 245.127 398.688C245.456 398.688 245.666 398.821 245.827 399.024C246.044 399.304 246.142 399.745 246.142 400.319C246.142 400.893 246.044 401.334 245.827 401.614C245.666 401.817 245.456 401.95 245.127 401.95C244.798 401.95 244.581 401.817 244.427 401.614C244.21 401.334 244.105 400.893 244.105 400.319ZM243.272 400.319C243.272 400.921 243.37 401.488 243.678 401.95C243.972 402.391 244.448 402.692 245.127 402.692C245.806 402.692 246.275 402.391 246.569 401.95C246.877 401.488 246.975 400.921 246.975 400.319C246.975 399.717 246.877 399.15 246.569 398.688C246.275 398.247 245.806 397.946 245.127 397.946C244.448 397.946 243.972 398.247 243.678 398.688C243.37 399.15 243.272 399.717 243.272 400.319ZM248.698 400.319C248.698 399.745 248.796 399.304 249.02 399.024C249.174 398.821 249.391 398.688 249.72 398.688C250.049 398.688 250.259 398.821 250.42 399.024C250.637 399.304 250.735 399.745 250.735 400.319C250.735 400.893 250.637 401.334 250.42 401.614C250.259 401.817 250.049 401.95 249.72 401.95C249.391 401.95 249.174 401.817 249.02 401.614C248.803 401.334 248.698 400.893 248.698 400.319ZM247.865 400.319C247.865 400.921 247.963 401.488 248.271 401.95C248.565 402.391 249.041 402.692 249.72 402.692C250.399 402.692 250.868 402.391 251.162 401.95C251.47 401.488 251.568 400.921 251.568 400.319C251.568 399.717 251.47 399.15 251.162 398.688C250.868 398.247 250.399 397.946 249.72 397.946C249.041 397.946 248.565 398.247 248.271 398.688C247.963 399.15 247.865 399.717 247.865 400.319ZM255.587 398.051H252.199V398.786H254.635C254.635 398.786 253.053 400.053 252.857 402.587H253.725C253.928 400.249 255.209 399.101 255.587 398.786V398.051ZM259.49 398.17C259.294 398.044 258.944 397.946 258.524 397.946C257.117 397.946 256.088 398.94 256.088 400.585C256.088 401.747 256.746 402.692 257.901 402.692C258.853 402.692 259.623 402.062 259.623 401.117C259.623 400.186 258.986 399.584 258.083 399.584C257.6 399.584 257.166 399.759 256.928 400.123C257.005 399.241 257.621 398.674 258.475 398.674C258.846 398.674 259.084 398.765 259.252 398.856L259.49 398.17ZM257.019 401.131C257.019 400.599 257.425 400.284 257.901 400.284C258.377 400.284 258.783 400.599 258.783 401.131C258.783 401.656 258.377 401.978 257.901 401.978C257.439 401.978 257.019 401.649 257.019 401.131ZM261.549 402.587V400.585H263.565V399.808H261.549V398.415H263.796V397.624H260.709V402.587H261.549ZM267.391 402.587H268.343L267.223 400.543C267.916 400.375 268.343 399.836 268.343 399.129C268.343 398.289 267.748 397.624 266.789 397.624H264.885V402.587H265.732V400.627H266.348L267.391 402.587ZM265.732 399.885V398.366H266.635C267.153 398.366 267.489 398.667 267.489 399.129C267.489 399.584 267.153 399.885 266.635 399.885H265.732ZM269.31 402.433C269.541 402.587 269.989 402.692 270.36 402.692C271.9 402.692 272.684 401.712 272.684 400.067C272.684 398.618 271.837 397.946 270.892 397.946C269.94 397.946 269.184 398.59 269.184 399.528C269.184 400.494 269.933 401.054 270.752 401.054C271.291 401.054 271.69 400.823 271.858 400.529C271.816 401.383 271.305 401.957 270.353 401.957C270.052 401.957 269.716 401.859 269.541 401.747L269.31 402.433ZM271.746 399.5C271.746 400.018 271.333 400.347 270.878 400.347C270.409 400.347 270.01 400.032 270.01 399.5C270.01 398.989 270.416 398.66 270.878 398.66C271.333 398.66 271.746 398.996 271.746 399.5ZM273.51 401.593H275.694V402.587H276.52V401.593H277.283V400.851H276.52V398.051H275.442L273.51 400.683V401.593ZM275.694 400.851H274.266L275.694 398.898V400.851Z" fill="black"/>
<defs>
<linearGradient id="paint0_linear_562_954" x1="66.6424" y1="180.189" x2="133.328" y2="232.665" gradientUnits="userSpaceOnUse">
<stop stop-color="#FFE001"/>
<stop offset="1" stop-color="#FCDD8A"/>
</linearGradient>
</defs>
</svg>
