<svg width="290" height="418" viewBox="0 0 290 418" fill="none" xmlns="http://www.w3.org/2000/svg">
<mask id="path-1-inside-1_505_666" fill="white">
<path fill-rule="evenodd" clip-rule="evenodd" d="M178.19 11.4272H111.413V84.1284C70.4651 98.009 41 136.716 41 182.293C41 239.534 87.4736 285.937 144.802 285.937C202.13 285.937 248.603 239.534 248.603 182.293C248.603 136.716 219.138 98.0091 178.19 84.1284V11.4272Z"/>
</mask>
<path fill-rule="evenodd" clip-rule="evenodd" d="M178.19 11.4272H111.413V84.1284C70.4651 98.009 41 136.716 41 182.293C41 239.534 87.4736 285.937 144.802 285.937C202.13 285.937 248.603 239.534 248.603 182.293C248.603 136.716 219.138 98.0091 178.19 84.1284V11.4272Z" fill="white"/>
<path d="M111.413 11.4272V10.4272H110.413V11.4272H111.413ZM178.19 11.4272H179.19V10.4272H178.19V11.4272ZM111.413 84.1284L111.734 85.0754L112.413 84.8453V84.1284H111.413ZM178.19 84.1284H177.19V84.8454L177.869 85.0755L178.19 84.1284ZM111.413 12.4272H178.19V10.4272H111.413V12.4272ZM112.413 84.1284V11.4272H110.413V84.1284H112.413ZM42 182.293C42 137.158 71.1788 98.823 111.734 85.0754L111.092 83.1813C69.7513 97.1951 40 136.273 40 182.293H42ZM144.802 284.937C88.0244 284.937 42 238.98 42 182.293H40C40 240.088 86.9228 286.937 144.802 286.937V284.937ZM247.603 182.293C247.603 238.98 201.579 284.937 144.802 284.937V286.937C202.681 286.937 249.603 240.088 249.603 182.293H247.603ZM177.869 85.0755C218.425 98.8231 247.603 137.158 247.603 182.293H249.603C249.603 136.273 219.852 97.1952 178.511 83.1814L177.869 85.0755ZM177.19 11.4272V84.1284H179.19V11.4272H177.19Z" fill="black" mask="url(#path-1-inside-1_505_666)"/>
<path d="M109.832 212.69C109.832 216.503 106.736 219.596 102.915 219.596C99.0942 219.596 95.998 216.503 95.998 212.69C95.998 208.877 99.0942 205.784 102.915 205.784C106.736 205.784 109.832 208.877 109.832 212.69Z" fill="white" stroke="black"/>
<path d="M155.022 248.261C155.022 253.935 150.414 258.536 144.73 258.536C139.045 258.536 134.438 253.935 134.438 248.261C134.438 242.586 139.045 237.985 144.73 237.985C150.414 237.985 155.022 242.586 155.022 248.261Z" fill="white" stroke="black"/>
<path d="M181.629 182.736C181.629 186.549 178.533 189.642 174.712 189.642C170.891 189.642 167.795 186.549 167.795 182.736C167.795 178.923 170.891 175.83 174.712 175.83C178.533 175.83 181.629 178.923 181.629 182.736Z" fill="white" stroke="black"/>
<mask id="path-6-inside-2_505_666" fill="white">
<path fill-rule="evenodd" clip-rule="evenodd" d="M62.8334 182.38C63.1407 181.787 66.8413 174.85 73.7691 170.65C74.2185 170.377 74.6647 170.097 75.1175 169.812C81.9603 165.507 90.3109 160.253 134.09 168.249C163.429 173.608 173.353 167.225 181.652 161.888C186.556 158.734 190.893 155.946 198.332 156.161C217.632 156.718 226.327 173.21 226.573 182.38H226.7C226.7 193.123 224.581 203.761 220.463 213.687C216.346 223.612 210.311 232.631 202.702 240.228C195.094 247.824 186.062 253.85 176.121 257.962C166.18 262.073 155.526 264.189 144.766 264.189C134.006 264.189 123.352 262.073 113.411 257.962C103.47 253.85 94.4377 247.824 86.8294 240.228C79.2211 232.631 73.1858 223.612 69.0682 213.687C64.9558 203.774 62.8367 193.15 62.8314 182.42L62.8125 182.42C62.8125 182.42 62.8188 182.408 62.8313 182.383C62.8313 182.382 62.8313 182.381 62.8313 182.38H62.8334Z"/>
</mask>
<path fill-rule="evenodd" clip-rule="evenodd" d="M62.8334 182.38C63.1407 181.787 66.8413 174.85 73.7691 170.65C74.2185 170.377 74.6647 170.097 75.1175 169.812C81.9603 165.507 90.3109 160.253 134.09 168.249C163.429 173.608 173.353 167.225 181.652 161.888C186.556 158.734 190.893 155.946 198.332 156.161C217.632 156.718 226.327 173.21 226.573 182.38H226.7C226.7 193.123 224.581 203.761 220.463 213.687C216.346 223.612 210.311 232.631 202.702 240.228C195.094 247.824 186.062 253.85 176.121 257.962C166.18 262.073 155.526 264.189 144.766 264.189C134.006 264.189 123.352 262.073 113.411 257.962C103.47 253.85 94.4377 247.824 86.8294 240.228C79.2211 232.631 73.1858 223.612 69.0682 213.687C64.9558 203.774 62.8367 193.15 62.8314 182.42L62.8125 182.42C62.8125 182.42 62.8188 182.408 62.8313 182.383C62.8313 182.382 62.8313 182.381 62.8313 182.38H62.8334Z" fill="url(#paint0_linear_505_666)"/>
<path d="M62.8334 182.38V183.38H63.4412L63.7211 182.84L62.8334 182.38ZM73.7691 170.65L74.2875 171.505L74.2875 171.505L73.7691 170.65ZM75.1175 169.812L74.585 168.965L74.585 168.965L75.1175 169.812ZM134.09 168.249L133.91 169.233L134.09 168.249ZM181.652 161.888L182.193 162.729L182.193 162.729L181.652 161.888ZM198.332 156.161L198.361 155.161L198.332 156.161ZM226.573 182.38L225.574 182.406L225.6 183.38H226.573V182.38ZM226.7 182.38H227.7V181.38H226.7V182.38ZM220.463 213.687L219.54 213.303L219.54 213.303L220.463 213.687ZM176.121 257.962L176.503 258.886L176.503 258.886L176.121 257.962ZM113.411 257.962L113.793 257.038L113.793 257.038L113.411 257.962ZM69.0682 213.687L69.9919 213.303L69.9919 213.303L69.0682 213.687ZM62.8314 182.42L63.8314 182.42L63.8309 181.426L62.8372 181.42L62.8314 182.42ZM62.8125 182.42L61.9193 181.971L61.1944 183.411L62.8066 183.42L62.8125 182.42ZM62.8313 182.383L63.7194 182.843L63.8314 182.627L63.8313 182.383L62.8313 182.383ZM62.8313 182.38V181.38H61.8313V182.38H62.8313ZM63.7211 182.84C64.0081 182.287 67.6038 175.557 74.2875 171.505L73.2507 169.795C66.0788 174.142 62.2734 181.287 61.9456 181.919L63.7211 182.84ZM74.2875 171.505C74.7452 171.227 75.1984 170.942 75.65 170.658L74.585 168.965C74.131 169.251 73.6918 169.527 73.2507 169.795L74.2875 171.505ZM75.65 170.658C79.0046 168.548 82.652 166.243 90.8534 165.412C99.1291 164.575 112.053 165.241 133.91 169.233L134.27 167.266C112.348 163.262 99.2069 162.557 90.6519 163.423C82.0225 164.296 78.0732 166.771 74.585 168.965L75.65 170.658ZM133.91 169.233C148.664 171.928 158.621 171.687 165.977 170.056C173.348 168.422 178.031 165.406 182.193 162.729L181.111 161.047C176.974 163.708 172.545 166.552 165.544 168.103C158.529 169.659 148.855 169.93 134.27 167.266L133.91 169.233ZM182.193 162.729C187.085 159.583 191.194 156.955 198.303 157.16L198.361 155.161C190.591 154.936 186.027 157.886 181.111 161.047L182.193 162.729ZM198.303 157.16C207.644 157.43 214.388 161.545 218.842 166.695C223.321 171.875 225.457 178.073 225.574 182.406L227.573 182.353C227.443 177.516 225.109 170.884 220.354 165.386C215.574 159.859 208.321 155.449 198.361 155.161L198.303 157.16ZM226.573 183.38H226.7V181.38H226.573V183.38ZM225.7 182.38C225.7 192.991 223.607 203.499 219.54 213.303L221.387 214.07C225.555 204.023 227.7 193.254 227.7 182.38H225.7ZM219.54 213.303C215.473 223.108 209.511 232.016 201.996 239.52L203.409 240.935C211.11 233.246 217.219 224.117 221.387 214.07L219.54 213.303ZM201.996 239.52C194.48 247.024 185.558 252.976 175.739 257.038L176.503 258.886C186.565 254.724 195.708 248.625 203.409 240.935L201.996 239.52ZM175.739 257.038C165.919 261.099 155.395 263.189 144.766 263.189V265.189C155.657 265.189 166.441 263.047 176.503 258.886L175.739 257.038ZM144.766 263.189C134.137 263.189 123.613 261.099 113.793 257.038L113.029 258.886C123.091 263.047 133.875 265.189 144.766 265.189V263.189ZM113.793 257.038C103.974 252.976 95.0514 247.024 87.536 239.52L86.1228 240.935C93.8241 248.625 102.967 254.724 113.029 258.886L113.793 257.038ZM87.536 239.52C80.0206 232.016 74.0591 223.108 69.9919 213.303L68.1446 214.07C72.3125 224.117 78.4216 233.246 86.1228 240.935L87.536 239.52ZM69.9919 213.303C65.9298 203.512 63.8366 193.018 63.8314 182.42L61.8314 182.421C61.8368 193.282 63.9819 204.036 68.1446 214.07L69.9919 213.303ZM62.8372 181.42L62.8184 181.42L62.8066 183.42L62.8255 183.42L62.8372 181.42ZM62.8125 182.42C63.7057 182.87 63.7057 182.87 63.7057 182.87C63.7057 182.87 63.7057 182.87 63.7057 182.87C63.7057 182.87 63.7057 182.87 63.7057 182.87C63.7057 182.87 63.7057 182.87 63.7056 182.87C63.7056 182.87 63.7056 182.87 63.7056 182.87C63.7055 182.87 63.7055 182.87 63.7055 182.87C63.7054 182.87 63.7054 182.87 63.7054 182.87C63.7054 182.871 63.7055 182.87 63.7056 182.87C63.706 182.869 63.7067 182.868 63.7079 182.866C63.7101 182.861 63.714 182.854 63.7194 182.843L61.9433 181.924C61.9362 181.937 61.9306 181.948 61.9266 181.956C61.9245 181.96 61.9229 181.963 61.9217 181.966C61.9211 181.967 61.9206 181.968 61.9202 181.969C61.92 181.969 61.9198 181.969 61.9197 181.97C61.9196 181.97 61.9195 181.97 61.9195 181.97C61.9194 181.97 61.9194 181.97 61.9194 181.97C61.9193 181.97 61.9193 181.97 61.9193 181.97C61.9193 181.97 61.9193 181.971 61.9193 181.971C61.9193 181.971 61.9193 181.971 61.9193 181.971C61.9193 181.971 61.9193 181.971 62.8125 182.42ZM63.8313 182.383C63.8313 182.382 63.8313 182.381 63.8313 182.38H61.8313C61.8313 182.381 61.8313 182.383 61.8313 182.383L63.8313 182.383ZM62.8313 183.38H62.8334V181.38H62.8313V183.38Z" fill="black" mask="url(#path-6-inside-2_505_666)"/>
<rect x="98.0674" y="1.43677" width="92.1876" height="25.5844" rx="12.7922" fill="white" stroke="black"/>
<rect x="11" y="321" width="268" height="44" fill="black"/>
<path d="M64.7189 343.042H67.9689C68.9569 343.042 69.7282 342.791 70.2829 342.288C70.8549 341.768 71.1409 341.075 71.1409 340.208C71.1409 339.324 70.8549 338.622 70.2829 338.102C69.7282 337.582 68.9569 337.322 67.9689 337.322H64.7189V343.042ZM68.4369 345.798H64.7189V353H61.5989V334.566H68.4369C70.1876 334.566 71.6002 335.095 72.6749 336.152C73.7669 337.209 74.3129 338.553 74.3129 340.182C74.3129 341.829 73.7669 343.181 72.6749 344.238C71.6002 345.278 70.1876 345.798 68.4369 345.798ZM85.7537 351.596C85.4591 352.151 84.9737 352.584 84.2977 352.896C83.6391 353.208 82.9284 353.364 82.1657 353.364C80.6924 353.364 79.5224 352.887 78.6557 351.934C77.8064 350.981 77.3817 349.776 77.3817 348.32V340.338H80.3977V347.774C80.3977 348.623 80.6057 349.317 81.0217 349.854C81.4377 350.391 82.0791 350.66 82.9457 350.66C83.7951 350.66 84.4451 350.4 84.8957 349.88C85.3637 349.36 85.5977 348.675 85.5977 347.826V340.338H88.6137V350.686C88.6137 351.449 88.6571 352.22 88.7437 353H85.8577C85.7884 352.619 85.7537 352.151 85.7537 351.596ZM100.968 340.26V343.328C100.621 343.276 100.292 343.25 99.9796 343.25C97.7089 343.25 96.5736 344.489 96.5736 346.968V353H93.5576V340.338H96.4956V342.366C96.7902 341.69 97.2669 341.161 97.9256 340.78C98.5842 340.381 99.3296 340.182 100.162 340.182C100.439 340.182 100.708 340.208 100.968 340.26ZM107.515 353H104.525V340.338H107.515V353ZM104.629 337.27C104.248 336.889 104.057 336.429 104.057 335.892C104.057 335.355 104.248 334.895 104.629 334.514C105.011 334.115 105.47 333.916 106.007 333.916C106.562 333.916 107.03 334.107 107.411 334.488C107.793 334.869 107.983 335.337 107.983 335.892C107.983 336.429 107.793 336.889 107.411 337.27C107.03 337.651 106.562 337.842 106.007 337.842C105.47 337.842 105.011 337.651 104.629 337.27ZM117.568 334.046C118.279 334.046 118.808 334.133 119.154 334.306V336.88C118.86 336.793 118.496 336.75 118.062 336.75C117.577 336.75 117.144 336.897 116.762 337.192C116.381 337.487 116.19 337.981 116.19 338.674V340.338H124.614V353H121.65V342.964H116.19V353H113.148V342.964H110.938V340.338H113.148V338.596C113.148 337.192 113.556 336.083 114.37 335.268C115.185 334.453 116.251 334.046 117.568 334.046ZM121.182 335.866C121.182 335.311 121.373 334.843 121.754 334.462C122.136 334.081 122.595 333.89 123.132 333.89C123.687 333.89 124.155 334.089 124.536 334.488C124.918 334.869 125.108 335.329 125.108 335.866C125.108 336.403 124.909 336.863 124.51 337.244C124.129 337.625 123.67 337.816 123.132 337.816C122.595 337.816 122.136 337.625 121.754 337.244C121.373 336.863 121.182 336.403 121.182 335.866ZM135.096 342.73C134.125 342.73 133.302 343.085 132.626 343.796C131.95 344.489 131.612 345.443 131.612 346.656C131.612 347.887 131.95 348.857 132.626 349.568C133.319 350.279 134.16 350.634 135.148 350.634C136.032 350.634 136.734 350.4 137.254 349.932C137.791 349.447 138.146 348.901 138.32 348.294L140.972 349.256C140.625 350.383 139.949 351.353 138.944 352.168C137.956 352.983 136.69 353.39 135.148 353.39C133.293 353.39 131.733 352.749 130.468 351.466C129.22 350.183 128.596 348.58 128.596 346.656C128.596 344.715 129.211 343.111 130.442 341.846C131.69 340.581 133.232 339.948 135.07 339.948C136.647 339.948 137.93 340.355 138.918 341.17C139.923 341.985 140.573 342.964 140.868 344.108L138.164 345.096C137.99 344.437 137.652 343.883 137.15 343.432C136.664 342.964 135.98 342.73 135.096 342.73ZM143.834 349.568C143.834 348.493 144.181 347.635 144.874 346.994C145.585 346.335 146.512 345.919 147.656 345.746L150.906 345.252C151.53 345.165 151.842 344.862 151.842 344.342C151.842 343.77 151.643 343.311 151.244 342.964C150.845 342.6 150.247 342.418 149.45 342.418C148.687 342.418 148.081 342.635 147.63 343.068C147.179 343.484 146.919 344.03 146.85 344.706L144.094 344.082C144.215 342.938 144.761 341.967 145.732 341.17C146.703 340.355 147.933 339.948 149.424 339.948C151.261 339.948 152.613 340.39 153.48 341.274C154.364 342.158 154.806 343.293 154.806 344.68V350.972C154.806 351.804 154.858 352.48 154.962 353H152.154C152.067 352.74 152.024 352.203 152.024 351.388C151.192 352.723 149.892 353.39 148.124 353.39C146.841 353.39 145.801 353.017 145.004 352.272C144.224 351.509 143.834 350.608 143.834 349.568ZM148.696 351.024C149.632 351.024 150.386 350.773 150.958 350.27C151.547 349.75 151.842 348.909 151.842 347.748V347.176L148.54 347.67C147.413 347.861 146.85 348.433 146.85 349.386C146.85 349.837 147.015 350.227 147.344 350.556C147.673 350.868 148.124 351.024 148.696 351.024ZM163.263 336.464V340.338H165.889V343.016H163.263V348.892C163.263 349.447 163.393 349.854 163.653 350.114C163.913 350.357 164.321 350.478 164.875 350.478C165.222 350.478 165.569 350.443 165.915 350.374V352.87C165.465 353.061 164.849 353.156 164.069 353.156C162.891 353.156 161.963 352.827 161.287 352.168C160.611 351.492 160.273 350.565 160.273 349.386V343.016H157.933V340.338H158.583C159.225 340.338 159.71 340.156 160.039 339.792C160.369 339.428 160.533 338.951 160.533 338.362V336.464H163.263ZM173.018 353H170.028V340.338H173.018V353ZM170.132 337.27C169.751 336.889 169.56 336.429 169.56 335.892C169.56 335.355 169.751 334.895 170.132 334.514C170.513 334.115 170.973 333.916 171.51 333.916C172.065 333.916 172.533 334.107 172.914 334.488C173.295 334.869 173.486 335.337 173.486 335.892C173.486 336.429 173.295 336.889 172.914 337.27C172.533 337.651 172.065 337.842 171.51 337.842C170.973 337.842 170.513 337.651 170.132 337.27ZM180.965 353H177.949V334.176H180.965V353ZM188.885 353H185.895V340.338H188.885V353ZM185.999 337.27C185.618 336.889 185.427 336.429 185.427 335.892C185.427 335.355 185.618 334.895 185.999 334.514C186.38 334.115 186.84 333.916 187.377 333.916C187.932 333.916 188.4 334.107 188.781 334.488C189.162 334.869 189.353 335.337 189.353 335.892C189.353 336.429 189.162 336.889 188.781 337.27C188.4 337.651 187.932 337.842 187.377 337.842C186.84 337.842 186.38 337.651 185.999 337.27ZM202.058 351.596C201.763 352.151 201.278 352.584 200.602 352.896C199.943 353.208 199.233 353.364 198.47 353.364C196.997 353.364 195.827 352.887 194.96 351.934C194.111 350.981 193.686 349.776 193.686 348.32V340.338H196.702V347.774C196.702 348.623 196.91 349.317 197.326 349.854C197.742 350.391 198.383 350.66 199.25 350.66C200.099 350.66 200.749 350.4 201.2 349.88C201.668 349.36 201.902 348.675 201.902 347.826V340.338H204.918V350.686C204.918 351.449 204.961 352.22 205.048 353H202.162C202.093 352.619 202.058 352.151 202.058 351.596ZM212.852 353H209.862V340.338H212.748V341.95C213.095 341.326 213.615 340.841 214.308 340.494C215.019 340.147 215.747 339.974 216.492 339.974C217.341 339.974 218.104 340.165 218.78 340.546C219.456 340.927 219.959 341.482 220.288 342.21C221.172 340.719 222.541 339.974 224.396 339.974C225.644 339.974 226.701 340.381 227.568 341.196C228.435 342.011 228.868 343.207 228.868 344.784V353H225.956V345.278C225.956 344.498 225.748 343.874 225.332 343.406C224.933 342.921 224.327 342.678 223.512 342.678C222.732 342.678 222.099 342.947 221.614 343.484C221.129 344.021 220.886 344.689 220.886 345.486V353H217.922V345.278C217.922 344.498 217.714 343.874 217.298 343.406C216.899 342.921 216.293 342.678 215.478 342.678C214.681 342.678 214.039 342.947 213.554 343.484C213.086 344.004 212.852 344.671 212.852 345.486V353Z" fill="white"/>
<path opacity="0.8" d="M52.88 388.13V382.78H54.35C55.66 382.78 56.74 383.68 56.74 385.47C56.74 387.25 55.64 388.13 54.33 388.13H52.88ZM54.36 389C56.16 389 57.75 387.79 57.75 385.47C57.75 383.14 56.18 381.91 54.38 381.91H51.9V389H54.36ZM63.8073 389V388.09H60.4773V385.92H63.4973V385H60.4773V382.82H63.8073V381.91H59.4973V389H63.8073ZM70.2278 383.52C70.0678 382.75 69.4278 381.76 67.8278 381.76C66.5178 381.76 65.4878 382.76 65.4878 383.87C65.4878 384.93 66.2078 385.59 67.2178 385.81L68.2278 386.03C68.9378 386.18 69.2878 386.62 69.2878 387.13C69.2878 387.75 68.8078 388.26 67.8278 388.26C66.7578 388.26 66.1978 387.53 66.1278 386.74L65.1878 387.04C65.3178 388.05 66.1278 389.15 67.8378 389.15C69.3478 389.15 70.2878 388.15 70.2878 387.05C70.2878 386.06 69.6278 385.32 68.4478 385.06L67.3878 384.83C66.7878 384.7 66.4778 384.31 66.4778 383.8C66.4778 383.14 67.0478 382.62 67.8478 382.62C68.8378 382.62 69.2678 383.32 69.3478 383.83L70.2278 383.52ZM75.0567 389.15C76.6867 389.15 77.8067 388.2 78.1867 386.87L77.3167 386.55C77.0267 387.52 76.2667 388.25 75.0567 388.25C73.7667 388.25 72.5367 387.3 72.5367 385.45C72.5367 383.6 73.7667 382.66 75.0567 382.66C76.2167 382.66 76.9967 383.26 77.2667 384.33L78.1767 384.01C77.8167 382.64 76.6767 381.76 75.0567 381.76C73.2967 381.76 71.5367 383.08 71.5367 385.45C71.5367 387.82 73.2267 389.15 75.0567 389.15ZM83.5567 389H84.6967L83.0067 386.03C84.0767 385.83 84.7267 385.04 84.7267 384.02C84.7267 382.85 83.8967 381.91 82.5567 381.91H79.8867V389H80.8767V386.1H81.9367L83.5567 389ZM80.8767 385.22V382.79H82.3767C83.1767 382.79 83.7167 383.27 83.7167 384.02C83.7167 384.75 83.1767 385.22 82.3767 385.22H80.8767ZM87.4781 389V381.91H86.4781V389H87.4781ZM90.6609 385.22V382.79H92.0809C92.9309 382.79 93.4509 383.27 93.4509 384.02C93.4509 384.75 92.9309 385.22 92.0809 385.22H90.6609ZM92.2609 386.1C93.5709 386.1 94.4509 385.21 94.4509 384.01C94.4509 382.82 93.5709 381.91 92.2609 381.91H89.6809V389H90.6609V386.1H92.2609ZM100.968 382.82V381.91H95.2477V382.82H97.6177V389H98.5977V382.82H100.968ZM103.366 389V381.91H102.366V389H103.366ZM106.118 385.45C106.118 383.6 107.358 382.66 108.678 382.66C109.998 382.66 111.238 383.6 111.238 385.45C111.238 387.3 109.998 388.25 108.678 388.25C107.358 388.25 106.118 387.3 106.118 385.45ZM105.118 385.45C105.118 387.82 106.898 389.15 108.678 389.15C110.458 389.15 112.238 387.82 112.238 385.45C112.238 383.08 110.458 381.76 108.678 381.76C106.898 381.76 105.118 383.08 105.118 385.45ZM119.816 389V381.91H118.836V387.35L115.296 381.91H113.986V389H114.966V383.22L118.796 389H119.816ZM124.773 388.36C124.773 388.75 125.073 389.05 125.463 389.05C125.853 389.05 126.163 388.75 126.163 388.36C126.163 387.97 125.853 387.66 125.463 387.66C125.073 387.66 124.773 387.97 124.773 388.36ZM124.763 384.84C124.763 385.23 125.063 385.53 125.453 385.53C125.843 385.53 126.153 385.23 126.153 384.84C126.153 384.45 125.843 384.14 125.453 384.14C125.063 384.14 124.763 384.45 124.763 384.84ZM133.084 385.17H134.334C134.714 385.17 135.01 385.073 135.224 384.88C135.444 384.68 135.554 384.413 135.554 384.08C135.554 383.74 135.444 383.47 135.224 383.27C135.01 383.07 134.714 382.97 134.334 382.97H133.084V385.17ZM134.514 386.23H133.084V389H131.884V381.91H134.514C135.187 381.91 135.73 382.113 136.144 382.52C136.564 382.927 136.774 383.443 136.774 384.07C136.774 384.703 136.564 385.223 136.144 385.63C135.73 386.03 135.187 386.23 134.514 386.23ZM142.74 388.46C142.246 388.92 141.613 389.15 140.84 389.15C140.066 389.15 139.433 388.92 138.94 388.46C138.446 388 138.2 387.357 138.2 386.53V381.91H139.39V386.46C139.39 386.953 139.516 387.337 139.77 387.61C140.03 387.877 140.386 388.01 140.84 388.01C141.3 388.01 141.656 387.877 141.91 387.61C142.163 387.343 142.29 386.96 142.29 386.46V381.91H143.49V386.53C143.49 387.357 143.24 388 142.74 388.46ZM149.086 389L147.596 386.2H146.716V389H145.506V381.91H148.226C148.893 381.91 149.429 382.117 149.836 382.53C150.243 382.937 150.446 383.447 150.446 384.06C150.446 384.567 150.303 385 150.016 385.36C149.729 385.72 149.339 385.96 148.846 386.08L150.446 389H149.086ZM146.716 385.14H148.006C148.373 385.14 148.666 385.043 148.886 384.85C149.113 384.65 149.226 384.387 149.226 384.06C149.226 383.727 149.113 383.463 148.886 383.27C148.666 383.07 148.373 382.97 148.006 382.97H146.716V385.14ZM153.347 389H152.127V381.91H153.347V389ZM156.646 389H155.446V381.91H159.856V383.04H156.646V385.03H159.526V386.14H156.646V389ZM162.633 389H161.413V381.91H162.633V389ZM167.883 389.15C166.889 389.15 166.043 388.813 165.343 388.14C164.649 387.467 164.303 386.573 164.303 385.46C164.303 384.353 164.656 383.46 165.363 382.78C166.069 382.1 166.906 381.76 167.873 381.76C168.726 381.76 169.426 381.977 169.973 382.41C170.526 382.843 170.889 383.393 171.063 384.06L169.933 384.44C169.819 383.98 169.589 383.607 169.243 383.32C168.896 383.033 168.439 382.89 167.873 382.89C167.239 382.89 166.689 383.117 166.223 383.57C165.763 384.017 165.533 384.647 165.533 385.46C165.533 386.253 165.763 386.877 166.223 387.33C166.683 387.777 167.236 388 167.883 388C168.436 388 168.893 387.85 169.253 387.55C169.613 387.25 169.859 386.88 169.993 386.44L171.093 386.8C170.919 387.46 170.553 388.017 169.993 388.47C169.439 388.923 168.736 389.15 167.883 389.15ZM177.307 389L176.637 387.22H173.637L172.977 389H171.707L174.467 381.91H175.857L178.617 389H177.307ZM175.137 383.21L174.057 386.11H176.217L175.137 383.21ZM184.402 383.04H182.092V389H180.892V383.04H178.592V381.91H184.402V383.04ZM187.006 389H185.786V381.91H187.006V389ZM190.606 383.57C190.14 384.017 189.906 384.643 189.906 385.45C189.906 386.257 190.14 386.887 190.606 387.34C191.073 387.787 191.63 388.01 192.276 388.01C192.923 388.01 193.48 387.787 193.946 387.34C194.42 386.887 194.656 386.257 194.656 385.45C194.656 384.643 194.42 384.017 193.946 383.57C193.48 383.117 192.923 382.89 192.276 382.89C191.63 382.89 191.073 383.117 190.606 383.57ZM189.186 387.43C188.846 386.857 188.676 386.197 188.676 385.45C188.676 384.703 188.846 384.047 189.186 383.48C189.533 382.907 189.976 382.477 190.516 382.19C191.056 381.903 191.643 381.76 192.276 381.76C192.91 381.76 193.496 381.903 194.036 382.19C194.576 382.477 195.02 382.907 195.366 383.48C195.713 384.047 195.886 384.703 195.886 385.45C195.886 386.197 195.713 386.857 195.366 387.43C195.02 388.003 194.576 388.433 194.036 388.72C193.496 389.007 192.91 389.15 192.276 389.15C191.643 389.15 191.056 389.007 190.516 388.72C189.976 388.433 189.533 388.003 189.186 387.43ZM203.503 389H202.253L198.753 383.63V389H197.553V381.91H199.083L202.303 386.94V381.91H203.503V389ZM209.68 387.9H210.94C211.593 387.9 212.13 387.693 212.55 387.28C212.977 386.86 213.19 386.257 213.19 385.47C213.19 384.677 212.98 384.07 212.56 383.65C212.14 383.223 211.603 383.01 210.95 383.01H209.68V387.9ZM210.98 389H208.48V381.91H210.99C211.99 381.91 212.813 382.227 213.46 382.86C214.113 383.493 214.44 384.363 214.44 385.47C214.44 386.57 214.113 387.433 213.46 388.06C212.807 388.687 211.98 389 210.98 389ZM220.477 389H216.097V381.91H220.477V383.03H217.297V384.91H220.177V386H217.297V387.88H220.477V389ZM229.648 389H225.198V381.91H226.398V387.86H229.648V389ZM229.991 382.51C229.991 382.323 230.061 382.163 230.201 382.03C230.341 381.897 230.517 381.83 230.731 381.83C230.971 381.83 231.167 381.917 231.321 382.09C231.481 382.263 231.561 382.487 231.561 382.76C231.561 383.347 231.407 383.793 231.101 384.1C230.794 384.407 230.454 384.58 230.081 384.62V384.07C230.287 384.03 230.471 383.923 230.631 383.75C230.791 383.57 230.874 383.37 230.881 383.15C230.814 383.183 230.744 383.2 230.671 383.2C230.471 383.2 230.307 383.137 230.181 383.01C230.054 382.883 229.991 382.717 229.991 382.51ZM236.922 389L236.252 387.22H233.252L232.592 389H231.322L234.082 381.91H235.472L238.232 389H236.922ZM234.752 383.21L233.672 386.11H235.832L234.752 383.21ZM240.801 389H239.581V381.91H240.801V389ZM246.481 389L244.991 386.2H244.111V389H242.901V381.91H245.621C246.288 381.91 246.825 382.117 247.231 382.53C247.638 382.937 247.841 383.447 247.841 384.06C247.841 384.567 247.698 385 247.411 385.36C247.125 385.72 246.735 385.96 246.241 386.08L247.841 389H246.481ZM244.111 385.14H245.401C245.768 385.14 246.061 385.043 246.281 384.85C246.508 384.65 246.621 384.387 246.621 384.06C246.621 383.727 246.508 383.463 246.281 383.27C246.061 383.07 245.768 382.97 245.401 382.97H244.111V385.14ZM258.352 389H257.102L253.602 383.63V389H252.402V381.91H253.932L257.152 386.94V381.91H258.352V389ZM260.949 383.48C260.815 383.613 260.749 383.787 260.749 384C260.749 384.213 260.815 384.39 260.949 384.53C261.089 384.67 261.259 384.74 261.459 384.74C261.659 384.74 261.825 384.67 261.959 384.53C262.092 384.39 262.159 384.213 262.159 384C262.159 383.787 262.092 383.613 261.959 383.48C261.825 383.34 261.659 383.27 261.459 383.27C261.259 383.27 261.089 383.34 260.949 383.48ZM260.299 385.14C259.979 384.827 259.819 384.447 259.819 384C259.819 383.553 259.979 383.173 260.299 382.86C260.625 382.547 261.012 382.39 261.459 382.39C261.905 382.39 262.289 382.547 262.609 382.86C262.935 383.173 263.099 383.553 263.099 384C263.099 384.447 262.935 384.827 262.609 385.14C262.289 385.447 261.902 385.6 261.449 385.6C261.002 385.6 260.619 385.447 260.299 385.14ZM265.3 384.95L264.14 384.87C264.12 384.69 264.11 384.567 264.11 384.5C264.11 383.913 264.316 383.413 264.73 383C265.15 382.58 265.713 382.37 266.42 382.37C267.113 382.37 267.666 382.567 268.08 382.96C268.493 383.353 268.7 383.837 268.7 384.41C268.7 385.237 268.283 385.907 267.45 386.42L266.19 387.2C265.823 387.42 265.603 387.667 265.53 387.94H268.74V389H264.05C264.063 388.42 264.186 387.913 264.42 387.48C264.653 387.047 265.043 386.66 265.59 386.32L266.66 385.65C267.213 385.303 267.49 384.897 267.49 384.43C267.49 384.143 267.393 383.903 267.2 383.71C267.013 383.517 266.746 383.42 266.4 383.42C266.033 383.42 265.753 383.533 265.56 383.76C265.366 383.98 265.27 384.267 265.27 384.62L265.3 384.95ZM269.694 387.58V386.28L272.454 382.52H273.994V386.52H275.084V387.58H273.994V389H272.814V387.58H269.694ZM272.814 386.52V383.73L270.774 386.52H272.814ZM55.184 406V405.264H52.504V400.328H51.72V406H55.184ZM56.5816 403.16C56.5816 401.68 57.5736 400.928 58.6296 400.928C59.6856 400.928 60.6776 401.68 60.6776 403.16C60.6776 404.64 59.6856 405.4 58.6296 405.4C57.5736 405.4 56.5816 404.64 56.5816 403.16ZM55.7816 403.16C55.7816 405.056 57.2056 406.12 58.6296 406.12C60.0536 406.12 61.4776 405.056 61.4776 403.16C61.4776 401.264 60.0536 400.208 58.6296 400.208C57.2056 400.208 55.7816 401.264 55.7816 403.16ZM66.6085 401.056V400.328H62.0325V401.056H63.9285V406H64.7125V401.056H66.6085ZM69.9349 405.488C69.9349 405.8 70.1749 406.04 70.4869 406.04C70.7989 406.04 71.0469 405.8 71.0469 405.488C71.0469 405.176 70.7989 404.928 70.4869 404.928C70.1749 404.928 69.9349 405.176 69.9349 405.488ZM69.9269 402.672C69.9269 402.984 70.1669 403.224 70.4789 403.224C70.7909 403.224 71.0389 402.984 71.0389 402.672C71.0389 402.36 70.7909 402.112 70.4789 402.112C70.1669 402.112 69.9269 402.36 69.9269 402.672ZM78.8316 406L78.2956 404.576H75.8956L75.3676 406H74.3516L76.5596 400.328H77.6716L79.8796 406H78.8316ZM77.0956 401.368L76.2316 403.688H77.9596L77.0956 401.368ZM82.5221 404.744L84.1141 400.328H85.1301L82.9861 406H82.0101L79.8981 400.328H80.9381L82.5221 404.744ZM91.5349 404.504L92.6469 400.328H93.6389L92.0469 406H91.0549L89.6789 401.712L88.3029 406H87.3189L85.7109 400.328H86.7189L87.8549 404.472L89.1829 400.328H90.1829L91.5349 404.504ZM96.4101 404.072H94.1541V403.248H96.4101V404.072ZM97.2919 404.568L98.1959 404.336C98.2173 404.619 98.3239 404.851 98.5159 405.032C98.7079 405.213 98.9506 405.304 99.2439 405.304C99.5213 405.304 99.7533 405.219 99.9399 405.048C100.132 404.872 100.228 404.643 100.228 404.36C100.228 404.056 100.132 403.821 99.9399 403.656C99.7479 403.485 99.5106 403.4 99.2279 403.4C98.8653 403.4 98.5773 403.52 98.3639 403.76L97.4599 403.432L98.0999 400.816H100.94V401.656H98.7479L98.4279 402.968C98.6573 402.728 98.9879 402.608 99.4199 402.608C99.9479 402.608 100.375 402.763 100.7 403.072C101.031 403.381 101.196 403.803 101.196 404.336C101.196 404.837 101.017 405.261 100.66 405.608C100.303 405.955 99.8306 406.128 99.2439 406.128C98.6999 406.128 98.2466 405.976 97.8839 405.672C97.5213 405.363 97.3239 404.995 97.2919 404.568ZM103.402 402.936H104.402C104.706 402.936 104.944 402.859 105.114 402.704C105.29 402.544 105.378 402.331 105.378 402.064C105.378 401.792 105.29 401.576 105.114 401.416C104.944 401.256 104.706 401.176 104.402 401.176H103.402V402.936ZM104.546 403.784H103.402V406H102.442V400.328H104.546C105.085 400.328 105.52 400.491 105.85 400.816C106.186 401.141 106.354 401.555 106.354 402.056C106.354 402.563 106.186 402.979 105.85 403.304C105.52 403.624 105.085 403.784 104.546 403.784ZM135.914 406H136.826L135.474 403.624C136.33 403.464 136.85 402.832 136.85 402.016C136.85 401.08 136.186 400.328 135.114 400.328H132.978V406H133.77V403.68H134.618L135.914 406ZM133.77 402.976V401.032H134.97C135.61 401.032 136.042 401.416 136.042 402.016C136.042 402.6 135.61 402.976 134.97 402.976H133.77ZM141.7 406V405.272H139.036V403.536H141.452V402.8H139.036V401.056H141.7V400.328H138.252V406H141.7ZM141.252 398.976H140.212L139.404 399.928H140.156L141.252 398.976ZM148.093 406V403.224H145.381V403.928H147.349C147.317 404.512 146.861 405.408 145.597 405.408C144.581 405.408 143.621 404.664 143.621 403.16C143.621 401.656 144.613 400.928 145.629 400.928C146.509 400.928 147.173 401.408 147.429 402.224L148.141 401.92C147.813 400.896 146.861 400.208 145.629 400.208C144.229 400.208 142.821 401.24 142.821 403.16C142.821 405.08 144.149 406.12 145.573 406.12C146.525 406.12 147.141 405.648 147.389 405.2L147.461 406H148.093ZM150.418 406V400.328H149.618V406H150.418ZM152.62 403.16C152.62 401.68 153.612 400.928 154.668 400.928C155.724 400.928 156.716 401.68 156.716 403.16C156.716 404.64 155.724 405.4 154.668 405.4C153.612 405.4 152.62 404.64 152.62 403.16ZM151.82 403.16C151.82 405.056 153.244 406.12 154.668 406.12C156.092 406.12 157.516 405.056 157.516 403.16C157.516 401.264 156.092 400.208 154.668 400.208C153.244 400.208 151.82 401.264 151.82 403.16ZM163.578 406V400.328H162.794V404.68L159.962 400.328H158.914V406H159.698V401.376L162.762 406H163.578ZM167.544 405.488C167.544 405.8 167.784 406.04 168.096 406.04C168.408 406.04 168.656 405.8 168.656 405.488C168.656 405.176 168.408 404.928 168.096 404.928C167.784 404.928 167.544 405.176 167.544 405.488ZM167.536 402.672C167.536 402.984 167.776 403.224 168.088 403.224C168.4 403.224 168.648 402.984 168.648 402.672C168.648 402.36 168.4 402.112 168.088 402.112C167.776 402.112 167.536 402.36 167.536 402.672ZM173.193 403.408C173.193 404.08 173.315 404.573 173.561 404.888C173.753 405.144 174.019 405.272 174.361 405.272C174.691 405.272 174.958 405.144 175.161 404.888C175.401 404.579 175.521 404.085 175.521 403.408C175.521 402.731 175.401 402.237 175.161 401.928C174.958 401.672 174.691 401.544 174.361 401.544C174.019 401.544 173.753 401.672 173.561 401.928C173.315 402.232 173.193 402.725 173.193 403.408ZM172.705 405.272C172.395 404.808 172.241 404.187 172.241 403.408C172.241 402.629 172.395 402.008 172.705 401.544C173.083 400.979 173.635 400.696 174.361 400.696C175.081 400.696 175.63 400.979 176.009 401.544C176.318 402.008 176.473 402.629 176.473 403.408C176.473 404.187 176.318 404.808 176.009 405.272C175.63 405.837 175.081 406.12 174.361 406.12C173.635 406.12 173.083 405.837 172.705 405.272ZM178.442 403.408C178.442 404.08 178.565 404.573 178.81 404.888C179.002 405.144 179.269 405.272 179.61 405.272C179.941 405.272 180.208 405.144 180.41 404.888C180.65 404.579 180.77 404.085 180.77 403.408C180.77 402.731 180.65 402.237 180.41 401.928C180.208 401.672 179.941 401.544 179.61 401.544C179.269 401.544 179.002 401.672 178.81 401.928C178.565 402.232 178.442 402.725 178.442 403.408ZM177.954 405.272C177.645 404.808 177.49 404.187 177.49 403.408C177.49 402.629 177.645 402.008 177.954 401.544C178.333 400.979 178.885 400.696 179.61 400.696C180.33 400.696 180.88 400.979 181.258 401.544C181.568 402.008 181.722 402.629 181.722 403.408C181.722 404.187 181.568 404.808 181.258 405.272C180.88 405.837 180.33 406.12 179.61 406.12C178.885 406.12 178.333 405.837 177.954 405.272ZM186.315 400.816V401.656C186.187 401.763 186.062 401.875 185.939 401.992C185.822 402.109 185.659 402.304 185.451 402.576C185.243 402.843 185.062 403.125 184.907 403.424C184.753 403.717 184.603 404.096 184.459 404.56C184.321 405.019 184.23 405.499 184.187 406H183.195C183.238 405.461 183.337 404.944 183.491 404.448C183.646 403.947 183.819 403.536 184.011 403.216C184.203 402.891 184.39 402.605 184.571 402.36C184.758 402.115 184.915 401.936 185.043 401.824L185.227 401.656H182.443V400.816H186.315ZM190.776 400.952L190.504 401.736C190.248 401.597 189.952 401.528 189.616 401.528C189.126 401.528 188.718 401.68 188.392 401.984C188.072 402.283 187.891 402.683 187.848 403.184C188.115 402.773 188.555 402.568 189.168 402.568C189.691 402.568 190.115 402.728 190.44 403.048C190.766 403.368 190.928 403.792 190.928 404.32C190.928 404.848 190.739 405.28 190.36 405.616C189.982 405.952 189.515 406.12 188.96 406.12C188.32 406.12 187.814 405.891 187.44 405.432C187.072 404.973 186.888 404.4 186.888 403.712C186.888 402.789 187.147 402.056 187.664 401.512C188.182 400.968 188.851 400.696 189.672 400.696C190.142 400.696 190.51 400.781 190.776 400.952ZM187.952 404.336C187.952 404.624 188.051 404.859 188.248 405.04C188.451 405.216 188.688 405.304 188.96 405.304C189.243 405.304 189.48 405.216 189.672 405.04C189.87 404.864 189.968 404.629 189.968 404.336C189.968 404.043 189.87 403.808 189.672 403.632C189.48 403.456 189.243 403.368 188.96 403.368C188.678 403.368 188.438 403.456 188.24 403.632C188.048 403.808 187.952 404.043 187.952 404.336ZM193.129 406H192.169V400.328H195.697V401.232H193.129V402.824H195.433V403.712H193.129V406ZM199.806 406L198.614 403.76H197.91V406H196.942V400.328H199.118C199.651 400.328 200.081 400.493 200.406 400.824C200.731 401.149 200.894 401.557 200.894 402.048C200.894 402.453 200.779 402.8 200.55 403.088C200.321 403.376 200.009 403.568 199.614 403.664L200.894 406H199.806ZM197.91 402.912H198.942C199.235 402.912 199.47 402.835 199.646 402.68C199.827 402.52 199.918 402.309 199.918 402.048C199.918 401.781 199.827 401.571 199.646 401.416C199.47 401.256 199.235 401.176 198.942 401.176H197.91V402.912ZM201.998 405.824L202.262 405.04C202.513 405.2 202.822 405.28 203.19 405.28C203.724 405.28 204.137 405.133 204.43 404.84C204.724 404.547 204.884 404.149 204.91 403.648C204.809 403.824 204.646 403.968 204.422 404.08C204.204 404.192 203.945 404.248 203.646 404.248C203.156 404.248 202.734 404.091 202.382 403.776C202.03 403.456 201.854 403.032 201.854 402.504C201.854 401.976 202.041 401.544 202.414 401.208C202.788 400.867 203.252 400.696 203.806 400.696C204.388 400.696 204.873 400.904 205.262 401.32C205.657 401.736 205.854 402.336 205.854 403.12C205.854 404.075 205.628 404.813 205.174 405.336C204.726 405.859 204.068 406.12 203.198 406.12C202.697 406.12 202.297 406.021 201.998 405.824ZM204.782 402.472C204.782 402.195 204.684 401.965 204.486 401.784C204.289 401.603 204.057 401.512 203.79 401.512C203.518 401.512 203.284 401.603 203.086 401.784C202.894 401.96 202.798 402.189 202.798 402.472C202.798 402.765 202.894 403 203.086 403.176C203.278 403.352 203.513 403.44 203.79 403.44C204.062 403.44 204.294 403.352 204.486 403.176C204.684 402.995 204.782 402.76 204.782 402.472ZM206.799 404.864V403.824L209.007 400.816H210.239V404.016H211.111V404.864H210.239V406H209.295V404.864H206.799ZM209.295 404.016V401.784L207.663 404.016H209.295Z" fill="black"/>
<line opacity="0.8" x1="132" y1="391.75" x2="274" y2="391.75" stroke="black" stroke-width="0.5" stroke-dasharray="0.6 0.6"/>
<line opacity="0.8" x1="74" y1="407.75" x2="108" y2="407.75" stroke="black" stroke-width="0.5" stroke-dasharray="0.6 0.6"/>
<line opacity="0.8" x1="173" y1="407.75" x2="212" y2="407.75" stroke="black" stroke-width="0.5" stroke-dasharray="0.6 0.6"/>
<rect x="0.5" y="310.5" width="289" height="107" stroke="black"/>
<rect x="25" y="378.707" width="18.799" height="18.799" rx="0.5" transform="rotate(45 25 378.707)" fill="#ED712E" stroke="black"/>
<path fill-rule="evenodd" clip-rule="evenodd" d="M26.8397 385.92H22.8799L23.8698 395.819H25.8497L26.8397 385.92ZM25.8497 397.799H23.8698V399.779H25.8497V397.799Z" fill="black"/>
<defs>
<linearGradient id="paint0_linear_505_666" x1="66.6424" y1="180.189" x2="133.328" y2="232.665" gradientUnits="userSpaceOnUse">
<stop stop-color="#FFE001"/>
<stop offset="1" stop-color="#FCDD8A"/>
</linearGradient>
</defs>
</svg>
