<svg width="258" height="261" fill="none" xmlns="http://www.w3.org/2000/svg"><path d="M21.932 158.352c-11.354-55.85 24.82-110.486 80.671-121.84 55.849-11.354 110.486 24.82 121.84 80.67s-24.821 110.486-80.671 121.84c-55.85 11.354-110.486-24.821-121.84-80.67Z" fill="#000" stroke="url(#a)" stroke-width="2"/><mask id="c" maskUnits="userSpaceOnUse" x="9.545" y="-1.707" width="251.164" height="251.164" fill="#000"><path fill="#fff" d="M9.545-1.707h251.164v251.164H9.545z"/><path fill-rule="evenodd" clip-rule="evenodd" d="M114.139 21.505C57.748 32.968 21.224 88.132 32.688 144.524c11.464 56.391 66.628 92.915 123.019 81.451 56.391-11.464 92.915-66.628 81.451-123.019-11.464-56.391-66.628-92.916-123.019-81.452Zm6.126 30.132c21.093-4.288 40.368 2.327 45.487 27.51 2.888 14.205-.349 25.845-7.43 34.009-1.073 1.338-1.843 3.064-1.708 4.829l.664 5.469c.441 3.272-1.358 6.551-4.412 8.069a61.09 61.09 0 0 1-31.423 6.388c-3.404-.205-6.081-2.35-7.212-5.706l-1.524-5.293c-.566-1.679-1.733-3.01-3.458-3.78-9.707-4.75-17.232-14.203-20.12-28.408-5.12-25.183 10.043-38.799 31.136-43.087Zm55.209 105.098c2.327.424 4.651-.273 6.413-1.527 1.978-1.299 4.385-2.685 6.669-2.477 4.739.158 6.902 3.08 7 6.87-.124 1.594-.464 3.232-1.365 4.312 1.944 1.846 2.641 4.169 1.958 6.325-1.065 3.579-3.772 5.698-10.367 4.125-3.061-.722-5.523-2.911-7.037-4.845-1.47-1.718-3.454-2.66-5.523-2.911l-30.51-4.556-26.355 15.892c-1.805 1.039-3.221 2.896-3.947 4.837-.682 2.156-2.095 5.132-4.586 7.208-5.414 4.238-8.778 3.129-11.156.25-1.513-1.933-1.736-4.129-.667-6.588-1.25-.642-2.203-2.017-2.94-3.437-1.604-3.483-.754-7.018 3.762-9.057 2.065-.868 5.038-.576 7.106-.324 2.328.423 4.48-.014 6.501-1.097l16.767-10.133-16.419-2.489a11.23 11.23 0 0 0-6.457 1.312c-1.977 1.299-4.644 2.513-7.789 2.48-6.763-.194-8.926-3.116-8.809-6.95-.007-2.24 1.15-4.268 3.601-5.439-.521-1.462-.397-3.057-.014-4.479 1.066-3.579 3.944-5.957 8.686-4.68 2.112.467 3.841 2.357 5.096 4.119 1.514 1.934 3.542 3.09 6.084 3.47l29.391 4.559 25.322-15.458c1.978-1.298 3.608-3.199 4.247-5.57.467-2.112 1.536-4.571 3.083-5.782 3.652-2.983 7.446-1.961 9.824.917.952 1.375 1.688 2.794 1.736 4.13 2.714.12 4.571 1.536 5.439 3.601 1.604 3.483.71 6.803-5.397 9.838-2.882 1.258-6.026 1.225-8.138.758-2.112-.468-4.48.014-6.457 1.312l-14.144 8.703 19.392 2.781Zm-53.089-61.6c1.652 4.82.849 9.689-6.123 11.779-6.927 2.305-10.254-.829-11.906-5.648-1.652-4.82.055-9.65 6.122-11.779 6.111-1.914 10.254.83 11.907 5.648Zm15.37 24.891-6.672 1.357c-2.153.437-4.097-1.409-3.415-3.565l2.165-10.301c.295-1.853 2.878-2.378 3.874-.788l6.014 8.639c1.255 1.762.186 4.221-1.966 4.658Zm16.534-28.911c.361 5.081-1.522 9.05-8.755 9.848-7.45.842-9.875-3.371-10.236-8.453-.36-5.082 2.339-9.44 8.756-9.849 6.632-.451 9.875 3.372 10.235 8.454Z"/></mask><path fill-rule="evenodd" clip-rule="evenodd" d="M114.139 21.505C57.748 32.968 21.224 88.132 32.688 144.524c11.464 56.391 66.628 92.915 123.019 81.451 56.391-11.464 92.915-66.628 81.451-123.019-11.464-56.391-66.628-92.916-123.019-81.452Zm6.126 30.132c21.093-4.288 40.368 2.327 45.487 27.51 2.888 14.205-.349 25.845-7.43 34.009-1.073 1.338-1.843 3.064-1.708 4.829l.664 5.469c.441 3.272-1.358 6.551-4.412 8.069a61.09 61.09 0 0 1-31.423 6.388c-3.404-.205-6.081-2.35-7.212-5.706l-1.524-5.293c-.566-1.679-1.733-3.01-3.458-3.78-9.707-4.75-17.232-14.203-20.12-28.408-5.12-25.183 10.043-38.799 31.136-43.087Zm55.209 105.098c2.327.424 4.651-.273 6.413-1.527 1.978-1.299 4.385-2.685 6.669-2.477 4.739.158 6.902 3.08 7 6.87-.124 1.594-.464 3.232-1.365 4.312 1.944 1.846 2.641 4.169 1.958 6.325-1.065 3.579-3.772 5.698-10.367 4.125-3.061-.722-5.523-2.911-7.037-4.845-1.47-1.718-3.454-2.66-5.523-2.911l-30.51-4.556-26.355 15.892c-1.805 1.039-3.221 2.896-3.947 4.837-.682 2.156-2.095 5.132-4.586 7.208-5.414 4.238-8.778 3.129-11.156.25-1.513-1.933-1.736-4.129-.667-6.588-1.25-.642-2.203-2.017-2.94-3.437-1.604-3.483-.754-7.018 3.762-9.057 2.065-.868 5.038-.576 7.106-.324 2.328.423 4.48-.014 6.501-1.097l16.767-10.133-16.419-2.489a11.23 11.23 0 0 0-6.457 1.312c-1.977 1.299-4.644 2.513-7.789 2.48-6.763-.194-8.926-3.116-8.809-6.95-.007-2.24 1.15-4.268 3.601-5.439-.521-1.462-.397-3.057-.014-4.479 1.066-3.579 3.944-5.957 8.686-4.68 2.112.467 3.841 2.357 5.096 4.119 1.514 1.934 3.542 3.09 6.084 3.47l29.391 4.559 25.322-15.458c1.978-1.298 3.608-3.199 4.247-5.57.467-2.112 1.536-4.571 3.083-5.782 3.652-2.983 7.446-1.961 9.824.917.952 1.375 1.688 2.794 1.736 4.13 2.714.12 4.571 1.536 5.439 3.601 1.604 3.483.71 6.803-5.397 9.838-2.882 1.258-6.026 1.225-8.138.758-2.112-.468-4.48.014-6.457 1.312l-14.144 8.703 19.392 2.781Zm-53.089-61.6c1.652 4.82.849 9.689-6.123 11.779-6.927 2.305-10.254-.829-11.906-5.648-1.652-4.82.055-9.65 6.122-11.779 6.111-1.914 10.254.83 11.907 5.648Zm15.37 24.891-6.672 1.357c-2.153.437-4.097-1.409-3.415-3.565l2.165-10.301c.295-1.853 2.878-2.378 3.874-.788l6.014 8.639c1.255 1.762.186 4.221-1.966 4.658Zm16.534-28.911c.361 5.081-1.522 9.05-8.755 9.848-7.45.842-9.875-3.371-10.236-8.453-.36-5.082 2.339-9.44 8.756-9.849 6.632-.451 9.875 3.372 10.235 8.454Z" fill="#000"/><path d="m158.322 113.156-1.511-1.311-.026.03-.024.03 1.561 1.251Zm-1.708 4.829-1.994.153.003.044.006.044 1.985-.241Zm.664 5.469-1.986.241.002.013.001.013 1.983-.267Zm-4.412 8.069-.89-1.792-.006.004.896 1.788Zm-31.423 6.388.127-1.996-.007-.001-.12 1.997Zm-7.212-5.706-1.922.553.013.043.014.042 1.895-.638Zm-1.524-5.293 1.922-.554-.013-.043-.014-.042-1.895.639Zm-3.458-3.78-.879 1.796.032.016.032.014.815-1.826Zm72.638 32.076-1.097-1.672-.032.021-.031.021 1.16 1.63Zm-6.413 1.527.358-1.967-.037-.007-.037-.005-.284 1.979Zm13.082-4.004-.182 1.992.058.005.058.002.066-1.999Zm7 6.87 1.994.155.008-.103-.003-.104-1.999.052Zm-1.365 4.312-1.535-1.282-1.202 1.44 1.36 1.292 1.377-1.45Zm1.958 6.325-1.906-.603-.006.016-.004.017 1.916.57Zm-10.367 4.125.464-1.945-.005-.001-.459 1.946Zm-7.037-4.845 1.575-1.233-.027-.034-.028-.033-1.52 1.3Zm-5.523-2.911-.295 1.978.027.004.027.003.241-1.985Zm-30.51-4.556.295-1.978-.712-.106-.616.372 1.033 1.712Zm-26.355 15.892.998 1.733.018-.01.017-.01-1.033-1.713Zm-3.947 4.837-1.873-.701-.018.048-.016.049 1.907.604Zm-4.586 7.208 1.233 1.574.023-.018.024-.02-1.28-1.536Zm-11.156.25-1.575 1.233.017.021.016.02 1.542-1.274Zm-.667-6.588 1.834.798.749-1.721-1.67-.856-.913 1.779Zm-2.94-3.437-1.816.837.02.043.021.042 1.775-.922Zm3.762-9.057-.775-1.844-.024.01-.024.011.823 1.823Zm7.106-.324.358-1.968-.057-.01-.059-.007-.242 1.985Zm6.501-1.097.945 1.762.045-.024.045-.027-1.035-1.711Zm16.767-10.133 1.034 1.712 4.733-2.86-5.467-.829-.3 1.977Zm-16.419-2.489.3-1.978-.059-.009-.06-.005-.181 1.992Zm-6.457 1.312-.945-1.762-.078.042-.075.049 1.098 1.671Zm-7.789 2.48-.057 1.999.018.001h.018l.021-2Zm-8.809-6.95 2 .061v-.067l-2 .006Zm3.601-5.439.862 1.805 1.628-.777-.606-1.699-1.884.671Zm-.014-4.479-1.917-.571-.007.025-.007.026 1.931.52Zm8.686-4.68-.52 1.931.044.012.044.01.432-1.953Zm5.096 4.119-1.629 1.16.026.037.028.036 1.575-1.233Zm6.084 3.47.307-1.976-.011-.002-.296 1.978Zm29.391 4.559-.306 1.976.724.112.625-.381-1.043-1.707Zm25.322-15.458 1.042 1.707.028-.017.028-.018-1.098-1.672Zm4.247-5.57 1.931.52.012-.044.01-.044-1.953-.432Zm3.083-5.782 1.233 1.575.016-.013.016-.013-1.265-1.549Zm9.824.917 1.644-1.138-.048-.07-.054-.066-1.542 1.274Zm1.736 4.13-1.999.07.065 1.846 1.845.082.089-1.998Zm5.439 3.601-1.844.775.013.031.014.03 1.817-.836Zm-5.397 9.838.801 1.833.045-.02.044-.022-.89-1.791Zm-14.595 2.07 1.048 1.704.025-.016.025-.016-1.098-1.672Zm-14.144 8.703-1.048-1.703-4.71 2.898 5.474.785.284-1.98Zm-39.82-47.04-.574-1.916-.029.009-.028.009.631 1.898Zm6.123-11.779 1.891-.648-1.891.648Zm-11.907-5.648-.598-1.908-.032.01-.032.011.662 1.887Zm20.605 31.896.398 1.96-.398-1.96Zm6.672-1.357-.399-1.96.399 1.96Zm-10.087-2.208 1.907.604.03-.095.021-.097-1.958-.412Zm2.165-10.301 1.957.411.01-.048.008-.048-1.975-.315Zm3.874-.788-1.696 1.061.026.042.028.04 1.642-1.143Zm6.014 8.639-1.641 1.143.006.009.006.008 1.629-1.16Zm5.813-14.405-.22-1.988h-.005l.225 1.988Zm-1.48-18.302.127 1.996h.009l-.136-1.996ZM34.648 144.125c-11.245-55.308 24.58-109.417 79.889-120.66l-.797-3.92C56.267 31.229 19.044 87.449 30.728 144.922l3.92-.797Zm120.661 79.89C100 235.259 45.892 199.434 34.648 144.125l-3.92.797c11.684 57.474 67.904 94.697 125.377 83.013l-.796-3.92Zm79.889-120.661c11.244 55.309-24.581 109.417-79.889 120.661l.796 3.92c57.474-11.684 94.697-67.904 83.013-125.378l-3.92.797Zm-120.661-79.89c55.309-11.244 109.417 24.582 120.661 79.89l3.92-.797C227.434 45.084 171.214 7.861 113.74 19.545l.797 3.92Zm53.175 55.284c-2.659-13.077-9.069-21.586-17.781-26.177-8.637-4.55-19.239-5.095-30.065-2.894l.797 3.92c10.267-2.087 19.849-1.468 27.403 2.513 7.479 3.94 13.265 11.33 15.726 23.435l3.92-.797Zm-7.879 35.718c7.54-8.692 10.874-20.986 7.879-35.718l-3.92.797c2.781 13.679-.358 24.666-6.981 32.3l3.022 2.621Zm-1.225 3.367c-.083-1.097.4-2.335 1.275-3.427l-3.122-2.501c-1.27 1.586-2.327 3.799-2.141 6.233l3.988-.305Zm.655 5.38-.663-5.469-3.971.482.663 5.469 3.971-.482Zm-5.507 10.101c3.783-1.88 6.065-5.965 5.504-10.127l-3.965.534c.322 2.381-.994 4.856-3.319 6.01l1.78 3.583Zm-32.441 6.593a63.088 63.088 0 0 0 32.448-6.597l-1.793-3.575a59.1 59.1 0 0 1-30.4 6.18l-.255 3.992Zm-8.979-7.064c1.372 4.073 4.713 6.807 8.987 7.064l.24-3.993c-2.534-.152-4.547-1.707-5.437-4.348l-3.79 1.277Zm-1.551-5.378 1.524 5.293 3.844-1.107-1.524-5.293-3.844 1.107Zm-2.351-2.507c1.208.54 1.988 1.437 2.377 2.592l3.791-1.277c-.741-2.201-2.296-3.967-4.538-4.967l-1.63 3.652ZM87.169 95.122c2.995 14.732 10.865 24.748 21.201 29.806l1.758-3.592c-9.078-4.443-16.258-13.332-19.039-27.01l-3.92.796Zm32.697-45.445c-10.825 2.2-20.374 6.841-26.548 14.403-6.228 7.628-8.807 17.965-6.149 31.042l3.92-.797c-2.46-12.105-.019-21.167 5.328-27.715 5.4-6.614 13.979-10.926 24.246-13.013l-.797-3.92Zm60.861 103.901c-1.395.994-3.181 1.502-4.895 1.19l-.716 3.935c2.941.535 5.803-.35 7.931-1.866l-2.32-3.259Zm8.011-2.839c-1.596-.145-3.117.273-4.414.825-1.304.555-2.521 1.306-3.534 1.972l2.195 3.343c.964-.633 1.94-1.224 2.905-1.634.971-.414 1.797-.585 2.484-.522l.364-3.984Zm8.817 8.81c-.058-2.251-.737-4.443-2.299-6.112-1.58-1.688-3.85-2.612-6.634-2.705l-.132 3.998c1.955.065 3.135.681 3.846 1.44.729.78 1.181 1.943 1.22 3.483l3.999-.104Zm-1.828 5.645c1.327-1.59 1.694-3.78 1.823-5.438l-3.988-.31c-.119 1.53-.431 2.616-.906 3.185l3.071 2.563Zm2.329 5.648c.955-3.017-.096-6.109-2.488-8.38l-2.754 2.901c1.497 1.421 1.839 2.977 1.429 4.272l3.813 1.207Zm-12.738 5.467c3.505.836 6.359.79 8.583-.272 2.303-1.1 3.529-3.092 4.165-5.228l-3.833-1.141c-.43 1.442-1.09 2.299-2.056 2.76-1.045.499-2.841.727-5.931-.01l-.928 3.891Zm-8.148-5.558c1.664 2.125 4.48 4.692 8.152 5.559l.919-3.893c-2.449-.579-4.557-2.389-5.921-4.132l-3.15 2.466Zm-4.189-2.159c1.624.198 3.132.926 4.244 2.226l3.04-2.6c-1.828-2.137-4.288-3.291-6.801-3.597l-.483 3.971Zm-30.565-4.563 30.511 4.556.591-3.956-30.511-4.556-.591 3.956Zm-25.026 15.627 26.354-15.892-2.065-3.425-26.354 15.891 2.065 3.426Zm-3.107 3.825c.592-1.582 1.735-3.035 3.072-3.805l-1.995-3.466c-2.275 1.309-3.963 3.569-4.823 5.869l3.746 1.402Zm-5.179 8.043c2.899-2.414 4.469-5.793 5.213-8.141l-3.814-1.207c-.621 1.964-1.875 4.539-3.959 6.275l2.56 3.073Zm-13.978-.012c1.397 1.691 3.301 3.115 5.864 3.266 2.503.148 5.172-.949 8.067-3.216l-2.466-3.149c-2.519 1.972-4.239 2.439-5.365 2.372-1.068-.063-2.035-.633-3.016-1.821l-3.084 2.548Zm-.959-8.659c-.642 1.476-.943 2.985-.79 4.49.153 1.515.754 2.898 1.717 4.128l3.15-2.466c-.552-.703-.819-1.385-.888-2.065-.07-.691.052-1.51.48-2.492l-3.669-1.595Zm-2.88-1.718c.765 1.476 1.958 3.349 3.801 4.294l1.827-3.558c-.66-.339-1.371-1.216-2.079-2.579l-3.55 1.843ZM96 169.333c-2.61 1.179-4.424 2.918-5.231 5.122-.803 2.192-.487 4.506.476 6.595l3.633-1.673c-.642-1.395-.703-2.591-.353-3.546.346-.944 1.216-1.992 3.121-2.852L96 169.333Zm8.171-.486c-1.045-.128-2.41-.277-3.802-.273-1.369.004-2.934.155-4.32.738l1.55 3.688c.677-.285 1.63-.422 2.782-.426 1.128-.004 2.284.119 3.307.243l.483-3.97Zm5.314-.875c-1.672.896-3.368 1.225-5.198.892l-.715 3.936c2.825.514 5.433-.033 7.803-1.303l-1.89-3.525Zm16.678-10.082-16.767 10.133 2.069 3.423 16.766-10.132-2.068-3.424Zm-15.685 1.2 16.419 2.489.6-3.954-16.419-2.49-.6 3.955Zm-5.212 1.098a9.237 9.237 0 0 1 5.33-1.084l.363-3.983a13.218 13.218 0 0 0-7.583 1.542l1.89 3.525Zm-8.755 2.717c3.68.039 6.736-1.382 8.908-2.808l-2.196-3.343c-1.783 1.171-4.06 2.179-6.67 2.151l-.042 4Zm-10.787-9.011c-.07 2.317.554 4.65 2.486 6.388 1.87 1.682 4.65 2.519 8.265 2.622l.115-3.998c-3.149-.09-4.83-.811-5.705-1.598-.81-.729-1.209-1.775-1.163-3.292l-3.998-.122Zm4.738-7.182c-3.13 1.495-4.748 4.217-4.739 7.249l4-.012c-.004-1.448.691-2.782 2.463-3.628l-1.724-3.609Zm-1.083-3.195c-.443 1.645-.646 3.687.061 5.671l3.768-1.343c-.336-.942-.29-2.088.033-3.288l-3.862-1.04Zm11.137-6.091c-2.787-.751-5.279-.481-7.284.743-1.972 1.204-3.205 3.167-3.839 5.297l3.834 1.141c.431-1.448 1.171-2.463 2.09-3.024.885-.541 2.204-.821 4.16-.295l1.039-3.862Zm6.205 4.89c-1.275-1.791-3.384-4.268-6.293-4.912l-.864 3.906c1.316.291 2.664 1.593 3.899 3.326l3.258-2.32Zm4.751 2.652c-2.063-.308-3.623-1.214-4.805-2.725l-3.15 2.466c1.845 2.357 4.342 3.764 7.364 4.215l.591-3.956Zm29.402 4.56-29.391-4.558-.613 3.952 29.391 4.559.613-3.953Zm23.973-15.188-25.322 15.458 2.085 3.414 25.321-15.458-2.084-3.414Zm3.358-4.383c-.483 1.793-1.745 3.322-3.414 4.418l2.196 3.344c2.286-1.501 4.286-3.773 5.08-6.722l-3.862-1.04Zm3.781-6.836c-1.09.853-1.907 2.051-2.5 3.227a16.134 16.134 0 0 0-1.303 3.697l3.906.864c.202-.914.534-1.896.97-2.761.445-.884.936-1.52 1.393-1.878l-2.466-3.149Zm12.599 1.217c-1.44-1.742-3.404-3.037-5.695-3.363-2.33-.331-4.74.377-6.936 2.172l2.53 3.097c1.455-1.188 2.768-1.462 3.843-1.309 1.114.159 2.235.815 3.174 1.951l3.084-2.548Zm2.193 5.333c-.069-1.945-1.103-3.771-2.091-5.197l-3.289 2.276c.917 1.324 1.356 2.337 1.382 3.062l3.998-.141Zm5.283 2.896c-1.175-2.795-3.727-4.669-7.193-4.823l-.178 3.996c1.962.087 3.123 1.043 3.684 2.378l3.687-1.551Zm-6.35 12.405c3.226-1.603 5.439-3.451 6.505-5.679 1.116-2.335.788-4.681-.182-6.787l-3.633 1.673c.635 1.378.662 2.434.206 3.388-.507 1.061-1.795 2.391-4.676 3.823l1.78 3.582Zm-9.46.919c2.431.538 6.021.585 9.371-.877l-1.601-3.666c-2.414 1.054-5.113 1.034-6.906.638l-.864 3.905Zm-4.927 1.032c1.572-1.033 3.394-1.371 4.927-1.032l.864-3.905c-2.692-.595-5.605.029-7.987 1.594l2.196 3.343Zm-14.194 8.734 14.144-8.702-2.096-3.407-14.144 8.703 2.096 3.406Zm18.628-.901-19.392-2.782-.568 3.96 19.392 2.781.568-3.959Zm-58.922-45.926c3.887-1.165 6.41-3.23 7.568-6.014 1.125-2.706.783-5.674-.128-8.33l-3.783 1.298c.741 2.164.823 4.04.218 5.496-.574 1.378-1.938 2.793-5.023 3.718l1.148 3.832Zm-14.372-6.916c.901 2.629 2.369 5.139 4.868 6.58 2.555 1.473 5.754 1.584 9.562.318l-1.263-3.796c-3.12 1.038-5.048.735-6.301.013-1.309-.755-2.331-2.221-3.082-4.412l-3.784 1.297Zm7.352-14.314c-3.435 1.206-5.853 3.264-7.103 5.915-1.242 2.636-1.209 5.6-.249 8.399l3.784-1.297c-.692-2.019-.631-3.88.083-5.396.708-1.501 2.178-2.923 4.81-3.847l-1.325-3.774Zm14.46 6.887c-.952-2.78-2.689-5.136-5.246-6.473-2.572-1.345-5.702-1.516-9.15-.435l1.196 3.817c2.663-.835 4.66-.59 6.101.162 1.455.761 2.616 2.186 3.316 4.226l3.783-1.297Zm7.205 28.856 6.672-1.357-.797-3.92-6.672 1.357.797 3.92Zm-5.719-6.128c-1.218 3.848 2.324 6.818 5.719 6.128l-.797-3.92c-.408.083-.75-.055-.951-.257-.176-.178-.263-.413-.158-.744l-3.813-1.207Zm2.113-10.109-2.164 10.301 3.915.823 2.164-10.302-3.915-.822Zm7.527-1.438c-1.016-1.623-2.819-2.096-4.293-1.796-1.475.299-2.95 1.438-3.251 3.33l3.95.63c.002-.013.003-.011-.001-.003l-.005.008a.216.216 0 0 1 .104-.045.22.22 0 0 1 .113.001l-.008-.006c-.007-.005-.006-.007 0 .003l3.391-2.122Zm5.961 8.557-6.015-8.639-3.283 2.286 6.015 8.639 3.283-2.286Zm-3.21 7.761c3.438-.699 5.369-4.729 3.198-7.778l-3.259 2.32c.338.475.131 1.362-.736 1.538l.797 3.92Zm7.6-19.035c3.942-.435 6.817-1.782 8.591-4.086 1.752-2.275 2.138-5.11 1.94-7.892l-3.989.283c.163 2.299-.212 3.99-1.12 5.169-.886 1.15-2.569 2.187-5.861 2.55l.439 3.976Zm-12.45-10.3c.196 2.761.97 5.65 3.04 7.721 2.141 2.141 5.291 3.045 9.415 2.578l-.449-3.974c-3.325.376-5.112-.407-6.137-1.432-1.094-1.095-1.714-2.855-1.879-5.176l-3.99.284Zm10.624-11.986c-3.662.233-6.504 1.624-8.349 3.913-1.821 2.258-2.482 5.155-2.275 8.073l3.99-.283c-.153-2.163.356-3.986 1.399-5.28 1.018-1.263 2.734-2.256 5.489-2.43l-.254-3.993Zm12.357 10.308c-.207-2.916-1.258-5.675-3.414-7.639-2.175-1.98-5.221-2.922-8.952-2.668l.272 3.99c2.902-.197 4.792.547 5.987 1.635 1.214 1.106 1.964 2.8 2.118 4.965l3.989-.283Z" fill="url(#b)" mask="url(#c)"/><defs><linearGradient id="a" x1="-44.109" y1="1.429" x2="245.529" y2="132.238" gradientUnits="userSpaceOnUse"><stop stop-color="#A1FFCE"/><stop offset="1" stop-color="#FAFFD1"/></linearGradient><linearGradient id="b" x1="-32.373" y1="-12.598" x2="257.264" y2="118.211" gradientUnits="userSpaceOnUse"><stop stop-color="#A1FFCE"/><stop offset="1" stop-color="#FAFFD1"/></linearGradient></defs></svg>