<svg width="22" height="21" viewBox="0 0 22 21" fill="none" xmlns="http://www.w3.org/2000/svg">
<path d="M2 6.79412H4.86044C5.1275 6.79412 5.38347 6.68729 5.5713 6.49745L10.2891 1.72916C10.9176 1.09402 12 1.53902 12 2.43249V18.5675C12 19.461 10.9176 19.906 10.2891 19.2708L5.5713 14.5025C5.38347 14.3127 5.1275 14.2059 4.86044 14.2059H2C1.44772 14.2059 1 13.7582 1 13.2059V7.79412C1 7.24183 1.44772 6.79412 2 6.79412Z" stroke="white"/>
<path d="M17.5724 4.24316C18.5364 4.89283 19.3334 5.80759 19.8866 6.8992C20.4397 7.9908 20.7303 9.22239 20.7303 10.4751C20.7303 11.7279 20.4397 12.9594 19.8866 14.051C19.3334 15.1426 18.5364 16.0574 17.5724 16.7071M15 7.65169C15.417 7.96238 15.7587 8.38228 15.9951 8.87438C16.2315 9.36648 16.3553 9.91564 16.3556 10.4735C16.3271 10.8493 16.2154 11.6955 15.9968 12.073C15.7609 12.5654 15.4196 12.9858 15.003 13.297" stroke="white" stroke-linecap="round"/>
</svg>
